<?xml version="1.0" encoding="UTF-8" standalone="no"?>
<svg
   xmlns:dc="http://purl.org/dc/elements/1.1/"
   xmlns:cc="http://creativecommons.org/ns#"
   xmlns:rdf="http://www.w3.org/1999/02/22-rdf-syntax-ns#"
   xmlns:svg="http://www.w3.org/2000/svg"
   xmlns="http://www.w3.org/2000/svg"
   xmlns:sodipodi="http://sodipodi.sourceforge.net/DTD/sodipodi-0.dtd"
   xmlns:inkscape="http://www.inkscape.org/namespaces/inkscape"
   width="295"
   height="177"
   id="svg2"
   version="1.1"
   inkscape:version="0.91 r13725"
   sodipodi:docname="adduttori.svg">
  <metadata
     id="metadata9">
    <rdf:RDF>
      <cc:Work
         rdf:about="">
        <dc:format>image/svg+xml</dc:format>
        <dc:type
           rdf:resource="http://purl.org/dc/dcmitype/StillImage" />
      </cc:Work>
    </rdf:RDF>
  </metadata>
  <defs
     id="defs7" />
  <sodipodi:namedview
     pagecolor="#ffffff"
     bordercolor="#666666"
     borderopacity="1"
     objecttolerance="10"
     gridtolerance="10"
     guidetolerance="10"
     inkscape:pageopacity="0"
     inkscape:pageshadow="2"
     inkscape:window-width="1330"
     inkscape:window-height="747"
     id="namedview5"
     showgrid="false"
     inkscape:zoom="1.4094196"
     inkscape:cx="42.863756"
     inkscape:cy="74.840937"
     inkscape:window-x="36"
     inkscape:window-y="21"
     inkscape:window-maximized="1"
     inkscape:current-layer="svg2" />
  <path
     inkscape:connector-curvature="0"
     id="path3341"
     d="m 14.981011,123.04981 c -2.928905,-0.9763 -4.350454,-4.24204 -3.294605,-7.56872 0.34336,-1.08184 -0.03553,-3.70181 -0.84199,-5.82218 -0.806455,-2.12036 -1.9510628,-6.25994 -2.5435728,-9.19907 -1.286213,-6.380223 0.120771,-10.465603 3.7836918,-10.986493 3.559533,-0.50618 5.990346,2.48891 7.260745,8.94622 1.559696,7.927793 2.429275,8.500363 10.618112,6.991513 9.433715,-1.73823 10.351013,-2.37056 9.210046,-6.348883 -2.193594,-7.64862 -0.326585,-16.65215 4.361092,-21.0311 1.700394,-1.5884 5.36785,-4.02277 8.1499,-5.40971 2.78205,-1.38693 6.858273,-4.23266 9.058273,-6.32384 5.378844,-5.11278 11.334601,-8.99384 13.801689,-8.99384 1.112428,0 4.003915,1.16113 6.425527,2.58029 l 4.402931,2.58029 6.684924,-2.70007 c 11.359136,-4.58801 19.245606,-6.46083 27.181746,-6.45493 9.82073,0.007 14.27578,1.34246 19.1387,5.73582 4.81584,4.35082 6.49393,7.41664 8.21031,14.99999 l 1.30338,5.75861 5.42539,0.26454 c 2.98397,0.1455 11.06855,0.933 17.96573,1.75 6.89718,0.817 14.99718,1.48554 18,1.48563 6.97894,2.2e-4 18.31828,2.17296 28.48049,5.45717 7.94225,2.56676 15.37557,3.35833 46.59633,4.96201 l 10.61716,0.54536 0.46911,-9.74217 c 0.52442,-10.89043 1.63434,-13.89273 5.49416,-14.86149 2.05947,-0.51689 3.06998,-0.13474 4.59624,1.7382 1.8191,2.23227 1.90813,3.41835 1.26865,16.90075 -0.7919,16.695973 -1.6436,19.000003 -7.02347,19.000003 -1.87819,0 -6.25532,-0.63105 -9.72695,-1.40233 -3.47163,-0.77128 -14.58105,-1.70241 -24.6876,-2.06918 -15.37325,-0.5579 -19.70297,-1.06856 -26.5,-3.12552 -13.02902,-3.942923 -25.59365,-6.374203 -33.12445,-6.409643 -3.85,-0.0181 -10.15,-0.50493 -14,-1.0818 -3.85,-0.57687 -14.20644,-1.05807 -23.0143,-1.06934 -18.06056,-0.0231 -25.66987,1.17708 -42.9857,6.77992 -11.491486,3.718273 -11.292766,3.579413 -19.933934,13.928783 -5.284581,6.32924 -10.114683,8.39954 -19.660852,8.42715 -6.447384,0.0186 -27.479514,1.14468 -43.91487,2.35115 -2.480312,0.18207 -5.743727,-0.0803 -7.252033,-0.58309 z m 58.761692,-14.7461 c 0.786873,-1.27319 -1.529884,-1.27319 -3.5,0 -1.219476,0.78809 -1.090251,0.97224 0.690983,0.98469 1.205041,0.008 2.469098,-0.43469 2.809017,-0.98469 z M 88.246394,84.349897 c 1.37855,-4.96226 1.26893,-8.31282 -0.25369,-7.75452 -0.687501,0.25208 -1.147198,0.93549 -1.021551,1.51868 0.125648,0.58319 -0.436852,2.94602 -1.25,5.25073 -0.813147,2.3047 -1.464138,5.1463 -1.446647,6.31465 0.03128,2.08914 0.05624,2.09196 1.50927,0.17046 0.812607,-1.07459 1.920788,-3.54959 2.462618,-5.5 z m 17.719626,2.55143 c 2.18613,-0.77131 9.5552,-2.62639 16.37573,-4.1224 6.82052,-1.49602 12.7731,-3.05959 13.22794,-3.47462 1.41098,-1.28745 -1.4664,-8.75999 -4.48773,-11.6546 -3.78754,-3.6287 -12.99305,-4.40137 -22.13364,-1.8578 -8.62137,2.39908 -9.248686,3.07769 -6.1973,6.70406 3.18526,3.78547 3.13398,4.7245 -0.50832,9.30774 -3.126536,3.93423 -3.442506,4.72416 -2.333326,5.83333 0.930786,0.93079 1.544596,0.85623 6.056646,-0.73571 z"
     style="fill:#000000" />
</svg>
