<?xml version="1.0" encoding="UTF-8" standalone="no"?>
<!-- Created with Inkscape (http://www.inkscape.org/) -->

<svg
   xmlns:dc="http://purl.org/dc/elements/1.1/"
   xmlns:cc="http://creativecommons.org/ns#"
   xmlns:rdf="http://www.w3.org/1999/02/22-rdf-syntax-ns#"
   xmlns:svg="http://www.w3.org/2000/svg"
   xmlns="http://www.w3.org/2000/svg"
   xmlns:sodipodi="http://sodipodi.sourceforge.net/DTD/sodipodi-0.dtd"
   xmlns:inkscape="http://www.inkscape.org/namespaces/inkscape"
   width="437.12555mm"
   height="106.64005mm"
   viewBox="0 0 1548.8701 377.85845"
   id="svg4404"
   version="1.1"
   inkscape:version="0.91 r13725"
   sodipodi:docname="psoas2.svg">
  <defs
     id="defs4406" />
  <sodipodi:namedview
     id="base"
     pagecolor="#ffffff"
     bordercolor="#666666"
     borderopacity="1.0"
     inkscape:pageopacity="0.0"
     inkscape:pageshadow="2"
     inkscape:zoom="0.35"
     inkscape:cx="702.37006"
     inkscape:cy="227.57272"
     inkscape:document-units="px"
     inkscape:current-layer="layer1"
     showgrid="false"
     fit-margin-top="0"
     fit-margin-left="0"
     fit-margin-right="0"
     fit-margin-bottom="0"
     inkscape:window-width="1366"
     inkscape:window-height="706"
     inkscape:window-x="-8"
     inkscape:window-y="-8"
     inkscape:window-maximized="1" />
  <metadata
     id="metadata4409">
    <rdf:RDF>
      <cc:Work
         rdf:about="">
        <dc:format>image/svg+xml</dc:format>
        <dc:type
           rdf:resource="http://purl.org/dc/dcmitype/StillImage" />
        <dc:title></dc:title>
      </cc:Work>
    </rdf:RDF>
  </metadata>
  <g
     inkscape:label="Livello 1"
     inkscape:groupmode="layer"
     id="layer1"
     transform="translate(443.08435,-382.07648)">
    <g
       id="g4445"
       transform="translate(0,18)">
      <path
         style="fill:#c7c7c7"
         d="m -42.935394,715.76811 c -2.43103,-1.55244 -10.363562,-5.31533 -27.927917,-13.24796 -4.737003,-2.13938 -12.321659,-4.90811 -16.854791,-6.15273 -10.48486,-2.87872 -11.211571,-4.64558 -5.812452,-14.13189 2.308072,-4.05532 5.463903,-9.67054 7.012942,-12.47826 1.549039,-2.80772 3.547836,-5.95772 4.441775,-7 2.655086,-3.09566 13.696032,-19.294 19.013549,-27.89506 2.720262,-4.4 7.449827,-11.81522 10.51015,-16.47828 5.017732,-7.64557 5.473565,-9.09826 4.641152,-14.79077 -0.507697,-3.47187 -1.403547,-6.80893 -1.990763,-7.41567 -0.737234,-0.76177 -6.529877,-0.90396 -18.717209,-0.45946 -16.346561,0.5962 -27.45716,1.35261 -75.844082,5.16348 -21.83884,1.71999 -31.70297,1.83552 -33.95456,0.39768 -1.2173,-0.77736 -2.17355,-0.7068 -3.3882,0.25 -8.24372,6.49375 -36.93387,26.17018 -56.47813,38.73411 -26.05751,16.75096 -45.83477,27.96269 -57.30986,32.48897 -7.21725,2.8468 -7.40935,2.86496 -12.83341,1.21321 -3.02857,-0.92227 -8.07076,-3.0102 -11.20487,-4.63984 -9.54669,-4.96401 -27.34551,-13.06147 -32.31955,-14.70358 -2.58382,-0.85301 -8.17619,-3.54196 -12.42749,-5.97544 -4.2513,-2.43348 -11.31894,-5.94591 -15.70587,-7.8054 -4.38693,-1.8595 -9.66374,-4.52798 -11.72624,-5.92996 -4.22616,-2.87271 -10.41091,-3.31716 -15.0409,-1.08085 -6.01327,2.90444 -29.12461,1.22518 -34.40345,-2.49974 -3.50885,-2.47597 -1.69303,-5.96846 3.10314,-5.96846 1.99669,0 5.64876,0.67223 8.11572,1.49384 5.6544,1.88318 8.46877,1.88564 14.09356,0.0123 2.53878,-0.84553 8.62755,-1.49651 14.02986,-1.5 7.80105,-0.005 10.08941,0.38618 12.52761,2.14171 1.64072,1.18133 7.91587,4.49123 13.94478,7.35534 6.02892,2.86411 14.79528,7.29757 19.4808,9.85213 4.68553,2.55456 9.14928,4.64466 9.91945,4.64466 0.77017,0 5.74503,2.11054 11.05525,4.69009 16.89408,8.20666 20.48844,9.86315 26.26599,12.10497 l 5.64937,2.19208 13.14205,-6.21508 c 15.52404,-7.34157 67.46873,-40.29962 90.26516,-57.27177 15.00204,-11.16914 16.051,-12.23294 16.051,-16.2778 0,-2.38022 1.01369,-7.34151 2.25264,-11.02508 3.44639,-10.24658 5.99312,-33.31296 6.40803,-58.03923 l 0.37491,-22.34182 -29.57395,0.34182 c -18.94949,0.21902 -29.64027,-0.0174 -29.75855,-0.65818 -1.09227,-5.91706 1.89222,-6.5 33.27833,-6.5 20.54603,0 28.1115,-0.32602 29.0073,-1.25 0.66655,-0.6875 1.43435,-14.975 1.70625,-31.75 0.27188,-16.775 1.17292,-32.92942 2.0023,-35.89871 1.78758,-6.39975 10.37349,-20.56468 13.45494,-22.19779 1.19177,-0.6316 2.16684,-1.58794 2.16684,-2.1252 0,-0.53725 2.59708,-3.66376 5.7713,-6.94779 6.35521,-6.57508 11.49895,-8.83049 20.13901,-8.83049 11.70788,0 18.81788,5.02138 28.356674,20.02666 l 6.022149,9.47334 -0.04117,15.5 c -0.03946,14.85302 -0.254248,15.89653 -5.145811,25 -6.028242,11.21893 -10.101182,15.44265 -19.770482,20.50235 -12.84367,6.72079 -25.1981,5.78026 -37.24239,-2.83521 l -5.82559,-4.16714 -0.13999,7 c -0.077,3.85 -0.72665,9.25 -1.44359,12 -0.71692,2.75 -1.05208,5.17164 -0.74481,5.38142 1.22617,0.83713 30.01201,-4.04393 34.78858,-5.89891 7.96319,-3.0925 15.85199,-2.40911 13.58974,1.17725 -2.70035,4.28074 -31.19703,11.84024 -44.63366,11.84024 -7.14356,0 -8.04917,2.81923 -8.03058,25 0.0125,14.87262 -0.91462,24.24603 -3.90681,39.5 -4.87884,24.8718 -6.00739,34.09099 -4.24976,34.71673 2.01843,0.71858 27.54979,-0.92851 48.94607,-3.15763 10.29626,-1.07269 30.580795,-2.49718 45.076778,-3.16553 14.495967,-0.66835 26.848741,-1.48032 27.450599,-1.80438 2.203263,-1.18629 -10.541861,-31.84123 -17.499039,-42.08919 -2.427022,-3.575 -6.981795,-10.325 -10.121716,-15 -3.139921,-4.675 -6.728659,-9.85 -7.974953,-11.5 -1.246294,-1.65 -3.969061,-6.15 -6.050602,-10 -2.081526,-3.85 -5.236477,-9.52725 -7.010997,-12.61612 -4.4134,-7.68229 -5.02242,-14.18944 -1.37297,-14.66981 1.7117,-0.22531 2.74042,0.24542 2.74042,1.25399 0,3.95019 20.165681,36.33602 36.757423,59.03194 4.556747,6.23319 9.993277,17.43115 13.351084,27.5 0.641946,1.925 1.865988,4.625 2.720058,6 0.854086,1.375 2.045117,4.64043 2.646756,7.25651 0.885452,3.85018 1.93431,5.03404 5.504508,6.21301 2.425831,0.80108 4.775761,2.06417 5.222057,2.80688 0.859786,1.4308 0.780126,1.96072 -2.065177,13.73794 -1.519615,6.28992 -1.38582,9.15503 0.821091,17.58332 3.014707,11.51333 2.756623,15.74471 -0.987959,16.19777 -2.079678,0.25162 -2.950253,-1.11093 -4.467033,-6.99145 -2.800188,-10.85626 -2.895116,-10.9141 -7.884943,-4.80398 -2.470351,3.025 -4.524801,6.18646 -4.565438,7.02546 -0.04071,0.839 -2.165805,4.214 -4.722596,7.5 -2.556792,3.286 -4.670545,6.42454 -4.697244,6.97454 -0.02662,0.55 -2.080618,3.7 -4.56428,7 -9.417069,12.51231 -20.902729,31.93548 -19.437844,32.87094 0.421022,0.26886 4.39702,1.62507 8.835553,3.01379 4.438518,1.38872 12.421504,4.76628 17.739946,7.5057 5.318457,2.73941 11.874204,5.70866 14.568329,6.59834 7.061534,2.33191 10.995674,5.15997 10.995674,7.90424 0,1.31616 -1.114644,2.66616 -2.477007,3 -3.173103,0.77757 -2.725178,0.85636 -5.611963,-0.98711 z M -208.39663,686.38296 c -3.49133,-3.33875 -6.77015,-6.92008 -7.28628,-7.95852 -0.51612,-1.03843 -3.01165,-4.28975 -5.54563,-7.22515 -3.1616,-3.66243 -4.61614,-4.6695 -4.6356,-3.20952 -0.0435,3.26192 -3.81668,4.81042 -6.90925,2.83553 -1.95041,-1.24551 -2.51484,-3.70376 -2.51484,-10.95273 0,-14.4869 1.58083,-15.34633 14.04378,-7.63492 8.50774,5.26413 9.32305,6.50931 5.22184,7.97497 -2.44033,0.87211 -2.29479,1.54049 1.77936,8.17181 2.4404,3.97211 7.20084,10.12713 10.57879,13.67782 3.37794,3.55069 5.92445,7.17095 5.65891,8.04502 -1.00559,3.30996 -4.25209,2.14637 -10.39108,-3.72431 z m -39.41465,-76.51309 c -2.23343,-3.75131 -1.94532,-12.55461 0.79371,-24.25267 l 2.36423,-10.09728 -6.82036,-8.32885 c -8.12455,-9.92149 -21.46276,-23.93175 -31.60039,-33.19258 -8.58263,-7.84032 -8.51884,-10.09103 0.37445,-13.21082 25.10822,-8.80802 33.68209,-12.12168 41.55026,-16.05852 8.83729,-4.42173 13.51399,-5.21009 14.91934,-2.51496 1.13843,2.18324 -16.15749,11.79937 -30.21091,16.79657 -7.14338,2.54009 -14.97818,5.63175 -17.41067,6.87036 l -4.42272,2.25201 6.37358,5.86454 c 8.16624,7.51401 16.12453,16.22135 26.76126,29.28003 l 8.48374,10.41548 -1.87245,9.08452 c -1.02987,4.99648 -1.95536,13.57754 -2.05666,19.06901 -0.1596,8.65145 -0.54946,10.02967 -2.92005,10.32277 -1.78637,0.22086 -3.28089,-0.57721 -4.30636,-2.29961 z"
         id="path4453"
         inkscape:connector-curvature="0" />
      <path
         style="fill:#b1b1b1"
         d="m -44.268833,713.93339 c -3.624646,-2.2748 -10.66828,-5.64398 -25.760593,-12.32208 -3.417094,-1.512 -10.463876,-4.0991 -15.659516,-5.7491 l -9.446618,-3 0.407491,-4.17956 c 0.224119,-2.29876 2.514324,-7.17821 5.089343,-10.84322 2.57502,-3.66501 4.681851,-7.13492 4.681851,-7.71091 0,-0.57598 1.360295,-2.89654 3.022866,-5.15678 6.031654,-8.19989 11.645183,-16.45111 23.20568,-34.10953 11.522648,-17.60062 11.78175,-18.18267 11.677959,-26.23311 -0.05841,-4.52821 -0.549007,-8.69071 -1.090294,-9.25 -1.923364,-1.98734 -38.647075,-0.58631 -77.530956,2.95785 -11.62719,1.05979 -28.01096,2.23568 -36.40837,2.61308 -13.42016,0.60315 -15.26803,0.49187 -15.26803,-0.91943 0,-2.56497 -3.94278,-0.9465 -10.13667,4.161 -5.18783,4.27789 -33.90509,24.10463 -50.93544,35.16643 -18.61544,12.09138 -44.12986,26.6881 -53.81307,30.78629 l -10.74939,4.54943 -5.61997,-1.91577 c -3.091,-1.05367 -7.51406,-2.92706 -9.82904,-4.16309 -6.97169,-3.72235 -26.76795,-12.60492 -34.62229,-15.53501 -4.05134,-1.51137 -8.27941,-3.54844 -9.39571,-4.52683 -1.1163,-0.97839 -5.55303,-3.32466 -9.85939,-5.21392 -4.30637,-1.88927 -11.46554,-5.35696 -15.90928,-7.70598 -8.51554,-4.50143 -13.54936,-5.25857 -18.63385,-2.80274 -3.71645,1.79506 -19.56394,1.92655 -27.16179,0.22536 -6.43801,-1.4415 -9.55303,-4.08899 -6.84545,-5.81803 1.41878,-0.90602 3.91069,-0.76501 10.74695,0.60813 8.2829,1.66371 9.20047,1.67425 13.23589,0.15199 2.62646,-0.99076 7.79956,-1.63565 13.12074,-1.63565 9.64434,0 7.47397,-0.86066 39.79743,15.78172 7.17667,3.69505 14.96964,7.39328 17.31771,8.21828 4.98025,1.74982 24.2369,10.39717 29.92293,13.43712 2.15318,1.15117 6.21477,2.90285 9.02577,3.89262 5.78387,2.03655 3.37614,2.7702 23.07624,-7.03153 10.00359,-4.97726 32.64348,-18.57534 44.50362,-26.72997 3.94502,-2.71246 11.4141,-7.66246 16.59793,-11 11.6741,-7.51619 22.46854,-15.13472 33.21898,-23.44539 7.58503,-5.86365 8.2493,-6.7902 8.2493,-11.50661 0,-2.82119 0.76554,-6.70147 1.70121,-8.62284 2.9906,-6.14112 6.30672,-34.75171 6.8747,-59.31323 l 0.55083,-23.81984 -29.92631,0.23035 c -18.5545,0.14281 -30.12137,-0.14339 -30.43967,-0.75316 -0.28236,-0.54093 0.7649,-1.72224 2.32724,-2.62514 2.39035,-1.38142 7.22304,-1.66009 30.48775,-1.75805 21.74355,-0.0916 28.03938,-0.41824 29.48406,-1.52986 1.29088,-0.99327 1.99469,-10.57853 2.36764,-32.24492 0.29778,-17.30026 1.28358,-32.99254 2.24619,-35.75552 2.49716,-7.16767 8.98702,-18.26145 12.55473,-21.46102 1.69986,-1.52447 3.09066,-3.11629 3.09066,-3.5374 0,-1.88731 12.08456,-12.4313 15.32983,-13.37555 1.98493,-0.57753 6.50362,-1.05006 10.04154,-1.05006 5.41381,0 7.32423,0.60104 12.06245,3.795 6.15068,4.1461 8.72924,7.12087 15.34678,17.705 4.143727,6.62749 4.373718,7.82484 4.321948,22.5 -0.05215,14.79431 -0.283876,15.92712 -5.088841,24.88144 -6.295717,11.73247 -9.084527,14.61457 -19.252237,19.89638 -6.46833,3.3601 -9.37964,4.22218 -14.25863,4.22218 -10.04611,0 -18.57254,-3.91015 -26.16708,-12 l -3.28571,-3.5 -0.0991,9.5 c -0.0545,5.225 -0.69374,11.75 -1.42039,14.5 -0.72663,2.75 -0.72854,5.39945 -0.005,5.88768 1.81731,1.22497 29.29048,-2.94259 35.63163,-5.40517 10.81462,-4.19985 15.78116,-1.81683 6.3261,3.03536 -6.61034,3.39232 -27.23846,7.89453 -36.53074,7.97306 -2.58382,0.0218 -5.5862,0.39982 -6.67196,0.83998 -2.63249,1.06718 -5.09424,22.09971 -4.01508,34.30359 0.61445,6.94851 -0.26223,14.65602 -3.39702,29.8655 -2.32387,11.275 -4.59975,24.23091 -5.05751,28.79092 l -0.8323,8.29091 10.76991,-0.63111 c 5.92382,-0.34711 17.81707,-1.28564 26.4298,-2.08562 30.29648,-2.81403 50.299668,-4.2398 69.339729,-4.94236 10.576093,-0.39024 19.600578,-1.09319 20.054406,-1.56211 2.12578,-2.19649 -11.629993,-32.98673 -20.935332,-46.86063 -3.87335,-5.775 -9.460493,-14.1 -12.415882,-18.5 -2.955389,-4.4 -6.989312,-10.925 -8.964274,-14.5 -1.974963,-3.575 -5.095622,-9.07626 -6.934797,-12.22502 -1.8392,-3.14876 -3.31306,-7.42376 -3.27525,-9.5 l 0.0687,-3.77498 2.06374,3.5 c 10.787869,18.2956 22.635812,36.80621 30.722965,48 5.364324,7.425 11.378502,17.325 13.364818,22 1.986331,4.675 4.811214,11.2 6.277524,14.5 1.46631,3.3 3.474173,8.65383 4.461913,11.8974 1.463193,4.80482 2.503643,6.06458 5.616003,6.79981 4.931745,1.16502 6.412681,2.70538 5.578938,5.80279 -3.817383,14.18183 -4.399917,18.98252 -2.803273,23.10161 2.748856,7.09161 4.138105,18.89839 2.223683,18.89839 -2.028143,0 -3.110074,-2.06216 -5.025985,-9.57951 -0.809237,-3.17515 -2.102572,-6.17611 -2.874085,-6.66879 -1.340877,-0.85627 -11.199936,11.12623 -11.198605,13.61057 3.29e-4,0.62575 -2.015881,3.83773 -4.480454,7.13773 -2.464573,3.3 -6.692924,8.97058 -9.39632,12.6013 -2.703381,3.63071 -4.915256,7.13614 -4.915256,7.78983 0,0.6537 -1.465433,3.02289 -3.256537,5.26488 -1.791089,2.24198 -4.906925,7.28655 -6.924059,11.21016 -2.017149,3.92361 -4.152543,7.92476 -4.745334,8.89144 -0.852457,1.39011 0.409371,2.17771 6.034754,3.76676 3.911904,1.10503 13.126511,4.81411 20.476885,8.24239 7.350373,3.42828 16.252322,7.48721 19.782118,9.01984 4.688334,2.03566 6.284994,3.36196 5.924919,4.92167 -0.704475,3.05163 -3.099144,3.16648 -7.566365,0.36291 z M -204.75485,688.35681 c -0.54819,-1.10296 -2.61329,-3.24046 -4.58912,-4.75 -1.9758,-1.50953 -4.1215,-3.8696 -4.76819,-5.2446 -0.64669,-1.375 -2.68097,-4.05731 -4.52064,-5.96069 -1.83966,-1.90338 -4.53866,-5.27838 -5.99777,-7.5 l -2.65291,-4.03931 -0.0875,4.82332 c -0.0733,4.03858 -0.53335,4.76884 -2.82791,4.48842 -2.35243,-0.28749 -2.8043,-1.73657 -3.19166,-10.23516 -0.26978,-5.91864 0.20386,-10.3186 1.17768,-10.94047 1.12794,-0.72029 4.13926,0.57128 9.79103,4.19942 7.60143,4.87969 7.92392,5.27941 4.69465,5.81868 -4.20574,0.70234 -4.19405,0.516 -0.33557,5.34579 1.72254,2.15618 3.1319,4.53699 3.1319,5.29068 0,1.40712 4.01509,6.63586 11.44286,14.90176 4.86863,5.41797 5.001,5.80756 1.97326,5.80756 -1.23388,0 -2.69192,-0.90243 -3.24011,-2.0054 z m -19.33682,-29.4946 c 0,-0.5225 -0.75753,-1.11125 -1.6834,-1.30833 -0.92587,-0.19709 -1.6834,0.39166 -1.6834,1.30833 0,0.91667 0.75753,1.50542 1.6834,1.30833 0.92587,-0.19708 1.6834,-0.78583 1.6834,-1.30833 z m -22.19287,-49.02667 c -2.07018,-1.5929 -1.50737,-12.68797 1.38624,-27.32806 1.44359,-7.30379 1.41354,-7.4042 -4.33892,-14.5 -8.66072,-10.68317 -21.74747,-24.59345 -32.70052,-34.75829 -3.69475,-3.42888 -6.51004,-6.94367 -6.25619,-7.81065 0.25385,-0.86698 8.20959,-4.35691 17.6794,-7.7554 9.46983,-3.39849 19.9633,-7.44849 23.31884,-9 16.34872,-7.55921 16.67813,-7.67443 18.54039,-6.48521 2.50548,1.59997 -10.33669,9.12899 -24.64137,14.44658 -18.68747,6.94683 -25.8382,10.01445 -25.8382,11.08443 0,0.56645 3.07261,3.97816 6.82803,7.58159 7.03233,6.74771 10.41087,10.44652 22.88252,25.05168 11.18546,13.09895 11.4122,13.61908 9.40361,21.57206 -0.96234,3.81037 -1.69747,11.73766 -1.63363,17.61621 0.1162,10.69793 -0.96693,13.10378 -4.6302,10.28506 z"
         id="path4451"
         inkscape:connector-curvature="0" />
      <path
         style="fill:#8f8f8f"
         d="m -46.56101,712.11221 c -14.003663,-7.38307 -28.808687,-13.87898 -38.208468,-16.76451 l -9.991288,-3.06711 0.917742,-4.2758 c 0.504769,-2.35169 3.062422,-7.17082 5.683684,-10.70919 2.621278,-3.53836 4.766506,-6.98592 4.767179,-7.66124 6.74e-4,-0.67531 1.692058,-3.60031 3.758629,-6.5 10.509821,-14.74675 16.457979,-23.51888 17.475425,-25.77215 0.620868,-1.375 2.439596,-4.06834 4.041595,-5.98519 1.601984,-1.91686 2.912717,-3.86643 2.912717,-4.33239 0,-0.46596 2.114035,-3.92305 4.697855,-7.68242 3.938133,-5.72986 4.697855,-8.13073 4.697855,-14.84618 0,-8.91261 -1.855152,-11.17621 -9.116078,-11.12319 -14.745705,0.10767 -57.922797,2.86667 -84.058047,5.37126 -20.15052,1.93107 -35.65084,2.29935 -36.39963,0.86484 -0.78589,-1.50557 2.48596,-2.00205 21.52309,-3.26596 9.04338,-0.60041 22.43226,-1.72366 29.75308,-2.49612 13.97374,-1.47445 51.962069,-3.78452 64.517211,-3.9233 4.047985,-0.0447 8.104003,-0.55648 9.013382,-1.1372 2.869732,-1.83258 -10.494741,-33.87047 -19.005062,-45.5597 -2.649026,-3.63855 -4.473641,-7.23855 -4.054687,-8 1.335287,-2.42688 13.228783,15.25899 16.889853,25.11555 1.940746,5.225 4.843144,12.14612 6.449779,15.38027 1.606635,3.23415 2.921157,7.30665 2.921157,9.05 0,3.57002 2.378994,5.56973 6.626137,5.56973 4.474957,0 4.925606,2.38532 2.420851,12.81383 -2.143725,8.92536 -2.101914,10.54587 0.532377,20.63138 1.572372,6.01987 2.488312,11.18183 2.035424,11.47104 -1.314037,0.83914 -3.734842,-2.20109 -3.761056,-4.72343 -0.04562,-4.39016 -3.504271,-11.19282 -5.690699,-11.19282 -1.18967,0 -2.163034,0.47787 -2.163034,1.06193 0,0.58405 -1.692026,3.39655 -3.760053,6.25 -2.068043,2.85344 -4.25574,6.31307 -4.861559,7.68807 -0.605836,1.375 -2.78954,4.46918 -4.852681,6.87595 -2.063141,2.40678 -3.751174,4.90758 -3.751174,5.55734 0,0.64976 -2.464197,4.30558 -5.476008,8.12404 -3.011794,3.81847 -5.478168,7.63004 -5.48083,8.47016 -0.0031,0.84013 -0.962544,2.41513 -2.133093,3.5 -2.493543,2.31106 -11.965295,19.3795 -11.965295,21.56192 0,0.82167 3.731036,2.66249 8.291181,4.0907 4.560145,1.4282 12.840114,4.81717 18.399932,7.53104 5.559817,2.71386 13.391861,6.15783 17.404534,7.65327 7.202782,2.68432 9.993183,4.95194 8.276399,6.72582 -1.401339,1.44795 -2.7277,1.1134 -9.278326,-2.34024 z m -163.49347,-30.3322 c -3.43257,-2.78668 -4.20131,-4.4178 -2.08211,-4.4178 1.58726,0 7.14594,5.98562 6.14957,6.6219 -0.41637,0.26588 -2.24672,-0.72596 -4.06746,-2.2041 z m -102.32539,-11.20102 c -6.71712,-3.12436 -35.60215,-16.23981 -42.97228,-19.51186 -6.18632,-2.74648 -17.92464,-8.58569 -31.20583,-15.52329 -9.05602,-4.73053 -10.73261,-5.24105 -15.16869,-4.61885 -2.74303,0.38473 -6.45464,1.31346 -8.24803,2.06385 -2.54044,1.06297 -5.75926,1.164 -14.57208,0.45735 -12.09407,-0.96975 -15.88111,-2.21129 -15.88111,-5.20642 0,-2.26533 2.80886,-2.38745 8.82522,-0.38372 4.96878,1.65484 13.22124,1.98838 15.52533,0.62749 0.81821,-0.48327 5.83757,-1.17669 11.15413,-1.54094 8.39206,-0.57495 10.0442,-0.40335 12.53152,1.30157 1.57578,1.08011 8.24019,4.58603 14.80979,7.79094 6.56961,3.2049 15.51151,7.6271 19.8709,9.8271 4.35938,2.2 10.96202,5.26777 14.67252,6.81726 3.71051,1.54949 10.97444,4.81091 16.14208,7.24759 21.29186,10.03968 23.71092,10.6414 30.09762,7.48642 2.39433,-1.18278 8.93373,-4.41857 14.532,-7.19065 20.8288,-10.31373 92.9122,-58.51749 99.41685,-66.48225 1.2929,-1.5831 2.35505,-5.37986 2.36036,-8.43724 0.006,-3.57606 0.89309,-6.25126 2.48642,-7.5 2.26642,-1.77628 2.3994,-1.78556 1.56595,-0.10934 -0.50095,1.00748 -0.91082,5.52281 -0.91082,10.03407 0,9.42166 2.26233,7.10718 -27.06973,27.69366 -34.35787,24.1138 -83.05171,53.94048 -88.06108,53.94048 -1.00658,0 -3.1056,0.9 -4.66449,2 -3.82129,2.69644 -8.2444,2.46907 -15.23655,-0.78322 z m 94.84707,1.64287 c -3.25257,-2.59455 -6.79377,-7.77174 -6.79377,-9.93243 0,-3.28646 3.94346,-0.75554 7.13321,4.57811 2.81414,4.7056 2.6232,7.71759 -0.33944,5.35432 z m -14.4005,-3.17928 c -1.64016,-1.26879 -1.87053,-3.705 -1.00822,-10.66246 0.61473,-4.95985 1.58179,-9.01791 2.14903,-9.01791 0.56725,0 4.1045,2.025 7.86056,4.5 5.46221,3.59923 6.22555,4.5 3.81345,4.5 -1.65865,0 -3.86137,-0.54 -4.8949,-1.2 -3.12409,-1.99501 -4.81339,0.26355 -5.31985,7.11246 -0.41144,5.564 -0.75546,6.19486 -2.60007,4.76791 z m -13.15119,-59.34324 c -2.32373,-2.57976 -2.70697,-9.41134 -0.88137,-15.71135 l 2.0649,-7.12578 0.88265,11 c 0.79362,9.89051 0.0448,14.18067 -2.06618,11.83713 z m 1.9665,-33.33117 c 0,-1.71164 -1.76169,-4.76765 -3.91488,-6.79115 -2.15318,-2.02349 -3.92114,-4.13712 -3.9288,-4.69694 -0.0188,-1.37098 -18.81909,-21.76469 -25.84711,-28.03771 -3.09321,-2.76092 -7.02929,-6.43718 -8.74685,-8.16948 l -3.12283,-3.14963 6.72923,-2.91197 c 3.70108,-1.60158 12.36666,-4.85998 19.25685,-7.24089 6.89019,-2.3809 16.64934,-6.28175 21.68699,-8.66855 5.03766,-2.3868 9.79424,-4.33964 10.57017,-4.33964 6.41666,0 -11.47825,9.69996 -30.42183,16.49018 -13.70896,4.9139 -19.84377,7.84224 -19.84377,9.47205 0,0.48638 1.72694,2.19494 3.83767,3.79681 4.72994,3.58966 17.4105,17.3558 28.52591,30.96803 8.07712,9.89147 10.05248,14.48343 6.78521,15.77293 -0.91584,0.36145 -1.56596,-0.67397 -1.56596,-2.49404 z m 68.35395,-21.00596 c 0.46967,-5.225 1.33694,-11.075 1.92726,-13 0.59033,-1.925 1.04999,-13.175 1.02146,-25 l -0.0519,-21.5 -30.14457,0.17197 c -24.78698,0.14141 -30.14457,-0.0745 -30.14457,-1.21481 0,-2.8084 6.28835,-3.45716 33.50991,-3.45716 25.53832,0 27.56503,-0.13484 29.07307,-1.93426 1.00961,-1.2047 1.62104,-12.78022 1.62104,-30.6898 0,-17.25967 0.71179,-31.17829 1.78044,-34.81574 1.91284,-6.51087 6.40418,-15.21117 10.35567,-20.0602 9.38118,-11.51206 14.95817,-17.17972 18.94206,-19.25 3.36101,-1.74658 16.07313,-1.56146 20.22251,0.2945 10.37948,4.64258 21.618326,22.05257 23.210758,35.9555 1.271396,11.10027 -0.938506,20.76379 -7.520658,32.88652 -4.32857,7.97217 -6.07237,9.82092 -13.92439,14.76244 -14.04975,8.84194 -23.48928,8.87155 -36.49579,0.11449 -3.07432,-2.0699 -6.35334,-5.22595 -7.28671,-7.01345 -2.96448,-5.67733 -4.53052,-3.5344 -4.38476,6 0.0778,5.0875 -0.36086,12.2322 -0.97473,15.87712 -0.62904,3.73495 -0.49833,6.87094 0.29949,7.18582 2.44623,0.96546 29.09063,-3.25031 37.13792,-5.87608 9.24976,-3.01814 12.75773,-1.85706 5.29749,1.75338 -2.83887,1.37389 -6.59682,2.9826 -8.35102,3.57492 -3.84988,1.29994 -28.85465,5.23484 -33.26541,5.23484 -1.72802,0 -3.65177,0.7875 -4.27502,1.75 -0.62325,0.9625 -1.67856,15.025 -2.34514,31.25 -0.9555,23.25762 -1.7279,30.24062 -3.65017,33 -2.36626,3.39673 -2.41301,3.2197 -1.58427,-6 z m 97.094571,-24.06302 c -1.482831,-1.34034 -3.775337,-4.79116 -5.094432,-7.6685 -1.31911,-2.87733 -3.01062,-5.47315 -3.758926,-5.76848 -1.592823,-0.62864 -6.767541,-11.51166 -5.774994,-12.14548 0.370786,-0.23679 2.614246,2.62408 4.985457,6.35748 2.371211,3.7334 6.390461,9.61177 8.931656,13.06304 4.877297,6.62401 5.303048,10.31248 0.711239,6.16194 z M -98.993,496.73071 c -1.8147,-3.09733 -2.96364,-5.84597 -2.55317,-6.10809 0.80507,-0.51411 5.144929,5.66323 6.625865,9.43124 1.703693,4.33479 -0.767159,2.31868 -4.072695,-3.32315 z"
         id="path4449"
         inkscape:connector-curvature="0" />
      <path
         style="fill:#606060"
         d="m -45.89238,710.73678 c -4.678484,-3.14304 -4.875638,-3.45859 -1.481657,-2.3715 4.885346,1.56477 9.39571,4.03792 9.39571,5.15192 0,1.69229 -2.633571,0.76705 -7.914053,-2.78042 z m -26.536882,-12.36404 c -2.153184,-1.06976 -7.61444,-2.91201 -12.136125,-4.09391 -4.521685,-1.1819 -8.221246,-2.54664 -8.221246,-3.03276 0,-0.48612 0.176169,-0.87975 0.391488,-0.87472 2.188449,0.0511 26.229689,8.84064 26.229689,9.58964 0,0.89854 -2.570087,0.24687 -6.263806,-1.58825 z M -309.29131,670.4482 c -6.09323,-2.49446 -7.18654,-3.36069 -2.6712,-2.11635 2.12164,0.58468 5.09072,1.33318 6.59795,1.66334 1.50723,0.33015 2.74041,0.9978 2.74041,1.48365 0,1.2588 -1.7268,0.99186 -6.66716,-1.03064 z m 12.93097,-1.8447 c 0,-0.44554 2.2902,-1.64701 5.08934,-2.66993 2.79914,-1.02291 6.85104,-2.8058 9.00422,-3.96197 2.9941,-1.6077 2.80995,-1.31758 -0.78297,1.23352 -4.79836,3.40701 -13.31059,6.85931 -13.31059,5.39838 z m 76.14211,-0.77995 c -1.51111,-2.51469 -1.06533,-3.16355 0.78067,-1.13634 0.91403,1.00375 1.332,2.03566 0.92882,2.29313 -0.40319,0.25747 -1.17246,-0.26309 -1.70949,-1.15679 z m -47.16332,-14.46747 c 1.56367,-1.10337 3.18266,-1.78925 3.59776,-1.52417 1.05221,0.67194 -2.85351,3.5303 -4.82386,3.5303 -0.88931,0 -0.33756,-0.90276 1.2261,-2.00613 z m 36.79118,-0.6477 c 0,-2.18978 0.36378,-2.39826 2.34892,-1.34617 1.29191,0.68469 2.34893,1.59164 2.34893,2.01546 0,0.42381 -1.05702,1.02958 -2.34893,1.34617 -1.71548,0.42038 -2.34892,-0.12314 -2.34892,-2.01546 z m -127.04183,-4.09617 c -1.94784,-1.58606 -1.89245,-1.62143 0.59123,-0.37756 1.50723,0.75485 2.74042,1.54235 2.74042,1.75 0,0.82304 -1.28594,0.29331 -3.33165,-1.37244 z m 107.46223,-6.24462 c 0.52944,-0.54704 2.50888,-1.51252 4.39878,-2.14551 3.41231,-1.1429 3.41546,-1.13599 0.45306,0.99462 -2.98864,2.14948 -6.66147,3.0207 -4.85184,1.15089 z m -130.34536,-4.93234 c -9.23602,-4.27251 -10.09272,-5.97446 -1.03956,-2.06521 9.57427,4.13426 9.13781,3.89453 8.19099,4.49916 -0.43665,0.27884 -3.6548,-0.81644 -7.15143,-2.43395 z m 140.5481,-1.09555 c 0.91151,-1.08762 2.31506,-1.97749 3.119,-1.97749 2.15735,0 0.12214,2.75464 -2.51219,3.40018 -1.81616,0.44505 -1.93621,0.16358 -0.60681,-1.42269 z m -186.90242,-3.98618 c -9.55199,-0.77941 -16.3469,-3.37072 -11.77586,-4.49085 1.28614,-0.31517 4.40613,0.11552 6.93332,0.95709 5.22701,1.74063 13.39022,2.02585 15.7034,0.54867 2.23842,-1.42943 20.34228,-2.48812 21.5317,-1.25914 0.5586,0.57719 -1.76104,1.28208 -5.46303,1.66011 -3.53863,0.36134 -7.91068,1.31755 -9.71569,2.1249 -3.52853,1.57826 -3.50671,1.57768 -17.21384,0.45922 z m 198.56721,-3.94828 c 3.41097,-2.40688 4.19262,-2.5673 3.02268,-0.62035 -0.47021,0.78248 -1.9941,1.70184 -3.38645,2.04304 -2.07977,0.50964 -2.01485,0.25575 0.36377,-1.42269 z m 7.89944,-5.04916 c 1.56367,-1.10337 3.18266,-1.78925 3.59776,-1.52417 1.05221,0.67194 -2.85351,3.5303 -4.82387,3.5303 -0.8893,0 -0.33755,-0.90276 1.22611,-2.00613 z m 7.93676,-5.24387 c 0.44022,-0.6875 2.7083,-2.11064 5.04021,-3.16253 4.23314,-1.90951 4.23257,-1.90755 -0.35953,1.25 -5.02289,3.45375 -5.89593,3.81049 -4.68068,1.91253 z m 167.839571,-11.5937 0.811383,-10.93159 -4.197831,-1.75646 c -3.664718,-1.53339 -6.525743,-1.66977 -22.528234,-1.07393 -10.081722,0.37539 -22.824246,1.13302 -28.316727,1.68361 -8.986962,0.9009 -12.917422,0.71482 -10.983752,-0.51999 0.38073,-0.24313 13.00621,-0.95887 28.056618,-1.59052 15.050423,-0.63166 28.77375,-1.48735 30.496296,-1.90155 1.799576,-0.43271 5.284617,-0.18349 8.192292,0.58585 4.817775,1.27474 5.019501,1.54291 4.207367,5.5936 -0.469159,2.34008 -1.336978,7.81824 -1.928485,12.17371 -0.601106,4.42615 -1.857234,8.0844 -2.847886,8.29395 -1.27943,0.27064 -1.546738,-2.6656 -0.961041,-10.55668 z m -156.993601,3.8437 c 1.55889,-1.1 3.10224,-2 3.4297,-2 0.32746,0 -0.1589,0.9 -1.08077,2 -0.92188,1.1 -2.46525,2 -3.4297,2 -0.96446,0 -0.47812,-0.9 1.08077,-2 z m 7.04678,-4.69002 c 0,-0.55 1.40936,-1.81449 3.13191,-2.80998 1.72254,-0.99549 3.1319,-1.35998 3.1319,-0.80998 0,0.55 -1.40936,1.81449 -3.1319,2.80998 -1.72255,0.99549 -3.13191,1.35998 -3.13191,0.80998 z m 29.45947,-6.99309 c 1.13041,-0.28887 2.48104,-0.25335 3.00141,0.0789 0.52035,0.33229 -0.40455,0.56864 -2.05531,0.52522 -1.82426,-0.048 -2.19531,-0.28494 -0.9461,-0.60416 z m -17.70614,-2.32302 c 1.56367,-1.10337 3.18266,-1.78925 3.59776,-1.52417 1.05221,0.67194 -2.85351,3.5303 -4.82387,3.5303 -0.8893,0 -0.33755,-0.90276 1.22611,-2.00613 z m 34.05076,1.3168 c 1.50723,-0.25152 3.9736,-0.25152 5.48083,0 1.50723,0.25153 0.27404,0.45733 -2.74042,0.45733 -3.01445,0 -4.24764,-0.2058 -2.74041,-0.45733 z m 19.1829,-1.8181 c 5.16764,-0.77292 11.15741,-1.38626 13.31059,-1.36298 l 3.91488,0.0423 -3.99054,0.77362 c -2.19479,0.42549 -8.18456,1.03883 -13.31059,1.36298 l -9.32005,0.58935 9.39571,-1.40529 z m -145.53282,-59.19944 c -0.84981,-1.4252 -0.66994,-1.54006 0.87662,-0.5598 1.0702,0.67834 1.55134,1.48524 1.0692,1.79313 -0.48214,0.30789 -1.35776,-0.24711 -1.94582,-1.23333 z m -10.08249,-9.05821 c -1.65541,-1.97527 -0.69321,-2.50162 14.28209,-7.81276 8.8314,-3.13213 18.52347,-6.60284 21.53793,-7.71267 3.66882,-1.35076 4.70426,-1.49958 3.1319,-0.45016 -1.29191,0.86225 -5.87232,2.79136 -10.17869,4.28692 -14.46054,5.02199 -22.95919,8.88389 -24.98575,11.35384 -2.01188,2.45207 -2.01299,2.45216 -3.78748,0.33483 z m 113.19484,-32.37934 c -0.79807,-0.82462 -9.15519,-0.99252 -29.90618,-0.60084 -24.56499,0.46367 -28.53129,0.33789 -26.98022,-0.85558 1.437,-1.1057 7.83496,-1.39916 30.50433,-1.39916 17.48636,0 29.06482,-0.39148 29.65637,-1.0027 0.61896,-0.63955 1.96275,-0.66357 3.71027,-0.0663 2.96807,1.01437 25.90773,-1.82422 35.56434,-4.40079 5.92948,-1.58211 7.39377,-0.29823 1.829,1.60364 -4.47029,1.52778 -30.39823,5.86615 -35.0588,5.86615 -1.93251,0 -3.94918,0.45 -4.48147,1 -1.2888,1.33166 -3.47216,1.26647 -4.83764,-0.14442 z m 29.76801,-22.68481 c -6.51721,-2.61391 -14.75169,-9.14909 -14.75169,-11.70748 0,-2.93272 -3.76585,-5.94916 -6.21861,-4.98112 -1.44155,0.56893 -1.78941,2.8423 -1.25247,8.18529 0.40889,4.06866 0.14313,7.63449 -0.59059,7.92407 -0.73371,0.28958 -1.33404,-7.90212 -1.33404,-18.20377 0,-16.24934 0.35378,-18.97992 2.6709,-20.61496 2.24436,-1.58369 2.35166,-2.21114 0.67183,-3.92884 -1.29445,-1.32361 -1.63963,-3.50695 -0.97932,-6.19406 1.55526,-6.32892 8.44401,-18.61106 12.66151,-22.57453 2.07158,-1.9468 3.7665,-3.9166 3.7665,-4.37733 0,-1.08619 9.46464,-9.97475 11.64129,-10.93273 2.02252,-0.89014 13.7631,-1.00071 17.18628,-0.16186 4.49862,1.10238 12.84574,9.78037 18.17607,18.89655 8.471308,14.48801 8.039607,31.73767 -1.21376,48.5 -5.49096,9.94678 -8.57563,13.13253 -16.96821,17.52416 -8.67744,4.5407 -16.53388,5.4268 -23.46569,2.64661 z m -8.48788,-32.61175 c 0,-1.50117 -2.81142,-3.09702 -4.05593,-2.30228 -1.09222,0.69747 1.07013,3.74326 2.65752,3.74326 0.76911,0 1.39841,-0.64844 1.39841,-1.44098 z m -0.30015,-21.63402 c -0.30862,-0.59125 -1.23057,-1.075 -2.04878,-1.075 -0.81821,0 -1.74016,0.48375 -2.04878,1.075 -0.30863,0.59125 0.61332,1.075 2.04878,1.075 1.43546,0 2.35742,-0.48375 2.04878,-1.075 z m 8.91288,-1.925 c -0.75764,-0.78284 -1.65845,-0.84093 -2.70242,-0.17426 -0.86128,0.55 -1.05453,1.52841 -0.42948,2.17426 0.75764,0.78284 1.65845,0.84093 2.70242,0.17426 0.86128,-0.55 1.05453,-1.52841 0.42948,-2.17426 z m 3.91488,-10.5 c 0,-0.825 -0.70468,-1.5 -1.56595,-1.5 -0.86127,0 -1.56595,0.675 -1.56595,1.5 0,0.825 0.70468,1.5 1.56595,1.5 0.86127,0 1.56595,-0.675 1.56595,-1.5 z m 4.75293,-13.04238 c 1.42434,-1.09596 1.51933,-1.85222 0.32819,-2.61287 -2.24189,-1.43165 -5.08112,-0.19436 -5.08112,2.21427 0,2.3354 2.01608,2.50448 4.75293,0.3986 z"
         id="path4447"
         inkscape:connector-curvature="0" />
    </g>
    <g
       id="g4455">
      <path
         style="fill:#b1b1b1"
         d="m 503.04696,749.45321 c -2.88177,-2.17909 -9.73267,-5.8387 -15.2242,-8.13248 -15.40077,-6.43279 -15.76002,-7.0654 -15.76002,-27.75198 l 0,-18.21341 -7.01269,-2.66592 c -5.06544,-1.92567 -9.0002,-2.66593 -14.17045,-2.66593 -12.36229,0 -29.83092,-2.67488 -31.20541,-4.77832 -1.40402,-2.14865 -1.28857,-2.41043 15.91679,-36.09265 7.14735,-13.99205 15.43614,-32.69666 18.41955,-41.56581 2.98342,-8.86914 6.81606,-18.44045 8.51698,-21.26958 1.70091,-2.82913 3.14266,-7.20827 3.20388,-9.73143 0.14142,-5.8295 5.00418,-21.44412 6.91113,-22.19207 0.79422,-0.31151 2.76191,-0.1374 4.37264,0.38692 2.46868,0.80359 3.16827,-2.56831 4.45473,-21.4714 1.49925,-22.02959 1.43233,-22.58439 -3.7977,-31.48767 -10.69416,-18.20508 -14.95495,-35.34131 -7.49068,-30.12635 1.14728,0.80154 3.51593,4.92511 5.26367,9.16349 1.74774,4.23838 5.64354,11.46482 8.65735,16.05877 l 5.47965,8.35264 -1.33674,41.28802 c -0.73523,22.70841 -2.28941,56.48952 -3.45372,75.06913 -5.60998,89.5204 -6.10905,106.21207 -3.25376,108.82482 1.51929,1.39025 8.05041,4.79863 14.51358,7.5742 12.01783,5.16098 18.54314,9.8784 18.54314,13.4056 0,3.29637 -5.91121,2.28354 -11.54772,-1.97859 z M 475.60533,642.20373 c 1.36362,-23.93289 3.16799,-52.71031 4.0097,-63.94983 0.84171,-11.23951 0.92092,-20.21601 0.17608,-19.94777 -1.90236,0.68504 -7.6607,16.24945 -9.69445,26.20353 -1.92719,9.43256 -15.77946,47.01387 -20.59882,55.8848 -7.2263,13.30134 -15.63067,30.88877 -16.95569,35.48237 -1.3361,4.63197 -1.1288,4.95844 3.63403,5.72287 2.77804,0.44587 8.41897,1.02302 12.5354,1.28255 4.11645,0.25953 10.81523,1.17955 14.88618,2.04451 4.07096,0.86494 7.88023,1.39684 8.46504,1.18198 0.58482,-0.21487 2.17898,-19.97212 3.5426,-43.90501 z M 60.70064,686.85321 c -1.501992,-1.85614 0.08806,-3.88432 5.412758,-6.90415 2.085483,-1.18277 7.30472,-5.28429 11.598305,-9.1145 4.293584,-3.83021 10.881193,-8.68035 14.639128,-10.7781 l 6.832612,-3.81408 21.096727,-0.59218 c 34.53647,-0.96944 49.5525,-4.69997 93.61985,-23.2586 17.4206,-7.33656 35.91372,-19.21086 70.02504,-44.96258 22.32587,-16.85451 40.49696,-36.60144 71.98676,-78.22956 2.03394,-2.68879 2.85763,-5.78377 2.10926,-7.92531 -1.11784,-3.19884 -0.37445,-3.9684 8.29609,-8.58806 14.13179,-7.52939 15.23888,-8.52568 12.0614,-10.85438 -1.47107,-1.0781 -9.94222,-4.38069 -18.82481,-7.33906 -27.63462,-9.20382 -43.20216,-15.85241 -42.3865,-18.10245 0.78499,-2.16543 18.16411,-6.72836 45.73034,-12.00659 17.08168,-3.27071 34.27815,-9.96373 55.60107,-21.6404 6.65249,-3.64298 14.24861,-7.50733 16.88027,-8.58745 2.75263,-1.12977 4.78485,-3.01054 4.78485,-4.42825 0,-1.54507 1.10013,-2.46439 2.9491,-2.46439 2.91018,0 4.20874,2.15313 9.93535,16.4735 4.18736,10.47126 4.00447,10.39672 9.45636,3.85469 5.78949,-6.94718 12.13396,-12.07101 16.8458,-13.60479 2.44416,-0.79561 3.34533,-2.62101 3.34533,-6.77631 0,-6.58207 2.6736,-7.84134 9.50929,-4.4789 4.63787,2.28135 4.85534,2.30205 7.07712,0.67377 1.26071,-0.92395 6.21005,-2.18705 10.99849,-2.8069 7.95642,-1.02992 9.20395,-0.98338 14.48491,0.54033 8.29368,2.39299 17.15902,9.2905 20.97301,16.31765 4.0535,7.46843 2.77348,27.54198 -2.26174,35.46958 -6.6271,10.43387 -21.34262,19.66457 -38.29413,24.02102 -8.23563,2.11651 -14.23514,0.99524 -24.5469,-4.58765 -7.27143,-3.93682 -9.88177,-4.81894 -12.11189,-4.093 -2.24339,0.73025 -3.12473,0.37249 -4.17985,-1.69672 -1.54522,-3.03037 -4.51699,-4.09339 -6.31261,-2.25807 -0.68291,0.69804 -8.72145,3.19982 -17.86341,5.55953 -12.89966,3.32964 -18.8858,5.57833 -26.73248,10.04201 l -10.11073,5.75163 5.54897,3.0589 c 12.75229,7.02975 28.08867,13.62729 31.67751,13.62729 8.05311,0 29.38007,14.56999 29.38317,20.07376 9.2e-4,1.63609 1.01639,5.12762 2.25658,7.75897 1.6516,3.50426 1.59571,5.56769 -0.20905,7.71241 -2.08142,2.47367 -1.91157,3.16745 1.09441,4.47026 3.74677,1.62385 3.766,5.94455 0.0287,6.42416 -1.18113,0.15157 -9.31536,-2.37664 -18.07607,-5.61825 -8.76071,-3.24161 -21.57796,-7.00576 -28.48281,-8.36479 -19.38991,-3.81634 -39.57661,-9.38358 -50.91818,-14.04258 -5.66913,-2.32882 -10.93245,-4.23404 -11.69628,-4.23381 -1.74179,5.1e-4 -11.54066,10.91261 -20.59733,22.93738 -19.67957,26.12907 -43.64088,47.95723 -80.57393,73.40092 -27.64232,19.04316 -30.36508,20.47748 -66.19372,34.87034 -26.6974,10.72471 -44.37518,14.36788 -74.41623,15.33627 l -20.89584,0.67358 -6.350503,4.1705 c -3.492778,2.29378 -10.324879,7.73629 -15.18245,12.09447 -6.690936,6.00306 -9.910094,7.98631 -13.279451,8.18112 -2.886309,0.16688 -4.901793,-0.30425 -5.741676,-1.34218 z M 451.18149,530.52738 c -1.17739,-0.4618 -3.24342,-0.57234 -4.59115,-0.24564 -1.73492,0.42056 -1.32332,1.08381 1.40966,2.2715 3.48849,1.51602 3.93044,1.53966 4.59115,0.24565 0.4021,-0.78753 -0.23225,-1.8097 -1.40966,-2.27151 z m 14.50146,-2.34335 c 0,-3.57602 -8.78812,-11.34639 -16.95627,-14.99257 -5.34744,-2.38704 -5.43057,-2.53565 5.24993,9.38617 4.41811,4.93163 8.85946,8.96659 9.86964,8.96659 1.01018,0 1.8367,-1.51208 1.8367,-3.36019 z m -24.17581,1.03562 c -0.56885,-0.361 -2.5734,-4.72202 -4.45459,-9.69115 -3.90075,-10.30379 -6.0995,-12.31027 -21.13756,-19.28911 -5.96203,-2.76685 -12.41055,-5.95729 -14.33004,-7.08986 l -3.48998,-2.05922 -5.12344,1.86566 c -2.81789,1.02612 -9.28427,4.92856 -14.36975,8.6721 l -9.24632,6.80644 3.9567,2.88174 c 5.89474,4.29322 27.40684,11.25942 46.64895,15.1062 16.22066,3.24275 23.7982,4.2265 21.54603,2.7972 z M 401.0095,474.82533 c 4.69252,-2.0644 14.04821,-6.7999 20.7904,-10.52333 6.74218,-3.72344 15.52515,-8.01171 19.51767,-9.52951 7.22022,-2.74482 7.2836,-2.75101 11.8162,-1.15408 l 4.55707,1.60554 -1.50036,-4.58756 c -2.92107,-8.93163 -11.96891,-29.63409 -13.67015,-31.2788 -1.51816,-1.46772 -2.31212,-1.21711 -6.60644,2.08525 -5.04886,3.88261 -21.16679,12.71561 -34.81261,19.07813 -11.14873,5.19822 -26.43315,9.74469 -39.60672,11.78132 -13.79005,2.13194 -23.40743,4.71398 -23.40743,6.28433 0,0.64011 8.37347,4.0154 18.60772,7.50065 10.23425,3.48526 21.8319,7.83184 25.77257,9.65907 3.94067,1.82724 7.80506,3.21205 8.58752,3.07735 0.78246,-0.13469 5.26201,-1.93396 9.95456,-3.99836 z"
         id="path4463"
         inkscape:connector-curvature="0" />
      <path
         style="fill:#909090"
         d="m 505.3594,749.0129 c -1.6019,-1.50375 -8.77538,-5.35104 -15.94105,-8.54954 -11.99339,-5.35342 -16.24231,-8.7348 -10.97582,-8.7348 1.16963,0 2.1266,0.30903 2.1266,0.68675 0,0.37771 5.17826,2.76701 11.50723,5.30954 11.31992,4.54754 20.39173,10.21429 20.39173,12.73776 0,2.22683 -4.07812,1.39515 -7.10869,-1.44971 z m -37.92917,-57.02513 c -6.15531,-2.41425 -9.81144,-3.08097 -20.05528,-3.65721 -19.16864,-1.07827 -23.98391,-1.70105 -25.25,-3.26567 -1.2699,-1.56931 3.63571,-12.54607 7.10313,-15.89393 l 2.15973,-2.08526 0.13482,2.25273 c 0.0742,1.239 -0.91469,4.1721 -2.19739,6.51802 -2.87392,5.25606 0.32539,7.1031 13.68623,7.90139 18.81022,1.12387 35.4311,5.06467 35.4311,8.40067 0,3.05507 -2.90263,3.01007 -11.0123,-0.17074 z M 63.118254,686.40412 c -1.49517,-1.52824 27.636315,-24.29187 35.095042,-27.42362 4.814734,-2.02159 7.210994,-2.43052 12.028034,-2.05266 9.72857,0.76316 36.49062,-1.57139 50.48133,-4.40366 12.02782,-2.43491 23.85988,-6.64467 56.49821,-20.10166 30.46657,-12.56155 84.57977,-53.8739 112.33943,-85.7648 17.76234,-20.40575 31.93113,-41.51677 30.568,-45.5453 -1.04043,-3.07491 -0.16034,-3.85056 10.74204,-9.46765 6.77155,-3.48881 11.87532,-6.97728 11.87532,-8.11688 0,-1.37472 -4.10631,-3.50039 -13.15578,-6.81022 -37.38318,-13.67279 -50.7233,-19.04419 -50.15777,-20.19598 0.75551,-1.53872 19.95281,-6.33544 43.50749,-10.87097 15.14082,-2.91541 19.57458,-4.32158 34.02556,-10.79117 17.60733,-7.88268 30.29677,-14.28404 34.44987,-17.37869 2.99912,-2.23477 6.6302,-2.46414 6.60221,-0.41705 -0.0542,3.95955 -36.67587,23.12358 -55.71748,29.15677 -6.0897,1.92948 -16.50014,4.30432 -23.13429,5.27743 -6.63414,0.97311 -15.24787,2.81245 -19.14161,4.08743 -6.95057,2.27592 -7.01416,2.35729 -3.48979,4.46701 1.97438,1.18187 8.15559,3.57392 13.73605,5.31565 5.58045,1.74173 17.09563,5.96647 25.5893,9.3883 9.54713,3.84624 16.19389,5.92276 17.40977,5.439 1.08172,-0.43038 4.65902,-2.16509 7.94954,-3.85491 46.70286,-23.98376 47.29778,-24.23328 50.34708,-21.11654 2.01174,2.05623 7.55478,1.41787 9.05337,-1.04263 0.76836,-1.26158 2.19474,-2.69467 3.16969,-3.18466 1.0213,-0.51326 -0.0851,-2.25034 -2.61007,-4.09818 -4.48683,-3.28349 -4.50882,-4.62519 -0.212,-12.94412 3.47915,-6.7359 10.84596,-14.24264 17.4158,-17.74661 5.42276,-2.89217 6.43972,-4.19895 6.43972,-8.27485 0,-4.92041 1.6266,-5.8355 6.37979,-3.58914 3.41966,1.61613 7.71126,1.59877 9.31227,-0.0377 0.69352,-0.70885 4.63632,-1.84198 8.76181,-2.51807 10.22009,-1.67488 17.56014,-0.13771 24.83474,5.20097 9.03732,6.63229 11.33189,11.99263 11.18592,26.13126 -0.15417,14.93459 -3.26941,21.25876 -15.10411,30.66267 -8.5425,6.78793 -24.03995,12.7106 -33.25891,12.7106 -6.27438,0 -16.26845,-4.48978 -22.7121,-10.20328 -2.27217,-2.01471 -6.04658,-4.34297 -8.38756,-5.17391 -4.14291,-1.47056 -4.32573,-1.45106 -6.86146,0.73178 -1.43282,1.23343 -10.01502,4.29075 -19.07154,6.79404 -9.05654,2.50329 -19.27996,5.95078 -22.71873,7.66108 -7.80434,3.88156 -15.27896,8.67493 -15.28945,9.8049 -0.009,1.00178 14.31123,8.61167 24.68409,13.11706 3.96381,1.72166 7.20691,3.50455 7.20691,3.96198 0,0.45744 2.34373,0.8317 5.20827,0.8317 5.9764,0 12.56343,3.05756 21.25917,9.86805 6.87633,5.38553 6.49665,8.95741 -0.41399,3.89462 -6.27771,-4.59912 -14.69931,-8.47327 -16.71458,-7.68915 -0.92145,0.35853 -0.52876,2.14142 0.87267,3.96198 1.40143,1.82057 3.69073,4.7939 5.08737,6.60742 2.05079,2.66295 1.97723,3.70922 -0.38236,5.4385 -1.60692,1.17768 -3.71604,1.82965 -4.68693,1.44885 -0.97092,-0.38082 -2.81604,-3.86035 -4.10032,-7.7323 -3.2968,-9.93967 -6.4664,-12.90714 -21.54793,-20.17388 -7.30973,-3.52205 -14.8939,-7.26258 -16.85373,-8.31229 l -3.56328,-1.90858 -5.36435,2.08526 c -6.24067,2.4259 -24.72452,15.26112 -24.72452,17.16875 0,2.1141 11.47021,8.01269 22.95622,11.80529 5.88648,1.94368 19.35541,5.26861 29.93094,7.38872 10.57554,2.12013 23.70789,5.51445 29.18301,7.54293 5.47512,2.02847 10.42226,3.50477 10.99364,3.28067 0.57139,-0.22411 -0.51636,-1.93202 -2.41722,-3.79537 -4.68283,-4.5904 -4.24144,-5.92307 1.04184,-3.1456 2.39976,1.26158 5.80863,2.29378 7.57526,2.29378 2.61577,0 2.95035,0.74639 1.80227,4.02053 -1.09582,3.12507 -0.66663,4.26246 1.92703,5.10674 3.45185,1.12364 4.64477,4.21835 1.62604,4.21835 -0.94093,0 -8.35744,-2.44747 -16.48113,-5.43883 -9.38473,-3.45572 -22.83246,-7.1712 -36.88138,-10.18999 -15.11319,-3.24746 -27.41798,-6.70927 -38.87919,-10.93818 -9.22245,-3.40286 -17.27869,-5.98676 -17.90271,-5.742 -2.2297,0.87453 -16.09571,16.19247 -22.07368,24.38504 -14.39145,19.72283 -31.00725,36.13356 -56.43614,55.73962 -32.49326,25.05278 -47.06444,34.04137 -74.50834,45.96224 -34.02766,14.78068 -53.76997,19.50335 -84.65157,20.24997 -10.69179,0.25849 -21.01801,0.78748 -22.94716,1.17553 -4.160714,0.83693 -18.202828,10.77819 -25.193175,17.83577 -6.841974,6.90779 -10.776136,8.66061 -13.405781,5.9728 z M 431.99317,665.00045 c 0,-1.14689 0.48269,-1.61607 1.07263,-1.04263 0.58994,0.57345 0.58994,1.51181 0,2.08526 -0.58994,0.57344 -1.07263,0.10426 -1.07263,-1.04263 z m 1.85596,-5.83871 c 0,-1.14689 0.92764,-2.64827 2.06146,-3.33641 1.6318,-0.99038 2.06146,-0.81653 2.06146,0.8341 0,1.14689 -0.92764,2.64828 -2.06146,3.33641 -1.6318,0.99038 -2.06146,0.81654 -2.06146,-0.8341 z m 44.92917,-10.84332 c 0,-1.14689 0.4827,-1.61607 1.07264,-1.04263 0.58993,0.57345 0.58993,1.51181 0,2.08526 -0.58994,0.57344 -1.07264,0.10426 -1.07264,-1.04263 z m -37.62146,-3.12788 c 3.52852,-7.52636 6.0943,-11.39541 6.92933,-10.44896 1.02757,1.16468 -5.65465,13.57684 -7.30922,13.57684 -0.59758,0 -0.42662,-1.40755 0.37989,-3.12788 z m 19.53024,-47.7523 c 0.70831,-2.98192 2.14846,-5.98468 3.20036,-6.67282 2.35755,-1.54227 -0.11781,8.01897 -2.69927,10.42627 -1.05842,0.98701 -1.26302,-0.54568 -0.50109,-3.75345 z m 21.97662,-92.37673 c -0.017,-0.80283 -1.41106,-2.96106 -3.09654,-4.79609 -3.40515,-3.70724 -4.40852,-9.21997 -1.29044,-7.08986 1.00731,0.68813 3.00456,3.49359 4.43834,6.23435 1.43379,2.74076 3.07533,5.46201 3.6479,6.04723 0.57254,0.58523 -0.0191,1.06404 -1.31311,1.06404 -1.29478,0 -2.36854,-0.65685 -2.38615,-1.45967 z"
         id="path4461"
         inkscape:connector-curvature="0" />
      <path
         style="fill:#5c5c5c"
         d="m 500.88996,744.61079 c -2.00634,-1.20101 -3.16942,-2.37133 -2.58461,-2.6007 0.58482,-0.22938 2.70486,0.56559 4.7112,1.7666 2.00632,1.20101 3.1694,2.37133 2.58458,2.60071 -0.58481,0.22938 -2.70486,-0.5656 -4.71117,-1.76661 z m -36.27031,-54.5873 c -4.47659,-1.83269 -8.07377,-2.5023 -13.44237,-2.5023 -7.81139,0 -23.59702,-1.52862 -26.71369,-2.58685 -1.03253,-0.35058 -1.3005,-1.22701 -0.59549,-1.94761 1.12954,-1.15452 2.11056,-1.112 8.25711,0.35786 3.8364,0.91744 9.49006,1.66946 12.56372,1.67117 10.6399,0.006 31.62701,4.53245 31.62701,6.82133 0,1.48016 -5.87658,0.56894 -11.69629,-1.8136 z M 64.859248,685.87827 c -1.292248,-0.8201 9.278689,-8.74284 10.845309,-8.12837 1.188485,0.46614 -5.680802,8.03182 -7.747374,8.53277 -0.979328,0.23739 -2.373397,0.0554 -3.097935,-0.4044 z M 86.425379,667.7386 c 0.650603,-1.01717 2.51495,-2.283 4.142998,-2.81296 4.450338,-1.44866 3.637428,0.40217 -1.182913,2.69324 -4.113347,1.95504 -4.134532,1.95589 -2.960085,0.11972 z m 10.292979,-6.90866 c 1.814514,-1.37627 4.470752,-2.55239 5.902752,-2.61361 1.432,-0.0612 6.91,-0.18723 12.17332,-0.28002 17.95589,-0.31653 32.95596,-1.52792 38.03389,-3.07155 2.7894,-0.84795 6.44485,-1.54173 8.12323,-1.54173 6.23769,0 22.13439,-5.25059 45.59788,-15.06072 13.2795,-5.55218 25.47971,-11.09725 27.11159,-12.32238 3.23977,-2.43225 12.98243,-7.25672 12.98243,-6.42878 0,1.03907 -8.5178,7.02495 -10.77496,7.5721 -1.28114,0.31056 -4.05203,1.67571 -6.15752,3.03367 -6.26494,4.04064 -48.96325,21.50689 -58.364,23.8745 -18.14959,4.57102 -29.30467,6.09804 -48.02719,6.57445 -9.95227,0.25324 -20.21455,0.97928 -22.80506,1.61341 -6.843463,1.67521 -7.483907,1.44758 -3.796362,-1.34934 z M 253.0312,614.32879 c 0.0106,-0.87915 8.19303,-6.04724 9.5737,-6.04724 0.62577,0 -0.81506,1.50139 -3.20187,3.33641 -4.09418,3.14771 -6.3898,4.12435 -6.37183,2.71083 z m 19.17946,-14.17973 c 0.0714,-0.9317 14.73415,-9.92166 14.7901,-9.06812 0.0572,0.87171 -12.62102,9.6937 -13.93092,9.6937 -0.49898,0 -0.88562,-0.28151 -0.85918,-0.62558 z m 196.66219,-55.25921 c -0.72288,-0.45876 -0.30088,-0.8341 0.93778,-0.8341 1.23866,0 2.25211,0.37534 2.25211,0.8341 0,0.45875 -0.422,0.8341 -0.93779,0.8341 -0.51578,0 -1.52923,-0.37535 -2.2521,-0.8341 z m -10.70563,-3.3679 c -3.85733,-1.67177 -3.83836,-1.68758 1.15582,-0.96296 2.79267,0.40519 5.44586,1.17005 5.89595,1.69968 1.30947,1.54081 -2.7834,1.11321 -7.05177,-0.73672 z m 5.38913,-4.97312 c 0,-0.45875 0.95697,-0.8341 2.1266,-0.8341 1.16963,0 2.1266,0.37535 2.1266,0.8341 0,0.45876 -0.95697,0.8341 -2.1266,0.8341 -1.16963,0 -2.1266,-0.37534 -2.1266,-0.8341 z m -39.57331,-4.94302 c -11.8235,-2.55703 -23.091,-5.17182 -25.03892,-5.81063 -5.94343,-1.94914 -1.98441,-2.05918 4.90085,-0.13622 3.55191,0.99201 12.45895,2.89705 19.79345,4.23344 13.48114,2.45633 24.76803,5.4345 22.87338,6.03539 -0.56733,0.17993 -10.70528,-1.76496 -22.52876,-4.32198 z m 19.57073,-7.44151 c -0.79847,-0.50675 -2.01123,-2.90085 -2.69499,-5.32025 -1.43235,-5.06809 1.76769,-4.75607 5.4073,0.52722 2.22108,3.22415 0.26429,6.68207 -2.71231,4.79303 z m -60.96907,-4.02199 -5.15553,-2.2268 5.78133,1.60122 c 3.1797,0.88068 5.81137,1.88274 5.84814,2.2268 0.10973,1.02717 -1.05633,0.73877 -6.47394,-1.60122 z m -27.47684,-3.19751 c -0.004,-0.91897 1.74147,-4.10941 3.87965,-7.08986 2.13819,-2.98046 3.52503,-6.92039 3.08185,-8.75542 -0.71975,-2.98015 0.45464,-3.98798 10.99854,-9.43864 8.2438,-4.26161 11.80436,-6.85737 11.80436,-8.60575 0,-2.08975 0.67526,-2.41944 4.08587,-1.99487 2.89802,0.36077 5.21646,-0.12797 7.97474,-1.6811 2.13887,-1.20436 7.71674,-3.99196 12.39526,-6.19467 4.67851,-2.20271 14.63315,-7.0511 22.12143,-10.77421 7.48828,-3.7231 14.41536,-6.76928 15.39353,-6.76928 3.69604,0 10.33217,2.94051 10.30091,4.5644 -0.0468,2.4292 -1.37359,2.98975 -19.36715,8.18225 -21.06254,6.07812 -37.99219,14.42512 -38.01046,18.74068 -0.004,1.0322 -1.20416,1.89749 -2.6662,1.92287 -1.46203,0.0254 -4.93198,1.17404 -7.71097,2.55258 -6.44987,3.19946 -23.65633,15.68458 -23.65633,17.16516 0,0.61843 2.53246,2.62538 5.6277,4.45989 6.69997,3.97101 5.31626,5.25324 -2.22487,2.06171 l -5.33912,-2.2596 -4.34041,2.79236 c -3.39577,2.18464 -4.34212,2.42872 -4.34833,1.1215 z m 94.02865,-6.81891 c -3.81218,-1.67867 -5.41935,-1.91297 -7.80195,-1.13739 -2.37607,0.77345 -3.47435,0.62972 -5.27566,-0.69042 -3.5101,-2.57247 -2.74644,-3.4451 3.01492,-3.4451 3.87908,0 6.75571,0.9108 10.78648,3.41521 6.43368,3.99738 6.0971,4.86122 -0.72379,1.8577 z m -26.07276,-9.60391 -4.80443,-2.75886 6.05462,2.2685 c 3.33004,1.24768 5.49202,2.48916 4.80443,2.75885 -0.6876,0.2697 -3.41217,-0.75113 -6.05462,-2.26849 z m -12.71498,-6.11543 c -1.47952,-0.69922 -2.15272,-1.48205 -1.49598,-1.73963 0.65671,-0.25759 2.26221,0.3145 3.56775,1.2713 2.78552,2.04144 1.75147,2.2752 -2.07177,0.46833 z m -45.67918,-20.85961 c -17.90386,-6.53078 -19.26095,-8.70431 -1.72429,-2.76164 10.44676,3.5401 22.67004,9.25315 19.26871,9.00601 -0.2924,-0.0213 -8.18739,-2.83121 -17.54442,-6.24437 z m 119.43771,-2.33055 c -8.32544,-4.74126 -12.89452,-9.91354 -15.12098,-17.11723 -0.75837,-2.45366 -2.8826,-5.93528 -4.72056,-7.73695 -2.78448,-2.72953 -2.97966,-4.41964 -1.17052,-10.13558 2.77849,-8.77862 8.39683,-15.17382 12.23338,-13.92495 3.60573,1.17372 5.99054,-0.28616 4.16094,-2.54714 -0.83065,-1.02652 0.34938,-2.75445 3.05263,-4.47002 2.85119,-1.80945 4.40673,-4.20608 4.40673,-6.78945 l 0,-3.99281 4.46386,1.58448 c 4.4112,1.56579 4.51818,1.55777 9.06617,-0.67937 2.53127,-1.24511 7.75663,-2.69514 11.6119,-3.22227 6.27227,-0.8576 7.57732,-0.75061 12.40676,1.01717 13.99975,5.12451 18.85424,13.02298 18.64426,30.33504 -0.18672,15.39455 -2.67426,20.23413 -15.52467,30.20394 -5.92202,4.59451 -11.03517,7.29019 -17.46443,9.20735 -12.83282,3.82667 -16.74072,3.56676 -26.04547,-1.73221 z m 9.22141,-1.66733 c 0,-1.23301 -10.05013,-5.23959 -11.60916,-4.6281 -0.54613,0.2142 0.87148,1.59195 3.15024,3.06166 4.25881,2.74676 8.45892,3.52455 8.45892,1.56644 z m 34.02556,-8.06935 c 0,-0.45876 -0.42201,-0.8341 -0.93779,-0.8341 -0.51579,0 -1.52924,0.37534 -2.25211,0.8341 -0.72287,0.45875 -0.30087,0.8341 0.93779,0.8341 1.23865,0 2.25211,-0.37535 2.25211,-0.8341 z m -198.42361,-0.91789 c -4.32097,-1.39698 -7.82913,-2.98183 -7.79589,-3.52187 0.0642,-1.04459 32.08875,-8.79229 44.63731,-10.79913 13.87237,-2.21855 25.81897,-6.91354 57.91058,-22.75873 10.47372,-5.17139 10.22795,-3.56655 -0.39383,2.57182 -22.37822,12.93244 -44.89218,21.54843 -63.34305,24.24107 -13.56069,1.979 -28.23845,5.93669 -28.23845,7.61419 0,0.74466 1.58908,2.04264 3.5313,2.8844 5.98667,2.59464 1.97878,2.44739 -6.30797,-0.23175 z"
         id="path4459"
         inkscape:connector-curvature="0" />
      <path
         style="fill:#3f3f3f"
         d="m 467.10069,690.30152 c -0.77976,-0.30583 -1.41774,-0.94392 -1.41774,-1.41797 0,-0.52265 0.99051,-0.4734 2.51647,0.12511 1.38407,0.54287 2.02205,1.18096 1.41773,1.41798 -0.60431,0.23702 -1.73672,0.18072 -2.51646,-0.12512 z M 65.8827,684.70028 c 0,-0.68813 0.956969,-1.48312 2.126597,-1.76665 1.169629,-0.28353 2.126597,0.0475 2.126597,0.73565 0,0.68813 -0.956968,1.48312 -2.126597,1.76665 -1.169628,0.28353 -2.126597,-0.0475 -2.126597,-0.73565 z M 359.50257,512.12519 c 0.21836,-1.48498 3.77816,-4.52642 3.95424,-3.37845 0.0823,0.53593 0.68296,1.51969 1.33499,2.18615 0.65204,0.66645 -0.30493,1.43606 -2.12659,1.71024 -1.90803,0.28718 -3.24874,0.0676 -3.16264,-0.51794 z m 77.50473,-4.7487 c -1.71853,-1.09063 3.17599,-2.0154 5.61132,-1.0602 1.36126,0.53391 0.95178,0.98793 -1.18049,1.30886 -1.7956,0.27026 -3.78947,0.15836 -4.43083,-0.24866 z m -73.40101,-5.57714 c 0,-3.41752 1.41461,-4.6249 11.69628,-9.98285 6.43296,-3.35231 11.69629,-6.67929 11.69629,-7.39328 0,-0.71399 2.35329,-1.6491 5.22956,-2.07802 2.87626,-0.42891 7.19208,-2.20252 9.59071,-3.94133 2.39864,-1.73882 10.45042,-5.97658 17.89285,-9.41725 11.49911,-5.31609 14.44089,-6.22841 19.58471,-6.07368 3.75706,0.11301 7.89271,-0.49581 10.90314,-1.60508 3.7721,-1.38991 4.85013,-1.50444 4.85013,-0.51524 0,0.69955 -5.50257,2.92321 -12.22793,4.94148 -18.99376,5.69998 -36.92015,13.26458 -42.29523,17.84781 -2.69104,2.2946 -8.51038,5.88872 -12.93192,7.98694 -4.42151,2.09822 -10.84673,6.13319 -14.27827,8.96659 -3.43154,2.83341 -7.02017,5.15164 -7.97474,5.15164 -0.95457,0 -1.73558,-1.74948 -1.73558,-3.88773 z m 127.80906,-28.1244 c -1.94146,-0.91753 -1.34852,-1.23178 2.92949,-1.55253 4.17998,-0.31341 5.36366,-0.0596 5.36366,1.15037 0,1.81994 -4.80062,2.05273 -8.29315,0.40216 z m 24.64877,-7.81621 c -0.94625,-0.57345 -3.51926,-1.04263 -5.71783,-1.04263 -3.16456,0 -4.27429,-0.82545 -5.3264,-3.96198 -0.73095,-2.17909 -2.7962,-5.32371 -4.58941,-6.98805 -4.27286,-3.96575 -3.12816,-6.22863 2.98094,-5.89281 6.50326,0.35748 7.6573,-2.14959 4.92447,-10.69798 -1.23616,-3.86684 -2.2476,-7.28684 -2.2476,-7.59999 0,-0.31315 1.91394,-0.37306 4.2532,-0.13313 6.29887,0.64607 5.36349,-1.48325 -2.31672,-5.27381 -13.36587,-6.59671 -18.66072,-2.24045 -10.45467,8.60144 4.95219,6.54287 4.2627,10.0016 -1.77526,8.90552 -1.94118,-0.35239 -6.63957,-0.63289 -10.44087,-0.62332 -6.87952,0.0173 -6.91201,-0.002 -7.03399,-4.2157 -0.0674,-2.3282 -0.83501,-5.73447 -1.70581,-7.5695 -1.36898,-2.88491 -0.89262,-3.5952 3.52018,-5.24881 3.66984,-1.37521 4.75024,-2.46428 3.8462,-3.87708 -0.69146,-1.08057 0.16609,-3.03508 1.90577,-4.34335 1.73965,-1.30828 3.16889,-3.59856 3.1761,-5.08951 0.009,-1.92586 0.99763,-2.71083 3.41308,-2.71083 1.86998,0 5.95634,-1.07336 9.08078,-2.38524 11.28823,-4.73967 21.8608,-4.36075 28.07387,1.00617 5.07863,4.38698 5.35822,6.63456 0.47995,3.85844 -11.91949,-6.78316 -23.93836,-4.55445 -17.92092,3.32315 1.32302,1.732 2.41943,4.0439 2.43644,5.13757 0.017,1.09366 1.52643,3.67325 3.35424,5.73242 3.58164,4.03497 2.7622,7.72675 -2.14199,9.65028 -2.67156,1.04785 -2.26744,1.82125 3.13448,5.99883 3.41078,2.63774 6.21357,5.9698 6.22837,7.40459 0.0149,1.43478 1.4624,3.07596 3.21684,3.64706 5.00412,1.62893 3.75932,4.47853 -3.0789,7.04815 -4.22596,1.58801 -6.47822,3.33768 -6.91145,5.36919 -0.4059,1.90343 -1.2764,2.62946 -2.36309,1.97091 z m -22.73541,-33.1063 c 0,-1.11982 -0.96373,-2.26965 -2.14161,-2.55518 -2.69165,-0.65247 -5.10347,1.66958 -3.46914,3.34005 1.9308,1.97351 5.61075,1.45873 5.61075,-0.78487 z m -6.28231,30.46691 c -1.64594,-1.20627 -1.67831,-1.73964 -0.10556,-1.73964 2.57809,0 5.38586,2.33925 3.63299,3.02676 -0.63455,0.24889 -2.22189,-0.33032 -3.52743,-1.28712 z m 49.22883,-13.83411 c 0.0434,-1.37627 0.51996,-1.83831 1.05913,-1.02676 0.53918,0.81156 0.50373,1.93759 -0.0789,2.50231 -0.58244,0.56471 -1.02358,-0.0993 -0.98024,-1.47555 z m -69.03969,-3.54493 c -0.58852,-0.80283 -1.7372,-2.21037 -2.55262,-3.12788 -1.29187,-1.45362 -0.91257,-1.41491 2.94863,0.30093 4.54677,2.02049 5.89623,4.28662 2.55262,4.28662 -1.03321,0 -2.3601,-0.65685 -2.94863,-1.45967 z m 62.02577,-5.42166 c -0.12079,-0.11469 -0.52563,-3.96198 -0.89974,-8.54954 -0.37413,-4.58756 -0.35793,-7.96567 0.0359,-7.50692 5.82271,6.78152 7.78071,10.7519 6.56047,13.3031 -0.77915,1.62904 -2.33026,2.96188 -3.44688,2.96188 -1.11663,0 -2.12904,-0.0938 -2.24979,-0.20852 z"
         id="path4457"
         inkscape:connector-curvature="0" />
    </g>
    <g
       id="g4465">
      <path
         style="fill:#c7c7c7"
         d="m 1031.9398,758.58831 c -16.9388,-2.08481 -22.3245,-3.19554 -27.3428,-5.63913 -4.3206,-2.10386 -4.62039,-3.3687 -4.62039,-19.49616 0,-9.48549 1.01969,-18.46306 2.26609,-19.95016 1.5461,-1.84482 1.5609,-8.14001 0.047,-19.8151 -1.2208,-9.4112 -3.24413,-26.33628 -4.49643,-37.61128 -2.23074,-20.08483 -3.1856,-26.00656 -10.07796,-62.5 -1.86978,-9.9 -4.29576,-26.325 -5.39108,-36.5 -4.5007,-41.80899 -7.8778,-60 -11.13881,-60 -1.13811,0 -2.0693,0.39337 -2.0693,0.87417 0,1.31581 -16.79737,8.29962 -34.16752,14.20577 -15.50758,5.27284 -28.72626,10.40673 -47.72332,18.53481 -5.88569,2.51826 -12.37267,4.38525 -15.23681,4.38525 -2.74317,0 -9.2195,1.12508 -14.39189,2.50019 -8.54986,2.27302 -9.7191,2.35739 -12.86872,0.92857 -3.63682,-1.64984 -4.39864,-4.16072 -2.09035,-6.88957 1.74768,-2.06607 16.60773,-5.53919 23.69994,-5.53919 3.76612,0 13.90177,-3.41583 33.3508,-11.23961 15.36725,-6.18178 33.03633,-12.84251 39.26468,-14.80163 6.22834,-1.95911 16.30696,-6.30681 22.39698,-9.66155 12.69782,-6.99472 15.7341,-7.89918 18.49711,-5.50997 1.08941,0.94202 3.10538,10.71276 4.47997,21.71276 5.01357,40.12098 9.3086,69.51225 13.51729,92.5 2.36632,12.925 5.35382,32.05 6.63882,42.5 1.285,10.45 3.2543,24.4 4.3761,31 1.1218,6.6 2.0622,16.85195 2.0897,22.78212 0.032,6.89953 1.1545,11.98131 3.1173,14.11234 2.8009,3.04113 4.051,3.37311 14.4002,3.82422 12.1058,0.52769 19.9711,2.96331 25.7006,7.95864 3.2543,2.83724 9.7364,20.38402 9.7364,26.35594 0,4.71997 -7.3251,11.05271 -13.6775,11.82463 -6.1393,0.74601 -4.8749,0.80452 -18.2856,-0.84606 z m 19.4747,-17.51183 c -0.5876,-13.70648 -9.3801,-19.92368 -26.4039,-18.67044 -14.4888,1.06662 -16.3343,2.68281 -14.9167,13.06386 0.6839,5.00862 2.4446,9.66999 3.9126,10.35861 3.9773,1.86564 21.2632,4.12148 30.0572,3.92252 l 7.7153,-0.17455 -0.3645,-8.5 z m -78.99234,14 c -0.76961,-1.1 -2.71965,-2 -4.33342,-2 -1.61378,0 -8.73864,-1.3973 -15.83303,-3.10511 -7.09438,-1.70781 -17.59367,-3.74795 -23.33172,-4.53364 -15.36769,-2.10424 -15.97543,-3.08331 -12.91087,-20.79939 13.43033,-77.63993 18.78264,-99.23648 32.23344,-130.06186 2.87995,-6.6 5.89902,-14.34012 6.70905,-17.20027 1.6741,-5.91112 3.99376,-5.22808 -24.41622,-7.18952 -8.48677,-0.58593 -24.35813,-2.06207 -35.2697,-3.28032 -12.39209,-1.38354 -27.28631,-2.24969 -39.67841,-2.30744 -31.52614,-0.14692 -30.13053,0.0563 -29.34078,-4.27245 l 0.68415,-3.75 20.74441,-0.77871 c 19.24502,-0.72243 22.67061,-0.54939 47.39365,2.3941 14.6571,1.74505 34.80941,3.53643 44.78293,3.98084 20.98999,0.9353 26.46748,1.99253 28.39755,5.4811 1.43488,2.59349 0.91216,4.11323 -10.46381,30.42267 -11.04226,25.53763 -20.99121,63.1295 -27.39197,103.5 -1.83127,11.55 -3.90099,24.01611 -4.59937,27.70247 l -1.2698,6.70247 6.31211,0.66266 c 3.47166,0.36446 11.3616,1.92416 17.53318,3.46601 6.17161,1.54185 15.3026,3.30193 20.2911,3.9113 4.9885,0.60937 10.6026,1.80319 12.47575,2.65294 3.46419,1.57153 4.49173,5.95473 2.06771,8.82036 -1.89746,2.24316 -9.11988,1.96312 -10.78593,-0.41821 z M 738.1412,693.83881 c -1.26848,-0.69428 -5.39774,-7.33733 -9.17615,-14.76233 -3.7784,-7.425 -8.80112,-17.1 -11.16159,-21.5 -2.36047,-4.4 -6.40046,-12.5 -8.97774,-18 -2.57729,-5.5 -7.57126,-15.46485 -11.09772,-22.1441 -6.23587,-11.81099 -10.77525,-22.21974 -19.5622,-44.8559 -2.3485,-6.05 -6.70398,-16.625 -9.67885,-23.5 -2.97488,-6.875 -6.24496,-14.75 -7.26686,-17.5 l -1.85798,-5 -9.70689,-0.0639 c -8.19093,-0.0539 -10.65142,-0.57711 -15.75481,-3.35027 -11.3548,-6.17011 -15.06505,-19.1855 -9.24444,-32.42904 l 3.88663,-8.84322 12.55026,-2.39712 c 6.90264,-1.31842 14.0883,-2.12938 15.96814,-1.80214 5.13857,0.89453 23.37523,12.34268 24.7963,15.56601 1.04591,2.37236 2.33593,2.819 8.13173,2.8154 4.01112,-0.002 11.03221,-1.27224 16.80822,-3.03972 12.22995,-3.74242 38.48943,-9.57627 47.39365,-10.52906 3.63719,-0.38919 9.58895,-1.41256 13.22614,-2.27416 18.846,-4.46433 30.20378,-6.02692 36.06425,-4.96167 16.19071,2.94298 43.8156,4.45278 75.25573,4.11301 33.36454,-0.36057 40.44764,-1.0408 52.40522,-5.03274 9.08148,-3.03179 14.60057,-2.65117 15.54318,1.07191 0.56504,2.23176 -1.13747,3.60224 -8.09451,6.51588 -13.59508,5.69368 -24.96025,7.01515 -62.05824,7.21573 -32.02981,0.17317 -51.31689,-0.83558 -69.4891,-3.63441 -6.85673,-1.05605 -10.88395,-1.20185 -13.65405,-0.49429 -5.31655,1.35797 -28.34421,5.50722 -39.19862,7.06301 -11.64437,1.66902 -28.53213,5.53547 -40.67645,9.31286 -5.39851,1.67916 -13.29948,3.59637 -17.5577,4.26047 -5.42842,0.8466 -8.33624,2.06068 -9.72989,4.06245 -1.09323,1.57026 -5.34737,5.11127 -9.45366,7.86893 l -7.46598,5.01392 3.43183,11.98608 c 1.8875,6.59234 4.76795,14.46108 6.40098,17.48608 1.63304,3.025 5.63718,12.7 8.8981,21.5 7.78508,21.00907 11.80062,29.406 41.12656,86 10.98018,21.18987 10.77746,20.87718 12.86949,19.85066 1.76043,-0.86381 37.0212,-44.63126 47.00957,-58.35066 7.16166,-9.83682 22.05347,-32.29853 28.50348,-42.99257 3.65023,-6.05204 6.21017,-8.58763 8.90809,-8.82333 5.52497,-0.48268 4.9194,3.34098 -2.66652,16.83675 -12.45512,22.15837 -27.98692,44.10997 -52.10528,73.64213 -6.66441,8.16036 -15.07297,18.94835 -18.68569,23.97331 -6.94763,9.66351 -10.84651,12.32092 -14.85663,10.12604 z M 651.68834,516.1447 c 0,-0.51248 -3.00383,-4.67498 -6.67518,-9.25 -3.67135,-4.57502 -7.20992,-8.99322 -7.86349,-9.81822 -2.57137,-3.24585 -5.77528,2.27675 -4.90751,8.4591 1.0395,7.40581 6.0507,11.5409 13.98611,11.5409 3.00304,0 5.46007,-0.4193 5.46007,-0.93178 z m 18.70938,-6.04835 c 8.13414,-5.84539 7.32949,-9.93321 -3.36102,-17.07474 -4.89476,-3.26982 -10.26941,-5.94513 -11.94367,-5.94513 -6.31415,0 -10.01775,1.28942 -10.01775,3.4877 0,1.96985 13.57129,20.3386 16.75112,22.67265 1.86072,1.3658 2.7582,1.03697 8.57132,-3.14048 z m 148.78472,169.43603 c -1.17271,-1.39926 -2.74363,-3.64926 -3.49094,-5 -1.31769,-2.38169 -5.28952,-3.47491 -5.28952,-1.4559 0,0.55 -1.85714,1 -4.12698,1 -5.0085,0 -5.63867,-1.58361 -9.27566,-23.30966 -2.018,-12.05473 -2.03514,-16.08703 -0.0722,-16.97752 3.84936,-1.74625 8.77393,0.0907 16.1751,6.03361 5.34091,4.28858 5.98609,5.49615 3.88708,7.27538 -1.49108,1.2639 -3.8294,1.9048 -5.73767,1.57261 -5.79087,-1.00808 -5.89592,2.37928 -0.19173,6.18252 6.3399,4.22711 19.63653,23.52128 17.74818,25.75365 -1.95671,2.3132 -7.28485,1.71832 -9.62566,-1.07469 z M 1018.1771,495.0111 c -9.0607,-1.25258 -14.4051,-5.82767 -20.61082,-17.64385 -5.49502,-10.463 -12.83456,-33.39174 -14.51917,-45.35797 -1.05626,-7.50286 -0.60534,-9.1014 3.62945,-12.86708 3.10353,-2.75972 7.14105,-4.69466 11.27215,-5.40204 5.73179,-0.98147 6.43659,-1.5709 6.43659,-5.38292 0,-5.77871 5.3038,-5.67064 15.239,0.3105 7.0986,4.27347 7.9829,4.49423 15.649,3.90667 17.3858,-1.33251 28.6517,7.72111 32.978,26.50207 6.0022,26.05699 -0.9765,46.6665 -18.24,53.86582 -6.4791,2.70194 -20.6109,3.62032 -31.8342,2.0688 z m 78.2401,-107.01472 c -2.1217,-0.5606 -3.8576,-2.12192 -3.8576,-3.46959 0,-2.0559 1.0644,-2.45031 6.613,-2.45031 6.0882,0 6.6131,0.27778 6.6131,3.5 0,3.65001 -2.3832,4.2656 -9.3685,2.4199 z"
         id="path4473"
         inkscape:connector-curvature="0" />
      <path
         style="fill:#b1b1b1"
         d="m 1036.1428,757.97944 c -11.2201,-0.92661 -24.8275,-3.46288 -30.0235,-5.59609 -3.487,-1.43153 -3.9383,-3.56286 -3.9383,-18.59584 0,-15.93963 2.4462,-24.71103 6.8916,-24.71103 0.9817,0 3.1277,1.16256 4.7688,2.58347 2.5648,2.22066 4.6529,2.62426 14.8684,2.87391 10.4292,0.25487 12.6442,0.70327 18.0885,3.66165 7.4602,4.0539 9.2226,7.00641 12.8397,21.51091 2.6043,10.44328 2.5155,11.33105 -1.4396,14.38962 -5.1233,3.96205 -10.2253,4.86038 -22.0556,3.8834 z m 17.0195,-8.56085 c 4.354,-2.38594 2.9313,-13.04481 -2.6433,-19.80386 -4.8847,-5.92261 -11.9269,-8.53825 -22.9879,-8.53825 -7.0356,0 -18.6401,2.61056 -19.0063,4.27568 -0.9367,4.25923 0.9841,20.37782 2.5149,21.10427 3.0639,1.45402 24.8143,4.55242 32.203,4.5874 3.8094,0.018 8.248,-0.70919 9.9196,-1.62524 z m -79.55235,4.73046 c -1.32947,-1.12692 -5.11649,-2.35126 -8.41557,-2.72074 -3.2991,-0.36948 -9.47022,-1.65487 -13.71361,-2.85643 -4.24338,-1.20155 -12.8467,-2.95422 -19.11847,-3.89482 -6.27176,-0.94061 -12.5807,-2.35381 -14.01983,-3.14046 -2.82416,-1.54372 -0.79339,-18.79894 5.58559,-47.46012 1.77497,-7.975 4.24844,-20.575 5.49661,-28 2.77892,-16.53097 7.82829,-37.44087 10.98741,-45.5 1.29359,-3.3 3.69614,-9.6 5.339,-14 1.64284,-4.4 5.33145,-13.98132 8.1969,-21.29182 5.80122,-14.80048 5.59586,-15.16284 -8.60998,-15.19287 -8.29792,-0.0175 -54.01131,-4.29962 -68.80533,-6.44516 -7.50952,-1.08908 -12.59748,-1.20407 -20.94139,-0.47326 -19.72012,1.72722 -33.37434,-0.54529 -26.85196,-4.46904 2.00461,-1.20593 7.67839,-1.62345 24.64761,-1.81375 18.69216,-0.20963 26.06523,0.22709 48.49583,2.87244 14.54875,1.71581 32.83157,3.38987 40.62849,3.72014 16.23819,0.68784 24.40002,2.65347 24.40002,5.87634 0,2.11636 -14.37774,37.52226 -16.53448,40.71698 -4.1421,6.13558 -18.29863,64.82501 -20.98534,87 -1.16617,9.625 -3.12088,20.51168 -4.34382,24.19263 -1.22291,3.68094 -2.22349,8.54141 -2.22349,10.80103 0,3.82007 0.58012,4.21132 8.26634,5.57506 4.54648,0.80666 13.72212,2.7612 20.39029,4.34342 6.66818,1.58222 15.2793,3.17819 19.1358,3.54659 9.13176,0.87234 12.18724,2.66629 11.3245,6.64893 -0.83459,3.85269 -4.957,4.82497 -8.33112,1.96491 z m 31.11335,-62.32257 c -3.0941,-14.61846 -3.3179,-27.95452 -0.4316,-25.719 2.0489,1.58689 5.9639,37.969 4.0858,37.969 -0.5838,0 -2.2282,-5.5125 -3.6542,-12.25 z m -267.95383,-1 c -3.88303,-8.98153 -13.06045,-27.03704 -15.6299,-30.75 -1.71275,-2.475 -3.73683,-6.75 -4.49795,-9.5 -0.76113,-2.75 -2.45707,-6.575 -3.76877,-8.5 -1.31169,-1.925 -3.5763,-6.425 -5.03247,-10 -2.69262,-6.61061 -7.81733,-16.40577 -13.38727,-25.58789 -1.6975,-2.79834 -3.05619,-6.39834 -3.01932,-8 0.062,-2.69621 0.25674,-2.76383 2.62591,-0.91211 1.40739,1.1 3.83193,4.925 5.38787,8.5 5.17862,11.8986 11.51111,24.31288 13.73283,26.92196 1.20741,1.41792 3.25669,5.50304 4.55397,9.07804 3.95831,10.90823 20.96765,40.12316 23.27031,39.96867 5.12257,-0.3437 60.01036,-72.51452 79.22229,-104.16777 4.32659,-7.1284 8.98087,-8.98107 6.72633,-2.67746 -5.09661,14.24993 -30.61992,51.72977 -57.45941,84.37656 -4.52165,5.5 -12.10862,15.2875 -16.85993,21.75 -8.52649,11.59729 -13.63516,14.65647 -15.86449,9.5 z m 81.25395,-16 c -4.30149,-6.01462 -7.62144,-8.19659 -7.62144,-5.00902 0,2.57657 -4.22161,4.01439 -6.61931,2.25444 -0.94473,-0.69345 -2.34322,-5.5886 -3.10774,-10.87812 -0.76453,-5.28951 -1.98191,-13.3298 -2.70529,-17.8673 -1.14081,-7.15582 -0.84579,-8.25 2.22436,-8.25 3.71586,0 15.09861,7.32032 15.49066,9.96215 0.15986,1.07724 -1.58744,1.48146 -5.83377,1.34959 -5.49315,-0.1706 -6.06198,0.12717 -6.06198,3.17327 0,2.16249 2.0475,4.4654 5.74013,6.45621 5.61833,3.029 19.30048,21.66792 17.09434,23.28726 -2.46257,1.80757 -5.07867,0.44521 -8.59996,-4.47848 z m 179.0512,-48.13235 c -0.82871,-0.97967 -1.37803,-4.78192 -1.22073,-8.44944 l 0.28597,-6.66821 1.91572,7.5 c 1.98842,7.78487 1.61482,10.68635 -0.98096,7.61765 z m -3.36304,-18.61765 c 0,-1.375 0.50035,-1.9375 1.11186,-1.25 0.61151,0.6875 0.61151,1.8125 0,2.5 -0.61151,0.6875 -1.11186,0.125 -1.11186,-1.25 z M 689.33642,590.49315 c 0.10577,-1.16495 0.62812,-1.4019 1.3318,-0.60417 0.63678,0.72187 0.55846,1.58437 -0.17403,1.91667 -0.73249,0.33229 -1.25349,-0.25834 -1.15777,-1.3125 z m -4.32104,-6.85949 c -3.21206,-5.78683 -3.29155,-12.80411 -0.11706,-10.33306 2.38752,1.85846 5.65916,14.77588 3.74235,14.77588 -0.63759,0 -2.26897,-1.99927 -3.62529,-4.44282 z m 302.89588,-6.30718 c -2.39501,-2.76606 -3.80743,-29.1023 -1.43118,-26.68568 2.20471,2.24214 5.97742,28.43568 4.09565,28.43568 -0.63207,0 -1.83109,-0.7875 -2.66447,-1.75 z m -310.45723,-14 c -1.91786,-3.7125 -6.05306,-12.825 -9.18933,-20.25 -3.13627,-7.425 -6.18395,-14.5125 -6.77262,-15.75 -0.90851,-1.90987 -2.5054,-2.25 -10.56366,-2.25 -15.36168,0 -22.34818,-4.53452 -25.75223,-16.71425 -1.71665,-6.1422 -1.43286,-9.58741 1.35704,-16.47427 3.46699,-8.55825 3.67677,-8.74319 12.20489,-10.7597 15.30183,-3.61818 19.66468,-2.96203 31.3275,4.71152 9.82457,6.46407 13.51295,11.86247 7.52391,11.01215 -1.5155,-0.21517 -5.73133,-2.49193 -9.36852,-5.05947 -6.91945,-4.88452 -12.93013,-6.36946 -21.04991,-5.20035 -4.35253,0.62668 -4.69579,1.15836 -3.43721,5.3239 1.90058,6.2904 16.53901,23.16047 20.09671,23.16047 4.08517,0 14.3036,-8.31939 14.34377,-11.67807 0.0485,-4.05537 2.19869,-5.09003 12.82963,-6.17362 5.1966,-0.52968 13.33949,-2.1312 18.09529,-3.55894 14.94578,-4.48686 32.1824,-8.41731 42.12242,-9.60512 5.27024,-0.62979 15.03804,-2.30244 21.70622,-3.717 6.66818,-1.41457 14.2843,-3.01205 16.92473,-3.54996 2.64042,-0.53792 7.10424,-0.73208 9.9196,-0.43148 33.65093,3.59296 48.81393,4.39569 78.96476,4.18037 33.31067,-0.23787 39.63618,-0.84489 53.3262,-5.11737 8.60353,-2.68506 12.80448,-2.46532 12.80448,0.66974 0,2.62557 -10.0007,6.74431 -23.14573,9.53244 -9.88808,2.09732 -14.42289,2.35238 -44.08713,2.47966 -31.95287,0.13711 -54.89009,-1.12663 -72.90873,-4.01694 -5.83997,-0.93677 -8.8207,-0.67148 -21.53727,1.91682 -8.11757,1.65223 -19.45088,3.63922 -25.18512,4.41554 -12.60355,1.70629 -33.00547,6.17842 -47.68665,10.45298 -5.94467,1.73085 -14.12834,3.64403 -18.18594,4.25152 -5.4911,0.82212 -7.37744,1.68612 -7.37744,3.3791 0,1.25101 -2.43773,3.80361 -5.41717,5.67245 -11.67126,7.32073 -12.79437,8.80184 -10.20786,13.46169 1.31939,2.37701 2.40584,6.71006 2.41433,9.62901 0.009,2.91895 1.90383,8.90718 4.21187,13.30718 4.48238,8.54516 7.99036,19.5 6.24433,19.5 -0.58198,0 -2.6273,-3.0375 -4.54516,-6.75 z M 651.43561,518.1685 c 3.60227,-1.03493 2.51896,-3.613 -5.50133,-13.09202 -10.79746,-12.76132 -12.21484,-13.15038 -16.47165,-4.52137 -2.32399,4.711 -2.17232,6.05453 1.12577,9.9722 2.09639,2.49021 6.34733,5.4325 9.44653,6.53842 6.33571,2.26083 7.10936,2.33566 11.40068,1.10277 z m 192.87828,18.46639 c -3.56751,-4.21746 5.88986,-8.26905 22.5898,-9.67757 8.6017,-0.72549 12.73454,-1.84526 20.82706,-5.64297 11.93994,-5.60326 40.77265,-16.57751 55.34644,-21.06585 5.68339,-1.75033 15.02644,-5.89227 20.76235,-9.20429 5.73591,-3.31203 11.50145,-5.86019 12.81231,-5.66257 1.42743,0.2152 2.48982,3.73553 2.64876,8.77707 0.22727,7.20876 -0.0417,7.87917 -1.87225,4.66777 -1.17569,-2.0625 -2.91156,-3.75 -3.85747,-3.75 -0.94591,0 -5.41119,2.0436 -9.92284,4.54132 -4.51166,2.49773 -13.11048,6.04058 -19.10851,7.873 -13.55353,4.14065 -40.3305,14.38371 -55.77484,21.33568 -6.87179,3.0932 -13.62737,5.25 -16.44418,5.25 -2.62951,0 -8.66971,0.9 -13.4227,2 -10.27706,2.37846 -12.95756,2.48109 -14.58393,0.55841 z M 1020.918,494.35287 c -14.2393,-1.5878 -21.33408,-10.91171 -29.88621,-39.27639 -2.40453,-7.975 -5.25177,-16.98451 -6.3272,-20.02114 -3.5225,-9.94607 3.64666,-19.5741 15.36691,-20.63747 6.0294,-0.54705 6.5182,-0.91944 6.5182,-4.96639 0,-2.40625 0.9255,-4.375 2.0568,-4.375 1.1312,0 5.7925,2.06819 10.3584,4.59597 7.7529,4.29209 8.8376,4.5571 16.4057,4.0081 11.538,-0.83698 18.1935,1.8665 23.9654,9.73483 12.73,17.35368 11.7371,49.21771 -1.9719,63.27686 -6.5461,6.71331 -19.8783,9.51254 -36.4861,7.66063 z m 75.2449,-108.19306 c -4.1449,-2.1673 -2.1292,-4.08333 4.2956,-4.08333 4.3799,0 5.3272,0.50383 5.3272,2.83333 0,3.19886 -4.7225,3.81231 -9.6228,1.25 z"
         id="path4471"
         inkscape:connector-curvature="0" />
      <path
         style="fill:#929292"
         d="m 1036.3485,757.4159 c -10.4162,-1.01256 -24.6157,-3.75809 -29.2077,-5.64741 -5.4199,-2.22992 -6.2346,-7.5777 -2.8478,-18.69201 1.6135,-5.29508 1.6875,-5.17544 1.9863,3.21104 0.3682,10.33515 2.4591,11.67657 22.0961,14.1761 17.2605,2.19704 21.2337,2.04409 26.5501,-1.022 l 4.5687,-2.63486 0,3 c 0,5.95694 -9.161,8.96861 -23.1457,7.60914 z m -62.09413,-3.58837 c -1.93703,-1.43937 -34.74146,-8.86785 -45.87249,-10.3877 -7.31935,-0.9994 -12.25208,-4.50637 -10.53299,-7.48854 1.10714,-1.92063 1.18528,-1.91908 4.27868,0.0844 1.733,1.12242 4.3823,2.04077 5.88733,2.04077 1.50502,0 10.83145,1.8 20.7254,4 9.89394,2.2 19.8601,4 22.14703,4 5.78881,0 11.95325,3.38763 11.08048,6.08921 -0.86195,2.66805 -5.12369,3.58624 -7.71344,1.66184 z m 74.45113,-27.54378 c -7.2893,-6.48185 -26.5206,-7.78618 -38.7837,-2.63044 l -5.5112,2.31704 -1.4594,-2.63788 c -1.5066,-2.72309 2.3674,-11.05591 5.8898,-12.66883 1.1957,-0.54748 2.8868,0.15294 4.2253,1.75 2.0186,2.40864 3.3168,2.66284 13.5988,2.66284 10.0987,0 12.1656,0.38404 18.5221,3.44158 6.4177,3.08694 11.9643,9.95454 9.092,11.25751 -0.5997,0.2721 -3.1079,-1.29922 -5.5737,-3.49182 z M 922.2177,713.57648 c 0.6176,-6.05 1.96733,-12.575 2.9994,-14.5 1.16794,-2.17845 1.4014,0.95905 0.6183,8.30936 -0.69199,6.49514 -2.04171,13.02014 -2.9994,14.5 -0.95913,1.4821 -1.23686,-2.25017 -0.6183,-8.30936 z m -185.3861,-24.625 c -1.93881,-4.39768 -1.84331,-4.5865 2.58549,-5.1119 2.89196,-0.34308 8.63016,-6.25362 21.22904,-21.86663 19.99314,-24.77628 35.72403,-45.60008 44.11435,-58.39647 3.24561,-4.95 7.2672,-10.35 8.93686,-12 2.65507,-2.6238 3.05343,-2.72255 3.17673,-0.78751 0.0775,1.21687 -1.72083,4.59187 -3.99638,7.5 -2.27556,2.90813 -6.33326,8.88751 -9.01711,13.28751 -7.64804,12.53842 -33.47509,46.5321 -45.96551,60.5 -1.22956,1.375 -5.00245,6.4375 -8.3842,11.25 -6.42955,9.14975 -10.35713,10.89217 -12.67927,5.625 z m 81.72364,-15.16188 c -2.02051,-2.90778 -5.146,-6.17028 -6.94553,-7.25 -3.08247,-1.84948 -3.27593,-1.74604 -3.34198,1.78688 -0.0385,2.0625 -0.92723,3.75 -1.97483,3.75 -2.21877,0 -4.70834,-7.294 -4.70834,-13.79456 l 0,-4.51542 4.61289,1.8938 c 6.36289,2.61226 8.19739,4.3817 14.26435,13.75849 5.91413,9.14059 6.10521,9.65769 3.56888,9.65769 -0.99098,0 -3.45493,-2.3791 -5.47544,-5.28688 z m 111.48235,-1.71312 c 0,-2.475 0.42989,-3.4875 0.9553,-2.25 0.52543,1.2375 0.52543,3.2625 0,4.5 -0.52541,1.2375 -0.9553,0.225 -0.9553,-2.25 z M 729.141,671.90827 c -0.16511,-0.91752 -0.94217,-2.49252 -1.72681,-3.5 -1.10125,-1.41403 -0.80732,-1.57302 1.28881,-0.69713 1.49349,0.62407 2.27055,2.19907 1.72681,3.5 -0.54374,1.30094 -1.1237,1.61464 -1.28881,0.69713 z m 202.90352,-9.83179 c -0.0818,-3.025 0.67185,-7.3 1.67494,-9.5 l 1.82382,-4 0.0902,5 c 0.0496,2.75 -0.70418,7.025 -1.67496,9.5 l -1.76505,4.5 -0.1488,-5.5 z m -210.55157,-4.66667 c -0.80826,-0.36666 -1.40669,-1.60416 -1.32984,-2.75 0.12847,-1.91559 0.30977,-1.89048 2.25171,0.31185 2.15875,2.44822 1.71096,3.63253 -0.92187,2.43815 z m 86.70468,-12.33333 c 0,-0.55 -1.98392,-1 -4.40872,-1 -3.67392,0 -4.40871,-0.66667 -4.40871,-4 0,-5.06098 2.86898,-5.06674 9.89195,-0.0199 6.36339,4.57291 6.8999,6.0199 2.23201,6.0199 -1.81859,0 -3.30653,-0.45 -3.30653,-1 z M 939.22341,629.8006 c 0.5942,-3.72673 2.1205,-7.55173 3.39182,-8.5 1.681,-1.25387 1.91739,0.0487 0.86671,4.77588 -2.03919,9.17455 -5.62795,12.31295 -4.25853,3.72412 z m 7.84865,-22.52076 c 0,-1.72149 1.90763,-6.85899 4.23915,-11.41667 7.48882,-14.63912 9.55055,-22.9596 6.07935,-24.5343 -1.66867,-0.75699 -11.86468,-1.99123 -22.6578,-2.74275 -21.75854,-1.51504 -54.09743,-4.72598 -62.60881,-6.21645 -3.03099,-0.53077 -7.99079,-0.63373 -11.02178,-0.22879 -8.10652,1.08301 -27.04757,1.05156 -30.86098,-0.0513 -2.45771,-0.71074 -2.72059,-1.38284 -1.02402,-2.61811 2.11043,-1.53661 11.20003,-2.1426 37.39589,-2.49313 4.26135,-0.057 32.76505,3.05556 46.29148,5.05499 3.63719,0.53763 15.49114,1.43229 26.34212,1.98812 14.11599,0.72307 20.89496,1.5395 23.82702,2.86963 3.9944,1.81205 3.97769,2.12223 -0.66073,12.27219 -2.6173,5.72724 -6.58519,14.84911 -8.81756,20.27082 -4.26761,10.36482 -6.52333,13.07779 -6.52333,7.84575 z m -129.7199,-20.70336 c 9.4e-4,-1.1 1.3094,-3.8 2.9077,-6 2.25754,-3.10743 2.92014,-3.44215 2.96942,-1.5 0.0349,1.375 -1.27357,4.075 -2.90769,6 -1.86742,2.19982 -2.9705,2.75704 -2.96943,1.5 z m 28.31952,-51.78439 c 0,-2.5648 1.40268,-3.66028 6.40209,-5 3.52115,-0.94359 9.04216,-1.71561 12.26887,-1.71561 8.06766,0 13.80485,-1.55292 25.53908,-6.91283 12.20325,-5.57414 41.37931,-16.59757 55.15233,-20.8379 5.54726,-1.70785 14.25905,-5.6126 19.35951,-8.67722 10.24142,-6.15356 13.53949,-6.87842 13.53949,-2.97573 0,3.40805 -21.14586,14.37022 -37.41106,19.39415 -13.27719,4.101 -34.32903,12.16842 -52.2336,20.01678 -6.26452,2.74601 -13.21613,4.99275 -15.44804,4.99275 -2.23191,0 -8.71649,1.125 -14.41019,2.5 -5.69369,1.375 -10.89359,2.5 -11.55532,2.5 -0.66175,0 -1.20316,-1.47798 -1.20316,-3.28439 z m -179.06517,-0.71561 c -0.74338,-0.825 -2.21885,-3.3 -3.27882,-5.5 -1.77756,-3.68936 -2.51834,-4.00947 -9.53873,-4.1219 -4.18633,-0.067 -8.80097,-0.17954 -10.25477,-0.25 -3.97711,-0.19274 -13.35255,-6.22121 -14.97358,-9.6281 l -1.42742,-3 4.56156,2.5 c 2.50885,1.375 5.59297,3.0625 6.85359,3.75 1.26063,0.6875 5.22881,1.25 8.8182,1.25 6.19442,0 6.53065,-0.21604 6.61442,-4.25 l 0.0883,-4.25 3.28868,2.75 c 1.80877,1.5125 4.67213,2.75 6.36303,2.75 4.41577,0 16.62404,-10.17305 16.62404,-13.85267 0,-2.5858 1.02052,-3.20604 6.06198,-3.68432 7.16369,-0.67961 18.0275,-3.03404 39.12732,-8.47973 8.48677,-2.19037 19.39834,-4.45987 24.24792,-5.04333 4.84958,-0.58346 13.77723,-2.10598 19.8392,-3.38338 26.76942,-5.64091 28.02563,-5.78303 36.65656,-4.14708 14.43561,2.73621 35.67758,3.83027 70.25472,3.61844 28.68511,-0.17573 35.83648,-0.53326 44.56879,-2.22822 5.72072,-1.1104 11.54596,-2.64459 12.94497,-3.40931 3.89461,-2.12884 8.61692,-1.65775 8.61685,0.8596 -9e-5,2.81243 -12.32354,7.41366 -26.18299,9.776 -13.28638,2.26466 -65.63501,1.94604 -91.74999,-0.55845 -9.69917,-0.93017 -21.10671,-1.72629 -25.3501,-1.76915 -11.50181,-0.1162 -74.231,11.09422 -84.24629,15.05576 -2.08301,0.82394 -9.98233,2.90382 -17.55405,4.62195 -11.58505,2.62883 -13.99325,3.62963 -15.19594,6.31516 -0.78605,1.7552 -4.14385,4.65483 -7.46179,6.44363 -8.35684,4.50541 -10.26858,7.2271 -7.55595,10.75713 2.40828,3.13397 1.69268,9.82957 -0.75967,7.10797 z m -18.9497,-28.93901 c -1.43078,-1.86192 -2.12871,-3.59974 -1.55097,-3.86184 1.47168,-0.66762 5.90014,4.86856 4.93984,6.17548 -0.4331,0.58942 -1.95809,-0.45172 -3.38887,-2.31364 z m -22.12995,-5.56099 c -0.0109,-1.1 1.18141,-5.14926 2.64964,-8.99836 2.63109,-6.89767 2.81149,-7.0306 12.53958,-9.23967 5.42855,-1.23272 11.51894,-2.24596 13.53421,-2.25164 5.20036,-0.0147 24.37242,12.46449 23.44772,15.26219 -0.6291,1.90337 -1.85325,1.46509 -8.41314,-3.01215 -8.76626,-5.98313 -12.81595,-6.93652 -21.41867,-5.04244 -5.59922,1.2328 -6.04644,1.74859 -5.47307,6.31228 l 0.62439,4.96979 -4.53713,-2.39166 c -5.28583,-2.78633 -5.58326,-2.71119 -9.76441,2.4668 -1.77838,2.20238 -3.17798,3.04713 -3.18912,1.92486 z m 392.20524,-6.76698 c -7.9734,-1.83056 -12.5392,-6.12684 -17.78263,-16.73302 -4.83982,-9.7897 -12.72158,-33.69349 -14.76784,-44.78781 -0.98083,-5.31786 -0.3542,-6.98076 4.06219,-10.77993 3.75084,-3.22665 7.08486,-4.71957 11.83498,-5.29948 6.1447,-0.75017 6.5712,-1.10215 6.022,-4.97007 -0.3251,-2.28949 0.3524,-4.16271 1.5057,-4.16271 1.1532,0 5.7491,2.02204 10.2132,4.49342 7.5348,4.17139 8.6912,4.45173 16.1355,3.9117 18.4125,-1.33566 27.2595,7.54607 30.9056,31.02706 3.5202,22.66991 -3.3646,40.56122 -17.7165,46.03964 -7.4276,2.83522 -21.0885,3.40175 -30.4122,1.2612 z m 79.677,-106.93302 c -4.3742,-1.98438 -3.005,-3.8 2.8657,-3.8 4.4087,0 5.5109,0.5 5.5109,2.5 0,2.66325 -4.0023,3.28438 -8.3766,1.3 z"
         id="path4469"
         inkscape:connector-curvature="0" />
      <path
         style="fill:#5b5b5b"
         d="m 1031.3449,755.52608 c -14.8866,-1.81815 -23.8478,-3.93444 -25.6422,-6.05574 -2.0407,-2.41253 0.2305,-2.96818 4.7311,-1.15743 5.3695,2.16033 29.8254,5.09711 37.9444,4.55654 7.6854,-0.51171 8.4238,0.19238 2.6761,2.55204 -4.7282,1.94114 -4.6744,1.94086 -19.7094,0.10459 z m -56.99043,-3.47301 c -3.79339,-1.72086 -35.24536,-8.73254 -42.34365,-9.4398 -6.80756,-0.67829 -13.06357,-3.11138 -10.72631,-4.17167 0.71113,-0.32261 10.75779,1.48827 22.32592,4.02416 11.56813,2.5359 23.32876,4.61072 26.13473,4.61072 6.10836,0 10.39224,1.73132 10.39224,4.2 0,2.00737 -2.36867,2.32546 -5.78293,0.77659 z m 30.81633,-33.55952 c 1.8453,-6.10759 3.6393,-7.20624 7.0483,-4.31656 2.3304,1.97536 4.687,2.4017 14.1308,2.55654 10.8307,0.17758 17.7138,1.5378 17.7138,3.50058 0,0.50812 -1.8901,0.45383 -4.2638,-0.12245 -6.5608,-1.59287 -15.9769,-1.23653 -25.495,0.96482 -4.7561,1.1 -9.0685,2 -9.5831,2 -0.5147,0 -0.3126,-2.06232 0.449,-4.58293 z M 738.78703,689.11453 c -1.05368,-1.50604 -0.57847,-2.57778 1.39075,-3.13656 3.75801,-1.06638 5.24398,1.3435 2.29997,3.72998 -1.85732,1.50559 -2.26842,1.43949 -3.69072,-0.59342 z m 62.79753,-49.16049 c 0,-1.77324 0.54403,-1.91763 3.30653,-0.87756 1.8186,0.68469 3.30654,1.63979 3.30654,2.12244 0,0.48266 -1.48794,0.87756 -3.30654,0.87756 -1.90055,0 -3.30653,-0.90249 -3.30653,-2.12244 z M 957.09712,569.4878 c -2.34003,-0.77622 -7.02667,-1.41132 -10.41475,-1.41132 -3.38805,0 -10.88616,-0.49361 -16.66244,-1.0969 -23.80828,-2.48664 -37.37587,-3.84643 -44.66984,-4.477 -4.24339,-0.36683 -10.5144,-1.31605 -13.93556,-2.10937 -3.95191,-0.91637 -7.16747,-1.10458 -8.81743,-0.51608 -4.18645,1.49318 -19.7714,2.22367 -26.88904,1.26034 -7.36951,-0.99742 -6.12419,-1.29814 6.65709,-1.60753 4.84958,-0.1174 13.02375,-0.55112 18.16484,-0.96384 5.7373,-0.46058 10.41977,-0.34769 12.12396,0.29229 1.52709,0.57347 9.22428,1.56256 17.10485,2.19797 7.88058,0.63541 19.28812,1.76137 25.3501,2.50213 6.06198,0.74076 17.70503,1.6223 25.87347,1.95898 17.22663,0.71002 20.74343,1.19836 22.35566,3.1043 1.73236,2.04799 -1.377,2.47946 -6.24091,0.86603 z m -110.62041,-33.902 c -2.25658,-2.66771 6.35441,-5.68911 18.74664,-6.57778 10.11242,-0.72519 13.46275,-1.76399 37.11377,-11.50753 14.29887,-5.89072 31.08462,-12.19965 37.30172,-14.01985 6.2171,-1.8202 16.87622,-6.14326 23.68693,-9.60681 6.81071,-3.46354 12.38756,-5.79554 12.39302,-5.18221 0.0256,2.8691 -21.29037,13.31632 -37.46415,18.36176 -6.66818,2.08015 -23.74936,8.56131 -37.95818,14.40259 -14.20881,5.84128 -27.42364,10.62051 -29.36628,10.62051 -1.94263,0 -7.92042,1.16667 -13.28395,2.59259 -8.71876,2.31793 -9.9021,2.41505 -11.16952,0.91673 z M 641.69048,522.01904 c -0.70626,-0.51841 1.26405,-0.94256 4.37845,-0.94256 3.11441,0 7.25595,-0.84421 9.20342,-1.87602 4.85072,-2.57001 11.47275,-1.6879 10.18952,1.35733 -0.86465,2.05191 -2.25732,2.33272 -11.73418,2.36602 -5.91421,0.0208 -11.33095,-0.38637 -12.03721,-0.90477 z m 31.38383,-8.9098 c 0.62371,-1.08198 2.51476,-2.48708 4.20234,-3.12245 4.46851,-1.68236 4.1137,1.4726 -0.39567,3.51826 -4.52021,2.05059 -5.1775,1.98224 -3.80667,-0.39581 z m 8.76008,-9.43556 c -1.87551,-2.21721 3.37889,-4.55934 11.12913,-4.96075 3.90922,-0.20248 13.33284,-2.14275 20.94139,-4.31172 21.78323,-6.20976 31.00716,-8.19028 41.52373,-8.91575 5.38122,-0.37122 11.27198,-1.25079 13.09058,-1.9546 1.81859,-0.70381 8.93221,-2.40353 15.80805,-3.77717 11.92219,-2.38179 12.94369,-2.42806 22.04356,-0.99853 17.78731,2.79427 35.89937,3.67131 69.99818,3.38955 35.49688,-0.29331 46.18257,-1.2526 57.01651,-5.11858 3.69721,-1.31931 6.17271,-1.67554 6.69587,-0.96354 1.2927,1.75928 -6.2986,4.99104 -18.10191,7.70631 -10.04801,2.31148 -12.98156,2.47585 -44.08712,2.47025 -31.56685,-0.006 -60.03186,-1.54555 -74.4093,-4.02532 -4.18378,-0.72161 -7.34029,-0.60685 -11.73081,0.42648 -3.30376,0.77756 -10.6267,2.0714 -16.2732,2.8752 -26.69249,3.79979 -54.30035,9.53396 -66.91124,13.8975 -6.34179,2.19434 -21.41629,5.66347 -24.60966,5.66347 -0.51543,0 -1.47112,-0.63126 -2.12376,-1.4028 z m 347.90101,-10.33421 c -15.6714,-1.3336 -22.7563,-5.78544 -27.5834,-17.33238 -1.1693,-2.79691 -2.65788,-5.47575 -3.30803,-5.95297 -1.60952,-1.18142 -10.09684,-29.78127 -11.45073,-38.58572 -0.9814,-6.38209 -0.51423,-7.52403 4.57399,-11.18056 4.05187,-2.91177 7.41447,-4.16352 11.79807,-4.39192 5.5935,-0.29144 6.0884,-0.64814 5.6457,-4.06944 -0.2668,-2.0625 0.3111,-3.75 1.2844,-3.75 0.9732,0 4.8571,1.74296 8.6308,3.87325 5.9874,3.3799 7.9763,3.85999 15.6146,3.76913 11.5726,-0.13766 16.6497,2.08273 22.2344,9.72382 6.0526,8.28131 9.7937,32.21949 6.741,43.1338 -2.6272,9.39309 -9.6588,19.62502 -14.9912,21.8142 -5.0363,2.06764 -13.7711,3.40988 -19.1896,2.94879 z m -13.8507,-9.44632 c -3.3672,-1.52752 -5.8518,-0.40039 -3.9842,1.80742 1.1027,1.30358 2.0587,1.43275 4.0197,0.54313 1.9611,-0.88963 1.9526,-1.44865 -0.036,-2.35055 z m -343.34561,8.1168 c -0.79916,-0.58659 -0.98024,-1.281 -0.40242,-1.54313 0.57782,-0.26213 1.63798,0.21781 2.35591,1.06653 1.49055,1.76211 0.2201,2.07206 -1.95349,0.4766 z m -39.22038,-0.60014 c -0.80826,-0.36666 -1.46957,-2.08006 -1.46957,-3.80755 0,-2.70293 1.22798,-3.38666 8.80665,-4.90352 9.55428,-1.91228 17.86888,-1.85728 19.30992,0.12774 0.58414,0.80464 -1.3394,1.25 -5.39883,1.25 -8.62228,0 -16.10467,2.5817 -16.10467,5.5567 0,2.37826 -2.16718,3.12683 -5.1435,1.77663 z M 1098.4121,385.24774 c -4.9874,-2.50007 -4.5932,-3.17126 1.8627,-3.17126 4.4087,0 5.5109,0.5 5.5109,2.5 0,2.96346 -2.3704,3.17925 -7.3736,0.67126 z"
         id="path4467"
         inkscape:connector-curvature="0" />
    </g>
  </g>
</svg>
