<?xml version="1.0" encoding="UTF-8" standalone="no"?>
<!-- Created with Inkscape (http://www.inkscape.org/) -->

<svg
   xmlns:dc="http://purl.org/dc/elements/1.1/"
   xmlns:cc="http://creativecommons.org/ns#"
   xmlns:rdf="http://www.w3.org/1999/02/22-rdf-syntax-ns#"
   xmlns:svg="http://www.w3.org/2000/svg"
   xmlns="http://www.w3.org/2000/svg"
   xmlns:sodipodi="http://sodipodi.sourceforge.net/DTD/sodipodi-0.dtd"
   xmlns:inkscape="http://www.inkscape.org/namespaces/inkscape"
   width="177.16534"
   height="106.29497"
   id="svg2"
   version="1.1"
   inkscape:version="0.91 r13725"
   sodipodi:docname="bases.svg">
  <defs
     id="defs4" />
  <sodipodi:namedview
     id="base"
     pagecolor="#ffffff"
     bordercolor="#666666"
     borderopacity="1.0"
     inkscape:pageopacity="0.0"
     inkscape:pageshadow="2"
     inkscape:zoom="4.7056543"
     inkscape:cx="-69.813462"
     inkscape:cy="110.61327"
     inkscape:document-units="cm"
     inkscape:current-layer="layer1"
     showgrid="false"
     fit-margin-top="0"
     fit-margin-left="0"
     fit-margin-right="0"
     fit-margin-bottom="0"
     inkscape:window-width="1330"
     inkscape:window-height="747"
     inkscape:window-x="36"
     inkscape:window-y="21"
     inkscape:window-maximized="1"
     units="cm" />
  <metadata
     id="metadata7">
    <rdf:RDF>
      <cc:Work
         rdf:about="">
        <dc:format>image/svg+xml</dc:format>
        <dc:type
           rdf:resource="http://purl.org/dc/dcmitype/StillImage" />
        <dc:title></dc:title>
      </cc:Work>
    </rdf:RDF>
  </metadata>
  <g
     inkscape:label="Layer 1"
     inkscape:groupmode="layer"
     id="layer1"
     transform="translate(-32.228633,-1064.9324)">
    <path
       style="fill:#000000"
       d="m -91.956972,1013.5049 c -5.812466,0.025 -10.106128,2.0882 -11.976528,5.7544 -1.15081,2.2558 -1.50517,7.4532 -0.84339,12.4004 0.81775,6.1132 2.21042,8.7004 5.826834,10.8278 l 1.75486,1.0324 0.04613,0.4525 c 3.312919,0.1187 3.849772,0.1282 6.916211,0.2394 0.425645,-0.189 0.980155,-0.3267 1.794394,-0.4569 2.415955,-0.3863 5.30591,-3.3578 6.630691,-6.8197 2.409763,-6.2971 1.137744,-16.131 -2.668529,-20.6344 -1.912555,-2.2628 -3.384741,-2.8138 -7.480667,-2.7959 z"
       id="path3082"
       inkscape:connector-curvature="0" />
    <path
       style="fill:#000000"
       d="m -47.467994,1019.015 c -0.564021,-3.3182 -3.930799,-5.1946 -6.984717,-5.7469 -5.088591,-1.1928 -10.396917,-0.081 -15.209592,1.6882 -1.533882,0.6429 -2.707339,2.0227 -3.014508,3.6679 -1.056482,3.4272 -0.610592,7.1081 0.537668,10.4492 0.78941,2.6409 1.332265,5.3901 2.51665,7.8904 1.214047,1.9453 3.190069,3.2249 4.729106,4.8867 2.560119,2.1961 5.831097,3.2884 8.989683,4.3025 2.496156,0.5846 5.165485,0.5439 7.634855,-0.1391 1.753655,-0.4837 3.049573,-2.1314 3.034449,-3.9628 0.0512,-2.0282 -0.605855,-4.0152 -0.384743,-6.0507 0.06476,-4.4295 0.316084,-8.949 -0.917593,-13.2603 -0.27495,-1.2502 -0.588962,-2.4917 -0.930871,-3.7252 z"
       id="path3108"
       inkscape:connector-curvature="0" />
  </g>
</svg>
