<?xml version="1.0" encoding="UTF-8" standalone="no"?>
<!-- Created with Inkscape (http://www.inkscape.org/) -->

<svg
   xmlns:dc="http://purl.org/dc/elements/1.1/"
   xmlns:cc="http://creativecommons.org/ns#"
   xmlns:rdf="http://www.w3.org/1999/02/22-rdf-syntax-ns#"
   xmlns:svg="http://www.w3.org/2000/svg"
   xmlns="http://www.w3.org/2000/svg"
   xmlns:sodipodi="http://sodipodi.sourceforge.net/DTD/sodipodi-0.dtd"
   xmlns:inkscape="http://www.inkscape.org/namespaces/inkscape"
   width="177.16534"
   height="106.29921"
   id="svg3023"
   version="1.1"
   inkscape:version="0.48.4 r9939"
   sodipodi:docname="ashwa_sanchalanasana.svg">
  <defs
     id="defs3025" />
  <sodipodi:namedview
     id="base"
     pagecolor="#ffffff"
     bordercolor="#666666"
     borderopacity="1.0"
     inkscape:pageopacity="0.0"
     inkscape:pageshadow="2"
     inkscape:zoom="3.959798"
     inkscape:cx="68.630297"
     inkscape:cy="57.339662"
     inkscape:document-units="cm"
     inkscape:current-layer="layer1"
     showgrid="false"
     fit-margin-top="0"
     fit-margin-left="0"
     fit-margin-right="0"
     fit-margin-bottom="0"
     inkscape:window-width="1330"
     inkscape:window-height="747"
     inkscape:window-x="36"
     inkscape:window-y="21"
     inkscape:window-maximized="1"
     units="cm" />
  <metadata
     id="metadata3028">
    <rdf:RDF>
      <cc:Work
         rdf:about="">
        <dc:format>image/svg+xml</dc:format>
        <dc:type
           rdf:resource="http://purl.org/dc/dcmitype/StillImage" />
        <dc:title />
      </cc:Work>
    </rdf:RDF>
  </metadata>
  <g
     inkscape:label="Layer 1"
     inkscape:groupmode="layer"
     id="layer1"
     transform="translate(-213.08613,-539.40611)">
    <path
       inkscape:connector-curvature="0"
       id="path3123"
       d="m 228.9238,644.78422 c -0.86225,-0.52589 -1.98807,-1.64756 -2.50182,-2.49264 -2.92049,-4.80384 -0.59272,-17.02448 3.62614,-19.03693 1.49157,-0.71149 2.0648,-0.70721 7.28449,0.0544 12.63125,1.84299 17.89049,2.91099 22.95703,4.66187 6.95688,2.40413 9.9822,2.84874 19.41386,2.85313 7.34041,0.003 8.28228,-0.10415 14.67121,-1.67471 11.65812,-2.86588 21.3754,-8.75289 29.31748,-17.76132 5.43268,-6.16211 5.29509,-5.75513 5.20994,-15.41111 -0.0398,-4.51772 0.14754,-10.3793 0.41638,-13.02573 0.63892,-6.28929 2.73275,-14.76217 4.17254,-16.88447 1.16039,-1.71043 1.54383,-4.70362 0.67165,-5.24282 -0.2587,-0.15992 -1.59676,0.0438 -2.97345,0.45278 -3.31759,0.98552 -11.43868,0.98615 -14.75454,8.7e-4 -5.42298,-1.61094 -7.39824,-5.34374 -6.33864,-11.97859 0.74366,-4.65649 2.11352,-7.27385 4.5565,-8.70596 1.83502,-1.07575 2.54566,-1.18797 7.51614,-1.18686 4.33153,8.6e-4 6.43413,0.25436 9.96752,1.20128 5.10408,1.36785 6.06119,1.79402 7.91602,3.52481 2.07659,1.93773 2.47332,4.24488 1.5275,8.88348 -0.8994,4.41109 -0.68438,10.79019 0.57928,17.18416 0.39225,1.98484 0.83247,6.31537 0.97825,9.62341 0.37184,8.43799 -0.46871,12.88747 -3.70131,19.59315 -3.07397,6.37658 -3.57265,7.98028 -2.88257,9.2701 0.65041,1.21566 2.09516,1.22833 6.49757,0.0571 28.44729,-7.56879 31.46841,-8.15573 33.75014,-6.55704 2.42596,1.69972 1.78609,4.1611 -2.29089,8.81251 -12.24254,13.96749 -15.252,17.16194 -19.43367,20.62825 -1.60726,1.33231 -2.24555,2.15416 -1.92409,2.47749 0.26457,0.26611 2.52823,0.69796 5.03038,0.95969 3.77824,0.39523 4.6955,0.65641 5.41151,1.54092 1.20719,1.49127 1.07538,2.64549 -0.43812,3.83639 -1.2163,0.95702 -1.76614,1.01367 -8.51186,0.87696 l -7.21156,-0.14619 -0.34613,1.66058 c -0.63654,3.05404 -3.0053,3.77471 -5.19793,1.58141 -1.4826,-1.48306 -2.90503,-4.96256 -4.66927,-11.4219 -1.74246,-6.37956 -4.03812,-13.32 -4.81444,-14.55542 -0.54819,-0.8724 -1.1189,-1.08264 -2.93893,-1.08264 -2.0517,0 -2.48041,0.21518 -4.6789,2.34827 -3.85661,3.74193 -11.63372,9.10063 -16.85095,11.61091 -3.38229,1.6274 -6.91702,2.82717 -11.9074,4.04164 -6.93809,1.68848 -7.3132,1.72719 -16.73583,1.72719 -10.66084,0 -14.18643,-0.4988 -20.8209,-2.94576 -2.15414,-0.7945 -5.54297,-1.7576 -7.53071,-2.14022 -4.06311,-0.78211 -16.08298,-2.61275 -17.15513,-2.61275 -1.06682,0 -2.09221,3.01471 -2.09221,6.15124 0,2.61116 0.12127,2.92138 1.68359,4.30492 2.31122,2.04683 2.27713,4.10483 -0.0887,5.35045 -1.49509,0.78719 -2.57246,0.68686 -4.36523,-0.40654 z M 350.37224,627.0624 c 3.1165,-2.60017 6.73606,-6.01047 8.04344,-7.57844 1.30741,-1.56797 3.63436,-4.1854 5.17101,-5.81653 1.53666,-1.6311 2.79392,-3.20092 2.79392,-3.48848 0,-0.92039 0.70058,-1.07465 -22.46743,4.94687 -2.1714,0.56438 -4.18415,1.26397 -4.47276,1.55467 -0.37935,0.38207 -0.17834,1.44875 0.72542,3.84936 0.68759,1.82644 1.66302,4.89654 2.1676,6.8224 0.99923,3.81376 1.27119,4.43774 1.93415,4.43774 0.24107,0 2.98817,-2.12741 6.10465,-4.72759 z m -13.81508,-41.28101 c 0,-1.00021 -0.19534,-1.56334 -0.48103,-1.38673 -0.26457,0.16356 -0.48102,1.05522 -0.48102,1.98147 0,1.00021 0.19533,1.56334 0.48102,1.38673 0.26457,-0.16356 0.48103,-1.05522 0.48103,-1.98147 z"
       style="fill:#000000" />
  </g>
</svg>
