<?xml version="1.0" encoding="UTF-8" standalone="no"?>
<!-- Created with Inkscape (http://www.inkscape.org/) -->

<svg
   xmlns:dc="http://purl.org/dc/elements/1.1/"
   xmlns:cc="http://creativecommons.org/ns#"
   xmlns:rdf="http://www.w3.org/1999/02/22-rdf-syntax-ns#"
   xmlns:svg="http://www.w3.org/2000/svg"
   xmlns="http://www.w3.org/2000/svg"
   xmlns:sodipodi="http://sodipodi.sourceforge.net/DTD/sodipodi-0.dtd"
   xmlns:inkscape="http://www.inkscape.org/namespaces/inkscape"
   width="177.16534"
   height="106.29921"
   id="svg2984"
   version="1.1"
   inkscape:version="0.48.4 r9939"
   sodipodi:docname="New document 1">
  <defs
     id="defs2986" />
  <sodipodi:namedview
     id="base"
     pagecolor="#ffffff"
     bordercolor="#666666"
     borderopacity="1.0"
     inkscape:pageopacity="0.0"
     inkscape:pageshadow="2"
     inkscape:zoom="0.35"
     inkscape:cx="42.142857"
     inkscape:cy="520"
     inkscape:document-units="cm"
     inkscape:current-layer="layer1"
     showgrid="false"
     units="cm"
     inkscape:window-width="1330"
     inkscape:window-height="747"
     inkscape:window-x="36"
     inkscape:window-y="21"
     inkscape:window-maximized="1" />
  <metadata
     id="metadata2989">
    <rdf:RDF>
      <cc:Work
         rdf:about="">
        <dc:format>image/svg+xml</dc:format>
        <dc:type
           rdf:resource="http://purl.org/dc/dcmitype/StillImage" />
        <dc:title></dc:title>
      </cc:Work>
    </rdf:RDF>
  </metadata>
  <g
     inkscape:label="Layer 1"
     inkscape:groupmode="layer"
     id="layer1"
     transform="translate(0,-946.06167)">
    <path
       inkscape:connector-curvature="0"
       id="path3005"
       d="m 19.00087,1042.3157 c -2.47056,-1.9433 -0.95864,-3.7322 4.23764,-5.0139 2.13617,-0.5269 5.17178,-1.517 6.7458,-2.2003 1.57402,-0.6833 4.97758,-1.9448 7.56347,-2.8034 4.15378,-1.3792 5.178,-1.5635 8.78998,-1.5819 3.53952,-0.018 4.61444,0.1542 8.00711,1.2838 6.36312,2.1185 10.12746,2.1695 21.83793,0.2957 2.02374,-0.3238 8.73888,-1.3267 14.92253,-2.2287 12.03778,-1.756 11.97378,-1.746 23.09924,-3.6282 4.04748,-0.6847 9.79158,-1.4002 12.76467,-1.5899 4.34307,-0.277 5.56859,-0.4923 6.23475,-1.0951 1.17794,-1.0661 1.04964,-1.5558 -0.85935,-3.2805 -3.95626,-3.5743 -8.41692,-4.5768 -22.77041,-5.1177 -5.77313,-0.2176 -16.47583,-0.7556 -23.78377,-1.1955 -7.30795,-0.44 -20.46226,-0.8867 -29.23179,-0.9928 l -15.94462,-0.1928 -1.15219,1.0917 c -1.06673,1.0106 -1.4155,1.0916 -4.70162,1.0916 -4.24432,0 -5.61368,-0.6373 -7.95587,-3.7024 -2.66415,-3.4864 -4.00099,-6.6457 -4.25971,-10.0666 -0.36663,-4.8477 1.33887,-7.28608 5.09615,-7.28608 1.22685,0 2.13908,-0.63978 2.13908,-1.50022 0,-0.61906 -5.08628,-4.11755 -8.44587,-5.80932 -3.3885,-1.70632 -6.413,-2.50228 -9.51492,-2.50408 -1.47699,0 -4.3412203,-0.26893 -6.3649603,-0.59572 -3.04022,-0.49097 -3.83936,-0.77879 -4.59941002,-1.6566 -1.13376,-1.30942 -1.13526,-1.45039 -0.0304,-2.85503 0.87137002,-1.10778 0.95258002,-1.1254 3.98616002,-0.86497 1.70316,0.14624 5.2123803,0.43414 7.7982703,0.63983 6.62641,0.52711 10.88346,2.19565 17.42746,6.83055 1.37771,0.97581 2.86677,1.77418 3.30901,1.77418 0.50015,0 1.81576,-1.19764 3.48054,-3.16848 4.02291,-4.76245 10.47582,-10.84798 13.64549,-12.86861 4.78185,-3.0484 13.65337,-7.51057 17.94365,-9.02521 4.94527,-1.7459 18.19646,-5.74683 21.87274,-6.60403 3.16794,-0.73868 14.13594,-0.85763 17.81149,-0.19318 3.80608,0.68804 14.32325,4.17708 19.50296,6.47003 2.59149,1.1472 4.83858,2.08582 4.99355,2.08582 0.15496,0 1.59965,0.89318 3.21042,1.98486 1.61077,1.09163 3.66457,2.41446 4.56401,2.93957 0.89944,0.52511 3.40768,2.2838 5.57386,3.90815 2.16619,1.62439 4.55788,3.27306 5.31487,3.66378 5.69704,2.94035 16.71959,11.54043 21.92989,17.11025 3.67343,3.92691 3.97664,4.63089 3.97664,9.23281 0,3.5781 -0.0991,4.061 -1.2587,6.1326 -0.9291,1.6598 -2.12628,2.9086 -4.57198,4.7691 -4.26462,3.2443 -5.74986,3.5802 -14.61113,3.3048 -5.42198,-0.1686 -6.8562,-0.3463 -8.38114,-1.0386 -1.01187,-0.4594 -2.75964,-0.9663 -3.88394,-1.1265 -2.86885,-0.4088 -3.77144,-0.964 -6.81819,-4.1937 -4.84533,-5.1363 -6.43131,-10.4391 -4.38916,-14.67533 1.4869,-3.08442 4.55279,-5.84488 8.67137,-7.80758 3.93948,-1.8773 8.4641,-4.78106 8.4641,-5.43201 0,-0.22694 -0.57185,-0.72601 -1.27077,-1.10905 -0.69892,-0.38303 -3.58731,-2.41871 -6.41864,-4.52373 -5.49838,-4.08791 -7.42805,-5.2107 -8.34833,-4.85754 -0.31695,0.12162 -2.31142,4.21677 -4.43215,9.10028 -4.24701,9.77994 -5.39983,11.4968 -9.49831,14.14578 -1.30821,0.84555 -3.60944,1.9398 -5.11385,2.43171 -1.50442,0.49191 -4.42804,1.6073 -6.49694,2.47857 -7.35594,3.0979 -10.31025,3.7846 -25.1859,5.8544 -7.8834,1.0968 -6.91958,1.584 4.42747,2.2377 4.49164,0.2588 10.76957,0.648 13.95094,0.8649 3.18138,0.217 7.87277,0.398 10.42533,0.4024 9.32967,0.016 16.77969,1.6032 21.11507,4.4982 6.10022,4.0736 7.83186,8.978 4.38643,12.4234 -2.45756,2.4576 -6.04264,3.4859 -12.21599,3.504 -1.5416,0 -8.34873,0.9171 -15.12694,2.0279 -6.77822,1.1108 -14.43976,2.3169 -17.02565,2.6802 -2.58589,0.3633 -8.19717,1.186 -12.46951,1.8282 -11.33109,1.7031 -14.37953,2.0586 -17.6462,2.0581 -3.48389,0 -8.06954,-0.8238 -11.17675,-2.0063 -3.78221,-1.4393 -8.18749,-1.2103 -13.91958,0.7238 -2.57536,0.869 -5.85272,2.0757 -7.28303,2.6817 -2.87422,1.2177 -8.25246,2.6726 -9.91602,2.6823 -0.58804,0 -1.55392,-0.375 -2.14639,-0.8411 z m 36.94454,-35.113 c 0,-0.659 -3.39123,-2.4246 -7.00031,-3.6446 -4.4997,-1.521 -6.05652,-2.359 -9.91386,-5.33615 -1.76998,-1.36612 -3.41128,-2.48388 -3.64733,-2.48388 -0.69923,0 -1.92449,1.29883 -1.92449,2.04005 0,0.77941 3.72852,7.09978 4.99498,8.46718 0.98014,1.0583 1.9589,1.1713 11.05184,1.2754 3.88259,0.044 6.43917,-0.082 6.43917,-0.318 z m 17.37554,-4.8941 c 3.94821,-0.3223 9.42554,-1.0292 17.98879,-2.32174 5.37515,-0.8113 10.95689,-2.32649 14.84482,-4.02974 1.72919,-0.75753 4.33982,-1.77635 5.80141,-2.26405 3.57354,-1.19241 7.19194,-3.15765 8.35181,-4.53608 0.52291,-0.62143 1.81179,-3.16983 2.86419,-5.66308 1.0524,-2.49328 2.82283,-6.48066 3.93429,-8.86091 1.11146,-2.3802 2.02084,-4.66813 2.02084,-5.08429 0,-1.04384 -4.75155,-3.2446 -12.46951,-5.77542 -8.56222,-2.80766 -10.55874,-3.17982 -17.103,-3.18804 -6.30308,-0.008 -7.46712,0.21927 -19.07901,3.72341 -9.90207,2.98818 -14.17945,4.60951 -19.53366,7.40419 -6.28122,3.2785 -8.98438,5.11748 -13.08,8.89852 -3.40696,3.14526 -9.08763,9.54641 -9.08763,10.24021 0,0.20564 1.70178,1.64765 3.78173,3.20445 2.80332,2.09823 4.68083,3.14723 7.25685,4.0546 1.91131,0.67323 5.02917,1.97867 6.92859,2.90087 3.42122,1.6611 3.49569,1.6766 7.9723,1.6538 2.48536,-0.013 6.35859,-0.1731 8.60719,-0.3567 z"
       style="fill:#000000" />
  </g>
</svg>
