<?xml version="1.0" encoding="UTF-8" standalone="no"?>
<!-- Created with Inkscape (http://www.inkscape.org/) -->

<svg
   xmlns:dc="http://purl.org/dc/elements/1.1/"
   xmlns:cc="http://creativecommons.org/ns#"
   xmlns:rdf="http://www.w3.org/1999/02/22-rdf-syntax-ns#"
   xmlns:svg="http://www.w3.org/2000/svg"
   xmlns="http://www.w3.org/2000/svg"
   xmlns:sodipodi="http://sodipodi.sourceforge.net/DTD/sodipodi-0.dtd"
   xmlns:inkscape="http://www.inkscape.org/namespaces/inkscape"
   width="177.16534"
   height="106.29921"
   id="svg2"
   version="1.1"
   inkscape:version="0.48.4 r9939"
   sodipodi:docname="padahastasana.svg">
  <defs
     id="defs4" />
  <sodipodi:namedview
     id="base"
     pagecolor="#ffffff"
     bordercolor="#666666"
     borderopacity="1.0"
     inkscape:pageopacity="0.0"
     inkscape:pageshadow="2"
     inkscape:zoom="5.682074"
     inkscape:cx="22.220307"
     inkscape:cy="53.14961"
     inkscape:document-units="cm"
     inkscape:current-layer="layer1"
     showgrid="false"
     fit-margin-top="0"
     fit-margin-left="0"
     fit-margin-right="0"
     fit-margin-bottom="0"
     inkscape:window-width="1330"
     inkscape:window-height="747"
     inkscape:window-x="36"
     inkscape:window-y="21"
     inkscape:window-maximized="1"
     units="cm" />
  <metadata
     id="metadata7">
    <rdf:RDF>
      <cc:Work
         rdf:about="">
        <dc:format>image/svg+xml</dc:format>
        <dc:type
           rdf:resource="http://purl.org/dc/dcmitype/StillImage" />
        <dc:title />
      </cc:Work>
    </rdf:RDF>
  </metadata>
  <g
     inkscape:label="Layer 1"
     inkscape:groupmode="layer"
     id="layer1"
     transform="translate(-882.19795,-743.05633)">
    <path
       inkscape:connector-curvature="0"
       id="path2998"
       d="m 957.00971,848.92411 c -0.69064,-0.48374 -0.90975,-1.98778 -0.3408,-2.3394 0.19664,-0.12154 0.23969,-0.7606 0.11724,-1.74064 -0.23459,-1.87756 0.13197,-2.68869 1.46716,-3.24656 2.11027,-0.88173 4.75476,-4.84752 6.39062,-9.58365 1.37342,-3.97633 2.78141,-8.78386 3.14607,-10.74216 0.38507,-2.06789 0.37538,-7.30965 -0.0189,-10.19889 -0.2432,-1.7824 -0.71653,-3.16576 -2.12531,-6.21142 -0.99683,-2.15507 -1.98576,-3.98627 -2.19762,-4.06932 -0.21185,-0.083 -1.74524,0.54533 -3.40752,1.3964 -2.80188,1.43453 -3.1727,1.5474 -5.08369,1.5474 -2.44249,0 -3.54645,-0.52782 -4.9484,-2.36589 -1.45392,-1.90623 -1.74513,-3.87346 -1.17591,-7.94389 0.40099,-2.86742 0.67335,-3.77263 1.94389,-6.46074 0.81265,-1.71937 1.47756,-3.2853 1.47756,-3.47985 0,-0.19456 0.27815,-1.15749 0.61812,-2.13985 l 0.61811,-1.7861 -0.58957,-1.51296 c -0.32427,-0.83212 -0.93888,-2.34096 -1.36581,-3.35297 -1.35137,-3.20334 -1.30502,-8.79672 0.10615,-12.81176 1.32427,-3.76778 4.7143,-7.91126 9.05885,-11.07222 4.01163,-2.91874 8.23258,-5.54423 9.54869,-5.93941 3.17424,-0.95312 15.84563,-2.11213 19.06608,-1.74392 1.97912,0.22629 3.22915,0.74974 3.50459,1.46753 0.37376,0.97398 0.16003,2.81705 -0.54343,4.68595 -1.2554,3.3353 -1.95356,6.85421 -2.20836,11.1308 -0.1345,2.25723 -0.44555,5.753 -0.69121,7.76838 -0.24569,2.01538 -0.58788,4.85157 -0.76045,6.30264 -0.17258,1.45107 -0.49586,4.02343 -0.71841,5.71635 -0.22259,1.69292 -0.49563,4.33124 -0.60679,5.86292 -0.11116,1.53169 -0.3861,3.7083 -0.61097,4.83692 -0.22488,1.12861 -0.73589,3.9648 -1.13559,6.30264 -0.39971,2.33784 -0.92983,4.97615 -1.17807,5.86292 -1.05837,3.78072 -1.62715,6.52481 -2.06587,9.96697 -0.51266,4.02225 -1.18851,7.59285 -2.50017,13.20862 -0.47292,2.02475 -1.00134,4.72902 -1.17427,6.00949 -0.17293,1.28048 -0.69558,3.77921 -1.16143,5.55274 -0.46586,1.77354 -1.04535,4.29188 -1.28775,5.59633 -0.51847,2.79004 -0.88021,3.67946 -1.70635,4.19539 -0.33417,0.20869 -2.0067,0.50377 -3.71675,0.65573 -1.71004,0.15196 -4.89003,0.47009 -7.06664,0.70697 -4.96657,0.54049 -5.86659,0.53624 -6.67714,-0.0315 z m 10.04831,-4.25331 c 2.096,-0.17418 4.08825,-0.42726 4.42723,-0.56241 0.47178,-0.1881 0.69945,-0.68152 0.97075,-2.10388 0.19494,-1.02199 0.73345,-3.30923 1.1967,-5.08277 0.46326,-1.77353 0.99157,-4.27993 1.17403,-5.56977 0.18247,-1.28985 0.83803,-4.52178 1.4568,-7.18209 1.03937,-4.46853 2.04623,-10.15631 2.4909,-14.07101 0.10073,-0.88677 0.50971,-2.8655 0.90885,-4.39719 1.54164,-5.91606 3.31,-15.35231 3.65324,-19.49422 0.14696,-1.77354 0.47226,-4.74164 0.72287,-6.59579 0.82717,-6.1195 1.70693,-14.43409 2.17128,-20.52023 0.18491,-2.42405 0.59602,-4.855 1.2145,-7.18208 0.51424,-1.93477 1.0008,-3.81457 1.08121,-4.17734 0.14262,-0.64325 0.0855,-0.65951 -2.30638,-0.65707 -4.32588,0.004 -13.30732,0.92021 -14.91136,1.52043 -2.3802,0.89066 -9.98518,6.40943 -12.34555,8.95891 -3.39589,3.66797 -4.46156,6.5681 -4.31477,11.74221 0.0897,3.16216 0.1722,3.59154 1.02546,5.33795 0.51034,1.04455 1.10911,2.42685 1.33059,3.07177 l 0.4027,1.17258 3.21318,0.22432 c 5.63874,0.39364 9.52927,1.75005 10.49378,3.65862 0.6225,1.23178 0.81985,3.5671 0.46408,5.49162 -0.35965,1.94555 -2.1792,5.77367 -3.67612,7.73412 -0.54479,0.7135 -0.99054,1.59134 -0.99054,1.95076 0,0.35943 0.85327,2.38342 1.89615,4.49778 2.2661,4.59434 2.65549,5.88723 3.10227,10.30067 0.62938,6.21729 -0.0864,10.31932 -3.58051,20.52073 -1.23218,3.5974 -2.73921,6.40871 -4.77588,8.90919 -0.69261,0.85034 -1.41229,1.83195 -1.59929,2.18136 -0.41473,0.77493 -0.37032,0.77774 5.10383,0.32283 z"
       style="fill:#000000" />
  </g>
</svg>
