<?xml version="1.0" encoding="UTF-8" standalone="no"?>
<!-- Created with Inkscape (http://www.inkscape.org/) -->

<svg
   xmlns:dc="http://purl.org/dc/elements/1.1/"
   xmlns:cc="http://creativecommons.org/ns#"
   xmlns:rdf="http://www.w3.org/1999/02/22-rdf-syntax-ns#"
   xmlns:svg="http://www.w3.org/2000/svg"
   xmlns="http://www.w3.org/2000/svg"
   xmlns:sodipodi="http://sodipodi.sourceforge.net/DTD/sodipodi-0.dtd"
   xmlns:inkscape="http://www.inkscape.org/namespaces/inkscape"
   width="177.16534"
   height="106.29921"
   id="svg3023"
   version="1.1"
   inkscape:version="0.48.4 r9939"
   sodipodi:docname="Pawan_Mukta_Asana_(Apanasana).svg">
  <defs
     id="defs3025" />
  <sodipodi:namedview
     id="base"
     pagecolor="#ffffff"
     bordercolor="#666666"
     borderopacity="1.0"
     inkscape:pageopacity="0.0"
     inkscape:pageshadow="2"
     inkscape:zoom="1"
     inkscape:cx="6.8662784"
     inkscape:cy="35.568906"
     inkscape:document-units="cm"
     inkscape:current-layer="layer1"
     showgrid="false"
     fit-margin-top="0"
     fit-margin-left="0"
     fit-margin-right="0"
     fit-margin-bottom="0"
     inkscape:window-width="1330"
     inkscape:window-height="747"
     inkscape:window-x="36"
     inkscape:window-y="21"
     inkscape:window-maximized="1"
     units="cm" />
  <metadata
     id="metadata3028">
    <rdf:RDF>
      <cc:Work
         rdf:about="">
        <dc:format>image/svg+xml</dc:format>
        <dc:type
           rdf:resource="http://purl.org/dc/dcmitype/StillImage" />
        <dc:title />
      </cc:Work>
    </rdf:RDF>
  </metadata>
  <g
     inkscape:label="Layer 1"
     inkscape:groupmode="layer"
     id="layer1"
     transform="translate(-617.21482,-521.15253)">
    <path
       inkscape:connector-curvature="0"
       id="path3046"
       d="m 628.58786,610.46157 c -1.72476,-0.25117 -3.65245,-0.72378 -4.28374,-1.05024 -1.8989,-0.98196 -4.29059,-3.99976 -5.63686,-7.11252 -1.51744,-3.50853 -1.8286,-6.28812 -1.01437,-9.06147 0.31669,-1.07871 0.67817,-2.62486 0.80329,-3.43589 0.4423,-2.86717 4.79859,-8.11347 7.92212,-9.54067 1.49659,-0.68383 2.54168,-0.77199 10.67893,-0.9009 9.90569,-0.15693 16.19269,0.31943 18.71138,1.41776 3.00433,1.3101 3.95724,4.40849 2.66188,8.65515 -0.43293,1.41932 -0.87724,2.97306 -0.98735,3.45276 l -0.20019,0.87217 8.42454,-0.27468 8.42454,-0.27469 1.66114,-1.88778 c 0.91362,-1.03828 3.11779,-3.39114 4.89813,-5.22857 3.10386,-3.20339 3.237,-3.40961 3.237,-5.01368 0,-1.25331 0.26295,-2.03588 1.0484,-3.12016 1.9141,-2.64233 4.1774,-10.98922 4.25297,-15.68464 0.0393,-2.4408 0.16645,-2.95683 0.9285,-3.768 0.48564,-0.51694 1.43921,-1.12346 2.11905,-1.34783 1.32604,-0.43763 1.33676,-0.46232 1.24118,-2.85949 -0.0766,-1.91997 0.59908,-3.05136 2.4723,-4.14001 0.80441,-0.46749 2.02661,-1.76576 2.89123,-3.07117 1.82017,-2.74813 3.81236,-4.29885 9.27249,-7.2177 4.93399,-2.63758 6.18304,-2.81736 7.62967,-1.09814 1.83186,2.17704 0.83879,4.9738 -2.34235,6.5967 -0.74841,0.38181 -1.56575,0.94121 -1.81631,1.24312 -0.6537,0.78766 -0.0771,0.90142 6.77201,1.33615 7.52064,0.47736 9.76014,0.67761 14.74615,1.31854 2.23036,0.28671 6.04592,0.77111 8.47904,1.07645 2.43311,0.30534 5.99984,0.80994 7.92606,1.12133 7.60749,1.22983 13.145,2.01059 14.31187,2.0179 0.67353,0.004 1.91773,-0.39833 2.7649,-0.89455 0.84713,-0.49621 3.75186,-1.73875 6.45494,-2.76119 2.70308,-1.02243 5.35739,-2.17175 5.89846,-2.55405 1.36284,-0.96289 6.58243,-3.53666 8.30791,-4.09658 1.74573,-0.56649 3.98106,-0.56737 5.03755,-0.002 1.01781,0.54472 1.81853,2.47575 1.56866,3.78297 -0.10769,0.56329 0.01,1.75929 0.26159,2.65777 0.42632,1.52267 0.39269,1.74398 -0.49517,3.25903 -1.77599,3.0305 -7.31074,7.74153 -15.68397,13.34978 -2.10675,1.41108 -4.51222,3.0339 -5.34548,3.60628 -1.80991,1.24327 -2.12448,1.23204 -11.65301,-0.41578 -3.54829,-0.61363 -7.77859,-1.22157 -9.40067,-1.35099 -1.62206,-0.12941 -5.43763,-0.63056 -8.47903,-1.11367 -3.04139,-0.4831 -7.18875,-0.9858 -9.21634,-1.11712 -2.0276,-0.13132 -5.51138,-0.57144 -7.74173,-0.97804 -4.97081,-0.90619 -10.41396,-1.28205 -10.94055,-0.75546 -0.25991,0.25991 1.40188,2.17497 5.28064,6.08547 6.25776,6.30897 9.92631,9.01102 13.82016,10.17921 1.3034,0.39103 4.01886,1.65283 6.03436,2.80401 2.0155,1.15118 4.81248,2.48143 6.21551,2.95611 4.74991,1.60701 10.66484,4.99796 13.61743,7.80665 1.36833,1.30167 1.54753,1.66346 1.54753,3.12393 0,1.24455 -0.20449,1.83698 -0.82947,2.40309 -0.45621,0.41324 -4.2303,2.55731 -8.38687,4.7646 l -7.5574,4.01325 -4.42384,-0.0134 c -2.7576,-0.008 -7.06208,-0.3879 -11.42827,-1.00769 -13.71858,-1.94738 -18.47647,-2.49381 -21.75058,-2.49795 -1.82484,-0.002 -6.38693,-0.24358 -10.13798,-0.53617 -3.75105,-0.29259 -8.31314,-0.53531 -10.13798,-0.53938 l -3.31788,-0.007 -2.97184,2.12903 c -3.43715,2.46238 -7.48198,4.50166 -9.47323,4.77611 -1.75806,0.24232 -4.43793,-0.75113 -5.43068,-2.01321 -1.00396,-1.27633 -0.94277,-3.26921 0.16772,-5.46271 0.49995,-0.98753 0.83923,-1.86528 0.75394,-1.95056 -0.0853,-0.0853 -3.57406,-0.178 -7.75286,-0.20605 l -7.5978,-0.051 -0.95456,1.29393 c -1.66287,2.25405 -3.18001,3.72634 -5.15037,4.99811 -5.87138,3.78968 -9.07967,4.42644 -16.70644,3.31574 z m 116.77468,-10.96928 c 2.07896,-1.06802 3.73279,-2.08321 3.6752,-2.256 -0.14165,-0.42494 -12.04465,-4.78506 -16.85578,-6.17434 -2.12898,-0.61477 -5.44686,-1.88031 -7.37308,-2.81231 -6.21894,-3.00903 -16.71351,-8.66544 -18.94649,-10.21186 -1.80267,-1.24841 -2.22759,-1.41079 -2.49472,-0.95331 -0.17708,0.30327 -1.1681,1.9615 -2.20227,3.68496 -1.03417,1.72345 -2.24987,3.96303 -2.70156,4.97682 -1.07228,2.40667 -3.63358,6.58991 -5.26445,8.59817 -0.72151,0.88846 -1.15119,1.7283 -0.97098,1.89781 0.42387,0.39873 10.06416,1.11662 14.99458,1.11662 2.1298,0 6.08696,0.32397 8.79369,0.71993 2.70673,0.39597 5.99965,0.82366 7.31758,0.95045 2.29964,0.22122 11.65832,1.47365 15.11481,2.02276 0.91242,0.14494 1.99073,0.29022 2.39625,0.32283 0.40552,0.0326 2.43827,-0.81452 4.51722,-1.88253 z M 696.42,573.58829 c 0.7573,-2.2757 0.77616,-2.52553 0.23177,-3.06993 -0.8164,-0.8164 -1.07344,-0.40919 -2.04933,3.24664 -1.33121,4.98694 -1.32442,4.74938 -0.0988,3.45439 0.60716,-0.64153 1.45799,-2.25368 1.91637,-3.6311 z m 15.9646,-1.17534 c -0.737,-1.12481 -4.73736,-4.17775 -5.47423,-4.17775 -1.27475,0 -0.66517,0.86142 2.06583,2.91929 3.27711,2.46937 4.49693,2.91976 3.4084,1.25846 z m 57.60132,-9.73497 c 0.13463,-0.21783 2.09366,-1.59866 4.35344,-3.06851 6.48244,-4.21644 6.58493,-4.96638 0.33735,-2.46838 -1.98096,0.79207 -4.57252,1.95333 -5.75896,2.58058 -3.13271,1.65618 -4.6077,1.59999 -18.88073,-0.71932 -3.66323,-0.59526 -8.97184,-1.33579 -11.79692,-1.64562 -2.82508,-0.30984 -6.04893,-0.72582 -7.16411,-0.92441 -2.5617,-0.45619 -14.23456,-1.45777 -17.0618,-1.46398 -1.584,-0.003 -2.1874,0.14141 -2.34963,0.5642 -0.12007,0.31288 -0.14971,0.63747 -0.0659,0.72132 0.0838,0.0838 2.63422,0.25313 5.66751,0.37619 3.03329,0.12307 7.5058,0.53892 9.93892,0.92412 2.43311,0.3852 6.42613,0.87079 8.87335,1.07908 2.44723,0.20828 6.4287,0.70679 8.8477,1.10777 2.419,0.40099 6.30596,0.90944 8.63769,1.12988 2.33173,0.22045 6.39614,0.7826 9.03202,1.24924 5.59362,0.99023 7.05463,1.10052 7.39003,0.55784 z"
       style="fill:#000000" />
  </g>
</svg>
