<?xml version="1.0" encoding="UTF-8" standalone="no"?>
<!-- Created with Inkscape (http://www.inkscape.org/) -->

<svg
   xmlns:dc="http://purl.org/dc/elements/1.1/"
   xmlns:cc="http://creativecommons.org/ns#"
   xmlns:rdf="http://www.w3.org/1999/02/22-rdf-syntax-ns#"
   xmlns:svg="http://www.w3.org/2000/svg"
   xmlns="http://www.w3.org/2000/svg"
   xmlns:sodipodi="http://sodipodi.sourceforge.net/DTD/sodipodi-0.dtd"
   xmlns:inkscape="http://www.inkscape.org/namespaces/inkscape"
   width="177.16534"
   height="106.29921"
   id="svg3029"
   version="1.1"
   inkscape:version="0.48.4 r9939"
   sodipodi:docname="pranamasana.svg">
  <defs
     id="defs3031" />
  <sodipodi:namedview
     id="base"
     pagecolor="#ffffff"
     bordercolor="#666666"
     borderopacity="1.0"
     inkscape:pageopacity="0.0"
     inkscape:pageshadow="2"
     inkscape:zoom="2.8"
     inkscape:cx="81.068488"
     inkscape:cy="85.526065"
     inkscape:document-units="cm"
     inkscape:current-layer="layer1"
     showgrid="false"
     fit-margin-top="0"
     fit-margin-left="0"
     fit-margin-right="0"
     fit-margin-bottom="0"
     inkscape:window-width="1330"
     inkscape:window-height="747"
     inkscape:window-x="36"
     inkscape:window-y="21"
     inkscape:window-maximized="1"
     units="cm" />
  <metadata
     id="metadata3034">
    <rdf:RDF>
      <cc:Work
         rdf:about="">
        <dc:format>image/svg+xml</dc:format>
        <dc:type
           rdf:resource="http://purl.org/dc/dcmitype/StillImage" />
        <dc:title />
      </cc:Work>
    </rdf:RDF>
  </metadata>
  <g
     inkscape:label="Layer 1"
     inkscape:groupmode="layer"
     id="layer1"
     transform="translate(130.7044,-359.87676)">
    <path
       style="fill:#000000"
       d="m -42.445888,466.13664 c -0.45219,-0.0521 -1.05805,-0.1471 -1.34637,-0.21099 -0.69585,-0.15419 -2.11207,-1.41631 -2.55897,-2.28051 -0.50655,-0.97956 -0.67458,-5.12244 -0.34543,-8.51677 0.28981,-2.98856 0.40865,-17.12363 0.15898,-18.90939 -0.0813,-0.58137 -0.30408,-4.06963 -0.49512,-7.75167 -0.19104,-3.68204 -0.56496,-8.12164 -0.83093,-9.86576 -0.77529,-5.08396 -0.90063,-7.54035 -0.90221,-17.68183 -5.9e-4,-5.26779 -0.0756,-9.69772 -0.16621,-9.8443 -0.0906,-0.14657 -0.20208,-2.67854 -0.24776,-5.62661 -0.0584,-3.77224 -0.19212,-5.83139 -0.45122,-6.95099 -0.25752,-1.11285 -0.40641,-3.37274 -0.49546,-7.52085 l -0.12731,-5.92997 0.60745,-1.2416 c 0.78645,-1.60744 2.04264,-3.06363 3.05884,-3.54585 0.48768,-0.23142 1.40861,-0.38279 2.32881,-0.38279 1.48974,0 1.56147,0.0293 3.37054,1.37751 2.4469,1.82354 4.20255,3.72311 4.95004,5.35584 0.49646,1.08442 0.60977,1.68513 0.60977,3.23274 0,2.1712 -0.27798,2.88514 -1.64033,4.21283 -1.49768,1.4596 -3.05445,2.07844 -5.55797,2.20939 -1.89748,0.0992 -2.29649,0.0497 -3.16395,-0.39284 -1.26478,-0.64525 -1.36217,-0.43478 -0.86916,1.87844 0.20398,0.95709 0.47142,3.53715 0.59432,5.73345 0.28713,5.13123 0.64349,8.35937 1.04433,9.46033 0.37475,1.02926 2.17116,5.09048 2.95877,6.68899 0.30237,0.61367 0.69246,1.11577 0.86688,1.11577 0.17441,0 0.67256,-0.76636 1.107,-1.70302 0.67767,-1.46108 0.82699,-2.12015 1.0511,-4.63926 0.33204,-3.73241 1.32221,-9.35341 1.8747,-10.64231 0.23384,-0.54551 0.59176,-1.13013 0.79539,-1.29912 0.58501,-0.48551 1.62729,-0.24266 2.02673,0.47223 0.31433,0.56258 0.30841,0.79536 -0.0568,2.23154 -0.70897,2.78823 -1.32988,6.64945 -1.56401,9.72608 -0.14824,1.94792 -0.39398,3.4231 -0.71166,4.27219 -0.62155,1.66124 -2.64735,5.06549 -3.42239,5.75113 -1.35813,1.20148 -2.6393,0.36324 -4.20905,-2.75387 -0.44746,-0.88854 -0.92191,-1.68249 -1.05432,-1.76433 -0.16154,-0.0998 -0.25155,1.72986 -0.27358,5.56138 -0.0398,6.92644 -0.0347,7.05933 0.37793,9.70346 1.58616,10.16512 2.23693,26.03662 1.67344,40.81341 -0.26452,6.93658 -0.46535,6.51877 3.13339,6.51877 2.53335,0 3.53934,-0.29259 3.53934,-1.02942 0,-0.40327 1.00153,-1.31957 1.44231,-1.31957 0.7691,0 1.37648,1.02763 1.37648,2.32889 0,1.08814 -0.0946,1.33614 -0.76519,2.00677 -0.65724,0.65724 -0.98036,0.7856 -2.29027,0.90981 -2.70367,0.2564 -4.55916,0.33976 -5.40091,0.24267 z"
       id="path3059"
       inkscape:connector-curvature="0" />
  </g>
</svg>
