<?xml version="1.0" encoding="UTF-8" standalone="no"?>
<!-- Created with Inkscape (http://www.inkscape.org/) -->

<svg
   xmlns:dc="http://purl.org/dc/elements/1.1/"
   xmlns:cc="http://creativecommons.org/ns#"
   xmlns:rdf="http://www.w3.org/1999/02/22-rdf-syntax-ns#"
   xmlns:svg="http://www.w3.org/2000/svg"
   xmlns="http://www.w3.org/2000/svg"
   xmlns:sodipodi="http://sodipodi.sourceforge.net/DTD/sodipodi-0.dtd"
   xmlns:inkscape="http://www.inkscape.org/namespaces/inkscape"
   width="177.16534"
   height="106.29921"
   id="svg2"
   version="1.1"
   inkscape:version="0.48.4 r9939"
   sodipodi:docname="shashankasana.svg">
  <defs
     id="defs4" />
  <sodipodi:namedview
     id="base"
     pagecolor="#ffffff"
     bordercolor="#666666"
     borderopacity="1.0"
     inkscape:pageopacity="0.0"
     inkscape:pageshadow="2"
     inkscape:zoom="6.6548001"
     inkscape:cx="88.582675"
     inkscape:cy="21.768054"
     inkscape:document-units="cm"
     inkscape:current-layer="layer1"
     showgrid="false"
     fit-margin-top="0"
     fit-margin-left="0"
     fit-margin-right="0"
     fit-margin-bottom="0"
     inkscape:window-width="1330"
     inkscape:window-height="747"
     inkscape:window-x="36"
     inkscape:window-y="21"
     inkscape:window-maximized="1"
     units="cm" />
  <metadata
     id="metadata7">
    <rdf:RDF>
      <cc:Work
         rdf:about="">
        <dc:format>image/svg+xml</dc:format>
        <dc:type
           rdf:resource="http://purl.org/dc/dcmitype/StillImage" />
        <dc:title />
      </cc:Work>
    </rdf:RDF>
  </metadata>
  <g
     inkscape:label="Layer 1"
     inkscape:groupmode="layer"
     id="layer1"
     transform="translate(-79.319485,-729.79808)">
    <path
       inkscape:connector-curvature="0"
       id="path2998"
       d="m 80.479803,803.96542 c -1.479692,-1.16758 -1.547715,-2.60836 -0.183647,-3.88984 1.35453,-1.27251 6.209935,-2.1809 13.348305,-2.4973 14.015179,-0.62121 22.843979,-1.94847 30.596659,-4.59969 3.37851,-1.15537 7.27793,-2.42142 8.66538,-2.81344 1.38744,-0.39203 2.52925,-0.95404 2.53736,-1.24891 0.25863,-9.40766 0.2499,-9.33336 1.32764,-11.3027 1.76383,-3.22304 3.26052,-3.71111 11.38041,-3.71111 6.3378,0 7.05889,0.0866 10.60625,1.27315 l 3.80614,1.27315 2.11654,-1.35476 c 1.1641,-0.74512 2.6744,-1.56561 3.35621,-1.82331 0.68182,-0.2577 2.11728,-1.07236 3.18992,-1.81035 3.41776,-2.35148 14.26818,-7.32441 19.26114,-8.82769 l 4.82589,-1.45299 10.30985,0.0358 c 12.69763,0.0441 16.42257,0.61872 20.12556,3.10446 1.3576,0.91133 4.63477,2.77074 7.2826,4.13202 6.69262,3.44076 7.40506,4.63714 4.95948,8.3282 -0.9037,1.36394 -1.57101,1.69303 -6.92242,3.41378 -3.25727,1.04739 -8.78494,2.99383 -12.28371,4.32543 -3.49877,1.33161 -8.43776,3.05047 -10.97555,3.81971 -2.53779,0.76923 -4.88286,1.56467 -5.21127,1.76764 -1.52899,0.94497 1.61194,1.2753 14.01766,1.47421 11.08285,0.1777 13.5717,0.0977 16.7816,-0.53922 4.6203,-0.91682 6.99958,-0.62873 9.83642,1.19101 1.87691,1.20398 2.58478,1.37648 6.84141,1.66717 3.56822,0.24367 4.95801,0.5144 5.59364,1.08964 1.06196,0.96106 1.09209,2.90279 0.0595,3.83724 -2.01786,1.82613 -10.35878,1.26301 -14.65588,-0.98946 -2.92274,-1.53206 -4.10102,-1.61813 -8.68734,-0.6346 -2.78178,0.59655 -5.12132,0.6604 -15.13574,0.41307 -6.51495,-0.16089 -13.12861,-0.47064 -14.69702,-0.68832 -1.56841,-0.21768 -6.01042,-0.5902 -9.87113,-0.82783 -12.01491,-0.73952 -14.84834,-1.3752 -16.03803,-3.59816 -0.47961,-0.89615 -0.54526,-0.871 -2.18717,0.83774 -1.87827,1.95473 -3.97435,2.86408 -11.82692,5.13093 -11.78468,3.40196 -13.87729,3.61576 -17.48684,1.78666 -1.22445,-0.62047 -2.72638,-1.12813 -3.33764,-1.12813 -1.11724,0 -1.9764,-0.70277 -3.43512,-2.80986 -0.43353,-0.62623 -1.0786,-1.13859 -1.43349,-1.13859 -0.35489,0 -4.5409,1.27903 -9.30225,2.84229 -5.58648,1.83417 -10.29089,3.08624 -13.26354,3.53008 -6.02986,0.90029 -17.344468,1.94464 -21.49714,1.98421 -1.809708,0.0172 -4.277491,0.21041 -5.483963,0.42925 -5.511335,0.99973 -5.642073,0.99971 -6.909794,-4.4e-4 z m 97.943587,-15.00355 c 0.84453,-0.37847 3.80587,-0.9384 6.58076,-1.24431 4.80317,-0.5295 10.98567,-1.85866 15.42042,-3.31519 1.12175,-0.36842 3.68824,-1.12991 5.70332,-1.69219 2.01507,-0.56228 6.03284,-1.96 8.92838,-3.10603 2.89553,-1.14604 7.04141,-2.63341 9.21305,-3.30526 5.17791,-1.60192 5.54918,-1.76209 5.36503,-2.31455 -0.0858,-0.25743 -2.1188,-1.70774 -4.51775,-3.22291 -5.37883,-3.39725 -6.68766,-3.63818 -19.8299,-3.65042 l -9.33085,-0.009 -4.92745,1.59031 c -4.95681,1.59978 -14.20054,5.98262 -17.86961,8.47272 -1.08583,0.73692 -2.19041,1.3407 -2.45463,1.34173 -0.26422,8.8e-4 -0.81741,0.37427 -1.22931,0.82942 -0.71503,0.79009 -0.68081,0.86963 0.75624,1.75777 2.53522,1.56686 5.04888,4.63552 5.60445,6.84191 0.27905,1.10816 0.62998,1.94711 0.77985,1.86432 0.14987,-0.0828 0.96347,-0.46017 1.808,-0.83863 z"
       style="fill:#000000" />
  </g>
</svg>
