<?xml version="1.0" encoding="UTF-8" standalone="no"?>
<!-- Created with Inkscape (http://www.inkscape.org/) -->

<svg
   xmlns:dc="http://purl.org/dc/elements/1.1/"
   xmlns:cc="http://creativecommons.org/ns#"
   xmlns:rdf="http://www.w3.org/1999/02/22-rdf-syntax-ns#"
   xmlns:svg="http://www.w3.org/2000/svg"
   xmlns="http://www.w3.org/2000/svg"
   xmlns:sodipodi="http://sodipodi.sourceforge.net/DTD/sodipodi-0.dtd"
   xmlns:inkscape="http://www.inkscape.org/namespaces/inkscape"
   width="177.1653"
   height="106.29921"
   id="svg2"
   version="1.1"
   inkscape:version="0.48.4 r9939"
   sodipodi:docname="supta_baddha_konasana.svg">
  <defs
     id="defs4" />
  <sodipodi:namedview
     id="base"
     pagecolor="#ffffff"
     bordercolor="#666666"
     borderopacity="1.0"
     inkscape:pageopacity="0.0"
     inkscape:pageshadow="2"
     inkscape:zoom="0.86111111"
     inkscape:cx="203.79382"
     inkscape:cy="307.32006"
     inkscape:document-units="cm"
     inkscape:current-layer="layer1"
     showgrid="false"
     fit-margin-top="0"
     fit-margin-left="0"
     fit-margin-right="0"
     fit-margin-bottom="0"
     inkscape:window-width="1330"
     inkscape:window-height="747"
     inkscape:window-x="36"
     inkscape:window-y="21"
     inkscape:window-maximized="1"
     units="cm" />
  <metadata
     id="metadata7">
    <rdf:RDF>
      <cc:Work
         rdf:about="">
        <dc:format>image/svg+xml</dc:format>
        <dc:type
           rdf:resource="http://purl.org/dc/dcmitype/StillImage" />
        <dc:title />
      </cc:Work>
    </rdf:RDF>
  </metadata>
  <g
     inkscape:label="Layer 1"
     inkscape:groupmode="layer"
     id="layer1"
     transform="translate(-1009.3333,-4203.598)">
    <path
       inkscape:connector-curvature="0"
       id="path3233"
       d="m 1169.6009,4286.6622 c -0.4489,-0.4806 -1.4759,-2.4931 -2.2822,-4.4721 -1.2197,-2.9934 -1.9755,-4.1684 -4.4976,-6.9914 -1.6674,-1.8663 -4.0355,-4.9663 -5.2625,-6.889 l -2.2309,-3.4957 0.052,-3.6899 c 0.056,-3.9589 0.6319,-6.1166 2.313,-8.6633 0.5979,-0.9058 0.8851,-1.7623 0.742,-2.2131 -0.1284,-0.4045 -1.8413,-2.3745 -3.8065,-4.3779 -3.8194,-3.8935 -3.328,-3.6338 -9.6733,-5.1129 -3.3261,-0.7753 -9.8327,-0.7831 -17.7325,-0.021 -14.4095,1.3897 -17.107,1.7627 -21.0643,2.913 -2.2236,0.6464 -5.616,1.5181 -7.5387,1.9373 -3.0266,0.6598 -6.8372,1.9529 -12.3092,4.1771 -1.3881,0.5642 -2.1369,1.4385 -1.5452,1.8042 0.1588,0.098 2.2048,0.4548 4.5468,0.7926 5.3446,0.771 9.2307,2.1489 12.7642,4.526 2.5325,1.7037 5.1838,4.5583 6.4427,6.9368 0.2768,0.523 0.5166,1.8724 0.5329,2.9987 0.037,2.5624 -0.8215,3.8459 -3.461,5.1745 -1.8234,0.9179 -2.3791,0.9808 -10.8553,1.2296 -4.9134,0.1442 -9.72,0.4441 -10.6814,0.6664 -0.9613,0.2224 -2.7847,0.4119 -4.052,0.4212 -2.4187,0.018 -7.7352,0.5537 -11.6787,1.1773 -1.2817,0.2026 -5.127,0.5688 -8.5451,0.8135 -5.8753,0.4208 -6.4796,0.3966 -11.0697,-0.4439 -6.3918,-1.1703 -8.3091,-1.296 -12.1407,-0.7958 -1.7609,0.2298 -4.8891,0.5329 -6.9516,0.6734 -3.6748,0.2504 -3.7701,0.2353 -4.758,-0.7525 -0.5827,-0.5827 -1.0081,-1.4466 -1.0081,-2.047 l 0,-1.0388 -2.4276,0.2979 c -4.1589,0.5103 -5.5313,0.1431 -5.968,-1.5969 -0.5587,-2.2262 1.1008,-3.6522 4.2454,-3.6479 2.691,0 10.016,-1.2427 9.8704,-1.6794 -0.2254,-0.6763 -5.0108,-3.4247 -7.3677,-4.2315 -1.2265,-0.4198 -2.8174,-1.162 -3.5354,-1.6492 -0.718,-0.4872 -2.511,-1.5925 -3.9845,-2.4561 -1.4736,-0.8636 -3.1739,-2.0904 -3.7785,-2.7261 -2.9154,-3.0658 -1.6493,-8.3019 2.7757,-11.479 1.5222,-1.093 1.9331,-1.1999 4.4668,-1.1627 1.5346,0.023 4.3398,0.319 6.2336,0.6589 1.8937,0.3399 5.6516,0.8061 8.3508,1.036 7.1021,0.6049 12.4546,1.3909 21.0268,3.0879 4.1657,0.8247 8.7975,1.5965 10.2929,1.7151 2.913,0.2311 10.1021,1.1897 12.0746,1.61 1.044,0.2225 1.4987,0.01 3.5162,-1.6728 2.7254,-2.2681 3.7255,-2.8169 8.0052,-4.3923 5.0532,-1.8602 7.2018,-2.526 11.3343,-3.5121 2.1215,-0.5062 3.9223,-1.1231 4.0019,-1.3708 0.097,-0.3014 -0.8588,-0.5379 -2.8863,-0.7147 -4.2394,-0.3696 -5.1906,-0.6606 -6.0878,-1.8622 l -0.7846,-1.051 0.7818,-1.0473 c 1.0867,-1.4555 2.2845,-1.6687 6.8568,-1.2206 2.1842,0.214 8.2535,0.4186 13.4873,0.4546 l 9.5161,0.065 4.661,-1.3335 c 4.1293,-1.1816 5.1926,-1.3347 9.3219,-1.3429 5.4744,-0.011 7.3179,0.4719 8.182,2.1428 0.5584,1.0799 1.048,1.3978 3.1714,2.0592 0.7811,0.2433 1.019,-0.052 2.4227,-3.0064 1.6866,-3.5499 1.4003,-3.3272 6.4214,-4.9956 2.4189,-0.8037 3.4482,-0.9034 9.3308,-0.9034 l 6.612,0 2.5515,1.2565 c 2.8619,1.4094 5.9112,3.9139 6.7574,5.5503 0.3088,0.5972 0.818,2.5435 1.1314,4.3251 0.3134,1.7817 0.9481,4.8124 1.4105,6.7351 0.8815,3.6652 0.8774,7.8353 -0.01,9.4923 -0.7044,1.3161 -2.5054,1.9539 -6.7957,2.4064 -4.8409,0.5106 -6.6668,0.1755 -9.9673,-1.8295 -1.2041,-0.7314 -2.4701,-1.3299 -2.8131,-1.3299 -1.2469,0 -3.7276,2.1394 -4.7047,4.0574 -0.7352,1.4433 -0.9787,2.5224 -0.9787,4.3372 0,2.2526 0.1297,2.6083 1.9211,5.2644 1.0566,1.5667 3.1788,4.2369 4.716,5.9339 1.5372,1.697 3.14,3.8818 3.5616,4.8551 0.4217,0.9734 1.3582,3.032 2.0812,4.5747 1.5416,3.2896 1.5699,3.5628 0.5095,4.911 -1.0127,1.2873 -2.637,1.3519 -3.7598,0.1495 z m -101.6629,-16.3675 c 6.5775,-0.8858 11.6116,-1.4024 13.6658,-1.4024 1.0273,0 3.0913,-0.2591 4.5866,-0.5758 1.8063,-0.3826 5.0232,-0.5782 9.5853,-0.5826 5.7043,-0.01 6.9694,-0.1096 7.474,-0.6143 0.5373,-0.5373 0.5424,-0.7334 0.044,-1.6973 -0.8787,-1.6993 -4.1462,-4.4156 -7.0038,-5.8225 -2.0666,-1.0173 -3.8082,-1.4691 -8.4862,-2.2014 -6.1089,-0.9564 -8.6134,-1.5828 -10.7551,-2.6903 -0.7836,-0.4053 -1.6884,-0.5651 -2.3969,-0.4234 -0.626,0.1252 -2.9918,-0.033 -5.2574,-0.3506 -2.2656,-0.3181 -4.8352,-0.5783 -5.7102,-0.5783 -0.875,0 -5.3453,-0.7628 -9.934,-1.6953 -8.586,-1.7446 -11.3996,-2.1579 -21.7434,-3.1938 -3.3112,-0.3316 -7.3312,-0.8529 -8.9334,-1.1583 -3.8366,-0.7315 -5.8296,-0.6928 -6.8489,0.1328 -1.2281,0.9948 -1.7926,2.29 -1.3546,3.1083 0.4806,0.8981 7.8649,5.2489 10.2389,6.0328 1.0127,0.3344 3.5471,1.6135 5.632,2.8425 2.0849,1.2289 5.189,2.9167 6.898,3.7506 4.1061,2.0034 4.4668,2.3602 4.4668,4.4177 0,0.9282 0.044,1.6941 0.097,1.7019 0.053,0.01 2.1071,0.4442 4.5638,0.9696 3.9829,0.8518 5.1403,0.9362 10.6846,0.7801 3.4198,-0.096 8.139,-0.4338 10.4871,-0.75 z"
       style="fill:#000000" />
  </g>
</svg>
