<?xml version="1.0" encoding="UTF-8" standalone="no"?>
<!-- Created with Inkscape (http://www.inkscape.org/) -->

<svg
   xmlns:dc="http://purl.org/dc/elements/1.1/"
   xmlns:cc="http://creativecommons.org/ns#"
   xmlns:rdf="http://www.w3.org/1999/02/22-rdf-syntax-ns#"
   xmlns:svg="http://www.w3.org/2000/svg"
   xmlns="http://www.w3.org/2000/svg"
   xmlns:sodipodi="http://sodipodi.sourceforge.net/DTD/sodipodi-0.dtd"
   xmlns:inkscape="http://www.inkscape.org/namespaces/inkscape"
   width="177.16536"
   height="106.29921"
   id="svg2"
   version="1.1"
   inkscape:version="0.48.4 r9939"
   sodipodi:docname="upavishta_konasana.svg">
  <defs
     id="defs4" />
  <sodipodi:namedview
     id="base"
     pagecolor="#ffffff"
     bordercolor="#666666"
     borderopacity="1.0"
     inkscape:pageopacity="0.0"
     inkscape:pageshadow="2"
     inkscape:zoom="4.7056543"
     inkscape:cx="85.86122"
     inkscape:cy="46.237818"
     inkscape:document-units="cm"
     inkscape:current-layer="layer1"
     showgrid="false"
     fit-margin-top="0"
     fit-margin-left="0"
     fit-margin-right="0"
     fit-margin-bottom="0"
     inkscape:window-width="1330"
     inkscape:window-height="747"
     inkscape:window-x="36"
     inkscape:window-y="21"
     inkscape:window-maximized="1"
     units="cm" />
  <metadata
     id="metadata7">
    <rdf:RDF>
      <cc:Work
         rdf:about="">
        <dc:format>image/svg+xml</dc:format>
        <dc:type
           rdf:resource="http://purl.org/dc/dcmitype/StillImage" />
        <dc:title />
      </cc:Work>
    </rdf:RDF>
  </metadata>
  <g
     inkscape:label="Layer 1"
     inkscape:groupmode="layer"
     id="layer1"
     transform="translate(-128.19821,-1044.5789)">
    <path
       inkscape:connector-curvature="0"
       d="m 205.51089,1119.8043 c -0.69748,-0.6098 -0.81588,-1.0479 -1.21368,-4.491 -0.586,-5.072 -0.78837,-5.8782 -2.37211,-9.4502 -3.03265,-6.8399 -2.561,-14.0969 1.3353,-20.5456 1.87151,-3.0974 1.89666,-3.1112 5.89551,-3.2381 3.7304,-0.1185 4.09255,-0.2985 3.44751,-1.7143 -0.30652,-0.6726 -0.49737,-0.7306 -2.36715,-0.7185 -2.2486,0.015 -2.62089,0.1316 -7.5901,2.3841 -6.83398,3.098 -6.8154,3.0923 -13.66562,4.2399 -0.99114,0.166 -2.95088,0.6919 -4.35498,1.1685 -1.45167,0.4927 -3.8485,1.0077 -5.55635,1.1937 -1.65189,0.18 -3.81436,0.4512 -4.8055,0.6028 -0.99113,0.1516 -2.95087,0.364 -4.35497,0.4722 -1.52078,0.1171 -3.58505,0.5406 -5.10584,1.0475 -1.91414,0.638 -3.60501,0.9344 -6.75772,1.1849 -2.31265,0.1837 -5.35362,0.475 -6.75772,0.6474 -1.40411,0.1724 -4.1072,0.4481 -6.00686,0.6127 -1.89968,0.1646 -4.10099,0.3689 -4.89181,0.454 -1.98366,0.2135 -2.52114,0.027 -4.8864,-1.6975 -1.20857,-0.8811 -2.87783,-1.7668 -4.02702,-2.1364 -2.95129,-0.9497 -4.06836,-2.5036 -2.69387,-3.7475 1.26836,-1.1479 5.36803,-0.1734 8.23965,1.9586 2.41074,1.7897 2.74382,1.9125 4.19626,1.5468 0.7036,-0.1773 2.27731,-0.3954 3.49716,-0.4848 1.21985,-0.089 4.24523,-0.3562 6.72305,-0.5929 2.47784,-0.2365 5.92428,-0.5642 7.65876,-0.7281 2.03355,-0.1922 3.88056,-0.5721 5.20041,-1.0697 1.40245,-0.5287 3.10438,-0.863 5.40618,-1.0619 6.1706,-0.5332 12.44589,-1.4818 14.07429,-2.1277 0.87953,-0.3488 3.62648,-1.013 6.1043,-1.476 2.47784,-0.463 5.18092,-1.1122 6.00687,-1.4426 2.12041,-0.8484 7.27139,-3.1485 8.77179,-3.9169 1.38851,-0.7112 4.35261,-1.2298 7.14641,-1.2505 0.99112,-0.011 2.34536,-0.1388 3.0094,-0.2923 1.47891,-0.3416 3.5638,0.096 7.80295,1.6384 1.65189,0.601 4.76045,1.5504 6.9079,2.1099 2.14745,0.5593 4.71539,1.3025 5.70652,1.6514 0.99113,0.3489 3.28876,0.8289 5.10583,1.0666 1.81708,0.2378 4.58775,0.6339 6.15704,0.8801 1.56929,0.2463 5.89424,0.7225 9.61099,1.0582 7.91127,0.7145 11.21528,1.0806 14.71682,1.6302 3.45595,0.5425 8.54356,1.2435 12.07748,1.6642 1.60436,0.1909 4.01191,0.6088 5.35012,0.9283 1.33821,0.3197 2.68014,0.5813 2.98206,0.5813 0.30193,0 1.19074,-0.5305 1.97515,-1.1786 1.29387,-1.0693 3.66229,-2.4736 8.24648,-4.89 2.34155,-1.2341 3.90819,-0.7841 3.90819,1.1229 0,0.7343 -0.23716,1.1873 -0.92408,1.7654 -0.50824,0.4275 -1.06497,0.7774 -1.23717,0.7774 -0.17221,0 -1.07412,0.4606 -2.00427,1.0235 -0.93016,0.5628 -2.32896,1.3609 -3.10847,1.7733 -0.77951,0.4124 -2.19862,1.4208 -3.1536,2.2407 -0.95498,0.8199 -2.08593,1.5732 -2.51323,1.674 -0.44608,0.1051 -1.87572,-0.1191 -3.35744,-0.5267 -2.59961,-0.7152 -3.97183,-0.9421 -11.93402,-1.9738 -2.39523,-0.3102 -6.17955,-0.8335 -8.40961,-1.1629 -2.23004,-0.3292 -6.8253,-0.8203 -10.21167,-1.0913 -3.38636,-0.271 -8.86012,-0.8872 -12.1639,-1.3694 -3.30377,-0.4822 -6.95351,-1.0074 -8.11053,-1.167 -1.157,-0.1598 -3.65736,-0.7776 -5.55635,-1.3731 -1.89897,-0.5954 -4.0498,-1.1645 -4.77959,-1.2645 -1.22274,-0.1677 -1.30766,-0.137 -1.0816,0.3913 0.91853,2.1468 2.32641,6.8381 2.70685,9.0197 0.56579,3.2445 0.56666,8.9013 0.002,13.0282 -0.23731,1.7346 -0.43652,5.181 -0.44268,7.6588 -0.0128,5.1292 -0.30337,6.6316 -1.37756,7.121 -1.11549,0.5082 -2.12929,-0.086 -2.51488,-1.4749 -0.4578,-1.6485 -0.39208,-7.7957 0.12792,-11.9647 0.24646,-1.976 0.44317,-4.3361 0.43713,-5.2446 -0.0123,-1.8436 0.18067,-1.9365 -1.87182,0.901 -1.27138,1.7576 -2.41971,2.2773 -6.0715,2.7475 -5.3194,0.6849 -7.07995,0.2828 -9.24304,-2.1115 -1.86238,-2.0614 -2.74587,-4.217 -3.19522,-7.7956 -0.15202,-1.2107 -0.36255,-2.2874 -0.46786,-2.3927 -0.48024,-0.4802 -0.75067,0.9585 -0.7549,4.0166 -0.006,3.7073 0.26013,4.8678 2.06208,9.0213 1.27854,2.9472 2.14106,7.2831 2.23663,11.2438 0.0483,2.0036 -0.002,2.1878 -0.79102,2.8664 -1.03605,0.8915 -1.18224,0.8949 -2.14928,0.05 z m 18.1593,-38.0303 c 0,-0.274 -4.64988,-2.0693 -6.08195,-2.3482 -0.73553,-0.1433 -0.82594,-0.072 -0.82594,0.6439 0,1.7973 0.32383,1.9666 3.76485,1.9666 1.72868,0 3.14304,-0.1181 3.14304,-0.2623 z"
       style="fill:#000000" />
  </g>
</svg>
