<?xml version="1.0" encoding="UTF-8" standalone="no"?>
<!-- Created with Inkscape (http://www.inkscape.org/) -->

<svg
   xmlns:dc="http://purl.org/dc/elements/1.1/"
   xmlns:cc="http://creativecommons.org/ns#"
   xmlns:rdf="http://www.w3.org/1999/02/22-rdf-syntax-ns#"
   xmlns:svg="http://www.w3.org/2000/svg"
   xmlns="http://www.w3.org/2000/svg"
   xmlns:sodipodi="http://sodipodi.sourceforge.net/DTD/sodipodi-0.dtd"
   xmlns:inkscape="http://www.inkscape.org/namespaces/inkscape"
   width="177.16534"
   height="106.29497"
   id="svg2"
   version="1.1"
   inkscape:version="0.91 r13725"
   sodipodi:docname="criss_cross.svg">
  <defs
     id="defs4" />
  <sodipodi:namedview
     id="base"
     pagecolor="#ffffff"
     bordercolor="#666666"
     borderopacity="1.0"
     inkscape:pageopacity="0.0"
     inkscape:pageshadow="2"
     inkscape:zoom="1.9110433"
     inkscape:cx="23.127454"
     inkscape:cy="70.417485"
     inkscape:document-units="cm"
     inkscape:current-layer="layer1"
     showgrid="false"
     fit-margin-top="0"
     fit-margin-left="0"
     fit-margin-right="0"
     fit-margin-bottom="0"
     inkscape:window-width="1330"
     inkscape:window-height="747"
     inkscape:window-x="36"
     inkscape:window-y="21"
     inkscape:window-maximized="1"
     units="cm" />
  <metadata
     id="metadata7">
    <rdf:RDF>
      <cc:Work
         rdf:about="">
        <dc:format>image/svg+xml</dc:format>
        <dc:type
           rdf:resource="http://purl.org/dc/dcmitype/StillImage" />
        <dc:title></dc:title>
      </cc:Work>
    </rdf:RDF>
  </metadata>
  <g
     inkscape:label="Layer 1"
     inkscape:groupmode="layer"
     id="layer1"
     transform="translate(-32.228633,-1064.9324)">
    <path
       inkscape:connector-curvature="0"
       id="path5115-6"
       d="m 123.1032,946.21546 c 0.96825,7.9561 -3.43,15.0288 -5.30527,22.4318 0.55562,2.8664 -2.78231,10.3696 2.92738,7.9522"
       style="color:#000000;clip-rule:nonzero;display:inline;overflow:visible;visibility:visible;opacity:1;isolation:auto;mix-blend-mode:normal;color-interpolation:sRGB;color-interpolation-filters:linearRGB;solid-color:#000000;solid-opacity:1;fill:none;fill-opacity:1;fill-rule:evenodd;stroke:#000000;stroke-width:1.38269389;stroke-linecap:butt;stroke-linejoin:miter;stroke-miterlimit:4;stroke-dasharray:none;stroke-dashoffset:0;stroke-opacity:1;color-rendering:auto;image-rendering:auto;shape-rendering:auto;text-rendering:auto;enable-background:accumulate" />
    <path
       style="color:#000000;clip-rule:nonzero;display:inline;overflow:visible;visibility:visible;isolation:auto;mix-blend-mode:normal;color-interpolation:sRGB;color-interpolation-filters:linearRGB;solid-color:#000000;solid-opacity:1;fill:#000000;fill-opacity:1;fill-rule:evenodd;stroke:#000000;stroke-width:1.37296259;stroke-linecap:butt;stroke-linejoin:miter;stroke-miterlimit:4;stroke-dasharray:none;stroke-dashoffset:0;stroke-opacity:1;color-rendering:auto;image-rendering:auto;shape-rendering:auto;text-rendering:auto;enable-background:accumulate"
       d="m 47.221685,1119.289 c -4.613564,0.798 -11.791614,-2.5519 -9.104933,-8.038 4.657625,-4.9661 10.147105,1.1859 10.92814,6.0384 0.09254,0.7833 -0.757962,3.0097 -1.823207,1.9996 z"
       id="path4664"
       inkscape:connector-curvature="0" />
    <path
       style="color:#000000;clip-rule:nonzero;display:inline;overflow:visible;visibility:visible;isolation:auto;mix-blend-mode:normal;color-interpolation:sRGB;color-interpolation-filters:linearRGB;solid-color:#000000;solid-opacity:1;fill:none;fill-opacity:1;fill-rule:evenodd;stroke:#000000;stroke-width:1.37296259;stroke-linecap:butt;stroke-linejoin:miter;stroke-miterlimit:4;stroke-dasharray:none;stroke-dashoffset:0;stroke-opacity:1;color-rendering:auto;image-rendering:auto;shape-rendering:auto;text-rendering:auto;enable-background:accumulate"
       d="m 49.334065,1118.6289 c 5.388114,1.3945 10.572246,3.6407 16.205777,3.9694 3.436031,0.1315 6.809905,0.8128 10.198975,1.3115"
       id="path4666"
       inkscape:connector-curvature="0" />
    <path
       style="color:#000000;clip-rule:nonzero;display:inline;overflow:visible;visibility:visible;isolation:auto;mix-blend-mode:normal;color-interpolation:sRGB;color-interpolation-filters:linearRGB;solid-color:#000000;solid-opacity:1;fill:none;fill-opacity:1;fill-rule:evenodd;stroke:#000000;stroke-width:1.37296259;stroke-linecap:butt;stroke-linejoin:miter;stroke-miterlimit:4;stroke-dasharray:none;stroke-dashoffset:0;stroke-opacity:1;color-rendering:auto;image-rendering:auto;shape-rendering:auto;text-rendering:auto;enable-background:accumulate"
       d="m 73.362389,1126.0222 c -0.405395,-5.5234 -2.228271,-10.8319 -2.295075,-16.3925 -2.446287,-5.7297 5.459773,0 7.972097,-0.3745 3.589532,-0.4025 8.071512,3.2884 10.798526,0.1406 1.904495,-1.6528 4.48815,-3.9778 5.704443,-5.4216"
       id="path4668"
       inkscape:connector-curvature="0" />
    <path
       style="color:#000000;clip-rule:nonzero;display:inline;overflow:visible;visibility:visible;isolation:auto;mix-blend-mode:normal;color-interpolation:sRGB;color-interpolation-filters:linearRGB;solid-color:#000000;solid-opacity:1;fill:none;fill-opacity:1;fill-rule:evenodd;stroke:#000000;stroke-width:1.37296259;stroke-linecap:butt;stroke-linejoin:miter;stroke-miterlimit:4;stroke-dasharray:none;stroke-dashoffset:0;stroke-opacity:1;color-rendering:auto;image-rendering:auto;shape-rendering:auto;text-rendering:auto;enable-background:accumulate"
       d="m 74.682627,1121.6654 c 4.345267,-4.5172 10.046719,-7.473 15.755177,-9.8963 4.865844,0.7581 9.793826,0.3433 14.660536,0.7605 4.33844,1.2387 7.50381,-3.8701 9.45546,-5.2548"
       id="path4670"
       inkscape:connector-curvature="0" />
    <path
       style="color:#000000;clip-rule:nonzero;display:inline;overflow:visible;visibility:visible;isolation:auto;mix-blend-mode:normal;color-interpolation:sRGB;color-interpolation-filters:linearRGB;solid-color:#000000;solid-opacity:1;fill:none;fill-opacity:1;fill-rule:evenodd;stroke:#000000;stroke-width:1.37296259;stroke-linecap:butt;stroke-linejoin:miter;stroke-miterlimit:4;stroke-dasharray:none;stroke-dashoffset:0;stroke-opacity:1;color-rendering:auto;image-rendering:auto;shape-rendering:auto;text-rendering:auto;enable-background:accumulate"
       d="m 55.539182,1113.744 c -3.050207,3.4249 -5.843714,7.0713 -9.233131,10.2135 -0.656823,0.5514 -0.868769,1.645 -1.724842,1.9327"
       id="path4672"
       inkscape:connector-curvature="0" />
    <path
       style="color:#000000;clip-rule:nonzero;display:inline;overflow:visible;visibility:visible;isolation:auto;mix-blend-mode:normal;color-interpolation:sRGB;color-interpolation-filters:linearRGB;solid-color:#000000;solid-opacity:1;fill:none;fill-opacity:1;fill-rule:evenodd;stroke:#000000;stroke-width:1.37296259;stroke-linecap:butt;stroke-linejoin:miter;stroke-miterlimit:4;stroke-dasharray:none;stroke-dashoffset:0;stroke-opacity:1;color-rendering:auto;image-rendering:auto;shape-rendering:auto;text-rendering:auto;enable-background:accumulate"
       d="m 56.463348,1114.2721 c 1.099114,-3.126 5.274789,-5.6164 6.655278,-7.4882 -5.241436,-0.6303 -10.502113,0.8766 -15.276406,2.9251 -0.869954,0.2777 -0.970339,1.3824 -1.808749,1.6586"
       id="path4674"
       inkscape:connector-curvature="0" />
    <path
       style="color:#000000;clip-rule:nonzero;display:inline;overflow:visible;visibility:visible;isolation:auto;mix-blend-mode:normal;color-interpolation:sRGB;color-interpolation-filters:linearRGB;solid-color:#000000;solid-opacity:1;fill:none;fill-opacity:1;fill-rule:evenodd;stroke:#000000;stroke-width:1.37296259;stroke-linecap:butt;stroke-linejoin:miter;stroke-miterlimit:4;stroke-dasharray:none;stroke-dashoffset:0;stroke-opacity:1;color-rendering:auto;image-rendering:auto;shape-rendering:auto;text-rendering:auto;enable-background:accumulate"
       d="m 43.921091,1127.0784 c -3.19899,1.7564 -8.29429,5.8183 -11.002483,4.6549 -0.120093,-4.6318 2.940779,-8.5827 5.325461,-12.3123 l 0.673974,-0.7749 0.646264,-0.5453"
       id="path4676"
       inkscape:connector-curvature="0" />
    <path
       style="color:#000000;clip-rule:nonzero;display:inline;overflow:visible;visibility:visible;isolation:auto;mix-blend-mode:normal;color-interpolation:sRGB;color-interpolation-filters:linearRGB;solid-color:#000000;solid-opacity:1;fill:none;fill-opacity:1;fill-rule:evenodd;stroke:#000000;stroke-width:1.37296259;stroke-linecap:butt;stroke-linejoin:miter;stroke-miterlimit:4;stroke-dasharray:none;stroke-dashoffset:0;stroke-opacity:1;color-rendering:auto;image-rendering:auto;shape-rendering:auto;text-rendering:auto;enable-background:accumulate"
       d="m 163.42336,1125.4845 c 0.37747,0.2401 0.45416,-0.2931 0.66011,-0.396 0.0394,-0.02 0.13203,-0.044 0.13203,0 0,0.088 -0.18858,-0.045 -0.26405,0 -0.89956,0.5397 -0.14563,0.5213 -1.18822,0 -0.0394,-0.02 -0.088,0 -0.13202,0 -0.088,0 -0.17603,0 -0.26404,0 -0.22005,0 -0.44008,0 -0.66013,0 -0.088,0 -0.17603,0 -0.26405,0 -0.044,0 -0.0927,0.02 -0.13202,0 -0.0557,-0.028 -0.073,-0.1124 -0.13203,-0.132 -0.12524,-0.042 -0.26403,0 -0.39606,0 -0.30805,0 -0.61611,0 -0.92416,0 -0.088,0 -0.18055,0.028 -0.26405,0 -0.059,-0.02 -0.0764,-0.1042 -0.13203,-0.1321 -0.0352,-0.018 -0.73241,0 -0.79213,0 -0.57211,0 -1.14421,0 -1.71632,0 -0.60101,0 -0.008,0.062 -0.39607,-0.132 -0.0296,-0.015 -0.49672,0 -0.52809,0 -0.39607,0 -0.79215,0 -1.18822,0 -0.79214,0 -1.58428,0 -2.37642,0 -0.30806,0 -0.61611,0 -0.92417,0 -0.13202,0 -0.26661,0.026 -0.39607,0 -0.0965,-0.019 -0.16756,-0.1127 -0.26405,-0.132 -0.12946,-0.026 -0.26405,0 -0.39607,0 -0.39607,0 -0.79214,0 -1.18821,0 -0.088,0 -0.17604,0 -0.26405,0 -0.088,0 -0.17866,0.021 -0.26405,0 -0.0955,-0.024 -0.16858,-0.1082 -0.26405,-0.132 -0.0854,-0.021 -0.17603,0 -0.26404,0 -0.088,0 -0.17604,0 -0.26405,0 -0.044,0 -0.0903,0.014 -0.13203,0 -0.0933,-0.031 -0.16858,-0.1082 -0.26404,-0.1321 -0.17078,-0.043 -0.35732,0.043 -0.5281,0 -0.0955,-0.024 -0.16858,-0.1081 -0.26405,-0.132 -0.0854,-0.021 -0.17603,0 -0.26404,0 -0.088,0 -0.17603,0 -0.26405,0 -0.26405,0 -0.5281,0 -0.79214,0 -0.088,0 -0.17603,0 -0.26405,0 -0.044,0 -0.0927,0.02 -0.13202,0 -0.0557,-0.028 -0.073,-0.1123 -0.13203,-0.132 -0.16509,-0.055 -0.75907,0.055 -0.92416,0 -0.0591,-0.02 -0.0764,-0.1042 -0.13203,-0.132 -0.0837,-0.042 -0.57435,0.043 -0.66012,0 -0.0557,-0.028 -0.0763,-0.1042 -0.13202,-0.1321 -0.0394,-0.02 -0.088,0 -0.13202,0 -0.0597,0 -0.75696,0.018 -0.79215,0 -0.0557,-0.028 -0.0764,-0.1042 -0.13202,-0.132 -0.0394,-0.02 -0.088,0 -0.13202,0 -0.044,0 -0.088,0 -0.13203,0 -0.22004,0 -0.44008,0 -0.66012,0 -0.044,0 -0.088,0 -0.13202,0 -0.044,0 -0.0927,0.02 -0.13202,0 -0.0557,-0.028 -0.0764,-0.1042 -0.13203,-0.132 -0.0402,-0.02 -0.33661,0 -0.39607,0 -0.35206,0 -0.70413,0 -1.05619,0 -0.0595,0 -0.35589,0.02 -0.39607,0 -0.0557,-0.028 -0.0764,-0.1042 -0.13202,-0.132 -0.0394,-0.02 -0.088,0 -0.13203,0 -0.044,0 -0.088,0 -0.13202,0 -0.30806,0 -0.61611,0 -0.92417,0 -0.044,0 -0.1009,-0.031 -0.13202,0 -0.0311,0.031 0,0.088 0,0.132"
       id="path4678"
       inkscape:connector-curvature="0" />
    <path
       style="color:#000000;clip-rule:nonzero;display:inline;overflow:visible;visibility:visible;isolation:auto;mix-blend-mode:normal;color-interpolation:sRGB;color-interpolation-filters:linearRGB;solid-color:#000000;solid-opacity:1;fill:none;fill-opacity:1;fill-rule:evenodd;stroke:#000000;stroke-width:1.37296259;stroke-linecap:butt;stroke-linejoin:miter;stroke-miterlimit:4;stroke-dasharray:none;stroke-dashoffset:0;stroke-opacity:1;color-rendering:auto;image-rendering:auto;shape-rendering:auto;text-rendering:auto;enable-background:accumulate"
       d="m 140.8473,1121.9199 c -0.044,0.176 -0.088,0.3521 -0.13203,0.5281 -0.044,0.044 -0.10419,0.076 -0.13202,0.132 -0.0197,0.039 0.0197,0.093 0,0.1321 -0.0278,0.056 -0.10419,0.076 -0.13203,0.132 -0.0197,0.039 0.0197,0.093 0,0.132 -0.0278,0.056 -0.10419,0.076 -0.13202,0.132 -0.0197,0.039 0.0197,0.093 0,0.132 -0.0278,0.056 -0.10419,0.076 -0.13202,0.1321 -0.0197,0.039 0.0197,0.093 0,0.132 -0.0278,0.056 -0.10419,0.076 -0.13203,0.132 -0.0197,0.039 0.0197,0.093 0,0.132 -0.0557,0.1114 -0.20838,0.1527 -0.26404,0.2641 -0.0197,0.039 0.0139,0.09 0,0.132 -0.0311,0.093 -0.10091,0.1707 -0.13203,0.2641 -0.0139,0.042 0.0197,0.093 0,0.132 -0.0278,0.056 -0.10419,0.076 -0.13202,0.132 -0.0197,0.039 0,0.088 0,0.132 -0.044,0.044 -0.10419,0.076 -0.13203,0.1321 -0.0197,0.039 0.0197,0.093 0,0.132 -0.0278,0.056 -0.10419,0.076 -0.13202,0.132 -0.0197,0.039 0.0197,0.093 0,0.132 -0.0278,0.056 -0.10419,0.076 -0.13202,0.132 -0.0197,0.039 0.0197,0.093 0,0.1321 -0.0557,0.1113 -0.20839,0.1527 -0.26405,0.264 -0.0197,0.039 0.0197,0.093 0,0.132 -0.0557,0.1114 -0.20838,0.1528 -0.26405,0.2641 -0.0197,0.039 0.0197,0.093 0,0.132 -0.0278,0.056 -0.11234,0.073 -0.13202,0.132 -0.0278,0.083 0,0.1761 0,0.2641 0,0.044 0.0197,0.093 0,0.132 -0.0278,0.056 -0.10419,0.076 -0.13203,0.132 -0.0197,0.039 0.0197,0.093 0,0.1321 -0.0278,0.056 -0.10419,0.076 -0.13202,0.132 -0.0394,0.079 0.0622,0.2018 0,0.264 -0.0311,0.031 -0.10091,-0.031 -0.13202,0 -0.0622,0.062 0.0394,0.1853 0,0.2641 -0.0278,0.056 -0.10419,0.076 -0.13203,0.132 -0.0394,0.079 0.0394,0.1853 0,0.264 -0.0278,0.056 -0.11234,0.073 -0.13202,0.1321 -0.0278,0.083 0.0278,0.1805 0,0.264 -0.0197,0.059 -0.10419,0.076 -0.13202,0.132 -0.0197,0.039 0.0197,0.093 0,0.1321 -0.0557,0.1113 -0.20839,0.1527 -0.26405,0.264 -0.0197,0.039 0,0.088 0,0.132 -0.044,0.044 -0.10419,0.076 -0.13203,0.1321 -0.0528,0.1056 0.0528,0.2904 0,0.396 -0.0278,0.056 -0.10419,0.076 -0.13202,0.132 -0.0197,0.039 0.0197,0.093 0,0.1321 -0.0278,0.056 -0.10419,0.076 -0.13202,0.132 -0.0262,0.052 0.027,0.3691 0,0.3961 -0.0311,0.031 -0.10091,-0.031 -0.13203,0 -0.004,0 0,0.364 0,0.396"
       id="path4680"
       inkscape:connector-curvature="0" />
    <path
       style="color:#000000;clip-rule:nonzero;display:inline;overflow:visible;visibility:visible;isolation:auto;mix-blend-mode:normal;color-interpolation:sRGB;color-interpolation-filters:linearRGB;solid-color:#000000;solid-opacity:1;fill:none;fill-opacity:1;fill-rule:evenodd;stroke:#000000;stroke-width:1.37296259;stroke-linecap:butt;stroke-linejoin:miter;stroke-miterlimit:4;stroke-dasharray:none;stroke-dashoffset:0;stroke-opacity:1;color-rendering:auto;image-rendering:auto;shape-rendering:auto;text-rendering:auto;enable-background:accumulate"
       d="m 136.88658,1131.8217 c 0.42519,-0.8961 1.21389,-1.4295 1.69605,-2.2418 0.65772,-0.4775 1.40484,-1.122 1.85531,-1.9329 0.38158,0.031 0.76935,-1.0999 1.38073,-1.5977 0.51779,-0.4651 1.2032,-1.1527 1.72829,-1.6073 0.5179,-0.7293 2.90467,-2.5024 3.31317,-3.3032 0.32729,-0.5191 4.19329,-3.0023 3.17739,-3.0501 -0.95101,0.01 -6.65491,2.9059 -7.60594,2.907 -0.98977,0.2225 -2.11373,0.3427 -3.16857,0.6601 -1.19858,0.1826 -2.27599,0.6965 -3.33994,1.1925 -1.02532,0.4028 -1.97444,0.9812 -3.00488,1.3814 -0.89826,0.5756 -1.93567,0.7432 -2.85641,1.2697 -0.32093,-0.052 -0.83031,0.3564 -0.9646,-0.1469"
       id="path4682"
       inkscape:connector-curvature="0"
       sodipodi:nodetypes="ccccccccccccc" />
    <path
       style="color:#000000;clip-rule:nonzero;display:inline;overflow:visible;visibility:visible;isolation:auto;mix-blend-mode:normal;color-interpolation:sRGB;color-interpolation-filters:linearRGB;solid-color:#000000;solid-opacity:1;fill:#000000;fill-opacity:1;fill-rule:evenodd;stroke:#000000;stroke-width:1.37296259;stroke-linecap:butt;stroke-linejoin:miter;stroke-miterlimit:4;stroke-dasharray:none;stroke-dashoffset:0;stroke-opacity:1;color-rendering:auto;image-rendering:auto;shape-rendering:auto;text-rendering:auto;enable-background:accumulate"
       d="m 131.47361,1126.2767 c -0.10584,0.5565 -0.45941,0.032 -0.66012,0.132 -0.0557,0.028 -0.0764,0.1042 -0.13202,0.132 -0.0787,0.039 -0.18533,-0.039 -0.26405,0 -0.0557,0.028 -0.0764,0.1042 -0.13203,0.1321 -0.0787,0.039 -0.20181,-0.062 -0.26404,0 -0.0311,0.031 0.0311,0.1009 0,0.132 -0.0622,0.062 -0.18533,-0.039 -0.26405,0 -0.0557,0.028 -0.0764,0.1042 -0.13202,0.132 -0.10562,0.053 -0.29046,-0.053 -0.39608,0 -0.0557,0.028 -0.0763,0.1042 -0.13202,0.132 -0.0402,0.02 -0.33661,0 -0.39607,0 -0.26405,0 -0.5281,0 -0.79214,0 -0.22004,0 -0.44008,0 -0.66012,0 -0.044,0 -0.10091,0.031 -0.13203,0 -0.0311,-0.031 0.0311,-0.1009 0,-0.132 -0.027,-0.027 -0.34372,0.026 -0.39607,0 -0.0557,-0.028 -0.0763,-0.1042 -0.13202,-0.132 -0.0787,-0.039 -0.20181,0.062 -0.26405,0 -0.0311,-0.031 0.0311,-0.1009 0,-0.132 -0.066,-0.066 -0.33006,0.066 -0.39607,0 -0.0311,-0.031 0.0311,-0.101 0,-0.1321 -0.0622,-0.062 -0.20181,0.062 -0.26405,0 -0.0311,-0.031 0.0311,-0.1009 0,-0.132 -0.0311,-0.031 -0.0927,0.02 -0.13202,0 -0.0557,-0.028 -0.0764,-0.1042 -0.13202,-0.132 -0.0394,-0.02 -0.10091,0.031 -0.13203,0 -0.0311,-0.031 0.0311,-0.1009 0,-0.132 -0.0311,-0.031 -0.1009,0.031 -0.13202,0 -0.0311,-0.031 0,-0.088 0,-0.1321 -0.044,0 -0.0927,0.02 -0.13203,0 -0.0557,-0.028 -0.088,-0.088 -0.13202,-0.132 -0.044,-0.044 -0.10419,-0.076 -0.13202,-0.132 -0.0197,-0.039 0.0197,-0.093 0,-0.132 -0.0792,-0.1585 -0.31686,-0.2377 -0.39607,-0.3961 -0.0197,-0.039 0.0311,-0.1009 0,-0.132 -0.0311,-0.031 -0.10091,0.031 -0.13203,0 -0.0311,-0.031 0.0197,-0.093 0,-0.132 -0.0792,-0.1585 -0.31686,-0.2377 -0.39607,-0.3961 -0.0197,-0.039 0.0197,-0.093 0,-0.132 -0.0278,-0.056 -0.10419,-0.076 -0.13202,-0.1321 -0.0528,-0.1056 0.0528,-0.2904 0,-0.396 -0.0278,-0.056 -0.10419,-0.076 -0.13203,-0.1321 -0.0197,-0.039 0,-0.088 0,-0.132 0,-0.044 0,-0.088 0,-0.132 0,-0.2641 0,-0.5281 0,-0.7921 0,-0.3521 0,-0.7042 0,-1.0562 0,-0.044 -0.0311,-0.1009 0,-0.1321 0.0311,-0.031 0.10091,0.031 0.13203,0 0.0409,-0.041 -0.0409,-0.6192 0,-0.6601 0.0311,-0.031 0.1009,0.031 0.13202,0 0.0622,-0.062 -0.0394,-0.1853 0,-0.264 0.0278,-0.056 0.10419,-0.076 0.13202,-0.1321 0.0394,-0.079 -0.0622,-0.2018 0,-0.264 0.0311,-0.031 0.10091,0.031 0.13203,0 0.0622,-0.062 -0.0622,-0.2018 0,-0.2641 0.0311,-0.031 0.1009,0.031 0.13202,0 0.0622,-0.062 -0.0622,-0.2018 0,-0.264 0.0311,-0.031 0.10091,0.031 0.13203,0 0.0622,-0.062 -0.0394,-0.1853 0,-0.2641 0.0278,-0.056 0.10419,-0.076 0.13202,-0.132 0.0197,-0.039 -0.0311,-0.1009 0,-0.132 0.0311,-0.031 0.1009,0.031 0.13202,0 0.0622,-0.062 -0.0622,-0.2018 0,-0.264 0.0311,-0.031 0.10091,0.031 0.13203,0 0.0311,-0.031 -0.0311,-0.1009 0,-0.1321 0.0311,-0.031 0.1009,0.031 0.13202,0 0.0622,-0.062 -0.0622,-0.2018 0,-0.264 0.0311,-0.031 0.10091,0.031 0.13202,0 0.0311,-0.031 -0.0311,-0.1009 0,-0.132 0.0311,-0.031 0.088,0 0.13203,0 0,-0.044 -0.0311,-0.1009 0,-0.1321 0.0311,-0.031 0.1009,0.031 0.13202,0 0.0311,-0.031 0,-0.088 0,-0.132 0.044,0 0.10091,0.031 0.13203,0 0.0311,-0.031 -0.0311,-0.1009 0,-0.132 0.0311,-0.031 0.0927,0.02 0.13202,0 0.0557,-0.028 0.0764,-0.1042 0.13202,-0.132 0.0787,-0.039 0.20182,0.062 0.26405,0 0.0311,-0.031 -0.0311,-0.1009 0,-0.1321 0.0622,-0.062 0.18532,0.039 0.26405,0 0.0557,-0.028 0.0764,-0.1041 0.13202,-0.132 0.10562,-0.053 0.29045,0.053 0.39607,0 0.0557,-0.028 0.0764,-0.1042 0.13203,-0.132 0.0716,-0.036 0.49197,0.036 0.52809,0 0.0311,-0.031 -0.0311,-0.1009 0,-0.132 0.0318,-0.032 0.49633,0.032 0.5281,0 0.0311,-0.031 -0.0311,-0.1009 0,-0.1321 0.0311,-0.031 0.088,0 0.13202,0 0.0918,0 0.61238,0.024 0.66012,0 0.0557,-0.028 0.0764,-0.1041 0.13202,-0.132 0.0341,-0.017 0.69857,0 0.79215,0 0.35206,0 0.70412,0 1.05619,0 0.0594,0 0.35589,-0.02 0.39607,0 0.0557,0.028 0.0764,0.1042 0.13202,0.132 0.083,0.042 0.44512,-0.041 0.5281,0 0.0557,0.028 0.0763,0.1042 0.13202,0.1321 0.0787,0.039 0.18532,-0.039 0.26405,0 0.0557,0.028 0.0764,0.1042 0.13202,0.132 0.0523,0.026 0.36908,-0.027 0.39607,0 0.0311,0.031 -0.0311,0.1009 0,0.132 0.066,0.066 0.33006,-0.066 0.39607,0 0.0311,0.031 -0.0311,0.1009 0,0.132 0.0318,0.032 0.49633,-0.032 0.5281,0 0.0311,0.031 -0.0311,0.101 0,0.1321 0.0622,0.062 0.18532,-0.039 0.26405,0 0.0557,0.028 0.0763,0.1042 0.13202,0.132 0.0394,0.02 0.0927,-0.02 0.13202,0 0.0557,0.028 0.0764,0.1042 0.13203,0.132 0.0394,0.02 0.0927,-0.02 0.13202,0 0.0557,0.028 0.0764,0.1042 0.13203,0.132 0.0394,0.02 0.0927,-0.02 0.13202,0 0.0557,0.028 0.0764,0.1042 0.13202,0.1321 0.0787,0.039 0.18533,-0.039 0.26405,0 0.0557,0.028 0.0764,0.1042 0.13202,0.132 0.0394,0.02 0.0927,-0.02 0.13203,0 0.0557,0.028 0.0764,0.1042 0.13202,0.132 0.0394,0.02 0.10091,-0.031 0.13203,0 0.0311,0.031 -0.0311,0.1009 0,0.132 0.0311,0.031 0.1009,-0.031 0.13202,0 0.0622,0.062 -0.0622,0.2018 0,0.2641 0.0311,0.031 0.088,0 0.13202,0 0,0.044 -0.0311,0.1009 0,0.132 0.0311,0.031 0.10091,-0.031 0.13203,0 0.027,0.027 -0.0262,0.3437 0,0.3961 0.0278,0.056 0.10419,0.076 0.13202,0.132 0.0197,0.039 0,0.088 0,0.132 0,0.044 0,0.088 0,0.132 0,0.2201 0,0.4401 0,0.6602 0,0.22 0,0.44 0,0.6601 0,0.044 0,0.088 0,0.132 0,0.044 0.0197,0.093 0,0.132 -0.0278,0.056 -0.10419,0.076 -0.13202,0.1321 -0.0358,0.072 0.0361,0.4919 0,0.5281 -0.0311,0.031 -0.10091,-0.031 -0.13203,0 -0.0622,0.062 0.0394,0.1853 0,0.264 -0.0278,0.056 -0.10419,0.076 -0.13202,0.132 -0.0394,0.079 0.0394,0.1854 0,0.2641 -0.0278,0.056 -0.10419,0.076 -0.13202,0.132 -0.0197,0.039 0.0311,0.1009 0,0.132 -0.0311,0.031 -0.10091,-0.031 -0.13203,0 -0.0311,0.031 0.0197,0.093 0,0.132 -0.0278,0.056 -0.10419,0.076 -0.13202,0.1321 -0.0394,0.079 0.0622,0.2018 0,0.264 -0.0311,0.031 -0.10091,-0.031 -0.13203,0 -0.0311,0.031 0.0311,0.1009 0,0.132 -0.0311,0.031 -0.1009,-0.031 -0.13202,0 -0.0311,0.031 0.0311,0.1009 0,0.1321 -0.0311,0.031 -0.10091,-0.031 -0.13202,0 -0.0311,0.031 0.0311,0.1009 0,0.132 -0.0311,0.031 -0.10091,-0.031 -0.13203,0 -0.0311,0.031 0.0311,0.1009 0,0.132 -0.0311,0.031 -0.1009,-0.031 -0.13202,0 -0.27316,0.2732 0.41743,-0.011 -0.13202,0.2641 -0.35207,0 0.044,-0.044 -0.13203,0.132 -0.0311,0.031 -0.1009,-0.031 -0.13202,0 -0.0311,0.031 0.0311,0.1009 0,0.132 -0.0311,0.031 -0.10091,-0.031 -0.13203,0 -0.0311,0.031 0.0311,0.1009 0,0.132 -0.0311,0.031 -0.1009,-0.031 -0.13202,0 -0.0311,0.031 0.0197,0.093 0,0.1321 -0.27473,0.5494 0.009,-0.1412 -0.26405,0.132 -0.0311,0.031 0.0311,0.1009 0,0.132 -0.0311,0.031 -0.088,0 -0.13202,0 0,0.044 0.0311,0.1009 0,0.132 -0.0311,0.031 -0.10091,-0.031 -0.13203,0 -0.0311,0.031 0.0311,0.1009 0,0.132 -0.0311,0.031 -0.1009,-0.031 -0.13202,0 -0.0311,0.031 0.0311,0.101 0,0.1321 -0.0622,0.062 -0.20181,-0.062 -0.26405,0 -0.0311,0.031 0.0311,0.1009 0,0.132 -0.35206,0 0.044,-0.044 -0.13202,0.132 -0.0311,0.031 -0.0927,-0.02 -0.13202,0 -0.0557,0.028 -0.0764,0.1042 -0.13203,0.132 -0.0394,0.02 -0.1009,-0.031 -0.13202,0 -0.0311,0.031 0.0311,0.101 0,0.1321 -0.0311,0.031 -0.0927,-0.02 -0.13203,0 -0.0557,0.028 -0.0764,0.1041 -0.13202,0.132 -0.0787,0.039 -0.20181,-0.062 -0.26405,0 -0.0311,0.031 0.0311,0.1009 0,0.132 -0.0311,0.031 -0.0893,0.011 -0.13202,0 -0.13501,-0.034 -0.26405,-0.088 -0.39607,-0.132 z"
       id="path4684"
       inkscape:connector-curvature="0" />
    <path
       style="color:#000000;clip-rule:nonzero;display:inline;overflow:visible;visibility:visible;isolation:auto;mix-blend-mode:normal;color-interpolation:sRGB;color-interpolation-filters:linearRGB;solid-color:#000000;solid-opacity:1;fill:none;fill-opacity:1;fill-rule:evenodd;stroke:#000000;stroke-width:1.37296259;stroke-linecap:butt;stroke-linejoin:miter;stroke-miterlimit:4;stroke-dasharray:none;stroke-dashoffset:0;stroke-opacity:1;color-rendering:auto;image-rendering:auto;shape-rendering:auto;text-rendering:auto;enable-background:accumulate"
       d="m 140.71527,1121.3918 c -0.37747,0.2401 -0.45416,-0.2931 -0.66012,-0.3961 -0.0394,-0.02 -0.0927,0.02 -0.13202,0 -0.0557,-0.028 -0.0764,-0.1042 -0.13202,-0.132 -0.0394,-0.02 -0.0927,0.02 -0.13203,0 -0.0557,-0.028 -0.0764,-0.1042 -0.13202,-0.132 -0.0394,-0.02 -0.10091,0.031 -0.13203,0 -0.0311,-0.031 0.0311,-0.1009 0,-0.132 -0.0311,-0.031 -0.0927,0.02 -0.13202,0 -0.0557,-0.028 -0.0764,-0.1042 -0.13202,-0.1321 -0.0394,-0.02 -0.10091,0.031 -0.13203,0 -0.0311,-0.031 0.0311,-0.1009 0,-0.132 -0.066,-0.066 -0.33006,0.066 -0.39607,0 -0.0311,-0.031 0.0311,-0.1009 0,-0.132 -0.0311,-0.031 -0.1009,0.031 -0.13202,0 -0.0311,-0.031 0.0311,-0.1009 0,-0.132 -0.0622,-0.062 -0.18533,0.039 -0.26405,0 -0.0557,-0.028 -0.0764,-0.1042 -0.13202,-0.1321 -0.0394,-0.02 -0.0927,0.02 -0.13203,0 -0.0557,-0.028 -0.0764,-0.1041 -0.13202,-0.132 -0.0394,-0.02 -0.10091,0.031 -0.13202,0 -0.0311,-0.031 0.0311,-0.1009 0,-0.132 -0.0622,-0.062 -0.18533,0.039 -0.26405,0 -0.0557,-0.028 -0.0764,-0.1042 -0.13203,-0.132 -0.0394,-0.02 -0.0927,0.02 -0.13202,0 -0.0557,-0.028 -0.0764,-0.1042 -0.13202,-0.1321 -0.0394,-0.02 -0.10091,0.031 -0.13203,0 -0.0311,-0.031 0.0311,-0.1008 0,-0.132 -0.0622,-0.062 -0.20181,0.062 -0.26404,0 -0.0311,-0.031 0.0311,-0.1009 0,-0.132 -0.0622,-0.062 -0.18533,0.039 -0.26405,0 -0.0557,-0.028 -0.0764,-0.1042 -0.13203,-0.132 -0.0394,-0.02 -0.0927,0.02 -0.13202,0 -0.0557,-0.028 -0.0764,-0.1042 -0.13202,-0.132 -0.0787,-0.039 -0.18533,0.039 -0.26405,0 -0.0557,-0.028 -0.0764,-0.1042 -0.13202,-0.1321 -0.0394,-0.02 -0.0927,0.02 -0.13203,0 -0.0557,-0.028 -0.0764,-0.1042 -0.13202,-0.132 -0.10562,-0.053 -0.29045,0.053 -0.39607,0 -0.0557,-0.028 -0.0764,-0.1042 -0.13203,-0.132 -0.0394,-0.02 -0.1009,0.031 -0.13202,0 -0.0311,-0.031 0.0311,-0.1009 0,-0.132 -0.0622,-0.062 -0.18533,0.039 -0.26405,0 -0.0557,-0.028 -0.0764,-0.1042 -0.13202,-0.1321 -0.0787,-0.039 -0.20181,0.062 -0.26405,0 -0.0311,-0.031 0.0311,-0.1009 0,-0.132 -0.0622,-0.062 -0.18532,0.039 -0.26405,0 -0.0557,-0.028 -0.0764,-0.1042 -0.13202,-0.132 -0.0394,-0.02 -0.0927,0.02 -0.13203,0 -0.0557,-0.028 -0.0763,-0.1042 -0.13202,-0.132 -0.0394,-0.02 -0.0927,0.02 -0.13202,0 -0.0557,-0.028 -0.0764,-0.1042 -0.13203,-0.1321 -0.0394,-0.02 -0.0927,0.02 -0.13202,0 -0.0557,-0.028 -0.0764,-0.1041 -0.13202,-0.132 -0.0394,-0.02 -0.10091,0.031 -0.13203,0 -0.0311,-0.031 0.0311,-0.1009 0,-0.132 -0.0311,-0.031 -0.1009,0.031 -0.13202,0 -0.0311,-0.031 0.0311,-0.1009 0,-0.132 -0.0878,-0.088 -0.17629,0.088 -0.26405,0 -0.0311,-0.031 0.0311,-0.1009 0,-0.1321 -0.0311,-0.031 -0.1009,0.031 -0.13202,0 -0.0311,-0.031 0.0311,-0.1009 0,-0.132 -0.0622,-0.062 -0.20181,0.062 -0.26405,0 -0.0311,-0.031 0.0311,-0.1009 0,-0.132 -0.0311,-0.031 -0.10091,0.031 -0.13202,0 -0.0311,-0.031 0.0311,-0.1009 0,-0.132 -0.0311,-0.031 -0.0927,0.02 -0.13203,0 -0.2788,-0.1394 0.0148,-0.1247 -0.26405,-0.2641 -0.0394,-0.02 -0.1009,0.031 -0.13202,0 -0.0311,-0.031 0.0311,-0.1009 0,-0.132 -0.0622,-0.062 -0.20181,0.062 -0.26405,0 -0.0311,-0.031 0.0311,-0.1009 0,-0.132 -0.0311,-0.031 -0.13202,0.044 -0.13202,0 0,-0.044 0.10091,-0.031 0.13202,0 0.0622,0.062 -0.0394,0.1853 0,0.264 0.0278,0.056 0.088,0.088 0.13203,0.1321 0.43787,0.4378 -0.0622,-0.1245 0.13202,0.264 0.0278,0.056 0.10419,0.076 0.13202,0.132 0.0197,0.039 -0.0197,0.093 0,0.132 0.0278,0.056 0.1042,0.076 0.13203,0.1321 0.0197,0.039 -0.0197,0.093 0,0.132 0.0278,0.056 0.10419,0.076 0.13202,0.132 0.0197,0.039 -0.0311,0.1009 0,0.132 0.0311,0.031 0.10091,-0.031 0.13203,0 0.0311,0.031 0,0.088 0,0.1321 0,0.3656 0.13202,-0.1016 0.13202,0.264 0,0.044 0,0.088 0,0.132 0,0.044 0.044,0.1321 0,0.1321 -0.044,0 0,-0.088 0,-0.1321"
       id="path4686"
       inkscape:connector-curvature="0" />
    <path
       style="color:#000000;clip-rule:nonzero;display:inline;overflow:visible;visibility:visible;isolation:auto;mix-blend-mode:normal;color-interpolation:sRGB;color-interpolation-filters:linearRGB;solid-color:#000000;solid-opacity:1;fill:none;fill-opacity:1;fill-rule:evenodd;stroke:#000000;stroke-width:1.37296259;stroke-linecap:butt;stroke-linejoin:miter;stroke-miterlimit:4;stroke-dasharray:none;stroke-dashoffset:0;stroke-opacity:1;color-rendering:auto;image-rendering:auto;shape-rendering:auto;text-rendering:auto;enable-background:accumulate"
       d="m 162.36717,1123.1081 c 0.21227,-0.9651 -1.45295,-0.2992 -1.51473,-1.5953 -1.07717,-1.8661 -2.72277,-3.3226 -3.74161,-5.2328 -1.30621,-1.9696 -2.3459,-4.0883 -3.65732,-6.063 -0.41208,-1.003 -1.75295,-2.8168 0.37809,-2.1604 1.51332,0.2345 3.04887,0.096 4.57486,0.1328 2.13167,-0.2872 4.31544,-0.059 6.46915,-0.132 1.90624,0.2715 3.87066,0.07 5.80329,0.132 1.86505,-0.025 3.66026,0.6463 5.5001,0.8626 1.97447,1.4045 3.84692,-0.3044 5.11991,-1.7877 1.73041,-1.4259 3.29421,-3.1957 4.37271,-5.1484 l 0.0885,0.059 0.10732,0.2057"
       id="path4688"
       inkscape:connector-curvature="0" />
    <path
       style="color:#000000;clip-rule:nonzero;display:inline;overflow:visible;visibility:visible;isolation:auto;mix-blend-mode:normal;color-interpolation:sRGB;color-interpolation-filters:linearRGB;solid-color:#000000;solid-opacity:1;fill:none;fill-opacity:1;fill-rule:evenodd;stroke:#000000;stroke-width:1.37296259;stroke-linecap:butt;stroke-linejoin:miter;stroke-miterlimit:4;stroke-dasharray:none;stroke-dashoffset:0;stroke-opacity:1;color-rendering:auto;image-rendering:auto;shape-rendering:auto;text-rendering:auto;enable-background:accumulate"
       d="m 162.36717,1131.2936 c 0.088,-0.176 0.14595,-0.3707 0.26404,-0.5281 0.0264,-0.035 0.088,0 0.13202,0 0.044,-0.044 0.10419,-0.076 0.13203,-0.132 0.0197,-0.039 -0.0197,-0.093 0,-0.1321 0.0353,-0.071 0.32657,-0.3265 0.39607,-0.396 0.17603,-0.1761 0.35206,-0.3521 0.52809,-0.5281 0.088,-0.088 0.16048,-0.195 0.26405,-0.2641 0.0819,-0.055 0.18218,-0.077 0.26405,-0.132 0.10357,-0.069 0.17603,-0.176 0.26405,-0.264 0.22004,-0.2201 0.44008,-0.4401 0.66012,-0.6602 0.088,-0.088 0.16048,-0.195 0.26405,-0.264 0.0819,-0.055 0.18216,-0.077 0.26405,-0.132 0.19426,-0.1295 0.33382,-0.3986 0.52808,-0.5281 0.0819,-0.055 0.18218,-0.078 0.26405,-0.132 0.0518,-0.035 0.0802,-0.098 0.13203,-0.1321 0.95725,-0.4786 -0.20874,0.1392 0.39606,-0.264 0.0819,-0.055 0.18218,-0.077 0.26405,-0.132 0.0518,-0.035 0.0803,-0.098 0.13203,-0.1321 0.1014,-0.068 0.4267,-0.1964 0.5281,-0.264 0.0518,-0.034 0.0802,-0.097 0.13202,-0.132 0.95725,-0.4787 -0.20875,0.1391 0.39607,-0.2641 0.16376,-0.1092 0.36434,-0.1549 0.5281,-0.264 0.0518,-0.034 0.0802,-0.098 0.13202,-0.1321 0.30832,-0.2055 0.74786,-0.3225 1.05619,-0.528 0.0518,-0.035 0.0802,-0.098 0.13203,-0.1321 0.0819,-0.055 0.18531,-0.073 0.26405,-0.132 0.0996,-0.075 0.16446,-0.1894 0.26404,-0.264 0.15744,-0.1181 0.37065,-0.146 0.52809,-0.2641 0.0996,-0.075 0.16447,-0.1894 0.26404,-0.264 0.15745,-0.1181 0.37066,-0.146 0.5281,-0.2641 0.0996,-0.075 0.16448,-0.1894 0.26405,-0.264 0.0787,-0.059 0.18533,-0.073 0.26405,-0.1321 0.0996,-0.075 0.16447,-0.1893 0.26404,-0.264 0.0787,-0.059 0.18533,-0.073 0.26405,-0.132 0.0996,-0.075 0.16448,-0.1894 0.26405,-0.2641 0.15745,-0.1181 0.37065,-0.1459 0.5281,-0.264 0.14937,-0.112 0.24072,-0.2925 0.39607,-0.3961 0.0819,-0.055 0.18532,-0.073 0.26405,-0.132 0.66725,-0.5005 -0.11105,-0.077 0.5281,-0.3961 0.95725,-0.4786 -0.20876,0.1392 0.39606,-0.264 0.0819,-0.055 0.18218,-0.077 0.26405,-0.1321 0.12018,-0.08 0.27906,-0.3375 0.39608,-0.396 0.0394,-0.02 0.088,0 0.13202,0 0.044,-0.044 0.0764,-0.1042 0.13203,-0.1321 0.0394,-0.02 0.0926,0.02 0.13201,0 0.0611,-0.03 0.45045,-0.4504 0.5281,-0.5281 0.044,-0.044 0.0764,-0.1041 0.13202,-0.132 0.0394,-0.02 0.10091,0.031 0.13203,0 0.0311,-0.031 -0.044,-0.132 0,-0.132 0.044,0 -0.0311,0.1009 0,0.132 0.0311,0.031 0.10091,-0.031 0.13201,0 0.0311,0.031 -0.0311,0.1009 0,0.132 0.0311,0.031 0.10091,-0.031 0.13203,0 0.0311,0.031 -0.0197,0.093 0,0.1321 0.0278,0.056 0.088,0.088 0.13202,0.132 0.044,0.044 0.0764,0.1042 0.13203,0.132 0.0394,0.02 0.0927,-0.02 0.13202,0 0.0557,0.028 0.088,0.088 0.13203,0.132 0.044,0.044 0.0975,0.08 0.13202,0.1321 0.0546,0.082 0.0624,0.1944 0.13203,0.264 0.0696,0.07 0.18216,0.077 0.26405,0.132 0.0518,0.035 0.088,0.088 0.13201,0.1321 0.088,0.044 0.18218,0.077 0.26405,0.132 0.15536,0.1036 0.2467,0.284 0.39608,0.3961 0.15745,0.118 0.36434,0.1548 0.5281,0.264 0.15534,0.1036 0.2467,0.2841 0.39606,0.3961 0.0787,0.059 0.18218,0.077 0.26405,0.132 0.16807,0.1121 0.36542,0.4061 0.52809,0.5281 0.0787,0.059 0.18218,0.077 0.26405,0.132 0.0518,0.034 0.0803,0.098 0.13203,0.132 0.24373,0.1625 0.54841,0.2336 0.79213,0.3961 0.0518,0.034 0.0803,0.098 0.13203,0.132 0.21985,0.1466 0.5882,0.2431 0.79215,0.3961 0.0996,0.075 0.16446,0.1894 0.26404,0.2641 0.0787,0.059 0.18217,0.077 0.26405,0.132 0.0518,0.034 0.0802,0.097 0.13202,0.132 0.0819,0.055 0.18533,0.073 0.26405,0.132 0.14937,0.1121 0.24072,0.2925 0.39608,0.3961 0.0819,0.055 0.19446,0.062 0.26404,0.132 0.0696,0.07 0.0774,0.1822 0.13202,0.2641 0.043,0.064 0.46362,0.4851 0.5281,0.5281 0.0819,0.054 0.19446,0.062 0.26405,0.132 0.0696,0.07 0.0774,0.1822 0.13203,0.264 0.0361,0.054 0.34183,0.3599 0.39606,0.3961 0.95725,0.4786 -0.20874,-0.1392 0.39608,0.2641 0.0819,0.054 0.18216,0.077 0.26405,0.132 0.15232,0.1015 0.24372,0.2945 0.39606,0.396 0.0819,0.055 0.18218,0.077 0.26405,0.1321 0.30331,0.2022 -0.0566,0.075 0.26405,0.396 0.0696,0.07 0.18216,0.077 0.26405,0.1321 0.10357,0.069 0.16047,0.195 0.26404,0.264 0.0819,0.055 0.19447,0.062 0.26405,0.132 0.0696,0.07 0.0774,0.1822 0.13202,0.2641 0.0345,0.052 0.0975,0.08 0.13203,0.132 0.0546,0.082 0.0624,0.1945 0.13202,0.2641 0.0696,0.069 0.18217,0.077 0.26404,0.132 0.0706,0.047 0.51834,0.5151 0.5281,0.5281 0.059,0.079 0.0624,0.1944 0.13203,0.264 0.0696,0.07 0.19446,0.062 0.26405,0.132 0.15984,0.3198 0.0624,0.1945 0.26405,0.3961 0.22003,0.2201 0.44008,0.4401 0.66011,0.6601 0.10313,0.1032 0.32012,0.2822 0.39608,0.3961 0.0546,0.082 0.0774,0.1822 0.13201,0.2641 0.0691,0.1035 0.17604,0.176 0.26405,0.264 0.17603,0.176 0.35207,0.3521 0.5281,0.5281 0.0695,0.07 0.32556,0.3608 0.39606,0.3961 0.0394,0.02 0.0927,-0.02 0.13203,0 0.0557,0.028 0.088,0.088 0.13202,0.132 0.0777,0.078 0.46696,0.4975 0.5281,0.5281 0.0394,0.02 0.0927,-0.02 0.13203,0 0.54945,0.2747 -0.14114,-0.01 0.13202,0.264 0.0311,0.031 0.088,0 0.13203,0 0.044,0 0.088,0 0.13201,0 0.5281,0 1.05619,0 1.58429,0 0.0944,0 0.72456,0.023 0.79214,0 0.059,-0.02 0.073,-0.1123 0.13203,-0.132 0.0835,-0.028 0.17604,0 0.26405,0 0.22004,0 0.44008,0 0.66011,0 0.088,0 0.17774,0.017 0.26405,0 0.79929,-0.1598 0.0547,-0.132 0.66012,-0.132 0.79214,0 1.58428,0 2.37643,0 0.26404,0 0.52809,0 0.79214,0 0.088,0 0.17603,0 0.26405,0 0.088,0 0.17865,0.021 0.26405,0 0.0955,-0.024 0.17069,-0.1009 0.26404,-0.132 0.0417,-0.014 0.088,0 0.13203,0 0.088,0 0.17602,0 0.26404,0 0.088,0 0.17867,0.021 0.26405,0 0.0955,-0.024 0.16859,-0.1082 0.26404,-0.1321 0.0876,-0.022 0.68015,0 0.79215,0 0.35206,0 0.70413,0 1.05619,0 0.069,0 0.49338,0.017 0.52809,0 0.0557,-0.028 0.0764,-0.1042 0.13204,-0.132 0.0401,-0.02 0.43692,0 0.52809,0 0.39607,0 0.79214,0 1.18821,0 0.30961,0 -0.0622,-0.031 0.26405,0.132 0.0394,0.02 0.088,0 0.13202,0 0.044,0 0.088,0 0.13203,0 0.044,0 0.088,0 0.13201,0 0.044,0 0.13203,-0.044 0.13203,0 0,0.062 -0.088,0.088 -0.13203,0.1321 -0.044,0.044 -0.088,0.088 -0.13201,0.132"
       id="path4690"
       inkscape:connector-curvature="0" />
  </g>
</svg>
