<?xml version="1.0" encoding="UTF-8" standalone="no"?>
<!-- Created with Inkscape (http://www.inkscape.org/) -->

<svg
   xmlns:dc="http://purl.org/dc/elements/1.1/"
   xmlns:cc="http://creativecommons.org/ns#"
   xmlns:rdf="http://www.w3.org/1999/02/22-rdf-syntax-ns#"
   xmlns:svg="http://www.w3.org/2000/svg"
   xmlns="http://www.w3.org/2000/svg"
   xmlns:sodipodi="http://sodipodi.sourceforge.net/DTD/sodipodi-0.dtd"
   xmlns:inkscape="http://www.inkscape.org/namespaces/inkscape"
   width="177.16534"
   height="106.29497"
   id="svg2"
   version="1.1"
   inkscape:version="0.91 r13725"
   sodipodi:docname="crunch.svg">
  <defs
     id="defs4" />
  <sodipodi:namedview
     id="base"
     pagecolor="#ffffff"
     bordercolor="#666666"
     borderopacity="1.0"
     inkscape:pageopacity="0.0"
     inkscape:pageshadow="2"
     inkscape:zoom="2.7026234"
     inkscape:cx="116.52051"
     inkscape:cy="96.293413"
     inkscape:document-units="cm"
     inkscape:current-layer="layer1"
     showgrid="false"
     fit-margin-top="0"
     fit-margin-left="0"
     fit-margin-right="0"
     fit-margin-bottom="0"
     inkscape:window-width="1330"
     inkscape:window-height="747"
     inkscape:window-x="36"
     inkscape:window-y="21"
     inkscape:window-maximized="1"
     units="cm" />
  <metadata
     id="metadata7">
    <rdf:RDF>
      <cc:Work
         rdf:about="">
        <dc:format>image/svg+xml</dc:format>
        <dc:type
           rdf:resource="http://purl.org/dc/dcmitype/StillImage" />
        <dc:title></dc:title>
      </cc:Work>
    </rdf:RDF>
  </metadata>
  <g
     inkscape:label="Layer 1"
     inkscape:groupmode="layer"
     id="layer1"
     transform="translate(-32.228633,-1064.9324)">
    <path
       inkscape:connector-curvature="0"
       id="path5115"
       d="m 111.85688,962.12555 c 0.96825,7.95603 -3.43,15.02874 -5.30527,22.43173 0.55562,2.86645 -2.78231,10.36958 2.92738,7.9522"
       style="color:#000000;clip-rule:nonzero;display:inline;overflow:visible;visibility:visible;opacity:1;isolation:auto;mix-blend-mode:normal;color-interpolation:sRGB;color-interpolation-filters:linearRGB;solid-color:#000000;solid-opacity:1;fill:none;fill-opacity:1;fill-rule:evenodd;stroke:#000000;stroke-width:1.38269389;stroke-linecap:butt;stroke-linejoin:miter;stroke-miterlimit:4;stroke-dasharray:none;stroke-dashoffset:0;stroke-opacity:1;color-rendering:auto;image-rendering:auto;shape-rendering:auto;text-rendering:auto;enable-background:accumulate" />
    <path
       style="fill:none;fill-rule:evenodd;stroke:#000000;stroke-width:1px;stroke-linecap:butt;stroke-linejoin:miter;stroke-opacity:1"
       d="m 714.52866,580.69003 c 0,1.97339 -0.38701,3.9851 0,5.92017 0.25698,1.28491 4.0232,2.70993 4.44013,2.96009 1.5253,0.91518 2.84913,2.16459 4.44013,2.96009 1.3954,0.6977 3.00617,0.86549 4.44013,1.48004 6.80257,2.91539 5.67054,3.62522 13.32039,5.92018 2.4095,0.72284 4.93348,0.98669 7.40022,1.48004 2.96009,0.98669 5.89803,2.04248 8.88026,2.96009 3.4328,1.05624 6.90687,1.97339 10.36031,2.96008 3.45343,0.9867 6.8484,2.20754 10.3603,2.96009 3.41106,0.73094 6.91237,0.94959 10.3603,1.48004 0.0515,0.008 17.75258,2.95943 17.76053,2.96009 25.9438,0 -6.38573,-0.58052 16.28047,1.48004 2.94793,0.268 5.9304,-0.24582 8.88026,0 2.99056,0.24922 5.89167,1.20836 8.88026,1.48005 2.45661,0.22332 4.94572,-0.24545 7.40022,0 2.50311,0.25031 4.90002,1.20224 7.40022,1.48004 1.96132,0.21792 3.94678,0 5.92017,0 7.40022,0 14.80044,0 22.20065,0 4.44014,0 8.88027,0 13.3204,0 1.97339,0 3.96202,0.24477 5.92017,0 4.03683,-0.5046 7.80351,-2.45548 11.84035,-2.96009 1.95815,-0.24477 3.96202,0.24477 5.92017,0 2.97348,-0.37168 7.41127,-1.97707 10.36031,-2.96008 1.48004,-0.49335 2.90125,-1.22357 4.44013,-1.48005 1.4599,-0.24331 2.98022,0.24332 4.44013,0 3.07775,-0.51296 5.82064,-2.34816 8.88026,-2.96008 1.4513,-0.29026 2.96008,0 4.44013,0"
       id="path4352"
       inkscape:connector-curvature="0" />
    <path
       style="color:#000000;clip-rule:nonzero;display:inline;overflow:visible;visibility:visible;isolation:auto;mix-blend-mode:normal;color-interpolation:sRGB;color-interpolation-filters:linearRGB;solid-color:#000000;solid-opacity:1;fill:#000000;fill-opacity:1;fill-rule:evenodd;stroke:#000000;stroke-width:1.37290037;stroke-linecap:butt;stroke-linejoin:miter;stroke-miterlimit:4;stroke-dasharray:none;stroke-dashoffset:0;stroke-opacity:1;color-rendering:auto;image-rendering:auto;shape-rendering:auto;text-rendering:auto;enable-background:accumulate"
       d="m 45.971093,1113.3047 c 0.114389,-0.2288 0.248173,-0.4488 0.343167,-0.6863 0.04248,-0.1062 0,-0.2288 0,-0.3432 0,-0.286 0,-0.5719 0,-0.8579 0,-0.057 0,-0.1144 0,-0.1716 0,-0.057 0.04044,-0.1311 0,-0.1716 -0.04044,-0.04 -0.131141,0.041 -0.171583,0 -0.04044,-0.04 0.04044,-0.1311 0,-0.1716 -0.04044,-0.04 -0.120428,0.026 -0.171584,0 -0.07235,-0.036 -0.09924,-0.1354 -0.171585,-0.1715 -0.05116,-0.026 -0.120427,0.025 -0.171583,0 -0.07235,-0.036 -0.09924,-0.1355 -0.171584,-0.1716 -0.05116,-0.026 -0.120427,0.026 -0.171584,0 -0.07235,-0.036 -0.09924,-0.1354 -0.171584,-0.1716 -0.05116,-0.026 -0.120427,0.026 -0.171583,0 -0.07235,-0.036 -0.09924,-0.1354 -0.171585,-0.1716 -0.102313,-0.051 -0.262283,0.081 -0.343167,0 -0.04044,-0.04 0.04044,-0.1311 0,-0.1716 -0.08088,-0.081 -0.262283,0.081 -0.343168,0 -0.04044,-0.04 0.04044,-0.1311 0,-0.1716 -0.04044,-0.04 -0.120428,0.026 -0.171584,0 -0.07235,-0.036 -0.09924,-0.1354 -0.171584,-0.1716 -0.137267,-0.069 -0.377484,0.069 -0.514752,0 -0.07235,-0.036 -0.09924,-0.1354 -0.171583,-0.1715 -0.06205,-0.031 -0.738577,0 -0.85792,0 -0.0572,0 -0.131141,0.04 -0.171584,0 -0.04044,-0.041 0.04044,-0.1312 0,-0.1716 -0.03508,-0.035 -0.446721,0.034 -0.514752,0 -0.07235,-0.036 -0.09924,-0.1354 -0.171584,-0.1716 -0.04512,-0.023 -0.59661,0 -0.686335,0 -0.400362,0 -0.800725,0 -1.201087,0 -0.0572,0 -0.131142,-0.04 -0.171585,0 -0.04044,0.04 0.04044,0.1311 0,0.1716 -0.04695,0.047 -0.593254,-0.047 -0.686335,0 -0.07235,0.036 -0.09924,0.1354 -0.171584,0.1716 -0.107844,0.054 -0.578492,-0.054 -0.686336,0 -0.07235,0.036 -0.09924,0.1354 -0.171584,0.1715 -0.137267,0.069 -0.377485,-0.069 -0.514751,0 -0.07235,0.036 -0.09924,0.1355 -0.171585,0.1716 -0.102312,0.051 -0.262281,-0.081 -0.343167,0 -0.04044,0.041 0.04044,0.1312 0,0.1716 -0.04044,0.041 -0.131142,-0.04 -0.171585,0 -0.04044,0.041 0.04044,0.1312 0,0.1716 -0.04044,0.04 -0.13114,-0.04 -0.171583,0 -0.04044,0.04 0.04044,0.1311 0,0.1716 -0.04044,0.04 -0.131141,-0.041 -0.171584,0 0,0.4575 0.0572,-0.057 -0.171584,0.1716 -0.04044,0.04 0.04044,0.1311 0,0.1716 -0.04044,0.04 -0.131141,-0.041 -0.171584,0 -0.04044,0.04 0.04044,0.1311 0,0.1715 -0.04044,0.041 -0.13114,-0.04 -0.171583,0 -0.08089,0.081 0.08089,0.2623 0,0.3432 -0.04044,0.04 -0.131142,-0.04 -0.171585,0 -0.04044,0.04 0.04044,0.1311 0,0.1716 -0.04044,0.04 -0.131141,-0.041 -0.171583,0 -0.04044,0.04 0.02558,0.1204 0,0.1716 -0.03617,0.072 -0.135411,0.099 -0.171584,0.1716 -0.02558,0.051 0.04044,0.1311 0,0.1715 -0.04044,0.041 -0.131142,-0.04 -0.171585,0 -0.08088,0.081 0.05116,0.2409 0,0.3432 -0.03617,0.072 -0.13541,0.099 -0.171583,0.1716 -0.03402,0.068 0.03508,0.4797 0,0.5147 -0.04044,0.041 -0.131141,-0.04 -0.171584,0 -0.08579,0.086 0.08579,0.429 0,0.5148 -0.04044,0.04 -0.131142,-0.04 -0.171584,0 -0.04129,0.041 0.04129,0.645 0,0.6863 -0.04044,0.04 -0.131141,-0.04 -0.171584,0 -0.05313,0.053 0.05313,0.8048 0,0.858 -0.04044,0.04 -0.131141,-0.041 -0.171583,0 -0.04044,0.04 0,0.1143 0,0.1715 0,0.057 0,0.1144 0,0.1716 0,0.4024 0.04044,-0.081 -0.171585,0.3432 -0.03102,0.062 0,0.7386 0,0.8579 0,0.057 0,0.1144 0,0.1716 0,0.057 -0.04044,0.1311 0,0.1716 0.04044,0.04 0.131142,-0.04 0.171585,0 0.08089,0.081 -0.08089,0.2623 0,0.3431 0.04044,0.041 0.13114,-0.04 0.171583,0 0.355013,0.3551 -0.542507,-0.014 0.171584,0.3432 0.05116,0.026 0.131142,-0.04 0.171584,0 0.08089,0.081 -0.05116,0.2409 0,0.3432 0.357046,0.7141 -0.01185,-0.1835 0.343167,0.1716 0.04044,0.04 -0.04044,0.1311 0,0.1715 0.04044,0.04 0.131142,-0.04 0.171585,0 0.04044,0.04 -0.04044,0.1312 0,0.1716 0.04044,0.041 0.131141,-0.04 0.171584,0 0.04044,0.041 -0.04044,0.1312 0,0.1716 0.04044,0.04 0.120427,-0.026 0.171583,0 0.144693,0.072 0.198476,0.2708 0.343168,0.3432 0.05116,0.026 0.131141,-0.041 0.171584,0 0.04044,0.04 -0.04044,0.1311 0,0.1716 0.04044,0.04 0.131142,-0.041 0.171584,0 0.04044,0.04 -0.04044,0.1311 0,0.1715 0.08089,0.081 0.262283,-0.081 0.343167,0 0.04044,0.041 -0.04044,0.1312 0,0.1716 0.08089,0.081 0.262283,-0.081 0.343169,0 0.04044,0.041 -0.04044,0.1312 0,0.1716 0.04129,0.041 0.645047,-0.041 0.686335,0 0.04044,0.041 -0.04044,0.1312 0,0.1716 0.04044,0.04 0.11439,0 0.171584,0 0.343169,0 0.686336,0 1.029504,0 0.0572,0 0.120427,0.026 0.171583,0 0.07235,-0.036 0.09924,-0.1354 0.171585,-0.1716 0.118518,-0.059 0.79769,0.06 0.857919,0 0.04044,-0.04 -0.04044,-0.1311 0,-0.1716 0.04044,-0.04 0.11439,0 0.171584,0 0.119344,0 0.795869,0.031 0.857919,0 0.07235,-0.036 0.09924,-0.1354 0.171585,-0.1716 0.102312,-0.051 0.240855,0.051 0.343167,0 0.07235,-0.036 0.09924,-0.1354 0.171584,-0.1715 0.102312,-0.051 0.262282,0.081 0.343167,0 0.04044,-0.041 -0.04044,-0.1312 0,-0.1716 0.08089,-0.081 0.240855,0.051 0.343169,0 0.07235,-0.036 0.09924,-0.1354 0.171583,-0.1716 0.102313,-0.051 0.240855,0.051 0.343168,0 0.07235,-0.036 0.09924,-0.1354 0.171584,-0.1716 0.102313,-0.051 0.262283,0.081 0.343168,0 0.04044,-0.04 -0.04044,-0.1311 0,-0.1716 0.04044,-0.04 0.120428,0.026 0.171584,0 0.144693,-0.072 0.198476,-0.2708 0.343168,-0.3431 0.05116,-0.026 0.120427,0.026 0.171584,0 0.144692,-0.072 0.198475,-0.2709 0.343167,-0.3432 0.05116,-0.026 0.131142,0.04 0.171585,0 0.04044,-0.041 -0.04044,-0.1311 0,-0.1716 0.04044,-0.04 0.120428,0.026 0.171584,0 0.04556,-0.023 0.491973,-0.4692 0.514751,-0.5147 0.02558,-0.051 -0.04044,-0.1312 0,-0.1716 0.04044,-0.04 0.120428,0.026 0.171584,0 0.714091,-0.3571 -0.18343,0.012 0.171584,-0.3432 0.04044,-0.04 0.131141,0.04 0.171584,0 0.08089,-0.081 -0.05116,-0.2408 0,-0.3432 0.03617,-0.072 0.13541,-0.099 0.171583,-0.1715 0.03402,-0.068 -0.03508,-0.4797 0,-0.5148 0.04044,-0.04 0.131142,0.04 0.171585,0 0.04044,-0.04 0,-0.1144 0,-0.1716 0,-0.057 0,-0.1144 0,-0.1716 0,-0.6291 0,-1.2582 0,-1.8874 z"
       id="path4176"
       inkscape:connector-curvature="0" />
    <path
       style="color:#000000;clip-rule:nonzero;display:inline;overflow:visible;visibility:visible;isolation:auto;mix-blend-mode:normal;color-interpolation:sRGB;color-interpolation-filters:linearRGB;solid-color:#000000;solid-opacity:1;fill:none;fill-opacity:1;fill-rule:evenodd;stroke:#000000;stroke-width:1.37290037;stroke-linecap:butt;stroke-linejoin:miter;stroke-miterlimit:4;stroke-dasharray:none;stroke-dashoffset:0;stroke-opacity:1;color-rendering:auto;image-rendering:auto;shape-rendering:auto;text-rendering:auto;enable-background:accumulate"
       d="m 46.31426,1115.1921 c -0.04906,0.8089 0.655706,-0.2022 0.85792,0 0.04044,0.041 -0.04044,0.1312 0,0.1716 0.04044,0.04 0.11439,0 0.171584,0 0.05719,0 0.114389,0 0.171584,0 0.285973,0 0.571947,0 0.857919,0 0.0572,0 0.11439,0 0.171585,0 0.05719,0 0.120427,-0.026 0.171583,0 0.07235,0.036 0.09924,0.1354 0.171584,0.1716 0.05116,0.026 0.114389,0 0.171584,0 0.0572,0 0.114389,0 0.171584,0 0.343168,0 0.686336,0 1.029503,0 0.0572,0 0.11439,0 0.171585,0 0.05719,0 0.120427,-0.026 0.171583,0 0.07235,0.036 0.09924,0.1354 0.171584,0.1716 0.05222,0.026 0.437477,0 0.514751,0 0.457557,0 0.915115,0 1.372672,0 0.457557,0 0.915114,0 1.372672,0 0.09587,0 0.756662,-0.034 0.857918,0 0.121329,0.04 0.22184,0.1311 0.343168,0.1716 0.107995,0.036 0.703261,0 0.857921,0 0.686335,0 1.372671,0 2.059006,0 0.125957,0 0.969685,-0.03 1.029504,0 0.07235,0.036 0.09924,0.1354 0.171583,0.1716 0.05116,0.025 0.11439,0 0.171585,0 0.05719,0 0.114389,0 0.171583,0 0.343168,0 0.686336,0 1.029504,0 0.114389,0 0.232194,-0.028 0.343168,0 0.124072,0.031 0.221839,0.1311 0.343168,0.1715 0.09991,0.033 0.911441,0 1.029503,0 0.629141,0 1.258282,0 1.887423,0 1.658644,0 3.317289,0 4.975933,0 0.571947,0 1.143893,0 1.715839,0 0.04077,0 0.647879,-0.019 0.686336,0 0.07235,0.036 0.09924,0.1355 0.171584,0.1716 0.06205,0.031 0.738576,0 0.857919,0 0.0572,0 0.131142,0.041 0.171584,0 0.04044,-0.04 -0.04044,-0.1311 0,-0.1716 0.0078,-0.01 0.777018,0 0.85792,0 0.285973,0 0.571946,0 0.857919,0 0.0572,0 0.131142,-0.04 0.171584,0 0.04044,0.04 0,0.1144 0,0.1716"
       id="path4178"
       inkscape:connector-curvature="0" />
    <path
       style="color:#000000;clip-rule:nonzero;display:inline;overflow:visible;visibility:visible;isolation:auto;mix-blend-mode:normal;color-interpolation:sRGB;color-interpolation-filters:linearRGB;solid-color:#000000;solid-opacity:1;fill:none;fill-opacity:1;fill-rule:evenodd;stroke:#000000;stroke-width:1.37290037;stroke-linecap:butt;stroke-linejoin:miter;stroke-miterlimit:4;stroke-dasharray:none;stroke-dashoffset:0;stroke-opacity:1;color-rendering:auto;image-rendering:auto;shape-rendering:auto;text-rendering:auto;enable-background:accumulate"
       d="m 74.110854,1120.1681 c -0.02973,-0.2965 1.089505,-0.1158 1.201087,-0.1716 0.07235,-0.036 0.09924,-0.1354 0.171584,-0.1716 0.137267,-0.069 0.377484,0.069 0.514752,0 0.569072,-0.5691 -0.161771,0.081 0.343167,-0.1716 0.07235,-0.036 0.09924,-0.1354 0.171584,-0.1716 0.102313,-0.051 0.240855,0.051 0.343168,0 0.07235,-0.036 0.09924,-0.1354 0.171584,-0.1716 0.05116,-0.025 0.120427,0.026 0.171584,0 0.144692,-0.072 0.189698,-0.292 0.343168,-0.3431 0.108519,-0.036 0.228778,0 0.343168,0 0.05719,0 0.120427,0.026 0.171583,0 0.07235,-0.036 0.09485,-0.146 0.171584,-0.1716 0.10852,-0.036 0.234649,0.036 0.343168,0 0.07673,-0.026 0.09924,-0.1354 0.171584,-0.1716 0.05116,-0.026 0.117324,0.018 0.171584,0 0.121328,-0.04 0.22184,-0.1311 0.343167,-0.1716 0.108521,-0.036 0.240855,0.051 0.343169,0 0.07235,-0.036 0.09485,-0.146 0.171583,-0.1716 0.10852,-0.036 0.22878,0 0.343168,0 0.05719,0 0.120428,0.026 0.171585,0 0.07235,-0.036 0.09924,-0.1354 0.171583,-0.1715 0.102314,-0.051 0.240855,0.051 0.343169,0 0.785271,-0.3927 -0.728103,0.071 0.514751,-0.3432 0.05426,-0.018 0.120428,0.026 0.171584,0 0.07235,-0.036 0.09924,-0.1354 0.171583,-0.1716 0.05116,-0.026 0.117325,0.018 0.171585,0 0.121327,-0.04 0.221839,-0.1311 0.343167,-0.1716 0.05426,-0.018 0.120427,0.026 0.171585,0 0.07235,-0.036 0.09924,-0.1354 0.171583,-0.1716 0.102313,-0.051 0.240855,0.051 0.343167,0 0.07235,-0.036 0.09924,-0.1354 0.171585,-0.1715 0.137266,-0.069 0.377484,0.069 0.514752,0 0.07235,-0.036 0.09924,-0.1355 0.171583,-0.1716 0.102313,-0.051 0.240855,0.051 0.343168,0 0.07235,-0.036 0.09485,-0.146 0.171584,-0.1716 0.108519,-0.036 0.228778,0 0.343168,0 0.05719,0 0.120427,0.026 0.171583,0 0.07235,-0.036 0.09924,-0.1354 0.171584,-0.1716 0.05116,-0.026 0.117325,0.018 0.171585,0 0.121328,-0.04 0.221839,-0.1311 0.343167,-0.1716 0.10852,-0.036 0.240855,0.051 0.343168,0 0.07235,-0.036 0.09485,-0.146 0.171583,-0.1716 0.10852,-0.036 0.234649,0.036 0.343168,0 0.07674,-0.026 0.09924,-0.1354 0.171584,-0.1715 0.102313,-0.051 0.240855,0.051 0.343168,0 0.07235,-0.036 0.09924,-0.1355 0.171585,-0.1716 0.137266,-0.069 0.377484,0.069 0.514751,0 0.07235,-0.036 0.09924,-0.1354 0.171584,-0.1716 0.05116,-0.026 0.114389,0 0.171584,0 0.114389,0 0.234649,0.036 0.343168,0 0.07673,-0.026 0.09924,-0.1354 0.171583,-0.1716 0.05116,-0.026 0.11439,0 0.171585,0 0.114388,0 0.228778,0 0.343167,0 0.55232,0 -0.292912,0.04 0.343168,-0.1716 0.108519,-0.036 0.234648,0.036 0.343168,0 0.07673,-0.026 0.09485,-0.146 0.171584,-0.1716 0.182327,-0.061 0.504008,0.061 0.686335,0 0.121328,-0.04 0.22184,-0.1311 0.343168,-0.1715 0.05426,-0.018 0.11439,0 0.171584,0 0.114389,-0.057 0.22184,-0.1312 0.343168,-0.1716 0.162778,-0.054 0.351973,0.054 0.514751,0 0.07674,-0.026 0.09924,-0.1354 0.171584,-0.1716 0.05116,-0.026 0.11439,0 0.171585,0 0.0572,-0.057 0.09924,-0.1354 0.171583,-0.1716 0.102313,-0.051 0.240855,0.051 0.343168,0 0.07235,-0.036 0.09924,-0.1354 0.171584,-0.1716 0.06803,-0.034 0.479674,0.035 0.514752,0 0.04044,-0.04 -0.04044,-0.1311 0,-0.1716 0.03508,-0.035 0.44672,0.034 0.514751,0 0.07235,-0.036 0.09924,-0.1354 0.171585,-0.1716 0.102312,-0.051 0.262281,0.081 0.343167,0 0.04044,-0.04 -0.04044,-0.1311 0,-0.1715 0.08579,-0.086 0.42896,0.086 0.514752,0 0.04044,-0.041 -0.04044,-0.1312 0,-0.1716 0.01716,-0.017 0.497593,-0.017 0.514751,0 0.04044,0.04 -0.02558,0.1204 0,0.1716 0.03617,0.072 0.135412,0.099 0.171585,0.1715 0.02558,0.051 -0.04044,0.1312 0,0.1716 0.04044,0.04 0.131141,-0.04 0.171583,0 0.08089,0.081 -0.05116,0.2409 0,0.3432 0.08442,0.1688 0.601914,0.5175 0.686336,0.6863 0.02558,0.051 -0.02558,0.1205 0,0.1716 0.03617,0.072 0.146006,0.095 0.171584,0.1716 0.03617,0.1085 -0.03617,0.2346 0,0.3432 0.03873,0.1162 0.449216,0.3836 0.514752,0.5147 0.02558,0.051 -0.02558,0.1205 0,0.1716 0.03617,0.072 0.135411,0.099 0.171584,0.1716 0.02558,0.051 -0.02558,0.1204 0,0.1716 0.07235,0.1447 0.253433,0.2085 0.343168,0.3431 0.07094,0.1065 0.100642,0.2368 0.171583,0.3432 0.04487,0.067 0.135411,0.099 0.171584,0.1716 0.02558,0.051 -0.02558,0.1204 0,0.1716 0.07235,0.1447 0.253433,0.2085 0.343168,0.3431 0.07094,0.1065 0.100643,0.2368 0.171583,0.3432 0.09871,0.1481 0.38073,0.3807 0.514753,0.5148 0.05719,0.057 0.135411,0.099 0.171584,0.1715 0.02558,0.051 0,0.1144 0,0.1716 0.0572,0.1144 0.100642,0.2368 0.171583,0.3432 0.08974,0.1346 0.253434,0.2086 0.343168,0.3432 0.07094,0.1064 0.100643,0.2367 0.171584,0.3431 0.131988,0.198 0.382761,0.3168 0.514751,0.5148 0.0709,0.1064 0.10064,0.2367 0.17159,0.3432 0.0897,0.1346 0.25343,0.2085 0.34316,0.3431 0.0709,0.1064 0.0812,0.2528 0.17159,0.3432 0.0904,0.09 0.27222,0.065 0.34316,0.1716 0.0635,0.095 -0.0362,0.2346 0,0.3431 0.0512,0.1535 0.25344,0.2086 0.34317,0.3432 0.0709,0.1064 0.10064,0.2368 0.17159,0.3432 0.13198,0.198 0.38276,0.3167 0.51475,0.5147 0.0709,0.1064 0.10064,0.2368 0.17158,0.3432 0.0897,0.1346 0.29201,0.1897 0.34317,0.3432 0.0362,0.1085 -0.0362,0.2346 0,0.3431 0.0512,0.1535 0.25343,0.2086 0.34317,0.3432 0.0709,0.1064 0.10064,0.2368 0.17158,0.3432 0.0449,0.067 0.11439,0.1144 0.17159,0.1715 0.17158,0.1716 0.34316,0.3432 0.51475,0.5148 0.0903,0.09 0.46893,0.4231 0.51475,0.5148 0.0256,0.051 -0.0404,0.1311 0,0.1715 0.0904,0.091 0.25273,0.081 0.34317,0.1716 0.0404,0.04 -0.0256,0.1205 0,0.1716 0.0362,0.072 0.11439,0.1144 0.17158,0.1716 0.0572,0.057 0.11439,0.1144 0.17158,0.1716 0.22878,0.2288 0.45756,0.4575 0.68634,0.6863 0.22878,0.2288 0.45756,0.4576 0.68634,0.6863 0.0572,0.057 0.11438,0.1144 0.17158,0.1716 0.0572,0.057 0.13541,0.099 0.17158,0.1716 0.0256,0.051 -0.0404,0.1311 0,0.1716 0.0405,0.04 0.12043,-0.026 0.17159,0 0.0723,0.036 0.0992,0.1354 0.17158,0.1716 0.10231,0.051 0.24086,-0.051 0.34317,0 0.0723,0.036 0.0992,0.1354 0.17158,0.1716 0.10884,0.054 0.74646,-0.056 0.85792,0 0.0724,0.036 0.0949,0.146 0.17159,0.1715 0.21703,0.072 0.46929,-0.072 0.68633,0 0.0767,0.026 0.0948,0.1461 0.17159,0.1716 0.10851,0.036 0.23219,-0.028 0.34316,0 0.12408,0.031 0.22184,0.1312 0.34317,0.1716 0.0543,0.018 0.11733,-0.018 0.17159,0 0.12132,0.041 0.21909,0.1406 0.34316,0.1716 0.11098,0.028 0.23465,-0.036 0.34317,0 0.0767,0.026 0.0948,0.146 0.17159,0.1716 0.10851,0.036 0.23464,-0.036 0.34316,0 0.0767,0.026 0.0949,0.146 0.17159,0.1716 0.78109,0 0.01,-0.081 0.51475,0.1716 0.10231,0.051 0.24085,-0.051 0.34317,0 0.0723,0.036 0.0992,0.1354 0.17158,0.1715 0.0512,0.026 0.13114,-0.04 0.17158,0 0.0405,0.041 -0.0404,0.1312 0,0.1716 0.0809,0.081 0.26229,-0.081 0.34317,0 0.0404,0.041 -0.0404,0.1312 0,0.1716 0.0351,0.035 0.44672,-0.034 0.51475,0 0.0724,0.036 0.0992,0.1354 0.17159,0.1716 0.068,0.034 0.47967,-0.035 0.51475,0 0.0404,0.04 -0.0404,0.1311 0,0.1716 0.0404,0.04 0.11439,0 0.17158,0 0.0572,0 0.11439,0 0.17159,0 0.0572,0 0.11439,0 0.17158,0 0.0572,0 0.12043,-0.026 0.17158,0 0.0724,0.036 0.0992,0.1354 0.17159,0.1716 0.10231,0.051 0.24085,-0.051 0.34317,0 0.0723,0.036 0.0992,0.1354 0.17158,0.1715 0.0764,0.038 0.60786,-0.026 0.68634,0 0.0767,0.026 0.0992,0.1354 0.17158,0.1716 0.0512,0.026 0.12043,-0.026 0.17158,0 0.0724,0.036 0.0948,0.146 0.17159,0.1716 0.10852,0.036 0.23465,-0.036 0.34317,0 0.0767,0.026 0.0949,0.146 0.17158,0.1716 0.10852,0.036 0.23465,-0.036 0.34317,0 0.0767,0.026 0.0992,0.1354 0.17158,0.1716 0.0512,0.026 0.12043,-0.026 0.17159,0 0.0723,0.036 0.0992,0.1354 0.17158,0.1716 0.0512,0.025 0.17158,-0.057 0.17158,0 0,0.057 -0.11439,0 -0.17158,0"
       id="path4180"
       inkscape:connector-curvature="0" />
    <path
       style="color:#000000;clip-rule:nonzero;display:inline;overflow:visible;visibility:visible;isolation:auto;mix-blend-mode:normal;color-interpolation:sRGB;color-interpolation-filters:linearRGB;solid-color:#000000;solid-opacity:1;fill:none;fill-opacity:1;fill-rule:evenodd;stroke:#000000;stroke-width:1.37290037;stroke-linecap:butt;stroke-linejoin:miter;stroke-miterlimit:4;stroke-dasharray:none;stroke-dashoffset:0;stroke-opacity:1;color-rendering:auto;image-rendering:auto;shape-rendering:auto;text-rendering:auto;enable-background:accumulate"
       d="m 74.454021,1113.6479 c 0.171584,-0.2288 0.312539,-0.4841 0.514752,-0.6864 0.04044,-0.04 0.120428,0.026 0.171584,0 0.07235,-0.036 0.09924,-0.1354 0.171584,-0.1715 0.05116,-0.026 0.120427,0.025 0.171584,0 0.07235,-0.036 0.09924,-0.1354 0.171584,-0.1716 0.05116,-0.026 0.120427,0.026 0.171584,0 0.144692,-0.072 0.198475,-0.2708 0.343167,-0.3432 0.05116,-0.026 0.117325,0.018 0.171584,0 1.242854,-0.4143 -0.27052,0.049 0.514752,-0.3432 0.102313,-0.051 0.240855,0.051 0.343168,0 0.07235,-0.036 0.09924,-0.1354 0.171584,-0.1715 0.05116,-0.026 0.117324,0.018 0.171584,0 0.121328,-0.041 0.221839,-0.1312 0.343168,-0.1716 0.05426,-0.018 0.120427,0.025 0.171583,0 0.785273,-0.3927 -0.728102,0.071 0.514752,-0.3432 0.05426,-0.018 0.117325,0.018 0.171584,0 0.242656,-0.081 0.443679,-0.2623 0.686336,-0.3432 0.05426,-0.018 0.117324,0.018 0.171584,0 0.242656,-0.081 0.443679,-0.2622 0.686336,-0.3431 0.05426,-0.018 0.117324,0.018 0.171583,0 0.310557,0.1034 0.319116,-0.278 0.514752,-0.3432 0.108519,-0.036 0.234648,0.036 0.343168,0 0.07673,-0.026 0.104283,-0.1267 0.171584,-0.1716 0.08641,-0.378 0.35298,-0.091 0.514751,-0.1716 0.144692,-0.072 0.198475,-0.2708 0.343169,-0.3431 0.05116,-0.026 0.117324,0.018 0.171583,0 1.242854,-0.4143 -0.270521,0.049 0.514752,-0.3432 0.05116,-0.026 0.117324,0.018 0.171583,0 1.242854,-0.4143 -0.27052,0.05 0.514752,-0.3432 0.05116,-0.025 0.120428,0.026 0.171584,0 0.785272,-0.3926 -0.728102,0.071 0.514751,-0.3431 0.05426,-0.018 0.120428,0.026 0.171585,0 0.144692,-0.072 0.198475,-0.2709 0.343167,-0.3432 0.05116,-0.026 0.120427,0.026 0.171585,0 0.07235,-0.036 0.09924,-0.1354 0.171583,-0.1716 0.05116,-0.026 0.120428,0.026 0.171584,0 0.07235,-0.036 0.09924,-0.1354 0.171584,-0.1716 0.05116,-0.026 0.120428,0.026 0.171584,0 0.07235,-0.036 0.09924,-0.1354 0.171583,-0.1716 0.05116,-0.025 0.120428,0.026 0.171585,0 0.144692,-0.072 0.198475,-0.2708 0.343167,-0.3431 0.05116,-0.026 0.120427,0.026 0.171585,0 0.07235,-0.036 0.09924,-0.1354 0.171583,-0.1716 0.05116,-0.026 0.120428,0.026 0.171585,0 0.07235,-0.036 0.09924,-0.1354 0.171583,-0.1716 0.05116,-0.026 0.131141,0.04 0.171584,0 0.04044,-0.04 -0.04044,-0.1311 0,-0.1716 0.04044,-0.04 0.120427,0.026 0.171584,0 0.07235,-0.036 0.09924,-0.1354 0.171584,-0.1716 0.05116,-0.026 0.120428,0.026 0.171584,0 0.07235,-0.036 0.09924,-0.1354 0.171584,-0.1715 0.05116,-0.026 0.131141,0.04 0.171584,0 0.04044,-0.04 -0.04044,-0.1312 0,-0.1716 0.08579,-0.086 0.42896,0.086 0.514751,0 0.04044,-0.041 -0.04044,-0.1312 0,-0.1716 0.08089,-0.081 0.262283,0.081 0.343169,0 0.04044,-0.04 -0.04044,-0.1312 0,-0.1716 0.08089,-0.081 0.240855,0.051 0.343167,0 0.07235,-0.036 0.09924,-0.1354 0.171584,-0.1716 0.05116,-0.026 0.120428,0.026 0.171584,0 0.07235,-0.036 0.09924,-0.1354 0.171583,-0.1716 0.102313,-0.051 0.234649,0.036 0.343168,0 1.242854,-0.4143 -0.27052,0.05 0.514752,-0.3431 0.05116,-0.026 0.120428,0.025 0.171584,0 0.07235,-0.036 0.09924,-0.1354 0.171584,-0.1716 0.05116,-0.026 0.120428,0.026 0.171584,0 0.07235,-0.036 0.09924,-0.1354 0.171583,-0.1716 0.05116,-0.026 0.120428,0.026 0.171585,0 0.07235,-0.036 0.09924,-0.1354 0.171583,-0.1716 0.102314,-0.051 0.240855,0.051 0.343169,0 0.144692,-0.072 0.198475,-0.2708 0.343167,-0.3431 0.05116,-0.026 0.120427,0.025 0.171584,0 0.07235,-0.036 0.09924,-0.1355 0.171584,-0.1716 0.05116,-0.026 0.120427,0.025 0.171585,0 0.07235,-0.036 0.09924,-0.1354 0.171583,-0.1716 0.05116,-0.026 0.120428,0.026 0.171584,0 0.07235,-0.036 0.09924,-0.1354 0.171584,-0.1716 0.05116,-0.026 0.120428,0.026 0.171584,0 0.07235,-0.036 0.09924,-0.1354 0.171583,-0.1716 0.05116,-0.026 0.120428,0.026 0.171585,0 0.07235,-0.036 0.09924,-0.1354 0.171583,-0.1716 0.05116,-0.026 0.120428,0.026 0.171584,0 0.07235,-0.036 0.09924,-0.1354 0.171585,-0.1716 0.102312,-0.051 0.262281,0.081 0.343167,0 0.04044,-0.04 -0.04044,-0.1311 0,-0.1715 0.04044,-0.041 0.120427,0.025 0.171584,0 0.139517,-0.07 0.14197,-0.2722 0.343167,-0.1716 0.336827,0.1684 0.07725,0.3261 0.171585,0.5147 0.03617,0.072 0.13541,0.099 0.171583,0.1716 0.02558,0.051 -0.02558,0.1204 0,0.1716 0.03049,0.061 0.312676,0.2822 0.343169,0.3432 0.02558,0.051 -0.02558,0.1204 0,0.1716 0.07235,0.1446 0.270821,0.1984 0.343167,0.3431 0.02558,0.051 -0.02558,0.1204 0,0.1716 0.08442,0.1688 0.601913,0.5175 0.686336,0.6863 0.02558,0.051 -0.02558,0.1205 0,0.1716 0.03617,0.072 0.135411,0.099 0.171584,0.1716 0.02558,0.051 -0.04044,0.1312 0,0.1716 0.04044,0.04 0.13114,-0.04 0.171583,0 0.355014,0.355 -0.542507,-0.014 0.171585,0.3432 0.05116,0.025 0.13114,-0.04 0.171583,0 0.08089,0.081 -0.05116,0.2408 0,0.3431 0.03049,0.061 0.312676,0.2822 0.343168,0.3432 0.02558,0.051 -0.02558,0.1204 0,0.1716 0.03617,0.072 0.135411,0.099 0.171584,0.1716 0.02558,0.051 -0.02558,0.1204 0,0.1715 0.356142,0.7123 -0.01297,-0.3691 0.343168,0.3432 0.02558,0.051 -0.02558,0.1204 0,0.1716 0.10295,0.2059 0.411801,0.3088 0.514752,0.5147 0.02558,0.051 -0.02558,0.1205 0,0.1716 0.03617,0.072 0.13541,0.099 0.171583,0.1716 0.05116,0.1023 -0.05116,0.2409 0,0.3432 0.07235,0.1447 0.270822,0.1985 0.343168,0.3431 0.02558,0.051 -0.04044,0.1312 0,0.1716 0.355015,0.355 -0.01388,-0.5425 0.343165,0.1716 0.11834,0.2367 -0.207795,0.1535 0.17159,0.3432 0.0512,0.026 0.13114,-0.041 0.17158,0 0.0404,0.04 -0.0256,0.1204 0,0.1716 0.0724,0.1447 0.27082,0.1984 0.34317,0.3431 0.0256,0.051 -0.0404,0.1312 0,0.1716 0.35501,0.355 -0.0139,-0.5425 0.34317,0.1716 0.0256,0.051 -0.0405,0.1311 0,0.1716 0.0404,0.04 0.13114,-0.041 0.17158,0 0.0404,0.04 -0.0404,0.1311 0,0.1716 0.0404,0.04 0.13114,-0.041 0.17158,0 0.0404,0.04 -0.0256,0.1204 0,0.1716 0.10295,0.2059 0.41181,0.3088 0.51476,0.5147 0.0256,0.051 -0.0404,0.1312 0,0.1716 0.0404,0.04 0.12042,-0.026 0.17158,0 0.14469,0.072 0.19848,0.2708 0.34317,0.3432 0.0511,0.025 0.13114,-0.041 0.17158,0 0.0404,0.04 -0.0404,0.1311 0,0.1715 0.0404,0.041 0.13114,-0.04 0.17159,0 0.0404,0.041 -0.0405,0.1312 0,0.1716 0.0404,0.041 0.13114,-0.04 0.17158,0 0.0404,0.041 -0.0256,0.1205 0,0.1716 0.0362,0.072 0.11439,0.1144 0.17158,0.1716 0.0572,0.057 0.11439,0.1144 0.17159,0.1716 0.0903,0.09 0.42311,0.4689 0.51475,0.5147 0.0511,0.026 0.12043,-0.026 0.17158,0 0.1447,0.072 0.19848,0.2709 0.34317,0.3432 0.0512,0.026 0.13114,-0.04 0.17158,0 0.0404,0.04 -0.0256,0.1204 0,0.1716 0.0362,0.072 0.11439,0.1144 0.17159,0.1716 0.0572,0.057 0.0992,0.1354 0.17158,0.1716 0.0352,0.018 0.49056,0.024 0.51475,0 0.0405,-0.041 -0.0404,-0.1312 0,-0.1716 0.006,-0.01 0.47314,0 0.51476,0 0.68633,0 1.37267,0 2.059,0 0.11935,0 0.79587,-0.031 0.85792,0 0.42406,0.212 -0.0592,0.1716 0.34317,0.1716 0.40036,0 0.80073,0 1.20109,0 0.0572,0 0.13114,-0.041 0.17158,0 0.0404,0.04 0,0.1143 0,0.1715"
       id="path4184"
       inkscape:connector-curvature="0" />
    <path
       style="color:#000000;clip-rule:nonzero;display:inline;overflow:visible;visibility:visible;isolation:auto;mix-blend-mode:normal;color-interpolation:sRGB;color-interpolation-filters:linearRGB;solid-color:#000000;solid-opacity:1;fill:none;fill-opacity:1;fill-rule:evenodd;stroke:#000000;stroke-width:1.37290037;stroke-linecap:butt;stroke-linejoin:miter;stroke-miterlimit:4;stroke-dasharray:none;stroke-dashoffset:0;stroke-opacity:1;color-rendering:auto;image-rendering:auto;shape-rendering:auto;text-rendering:auto;enable-background:accumulate"
       d="m 50.432275,1110.5594 c 0.174065,0.4078 0.171583,0.6485 0.171583,1.0295 0,0.057 0.02558,0.1204 0,0.1716 -0.03617,0.072 -0.13541,0.099 -0.171583,0.1715 -0.05412,0.1083 0.05412,0.7497 0,0.858 -0.03617,0.072 -0.146007,0.095 -0.171585,0.1715 -0.03617,0.1086 0,0.2288 0,0.3432 0,0.057 0.02558,0.1204 0,0.1716 -0.03617,0.072 -0.13541,0.099 -0.171583,0.1716 -0.02558,0.051 0.01809,0.1173 0,0.1716 -0.04044,0.1213 -0.131142,0.2218 -0.171584,0.3431 -0.01809,0.054 0.02558,0.1205 0,0.1716 -0.03617,0.072 -0.135412,0.099 -0.171585,0.1716 -0.05116,0.1023 0.05116,0.2409 0,0.3432 -0.03617,0.072 -0.13541,0.099 -0.171583,0.1716 -0.05116,0.1023 0.05116,0.2408 0,0.3431 -0.03617,0.072 -0.135411,0.099 -0.171585,0.1716 -0.02558,0.051 0.02558,0.1204 0,0.1716 -0.07235,0.1447 -0.270821,0.1985 -0.343167,0.3432 -0.02558,0.051 0.01809,0.1173 0,0.1715 -0.414285,1.2429 0.04947,-0.2705 -0.343168,0.5148 -0.05116,0.1023 0.08089,0.2623 0,0.3432 -0.04044,0.04 -0.131141,-0.041 -0.171583,0 -0.03508,0.035 0.03402,0.4467 0,0.5147 -0.03617,0.072 -0.135412,0.099 -0.171585,0.1716 -0.05116,0.1023 0.05116,0.2408 0,0.3432 -0.03617,0.072 -0.135411,0.099 -0.171584,0.1715 -0.05116,0.1024 0.05116,0.2409 0,0.3432 -0.03617,0.072 -0.13541,0.099 -0.171583,0.1716 -0.02558,0.051 0.01809,0.1173 0,0.1716 -0.04044,0.1213 -0.131142,0.2218 -0.171585,0.3431 -0.03617,0.1086 0.05116,0.2409 0,0.3432 -0.07235,0.1447 -0.270821,0.1985 -0.343167,0.3432 -0.02558,0.051 0.01809,0.1173 0,0.1716 -0.04044,0.1213 -0.131142,0.2218 -0.171584,0.3431 -0.01809,0.054 0.02558,0.1205 0,0.1716 -0.03617,0.072 -0.114389,0.1144 -0.171584,0.1716 0,0.1144 0.03617,0.2347 0,0.3432 -0.05116,0.1534 -0.270822,0.1984 -0.343168,0.3431 -0.05116,0.1023 0.05116,0.2409 0,0.3432 -0.03617,0.072 -0.135411,0.099 -0.171584,0.1716 -0.0045,0.01 -0.0045,0.5058 0,0.5147 0.03617,0.072 0.11439,0.1144 0.171584,0.1716"
       id="path4186"
       inkscape:connector-curvature="0" />
    <path
       style="color:#000000;clip-rule:nonzero;display:inline;overflow:visible;visibility:visible;isolation:auto;mix-blend-mode:normal;color-interpolation:sRGB;color-interpolation-filters:linearRGB;solid-color:#000000;solid-opacity:1;fill:none;fill-opacity:1;fill-rule:evenodd;stroke:#000000;stroke-width:1.37290037;stroke-linecap:butt;stroke-linejoin:miter;stroke-miterlimit:4;stroke-dasharray:none;stroke-dashoffset:0;stroke-opacity:1;color-rendering:auto;image-rendering:auto;shape-rendering:auto;text-rendering:auto;enable-background:accumulate"
       d="m 46.142677,1123.5997 c -0.228779,0.1144 -0.48171,0.1897 -0.686336,0.3432 -0.04575,0.034 0,0.1144 0,0.1716 -0.05719,0.057 -0.09924,0.1354 -0.171584,0.1716 -0.05116,0.026 -0.120428,-0.026 -0.171584,0 -0.07235,0.036 -0.09924,0.1354 -0.171583,0.1716 -0.05116,0.025 -0.120428,-0.026 -0.171585,0 -0.07235,0.036 -0.09924,0.1354 -0.171583,0.1716 -0.05116,0.025 -0.117324,-0.018 -0.171584,0 -0.121328,0.04 -0.22184,0.1311 -0.343168,0.1715 -0.05426,0.018 -0.120428,-0.025 -0.171584,0 -0.144693,0.072 -0.189699,0.292 -0.343168,0.3432 -0.108519,0.036 -0.234649,-0.036 -0.343168,0 -0.153469,0.051 -0.208566,0.2534 -0.343168,0.3432 -0.106412,0.071 -0.236756,0.1006 -0.343167,0.1716 -0.0673,0.045 -0.09924,0.1354 -0.171585,0.1715 -0.05116,0.026 -0.120427,-0.026 -0.171583,0 -0.07235,0.036 -0.09924,0.1354 -0.171584,0.1716 -0.504939,0.2525 0.225905,-0.3975 -0.343168,0.1716 -0.569073,0.5691 0.161771,-0.081 -0.343168,0.1716 -0.07235,0.036 -0.09924,0.1354 -0.171584,0.1716 -0.05116,0.026 -0.120427,-0.026 -0.171583,0 -0.144693,0.072 -0.198476,0.2708 -0.343168,0.3431 -0.05116,0.026 -0.120428,-0.025 -0.171584,0 -0.243933,0.122 -0.09924,0.2212 -0.343168,0.3432 -0.05116,0.026 -0.120428,-0.026 -0.171584,0 -0.144693,0.072 -0.208566,0.2534 -0.343168,0.3432 -0.106411,0.071 -0.22184,0.1311 -0.343168,0.1716 -0.05426,0.018 -0.131141,-0.04 -0.171583,0 -0.04044,0.04 0.04044,0.1311 0,0.1715 -0.08089,0.081 -0.262283,-0.081 -0.343169,0 -0.04044,0.04 0.04044,0.1312 0,0.1716 -0.08088,0.081 -0.240855,-0.051 -0.343167,0 -0.07235,0.036 -0.09924,0.1354 -0.171584,0.1716 -0.05116,0.026 -0.131141,-0.04 -0.171584,0 -0.04044,0.04 0.04044,0.1312 0,0.1716 -0.08088,0.081 -0.262282,-0.081 -0.343168,0 -0.04044,0.04 0,0.1144 0,0.1716 -0.0572,0 -0.120428,-0.026 -0.171584,0 -0.144692,0.072 -0.198476,0.2708 -0.343168,0.3431 -0.05116,0.026 -0.120427,-0.025 -0.171583,0 -0.07235,0.036 -0.09924,0.1355 -0.171585,0.1716 -0.05116,0.026 -0.120427,-0.025 -0.171583,0 -0.07235,0.036 -0.09924,0.1354 -0.171584,0.1716 -0.102313,0.051 -0.240855,-0.051 -0.343168,0 -0.569073,0.5691 0.161771,-0.081 -0.343168,0.1716 -0.07235,0.036 -0.09485,0.146 -0.171584,0.1716 -0.108519,0.036 -0.234648,-0.036 -0.343168,0 -0.153469,0.051 -0.198475,0.2708 -0.343167,0.3431 -0.05116,0.026 -0.120427,-0.025 -0.171585,0 -0.07235,0.036 -0.09924,0.1355 -0.171583,0.1716 -0.05116,0.026 -0.120428,-0.025 -0.171584,0 -0.07235,0.036 -0.09924,0.1354 -0.171584,0.1716 -0.102312,0.051 -0.240855,-0.051 -0.343167,0 -0.424054,0.212 0.05923,0.1716 -0.343168,0.1716 -0.06301,0 -0.679432,0.01 -0.686336,0 -0.04044,-0.04 0,-0.1144 0,-0.1716 0,-0.057 0,-0.1144 0,-0.1716 0,-0.1193 -0.03102,-0.7958 0,-0.8579 0.03617,-0.072 0.135411,-0.099 0.171584,-0.1716 0.02558,-0.051 -0.04044,-0.1311 0,-0.1716 0.04044,-0.04 0.131141,0.041 0.171583,0 0.04044,-0.04 -0.02558,-0.1204 0,-0.1715 0.03617,-0.072 0.135412,-0.099 0.171585,-0.1716 0.02558,-0.051 -0.02558,-0.1204 0,-0.1716 0.03617,-0.072 0.135411,-0.099 0.171584,-0.1716 0.02558,-0.051 -0.04044,-0.1311 0,-0.1716 0.04044,-0.04 0.13114,0.041 0.171583,0 0.04044,-0.04 -0.02558,-0.1204 0,-0.1716 0.102951,-0.2059 0.411802,-0.3088 0.514752,-0.5147 0.02558,-0.051 -0.04044,-0.1311 0,-0.1716 0.04044,-0.04 0.131142,0.041 0.171584,0 0.04044,-0.04 -0.02558,-0.1204 0,-0.1716 0.08442,-0.1688 0.601914,-0.5175 0.686336,-0.6863 0.02558,-0.051 -0.04044,-0.1312 0,-0.1716 0.04044,-0.04 0.13114,0.04 0.171583,0 0.04044,-0.04 -0.02558,-0.1204 0,-0.1716 0.569073,-0.569 -0.08089,0.1618 0.171585,-0.3431 0.102949,-0.2059 0.411801,-0.3089 0.514751,-0.5148 0.02558,-0.051 -0.02558,-0.1204 0,-0.1716 0.357046,-0.7141 -0.01185,0.1834 0.343167,-0.1716 0.04044,-0.04 -0.04044,-0.1311 0,-0.1715 0.04044,-0.041 0.131142,0.04 0.171585,0 0.04044,-0.041 -0.02558,-0.1205 0,-0.1716 0.07235,-0.1447 0.270821,-0.1985 0.343167,-0.3432 0.02558,-0.051 -0.02558,-0.1204 0,-0.1716 0.102951,-0.2059 0.411802,-0.3088 0.514752,-0.5147 0.02558,-0.051 -0.02558,-0.1205 0,-0.1716 0.357046,-0.7141 -0.01185,0.1834 0.343168,-0.1716 0.04044,-0.04 -0.04044,-0.1311 0,-0.1716 0.04044,-0.04 0.131142,0.041 0.171585,0 0.04044,-0.04 -0.04044,-0.1311 0,-0.1716 0.04044,-0.04 0.13114,0.041 0.171583,0 0.04044,-0.04 -0.04044,-0.1311 0,-0.1716 0.04044,-0.04 0.131141,0.04 0.171584,0 0.04044,-0.04 -0.04044,-0.1311 0,-0.1715 0.04044,-0.041 0.120427,0.025 0.171584,0 0.04556,-0.023 0.491973,-0.4692 0.514752,-0.5148 0.02558,-0.051 -0.04044,-0.1311 0,-0.1716 0.04044,-0.04 0.120428,0.026 0.171584,0 0.07235,-0.036 0.114388,-0.1144 0.171583,-0.1716 0.134825,-0.1348 0.748625,-0.8032 0.85792,-0.8579 0.05116,-0.026 0.131141,0.041 0.171583,0 0.04044,-0.04 -0.04044,-0.1311 0,-0.1716 0.04044,-0.04 0.131142,0.041 0.171585,0 0.04044,-0.04 -0.04044,-0.1311 0,-0.1715 0.04044,-0.041 0.120428,0.025 0.171584,0 0.07235,-0.036 0.09924,-0.1355 0.171583,-0.1716 0.05116,-0.026 0.131142,0.04 0.171585,0 0.04044,-0.041 -0.04044,-0.1312 0,-0.1716 0.08089,-0.081 0.262281,0.081 0.343167,0 0.04044,-0.041 -0.04044,-0.1312 0,-0.1716 0.08089,-0.081 0.240855,0.051 0.343168,0 0.07235,-0.036 0.09924,-0.1354 0.171583,-0.1716 0.05116,-0.026 0.131142,0.041 0.171585,0 0.228779,-0.2288 -0.285973,-0.1716 0.171584,-0.1716"
       id="path4188"
       inkscape:connector-curvature="0" />
    <path
       style="color:#000000;clip-rule:nonzero;display:inline;overflow:visible;visibility:visible;isolation:auto;mix-blend-mode:normal;color-interpolation:sRGB;color-interpolation-filters:linearRGB;solid-color:#000000;solid-opacity:1;fill:none;fill-opacity:1;fill-rule:evenodd;stroke:#000000;stroke-width:1.37290037;stroke-linecap:butt;stroke-linejoin:miter;stroke-miterlimit:4;stroke-dasharray:none;stroke-dashoffset:0;stroke-opacity:1;color-rendering:auto;image-rendering:auto;shape-rendering:auto;text-rendering:auto;enable-background:accumulate"
       d="m 50.432275,1110.5594 c -0.0078,-0.016 -0.279786,-0.7405 -0.514752,-0.858 -0.05116,-0.025 -0.131142,0.041 -0.171585,0 -0.04044,-0.04 0.04044,-0.1311 0,-0.1715 -0.04044,-0.041 -0.13114,0.04 -0.171583,0 -0.04044,-0.041 0.04044,-0.1312 0,-0.1716 -0.04044,-0.041 -0.120428,0.026 -0.171585,0 -0.144692,-0.072 -0.198475,-0.2708 -0.343167,-0.3432 -0.05116,-0.026 -0.120427,0.026 -0.171584,0 -0.07235,-0.036 -0.09924,-0.1354 -0.171584,-0.1716 -0.05116,-0.025 -0.131141,0.041 -0.171583,0 -0.04044,-0.04 0.04044,-0.1311 0,-0.1715 -0.08089,-0.081 -0.262283,0.081 -0.343169,0 -0.04044,-0.041 0.04044,-0.1312 0,-0.1716 -0.08089,-0.081 -0.262282,0.081 -0.343168,0 -0.04044,-0.04 0.04044,-0.1312 0,-0.1716 -0.04044,-0.041 -0.120427,0.026 -0.171583,0 -0.07235,-0.036 -0.09924,-0.1354 -0.171584,-0.1716 -0.05116,-0.026 -0.131142,0.04 -0.171584,0 -0.04044,-0.04 0.04044,-0.1312 0,-0.1716 -0.04044,-0.04 -0.120428,0.026 -0.171584,0 -0.07235,-0.036 -0.09924,-0.1354 -0.171583,-0.1716 -0.102314,-0.051 -0.262283,0.081 -0.343169,0 -0.04044,-0.04 0,-0.1144 0,-0.1716 -0.0572,0 -0.120427,0.026 -0.171583,0 -0.07235,-0.036 -0.09924,-0.1354 -0.171585,-0.1715 -0.05116,-0.026 -0.131141,0.04 -0.171583,0 -0.04044,-0.041 0.04044,-0.1312 0,-0.1716 -0.04044,-0.04 -0.131141,0.04 -0.171584,0 -0.04044,-0.04 0.04044,-0.1312 0,-0.1716 -0.04044,-0.041 -0.120427,0.026 -0.171585,0 -0.04467,-0.022 -0.209036,-0.3057 -0.343167,-0.1716 -0.04044,0.04 0.04044,0.1311 0,0.1716 -0.04044,0.04 -0.120427,-0.026 -0.171584,0 -0.07235,0.036 -0.09924,0.1354 -0.171584,0.1716 -0.05116,0.026 -0.13114,-0.04 -0.171583,0 -0.04044,0.04 0.04044,0.1311 0,0.1716 -0.04044,0.04 -0.131142,-0.041 -0.171585,0 -0.04044,0.04 0.04044,0.1311 0,0.1715 -0.04044,0.041 -0.131141,-0.04 -0.171583,0 -0.04044,0.041 0.02558,0.1205 0,0.1716 -0.03617,0.072 -0.135411,0.099 -0.171584,0.1716 -0.02558,0.051 0.04044,0.1312 0,0.1716 -0.04044,0.04 -0.131142,-0.04 -0.171585,0 -0.115331,0.1153 0.115332,0.2278 0,0.3432 -0.04044,0.04 -0.13114,-0.04 -0.171583,0 -0.04044,0.04 0.04044,0.1311 0,0.1716 -0.04044,0.04 -0.131142,-0.041 -0.171584,0 0,0.4575 0.05719,-0.057 -0.171584,0.1715 -0.04044,0.041 0.04044,0.1312 0,0.1716 -0.04044,0.04 -0.131141,-0.04 -0.171584,0 -0.08088,0.081 0.08089,0.2623 0,0.3432 -0.04044,0.04 -0.131142,-0.041 -0.171584,0 -0.04044,0.04 0.04044,0.1311 0,0.1716 -0.04044,0.04 -0.131141,-0.041 -0.171584,0 -0.04044,0.04 0.04044,0.1311 0,0.1715 -0.04044,0.041 -0.131141,-0.04 -0.171583,0 -0.102544,0.1026 0.185461,0.3432 -0.171585,0.3432 -0.208015,0 0.04271,-0.2143 0.171585,-0.3432"
       id="path4190"
       inkscape:connector-curvature="0" />
    <path
       style="color:#000000;clip-rule:nonzero;display:inline;overflow:visible;visibility:visible;isolation:auto;mix-blend-mode:normal;color-interpolation:sRGB;color-interpolation-filters:linearRGB;solid-color:#000000;solid-opacity:1;fill:none;fill-opacity:1;fill-rule:evenodd;stroke:#000000;stroke-width:1.37290037;stroke-linecap:butt;stroke-linejoin:miter;stroke-miterlimit:4;stroke-dasharray:none;stroke-dashoffset:0;stroke-opacity:1;color-rendering:auto;image-rendering:auto;shape-rendering:auto;text-rendering:auto;enable-background:accumulate"
       d="m 144.53515,1110.0934 c -0.22877,0.1716 -0.45755,0.3432 -0.68633,0.5147 0,0.057 0.0256,0.1205 0,0.1716 -0.0724,0.1447 -0.27082,0.1985 -0.34317,0.3432 -0.0256,0.051 0.0404,0.1311 0,0.1716 -0.35501,0.355 0.0139,-0.5425 -0.34317,0.1716 -0.0256,0.051 0.0404,0.1311 0,0.1716 -0.0404,0.04 -0.12043,-0.026 -0.17158,0 -0.37938,0.1896 -0.0533,0.1065 -0.17159,0.3431 -0.0723,0.1447 -0.27082,0.1985 -0.34316,0.3432 -0.0256,0.051 0.0256,0.1204 0,0.1716 -0.0362,0.072 -0.13541,0.099 -0.17159,0.1716 -0.0256,0.051 0.0404,0.1311 0,0.1715 -0.0404,0.041 -0.13114,-0.04 -0.17158,0 -0.0809,0.081 0.0809,0.2623 0,0.3432 -0.0404,0.04 -0.13114,-0.04 -0.17158,0 -0.0404,0.04 0.0404,0.1312 0,0.1716 -0.0404,0.04 -0.13115,-0.04 -0.17159,0 -0.0404,0.04 0.0256,0.1204 0,0.1716 -0.0362,0.072 -0.13541,0.099 -0.17158,0.1716 -0.0256,0.051 0.0256,0.1204 0,0.1715 -0.0362,0.072 -0.13541,0.099 -0.17159,0.1716 -0.0512,0.1023 0.0512,0.2409 0,0.3432 -0.0723,0.1447 -0.27082,0.1985 -0.34316,0.3432 -0.0256,0.051 0.0256,0.1204 0,0.1715 -0.0362,0.072 -0.13542,0.099 -0.17159,0.1716 -0.0256,0.051 0.0256,0.1205 0,0.1716 -0.56907,0.5691 0.0809,-0.1618 -0.17158,0.3432 -0.0362,0.072 -0.13541,0.099 -0.17159,0.1716 -0.0256,0.051 0.0256,0.1204 0,0.1716 -0.0362,0.072 -0.13541,0.099 -0.17158,0.1715 -0.0256,0.051 0,0.1144 0,0.1716 -0.0572,0.057 -0.13541,0.099 -0.17158,0.1716 -0.0512,0.1023 0.0511,0.2409 0,0.3432 -0.0362,0.072 -0.13542,0.099 -0.17159,0.1716 -0.0512,0.1023 0.0809,0.2622 0,0.3431 -0.0404,0.041 -0.13114,-0.04 -0.17158,0 -0.0809,0.081 0.0809,0.2623 0,0.3432 -0.0404,0.04 -0.13114,-0.041 -0.17159,0 -0.0809,0.081 0.0512,0.2408 0,0.3432 -0.56907,0.569 0.0809,-0.1618 -0.17158,0.3431 -0.0724,0.1447 -0.27082,0.1985 -0.34317,0.3432 -0.0256,0.051 0.0256,0.1204 0,0.1716 -0.0362,0.072 -0.13541,0.099 -0.17158,0.1716 -0.0512,0.1023 0.0809,0.2622 0,0.3431 -0.0404,0.041 -0.13114,-0.04 -0.17159,0 -0.0809,0.081 0.0809,0.2623 0,0.3432 -0.0404,0.04 -0.13114,-0.04 -0.17158,0 -0.0404,0.04 0.0256,0.1204 0,0.1716 -0.0362,0.072 -0.13541,0.099 -0.17158,0.1716 -0.0512,0.1023 0.0809,0.2622 0,0.3431 -0.23551,0.2355 -0.17159,-0.3028 -0.17159,-0.3431"
       id="path4192"
       inkscape:connector-curvature="0" />
    <path
       style="color:#000000;clip-rule:nonzero;display:inline;overflow:visible;visibility:visible;isolation:auto;mix-blend-mode:normal;color-interpolation:sRGB;color-interpolation-filters:linearRGB;solid-color:#000000;solid-opacity:1;fill:none;fill-opacity:1;fill-rule:evenodd;stroke:#000000;stroke-width:1.37290037;stroke-linecap:butt;stroke-linejoin:miter;stroke-miterlimit:4;stroke-dasharray:none;stroke-dashoffset:0;stroke-opacity:1;color-rendering:auto;image-rendering:auto;shape-rendering:auto;text-rendering:auto;enable-background:accumulate"
       d="m 138.35813,1120.9032 c -0.22878,-0.057 -0.45051,-0.1716 -0.68633,-0.1716 -0.0809,0 -0.0992,0.1354 -0.17159,0.1716 -0.0444,0.022 -0.90788,0 -1.0295,0 -0.11934,0 -0.79587,-0.031 -0.85792,0 -0.0724,0.036 -0.0992,0.1354 -0.17158,0.1716 -0.10419,0.052 -0.92532,-0.052 -1.02951,0 -0.0723,0.036 -0.0992,0.1354 -0.17158,0.1716 -0.0512,0.025 -0.11439,0 -0.17158,0 -0.0572,0 -0.11439,0 -0.17159,0 -0.34317,0 -0.68633,0 -1.0295,0 -0.0572,0 -0.11439,0 -0.17159,0 -0.0572,0 -0.12042,-0.026 -0.17158,0 -0.0724,0.036 -0.0992,0.1354 -0.17158,0.1715 -0.0451,0.023 -0.59661,0 -0.68634,0 -0.57195,0 -1.14389,0 -1.71584,0 -0.45756,0 -0.91511,0 -1.37267,0 -0.0572,0 -0.11439,0 -0.17158,0 -0.0572,0 -0.13115,0.041 -0.17159,0 -0.0404,-0.04 0,-0.1143 0,-0.1715 0,-0.286 0,-0.572 0,-0.858 0,-0.3431 0,-0.6863 0,-1.0295 0,-0.057 0,-0.1144 0,-0.1716 0,-0.057 -0.0256,-0.1204 0,-0.1715 0.0362,-0.072 0.13541,-0.099 0.17159,-0.1716 0.0923,-0.1846 -0.0923,-0.1587 0,-0.3432 0.0362,-0.072 0.13541,-0.099 0.17158,-0.1716 0.0593,-0.1185 -0.0602,-0.7977 0,-0.8579 0.0404,-0.04 0.13114,0.04 0.17158,0 0.0809,-0.081 -0.0809,-0.2623 0,-0.3432 0.0405,-0.04 0.13115,0.04 0.17159,0 0.0809,-0.081 -0.0512,-0.2408 0,-0.3431 0.0362,-0.072 0.13541,-0.099 0.17158,-0.1716 0.0512,-0.1023 -0.0512,-0.2409 0,-0.3432 0.0362,-0.072 0.13541,-0.099 0.17159,-0.1716 0.0256,-0.051 -0.0256,-0.1204 0,-0.1715 0.21202,-0.4241 0.17158,0.059 0.17158,-0.3432 0,-0.4024 -0.0404,0.081 0.17158,-0.3432 0.034,-0.068 -0.0351,-0.4797 0,-0.5147 0.0404,-0.041 0.13114,0.04 0.17159,0 0.0809,-0.081 -0.0512,-0.2409 0,-0.3432 0.0362,-0.072 0.13541,-0.099 0.17158,-0.1716 0.0256,-0.051 -0.0404,-0.1311 0,-0.1716 0.0404,-0.04 0.13114,0.041 0.17159,0 0.0404,-0.04 -0.0256,-0.1204 0,-0.1716 0.12196,-0.2439 0.2212,-0.099 0.34316,-0.3431 0.0256,-0.051 -0.0256,-0.1204 0,-0.1716 0.0362,-0.072 0.17159,-0.091 0.17159,-0.1716 0,-0.057 -0.11439,0 -0.17159,0"
       id="path4194"
       inkscape:connector-curvature="0" />
    <path
       style="color:#000000;clip-rule:nonzero;display:inline;overflow:visible;visibility:visible;isolation:auto;mix-blend-mode:normal;color-interpolation:sRGB;color-interpolation-filters:linearRGB;solid-color:#000000;solid-opacity:1;fill:#000000;fill-opacity:1;fill-rule:evenodd;stroke:#000000;stroke-width:1.37290037;stroke-linecap:butt;stroke-linejoin:miter;stroke-miterlimit:4;stroke-dasharray:none;stroke-dashoffset:0;stroke-opacity:1;color-rendering:auto;image-rendering:auto;shape-rendering:auto;text-rendering:auto;enable-background:accumulate"
       d="m 139.55922,1111.9808 c -0.22878,0.057 -0.46738,0.084 -0.68634,0.1716 -0.1502,0.06 -0.19847,0.2708 -0.34316,0.3432 -0.0512,0.025 -0.13115,-0.041 -0.17159,0 -0.0404,0.04 0.0404,0.1311 0,0.1716 -0.0404,0.04 -0.13114,-0.041 -0.17158,0 -0.0404,0.04 0.0404,0.1311 0,0.1715 -0.0809,0.081 -0.24086,-0.051 -0.34317,0 -0.0724,0.036 -0.0992,0.1355 -0.17158,0.1716 -0.10232,0.051 -0.26229,-0.081 -0.34317,0 -0.0404,0.041 0.0404,0.1312 0,0.1716 -0.0413,0.041 -0.64505,-0.041 -0.68634,0 -0.0404,0.04 0.0404,0.1312 0,0.1716 -0.0858,0.086 -0.42896,-0.086 -0.51475,0 -0.0404,0.04 0.0404,0.1311 0,0.1716 -0.0404,0.04 -0.11439,0 -0.17158,0 -0.11935,0 -0.79587,-0.031 -0.85792,0 -0.0724,0.036 -0.0992,0.1354 -0.17159,0.1716 -0.0511,0.025 -0.11438,0 -0.17158,0 -0.0572,0 -0.11439,0 -0.17158,0 -0.0897,0 -0.64122,0.023 -0.68634,0 -0.0724,-0.036 -0.0992,-0.1354 -0.17158,-0.1716 -0.0512,-0.026 -0.11439,0 -0.17159,0 -0.0572,0 -0.11439,0 -0.17158,0 -0.40036,0 -0.80073,0 -1.20109,0 -0.0572,0 -0.13114,0.04 -0.17158,0 -0.0404,-0.041 0.0404,-0.1312 0,-0.1716 -0.0531,-0.053 -0.80479,0.053 -0.85792,0 -0.0404,-0.04 0.0404,-0.1312 0,-0.1716 -0.0351,-0.035 -0.44672,0.034 -0.51475,0 -0.56908,-0.5691 0.16177,0.081 -0.34317,-0.1716 -0.0724,-0.036 -0.0992,-0.1354 -0.17158,-0.1716 -0.10232,-0.051 -0.26229,0.081 -0.34317,0 -0.0404,-0.04 0.0404,-0.1311 0,-0.1715 -0.0404,-0.041 -0.12043,0.025 -0.17159,0 -0.0723,-0.036 -0.0992,-0.1355 -0.17158,-0.1716 -0.0512,-0.026 -0.13114,0.04 -0.17158,0 -0.0405,-0.041 0.0404,-0.1312 0,-0.1716 -0.0405,-0.041 -0.13115,0.04 -0.17159,0 -0.0404,-0.041 0.0404,-0.1311 0,-0.1716 -0.0404,-0.04 -0.13114,0.041 -0.17158,0 -0.0404,-0.04 0,-0.1144 0,-0.1716 -0.0572,0 -0.12043,0.026 -0.17159,0 -0.0723,-0.036 -0.11439,-0.1144 -0.17158,-0.1716 -0.0572,-0.057 -0.13541,-0.099 -0.17158,-0.1715 -0.0256,-0.051 0.0404,-0.1312 0,-0.1716 -0.0404,-0.041 -0.13115,0.04 -0.17159,0 -0.0404,-0.041 0.0256,-0.1205 0,-0.1716 -0.0362,-0.072 -0.13541,-0.099 -0.17158,-0.1716 -0.0256,-0.051 0.0404,-0.1311 0,-0.1716 -0.0404,-0.04 -0.13114,0.041 -0.17159,0 -0.0809,-0.081 0.0512,-0.2408 0,-0.3432 -0.0362,-0.072 -0.13541,-0.099 -0.17158,-0.1715 -0.0512,-0.1024 0.0512,-0.2409 0,-0.3432 -0.0362,-0.072 -0.13541,-0.099 -0.17158,-0.1716 -0.0261,-0.052 0,-0.4375 0,-0.5147 0,-0.3432 0,-0.6864 0,-1.0295 0,-0.057 0,-0.1144 0,-0.1716 0,-0.057 -0.0404,-0.1312 0,-0.1716 0.0404,-0.041 0.13114,0.04 0.17158,0 0.0469,-0.047 -0.0465,-0.5933 0,-0.6863 0.0362,-0.072 0.13541,-0.099 0.17158,-0.1716 0.0512,-0.1023 -0.0809,-0.2623 0,-0.3432 0.0405,-0.04 0.13115,0.04 0.17159,0 0.0404,-0.04 -0.0256,-0.1204 0,-0.1716 0.0362,-0.072 0.13541,-0.099 0.17158,-0.1716 0.0256,-0.051 -0.0404,-0.1311 0,-0.1716 0.0404,-0.04 0.13114,0.04 0.17159,0 0.0404,-0.04 -0.0256,-0.1204 0,-0.1715 0.35704,-0.7141 -0.0119,0.1834 0.34316,-0.1716 0.0405,-0.041 -0.0404,-0.1312 0,-0.1716 0.0405,-0.04 0.13115,0.04 0.17159,0 0.0404,-0.04 -0.0404,-0.1311 0,-0.1716 0.0404,-0.04 0.12043,0.026 0.17158,0 0.0724,-0.036 0.0992,-0.1354 0.17159,-0.1716 0.0511,-0.026 0.13114,0.04 0.17158,0 0.0404,-0.04 -0.0404,-0.1311 0,-0.1715 0.0404,-0.041 0.13114,0.04 0.17158,0 0.0404,-0.041 -0.0404,-0.1312 0,-0.1716 0.45756,0 -0.0572,0.057 0.17159,-0.1716 0.0404,-0.04 0.12042,0.026 0.17158,0 0.0724,-0.036 0.0992,-0.1354 0.17159,-0.1716 0.0512,-0.026 0.13114,0.04 0.17158,0 0.0404,-0.04 -0.0404,-0.1311 0,-0.1716 0.0809,-0.081 0.26228,0.081 0.34317,0 0.0404,-0.04 -0.0405,-0.1311 0,-0.1716 0.0858,-0.086 0.42896,0.086 0.51475,0 0.0404,-0.04 -0.0404,-0.1311 0,-0.1716 0.0809,-0.081 0.24085,0.051 0.34317,0 0.0723,-0.036 0.0992,-0.1354 0.17158,-0.1715 0.0444,-0.022 0.90788,0 1.0295,0 0.11935,0 0.79587,-0.031 0.85792,0 0.0724,0.036 0.0992,0.1354 0.17159,0.1715 0.0451,0.023 0.59661,0 0.68633,0 0.0572,0 0.11439,0 0.17159,0 0.0572,0 0.13114,-0.04 0.17158,0 0.0404,0.041 -0.0404,0.1312 0,0.1716 0.008,0.01 0.77702,0 0.85792,0 0.0572,0 0.13114,-0.04 0.17158,0 0.0404,0.041 -0.0404,0.1312 0,0.1716 0.0413,0.041 0.64505,-0.041 0.68634,0 0.0404,0.041 -0.0404,0.1312 0,0.1716 0.0404,0.04 0.13114,-0.04 0.17158,0 0.0404,0.04 -0.0404,0.1311 0,0.1716 0.0351,0.035 0.44672,-0.034 0.51476,0 0.0723,0.036 0.0992,0.1354 0.17158,0.1716 0.0512,0.025 0.13114,-0.041 0.17158,0 0.0404,0.04 -0.0404,0.1311 0,0.1716 0.0404,0.04 0.13114,-0.041 0.17159,0 0.0404,0.04 -0.0404,0.1311 0,0.1715 0.0809,0.081 0.26228,-0.081 0.34317,0 0.0404,0.04 -0.0404,0.1312 0,0.1716 0.0404,0.041 0.13114,-0.04 0.17158,0 0.0404,0.041 -0.0404,0.1312 0,0.1716 0.0404,0.04 0.12043,-0.026 0.17158,0 0.74196,0.371 -0.39879,-0.028 0.34317,0.3432 0.0512,0.025 0.13114,-0.04 0.17158,0 0.0404,0.04 -0.0404,0.1311 0,0.1715 0.0404,0.04 0.13115,-0.04 0.17159,0 0.0404,0.04 -0.0404,0.1312 0,0.1716 0.0404,0.041 0.12043,-0.025 0.17158,0 0.14469,0.072 0.19848,0.2709 0.34317,0.3432 0.0512,0.026 0.13114,-0.04 0.17158,0 0.0405,0.04 -0.0256,0.1204 0,0.1716 0.0362,0.072 0.13541,0.099 0.17159,0.1716 0.0256,0.051 -0.0404,0.1311 0,0.1716 0.0404,0.04 0.13114,-0.04 0.17158,0 0.0404,0.04 -0.0404,0.1311 0,0.1715 0.0404,0.04 0.12043,-0.026 0.17159,0 0.0723,0.036 0.0992,0.1355 0.17158,0.1716 0.0512,0.026 0.13114,-0.04 0.17158,0 0.0404,0.041 -0.0404,0.1312 0,0.1716 0.0404,0.04 0.13114,-0.04 0.17159,0 0.0404,0.04 -0.0404,0.1311 0,0.1716 0.0404,0.04 0.12042,-0.026 0.17158,0 0.0724,0.036 0.0992,0.1354 0.17159,0.1716 0.0512,0.026 0.13114,-0.04 0.17158,0 0.0404,0.04 -0.0404,0.1311 0,0.1716 0.0404,0.04 0.13114,-0.041 0.17158,0 0.0809,0.081 -0.0512,0.2408 0,0.3431 0.0362,0.072 0.13541,0.099 0.17159,0.1716 0.0511,0.1023 -0.0809,0.2623 0,0.3432 0.0404,0.04 0.13114,-0.041 0.17158,0 0.007,0.01 0,0.6233 0,0.6863 0,0.057 0.0404,0.1312 0,0.1716 -0.0404,0.04 -0.13114,-0.04 -0.17158,0 -0.0809,0.081 0.0809,0.2623 0,0.3432 -0.0405,0.04 -0.12043,-0.026 -0.17159,0 -0.0723,0.036 -0.0992,0.1354 -0.17158,0.1715 -0.0512,0.026 -0.13114,-0.04 -0.17158,0 -0.0404,0.041 0.0404,0.1312 0,0.1716 -0.0404,0.041 -0.13115,-0.04 -0.17159,0 -0.0404,0.041 0.0404,0.1312 0,0.1716 -0.0404,0.041 -0.12043,-0.026 -0.17158,0 -0.0724,0.036 -0.0992,0.1354 -0.17159,0.1716 -0.0512,0.026 -0.13114,-0.04 -0.17158,0 -0.0404,0.04 0.0404,0.1311 0,0.1716 -0.0404,0.04 -0.13114,-0.041 -0.17158,0 -0.0405,0.04 0,0.1144 0,0.1716 -0.22878,0.1716 -0.45756,0.3431 -0.68634,0.5147 z"
       id="path4196"
       inkscape:connector-curvature="0" />
    <path
       style="color:#000000;clip-rule:nonzero;display:inline;overflow:visible;visibility:visible;isolation:auto;mix-blend-mode:normal;color-interpolation:sRGB;color-interpolation-filters:linearRGB;solid-color:#000000;solid-opacity:1;fill:none;fill-opacity:1;fill-rule:evenodd;stroke:#000000;stroke-width:1.37290037;stroke-linecap:butt;stroke-linejoin:miter;stroke-miterlimit:4;stroke-dasharray:none;stroke-dashoffset:0;stroke-opacity:1;color-rendering:auto;image-rendering:auto;shape-rendering:auto;text-rendering:auto;enable-background:accumulate"
       d="m 144.70674,1109.5786 c -0.0572,-0.2287 -0.0661,-0.4754 -0.17159,-0.6863 -0.0256,-0.051 -0.13114,0.04 -0.17158,0 -0.0404,-0.04 0.0256,-0.1204 0,-0.1716 -0.0362,-0.072 -0.13541,-0.099 -0.17158,-0.1716 -0.0256,-0.051 0,-0.1143 0,-0.1715 -0.0572,-0.057 -0.13542,-0.099 -0.17159,-0.1716 -0.0256,-0.051 0.0256,-0.1205 0,-0.1716 -0.56907,-0.5691 0.0809,0.1618 -0.17158,-0.3432 -0.0724,-0.1447 -0.27082,-0.1984 -0.34317,-0.3431 -0.0256,-0.051 0.0256,-0.1205 0,-0.1716 -0.0362,-0.072 -0.13541,-0.099 -0.17158,-0.1716 -0.0512,-0.1023 0.0809,-0.2623 0,-0.3432 -0.0404,-0.04 -0.13115,0.04 -0.17159,0 -0.0404,-0.04 0.0256,-0.1204 0,-0.1716 -0.0362,-0.072 -0.13541,-0.099 -0.17158,-0.1716 -0.0256,-0.051 0.0404,-0.1311 0,-0.1715 -0.0404,-0.04 -0.13114,0.04 -0.17159,0 -0.0404,-0.04 0.0256,-0.1205 0,-0.1716 -0.0362,-0.072 -0.13541,-0.099 -0.17158,-0.1716 -0.0256,-0.051 0.0404,-0.1311 0,-0.1716 -0.0404,-0.04 -0.13114,0.041 -0.17158,0 -0.0404,-0.04 0.0256,-0.1204 0,-0.1716 -0.0362,-0.072 -0.13541,-0.099 -0.17159,-0.1715 -0.0256,-0.051 0.0256,-0.1205 0,-0.1716 -0.0723,-0.1447 -0.27082,-0.1985 -0.34316,-0.3432 -0.0256,-0.051 0.0404,-0.1311 0,-0.1716 -0.0404,-0.04 -0.13115,0.041 -0.17159,0 -0.0404,-0.04 0.0404,-0.1311 0,-0.1716 -0.0404,-0.04 -0.13114,0.041 -0.17158,0 -0.0351,-0.035 0.034,-0.4467 0,-0.5147 -0.0362,-0.072 -0.13541,-0.099 -0.17159,-0.1716 -0.0256,-0.051 0.0256,-0.1204 0,-0.1716 -0.0362,-0.072 -0.13541,-0.099 -0.17158,-0.1716 -0.0256,-0.051 0.0404,-0.1311 0,-0.1716 -0.0404,-0.04 -0.13114,0.041 -0.17158,0 -0.0404,-0.04 0.0256,-0.1204 0,-0.1715 -0.0362,-0.072 -0.13542,-0.099 -0.17159,-0.1716 -0.0256,-0.051 0,-0.1144 0,-0.1716 -0.0572,-0.057 -0.13541,-0.099 -0.17158,-0.1716 -0.0256,-0.051 0.0404,-0.1311 0,-0.1716 -0.0404,-0.04 -0.13114,0.041 -0.17159,0 -0.0404,-0.04 0.0404,-0.1311 0,-0.1716 -0.0404,-0.04 -0.13114,0.041 -0.17158,0 -0.0404,-0.04 0.0404,-0.1311 0,-0.1716 -0.0404,-0.04 -0.11439,0 -0.17158,0 -0.0572,0 -0.11439,0 -0.17159,0 -0.0572,0 -0.13114,-0.04 -0.17158,0 -0.0404,0.041 0.0404,0.1312 0,0.1716 -0.0404,0.041 -0.12043,-0.025 -0.17159,0 -0.0723,0.036 -0.0992,0.1354 -0.17158,0.1716 -0.10231,0.051 -0.26228,-0.081 -0.34317,0 -0.0404,0.041 0.0404,0.1312 0,0.1716 -0.0809,0.081 -0.26228,-0.081 -0.34317,0 -0.0404,0.04 0.0404,0.1312 0,0.1716 -0.0404,0.04 -0.12042,-0.026 -0.17158,0 -0.0724,0.036 -0.0992,0.1354 -0.17158,0.1716 -0.10232,0.051 -0.26229,-0.081 -0.34317,0 -0.0404,0.04 0.0404,0.1311 0,0.1716 -0.0809,0.081 -0.26228,-0.081 -0.34317,0 -0.0404,0.04 0.0404,0.1311 0,0.1715 -0.0809,0.081 -0.26228,-0.081 -0.34317,0 -0.0404,0.041 0.0404,0.1312 0,0.1716 -0.0404,0.041 -0.13114,-0.04 -0.17158,0 -0.0404,0.041 0.0404,0.1312 0,0.1716 -0.0809,0.081 -0.24086,-0.051 -0.34317,0 -0.0723,0.036 -0.0992,0.1354 -0.17158,0.1716 -0.10232,0.051 -0.26228,-0.081 -0.34317,0 -0.0404,0.04 0.0404,0.1311 0,0.1716 -0.0404,0.04 -0.13114,-0.041 -0.17158,0 -0.0404,0.04 0.0404,0.1311 0,0.1716 -0.0404,0.04 -0.13115,-0.041 -0.17159,0 -0.0404,0.04 0.0404,0.1311 0,0.1715 -0.0809,0.081 -0.26228,-0.081 -0.34317,0 -0.22877,0.2288 0.28598,0.1716 -0.17158,0.1716"
       id="path4198"
       inkscape:connector-curvature="0" />
    <path
       style="color:#000000;clip-rule:nonzero;display:inline;overflow:visible;visibility:visible;isolation:auto;mix-blend-mode:normal;color-interpolation:sRGB;color-interpolation-filters:linearRGB;solid-color:#000000;solid-opacity:1;fill:none;fill-opacity:1;fill-rule:evenodd;stroke:#000000;stroke-width:1.37290037;stroke-linecap:butt;stroke-linejoin:miter;stroke-miterlimit:4;stroke-dasharray:none;stroke-dashoffset:0;stroke-opacity:1;color-rendering:auto;image-rendering:auto;shape-rendering:auto;text-rendering:auto;enable-background:accumulate"
       d="m 162.20829,1121.2464 c 0.11439,-0.2288 0.1897,-0.4818 0.34317,-0.6864 0.0686,-0.091 0.24085,0.051 0.34317,0 0.0723,-0.036 0.0992,-0.1354 0.17158,-0.1716 0.10231,-0.051 0.24086,0.051 0.34317,0 0.0723,-0.036 0.0992,-0.1354 0.17158,-0.1716 0.0512,-0.025 0.12043,0.026 0.17159,0 0.0723,-0.036 0.0992,-0.1354 0.17158,-0.1715 0.0512,-0.026 0.12043,0.025 0.17159,0 0.14469,-0.072 0.19847,-0.2709 0.34317,-0.3432 0.10231,-0.051 0.24085,0.051 0.34316,0 0.0724,-0.036 0.0949,-0.146 0.17159,-0.1716 0.10851,-0.036 0.23464,0.036 0.34317,0 0.0767,-0.026 0.0992,-0.1354 0.17157,-0.1716 0.0512,-0.025 0.12043,0.026 0.17159,0 0.14469,-0.072 0.19848,-0.2708 0.34316,-0.3431 0.0512,-0.026 0.12043,0.026 0.17159,0 0.0723,-0.036 0.0992,-0.1355 0.17158,-0.1716 0.0512,-0.026 0.12043,0.026 0.17159,0 0.0723,-0.036 0.0992,-0.1354 0.17158,-0.1716 0.0512,-0.026 0.12043,0.026 0.17159,0 0.0723,-0.036 0.0992,-0.1354 0.17158,-0.1716 0.0512,-0.026 0.12043,0.026 0.17159,0 0.0723,-0.036 0.0992,-0.1354 0.17158,-0.1716 0.0512,-0.026 0.12043,0.026 0.17158,0 0.0724,-0.036 0.0992,-0.1354 0.17159,-0.1716 0.0512,-0.025 0.12043,0.026 0.17158,0 0.0724,-0.036 0.0992,-0.1354 0.17159,-0.1715 0.0512,-0.026 0.12042,0.025 0.17158,0 0.14469,-0.072 0.19847,-0.2709 0.34317,-0.3432 0.10231,-0.051 0.26228,0.081 0.34317,0 0.0404,-0.041 -0.0404,-0.1312 0,-0.1716 0.0404,-0.04 0.12043,0.026 0.17158,0 0.0724,-0.036 0.0992,-0.1354 0.17159,-0.1716 0.0511,-0.026 0.12043,0.026 0.17157,0 0.0724,-0.036 0.0992,-0.1354 0.17159,-0.1716 0.10231,-0.051 0.24085,0.051 0.34316,0 0.0724,-0.036 0.0992,-0.1354 0.17159,-0.1715 0.0512,-0.026 0.12043,0.025 0.17158,0 0.0724,-0.036 0.0992,-0.1355 0.17159,-0.1716 0.0512,-0.026 0.11733,0.018 0.17158,0 0.12134,-0.041 0.22185,-0.1312 0.34317,-0.1716 0.10852,-0.036 0.24086,0.051 0.34317,0 0.0723,-0.036 0.0948,-0.146 0.17158,-0.1716 0.16278,-0.054 0.35198,0.054 0.51476,0 0.97213,-0.4861 -0.25579,0.064 0.68633,-0.1716 0.12408,-0.031 0.22184,-0.1311 0.34317,-0.1716 0.16441,-0.055 0.69896,0.053 0.85791,0 0.0767,-0.025 0.0949,-0.146 0.17159,-0.1715 0.15896,-0.053 0.69351,0.055 0.85792,0 0.12133,-0.041 0.22184,-0.1312 0.34317,-0.1716 0.0543,-0.018 0.11732,0.018 0.17158,0 0.12133,-0.04 0.22185,-0.1312 0.34317,-0.1716 0.15443,-0.052 0.36033,0.052 0.51476,0 0.0767,-0.026 0.0948,-0.146 0.17158,-0.1716 0.15442,-0.051 0.36032,0.052 0.51475,0 0.97214,-0.4861 -0.25579,0.064 0.68633,-0.1716 0.24814,-0.062 0.43819,-0.2811 0.68634,-0.3432 0.11097,-0.028 0.23465,0.036 0.34317,0 0.0767,-0.025 0.0949,-0.146 0.17158,-0.1715 0.10852,-0.036 0.2322,0.028 0.34317,0 0.12407,-0.031 0.22184,-0.1312 0.34317,-0.1716 0.0543,-0.018 0.11732,0.018 0.17158,0 0.12133,-0.04 0.22184,-0.1312 0.34317,-0.1716 0.0542,-0.018 0.11732,0.018 0.17159,0 0.12132,-0.04 0.22183,-0.1311 0.34316,-0.1716 0.11803,-0.039 0.41351,0.051 0.51476,0 0.0723,-0.036 0.0992,-0.1354 0.17157,-0.1716 0.0352,-0.018 0.49056,-0.024 0.51475,0 0.0405,0.041 -0.0256,0.1205 0,0.1716 0.0362,0.072 0.11439,0.1144 0.17159,0.1716 0.0572,0.057 0.11439,0.1144 0.17158,0.1716 0.17159,0.1716 0.34317,0.3431 0.51476,0.5147 0.11439,0.1144 0.20856,0.2535 0.34316,0.3432 0.10641,0.071 0.23676,0.1006 0.34317,0.1716 0.23605,0.1574 0.17647,0.2647 0.34317,0.5147 0.0449,0.067 0.11439,0.1144 0.17159,0.1716 0.39341,0.3934 -0.10853,-0.072 0.51475,0.3432 0.0673,0.045 0.10428,0.1267 0.17158,0.1716 0.10641,0.071 0.25274,0.081 0.34316,0.1716 0.0904,0.09 0.0812,0.2527 0.1716,0.3431 0.0904,0.091 0.23675,0.1007 0.34316,0.1716 0.0673,0.045 0.10429,0.1267 0.17158,0.1716 0.10642,0.071 0.25273,0.081 0.34317,0.1716 0.0904,0.09 0.0812,0.2527 0.17158,0.3431 0.0904,0.091 0.23676,0.1007 0.34317,0.1716 0.0673,0.045 0.10428,0.1267 0.17159,0.1716 0.1064,0.071 0.23676,0.1006 0.34316,0.1716 0.0673,0.045 0.10429,0.1267 0.17159,0.1716 0.10641,0.071 0.25273,0.081 0.34317,0.1716 0.0904,0.09 0.10064,0.2367 0.17158,0.3431 0.0449,0.067 0.11439,0.1144 0.17159,0.1716 0.0572,0.057 0.10428,0.1267 0.17158,0.1716 0.10641,0.071 0.23675,0.1006 0.34317,0.1716 0.13459,0.09 0.22878,0.2288 0.34317,0.3431 0.22878,0.2288 0.45756,0.4576 0.68633,0.6864 0.11438,0.1144 0.20857,0.2534 0.34316,0.3432 0.0864,0.378 0.35299,0.091 0.51476,0.1715 0.071,0.036 0.46627,0.4421 0.51475,0.5148 0.0709,0.1064 0.10064,0.2367 0.17158,0.3432 0.0897,0.1346 0.27083,0.1984 0.34317,0.3431 0.0256,0.051 -0.0256,0.1204 0,0.1716 0.0844,0.1688 0.60192,0.5175 0.68634,0.6863 0.0256,0.051 -0.0256,0.1205 0,0.1716 0.0397,0.08 0.58542,0.5854 0.68634,0.6864 0.0572,0.057 0.11439,0.1144 0.17157,0.1715 0.0572,0.057 0.13541,0.099 0.1716,0.1716 0.0256,0.051 -0.0256,0.1205 0,0.1716 0.0844,0.1689 0.6019,0.5175 0.68632,0.6864 0.0256,0.051 -0.0256,0.1204 0,0.1715 0.15795,0.3159 0.35682,0.027 0.51476,0.3432 0.0256,0.051 -0.0256,0.1204 0,0.1716 0.0362,0.072 0.13541,0.099 0.17158,0.1716 0.0256,0.051 -0.0256,0.1204 0,0.1715 0.18969,0.3794 0.1065,0.053 0.34317,0.1716 0.10929,0.055 0.72309,0.7231 0.85792,0.858 0.10092,0.1009 0.64661,0.6068 0.68634,0.6863 0.0256,0.051 -0.0256,0.1204 0,0.1716 0.0844,0.1688 0.60191,0.5175 0.68634,0.6863 0.0256,0.051 -0.0256,0.1204 0,0.1716 0.0723,0.1447 0.27081,0.1985 0.34315,0.3432 0.0256,0.051 -0.0404,0.1311 0,0.1715 0.0404,0.041 0.12043,-0.025 0.17159,0 0.7141,0.3571 -0.18342,-0.012 0.17158,0.3432 0.0404,0.041 0.13114,-0.04 0.17159,0 0.0809,0.081 -0.0809,0.2623 0,0.3432 0.0404,0.04 0.13114,-0.041 0.17158,0 0.0404,0.04 -0.0256,0.1204 0,0.1716 0.35705,0.7141 -0.0119,-0.1835 0.34317,0.1715 0.0404,0.041 -0.0404,0.1312 0,0.1716 0.0404,0.041 0.13114,-0.04 0.17159,0 0.0404,0.041 -0.0404,0.1312 0,0.1716 0.0531,0.053 0.80479,-0.053 0.85792,0 0.0404,0.041 -0.0404,0.1312 0,0.1716 0.0469,0.047 0.59324,-0.046 0.68633,0 0.0724,0.036 0.0992,0.1354 0.17159,0.1716 0.0512,0.026 0.11439,0 0.17158,0 0.11439,0 0.23465,-0.036 0.34316,0 0.0767,0.026 0.0992,0.1354 0.1716,0.1716 0.0511,0.025 0.11732,-0.018 0.17157,0 0.12134,0.04 0.2191,0.1405 0.34317,0.1716 0.26915,0.067 0.58877,-0.067 0.85792,0 0.12407,0.031 0.22184,0.1311 0.34317,0.1715 0.0543,0.018 0.11732,-0.018 0.17158,0 0.12133,0.041 0.2191,0.1406 0.34317,0.1716 0.94212,0.2355 -0.28581,-0.3145 0.68634,0.1716 0.97214,0.4861 -0.25578,-0.064 0.68634,0.1716 0.12407,0.031 0.21775,0.1465 0.34317,0.1716 0.16825,0.034 0.34649,-0.034 0.51474,0 0.25082,0.05 0.43819,0.2811 0.68634,0.3431 0.59431,0.1486 0.10305,-0.2172 0.68633,0.1716 0.39264,0.2618 -0.10728,0.1358 0.51476,0.3432 0.0543,0.018 0.11732,-0.018 0.17158,0 0.12133,0.04 0.22184,0.1311 0.34317,0.1716 0.0542,0.018 0.12043,-0.026 0.17158,0 0.0724,0.036 0.0992,0.1354 0.17159,0.1716 0.068,0.034 0.47966,-0.035 0.51474,0 0.0404,0.04 -0.0404,0.1311 0,0.1715 0.0404,0.041 0.1716,-0.057 0.1716,0 0,0.057 -0.11439,0 -0.1716,0 -0.0572,0 -0.11438,0 -0.17157,0 -0.0572,0 -0.12043,0.026 -0.17159,0 -0.0724,-0.036 -0.11439,-0.1143 -0.17158,-0.1715"
       id="path4204"
       inkscape:connector-curvature="0" />
    <path
       style="color:#000000;clip-rule:nonzero;display:inline;overflow:visible;visibility:visible;isolation:auto;mix-blend-mode:normal;color-interpolation:sRGB;color-interpolation-filters:linearRGB;solid-color:#000000;solid-opacity:1;fill:none;fill-opacity:1;fill-rule:evenodd;stroke:#000000;stroke-width:1.37290037;stroke-linecap:butt;stroke-linejoin:miter;stroke-miterlimit:4;stroke-dasharray:none;stroke-dashoffset:0;stroke-opacity:1;color-rendering:auto;image-rendering:auto;shape-rendering:auto;text-rendering:auto;enable-background:accumulate"
       d="m 162.72304,1114.2114 c 0.22878,-0.1716 0.45756,-0.3432 0.68634,-0.5147 0.0572,0 0.12043,0.025 0.17158,0 0.0724,-0.036 0.0992,-0.1354 0.17159,-0.1716 0.0511,-0.026 0.12043,0.026 0.17158,0 0.0724,-0.036 0.0992,-0.1354 0.17159,-0.1716 0.0512,-0.026 0.12042,0.026 0.17158,0 0.0724,-0.036 0.0992,-0.1354 0.17159,-0.1716 0.0512,-0.026 0.12042,0.026 0.17158,0 0.0723,-0.036 0.0992,-0.1354 0.17158,-0.1716 0.0512,-0.026 0.12043,0.026 0.17159,0 0.0723,-0.036 0.0992,-0.1354 0.17158,-0.1716 0.0512,-0.025 0.11438,0 0.17159,0 0.11439,-0.057 0.23675,-0.1006 0.34316,-0.1715 0.0673,-0.045 0.0992,-0.1355 0.17158,-0.1716 0.0512,-0.026 0.12043,0.025 0.17158,0 0.0724,-0.036 0.10429,-0.1267 0.17159,-0.1716 0.10642,-0.071 0.23676,-0.1007 0.34317,-0.1716 0.0673,-0.045 0.0992,-0.1354 0.17158,-0.1716 0.0512,-0.026 0.11439,0 0.17159,0 0.11439,-0.057 0.23676,-0.1006 0.34317,-0.1716 0.0673,-0.045 0.11438,-0.1144 0.17158,-0.1715 0.11439,-0.057 0.23676,-0.1007 0.34317,-0.1716 0.0673,-0.045 0.0948,-0.146 0.17158,-0.1716 0.10852,-0.036 0.23464,0.036 0.34317,0 0.0767,-0.026 0.10428,-0.1267 0.17159,-0.1716 0.1064,-0.071 0.23675,-0.1006 0.34316,-0.1716 0.1346,-0.09 0.20857,-0.2534 0.34317,-0.3432 0.0864,-0.378 0.35298,-0.091 0.51475,-0.1715 0.0724,-0.036 0.10429,-0.1268 0.17158,-0.1716 0.10642,-0.071 0.23676,-0.1007 0.34317,-0.1716 0.0673,-0.045 0.0992,-0.1354 0.17158,-0.1716 0.0512,-0.026 0.11732,0.018 0.17159,0 1.24285,-0.4143 -0.27052,0.049 0.51475,-0.3431 0.0512,-0.026 0.12043,0.025 0.17158,0 0.14469,-0.072 0.19849,-0.2709 0.34317,-0.3432 0.0512,-0.026 0.12043,0.026 0.17159,0 0.0723,-0.036 0.0992,-0.1354 0.17158,-0.1716 0.0512,-0.026 0.12043,0.026 0.17159,0 0.0723,-0.036 0.0992,-0.1354 0.17158,-0.1716 0.0512,-0.026 0.12043,0.026 0.17159,0 0.0723,-0.036 0.0992,-0.1354 0.17158,-0.1716 0.0512,-0.026 0.12043,0.026 0.17158,0 0.0724,-0.036 0.0992,-0.1354 0.17159,-0.1716 0.0512,-0.025 0.12043,0.026 0.17158,0 0.0724,-0.036 0.0992,-0.1354 0.17159,-0.1715 0.0511,-0.026 0.13114,0.04 0.17157,0 0.0404,-0.041 -0.0404,-0.1312 0,-0.1716 0.0404,-0.04 0.12043,0.026 0.17159,0 0.0724,-0.036 0.0992,-0.1354 0.17158,-0.1716 0.0512,-0.026 0.12043,0.026 0.17158,0 0.0724,-0.036 0.0992,-0.1354 0.17159,-0.1716 0.10231,-0.051 0.24085,0.051 0.34317,0 0.0723,-0.036 0.0992,-0.1354 0.17158,-0.1716 0.0512,-0.026 0.13114,0.041 0.17159,0 0.0404,-0.04 -0.0405,-0.1311 0,-0.1716 0.0404,-0.04 0.12042,0.026 0.17158,0 0.0723,-0.036 0.0992,-0.1354 0.17158,-0.1715 0.0512,-0.026 0.13114,0.04 0.17159,0 0.0404,-0.04 -0.0404,-0.1312 0,-0.1716 0.0404,-0.041 0.12043,0.026 0.17158,0 0.0724,-0.036 0.0992,-0.1354 0.17159,-0.1716 0.0512,-0.026 0.12043,0.026 0.17158,0 0.14469,-0.072 0.19847,-0.2708 0.34317,-0.3432 0.0512,-0.026 0.12043,0.026 0.17159,0 0.14468,-0.072 0.19847,-0.2708 0.34316,-0.3432 0.0512,-0.026 0.12043,0.026 0.17159,0 0.0723,-0.036 0.0992,-0.1354 0.17158,-0.1715 0.0512,-0.026 0.12042,0.025 0.17159,0 0.14469,-0.072 0.19847,-0.2709 0.34316,-0.3432 0.0511,-0.026 0.12042,0.026 0.17158,0 0.20591,-0.1029 0.30886,-0.4118 0.51475,-0.5147 0.0512,-0.026 0.12043,0.025 0.17159,0 0.1447,-0.072 0.19848,-0.2709 0.34317,-0.3432 0.0512,-0.026 0.12042,0.026 0.17158,0 0.20591,-0.103 0.30885,-0.4118 0.51475,-0.5148 0.0512,-0.026 0.12043,0.026 0.17159,0 0.0455,-0.023 0.49197,-0.4692 0.51475,-0.5147 0.0256,-0.051 -0.0256,-0.1205 0,-0.1716 0.35704,-0.7141 -0.0119,0.1834 0.34317,-0.1716 0.0404,-0.04 -0.0404,-0.1311 0,-0.1716 0.0404,-0.04 0.13114,0.041 0.17158,0 0,-0.4575 -0.0572,0.057 0.17159,-0.1716 0.0763,-0.076 -0.13346,-0.3241 0.17157,-0.1715 0.37939,0.1896 0.0532,0.1065 0.1716,0.3431 0.0723,0.1447 0.27081,0.1985 0.34316,0.3432 0.0256,0.051 -0.0256,0.1204 0,0.1716 0.10295,0.2059 0.41181,0.3088 0.51475,0.5147 0.0256,0.051 -0.0256,0.1205 0,0.1716 0.0362,0.072 0.11439,0.1144 0.17158,0.1716 0.17159,0.1716 0.34317,0.3432 0.51476,0.5148 0.0572,0.057 0.12671,0.1042 0.17158,0.1715 0.0709,0.1064 0.0812,0.2528 0.17158,0.3432 0.0904,0.09 0.23676,0.1006 0.34317,0.1716 0.0673,0.045 0.11439,0.1144 0.17159,0.1716 0.0572,0.057 0.12671,0.1043 0.17158,0.1715 0.1667,0.2501 0.10712,0.3574 0.34317,0.5148 0.25004,0.1667 0.35738,0.1071 0.51475,0.3432 0.071,0.1064 0.10065,0.2367 0.17159,0.3431 0.0897,0.1346 0.25342,0.2086 0.34317,0.3432 0.0709,0.1064 0.10064,0.2368 0.17157,0.3432 0.0897,0.1346 0.25344,0.2085 0.34317,0.3431 0.0709,0.1065 0.10064,0.2368 0.17158,0.3432 0.10413,0.1562 0.43872,0.3627 0.51476,0.5148 0.0256,0.051 -0.0256,0.1204 0,0.1716 0.0723,0.1446 0.25343,0.2085 0.34317,0.3431 0.0709,0.1064 0.10064,0.2368 0.17158,0.3432 0.0897,0.1346 0.27082,0.1985 0.34317,0.3431 0.0256,0.051 -0.0256,0.1205 0,0.1716 0.0362,0.072 0.11439,0.1144 0.17158,0.1716 0.0572,0.057 0.11439,0.1144 0.17159,0.1716 0.22878,0.2288 0.45756,0.4576 0.68633,0.6863 0.10989,0.1099 0.52577,0.5793 0.68633,0.6864 0.10642,0.071 0.25275,0.081 0.34317,0.1716 0.41674,0.4167 -0.051,0.2519 0.34317,0.5147 0.62328,0.4155 0.12134,-0.05 0.51475,0.3432 0.28598,0.2859 0.57195,0.5719 0.85792,0.8579 0.0903,0.09 0.42312,0.4689 0.51476,0.5147 0.0512,0.026 0.13114,-0.04 0.17158,0 0.0404,0.041 -0.0256,0.1205 0,0.1716 0.0362,0.072 0.11439,0.1144 0.17159,0.1716 0.10091,0.1009 0.6466,0.6069 0.68633,0.6864 0.0256,0.051 -0.0256,0.1204 0,0.1715 0.0362,0.072 0.11439,0.1144 0.17159,0.1716 0.0572,0.057 0.0992,0.1354 0.17157,0.1716 0.23668,0.1183 0.15349,-0.2078 0.34317,0.1716 0.11835,0.2367 -0.20779,0.1535 0.17159,0.3432 0.23668,0.1183 0.15348,-0.2078 0.34316,0.1715 0.0256,0.051 -0.0404,0.1312 0,0.1716 0.006,0.01 0.47314,0 0.51476,0 0.34317,0 0.68633,0 1.0295,0 0.0572,0 0.13114,-0.04 0.17159,0 0.0404,0.041 -0.0405,0.1312 0,0.1716 0.0404,0.04 0.11439,0 0.17158,0 0.0572,0 0.11439,0 0.17159,0 0.12161,0 0.98514,-0.022 1.02949,0 0.0724,0.036 0.0992,0.1354 0.1716,0.1716 0.062,0.031 0.73857,0 0.85791,0 0.34317,0 0.68634,0 1.0295,0 0.0572,0 0.11439,0 0.17159,0 0.0572,0 0.12043,-0.026 0.17158,0 0.42405,0.212 0.10254,0.1716 0,0.1716"
       id="path4206"
       inkscape:connector-curvature="0" />
    <path
       style="color:#000000;clip-rule:nonzero;display:inline;overflow:visible;visibility:visible;isolation:auto;mix-blend-mode:normal;color-interpolation:sRGB;color-interpolation-filters:linearRGB;solid-color:#000000;solid-opacity:1;fill:none;fill-opacity:1;fill-rule:evenodd;stroke:#000000;stroke-width:1.37290037;stroke-linecap:butt;stroke-linejoin:miter;stroke-miterlimit:4;stroke-dasharray:none;stroke-dashoffset:0;stroke-opacity:1;color-rendering:auto;image-rendering:auto;shape-rendering:auto;text-rendering:auto;enable-background:accumulate"
       d="m 161.46206,1117.1135 c -3.96338,0 -7.92677,0 -11.89015,0 -0.64709,0 -1.29417,0 -1.94125,0 -0.20545,0 -0.84017,0.043 -0.97063,0 -0.10852,-0.036 -0.14034,-0.1915 -0.24265,-0.2426 -0.13164,-0.066 -0.90423,0.066 -0.97063,0 -0.0572,-0.057 0.0572,-0.1855 0,-0.2427 -0.0496,-0.05 -0.63176,0.048 -0.72797,0 -0.10231,-0.051 -0.14034,-0.1915 -0.24265,-0.2426 -0.0724,-0.036 -0.18547,0.057 -0.24266,0 -0.0572,-0.057 0.0572,-0.1855 0,-0.2427 -0.0496,-0.05 -0.63176,0.048 -0.72797,0 -0.10231,-0.051 -0.14034,-0.1915 -0.24265,-0.2426 -0.1447,-0.072 -0.37093,0.1144 -0.48532,0 -0.0572,-0.057 0.0572,-0.1855 0,-0.2427 -0.11439,-0.1144 -0.37092,0.1144 -0.48531,0 -0.0572,-0.057 0.0572,-0.1855 0,-0.2426 -0.11439,-0.1144 -0.37092,0.1143 -0.48531,0 -0.0572,-0.057 0.0572,-0.1855 0,-0.2427 -0.0572,-0.057 -0.17031,0.036 -0.24266,0 -0.20462,-0.1023 -0.28069,-0.383 -0.48531,-0.4853 -0.0724,-0.036 -0.18546,0.057 -0.24266,0 -0.0572,-0.057 0.0572,-0.1855 0,-0.2427 -0.0572,-0.057 -0.18546,0.057 -0.24265,0 -0.50207,-0.502 0.76722,0.02 -0.24266,-0.4853 -0.0724,-0.036 -0.18546,0.057 -0.24266,0 -0.0572,-0.057 0.0362,-0.1703 0,-0.2426 -0.0511,-0.1024 -0.1915,-0.1404 -0.24265,-0.2427 -0.0362,-0.072 0.0572,-0.1855 0,-0.2427 -0.50207,-0.502 0.0196,0.7673 -0.48532,-0.2426 -0.0362,-0.072 0,-0.1618 0,-0.2427 0,-0.081 0,-0.1617 0,-0.2426 0,-0.4045 0,-0.8089 0,-1.2133"
       id="path4217"
       inkscape:connector-curvature="0" />
  </g>
</svg>
