<?xml version="1.0" encoding="UTF-8" standalone="no"?>
<!-- Created with Inkscape (http://www.inkscape.org/) -->

<svg
   xmlns:dc="http://purl.org/dc/elements/1.1/"
   xmlns:cc="http://creativecommons.org/ns#"
   xmlns:rdf="http://www.w3.org/1999/02/22-rdf-syntax-ns#"
   xmlns:svg="http://www.w3.org/2000/svg"
   xmlns="http://www.w3.org/2000/svg"
   xmlns:xlink="http://www.w3.org/1999/xlink"
   xmlns:sodipodi="http://sodipodi.sourceforge.net/DTD/sodipodi-0.dtd"
   xmlns:inkscape="http://www.inkscape.org/namespaces/inkscape"
   width="177.16534"
   height="106.29497"
   id="svg2"
   version="1.1"
   inkscape:version="0.91 r13725"
   sodipodi:docname="del_me.svg">
  <defs
     id="defs4" />
  <sodipodi:namedview
     id="base"
     pagecolor="#ffffff"
     bordercolor="#666666"
     borderopacity="1.0"
     inkscape:pageopacity="0.0"
     inkscape:pageshadow="2"
     inkscape:zoom="0.41912678"
     inkscape:cx="288.28502"
     inkscape:cy="-213.21421"
     inkscape:document-units="cm"
     inkscape:current-layer="layer1"
     showgrid="false"
     fit-margin-top="0"
     fit-margin-left="0"
     fit-margin-right="0"
     fit-margin-bottom="0"
     inkscape:window-width="1330"
     inkscape:window-height="747"
     inkscape:window-x="36"
     inkscape:window-y="21"
     inkscape:window-maximized="1"
     units="cm" />
  <metadata
     id="metadata7">
    <rdf:RDF>
      <cc:Work
         rdf:about="">
        <dc:format>image/svg+xml</dc:format>
        <dc:type
           rdf:resource="http://purl.org/dc/dcmitype/StillImage" />
        <dc:title></dc:title>
      </cc:Work>
    </rdf:RDF>
  </metadata>
  <g
     inkscape:label="Layer 1"
     inkscape:groupmode="layer"
     id="layer1"
     transform="translate(-32.228633,-1064.9324)">
    <path
       style="color:#000000;clip-rule:nonzero;display:inline;overflow:visible;visibility:visible;opacity:1;isolation:auto;mix-blend-mode:normal;color-interpolation:sRGB;color-interpolation-filters:linearRGB;solid-color:#000000;solid-opacity:1;fill:#000000;fill-opacity:1;fill-rule:evenodd;stroke:#000000;stroke-width:1.38269389;stroke-linecap:butt;stroke-linejoin:miter;stroke-miterlimit:4;stroke-dasharray:none;stroke-dashoffset:0;stroke-opacity:1;color-rendering:auto;image-rendering:auto;shape-rendering:auto;text-rendering:auto;enable-background:accumulate"
       d="m 386.10918,941.33682 c 0.31859,0 0.63721,0 0.95583,0 0.0455,0 0.10435,-0.032 0.13653,0 0.0322,0.032 -0.0322,0.1044 0,0.1366 0.0644,0.064 0.19169,-0.041 0.2731,0 0.0576,0.029 0.079,0.1077 0.13656,0.1365 0.0407,0.02 0.091,0 0.13652,0 0.091,0.045 0.18843,0.08 0.27311,0.1366 0.0536,0.036 0.0755,0.1162 0.13656,0.1365 0.0863,0.029 0.18477,-0.022 0.27308,0 0.6436,0.1609 -0.0974,0.1122 0.54619,0.2731 0.0883,0.022 0.18477,-0.022 0.2731,0 0.19746,0.049 0.35306,0.2087 0.54619,0.2731 0.0432,0.014 0.091,0 0.13653,0 0.091,0 0.18673,-0.029 0.27311,0 0.0611,0.02 0.079,0.1078 0.13655,0.1365 0.0814,0.041 0.19167,-0.041 0.27308,0 0.45288,0.4529 -0.12872,-0.064 0.27311,0.1366 0.0576,0.029 0.079,0.1078 0.13653,0.1365 0.0541,0.027 0.38174,-0.028 0.40966,0 0.0322,0.032 -0.0322,0.1044 0,0.1366 0.0322,0.032 0.091,0 0.13653,0 0.0455,0 0.091,0 0.13655,0 0.0455,0 0.091,0 0.13655,0 0.0455,0 0.0958,-0.02 0.13656,0 0.0576,0.029 0.079,0.1077 0.13652,0.1365 0.0416,0.021 0.34816,0 0.40964,0 0.0455,0 0.10438,0.032 0.13655,0 0.0644,-0.064 -0.0644,-0.2087 0,-0.2731 0.0322,-0.032 0.10438,0.032 0.13656,0 0.004,0 0,-0.3765 0,-0.4096 0,-0.4096 0,-0.8193 0,-1.2289 0,-0.071 0.018,-0.5103 0,-0.5462 -0.0288,-0.058 -0.10777,-0.079 -0.13656,-0.1366 -0.0204,-0.041 0,-0.091 0,-0.1365 0,-0.045 0,-0.091 0,-0.1366 0,-0.2275 0,-0.4551 0,-0.6827 0,-0.045 0.0204,-0.096 0,-0.1365 -0.0288,-0.058 -0.10774,-0.079 -0.13655,-0.1366 -0.0431,-0.086 0.0431,-0.5966 0,-0.6827 -0.0288,-0.058 -0.10775,-0.079 -0.13653,-0.1366 -0.0546,-0.1092 0.0546,-0.3004 0,-0.4096 -0.0288,-0.058 -0.10777,-0.079 -0.13655,-0.1366 -0.0407,-0.081 0.0407,-0.1916 0,-0.273 -0.0288,-0.058 -0.10777,-0.079 -0.13656,-0.1366 -0.0407,-0.081 0.0407,-0.1917 0,-0.2731 -0.0288,-0.058 -0.10774,-0.079 -0.13652,-0.1365 -0.073,-0.1459 0.0729,-0.1272 0,-0.2731 -0.0288,-0.058 -0.10777,-0.079 -0.13656,-0.1366 -0.0546,-0.1092 0.0546,-0.3004 0,-0.4096 -0.0576,-0.1152 -0.21551,-0.158 -0.2731,-0.2731 -0.0407,-0.081 0.0407,-0.1917 0,-0.2731 -0.0288,-0.058 -0.10775,-0.079 -0.13653,-0.1366 -0.0204,-0.041 0.0322,-0.1043 0,-0.1365 -0.0322,-0.032 -0.10438,0.032 -0.13656,0 0,-0.3641 0.0455,0.045 -0.13655,-0.1365 -0.0683,-0.068 0.0683,-0.3414 0,-0.4097 -0.0322,-0.032 -0.10435,0.032 -0.13655,0 -0.0322,-0.032 0.0203,-0.096 0,-0.1365 -0.0288,-0.058 -0.10775,-0.079 -0.13653,-0.1366 -0.0204,-0.041 0.0322,-0.1043 0,-0.1365 -0.0322,-0.032 -0.10438,0.032 -0.13655,0 -0.0644,-0.064 0.0644,-0.2088 0,-0.2731 -0.0322,-0.032 -0.10438,0.032 -0.13656,0 -0.0322,-0.032 0.0322,-0.1044 0,-0.1366 -0.0322,-0.032 -0.10435,0.032 -0.13655,0 -0.0322,-0.032 0.0322,-0.1043 0,-0.1365 -0.0322,-0.032 -0.10436,0.032 -0.13653,0 -0.28253,-0.2825 0.43171,0.011 -0.13655,-0.2731 -0.0407,-0.02 -0.10438,0.032 -0.13656,0 -0.0322,-0.032 0.0322,-0.1044 0,-0.1366 -0.0644,-0.064 -0.20873,0.064 -0.27308,0 -0.0322,-0.032 0.0322,-0.1043 0,-0.1365 -0.0322,-0.032 -0.0958,0.02 -0.13655,0 -0.0576,-0.029 -0.079,-0.1078 -0.13656,-0.1366 -0.0407,-0.02 -0.10435,0.032 -0.13655,0 -0.0322,-0.032 0.0322,-0.1043 0,-0.1365 -0.0322,-0.032 -0.0958,0.02 -0.13653,0 -0.0576,-0.029 -0.079,-0.1078 -0.13655,-0.1365 -0.0407,-0.02 -0.10435,0.032 -0.13655,0 -0.0322,-0.032 0.0322,-0.1044 0,-0.1366 -0.0644,-0.064 -0.20874,0.064 -0.27309,0 -0.0322,-0.032 0.0322,-0.1044 0,-0.1365 -0.0683,-0.068 -0.34137,0.068 -0.40966,0 -0.0322,-0.032 0.0322,-0.1044 0,-0.1366 -0.0373,-0.037 -0.4721,0.037 -0.54619,0 -0.0576,-0.029 -0.079,-0.1077 -0.13652,-0.1365 -0.0494,-0.025 -0.58776,0 -0.68275,0 -0.0331,0 -0.40525,0 -0.40963,0 -0.0322,0.032 0.0322,0.1043 0,0.1365 -0.0322,0.032 -0.10438,-0.032 -0.13655,0 -0.0322,0.032 0.0322,0.1044 0,0.1366 -0.0322,0.032 -0.10436,-0.032 -0.13656,0 -0.0322,0.032 0.0322,0.1043 0,0.1365 -0.0643,0.064 -0.2087,-0.064 -0.27308,0 -0.0322,0.032 0.0322,0.1044 0,0.1366 -0.0322,0.032 -0.10438,-0.032 -0.13655,0 -0.0322,0.032 0,0.091 0,0.1365 -0.0455,0 -0.0959,-0.02 -0.13656,0 -0.30191,0.151 -0.0424,0.085 -0.13652,0.2731 -0.0288,0.058 -0.10778,0.079 -0.13656,0.1365 -0.0204,0.041 0.0322,0.1044 0,0.1366 -0.0322,0.032 -0.10438,-0.032 -0.13655,0 -0.0644,0.064 0.0644,0.2087 0,0.2731 -0.0322,0.032 -0.10435,-0.032 -0.13656,0 -0.0643,0.064 0.0407,0.1917 0,0.2731 -0.0288,0.058 -0.10774,0.079 -0.13652,0.1365 -0.0204,0.041 0.0322,0.1044 0,0.1366 -0.0322,0.032 -0.10438,-0.032 -0.13656,0 -0.0644,0.064 0.0644,0.2087 0,0.2731 -0.0322,0.032 -0.10438,-0.032 -0.13655,0 -0.0683,0.068 0.0683,0.3413 0,0.4096 -0.0322,0.032 -0.10435,-0.032 -0.13655,0 -0.0329,0.033 0.0329,0.5133 0,0.5462 -0.0322,0.032 -0.10436,-0.032 -0.13653,0 -0.0479,0.048 0.0472,0.5884 0,0.6827 -0.0288,0.058 -0.10777,0.079 -0.13656,0.1366 -0.0177,0.035 0,0.7225 0,0.8193 0,0.6372 0,1.2744 0,1.9116 0,0.064 -0.006,0.6766 0,0.6828 0.0322,0.032 0.10436,-0.032 0.13656,0 0.0644,0.064 -0.0644,0.2087 0,0.273 0.0322,0.032 0.10435,-0.032 0.13653,0 0.0322,0.032 -0.0322,0.1044 0,0.1366 0.0322,0.032 0.10437,-0.032 0.13655,0 0.0322,0.032 -0.0204,0.096 0,0.1365 0.0576,0.1152 0.21552,0.158 0.27311,0.2731 0.0203,0.041 -0.0322,0.1044 0,0.1366 0.2825,0.2825 -0.011,-0.4317 0.27308,0.1365 0.0204,0.041 -0.0322,0.1044 0,0.1366 0.0322,0.032 0.0958,-0.02 0.13655,0 0.0576,0.029 0.0734,0.1239 0.13656,0.1365 0.17851,0.036 0.39468,-0.101 0.54618,0 0.16936,0.1129 0.15096,0.3834 0.27309,0.5462 0.0273,0.036 0.10435,-0.032 0.13655,0 0.0322,0.032 -0.0322,0.1044 0,0.1366 0.18206,0.182 0.13655,-0.2276 0.13655,0.1365"
       id="path6150"
       inkscape:connector-curvature="0" />
    <path
       style="color:#000000;clip-rule:nonzero;display:inline;overflow:visible;visibility:visible;opacity:1;isolation:auto;mix-blend-mode:normal;color-interpolation:sRGB;color-interpolation-filters:linearRGB;solid-color:#000000;solid-opacity:1;fill:none;fill-opacity:1;fill-rule:evenodd;stroke:#000000;stroke-width:1.38269389;stroke-linecap:butt;stroke-linejoin:miter;stroke-miterlimit:4;stroke-dasharray:none;stroke-dashoffset:0;stroke-opacity:1;color-rendering:auto;image-rendering:auto;shape-rendering:auto;text-rendering:auto;enable-background:accumulate"
       d="m 383.24169,949.66622 c 0.36412,-0.1821 0.71439,-0.395 1.09237,-0.5462 0.11336,-0.045 1.16414,0 1.36546,0 0.91032,0 1.82063,0 2.73095,0 0.18206,0 0.36412,0 0.54619,0 0.18206,0 0.36955,0.044 0.54618,0 0.19749,-0.049 0.35309,-0.2087 0.54619,-0.2731 0.23869,-0.08 1.47407,0.082 1.63857,0 0.11515,-0.058 0.15795,-0.2155 0.27308,-0.2731 0.0814,-0.041 0.18206,0 0.27311,0 0.091,0 0.18206,0 0.27308,0 0.45517,0 0.91031,0 1.36548,0"
       id="path6152"
       inkscape:connector-curvature="0" />
    <path
       style="color:#000000;clip-rule:nonzero;display:inline;overflow:visible;visibility:visible;opacity:1;isolation:auto;mix-blend-mode:normal;color-interpolation:sRGB;color-interpolation-filters:linearRGB;solid-color:#000000;solid-opacity:1;fill:none;fill-opacity:1;fill-rule:evenodd;stroke:#000000;stroke-width:1.38269389;stroke-linecap:butt;stroke-linejoin:miter;stroke-miterlimit:4;stroke-dasharray:none;stroke-dashoffset:0;stroke-opacity:1;color-rendering:auto;image-rendering:auto;shape-rendering:auto;text-rendering:auto;enable-background:accumulate"
       d="m 393.89235,947.75452 c 0.18207,-0.3641 0.395,-0.7144 0.54619,-1.0923 0.0676,-0.1691 -0.0814,-0.3834 0,-0.5462 0.0576,-0.1152 0.21552,-0.158 0.27308,-0.2731 0.0407,-0.081 -0.0407,-0.1917 0,-0.2731 0.0576,-0.1152 0.21555,-0.158 0.27311,-0.2731 0.0407,-0.081 -0.0407,-0.1917 0,-0.2731 0.11513,-0.2303 0.43103,-0.3159 0.54619,-0.5462 0.0407,-0.081 0,-0.1821 0,-0.2731 0.091,-0.1821 0.16017,-0.3768 0.27308,-0.5462 0.0714,-0.1071 0.21552,-0.1579 0.27311,-0.2731 0.0407,-0.081 -0.0288,-0.1867 0,-0.2731 0.0644,-0.1931 0.18206,-0.3641 0.27308,-0.5462 0.091,-0.182 0.1602,-0.3768 0.27311,-0.5461 0.0714,-0.1072 0.20168,-0.166 0.27308,-0.2731 0.11291,-0.1694 0.16019,-0.3769 0.27311,-0.5462 0.0714,-0.1071 0.21551,-0.158 0.27308,-0.2731 0.0407,-0.081 -0.0407,-0.1917 0,-0.2731 0.0576,-0.1152 0.21551,-0.158 0.2731,-0.2731 0.0407,-0.081 -0.0407,-0.1917 0,-0.2731 0.0576,-0.1151 0.21552,-0.1579 0.27309,-0.2731 0.0407,-0.081 -0.0407,-0.1917 0,-0.2731 0.0576,-0.1151 0.21551,-0.1579 0.2731,-0.2731 0.0407,-0.081 -0.0288,-0.1867 0,-0.2731 0.0643,-0.1931 0.20871,-0.3531 0.27308,-0.5462 0.0288,-0.086 -0.0407,-0.1916 0,-0.2731 0.0576,-0.1151 0.20169,-0.1659 0.27311,-0.2731 0.11291,-0.1693 0.16017,-0.3768 0.27308,-0.5461 0.0714,-0.1072 0.21552,-0.158 0.27311,-0.2731 0.0407,-0.082 -0.0407,-0.1917 0,-0.2731 0.0576,-0.1152 0.21552,-0.158 0.27308,-0.2731 0.0814,-0.1629 -0.0814,-0.3834 0,-0.5462 0.0576,-0.1152 0.21552,-0.158 0.27311,-0.2731 0.0407,-0.081 -0.0407,-0.1917 0,-0.2731 0.11513,-0.2303 0.43103,-0.3159 0.54619,-0.5462 0.0407,-0.081 -0.0288,-0.1867 0,-0.2731 0.65936,-1.9781 -0.0788,0.4306 0.54619,-0.8193 0.0407,-0.081 -0.0407,-0.1916 0,-0.2731 0.11513,-0.2302 0.43103,-0.3159 0.54619,-0.5461 0.0407,-0.081 -0.0407,-0.1917 0,-0.2731 0.0576,-0.1152 0.21551,-0.158 0.27308,-0.2731 0.0407,-0.081 -0.0407,-0.1917 0,-0.2731 0.0576,-0.1152 0.21551,-0.158 0.2731,-0.2731 0.0407,-0.081 -0.0407,-0.1917 0,-0.2731 0.0576,-0.1152 0.21552,-0.158 0.27309,-0.2731 0.0407,-0.081 -0.0644,-0.2087 0,-0.2731 0.0644,-0.064 0.19166,0.041 0.2731,0 0.60381,-0.3019 0.0847,-0.1695 0.27308,-0.5462 0.11516,-0.2303 0.43104,-0.3159 0.54619,-0.5462 0.0407,-0.081 -0.0407,-0.1917 0,-0.2731 0.11516,-0.2303 0.43104,-0.3159 0.54619,-0.5462 0.0407,-0.081 -0.0644,-0.2087 0,-0.2731 0.0644,-0.064 0.20873,0.064 0.27308,0 0.0644,-0.064 -0.0407,-0.1916 0,-0.273 0.0576,-0.1152 0.21555,-0.158 0.27311,-0.2731 0.0407,-0.082 -0.0644,-0.2088 0,-0.2731 0.0644,-0.064 0.20873,0.064 0.27308,0 0.0644,-0.064 -0.0407,-0.1917 0,-0.2731 0.11516,-0.2303 0.43106,-0.3159 0.54619,-0.5462 0.0407,-0.081 -0.0407,-0.1917 0,-0.2731 0.0576,-0.1152 0.21554,-0.158 0.27311,-0.2731 0.0407,-0.081 -0.0644,-0.2087 0,-0.2731 0.0644,-0.064 0.20873,0.064 0.27308,0 0.12875,-0.1287 -0.12873,-0.4175 0,-0.5462 0.0644,-0.064 0.20873,0.064 0.27311,0 0.12872,-0.1287 -0.12875,-0.4174 0,-0.5462 0.0644,-0.064 0.20873,0.064 0.27308,0 0.12875,-0.1287 -0.12873,-0.4174 0,-0.5462 0.0644,-0.064 0.20873,0.064 0.27311,0 0.0644,-0.064 -0.0644,-0.2087 0,-0.2731 0.0644,-0.064 0.20873,0.064 0.27308,0 0.0558,-0.056 -0.0541,-0.711 0,-0.8192 0.0576,-0.1152 0.21551,-0.158 0.2731,-0.2731 0.0407,-0.082 -0.0644,-0.2088 0,-0.2731 0.0644,-0.064 0.20874,0.064 0.27309,0 0.12875,-0.1288 -0.12873,-0.4175 0,-0.5462 0.0644,-0.064 0.20873,0.064 0.2731,0 0.13656,-0.1366 -0.13655,-0.6828 0,-0.8193 0.0644,-0.064 0.20874,0.064 0.27308,0 0.12876,-0.1287 -0.0814,-0.3833 0,-0.5462 0.0576,-0.1151 0.21552,-0.1579 0.27311,-0.2731 0.0814,-0.1628 -0.0814,-0.3833 0,-0.5462 0.0576,-0.1151 0.21552,-0.1579 0.27308,-0.2731 0.0814,-0.1628 -0.12872,-0.4174 0,-0.5462 0.0644,-0.064 0.20874,-0.064 0.27311,0 0.0643,0.064 0,0.1821 0,0.2731"
       id="path6154"
       inkscape:connector-curvature="0" />
    <path
       style="color:#000000;clip-rule:nonzero;display:inline;overflow:visible;visibility:visible;opacity:1;isolation:auto;mix-blend-mode:normal;color-interpolation:sRGB;color-interpolation-filters:linearRGB;solid-color:#000000;solid-opacity:1;fill:none;fill-opacity:1;fill-rule:evenodd;stroke:#000000;stroke-width:1.38269389;stroke-linecap:butt;stroke-linejoin:miter;stroke-miterlimit:4;stroke-dasharray:none;stroke-dashoffset:0;stroke-opacity:1;color-rendering:auto;image-rendering:auto;shape-rendering:auto;text-rendering:auto;enable-background:accumulate"
       d="m 382.42239,948.84692 c -0.49656,-0.7808 0.60629,-0.9394 0.8193,-1.3655 0.0814,-0.1628 -0.0814,-0.3833 0,-0.5461 0.0576,-0.1152 0.21551,-0.158 0.27308,-0.2731 0.0814,-0.1629 -0.12873,-0.4175 0,-0.5462 0.0644,-0.064 0.20873,0.064 0.27311,0 0.13655,-0.1366 -0.13656,-0.6828 0,-0.8193 0.0644,-0.064 0.20873,0.064 0.27308,0 0.0644,-0.064 -0.0407,-0.1917 0,-0.2731 0.0576,-0.1152 0.21554,-0.158 0.2731,-0.2731 0.0407,-0.081 -0.0288,-0.1867 0,-0.2731 0.0644,-0.1931 0.20874,-0.3531 0.27309,-0.5462 0.0288,-0.086 -0.0407,-0.1917 0,-0.2731 0.0576,-0.1151 0.21554,-0.1579 0.2731,-0.2731 0.0407,-0.081 -0.0407,-0.1916 0,-0.2731 0.0576,-0.1151 0.21552,-0.1579 0.27308,-0.2731 0.0407,-0.081 -0.0407,-0.1916 0,-0.2731 0.0576,-0.1151 0.21552,-0.1579 0.27311,-0.273 0.10923,-0.2185 -0.10923,-0.6009 0,-0.8193 0.0576,-0.1152 0.21552,-0.158 0.27308,-0.2731 0.0407,-0.081 0,-0.1821 0,-0.2731 0.091,-0.1821 0.1602,-0.3768 0.27311,-0.5462 0.4166,-0.6249 0.21617,0.1708 0.54619,-0.8193 0.0288,-0.086 -0.0288,-0.1867 0,-0.2731 0.091,-0.182 0.18206,-0.3641 0.27308,-0.5462 0,-0.091 -0.0288,-0.1867 0,-0.2731 0.0644,-0.1931 0.20873,-0.353 0.27311,-0.5462 0.0288,-0.086 -0.0288,-0.1867 0,-0.273 0.65936,-1.9782 -0.0788,0.4305 0.54619,-0.8193 0.0407,-0.081 0,-0.1821 0,-0.2731 0.091,-0.1821 0.16017,-0.3768 0.27308,-0.5462 0.0714,-0.1071 0.2324,-0.151 0.27311,-0.2731 0.0576,-0.1727 -0.0576,-0.3735 0,-0.5462 0.0407,-0.1221 0.23237,-0.151 0.27308,-0.2731 0.0576,-0.1727 -0.0576,-0.3735 0,-0.5462 0.0814,-0.2442 0.43103,-0.3159 0.54619,-0.5462 0.0407,-0.081 -0.0407,-0.1916 0,-0.2731 0.0576,-0.1151 0.21551,-0.1579 0.2731,-0.2731 0.0407,-0.081 -0.0407,-0.1916 0,-0.273 0.0576,-0.1152 0.21552,-0.158 0.27308,-0.2731 0.0407,-0.082 -0.0407,-0.1917 0,-0.2731 0.0576,-0.1152 0.21552,-0.158 0.27311,-0.2731 0.0814,-0.1629 -0.12875,-0.4175 0,-0.5462 0.0643,-0.064 0.20871,0.064 0.27308,0 0.0644,-0.064 -0.0407,-0.1917 0,-0.2731 0.0576,-0.1152 0.21552,-0.158 0.27311,-0.2731 0.0407,-0.081 -0.0644,-0.2087 0,-0.2731 0.0644,-0.064 0.20871,0.064 0.27308,0 0.0644,-0.064 -0.0407,-0.1917 0,-0.2731 0.16385,-0.3277 0.65542,-0.4916 0.8193,-0.8193 0.0407,-0.081 -0.0407,-0.1916 0,-0.2731 0.0729,-0.1458 0.67549,-0.6755 0.81927,-0.8192 0.18206,-0.1821 0.40337,-0.332 0.54619,-0.5462 0.11291,-0.1694 0.16019,-0.3769 0.27308,-0.5462 0.15711,-0.2357 0.60597,-0.606 0.81929,-0.8193 0.091,-0.091 0.21552,-0.158 0.27309,-0.2731 0.0407,-0.081 -0.0407,-0.1917 0,-0.2731 0.0576,-0.1151 0.21554,-0.1579 0.2731,-0.2731 0.0814,-0.1628 -0.12875,-0.4174 0,-0.5462 0.0644,-0.064 0.20873,0.064 0.27308,0 0.12876,-0.1287 -0.12872,-0.4174 0,-0.5462 0.0644,-0.064 0.20874,0.064 0.27311,0 0.0644,-0.064 -0.0407,-0.1916 0,-0.2731 0.0576,-0.1151 0.18206,-0.182 0.27308,-0.2731 0.091,-0.091 0.15795,-0.2155 0.27311,-0.273 0.0814,-0.041 0.20873,0.064 0.27308,0 0.0644,-0.064 -0.0407,-0.1917 0,-0.2731 0.0576,-0.1152 0.18206,-0.1821 0.27311,-0.2731 0.091,-0.091 0.18206,-0.1821 0.27308,-0.2731 0.091,-0.091 0.21552,-0.158 0.27311,-0.2731 0.0407,-0.081 -0.0407,-0.1917 0,-0.2731 0.11513,-0.2303 0.43103,-0.3159 0.54619,-0.5462 0.0407,-0.081 -0.0644,-0.2087 0,-0.2731 0.0644,-0.064 0.27308,-0.091 0.27308,0 0,0.091 -0.27308,0.091 -0.27308,0 0,-0.1287 0.27308,-0.1444 0.27308,-0.2731 0,-0.091 -0.20871,-0.064 -0.27308,0 -0.0644,0.064 0,0.1821 0,0.2731"
       id="path6156"
       inkscape:connector-curvature="0" />
    <path
       style="color:#000000;clip-rule:nonzero;display:inline;overflow:visible;visibility:visible;opacity:1;isolation:auto;mix-blend-mode:normal;color-interpolation:sRGB;color-interpolation-filters:linearRGB;solid-color:#000000;solid-opacity:1;fill:none;fill-opacity:1;fill-rule:evenodd;stroke:#000000;stroke-width:1.38269389;stroke-linecap:butt;stroke-linejoin:miter;stroke-miterlimit:4;stroke-dasharray:none;stroke-dashoffset:0;stroke-opacity:1;color-rendering:auto;image-rendering:auto;shape-rendering:auto;text-rendering:auto;enable-background:accumulate"
       d="m 387.88428,945.02362 c 0,0.3641 -0.0883,0.7391 0,1.0924 0.0222,0.088 0.20873,-0.064 0.27311,0 0.0845,0.085 -0.0846,1.2809 0,1.3654 0.0643,0.064 0.2087,-0.064 0.27308,0 0.0123,0.012 0,1.2367 0,1.3655 0,0.091 -0.0644,0.2087 0,0.2731 0.0644,0.064 0.20873,-0.064 0.2731,0 0.0643,0.064 0,0.1821 0,0.2731 0,0.4552 0,0.9103 0,1.3655 0,0.091 -0.0644,0.2087 0,0.2731 0.0643,0.064 0.20871,-0.064 0.27309,0 0.009,0.01 0,0.753 0,0.8192 0,0.8193 0,1.6386 0,2.4579 0,0.2312 -0.0489,0.9456 0,1.0924 0.0407,0.1221 0.21551,0.1579 0.2731,0.2731 0.0407,0.081 0,0.182 0,0.2731 0,0.091 0,0.182 0,0.273 0,0.3266 -0.0594,1.4604 0,1.6386 0.0643,0.1931 0.22371,0.3487 0.27308,0.5462 0.0662,0.2649 0,0.5462 0,0.8193 0,0.5462 0,1.0924 0,1.6385 0,0.065 -0.0306,1.0312 0,1.0924 0.0576,0.1152 0.21552,0.158 0.27311,0.2731 0.0829,0.1658 -0.0829,1.4728 0,1.6386 0.0576,0.1151 0.21552,0.1579 0.27308,0.2731 0.0861,0.1723 -0.0861,1.1932 0,1.3654 0.0576,0.1152 0.21552,0.158 0.27311,0.2731 0.0866,0.1733 -0.0887,1.1881 0,1.3655 0.0576,0.1152 0.21552,0.158 0.27308,0.2731 0.0813,0.1626 -0.0766,1.1355 0,1.3655 0.0644,0.1931 0.20873,0.3531 0.27311,0.5462 0.0808,0.2423 -0.0894,1.1866 0,1.3654 0.0576,0.1152 0.21552,0.158 0.27308,0.2731 0.0407,0.081 0,0.1821 0,0.2731 0,0.091 0,0.1821 0,0.2731 0,0.4552 0,0.9103 0,1.3655"
       id="path6158"
       inkscape:connector-curvature="0" />
    <g
       id="g4195"
       transform="translate(0.08394554,-0.37242586)">
      <path
         inkscape:connector-curvature="0"
         id="path6378"
         d="m 90.831618,1083.1558 c -4.457593,-3.093 -4.978509,-14.7245 1.388524,-15.5452 8.080578,-0.3928 10.469798,12.9256 2.476763,14.9286 -0.978112,0.3525 -2.036824,-0.023 -2.920492,0.6166"
         style="color:#000000;clip-rule:nonzero;display:inline;overflow:visible;visibility:visible;opacity:1;isolation:auto;mix-blend-mode:normal;color-interpolation:sRGB;color-interpolation-filters:linearRGB;solid-color:#000000;solid-opacity:1;fill:#000000;fill-opacity:1;fill-rule:evenodd;stroke:#000000;stroke-width:1.37309527;stroke-linecap:butt;stroke-linejoin:miter;stroke-miterlimit:4;stroke-dasharray:none;stroke-dashoffset:0;stroke-opacity:1;color-rendering:auto;image-rendering:auto;shape-rendering:auto;text-rendering:auto;enable-background:accumulate" />
      <path
         inkscape:connector-curvature="0"
         id="path6380"
         d="m 102.79904,1088.8246 c -4.133236,-0.2422 -8.22846,-0.9119 -12.282354,-1.7321"
         style="color:#000000;clip-rule:nonzero;display:inline;overflow:visible;visibility:visible;opacity:1;isolation:auto;mix-blend-mode:normal;color-interpolation:sRGB;color-interpolation-filters:linearRGB;solid-color:#000000;solid-opacity:1;fill:none;fill-opacity:1;fill-rule:evenodd;stroke:#000000;stroke-width:1.37309527;stroke-linecap:butt;stroke-linejoin:miter;stroke-miterlimit:4;stroke-dasharray:none;stroke-dashoffset:0;stroke-opacity:1;color-rendering:auto;image-rendering:auto;shape-rendering:auto;text-rendering:auto;enable-background:accumulate" />
      <path
         inkscape:connector-curvature="0"
         id="path6382"
         d="m 91.46148,1088.5097 c -1.73499,4.6767 3.729109,16.5819 -5.267152,13.6057 -2.678883,-0.7162 -5.235159,-1.8502 -7.645063,-3.213"
         style="color:#000000;clip-rule:nonzero;display:inline;overflow:visible;visibility:visible;opacity:1;isolation:auto;mix-blend-mode:normal;color-interpolation:sRGB;color-interpolation-filters:linearRGB;solid-color:#000000;solid-opacity:1;fill:none;fill-opacity:1;fill-rule:evenodd;stroke:#000000;stroke-width:1.37309527;stroke-linecap:butt;stroke-linejoin:miter;stroke-miterlimit:4;stroke-dasharray:none;stroke-dashoffset:0;stroke-opacity:1;color-rendering:auto;image-rendering:auto;shape-rendering:auto;text-rendering:auto;enable-background:accumulate" />
      <path
         inkscape:connector-curvature="0"
         id="path6384"
         d="m 103.58637,1089.297 c 2.32365,6.4681 9.80426,12.1294 6.26454,19.6907 -0.92659,3.8951 -1.58998,7.8689 -2.95775,11.645"
         style="color:#000000;clip-rule:nonzero;display:inline;overflow:visible;visibility:visible;opacity:1;isolation:auto;mix-blend-mode:normal;color-interpolation:sRGB;color-interpolation-filters:linearRGB;solid-color:#000000;solid-opacity:1;fill:none;fill-opacity:1;fill-rule:evenodd;stroke:#000000;stroke-width:1.37309527;stroke-linecap:butt;stroke-linejoin:miter;stroke-miterlimit:4;stroke-dasharray:none;stroke-dashoffset:0;stroke-opacity:1;color-rendering:auto;image-rendering:auto;shape-rendering:auto;text-rendering:auto;enable-background:accumulate" />
      <path
         inkscape:connector-curvature="0"
         id="path6388"
         d="m 96.500396,1087.8798 c 0.815098,9.6897 3.231006,19.3704 1.889594,29.1312"
         style="color:#000000;clip-rule:nonzero;display:inline;overflow:visible;visibility:visible;opacity:1;isolation:auto;mix-blend-mode:normal;color-interpolation:sRGB;color-interpolation-filters:linearRGB;solid-color:#000000;solid-opacity:1;fill:none;fill-opacity:1;fill-rule:evenodd;stroke:#000000;stroke-width:1.37309527;stroke-linecap:butt;stroke-linejoin:miter;stroke-miterlimit:4;stroke-dasharray:none;stroke-dashoffset:0;stroke-opacity:1;color-rendering:auto;image-rendering:auto;shape-rendering:auto;text-rendering:auto;enable-background:accumulate" />
      <path
         inkscape:connector-curvature="0"
         id="path6390"
         d="m 100.59452,1118.2707 c -6.323527,3.686 -17.182902,4.8487 -21.196295,8.5822 2.376233,7.5182 9.680352,13.0556 10.493399,20.9559 -0.302069,2.7666 -1.656516,5.2426 -2.681725,7.7814"
         style="color:#000000;clip-rule:nonzero;display:inline;overflow:visible;visibility:visible;opacity:1;isolation:auto;mix-blend-mode:normal;color-interpolation:sRGB;color-interpolation-filters:linearRGB;solid-color:#000000;solid-opacity:1;fill:none;fill-opacity:1;fill-rule:evenodd;stroke:#000000;stroke-width:1.37309527;stroke-linecap:butt;stroke-linejoin:miter;stroke-miterlimit:4;stroke-dasharray:none;stroke-dashoffset:0;stroke-opacity:1;color-rendering:auto;image-rendering:auto;shape-rendering:auto;text-rendering:auto;enable-background:accumulate" />
      <path
         inkscape:connector-curvature="0"
         id="path6392"
         d="m 93.036144,1118.9006 c -0.498286,8.4503 -7.071724,16.1212 -6.004029,24.2513 0.964091,6.7947 11.164235,14.3299 6.308598,20.3043 -2.055081,1.2827 -4.547438,1.8616 -6.288282,3.6291"
         style="color:#000000;clip-rule:nonzero;display:inline;overflow:visible;visibility:visible;opacity:1;isolation:auto;mix-blend-mode:normal;color-interpolation:sRGB;color-interpolation-filters:linearRGB;solid-color:#000000;solid-opacity:1;fill:none;fill-opacity:1;fill-rule:evenodd;stroke:#000000;stroke-width:1.37309527;stroke-linecap:butt;stroke-linejoin:miter;stroke-miterlimit:4;stroke-dasharray:none;stroke-dashoffset:0;stroke-opacity:1;color-rendering:auto;image-rendering:auto;shape-rendering:auto;text-rendering:auto;enable-background:accumulate" />
      <path
         inkscape:connector-curvature="0"
         id="path6396"
         d="m 146.72239,1069.1771 c 2.86807,-5.9421 12.2535,-2.8391 12.50225,3.2762 0.65479,5.8974 -10.05539,12.5637 -12.61306,5.3375 0.13484,-2.3664 -3.02451,-7.699 0.11081,-8.6137 z"
         style="color:#000000;clip-rule:nonzero;display:inline;overflow:visible;visibility:visible;opacity:1;isolation:auto;mix-blend-mode:normal;color-interpolation:sRGB;color-interpolation-filters:linearRGB;solid-color:#000000;solid-opacity:1;fill:#000000;fill-opacity:1;fill-rule:evenodd;stroke:#000000;stroke-width:1.37309527;stroke-linecap:butt;stroke-linejoin:miter;stroke-miterlimit:4;stroke-dasharray:none;stroke-dashoffset:0;stroke-opacity:1;color-rendering:auto;image-rendering:auto;shape-rendering:auto;text-rendering:auto;enable-background:accumulate" />
      <path
         inkscape:connector-curvature="0"
         id="path6398"
         d="m 161.75401,1085.0994 c -3.57381,-0.01 -7.12681,-0.4404 -10.68915,-0.668"
         style="color:#000000;clip-rule:nonzero;display:inline;overflow:visible;visibility:visible;opacity:1;isolation:auto;mix-blend-mode:normal;color-interpolation:sRGB;color-interpolation-filters:linearRGB;solid-color:#000000;solid-opacity:1;fill:none;fill-opacity:1;fill-rule:evenodd;stroke:#000000;stroke-width:1.37309527;stroke-linecap:butt;stroke-linejoin:miter;stroke-miterlimit:4;stroke-dasharray:none;stroke-dashoffset:0;stroke-opacity:1;color-rendering:auto;image-rendering:auto;shape-rendering:auto;text-rendering:auto;enable-background:accumulate" />
      <path
         inkscape:connector-curvature="0"
         id="path6400"
         d="m 162.64479,1085.6562 c -2.8297,5.0388 -1.23359,18.5747 -9.15385,16.5431 -4.262,-1.3145 -8.5865,-2.4357 -12.7812,-3.9611"
         style="color:#000000;clip-rule:nonzero;display:inline;overflow:visible;visibility:visible;opacity:1;isolation:auto;mix-blend-mode:normal;color-interpolation:sRGB;color-interpolation-filters:linearRGB;solid-color:#000000;solid-opacity:1;fill:none;fill-opacity:1;fill-rule:evenodd;stroke:#000000;stroke-width:1.37309527;stroke-linecap:butt;stroke-linejoin:miter;stroke-miterlimit:4;stroke-dasharray:none;stroke-dashoffset:0;stroke-opacity:1;color-rendering:auto;image-rendering:auto;shape-rendering:auto;text-rendering:auto;enable-background:accumulate" />
      <path
         inkscape:connector-curvature="0"
         id="path6402"
         d="m 150.28544,1085.3221 c 1.62607,4.1504 7.80988,14.6413 -1.44946,11.6133 -2.52817,-0.2594 -5.07285,-0.4244 -7.56951,-0.9241"
         style="color:#000000;clip-rule:nonzero;display:inline;overflow:visible;visibility:visible;opacity:1;isolation:auto;mix-blend-mode:normal;color-interpolation:sRGB;color-interpolation-filters:linearRGB;solid-color:#000000;solid-opacity:1;fill:none;fill-opacity:1;fill-rule:evenodd;stroke:#000000;stroke-width:1.37309527;stroke-linecap:butt;stroke-linejoin:miter;stroke-miterlimit:4;stroke-dasharray:none;stroke-dashoffset:0;stroke-opacity:1;color-rendering:auto;image-rendering:auto;shape-rendering:auto;text-rendering:auto;enable-background:accumulate" />
      <path
         inkscape:connector-curvature="0"
         id="path6404"
         d="m 155.74136,1085.5448 c -0.45588,9.9797 0.33683,20.0421 -1.22479,29.9519"
         style="color:#000000;clip-rule:nonzero;display:inline;overflow:visible;visibility:visible;opacity:1;isolation:auto;mix-blend-mode:normal;color-interpolation:sRGB;color-interpolation-filters:linearRGB;solid-color:#000000;solid-opacity:1;fill:none;fill-opacity:1;fill-rule:evenodd;stroke:#000000;stroke-width:1.37309527;stroke-linecap:butt;stroke-linejoin:miter;stroke-miterlimit:4;stroke-dasharray:none;stroke-dashoffset:0;stroke-opacity:1;color-rendering:auto;image-rendering:auto;shape-rendering:auto;text-rendering:auto;enable-background:accumulate" />
      <path
         inkscape:connector-curvature="0"
         id="path6406"
         d="m 153.95984,1115.3854 c -8.42763,-0.5048 -16.63855,2.4864 -24.72491,4.2269 -0.0821,5.8878 8.28482,10.8079 10.23153,17.2679 2.96712,4.008 -2.42832,7.6404 -2.87649,11.9088"
         style="color:#000000;clip-rule:nonzero;display:inline;overflow:visible;visibility:visible;opacity:1;isolation:auto;mix-blend-mode:normal;color-interpolation:sRGB;color-interpolation-filters:linearRGB;solid-color:#000000;solid-opacity:1;fill:none;fill-opacity:1;fill-rule:evenodd;stroke:#000000;stroke-width:1.37309527;stroke-linecap:butt;stroke-linejoin:miter;stroke-miterlimit:4;stroke-dasharray:none;stroke-dashoffset:0;stroke-opacity:1;color-rendering:auto;image-rendering:auto;shape-rendering:auto;text-rendering:auto;enable-background:accumulate" />
      <path
         inkscape:connector-curvature="0"
         id="path6408"
         d="m 154.40522,1117.3896 c 2.6099,13.0082 0.39046,26.6122 4.42105,39.4116 3.01639,8.6757 -3.75071,11.985 -10.65639,14.1455"
         style="color:#000000;clip-rule:nonzero;display:inline;overflow:visible;visibility:visible;opacity:1;isolation:auto;mix-blend-mode:normal;color-interpolation:sRGB;color-interpolation-filters:linearRGB;solid-color:#000000;solid-opacity:1;fill:none;fill-opacity:1;fill-rule:evenodd;stroke:#000000;stroke-width:1.37309527;stroke-linecap:butt;stroke-linejoin:miter;stroke-miterlimit:4;stroke-dasharray:none;stroke-dashoffset:0;stroke-opacity:1;color-rendering:auto;image-rendering:auto;shape-rendering:auto;text-rendering:auto;enable-background:accumulate" />
    </g>
    <image
       sodipodi:absref="/home/maurizio/GitBook/Library/mau21710/gli-appunti/figures/exercises/reverse_crunch.png"
       xlink:href="reverse_crunch.png"
       width="737.5"
       height="442.5"
       preserveAspectRatio="none"
       id="image4219"
       x="230.72943"
       y="1433.1248" />
  </g>
</svg>
