<?xml version="1.0" encoding="UTF-8" standalone="no"?>
<!-- Created with Inkscape (http://www.inkscape.org/) -->

<svg
   xmlns:dc="http://purl.org/dc/elements/1.1/"
   xmlns:cc="http://creativecommons.org/ns#"
   xmlns:rdf="http://www.w3.org/1999/02/22-rdf-syntax-ns#"
   xmlns:svg="http://www.w3.org/2000/svg"
   xmlns="http://www.w3.org/2000/svg"
   xmlns:xlink="http://www.w3.org/1999/xlink"
   xmlns:sodipodi="http://sodipodi.sourceforge.net/DTD/sodipodi-0.dtd"
   xmlns:inkscape="http://www.inkscape.org/namespaces/inkscape"
   width="177.16534"
   height="106.29497"
   id="svg2"
   version="1.1"
   inkscape:version="0.91 r13725"
   sodipodi:docname="dumbbell_biceps_curl.svg">
  <defs
     id="defs4" />
  <sodipodi:namedview
     id="base"
     pagecolor="#ffffff"
     bordercolor="#666666"
     borderopacity="1.0"
     inkscape:pageopacity="0.0"
     inkscape:pageshadow="2"
     inkscape:zoom="1.3929176"
     inkscape:cx="118.44176"
     inkscape:cy="-127.36243"
     inkscape:document-units="cm"
     inkscape:current-layer="layer1"
     showgrid="false"
     fit-margin-top="0"
     fit-margin-left="0"
     fit-margin-right="0"
     fit-margin-bottom="0"
     inkscape:window-width="1330"
     inkscape:window-height="747"
     inkscape:window-x="36"
     inkscape:window-y="21"
     inkscape:window-maximized="1"
     units="cm" />
  <metadata
     id="metadata7">
    <rdf:RDF>
      <cc:Work
         rdf:about="">
        <dc:format>image/svg+xml</dc:format>
        <dc:type
           rdf:resource="http://purl.org/dc/dcmitype/StillImage" />
        <dc:title></dc:title>
      </cc:Work>
    </rdf:RDF>
  </metadata>
  <g
     inkscape:label="Layer 1"
     inkscape:groupmode="layer"
     id="layer1"
     transform="translate(-32.228633,-1064.9324)">
    <path
       style="color:#000000;clip-rule:nonzero;display:inline;overflow:visible;visibility:visible;opacity:1;isolation:auto;mix-blend-mode:normal;color-interpolation:sRGB;color-interpolation-filters:linearRGB;solid-color:#000000;solid-opacity:1;fill:none;fill-opacity:1;fill-rule:evenodd;stroke:#000000;stroke-width:1.38269389;stroke-linecap:butt;stroke-linejoin:miter;stroke-miterlimit:4;stroke-dasharray:none;stroke-dashoffset:0;stroke-opacity:1;color-rendering:auto;image-rendering:auto;shape-rendering:auto;text-rendering:auto;enable-background:accumulate"
       d="m 239.36119,1011.8292 c 0,0.3641 -0.0883,0.7391 0,1.0924 0.0222,0.088 0.20873,-0.064 0.27311,0 0.0845,0.085 -0.0846,1.2809 0,1.3654 0.0643,0.064 0.2087,-0.064 0.27308,0 0.0123,0.012 0,1.2367 0,1.3655 0,0.091 -0.0644,0.2087 0,0.2731 0.0644,0.064 0.20873,-0.064 0.2731,0 0.0643,0.064 0,0.1821 0,0.2731 0,0.4552 0,0.9103 0,1.3655 0,0.091 -0.0644,0.2087 0,0.2731 0.0643,0.064 0.20871,-0.064 0.27309,0 0.009,0.01 0,0.753 0,0.8192 0,0.8193 0,1.6386 0,2.4579 0,0.2312 -0.0489,0.9456 0,1.0924 0.0407,0.1221 0.21551,0.1579 0.2731,0.2731 0.0407,0.081 0,0.182 0,0.2731 0,0.091 0,0.182 0,0.273 0,0.3266 -0.0594,1.4604 0,1.6386 0.0643,0.1931 0.22371,0.3487 0.27308,0.5462 0.0662,0.2649 0,0.5462 0,0.8193 0,0.5462 0,1.0924 0,1.6385 0,0.065 -0.0306,1.0312 0,1.0924 0.0576,0.1152 0.21552,0.158 0.27311,0.2731 0.0829,0.1658 -0.0829,1.4728 0,1.6386 0.0576,0.1151 0.21552,0.1579 0.27308,0.2731 0.0861,0.1723 -0.0861,1.1932 0,1.3654 0.0576,0.1152 0.21552,0.158 0.27311,0.2731 0.0866,0.1733 -0.0887,1.1881 0,1.3655 0.0576,0.1152 0.21552,0.158 0.27308,0.2731 0.0813,0.1626 -0.0766,1.1355 0,1.3655 0.0644,0.1931 0.20873,0.3531 0.27311,0.5462 0.0808,0.2423 -0.0894,1.1866 0,1.3654 0.0576,0.1152 0.21552,0.158 0.27308,0.2731 0.0407,0.081 0,0.1821 0,0.2731 0,0.091 0,0.1821 0,0.2731 0,0.4552 0,0.9103 0,1.3655"
       id="path6158"
       inkscape:connector-curvature="0" />
    <g
       id="g5716"
       transform="translate(-27.695794,-202.6643)">
      <path
         style="color:#000000;clip-rule:nonzero;display:inline;overflow:visible;visibility:visible;isolation:auto;mix-blend-mode:normal;color-interpolation:sRGB;color-interpolation-filters:linearRGB;solid-color:#000000;solid-opacity:1;fill:#000000;fill-opacity:1;fill-rule:evenodd;stroke:#000000;stroke-width:1.37597227;stroke-linecap:butt;stroke-linejoin:miter;stroke-miterlimit:4;stroke-dasharray:none;stroke-dashoffset:0;stroke-opacity:1;color-rendering:auto;image-rendering:auto;shape-rendering:auto;text-rendering:auto;enable-background:accumulate"
         d="m 127.68464,1283.1209 c -6.59079,7.2936 -12.04512,-5.9442 -8.37338,-11.7212 5.26857,-8.2935 14.43961,1.8172 11.00646,8.7944 -1.09301,0.9969 -1.05897,2.7356 -2.63308,2.9268 z"
         id="path5539"
         inkscape:connector-curvature="0" />
      <path
         style="color:#000000;clip-rule:nonzero;display:inline;overflow:visible;visibility:visible;isolation:auto;mix-blend-mode:normal;color-interpolation:sRGB;color-interpolation-filters:linearRGB;solid-color:#000000;solid-opacity:1;fill:none;fill-opacity:1;fill-rule:evenodd;stroke:#000000;stroke-width:1.37597227;stroke-linecap:butt;stroke-linejoin:miter;stroke-miterlimit:4;stroke-dasharray:none;stroke-dashoffset:0;stroke-opacity:1;color-rendering:auto;image-rendering:auto;shape-rendering:auto;text-rendering:auto;enable-background:accumulate"
         d="m 126.07073,1283.9279 c 0.1314,10.9927 -2.69465,21.735 -3.45386,32.6566 -0.40904,1.7613 -0.3545,3.6512 -0.043,5.2703"
         id="path5541"
         inkscape:connector-curvature="0" />
      <path
         style="color:#000000;clip-rule:nonzero;display:inline;overflow:visible;visibility:visible;isolation:auto;mix-blend-mode:normal;color-interpolation:sRGB;color-interpolation-filters:linearRGB;solid-color:#000000;solid-opacity:1;fill:none;fill-opacity:1;fill-rule:evenodd;stroke:#000000;stroke-width:1.37597227;stroke-linecap:butt;stroke-linejoin:miter;stroke-miterlimit:4;stroke-dasharray:none;stroke-dashoffset:0;stroke-opacity:1;color-rendering:auto;image-rendering:auto;shape-rendering:auto;text-rendering:auto;enable-background:accumulate"
         d="m 127.95363,1322.3928 c 1.80641,6.4413 2.79235,13.2902 2.95884,19.9985 -0.69732,7.43 -0.29199,14.6552 0.58733,22.0269 -0.34215,3.9781 -5.5998,5.7727 -7.58095,8.5439"
         id="path5545"
         inkscape:connector-curvature="0" />
      <path
         style="color:#000000;clip-rule:nonzero;display:inline;overflow:visible;visibility:visible;isolation:auto;mix-blend-mode:normal;color-interpolation:sRGB;color-interpolation-filters:linearRGB;solid-color:#000000;solid-opacity:1;fill:none;fill-opacity:1;fill-rule:evenodd;stroke:#000000;stroke-width:1.37597227;stroke-linecap:butt;stroke-linejoin:miter;stroke-miterlimit:4;stroke-dasharray:none;stroke-dashoffset:0;stroke-opacity:1;color-rendering:auto;image-rendering:auto;shape-rendering:auto;text-rendering:auto;enable-background:accumulate"
         d="m 118.27015,1322.1238 c 2.49816,10.3195 5.89185,20.6141 5.78765,31.3672 0.82502,6.5918 1.10777,13.8045 -7.01487,15.0937 -0.34367,0.413 -2.1011,1.384 -2.00061,1.6875"
         id="path5547"
         inkscape:connector-curvature="0" />
      <path
         style="color:#000000;clip-rule:nonzero;display:inline;overflow:visible;visibility:visible;isolation:auto;mix-blend-mode:normal;color-interpolation:sRGB;color-interpolation-filters:linearRGB;solid-color:#000000;solid-opacity:1;fill:none;fill-opacity:1;fill-rule:evenodd;stroke:#000000;stroke-width:1.37597227;stroke-linecap:butt;stroke-linejoin:miter;stroke-miterlimit:4;stroke-dasharray:none;stroke-dashoffset:0;stroke-opacity:1;color-rendering:auto;image-rendering:auto;shape-rendering:auto;text-rendering:auto;enable-background:accumulate"
         d="m 135.21624,1291.1905 c -5.49963,-0.1113 -11.89621,-2.5234 -16.63508,-2.6436 l 0.22696,-0.046"
         id="path5549"
         inkscape:connector-curvature="0" />
      <path
         style="color:#000000;clip-rule:nonzero;display:inline;overflow:visible;visibility:visible;isolation:auto;mix-blend-mode:normal;color-interpolation:sRGB;color-interpolation-filters:linearRGB;solid-color:#000000;solid-opacity:1;fill:none;fill-opacity:1;fill-rule:evenodd;stroke:#000000;stroke-width:1.37597227;stroke-linecap:butt;stroke-linejoin:miter;stroke-miterlimit:4;stroke-dasharray:none;stroke-dashoffset:0;stroke-opacity:1;color-rendering:auto;image-rendering:auto;shape-rendering:auto;text-rendering:auto;enable-background:accumulate"
         d="m 134.94725,1292.2664 c -0.65136,7.6578 0.15142,15.432 -1.88653,22.9782 -1.52629,4.3992 -1.71885,13.6299 -6.60409,14.1309 -0.65659,-0.7699 -0.42361,-2.2492 0.69004,-2.4099"
         id="path5551"
         inkscape:connector-curvature="0" />
      <path
         style="color:#000000;clip-rule:nonzero;display:inline;overflow:visible;visibility:visible;isolation:auto;mix-blend-mode:normal;color-interpolation:sRGB;color-interpolation-filters:linearRGB;solid-color:#000000;solid-opacity:1;fill:none;fill-opacity:1;fill-rule:evenodd;stroke:#000000;stroke-width:1.37597227;stroke-linecap:butt;stroke-linejoin:miter;stroke-miterlimit:4;stroke-dasharray:none;stroke-dashoffset:0;stroke-opacity:1;color-rendering:auto;image-rendering:auto;shape-rendering:auto;text-rendering:auto;enable-background:accumulate"
         d="m 118.53913,1288.7696 c -0.33902,7.0763 1.96278,14.9141 -2.52332,21.1538 -2.0742,3.9919 -4.45664,17.9165 -10.16227,13.1084 l 0.17459,-0.345 0.40666,-0.294"
         id="path5553"
         inkscape:connector-curvature="0" />
      <path
         style="color:#000000;clip-rule:nonzero;display:inline;overflow:visible;visibility:visible;isolation:auto;mix-blend-mode:normal;color-interpolation:sRGB;color-interpolation-filters:linearRGB;solid-color:#000000;solid-opacity:1;fill:none;fill-opacity:1;fill-rule:evenodd;stroke:#000000;stroke-width:1.37597227;stroke-linecap:butt;stroke-linejoin:miter;stroke-miterlimit:4;stroke-dasharray:none;stroke-dashoffset:0;stroke-opacity:1;color-rendering:auto;image-rendering:auto;shape-rendering:auto;text-rendering:auto;enable-background:accumulate"
         d="m 191.86177,1289.5766 c -5.75407,-0.055 -11.46724,-1.2275 -17.21508,-0.807"
         id="path5555"
         inkscape:connector-curvature="0" />
      <path
         style="color:#000000;clip-rule:nonzero;display:inline;overflow:visible;visibility:visible;isolation:auto;mix-blend-mode:normal;color-interpolation:sRGB;color-interpolation-filters:linearRGB;solid-color:#000000;solid-opacity:1;fill:#000000;fill-opacity:1;fill-rule:evenodd;stroke:#000000;stroke-width:1.37597227;stroke-linecap:butt;stroke-linejoin:miter;stroke-miterlimit:4;stroke-dasharray:none;stroke-dashoffset:0;stroke-opacity:1;color-rendering:auto;image-rendering:auto;shape-rendering:auto;text-rendering:auto;enable-background:accumulate"
         d="m 183.79219,1282.5829 c -7.12381,7.0866 -11.26135,-7.2124 -6.18666,-11.5663 6.97887,-7.3618 14.4166,7.3258 8.06955,11.5663 -0.3358,0.7827 -1.41965,0.4205 -1.88289,0 z"
         id="path5559"
         inkscape:connector-curvature="0" />
      <path
         style="color:#000000;clip-rule:nonzero;display:inline;overflow:visible;visibility:visible;isolation:auto;mix-blend-mode:normal;color-interpolation:sRGB;color-interpolation-filters:linearRGB;solid-color:#000000;solid-opacity:1;fill:none;fill-opacity:1;fill-rule:evenodd;stroke:#000000;stroke-width:1.37597227;stroke-linecap:butt;stroke-linejoin:miter;stroke-miterlimit:4;stroke-dasharray:none;stroke-dashoffset:0;stroke-opacity:1;color-rendering:auto;image-rendering:auto;shape-rendering:auto;text-rendering:auto;enable-background:accumulate"
         d="m 183.25421,1285.8108 c -0.15051,7.4021 -2.23817,14.6302 -2.42087,22.0568 -1.26525,4.8902 0.14922,9.926 -0.53795,14.7942"
         id="path5561"
         inkscape:connector-curvature="0" />
      <path
         style="color:#000000;clip-rule:nonzero;display:inline;overflow:visible;visibility:visible;isolation:auto;mix-blend-mode:normal;color-interpolation:sRGB;color-interpolation-filters:linearRGB;solid-color:#000000;solid-opacity:1;fill:none;fill-opacity:1;fill-rule:evenodd;stroke:#000000;stroke-width:1.37597227;stroke-linecap:butt;stroke-linejoin:miter;stroke-miterlimit:4;stroke-dasharray:none;stroke-dashoffset:0;stroke-opacity:1;color-rendering:auto;image-rendering:auto;shape-rendering:auto;text-rendering:auto;enable-background:accumulate"
         d="m 185.94407,1321.5858 c -1.44596,6.8932 2.08184,13.3962 1.82403,20.2574 1.58794,8.5938 -0.20074,17.1751 -1.01706,25.7392 -1.09286,2.6218 -4.58423,3.6216 -6.18668,5.9176"
         id="path5563"
         inkscape:connector-curvature="0" />
      <path
         style="color:#000000;clip-rule:nonzero;display:inline;overflow:visible;visibility:visible;isolation:auto;mix-blend-mode:normal;color-interpolation:sRGB;color-interpolation-filters:linearRGB;solid-color:#000000;solid-opacity:1;fill:none;fill-opacity:1;fill-rule:evenodd;stroke:#000000;stroke-width:1.37597227;stroke-linecap:butt;stroke-linejoin:miter;stroke-miterlimit:4;stroke-dasharray:none;stroke-dashoffset:0;stroke-opacity:1;color-rendering:auto;image-rendering:auto;shape-rendering:auto;text-rendering:auto;enable-background:accumulate"
         d="m 176.79857,1322.1238 c 0.86077,9.9229 3.18195,19.664 4.03207,29.6254 -0.23921,6.0943 4.5558,15.6583 -4.492,16.863 -1.33228,0.4193 -2.74478,0.722 -3.84383,1.66"
         id="path5565"
         inkscape:connector-curvature="0" />
      <path
         style="color:#000000;clip-rule:nonzero;display:inline;overflow:visible;visibility:visible;isolation:auto;mix-blend-mode:normal;color-interpolation:sRGB;color-interpolation-filters:linearRGB;solid-color:#000000;solid-opacity:1;fill:none;fill-opacity:1;fill-rule:evenodd;stroke:#000000;stroke-width:1.37597227;stroke-linecap:butt;stroke-linejoin:miter;stroke-miterlimit:4;stroke-dasharray:none;stroke-dashoffset:0;stroke-opacity:1;color-rendering:auto;image-rendering:auto;shape-rendering:auto;text-rendering:auto;enable-background:accumulate"
         d="m 193.20668,1290.1145 c -1.14952,6.0446 3.10443,13.1846 0.88165,18.1547 -3.93688,-2.795 -13.12821,-4.8458 -13.57023,-9.2456 0.51466,-0.235 1.49428,-0.1972 1.66019,0.5054"
         id="path5569"
         inkscape:connector-curvature="0" />
      <path
         style="color:#000000;clip-rule:nonzero;display:inline;overflow:visible;visibility:visible;isolation:auto;mix-blend-mode:normal;color-interpolation:sRGB;color-interpolation-filters:linearRGB;solid-color:#000000;solid-opacity:1;fill:none;fill-opacity:1;fill-rule:evenodd;stroke:#000000;stroke-width:1.37597227;stroke-linecap:butt;stroke-linejoin:miter;stroke-miterlimit:4;stroke-dasharray:none;stroke-dashoffset:0;stroke-opacity:1;color-rendering:auto;image-rendering:auto;shape-rendering:auto;text-rendering:auto;enable-background:accumulate"
         d="m 176.26059,1290.1145 c -0.59247,4.9626 0.98718,12.2634 -1.63841,15.8787 -3.56984,-1.9985 -16.89144,-4.2139 -13.96274,-9.423"
         id="path5571"
         inkscape:connector-curvature="0" />
      <path
         style="color:#000000;clip-rule:nonzero;display:inline;overflow:visible;visibility:visible;opacity:1;isolation:auto;mix-blend-mode:normal;color-interpolation:sRGB;color-interpolation-filters:linearRGB;solid-color:#000000;solid-opacity:1;fill:#000080;fill-opacity:1;fill-rule:evenodd;stroke:#000080;stroke-width:1.02324235;stroke-linecap:butt;stroke-linejoin:miter;stroke-miterlimit:4;stroke-dasharray:none;stroke-dashoffset:0;stroke-opacity:1;marker:none;color-rendering:auto;image-rendering:auto;shape-rendering:auto;text-rendering:auto;enable-background:accumulate"
         d="m 166.49682,1297.8412 c -5.14574,9.9198 -8.02437,-11.3622 0.0142,-2.6092 l 0.21485,1.3142 -0.22902,1.295 0,0 z"
         id="path5678"
         inkscape:connector-curvature="0" />
      <path
         style="color:#000000;clip-rule:nonzero;display:inline;overflow:visible;visibility:visible;opacity:1;isolation:auto;mix-blend-mode:normal;color-interpolation:sRGB;color-interpolation-filters:linearRGB;solid-color:#000000;solid-opacity:1;fill:#000080;fill-opacity:1;fill-rule:evenodd;stroke:#000080;stroke-width:1.02324235;stroke-linecap:butt;stroke-linejoin:miter;stroke-miterlimit:4;stroke-dasharray:none;stroke-dashoffset:0;stroke-opacity:1;marker:none;color-rendering:auto;image-rendering:auto;shape-rendering:auto;text-rendering:auto;enable-background:accumulate"
         d="m 158.3889,1297.8106 c 0.75241,-0.1151 3.76195,-0.5751 4.51435,-0.6902"
         id="path5680"
         inkscape:connector-curvature="0" />
      <path
         style="color:#000000;clip-rule:nonzero;display:inline;overflow:visible;visibility:visible;opacity:1;isolation:auto;mix-blend-mode:normal;color-interpolation:sRGB;color-interpolation-filters:linearRGB;solid-color:#000000;solid-opacity:1;fill:#000080;fill-opacity:1;fill-rule:evenodd;stroke:#000080;stroke-width:1.02324235;stroke-linecap:butt;stroke-linejoin:miter;stroke-miterlimit:4;stroke-dasharray:none;stroke-dashoffset:0;stroke-opacity:1;marker:none;color-rendering:auto;image-rendering:auto;shape-rendering:auto;text-rendering:auto;enable-background:accumulate"
         d="m 160.93237,1298.2348 c -5.11948,9.9194 -8.06106,-11.3441 0.0145,-2.6105 l 0.22805,1.312 -0.24259,1.2985 z"
         id="path5682"
         inkscape:connector-curvature="0" />
      <use
         height="100%"
         width="100%"
         transform="translate(20.101692,2.8716703)"
         id="use5684"
         xlink:href="#path5678"
         y="0"
         x="0" />
      <use
         height="100%"
         width="100%"
         transform="translate(20.101692,2.8716703)"
         id="use5686"
         xlink:href="#path5680"
         y="0"
         x="0" />
      <use
         height="100%"
         width="100%"
         transform="translate(20.101692,2.8716703)"
         id="use5688"
         xlink:href="#path5682"
         y="0"
         x="0" />
      <use
         height="100%"
         width="100%"
         transform="translate(-53.843818,26.56295)"
         id="use5690"
         xlink:href="#use5684"
         y="0"
         x="0" />
      <use
         height="100%"
         width="100%"
         transform="translate(-53.843818,26.56295)"
         id="use5692"
         xlink:href="#use5686"
         y="0"
         x="0" />
      <use
         height="100%"
         width="100%"
         transform="translate(-53.843818,26.56295)"
         id="use5694"
         xlink:href="#use5688"
         y="0"
         x="0" />
      <use
         height="100%"
         width="100%"
         transform="translate(-20.101692,-3.5895879)"
         id="use5696"
         xlink:href="#use5690"
         y="0"
         x="0" />
      <use
         height="100%"
         width="100%"
         transform="translate(-20.101692,-3.5895879)"
         id="use5698"
         xlink:href="#use5692"
         y="0"
         x="0" />
      <use
         height="100%"
         width="100%"
         transform="translate(-20.101692,-3.5895879)"
         id="use5700"
         xlink:href="#use5694"
         y="0"
         x="0" />
    </g>
  </g>
</svg>
