<?xml version="1.0" encoding="UTF-8" standalone="no"?>
<!-- Created with Inkscape (http://www.inkscape.org/) -->

<svg
   xmlns:dc="http://purl.org/dc/elements/1.1/"
   xmlns:cc="http://creativecommons.org/ns#"
   xmlns:rdf="http://www.w3.org/1999/02/22-rdf-syntax-ns#"
   xmlns:svg="http://www.w3.org/2000/svg"
   xmlns="http://www.w3.org/2000/svg"
   xmlns:xlink="http://www.w3.org/1999/xlink"
   xmlns:sodipodi="http://sodipodi.sourceforge.net/DTD/sodipodi-0.dtd"
   xmlns:inkscape="http://www.inkscape.org/namespaces/inkscape"
   width="177.16534"
   height="106.29497"
   id="svg2"
   version="1.1"
   inkscape:version="0.91 r13725"
   sodipodi:docname="dumbbell_front_raise.svg">
  <defs
     id="defs4" />
  <sodipodi:namedview
     id="base"
     pagecolor="#ffffff"
     bordercolor="#666666"
     borderopacity="1.0"
     inkscape:pageopacity="0.0"
     inkscape:pageshadow="2"
     inkscape:zoom="0.98494146"
     inkscape:cx="326.62997"
     inkscape:cy="-20.6845"
     inkscape:document-units="cm"
     inkscape:current-layer="layer1"
     showgrid="false"
     fit-margin-top="0"
     fit-margin-left="0"
     fit-margin-right="0"
     fit-margin-bottom="0"
     inkscape:window-width="1330"
     inkscape:window-height="747"
     inkscape:window-x="36"
     inkscape:window-y="21"
     inkscape:window-maximized="1"
     units="cm" />
  <metadata
     id="metadata7">
    <rdf:RDF>
      <cc:Work
         rdf:about="">
        <dc:format>image/svg+xml</dc:format>
        <dc:type
           rdf:resource="http://purl.org/dc/dcmitype/StillImage" />
        <dc:title></dc:title>
      </cc:Work>
    </rdf:RDF>
  </metadata>
  <g
     inkscape:label="Layer 1"
     inkscape:groupmode="layer"
     id="layer1"
     transform="translate(-32.228633,-1064.9324)">
    <path
       style="color:#000000;clip-rule:nonzero;display:inline;overflow:visible;visibility:visible;opacity:1;isolation:auto;mix-blend-mode:normal;color-interpolation:sRGB;color-interpolation-filters:linearRGB;solid-color:#000000;solid-opacity:1;fill:none;fill-opacity:1;fill-rule:evenodd;stroke:#000000;stroke-width:1.38269389;stroke-linecap:butt;stroke-linejoin:miter;stroke-miterlimit:4;stroke-dasharray:none;stroke-dashoffset:0;stroke-opacity:1;color-rendering:auto;image-rendering:auto;shape-rendering:auto;text-rendering:auto;enable-background:accumulate"
       d="m 239.36119,1011.8292 c 0,0.3641 -0.0883,0.7391 0,1.0924 0.0222,0.088 0.20873,-0.064 0.27311,0 0.0845,0.085 -0.0846,1.2809 0,1.3654 0.0643,0.064 0.2087,-0.064 0.27308,0 0.0123,0.012 0,1.2367 0,1.3655 0,0.091 -0.0644,0.2087 0,0.2731 0.0644,0.064 0.20873,-0.064 0.2731,0 0.0643,0.064 0,0.1821 0,0.2731 0,0.4552 0,0.9103 0,1.3655 0,0.091 -0.0644,0.2087 0,0.2731 0.0643,0.064 0.20871,-0.064 0.27309,0 0.009,0.01 0,0.753 0,0.8192 0,0.8193 0,1.6386 0,2.4579 0,0.2312 -0.0489,0.9456 0,1.0924 0.0407,0.1221 0.21551,0.1579 0.2731,0.2731 0.0407,0.081 0,0.182 0,0.2731 0,0.091 0,0.182 0,0.273 0,0.3266 -0.0594,1.4604 0,1.6386 0.0643,0.1931 0.22371,0.3487 0.27308,0.5462 0.0662,0.2649 0,0.5462 0,0.8193 0,0.5462 0,1.0924 0,1.6385 0,0.065 -0.0306,1.0312 0,1.0924 0.0576,0.1152 0.21552,0.158 0.27311,0.2731 0.0829,0.1658 -0.0829,1.4728 0,1.6386 0.0576,0.1151 0.21552,0.1579 0.27308,0.2731 0.0861,0.1723 -0.0861,1.1932 0,1.3654 0.0576,0.1152 0.21552,0.158 0.27311,0.2731 0.0866,0.1733 -0.0887,1.1881 0,1.3655 0.0576,0.1152 0.21552,0.158 0.27308,0.2731 0.0813,0.1626 -0.0766,1.1355 0,1.3655 0.0644,0.1931 0.20873,0.3531 0.27311,0.5462 0.0808,0.2423 -0.0894,1.1866 0,1.3654 0.0576,0.1152 0.21552,0.158 0.27308,0.2731 0.0407,0.081 0,0.1821 0,0.2731 0,0.091 0,0.1821 0,0.2731 0,0.4552 0,0.9103 0,1.3655"
       id="path6158"
       inkscape:connector-curvature="0" />
    <g
       id="g5467"
       transform="translate(-4.1114052,-214.73409)">
      <g
         transform="matrix(0.25084872,-0.94905042,0.94905042,0.25084872,-693.69017,1097.8111)"
         id="g5307">
        <path
           style="color:#000000;clip-rule:nonzero;display:inline;overflow:visible;visibility:visible;opacity:1;isolation:auto;mix-blend-mode:normal;color-interpolation:sRGB;color-interpolation-filters:linearRGB;solid-color:#000000;solid-opacity:1;fill:#000080;fill-opacity:1;fill-rule:evenodd;stroke:#000080;stroke-width:1.04237795;stroke-linecap:butt;stroke-linejoin:miter;stroke-miterlimit:4;stroke-dasharray:none;stroke-dashoffset:0;stroke-opacity:1;marker:none;color-rendering:auto;image-rendering:auto;shape-rendering:auto;text-rendering:auto;enable-background:accumulate"
           d="m 28.010258,922.32249 c -2.4856,11.1094 -10.86083,-9.1015 -0.66526,-2.5734 l 0.55371,1.2384 0.11155,1.335 0,0 z"
           id="use5043-9"
           inkscape:connector-curvature="0" />
        <path
           style="color:#000000;clip-rule:nonzero;display:inline;overflow:visible;visibility:visible;opacity:1;isolation:auto;mix-blend-mode:normal;color-interpolation:sRGB;color-interpolation-filters:linearRGB;solid-color:#000000;solid-opacity:1;fill:#000080;fill-opacity:1;fill-rule:evenodd;stroke:#000080;stroke-width:1.04237795;stroke-linecap:butt;stroke-linejoin:miter;stroke-miterlimit:4;stroke-dasharray:none;stroke-dashoffset:0;stroke-opacity:1;marker:none;color-rendering:auto;image-rendering:auto;shape-rendering:auto;text-rendering:auto;enable-background:accumulate"
           d="m 20.016968,924.40299 c 0.71108,-0.3092 3.55536,-1.5457 4.26643,-1.8549"
           id="use5045-2"
           inkscape:connector-curvature="0" />
        <path
           style="color:#000000;clip-rule:nonzero;display:inline;overflow:visible;visibility:visible;opacity:1;isolation:auto;mix-blend-mode:normal;color-interpolation:sRGB;color-interpolation-filters:linearRGB;solid-color:#000000;solid-opacity:1;fill:#000080;fill-opacity:1;fill-rule:evenodd;stroke:#000080;stroke-width:1.04237795;stroke-linecap:butt;stroke-linejoin:miter;stroke-miterlimit:4;stroke-dasharray:none;stroke-dashoffset:0;stroke-opacity:1;marker:none;color-rendering:auto;image-rendering:auto;shape-rendering:auto;text-rendering:auto;enable-background:accumulate"
           d="m 22.632418,924.15869 c -2.45986,11.1021 -10.89224,-9.0741 -0.66528,-2.5748 l 0.56614,1.2328 0.0991,1.342 z"
           id="use5047-8"
           inkscape:connector-curvature="0" />
      </g>
      <path
         inkscape:connector-curvature="0"
         id="path5392"
         d="m 76.377016,1295.755 c -0.34313,-0.086 -0.68626,-0.1715 -1.0294,-0.2573 0,-0.086 0.0607,-0.1967 0,-0.2574 -0.12131,-0.1213 -0.39338,0.1213 -0.51469,0 -0.0607,-0.061 0.0607,-0.1967 0,-0.2573 -0.12132,-0.1213 -0.39339,0.1213 -0.51471,0 -0.0607,-0.061 0.0607,-0.1967 0,-0.2574 -0.12131,-0.1213 -0.39338,0.1213 -0.5147,0 -0.0607,-0.061 0.0607,-0.1967 0,-0.2573 -0.12131,-0.1213 -0.39338,0.1213 -0.5147,0 -0.0607,-0.061 0.0607,-0.1967 0,-0.2574 -0.12131,-0.1213 -0.39338,0.1213 -0.51469,0 -0.0607,-0.061 0.0607,-0.1967 0,-0.2573 -0.12132,-0.1213 -0.36125,0.077 -0.51471,0 -0.1085,-0.054 -0.14884,-0.2031 -0.25735,-0.2574 -0.15345,-0.077 -0.39338,0.1213 -0.5147,0 -0.0607,-0.061 0.0607,-0.1967 0,-0.2573 -0.12131,-0.1213 -0.39338,0.1213 -0.51469,0 -0.0607,-0.061 0,-0.1716 0,-0.2574 -0.0858,0 -0.1967,0.061 -0.25735,0 -0.0607,-0.061 0.0607,-0.1967 0,-0.2573 -0.0607,-0.061 -0.18063,0.038 -0.25735,0 -0.412,-0.206 -0.10271,-0.3087 -0.51471,-0.5147 -0.0767,-0.038 -0.18062,0.038 -0.25735,0 -1.07102,-0.5355 0.27512,0.018 -0.25735,-0.5147 -0.0607,-0.061 -0.19669,0.061 -0.25735,0 -0.0607,-0.061 0.0607,-0.1967 0,-0.2574 -0.0607,-0.061 -0.18062,0.038 -0.25734,0 -1.07103,-0.5355 0.27511,0.018 -0.25735,-0.5147 -0.0607,-0.061 -0.1967,0.061 -0.25735,0 -0.0607,-0.061 0.0606,-0.1967 0,-0.2573 -0.0607,-0.061 -0.1967,0.061 -0.25735,0 -0.0607,-0.061 0.0384,-0.1806 0,-0.2574 -0.0543,-0.1085 -0.2031,-0.1488 -0.25736,-0.2573 -0.0384,-0.077 0.0607,-0.1967 0,-0.2574 -0.0607,-0.061 -0.19669,0.061 -0.25735,0 -0.12131,-0.1213 0.12132,-0.3934 0,-0.5147 -0.0607,-0.061 -0.19669,0.061 -0.25735,0 -0.12131,-0.1213 0.0767,-0.3612 0,-0.5147 -0.0542,-0.1085 -0.20309,-0.1488 -0.25735,-0.2573 -0.0767,-0.1535 0.0767,-0.3613 0,-0.5147 -0.0543,-0.1085 -0.20309,-0.1489 -0.25734,-0.2574 -0.0767,-0.1534 0.12131,-0.3934 0,-0.5147 -0.0607,-0.061 -0.1967,0.061 -0.25735,0 -0.0607,-0.061 0,-0.1715 0,-0.2573 0,-0.086 0,-0.1716 0,-0.2574 0,-0.6862 0.0858,0.086 -0.25735,-0.2573 -0.0607,-0.061 0,-0.1716 0,-0.2574 0,-0.1213 -0.0117,-1.2751 0,-1.2867 0.0607,-0.061 0.19669,0.061 0.25735,0 0.0607,-0.061 0,-0.1716 0,-0.2574 0,-0.086 0,-0.1715 0,-0.2573 0,-0.062 -0.008,-0.7638 0,-0.7721 0.0607,-0.061 0.19669,0.061 0.25735,0 0.12867,-0.1287 -0.12868,-0.6434 0,-0.772 0.0607,-0.061 0.19669,0.061 0.25734,0 0.12132,-0.1213 -0.12131,-0.3934 0,-0.5147 0.68627,0 -0.0858,0.086 0.25735,-0.2574 0.0607,-0.061 0.1967,0.061 0.25735,0 0.12132,-0.1213 -0.12131,-0.3933 0,-0.5147 0.68627,0 -0.0858,0.086 0.25735,-0.2573 0.0607,-0.061 0.1967,0.061 0.25736,0 0.17166,-0.1717 -0.17167,-0.3431 0,-0.5147 0.0607,-0.061 0.19669,0.061 0.25735,0 0.0606,-0.061 -0.0607,-0.1967 0,-0.2574 0.12131,-0.1213 0.39338,0.1213 0.5147,0 0.0606,-0.061 -0.0607,-0.1967 0,-0.2573 0.12131,-0.1213 0.36124,0.077 0.51469,0 0.10851,-0.054 0.14885,-0.2031 0.25735,-0.2574 0.20588,-0.1029 0.56618,0.103 0.77206,0 0.1085,-0.054 0.14884,-0.2031 0.25735,-0.2573 0.20588,-0.103 0.56616,0.1029 0.77204,0 0.10851,-0.054 0.14885,-0.2031 0.25735,-0.2574 0.0767,-0.038 0.17157,0 0.25735,0 0.0858,0 0.17157,0 0.25735,0 0.42892,0 0.85784,0 1.28675,0 0.0624,0 0.76378,-0.01 0.77205,0 0.0607,0.061 -0.0607,0.1967 0,0.2574 0.12132,0.1213 0.36125,-0.077 0.51471,0 0.1085,0.054 0.14884,0.2031 0.25735,0.2573 0.0767,0.038 0.18062,-0.038 0.25734,0 0.10851,0.054 0.14885,0.2031 0.25735,0.2574 0.15346,0.077 0.39339,-0.1213 0.5147,0 0.0607,0.061 -0.0607,0.1967 0,0.2573 0.12132,0.1213 0.39339,-0.1213 0.5147,0 0.0607,0.061 -0.0607,0.1967 0,0.2574 0.12132,0.1213 0.39339,-0.1213 0.51471,0 0.0607,0.061 -0.0607,0.1967 0,0.2573 0.0607,0.061 0.18062,-0.038 0.25734,0 0.10851,0.054 0.14885,0.2031 0.25735,0.2574 0.0767,0.038 0.1967,-0.061 0.25735,0 0.0607,0.061 -0.0607,0.1967 0,0.2573 0.12132,0.1214 0.39339,-0.1213 0.5147,0 0.0607,0.061 -0.0607,0.1967 0,0.2574 0.0607,0.061 0.1967,-0.061 0.25735,0 0.0607,0.061 -0.0606,0.1967 0,0.2573 0.0607,0.061 0.1967,-0.061 0.25735,0 0.12132,0.1213 -0.12131,0.3934 0,0.5147 0.0607,0.061 0.1967,-0.061 0.25736,0 0.0607,0.061 -0.0384,0.1807 0,0.2574 0.0542,0.1085 0.20309,0.1488 0.25734,0.2573 0.0767,0.1535 -0.12131,0.3934 0,0.5147 0.0607,0.061 0.1967,-0.061 0.25735,0 0.12868,0.1287 -0.12867,0.6434 0,0.7721 0.0607,0.061 0.1967,-0.061 0.25735,0 0.0619,0.062 -0.0619,0.9675 0,1.0294 0.0607,0.061 0.1967,-0.061 0.25735,0 0.0607,0.061 0,0.1715 0,0.2573 0,0.086 0,0.1716 0,0.2574 0,1.2009 0,2.4019 0,3.6029 0,0.5147 0,1.0294 0,1.5441 0,0.086 0,0.1715 0,0.2573 0,0.086 0.0384,0.1807 0,0.2574 -0.0542,0.1085 -0.20309,0.1488 -0.25735,0.2573 -0.0698,0.1396 0.0704,0.959 0,1.0294 -0.0607,0.061 -0.19669,-0.061 -0.25735,0 -0.0619,0.062 0.0619,0.9675 0,1.0294 -0.0607,0.061 -0.19669,-0.061 -0.25735,0 -0.12867,0.1287 0.12868,0.6434 0,0.7721 -0.0607,0.061 -0.19669,-0.061 -0.25734,0 -0.0607,0.061 0.0384,0.1806 0,0.2573 -0.0543,0.1085 -0.17157,0.1716 -0.25736,0.2574 -0.0858,0.086 -0.14884,0.2031 -0.25735,0.2573 -0.0767,0.038 -0.18062,-0.038 -0.25735,0 -0.1085,0.054 -0.14884,0.2031 -0.25735,0.2574 -0.0767,0.038 -0.17156,0 -0.25735,0 -0.67178,0 -0.68337,-0.042 -1.5441,-0.2574 z"
         style="color:#000000;clip-rule:nonzero;display:inline;overflow:visible;visibility:visible;opacity:1;isolation:auto;mix-blend-mode:normal;color-interpolation:sRGB;color-interpolation-filters:linearRGB;solid-color:#000000;solid-opacity:1;fill:#000000;fill-opacity:1;fill-rule:evenodd;stroke:#000000;stroke-width:1.38269389;stroke-linecap:butt;stroke-linejoin:miter;stroke-miterlimit:4;stroke-dasharray:none;stroke-dashoffset:0;stroke-opacity:1;color-rendering:auto;image-rendering:auto;shape-rendering:auto;text-rendering:auto;enable-background:accumulate" />
      <path
         inkscape:connector-curvature="0"
         id="path5394"
         d="m 71.230016,1294.983 c 0.44459,-0.045 0.17368,1.6341 0.25735,1.8014 0.0543,0.1085 0.2031,0.1489 0.25735,0.2574 0.0781,0.1562 -0.0781,1.3878 0,1.5441 0.0543,0.1085 0.2031,0.1488 0.25735,0.2573 0.0333,0.066 0,1.3617 0,1.5441 0,0.086 -0.0384,0.1807 0,0.2574 0.0543,0.1085 0.2031,0.1488 0.25735,0.2573 0.0843,0.1685 -0.0761,1.0584 0,1.2868 0.0607,0.182 0.1967,0.3327 0.25736,0.5147 0.0817,0.2451 -0.0836,1.0361 0,1.2867 0.0607,0.182 0.19669,0.3328 0.25735,0.5147 0.0719,0.2157 -0.0853,0.8589 0,1.0294 0.0543,0.1085 0.21898,0.1423 0.25735,0.2574 0.0439,0.1317 0,1.3601 0,1.5441 0,0.086 -0.0384,0.1806 0,0.2573 0.0542,0.1085 0.21898,0.1423 0.25734,0.2574 0.0814,0.2441 0,0.5147 0,0.772 0,0.6005 0,1.201 0,1.8015 0,0.2573 -0.0814,0.5279 0,0.772 0.0384,0.1151 0.2031,0.1489 0.25735,0.2574 0.0384,0.077 0,0.1715 0,0.2573 0,0.1716 0,0.3432 0,0.5147 0,0.6863 0,1.3726 0,2.0588 0,0.2574 -0.0814,0.5279 0,0.7721 0.0384,0.1151 0.21899,0.1422 0.25735,0.2573 0.0543,0.1628 0,0.3432 0,0.5147 0,0.4289 0,0.8579 0,1.2868 0,1.2009 0,2.4019 0,3.6029 0,1.973 0,3.946 0,5.919 0,0.6005 0,1.201 0,1.8015 0,0.1715 0,0.3431 0,0.5147 0,0.086 -0.0271,0.1759 0,0.2573 0.0607,0.182 0.1967,0.3328 0.25735,0.5147 0.075,0.225 -0.0775,1.3891 0,1.5441 0.0543,0.1085 0.2031,0.1489 0.25735,0.2574 0.0384,0.077 0,0.1715 0,0.2573 0,0.086 0,0.1716 0,0.2574"
         style="color:#000000;clip-rule:nonzero;display:inline;overflow:visible;visibility:visible;opacity:1;isolation:auto;mix-blend-mode:normal;color-interpolation:sRGB;color-interpolation-filters:linearRGB;solid-color:#000000;solid-opacity:1;fill:none;fill-opacity:1;fill-rule:evenodd;stroke:#000000;stroke-width:1.38269389;stroke-linecap:butt;stroke-linejoin:miter;stroke-miterlimit:4;stroke-dasharray:none;stroke-dashoffset:0;stroke-opacity:1;color-rendering:auto;image-rendering:auto;shape-rendering:auto;text-rendering:auto;enable-background:accumulate" />
      <path
         inkscape:connector-curvature="0"
         id="path5396"
         d="m 69.943266,1331.5267 c 0.0858,0.3431 0.18799,0.6825 0.25736,1.0294 0.0336,0.1682 0,0.3431 0,0.5147 0,0.4289 0,0.8578 0,1.2867 0,1.2868 0,2.5735 0,3.8603 0,0.4289 0,0.8578 0,1.2867 0,0.086 0.0607,0.1967 0,0.2574 -0.0607,0.061 -0.1967,-0.061 -0.25736,0 -0.12131,0.1213 0.0767,0.3612 0,0.5147 -0.0543,0.1085 -0.20309,0.1488 -0.25735,0.2573 -0.0384,0.077 0,0.1716 0,0.2574 0,0.086 0,0.1715 0,0.2573 0,0.4289 0,0.8579 0,1.2868 0,0.086 0.0384,0.1806 0,0.2573 -0.0542,0.1085 -0.20309,0.1489 -0.25735,0.2574 -0.0836,0.1672 0.0816,1.1235 0,1.2867 -0.0543,0.1085 -0.20309,0.1489 -0.25735,0.2574 -0.0382,0.076 0,1.2952 0,1.5441 0,0.086 0,0.1715 0,0.2573 0,0.086 0.0607,0.1967 0,0.2574 -0.0607,0.061 -0.19669,-0.061 -0.25734,0 -0.0607,0.061 0,0.1715 0,0.2573 0,0.086 0,0.1716 0,0.2574 0,0.4289 0,0.8578 0,1.2867 0,0.086 0,0.1716 0,0.2574 0,0.086 0.0384,0.1806 0,0.2573 -0.0543,0.1085 -0.2031,0.1489 -0.25735,0.2574 -0.0799,0.1598 0.0824,1.3792 0,1.5441 -0.0543,0.1085 -0.2031,0.1488 -0.25735,0.2573 -0.0834,0.1669 0.0808,1.3017 0,1.5441 -0.0607,0.182 -0.1967,0.3328 -0.25735,0.5147 -0.0808,0.2425 0.0834,1.3773 0,1.5441 -0.0543,0.1085 -0.2031,0.1489 -0.25736,0.2574 -0.0767,0.1534 0.0767,0.3612 0,0.5147 -0.0542,0.1085 -0.21898,0.1422 -0.25735,0.2573 -0.0442,0.1326 0,1.5292 0,1.8015 0,0.086 0,0.1715 0,0.2573 0,0.086 0.0384,0.1806 0,0.2574 -0.0543,0.1085 -0.20309,0.1488 -0.25735,0.2573 -0.0384,0.077 0,0.1716 0,0.2574 0,0.086 0,0.1715 0,0.2573 0,0.4289 0,0.8579 0,1.2868 0,0.2573 0.0814,0.5279 0,0.772 -0.0384,0.1151 -0.20309,0.1489 -0.25735,0.2574 -0.0333,0.066 0,1.3617 0,1.5441 0,0.6862 0,1.3725 0,2.0588 0,0.1159 0.0392,0.6937 0,0.772 -0.0543,0.1085 -0.20309,0.1489 -0.25734,0.2574 -0.0392,0.078 0,0.6561 0,0.772 0,0.6863 0,1.3726 0,2.0588 0,0.062 -0.008,0.7638 0,0.7721 0.0607,0.061 0.19669,-0.061 0.25734,0 0.008,0.01 0,0.7096 0,0.772 0,0.6863 0,1.3726 0,2.0588 0,0.1159 -0.0392,0.6938 0,0.7721 0.0543,0.1085 0.2031,0.1488 0.25735,0.2573 0.0384,0.077 0,0.1716 0,0.2574 0,0.086 0,0.1715 0,0.2573 0,0.4289 0,0.8579 0,1.2868 0,0.1159 -0.0392,0.6937 0,0.772 0.0543,0.1085 0.2031,0.1489 0.25735,0.2574 0.011,0.022 0.011,1.0074 0,1.0294 -0.0543,0.1085 -0.20309,0.1488 -0.25735,0.2573 -0.007,0.014 -0.007,0.7586 0,0.7721 0.31801,0.636 0.25735,-0.089 0.25735,0.5147 0,0.6005 0,1.2009 0,1.8014 0,0.1159 -0.0392,0.6938 0,0.7721 0.0543,0.1085 0.17157,0.1715 0.25735,0.2573 0.0858,0.086 0.14885,0.2031 0.25736,0.2574 0.0767,0.038 0.19669,-0.061 0.25735,0 0.0606,0.061 -0.0607,0.1967 0,0.2573 0.0606,0.061 0.19669,-0.061 0.25735,0 0.0607,0.061 -0.0607,0.1967 0,0.2574 0.0607,0.061 0.18062,-0.038 0.25735,0 0.1085,0.054 0.14884,0.2031 0.25734,0.2573 0.0767,0.038 0.1967,-0.061 0.25735,0 0.0607,0.061 -0.0607,0.1967 0,0.2574 0.0607,0.061 0.1967,-0.061 0.25735,0 0.0607,0.061 -0.0606,0.1967 0,0.2573 0.12132,0.1213 0.39339,-0.1213 0.51471,0 0.0607,0.061 -0.0607,0.1967 0,0.2574 0.12131,0.1213 0.39338,-0.1213 0.5147,0 0.0607,0.061 -0.0607,0.1967 0,0.2573 0.12131,0.1213 0.39338,-0.1213 0.51469,0 0.0607,0.061 -0.0607,0.1967 0,0.2574 0.0607,0.061 0.18063,-0.038 0.25735,0 0.10851,0.054 0.14885,0.2031 0.25735,0.2573 0.15346,0.077 0.39339,-0.1213 0.5147,0 0.53247,0.5325 -0.81367,-0.021 0.25736,0.5147 0.15345,0.077 0.39338,-0.1213 0.5147,0 0.0607,0.061 -0.0607,0.1967 0,0.2574 0.12131,0.1213 0.39338,-0.1213 0.51469,0 0.0607,0.061 -0.0607,0.1967 0,0.2573 0.17197,0.172 0.34274,-0.1719 0.5147,0 0.0607,0.061 -0.0384,0.1806 0,0.2574 0.53552,1.071 -0.0178,-0.2751 0.5147,0.2573 0.34314,0.3432 -0.42891,0.2574 0.25736,0.2574"
         style="color:#000000;clip-rule:nonzero;display:inline;overflow:visible;visibility:visible;opacity:1;isolation:auto;mix-blend-mode:normal;color-interpolation:sRGB;color-interpolation-filters:linearRGB;solid-color:#000000;solid-opacity:1;fill:none;fill-opacity:1;fill-rule:evenodd;stroke:#000000;stroke-width:1.38269389;stroke-linecap:butt;stroke-linejoin:miter;stroke-miterlimit:4;stroke-dasharray:none;stroke-dashoffset:0;stroke-opacity:1;color-rendering:auto;image-rendering:auto;shape-rendering:auto;text-rendering:auto;enable-background:accumulate" />
      <path
         inkscape:connector-curvature="0"
         id="path5398"
         d="m 79.207876,1331.5267 c 0.0858,0.3431 0.18798,0.6825 0.25734,1.0294 0.0463,0.2316 0,0.5353 0,0.772 0,0.5147 0,1.0294 0,1.5441 0,0.061 -0.0288,0.9717 0,1.0294 0.0543,0.1085 0.2031,0.1489 0.25735,0.2574 0.0384,0.077 0,0.1715 0,0.2573 0,0.1716 0,0.3432 0,0.5147 0,0.5147 0,1.0294 0,1.5441 0,0.6863 0,1.3726 0,2.0588 0,0.1716 0,0.3432 0,0.5147 0,0.086 0.0271,0.176 0,0.2574 -0.0607,0.1819 -0.19669,0.3327 -0.25735,0.5147 -0.0515,0.1544 0,1.0814 0,1.2867 0,0.8579 0,1.7157 0,2.5735 0,2.8309 0,5.6617 0,8.4926 0,1.6299 0,3.2597 0,4.8896 0,0.5147 0,1.0294 0,1.5441 0,0.086 0,0.1716 0,0.2574 0,0.086 0.0384,0.1806 0,0.2573 -0.0543,0.1085 -0.20309,0.1489 -0.25734,0.2574 -0.0392,0.078 0,0.6561 0,0.772 0,0.6863 0,1.3726 0,2.0588 0,0.2574 0.0814,0.5279 0,0.7721 -0.0384,0.1151 -0.2031,0.1488 -0.25736,0.2573 -0.0384,0.077 0,0.1716 0,0.2574 0,0.086 0,0.1715 0,0.2573 0,0.5147 0,1.0294 0,1.5441 0,0.179 0.0465,1.1937 0,1.2868 -0.0543,0.1085 -0.20309,0.1488 -0.25735,0.2573 -0.0338,0.068 0,0.8948 0,1.0294 0,0.5147 0,1.0294 0,1.5441 0,0.086 0.0607,0.1967 0,0.2574 -0.0606,0.061 -0.19669,-0.061 -0.25735,0 -0.0607,0.061 0,0.1715 0,0.2573 0,0.095 -0.0104,1.0191 0,1.0294 0.0607,0.061 0.1967,-0.061 0.25735,0 0.0607,0.061 -0.0606,0.1967 0,0.2574 0.12132,0.1213 0.39339,-0.1213 0.51471,0 0.0607,0.061 -0.0607,0.1967 0,0.2573 0.0607,0.061 0.18062,-0.038 0.25734,0 0.10851,0.054 0.14885,0.2031 0.25735,0.2574 0.15346,0.077 0.36125,-0.077 0.5147,0 0.10851,0.054 0.14885,0.2031 0.25735,0.2573 0.0767,0.038 0.18063,-0.038 0.25735,0 0.10851,0.054 0.14884,0.2031 0.25735,0.2574 0.15346,0.077 0.39339,-0.1213 0.5147,0 0.0607,0.061 -0.0607,0.1967 0,0.2573 0.12132,0.1213 0.36125,-0.077 0.5147,0 0.10851,0.054 0.14885,0.2031 0.25735,0.2574 0.0767,0.038 0.18063,-0.038 0.25735,0 0.21702,0.1085 0.29769,0.4062 0.5147,0.5147 0.15346,0.077 0.36125,-0.077 0.51471,0 0.1085,0.054 0.14884,0.2031 0.25734,0.2573 0.0767,0.038 0.18063,-0.038 0.25735,0 0.10851,0.054 0.14885,0.2031 0.25735,0.2574 0.0767,0.038 0.18063,-0.038 0.25735,0 0.63602,0.318 -0.0888,0.2573 0.5147,0.2573 0.68627,0 -0.0858,-0.086 0.25735,0.2574 0.12132,0.1213 0.36125,-0.077 0.5147,0 0.10851,0.054 0.14885,0.2031 0.25735,0.2573 0.0767,0.038 0.18063,-0.038 0.25735,0 0.10851,0.054 0.14885,0.2031 0.25735,0.2574 0.15346,0.077 0.39339,-0.1213 0.5147,0 0.0607,0.061 -0.0607,0.1967 0,0.2573 0.0607,0.061 0.18063,-0.038 0.25735,0 0.10851,0.054 0.14884,0.2031 0.25735,0.2574 0.0767,0.038 0.18063,-0.038 0.25735,0 0.10851,0.054 0.14885,0.2031 0.25735,0.2573 0.0767,0.038 0.1967,-0.061 0.25735,0 0.0607,0.061 0.0858,0.2574 0,0.2574 -0.0858,0 0,-0.1716 0,-0.2574"
         style="color:#000000;clip-rule:nonzero;display:inline;overflow:visible;visibility:visible;opacity:1;isolation:auto;mix-blend-mode:normal;color-interpolation:sRGB;color-interpolation-filters:linearRGB;solid-color:#000000;solid-opacity:1;fill:none;fill-opacity:1;fill-rule:evenodd;stroke:#000000;stroke-width:1.38269389;stroke-linecap:butt;stroke-linejoin:miter;stroke-miterlimit:4;stroke-dasharray:none;stroke-dashoffset:0;stroke-opacity:1;color-rendering:auto;image-rendering:auto;shape-rendering:auto;text-rendering:auto;enable-background:accumulate" />
      <path
         inkscape:connector-curvature="0"
         id="path5400"
         d="m 78.693166,1299.8726 c -0.34313,0 -0.69651,-0.083 -1.0294,0 -0.0832,0.021 0.0607,0.1967 0,0.2574 -0.0607,0.061 -0.17156,0 -0.25735,0 -0.0858,0 -0.17156,0 -0.25734,0 -0.68627,0 -1.37254,0 -2.0588,0 -0.17157,0 -0.34314,0 -0.51471,0 -0.0858,0 -0.18062,-0.038 -0.25735,0 -0.63601,0.318 0.0888,0.2573 -0.5147,0.2573 -0.94361,0 -1.88723,0 -2.83084,0 -0.13458,0 -0.96174,-0.034 -1.02941,0 -0.1085,0.054 -0.14884,0.2031 -0.25735,0.2574 -0.0677,0.034 -0.89482,0 -1.02939,0 -0.60049,0 -1.20097,0 -1.80145,0 -0.11591,0 -0.69373,-0.039 -0.77205,0 -0.10851,0.054 -0.14885,0.2031 -0.25735,0.2573 -0.0665,0.033 -1.36169,0 -1.5441,0 -0.17157,0 -0.34314,0 -0.5147,0 -0.0858,0 -0.25736,0.086 -0.25736,0 0,-0.086 0.25736,-0.086 0.25736,0 0,0.1213 -0.17157,0.1716 -0.25736,0.2574"
         style="color:#000000;clip-rule:nonzero;display:inline;overflow:visible;visibility:visible;opacity:1;isolation:auto;mix-blend-mode:normal;color-interpolation:sRGB;color-interpolation-filters:linearRGB;solid-color:#000000;solid-opacity:1;fill:none;fill-opacity:1;fill-rule:evenodd;stroke:#000000;stroke-width:1.38269389;stroke-linecap:butt;stroke-linejoin:miter;stroke-miterlimit:4;stroke-dasharray:none;stroke-dashoffset:0;stroke-opacity:1;color-rendering:auto;image-rendering:auto;shape-rendering:auto;text-rendering:auto;enable-background:accumulate" />
      <path
         inkscape:connector-curvature="0"
         id="path5402"
         d="m 62.222776,1300.902 c 0,0.3432 -0.0673,0.693 0,1.0294 0.0238,0.119 0.20309,0.1489 0.25735,0.2574 0.0392,0.078 0,0.6561 0,0.772 0,0.6005 0,1.201 0,1.8015 0,0.086 0,0.1715 0,0.2573 0,0.086 -0.0384,0.1807 0,0.2574 0.0543,0.1085 0.20309,0.1488 0.25734,0.2573 0.0384,0.077 0,0.1716 0,0.2574 0,0.1715 0,0.3431 0,0.5147 0,0.5147 0,1.0294 0,1.5441 0,0.086 0,0.1715 0,0.2573 0,0.086 -0.0384,0.1807 0,0.2574 0.0543,0.1085 0.2031,0.1488 0.25735,0.2573 0.0392,0.078 0,0.6562 0,0.7721 0,0.772 0,1.5441 0,2.3161 0,0.061 -0.0288,0.9717 0,1.0294 0.0543,0.1085 0.2031,0.1489 0.25735,0.2574 0.0812,0.1623 -0.0812,1.1244 0,1.2867 0.0543,0.1085 0.2031,0.1489 0.25735,0.2574 0.0392,0.078 0,0.6561 0,0.772 0,0.7721 0,1.5441 0,2.3162 0,0.062 -0.008,0.7637 0,0.772 0.0607,0.061 0.1967,-0.061 0.25736,0 0.0607,0.061 0,0.1716 0,0.2574 0,0.086 0,0.1715 0,0.2573 0,0.5147 0,1.0294 0,1.5441 0,0.086 0,0.1716 0,0.2574 0,0.086 0.0384,0.1806 0,0.2573 -0.0543,0.1085 -0.2031,0.1489 -0.25736,0.2574 -0.0338,0.068 0,0.8948 0,1.0294 0,0.772 0,1.5441 0,2.3161 0,1.5441 0,3.0882 0,4.6323 0,0.4289 0,0.8579 0,1.2868 0,0.086 0,0.1715 0,0.2573 0,0.086 0.0384,0.1806 0,0.2574 -0.0542,0.1085 -0.20309,0.1488 -0.25735,0.2573 -0.0392,0.078 0,0.6562 0,0.7721 0,0.5147 0,1.0294 0,1.5441 0,0.1346 0.0338,0.9617 0,1.0294 -0.0543,0.1085 -0.20309,0.1488 -0.25735,0.2573 -0.0392,0.078 0,0.6562 0,0.7721 0,0.5147 0,1.0294 0,1.5441 0,0.6862 0,1.3725 0,2.0588 0,0.086 0,0.1715 0,0.2573 0,0.086 -0.0607,0.1967 0,0.2574 0.0607,0.061 0.1967,-0.061 0.25735,0 0.0797,0.08 -0.0797,1.207 0,1.2867 0.0607,0.061 0.1967,-0.061 0.25735,0 0.12868,0.1287 -0.12867,0.6434 0,0.7721 0.0607,0.061 0.1967,-0.061 0.25736,0 0.12131,0.1213 -0.0767,0.3612 0,0.5147 0.53551,1.071 -0.0178,-0.2751 0.5147,0.2573 0.0607,0.061 -0.0607,0.1967 0,0.2574 0.0607,0.061 0.19669,-0.061 0.25735,0 0.0607,0.061 -0.0607,0.1967 0,0.2573 0.0607,0.061 0.17156,0 0.25734,0 0.0858,0 0.1967,0.061 0.25735,0 0.0607,-0.061 -0.0607,-0.1967 0,-0.2573 0.0607,-0.061 0.1967,0.061 0.25735,0 0.0607,-0.061 -0.0607,-0.1967 0,-0.2574 0.0607,-0.061 0.1967,0.061 0.25735,0 0.0607,-0.061 0,-0.1715 0,-0.2573 0,-0.6863 0,-1.3726 0,-2.0588"
         style="color:#000000;clip-rule:nonzero;display:inline;overflow:visible;visibility:visible;opacity:1;isolation:auto;mix-blend-mode:normal;color-interpolation:sRGB;color-interpolation-filters:linearRGB;solid-color:#000000;solid-opacity:1;fill:none;fill-opacity:1;fill-rule:evenodd;stroke:#000000;stroke-width:1.38269389;stroke-linecap:butt;stroke-linejoin:miter;stroke-miterlimit:4;stroke-dasharray:none;stroke-dashoffset:0;stroke-opacity:1;color-rendering:auto;image-rendering:auto;shape-rendering:auto;text-rendering:auto;enable-background:accumulate" />
      <path
         inkscape:connector-curvature="0"
         id="path5404"
         d="m 78.435816,1300.13 c -0.23141,1.3176 0.94485,0.3437 1.28675,0.5147 0.10851,0.054 0.14885,0.2031 0.25735,0.2573 0.15346,0.077 0.36125,-0.077 0.5147,0 0.10851,0.054 0.14885,0.2031 0.25735,0.2574 0.15346,0.077 0.36125,-0.077 0.51471,0 0.1085,0.054 0.14884,0.2031 0.25734,0.2573 0.15346,0.077 0.36125,-0.077 0.5147,0 0.10851,0.054 0.14885,0.2031 0.25735,0.2574 0.15346,0.077 0.36125,-0.077 0.5147,0 0.10851,0.054 0.14884,0.2031 0.25735,0.2573 0.15346,0.077 0.36125,-0.077 0.51471,0 0.1085,0.054 0.14884,0.2031 0.25734,0.2574 0.20588,0.1029 0.56617,-0.103 0.77205,0 0.10851,0.054 0.14885,0.2031 0.25735,0.2573 0.15346,0.077 0.39339,-0.1213 0.5147,0 0.0607,0.061 -0.0606,0.1967 0,0.2574 0.0526,0.053 0.67002,-0.051 0.77205,0 0.10851,0.054 0.14885,0.2031 0.25735,0.2573 0.10204,0.051 0.71944,-0.053 0.77205,0 0.0607,0.061 -0.0607,0.1967 0,0.2574 0.12868,0.1287 0.64338,-0.1287 0.77205,0 0.0607,0.061 -0.0607,0.1967 0,0.2573 0.0526,0.053 0.67002,-0.051 0.77205,0 0.10851,0.054 0.14885,0.2031 0.25735,0.2574 0.20588,0.1029 0.56617,-0.103 0.77205,0 0.10851,0.054 0.14884,0.2031 0.25735,0.2573 0.0665,0.033 1.36169,0 1.5441,0 0.0858,0 0.1967,-0.061 0.25735,0 0.0607,0.061 -0.0607,0.1967 0,0.2574 0.008,0.01 0.70964,0 0.77205,0 0.13458,0 0.96174,-0.034 1.0294,0 0.10851,0.054 0.14884,0.2031 0.25735,0.2573 0.0931,0.047 1.10776,0 1.28675,0 1.0294,0 2.0588,0 3.0882,0 0.0624,0 0.76378,0.01 0.77205,0 0.0607,-0.061 -0.0607,-0.1967 0,-0.2573 0.0607,-0.061 0.17157,0 0.25735,0 0.179,0 1.193694,0.047 1.286754,0 0.10851,-0.054 0.14884,-0.2031 0.25735,-0.2574 0.16175,-0.081 0.86765,0.081 1.0294,0 0.10851,-0.054 0.14884,-0.2031 0.25735,-0.2573 0.20588,-0.103 0.56617,0.1029 0.77205,0 0.10851,-0.054 0.14884,-0.2031 0.25735,-0.2574 0.20588,-0.1029 0.56617,0.103 0.77205,0 0.10851,-0.054 0.14884,-0.2031 0.25735,-0.2573 0.20588,-0.103 0.56617,0.1029 0.77205,0 0.10851,-0.054 0.14884,-0.2031 0.25735,-0.2574 0.13961,-0.07 0.95899,0.07 1.0294,0 0.0607,-0.061 -0.0607,-0.1967 0,-0.2573 0.0903,-0.09 1.10899,0.089 1.28675,0 0.10851,-0.054 0.14885,-0.2031 0.25735,-0.2574 0.15346,-0.077 0.36125,0.077 0.5147,0 0.10851,-0.054 0.14884,-0.2031 0.25735,-0.2573 0.15346,-0.077 0.36125,0.077 0.5147,0 0.10851,-0.054 0.14884,-0.2031 0.25735,-0.2574 0.13961,-0.07 0.95899,0.07 1.0294,0 0.0607,-0.061 -0.0607,-0.1967 0,-0.2573 0.0607,-0.061 0.17157,0 0.25735,0 0.0858,0 0.17157,0 0.25735,0 0.42892,0 0.85784,0 1.28675,0 0.0858,0 0.17157,0 0.25735,0 0.0858,0 0.18063,0.038 0.25735,0 0.10851,-0.054 0.14884,-0.2031 0.25735,-0.2574 0.0767,-0.038 0.19669,0.061 0.25735,0 0.0257,-0.026 0.0257,-0.7463 0,-0.772 -0.0607,-0.061 -0.19669,0.061 -0.25735,0 -0.0607,-0.061 0.0607,-0.1967 0,-0.2574 -0.008,-0.01 -0.70963,0 -0.77205,0 -0.12134,0 -1.27508,-0.012 -1.28675,0 -0.0607,0.061 0.0607,0.1967 0,0.2574 -0.0607,0.061 -0.17156,0 -0.25735,0 -0.5147,0 -1.0294,0 -1.5441,0 -0.0858,0 -0.19669,-0.061 -0.25735,0 -0.0607,0.061 -0.0607,0.1967 0,0.2573 0.0607,0.061 0.19669,-0.061 0.25735,0 0.0607,0.061 0,0.1716 0,0.2574"
         style="color:#000000;clip-rule:nonzero;display:inline;overflow:visible;visibility:visible;opacity:1;isolation:auto;mix-blend-mode:normal;color-interpolation:sRGB;color-interpolation-filters:linearRGB;solid-color:#000000;solid-opacity:1;fill:none;fill-opacity:1;fill-rule:evenodd;stroke:#000000;stroke-width:1.38269389;stroke-linecap:butt;stroke-linejoin:miter;stroke-miterlimit:4;stroke-dasharray:none;stroke-dashoffset:0;stroke-opacity:1;color-rendering:auto;image-rendering:auto;shape-rendering:auto;text-rendering:auto;enable-background:accumulate" />
      <path
         inkscape:connector-curvature="0"
         id="path5406"
         d="m 165.55172,1295.2403 c 0.13153,-1.5534 -0.97744,0.052 -1.28673,-0.2573 -0.0607,-0.061 0.0607,-0.1967 0,-0.2574 -0.12869,-0.1286 -0.6434,0.1287 -0.77206,0 -0.0607,-0.061 0.0606,-0.1967 0,-0.2573 -0.0607,-0.061 -0.18063,0.038 -0.25736,0 -0.10851,-0.054 -0.14884,-0.2031 -0.25735,-0.2574 -0.0767,-0.038 -0.18062,0.038 -0.25735,0 -0.10851,-0.054 -0.14884,-0.2031 -0.25735,-0.2573 -0.15346,-0.077 -0.39337,0.1213 -0.51468,0 -0.0607,-0.061 0.0607,-0.1967 0,-0.2574 -0.12132,-0.1213 -0.3934,0.1213 -0.51471,0 -0.0607,-0.061 0.0607,-0.1967 0,-0.2573 -0.17153,-0.1715 -0.34318,0.1715 -0.51471,0 -0.0607,-0.061 0.0607,-0.1967 0,-0.2574 -0.0607,-0.061 -0.18062,0.038 -0.25735,0 -1.07103,-0.5355 0.27512,0.018 -0.25735,-0.5147 -0.0607,-0.061 -0.19667,0.061 -0.25735,0 -0.0607,-0.061 0.0607,-0.1967 0,-0.2573 -0.0607,-0.061 -0.19668,0.061 -0.25733,0 -0.0607,-0.061 0.0606,-0.1967 0,-0.2574 -0.0607,-0.061 -0.1967,0.061 -0.25735,0 -0.0607,-0.061 0.0607,-0.1967 0,-0.2573 -0.0607,-0.061 -0.1967,0.061 -0.25736,0 -0.0607,-0.061 0.0384,-0.1806 0,-0.2574 -0.0543,-0.1085 -0.20311,-0.1488 -0.25735,-0.2573 -0.0384,-0.077 0.0607,-0.1967 0,-0.2574 -0.0607,-0.061 -0.1967,0.061 -0.25735,0 -0.17166,-0.1716 0.17165,-0.343 0,-0.5147 -0.0607,-0.061 -0.1967,0.061 -0.25736,0 -0.0606,-0.061 0.0384,-0.1806 0,-0.2573 -0.0687,-0.1374 -0.44604,-0.3774 -0.5147,-0.5147 -0.0767,-0.1535 0.12131,-0.3934 0,-0.5147 -0.0607,-0.061 -0.19667,0.061 -0.25735,0 -0.12132,-0.1213 0.0767,-0.3613 0,-0.5147 -0.0542,-0.1085 -0.20309,-0.1489 -0.25733,-0.2574 -0.0384,-0.077 0.0383,-0.1806 0,-0.2573 -0.0543,-0.1085 -0.20311,-0.1489 -0.25736,-0.2574 -0.13733,-0.2746 0.13734,-0.24 0,-0.5147 -0.0543,-0.1085 -0.2031,-0.1488 -0.25735,-0.2573 -0.0338,-0.068 0,-0.8948 0,-1.0294 0,-0.5147 0,-1.0294 0,-1.5441 0,-0.086 -0.0607,-0.1967 0,-0.2574 0.0607,-0.061 0.1967,0.061 0.25735,0 0.12132,-0.1213 -0.12131,-0.3934 0,-0.5147 0.0607,-0.061 0.1967,0.061 0.25736,0 0.17165,-0.1716 -0.17168,-0.343 0,-0.5147 0.0606,-0.061 0.19667,0.061 0.25733,0 0.0607,-0.061 -0.0384,-0.1806 0,-0.2573 0.0543,-0.1085 0.2031,-0.1489 0.25735,-0.2574 0.0384,-0.077 -0.0607,-0.1967 0,-0.2573 0.0606,-0.061 0.18062,0.038 0.25735,0 0.10851,-0.054 0.14884,-0.2031 0.25735,-0.2574 0.0767,-0.038 0.1967,0.061 0.25736,0 0.12131,-0.1213 -0.12132,-0.3933 0,-0.5147 0.0607,-0.061 0.18062,0.038 0.25735,0 1.07103,-0.5355 -0.27512,0.018 0.25735,-0.5147 0.0607,-0.061 0.18063,0.038 0.25736,0 0.10848,-0.054 0.14884,-0.2031 0.25735,-0.2573 0.0767,-0.038 0.1806,0.038 0.25733,0 0.10851,-0.054 0.14884,-0.2031 0.25735,-0.2574 0.0767,-0.038 0.18062,0.038 0.25735,0 0.10851,-0.054 0.14884,-0.2031 0.25735,-0.2573 0.15346,-0.077 0.3934,0.1213 0.51471,0 0.0607,-0.061 -0.0607,-0.1967 0,-0.2574 0.0607,-0.061 0.17155,0 0.25735,0 0.12134,0 1.27508,0.012 1.28674,0 0.0607,-0.061 -0.0607,-0.1967 0,-0.2573 0.0607,-0.061 0.17158,0 0.25735,0 0.17901,0 1.19369,-0.047 1.28677,0 0.10849,0.054 0.14884,0.2031 0.25733,0.2573 0.0783,0.039 0.65617,0 0.77205,0 0.0858,0 0.17158,0 0.25736,0 0.0858,0 0.19669,-0.061 0.25735,0 0.0607,0.061 -0.0607,0.1967 0,0.2574 0.12131,0.1213 0.39339,-0.1213 0.51471,0 0.0606,0.061 -0.0607,0.1967 0,0.2573 0.12866,0.1287 0.64336,-0.1286 0.77203,0 0.0607,0.061 -0.0607,0.1967 0,0.2574 0.0607,0.061 0.18062,-0.038 0.25735,0 0.10851,0.054 0.14884,0.2031 0.25735,0.2573 0.0767,0.038 0.1967,-0.061 0.25736,0 0.0607,0.061 -0.0607,0.1967 0,0.2574 0.17165,0.1716 0.34302,-0.1717 0.5147,0 0.0607,0.061 -0.0607,0.1967 0,0.2573 0.0607,0.061 0.1967,-0.061 0.25736,0 0.0606,0.061 -0.0384,0.1806 0,0.2574 0.10848,0.217 0.40619,0.2977 0.51468,0.5147 0.0384,0.077 -0.0607,0.1967 0,0.2573 0.0607,0.061 0.19669,-0.061 0.25735,0 0.0607,0.061 -0.0383,0.1807 0,0.2574 0.0543,0.1085 0.20311,0.1488 0.25735,0.2573 0.0767,0.1535 -0.0767,0.3613 0,0.5147 0.0543,0.1085 0.20311,0.1489 0.25735,0.2574 0.0698,0.1396 -0.0704,0.959 0,1.0294 0.0607,0.061 0.1967,-0.061 0.25736,0 0.0607,0.061 0,0.1716 0,0.2573 0,0.086 0,0.1716 0,0.2574 0,0.9436 0,1.8872 0,2.8308 0,0.6005 0,1.201 0,1.8015 0,0.1159 0.0392,0.6937 0,0.772 -0.0543,0.1085 -0.20311,0.1489 -0.25736,0.2574 -0.0889,0.1777 0.0903,1.1964 0,1.2867 -0.0607,0.061 -0.19669,-0.061 -0.25735,0 -0.12866,0.1287 0.12869,0.6434 0,0.7721 -0.0607,0.061 -0.19669,-0.061 -0.25735,0 -0.12131,0.1213 0.0767,0.3612 0,0.5147 -0.0542,0.1085 -0.20309,0.1488 -0.25735,0.2573 -0.051,0.1021 0.0526,0.7195 0,0.7721 -0.0607,0.061 -0.19668,-0.061 -0.25733,0 -0.12134,0.1213 0.12131,0.3934 0,0.5147 -0.0607,0.061 -0.1967,-0.061 -0.25735,0 -0.12132,0.1213 0.12131,0.3934 0,0.5147 -0.0607,0.061 -0.1967,-0.061 -0.25736,0 -0.0607,0.061 0.0607,0.1967 0,0.2573 -0.0607,0.061 -0.17157,0 -0.25735,0 -0.11591,0 -0.69373,0.039 -0.77206,0 -0.10851,-0.054 -0.14884,-0.2031 -0.25735,-0.2573 -0.10203,-0.051 -0.71944,0.053 -0.77203,0 -0.0607,-0.061 0,-0.1716 0,-0.2574 -0.34316,-0.1715 -0.68629,-0.3431 -1.02942,-0.5147 z"
         style="color:#000000;clip-rule:nonzero;display:inline;overflow:visible;visibility:visible;opacity:1;isolation:auto;mix-blend-mode:normal;color-interpolation:sRGB;color-interpolation-filters:linearRGB;solid-color:#000000;solid-opacity:1;fill:#000000;fill-opacity:1;fill-rule:evenodd;stroke:#000000;stroke-width:1.38269389;stroke-linecap:butt;stroke-linejoin:miter;stroke-miterlimit:4;stroke-dasharray:none;stroke-dashoffset:0;stroke-opacity:1;color-rendering:auto;image-rendering:auto;shape-rendering:auto;text-rendering:auto;enable-background:accumulate" />
      <path
         inkscape:connector-curvature="0"
         id="path5408"
         d="m 161.94884,1296.0124 c 0.57733,0.9084 0.51468,0.9703 0.51468,1.8014 0,0.086 -0.0607,0.1967 0,0.2574 0.0607,0.061 0.19669,-0.061 0.25735,0 0.0607,0.061 0,0.1715 0,0.2573 0,0.4289 0,0.8579 0,1.2868 0,0.1346 -0.0338,0.9617 0,1.0294 0.0543,0.1085 0.20311,0.1488 0.25735,0.2573 0.0338,0.068 0,0.8949 0,1.0294 0,0.6005 0,1.201 0,1.8015 0,0.1159 -0.0392,0.6937 0,0.772 0.0543,0.1085 0.20311,0.1489 0.25735,0.2574 0.0392,0.078 0,0.6561 0,0.772 0,0.5147 0,1.0294 0,1.5441 0,1.4583 0,2.9167 0,4.375 0,0.6862 0,1.3725 0,2.0588 0,0.1345 -0.0338,0.9617 0,1.0294 0.0543,0.1085 0.20311,0.1488 0.25736,0.2573 0.0392,0.078 0,0.6562 0,0.7721 0,0.5147 0,1.0294 0,1.5441 0,2.0588 0,4.1176 0,6.1764 0,1.6299 0,3.2597 0,4.8896 0,0.5147 0,1.0294 0,1.5441 0,0.086 0,0.1716 0,0.2574 0,0.086 -0.0384,0.1806 0,0.2573 0.0542,0.1085 0.20308,0.1489 0.25735,0.2574 0.0383,0.077 0,0.1715 0,0.2573 0,0.086 0,0.1716 0,0.2574 0,0.4289 0,0.8578 0,1.2867 0,0.086 -0.0607,0.1967 0,0.2574 0.34313,0.3431 0.25735,-0.4289 0.25735,0.2573 0,0.3432 0,0.6863 0,1.0294 0,0.086 0.0858,0.2574 0,0.2574 -0.0858,0 0,-0.1716 0,-0.2574"
         style="color:#000000;clip-rule:nonzero;display:inline;overflow:visible;visibility:visible;opacity:1;isolation:auto;mix-blend-mode:normal;color-interpolation:sRGB;color-interpolation-filters:linearRGB;solid-color:#000000;solid-opacity:1;fill:none;fill-opacity:1;fill-rule:evenodd;stroke:#000000;stroke-width:1.38269389;stroke-linecap:butt;stroke-linejoin:miter;stroke-miterlimit:4;stroke-dasharray:none;stroke-dashoffset:0;stroke-opacity:1;color-rendering:auto;image-rendering:auto;shape-rendering:auto;text-rendering:auto;enable-background:accumulate" />
      <path
         inkscape:connector-curvature="0"
         id="path5410"
         d="m 168.63993,1330.7546 c 0.17155,0.3432 0.34313,0.6863 0.51471,1.0294 0,0.086 -0.0384,0.1806 0,0.2574 0.0542,0.1085 0.20308,0.1488 0.25733,0.2573 0.0781,0.1563 -0.0781,1.3879 0,1.5441 0.0543,0.1085 0.20311,0.1489 0.25735,0.2574 0.0392,0.078 0,0.6561 0,0.772 0,0.6863 0,1.3726 0,2.0588 0,0.2179 -0.0461,0.8911 0,1.0294 0.0384,0.1151 0.20311,0.1489 0.25735,0.2574 0.0465,0.093 0,1.1077 0,1.2867 0,0.9436 0,1.8873 0,2.8309 0,0.6862 0,1.3725 0,2.0588 0,0.061 0.0288,0.9717 0,1.0294 -0.0542,0.1085 -0.20308,0.1488 -0.25735,0.2573 -0.15087,0.3018 0.15272,0.3055 0.25735,0.5147 0.0384,0.077 0,0.1716 0,0.2574 0,0.086 0.0384,0.1806 0,0.2573 -0.0542,0.1085 -0.20308,0.1489 -0.25735,0.2574 -0.0383,0.077 0,0.1715 0,0.2573 0,0.086 0,0.1716 0,0.2574 0,0.4289 0,0.8578 0,1.2867 0,0.086 0.0384,0.1806 0,0.2574 -0.0542,0.1085 -0.20309,0.1488 -0.25735,0.2573 -0.0333,0.067 0,1.3617 0,1.5441 0,0.086 0,0.1716 0,0.2574 0,0.086 0.0607,0.1967 0,0.2573 -0.0607,0.061 -0.19668,-0.061 -0.25733,0 -0.0607,0.061 0,0.1716 0,0.2574 0,0.086 0,0.1715 0,0.2573 0,0.6005 0,1.201 0,1.8015 0,0.1159 0.0391,0.6937 0,0.772 -0.0543,0.1085 -0.20311,0.1489 -0.25735,0.2574 -0.0392,0.078 0,0.6561 0,0.772 0,0.5147 0,1.0294 0,1.5441 0,1.3726 0,2.7451 0,4.1176 0,0.6863 0,1.3726 0,2.0588 0,0.1159 0.0392,0.6938 0,0.7721 -0.0543,0.1085 -0.20311,0.1488 -0.25736,0.2573 -0.0392,0.078 0,0.6562 0,0.7721 0,0.5147 0,1.0294 0,1.5441 0,0.086 0,0.1715 0,0.2573 0,0.086 -0.0607,0.1967 0,0.2574 0.0607,0.061 0.1967,-0.061 0.25736,0 0.0117,0.012 0,1.1654 0,1.2867 0,0.8579 0,1.7157 0,2.5735 0,0.086 0,0.1716 0,0.2574 0,0.086 0.0606,0.1967 0,0.2573 -0.0607,0.061 -0.1967,-0.061 -0.25736,0 -0.0607,0.061 0,0.1716 0,0.2574 0,0.062 -0.008,0.7637 0,0.772 0.0607,0.061 0.1967,-0.061 0.25736,0 0.12866,0.1287 -0.12869,0.6434 0,0.7721 0.0606,0.061 0.17155,0 0.25735,0 0,0.086 -0.0607,0.1967 0,0.2573 0.0607,0.061 0.19667,-0.061 0.25733,0 0,0.6863 -0.0858,-0.086 0.25735,0.2574 0.0607,0.061 -0.0607,0.1967 0,0.2573 0.0607,0.061 0.18062,-0.038 0.25735,0 0.10851,0.054 0.14884,0.2031 0.25735,0.2574 0.0767,0.038 0.1967,-0.061 0.25736,0 0.0607,0.061 -0.0607,0.1967 0,0.2573 0.12131,0.1213 0.39339,-0.1213 0.5147,0 0.0607,0.061 -0.0607,0.1967 0,0.2574 0.12132,0.1213 0.36123,-0.077 0.51468,0 0.10852,0.054 0.14887,0.2031 0.25736,0.2573 0.0767,0.038 0.18062,-0.038 0.25735,0 0.10851,0.054 0.14884,0.2031 0.25735,0.2574 0.15346,0.077 0.39339,-0.1213 0.51471,0 0.0607,0.061 -0.0607,0.1967 0,0.2573 0.12131,0.1213 0.36125,-0.077 0.5147,0 0.10852,0.054 0.14884,0.2031 0.25736,0.2574 0.15345,0.077 0.39336,-0.1213 0.51468,0 0.0607,0.061 -0.0607,0.1967 0,0.2573 0.12131,0.1213 0.39339,-0.1213 0.5147,0 0.0607,0.061 -0.0607,0.1967 0,0.2574 0.12869,0.1286 0.64337,-0.1287 0.77206,0 0.0607,0.061 -0.0607,0.1967 0,0.2573 0.0526,0.053 0.67001,-0.051 0.77203,0 0.10852,0.054 0.14887,0.2031 0.25736,0.2574 0.0767,0.038 0.18062,-0.038 0.25735,0 0.63602,0.318 -0.0888,0.2573 0.5147,0.2573 0.68626,0 -0.0858,-0.086 0.25736,0.2574 0.12866,0.1286 0.64337,-0.1287 0.77206,0 0.0607,0.061 -0.0607,0.1967 0,0.2573 0.25385,0.2539 0.51468,-0.5273 0.51468,0.2574"
         style="color:#000000;clip-rule:nonzero;display:inline;overflow:visible;visibility:visible;opacity:1;isolation:auto;mix-blend-mode:normal;color-interpolation:sRGB;color-interpolation-filters:linearRGB;solid-color:#000000;solid-opacity:1;fill:none;fill-opacity:1;fill-rule:evenodd;stroke:#000000;stroke-width:1.38269389;stroke-linecap:butt;stroke-linejoin:miter;stroke-miterlimit:4;stroke-dasharray:none;stroke-dashoffset:0;stroke-opacity:1;color-rendering:auto;image-rendering:auto;shape-rendering:auto;text-rendering:auto;enable-background:accumulate" />
      <path
         inkscape:connector-curvature="0"
         id="path5412"
         d="m 159.11798,1332.5561 c 1.47697,0.087 0.3081,0.8735 0.51471,1.2867 0.0542,0.1085 0.20308,0.1489 0.25735,0.2574 0.0383,0.077 0,0.1715 0,0.2573 0,0.1716 -0.0543,0.352 0,0.5147 0.0383,0.1151 0.20308,0.1489 0.25733,0.2574 0.0843,0.1685 -0.0761,1.0583 0,1.2867 0.0607,0.182 0.19669,0.3328 0.25735,0.5147 0.05,0.1499 0,1.3671 0,1.5441 0,0.9436 0,1.8873 0,2.8309 0,0.9436 0,1.8872 0,2.8308 0,0.1437 0.0393,1.169 0,1.2868 -0.0384,0.1151 -0.21898,0.1422 -0.25735,0.2573 -0.0502,0.1506 0,1.3232 0,1.5441 0,0.5147 0,1.0294 0,1.5441 0,0.086 0,0.1716 0,0.2574 0,0.086 0.0384,0.1806 0,0.2573 -0.0542,0.1085 -0.20309,0.1489 -0.25733,0.2574 -0.0384,0.077 0,0.1715 0,0.2573 0,0.086 0,0.1716 0,0.2574 0,0.2591 0.0474,1.4018 0,1.5441 -0.0384,0.1151 -0.20311,0.1488 -0.25735,0.2573 -0.0384,0.077 0,0.1716 0,0.2574 0,0.1715 0,0.3431 0,0.5147 0,0.6005 0,1.2009 0,1.8014 0,0.6863 0,1.3726 0,2.0588 0,0.1346 0.0338,0.9618 0,1.0294 -0.0543,0.1085 -0.20311,0.1489 -0.25736,0.2574 -0.0392,0.078 0,0.6561 0,0.772 0,0.9436 0,1.8873 0,2.8309 0,0.179 0.0465,1.1937 0,1.2867 -0.0543,0.1085 -0.20311,0.1489 -0.25735,0.2574 -0.0392,0.078 0,0.6561 0,0.772 0,0.6863 0,1.3726 0,2.0588 0,0.1824 0.0333,1.4776 0,1.5441 -0.0543,0.1085 -0.20311,0.1489 -0.25735,0.2574 -0.0392,0.078 0,0.6561 0,0.772 0,0.4289 0,0.8579 0,1.2868 0,0.086 0.0607,0.1967 0,0.2573 -0.0607,0.061 -0.1967,-0.061 -0.25736,0 -0.0606,0.061 0,0.1716 0,0.2574 0,0.1824 0.0333,1.4775 0,1.5441 -0.0542,0.1085 -0.20308,0.1488 -0.25735,0.2573 -0.0812,0.1624 0.0812,1.1244 0,1.2868 -0.0542,0.1085 -0.20308,0.1488 -0.25735,0.2573 -0.0465,0.093 0,1.1078 0,1.2868 0,1.0294 0,2.0588 0,3.0882 0,0.6005 0,1.2009 0,1.8014 0,0.1159 -0.0392,0.6938 0,0.7721 0.15441,0.3088 0.61764,0.4632 0.77206,0.772 0.0384,0.077 -0.0607,0.1967 0,0.2574 0.0607,0.061 0.18062,-0.038 0.25735,0 0.21702,0.1085 0.29768,0.4062 0.51471,0.5147 0.0767,0.038 0.18062,-0.038 0.25735,0 0.10849,0.054 0.14884,0.2031 0.25733,0.2573 0.0767,0.038 0.19669,-0.061 0.25735,0 0.0607,0.061 -0.0384,0.1806 0,0.2574 0.53551,1.071 -0.0178,-0.2751 0.5147,0.2573 0.0607,0.061 -0.0607,0.1967 0,0.2574 0.0607,0.061 0.18063,-0.038 0.25736,0 0.10851,0.054 0.14884,0.2031 0.25735,0.2573 0.0767,0.038 0.1967,-0.061 0.25735,0 0.0607,0.061 -0.0606,0.1967 0,0.2574 0.12132,0.1213 0.36125,-0.077 0.51471,0 0.10849,0.054 0.14884,0.2031 0.25733,0.2573 0.0767,0.038 0.19669,-0.061 0.25735,0 0.0607,0.061 -0.0607,0.1967 0,0.2574 0.0607,0.061 0.19669,-0.061 0.25735,0 0.0607,0.061 -0.0607,0.1967 0,0.2573 0.12131,0.1213 0.36125,-0.077 0.51471,0 0.10851,0.054 0.14884,0.2031 0.25735,0.2574 0.0767,0.038 0.1967,-0.061 0.25735,0 0.0607,0.061 -0.0607,0.1967 0,0.2573 0.17166,0.1717 0.34303,-0.1716 0.51471,0 0.0607,0.061 -0.0607,0.1967 0,0.2574 0.0607,0.061 0.19667,-0.061 0.25733,0 0.0607,0.061 -0.0607,0.1967 0,0.2573 0.0607,0.061 0.18062,-0.038 0.25735,0 0.61625,0.3081 -0.16217,0.5147 0.5147,0.5147"
         style="color:#000000;clip-rule:nonzero;display:inline;overflow:visible;visibility:visible;opacity:1;isolation:auto;mix-blend-mode:normal;color-interpolation:sRGB;color-interpolation-filters:linearRGB;solid-color:#000000;solid-opacity:1;fill:none;fill-opacity:1;fill-rule:evenodd;stroke:#000000;stroke-width:1.38269389;stroke-linecap:butt;stroke-linejoin:miter;stroke-miterlimit:4;stroke-dasharray:none;stroke-dashoffset:0;stroke-opacity:1;color-rendering:auto;image-rendering:auto;shape-rendering:auto;text-rendering:auto;enable-background:accumulate" />
      <path
         inkscape:connector-curvature="0"
         id="path5414"
         d="m 170.44138,1300.13 c -0.34313,0.1715 -0.67321,0.3722 -1.02941,0.5147 -0.20628,0.082 -1.11598,-0.085 -1.28674,0 -0.10852,0.054 -0.14884,0.2031 -0.25736,0.2573 -0.16174,0.081 -0.86764,-0.081 -1.02938,0 -0.10851,0.054 -0.14887,0.2031 -0.25735,0.2574 -0.0783,0.039 -0.65617,0 -0.77206,0 -0.13457,0 -0.96174,-0.034 -1.02941,0 -0.10849,0.054 -0.14884,0.2031 -0.25733,0.2573 -0.0931,0.046 -1.10776,0 -1.28677,0 -0.0858,0 -0.19669,-0.061 -0.25735,0 -0.0607,0.061 0.0607,0.1967 0,0.2574 -0.0526,0.053 -0.67001,-0.051 -0.77203,0 -0.10851,0.054 -0.14887,0.2031 -0.25735,0.2573 -0.2059,0.103 -0.56619,-0.1029 -0.77206,0 -0.10852,0.054 -0.14884,0.2031 -0.25736,0.2574 -0.15345,0.077 -0.39339,-0.1213 -0.5147,0 -0.0607,0.061 0.0607,0.1967 0,0.2573 -0.0526,0.053 -0.67001,-0.051 -0.77203,0 -0.10852,0.054 -0.14885,0.2031 -0.25736,0.2574 -0.0931,0.046 -1.10776,0 -1.28676,0 -0.0858,0 -0.19667,-0.061 -0.25735,0 -0.0607,0.061 0.0607,0.1967 0,0.2573 -0.008,0.01 -0.70963,0 -0.77204,0 -0.0624,0 -0.76377,-0.01 -0.77206,0 -0.0606,0.061 0.0607,0.1967 0,0.2574 -0.0606,0.061 -0.17155,0 -0.25735,0 -0.0858,0 -0.1967,0.061 -0.25735,0 -0.0607,-0.061 0.0607,-0.1967 0,-0.2574 -0.0607,-0.061 -0.17155,0 -0.25735,0 -0.0858,0 -0.17156,0 -0.25733,0 -0.0858,0 -0.17158,0 -0.25736,0 -0.0858,0 -0.19669,-0.061 -0.25735,0 -0.0607,0.061 -0.0607,0.1967 0,0.2574 0.0607,0.061 0.17155,0 0.25735,0"
         style="color:#000000;clip-rule:nonzero;display:inline;overflow:visible;visibility:visible;opacity:1;isolation:auto;mix-blend-mode:normal;color-interpolation:sRGB;color-interpolation-filters:linearRGB;solid-color:#000000;solid-opacity:1;fill:none;fill-opacity:1;fill-rule:evenodd;stroke:#000000;stroke-width:1.38269389;stroke-linecap:butt;stroke-linejoin:miter;stroke-miterlimit:4;stroke-dasharray:none;stroke-dashoffset:0;stroke-opacity:1;color-rendering:auto;image-rendering:auto;shape-rendering:auto;text-rendering:auto;enable-background:accumulate" />
      <path
         inkscape:connector-curvature="0"
         id="path5416"
         d="m 153.19894,1302.7035 c 0.34313,0.086 0.71302,0.099 1.02939,0.2573 0.0767,0.038 -0.0607,0.1967 0,0.2574 0.0607,0.061 0.18062,-0.038 0.25735,0 0.10851,0.054 0.14884,0.2031 0.25735,0.2573 0.0767,0.038 0.18063,-0.038 0.25735,0 0.10852,0.054 0.14885,0.2031 0.25736,0.2574 0.0767,0.038 0.19667,-0.061 0.25733,0 0.0607,0.061 -0.0607,0.1967 0,0.2573 0.12133,0.1213 0.36125,-0.077 0.5147,0 0.10851,0.054 0.14884,0.2031 0.25735,0.2574 0.0767,0.038 0.18063,-0.038 0.25736,0 0.10851,0.054 0.14884,0.2031 0.25735,0.2573 0.20587,0.103 0.56616,-0.1029 0.77206,0 0.10848,0.054 0.14884,0.2031 0.25733,0.2574 0.15345,0.077 0.36125,-0.077 0.5147,0 0.10851,0.054 0.14884,0.2031 0.25735,0.2573 0.15346,0.077 0.36126,-0.077 0.51471,0 0.10851,0.054 0.14884,0.2031 0.25735,0.2574 0.20587,0.1029 0.56616,-0.103 0.77204,0 0.10851,0.054 0.14884,0.2031 0.25735,0.2573 0.2059,0.103 0.56618,-0.1029 0.77206,0 0.10851,0.054 0.14884,0.2031 0.25735,0.2574 0.20587,0.1029 0.56616,-0.103 0.77206,0 0.10849,0.054 0.14884,0.2031 0.25733,0.2573 0.0767,0.038 0.18062,-0.038 0.25735,0 0.10851,0.054 0.14884,0.2031 0.25735,0.2574 0.16177,0.081 0.86764,-0.081 1.02941,0 0.10851,0.054 0.14884,0.2031 0.25736,0.2573 0.10202,0.051 0.71943,-0.053 0.77203,0 0.0607,0.061 -0.0607,0.1967 0,0.2574 0.0704,0.07 0.8898,-0.07 1.02941,0 0.10851,0.054 0.14884,0.2031 0.25735,0.2573 0.20587,0.103 0.56616,-0.1029 0.77204,0 0.10851,0.054 0.14227,0.219 0.25735,0.2574 0.16278,0.054 0.34313,0 0.5147,0 0.0858,0 0.18063,-0.038 0.25736,0 0.10851,0.054 0.14884,0.2031 0.25735,0.2573 0.0665,0.033 1.36169,0 1.54409,0 0.0858,0 0.1967,-0.061 0.25735,0 0.0607,0.061 -0.0607,0.1967 0,0.2574 0.008,0.01 0.70963,0 0.77206,0 1.28674,0 2.57351,0 3.86024,0 0.51471,0 1.02942,0 1.5441,0 0.0858,0 0.17157,0 0.25735,0 0.0858,0 0.18063,-0.038 0.25735,0 0.10851,0.054 0.14884,0.2031 0.25735,0.2573 0.0783,0.039 0.65615,0 0.77206,0 0.68626,0 1.37252,0 2.0588,0 0.11589,0 0.69374,-0.039 0.77203,0 0.10852,0.054 0.14887,0.2031 0.25736,0.2574 0.0665,0.033 1.36169,0 1.54411,0 0.51468,0 1.02939,0 1.54409,0 0.11589,0 0.69374,0.039 0.77206,0 0.10849,-0.054 0.14884,-0.2031 0.25736,-0.2574 0.16174,-0.081 0.86764,0.081 1.02938,0 0.10851,-0.054 0.14884,-0.2031 0.25736,-0.2573 0.10204,-0.051 0.71943,0.053 0.77205,0 0.0607,-0.061 -0.0607,-0.1967 0,-0.2574 0.0607,-0.061 0.19667,0.061 0.25736,0 0.0606,-0.061 -0.0607,-0.1967 0,-0.2573 0.0606,-0.061 0.19667,0.061 0.25732,0 0.0607,-0.061 -0.0607,-0.1967 0,-0.2574 0.0607,-0.061 0.1967,0.061 0.25736,0 0.12869,-0.1286 -0.12867,-0.6433 0,-0.772 0.0606,-0.061 0.19669,0.061 0.25735,0 0.0607,-0.061 0,-0.1716 0,-0.2574 0,-0.086 0.0607,-0.1967 0,-0.2573 -0.0607,-0.061 -0.1967,0.061 -0.25735,0 -0.0607,-0.061 0.0606,-0.1967 0,-0.2574 -0.0607,-0.061 -0.17155,0 -0.25736,0 -0.0858,0 -0.19667,-0.061 -0.25732,0 -0.0607,0.061 0.0606,0.1967 0,0.2574 -0.12134,0.1213 -0.36126,-0.077 -0.51471,0 -0.10851,0.054 -0.17158,0.1715 -0.25735,0.2573"
         style="color:#000000;clip-rule:nonzero;display:inline;overflow:visible;visibility:visible;opacity:1;isolation:auto;mix-blend-mode:normal;color-interpolation:sRGB;color-interpolation-filters:linearRGB;solid-color:#000000;solid-opacity:1;fill:none;fill-opacity:1;fill-rule:evenodd;stroke:#000000;stroke-width:1.38269389;stroke-linecap:butt;stroke-linejoin:miter;stroke-miterlimit:4;stroke-dasharray:none;stroke-dashoffset:0;stroke-opacity:1;color-rendering:auto;image-rendering:auto;shape-rendering:auto;text-rendering:auto;enable-background:accumulate" />
      <path
         inkscape:connector-curvature="0"
         id="path5418"
         d="m 171.21344,1301.4167 c 0.17155,0.3432 0.34312,0.6863 0.51468,1.0294 0.0858,0 0.19669,-0.061 0.25735,0 0.008,0.01 0,0.7097 0,0.7721 0,0.6862 -0.0858,-0.086 0.25735,0.2573 0.0704,0.07 -0.0698,0.8898 0,1.0294 0.0543,0.1085 0.20311,0.1489 0.25735,0.2574 0.0781,0.1562 -0.0781,1.3878 0,1.5441 0.0543,0.1085 0.20311,0.1488 0.25736,0.2573 0.038,0.076 0,1.5364 0,1.8015 0,0.1824 -0.0333,1.4775 0,1.5441 0.0542,0.1085 0.20308,0.1488 0.25735,0.2573 0.0383,0.077 0,0.1716 0,0.2574 0,0.086 0,0.1715 0,0.2573 0,0.5147 0,1.0294 0,1.5441 0,1.1152 0,2.2304 0,3.3456 0,0.9436 0,1.8872 0,2.8308 0,0.1346 -0.0338,0.9618 0,1.0294 0.0542,0.1085 0.20308,0.1489 0.25735,0.2574 0.10294,0.2059 -0.10293,0.5661 0,0.772 0.0543,0.1085 0.20309,0.1489 0.25736,0.2574 0.0812,0.1623 -0.0812,1.1244 0,1.2867 0.0542,0.1085 0.20308,0.1489 0.25732,0.2574 0.0889,0.1777 -0.0903,1.1964 0,1.2867 0.0607,0.061 0.1967,-0.061 0.25736,0 0.0903,0.09 -0.0889,1.109 0,1.2868 0.0543,0.1085 0.20311,0.1488 0.25735,0.2573 0.0812,0.1624 -0.0812,1.1244 0,1.2868 0.0543,0.1085 0.20311,0.1488 0.25735,0.2573 0.0781,0.1563 -0.0781,1.3879 0,1.5441 0.31801,0.636 0.25735,-0.089 0.25735,0.5147 0,0.1824 -0.0333,1.4776 0,1.5441 0.0543,0.1085 0.20311,0.1489 0.25736,0.2574 0.10293,0.2059 -0.10294,0.5661 0,0.772 0.0542,0.1085 0.20308,0.1489 0.25735,0.2574 0.0812,0.1623 -0.0812,1.1244 0,1.2867 0.0542,0.1085 0.20308,0.1489 0.25735,0.2574 0.0392,0.078 0,0.6561 0,0.772 0,0.1346 0.0338,0.9618 0,1.0294 -0.0543,0.1085 -0.20311,0.1489 -0.25735,0.2574 -0.0767,0.1534 0.0767,0.3612 0,0.5147 -0.0543,0.1085 -0.20311,0.1488 -0.25735,0.2573 -0.0384,0.077 0.0607,0.1967 0,0.2574 -0.0363,0.036 -0.71926,0.026 -0.77206,0 -0.10851,-0.054 -0.20309,-0.1489 -0.25735,-0.2574 -0.0383,-0.077 0.0384,-0.1806 0,-0.2573 -0.0543,-0.1085 -0.20309,-0.1489 -0.25736,-0.2574 -0.10293,-0.2059 0.10296,-0.5661 0,-0.772 -0.0542,-0.1085 -0.20308,-0.1489 -0.25732,-0.2574 -0.0338,-0.068 0,-0.8948 0,-1.0294"
         style="color:#000000;clip-rule:nonzero;display:inline;overflow:visible;visibility:visible;opacity:1;isolation:auto;mix-blend-mode:normal;color-interpolation:sRGB;color-interpolation-filters:linearRGB;solid-color:#000000;solid-opacity:1;fill:none;fill-opacity:1;fill-rule:evenodd;stroke:#000000;stroke-width:1.38269389;stroke-linecap:butt;stroke-linejoin:miter;stroke-miterlimit:4;stroke-dasharray:none;stroke-dashoffset:0;stroke-opacity:1;color-rendering:auto;image-rendering:auto;shape-rendering:auto;text-rendering:auto;enable-background:accumulate" />
      <g
         id="g5449"
         transform="matrix(0.25084872,-0.94905042,0.94905042,0.25084872,-771.22527,1090.6319)">
        <path
           inkscape:connector-curvature="0"
           id="path5451"
           d="m 28.010258,922.32249 c -2.4856,11.1094 -10.86083,-9.1015 -0.66526,-2.5734 l 0.55371,1.2384 0.11155,1.335 0,0 z"
           style="color:#000000;clip-rule:nonzero;display:inline;overflow:visible;visibility:visible;opacity:1;isolation:auto;mix-blend-mode:normal;color-interpolation:sRGB;color-interpolation-filters:linearRGB;solid-color:#000000;solid-opacity:1;fill:#000080;fill-opacity:1;fill-rule:evenodd;stroke:#000080;stroke-width:1.04237795;stroke-linecap:butt;stroke-linejoin:miter;stroke-miterlimit:4;stroke-dasharray:none;stroke-dashoffset:0;stroke-opacity:1;marker:none;color-rendering:auto;image-rendering:auto;shape-rendering:auto;text-rendering:auto;enable-background:accumulate" />
        <path
           inkscape:connector-curvature="0"
           id="path5453"
           d="m 20.016968,924.40299 c 0.71108,-0.3092 3.55536,-1.5457 4.26643,-1.8549"
           style="color:#000000;clip-rule:nonzero;display:inline;overflow:visible;visibility:visible;opacity:1;isolation:auto;mix-blend-mode:normal;color-interpolation:sRGB;color-interpolation-filters:linearRGB;solid-color:#000000;solid-opacity:1;fill:#000080;fill-opacity:1;fill-rule:evenodd;stroke:#000080;stroke-width:1.04237795;stroke-linecap:butt;stroke-linejoin:miter;stroke-miterlimit:4;stroke-dasharray:none;stroke-dashoffset:0;stroke-opacity:1;marker:none;color-rendering:auto;image-rendering:auto;shape-rendering:auto;text-rendering:auto;enable-background:accumulate" />
        <path
           inkscape:connector-curvature="0"
           id="path5455"
           d="m 22.632418,924.15869 c -2.45986,11.1021 -10.89224,-9.0741 -0.66528,-2.5748 l 0.56614,1.2328 0.0991,1.342 z"
           style="color:#000000;clip-rule:nonzero;display:inline;overflow:visible;visibility:visible;opacity:1;isolation:auto;mix-blend-mode:normal;color-interpolation:sRGB;color-interpolation-filters:linearRGB;solid-color:#000000;solid-opacity:1;fill:#000080;fill-opacity:1;fill-rule:evenodd;stroke:#000080;stroke-width:1.04237795;stroke-linecap:butt;stroke-linejoin:miter;stroke-miterlimit:4;stroke-dasharray:none;stroke-dashoffset:0;stroke-opacity:1;marker:none;color-rendering:auto;image-rendering:auto;shape-rendering:auto;text-rendering:auto;enable-background:accumulate" />
      </g>
      <g
         transform="matrix(0.94905042,0.25084872,-0.25084872,0.94905042,273.4442,460.78977)"
         id="g5457">
        <path
           style="color:#000000;clip-rule:nonzero;display:inline;overflow:visible;visibility:visible;opacity:1;isolation:auto;mix-blend-mode:normal;color-interpolation:sRGB;color-interpolation-filters:linearRGB;solid-color:#000000;solid-opacity:1;fill:#000080;fill-opacity:1;fill-rule:evenodd;stroke:#000080;stroke-width:1.04237795;stroke-linecap:butt;stroke-linejoin:miter;stroke-miterlimit:4;stroke-dasharray:none;stroke-dashoffset:0;stroke-opacity:1;marker:none;color-rendering:auto;image-rendering:auto;shape-rendering:auto;text-rendering:auto;enable-background:accumulate"
           d="m 28.010258,922.32249 c -2.4856,11.1094 -10.86083,-9.1015 -0.66526,-2.5734 l 0.55371,1.2384 0.11155,1.335 0,0 z"
           id="path5459"
           inkscape:connector-curvature="0" />
        <path
           style="color:#000000;clip-rule:nonzero;display:inline;overflow:visible;visibility:visible;opacity:1;isolation:auto;mix-blend-mode:normal;color-interpolation:sRGB;color-interpolation-filters:linearRGB;solid-color:#000000;solid-opacity:1;fill:#000080;fill-opacity:1;fill-rule:evenodd;stroke:#000080;stroke-width:1.04237795;stroke-linecap:butt;stroke-linejoin:miter;stroke-miterlimit:4;stroke-dasharray:none;stroke-dashoffset:0;stroke-opacity:1;marker:none;color-rendering:auto;image-rendering:auto;shape-rendering:auto;text-rendering:auto;enable-background:accumulate"
           d="m 20.016968,924.40299 c 0.71108,-0.3092 3.55536,-1.5457 4.26643,-1.8549"
           id="path5461"
           inkscape:connector-curvature="0" />
        <path
           style="color:#000000;clip-rule:nonzero;display:inline;overflow:visible;visibility:visible;opacity:1;isolation:auto;mix-blend-mode:normal;color-interpolation:sRGB;color-interpolation-filters:linearRGB;solid-color:#000000;solid-opacity:1;fill:#000080;fill-opacity:1;fill-rule:evenodd;stroke:#000080;stroke-width:1.04237795;stroke-linecap:butt;stroke-linejoin:miter;stroke-miterlimit:4;stroke-dasharray:none;stroke-dashoffset:0;stroke-opacity:1;marker:none;color-rendering:auto;image-rendering:auto;shape-rendering:auto;text-rendering:auto;enable-background:accumulate"
           d="m 22.632418,924.15869 c -2.45986,11.1021 -10.89224,-9.0741 -0.66528,-2.5748 l 0.56614,1.2328 0.0991,1.342 z"
           id="path5463"
           inkscape:connector-curvature="0" />
      </g>
      <use
         height="100%"
         width="100%"
         transform="translate(111.42794,-7.3608436)"
         id="use5465"
         xlink:href="#g5457"
         y="0"
         x="0" />
    </g>
  </g>
</svg>
