<?xml version="1.0" encoding="UTF-8" standalone="no"?>
<!-- Created with Inkscape (http://www.inkscape.org/) -->

<svg
   xmlns:dc="http://purl.org/dc/elements/1.1/"
   xmlns:cc="http://creativecommons.org/ns#"
   xmlns:rdf="http://www.w3.org/1999/02/22-rdf-syntax-ns#"
   xmlns:svg="http://www.w3.org/2000/svg"
   xmlns="http://www.w3.org/2000/svg"
   xmlns:sodipodi="http://sodipodi.sourceforge.net/DTD/sodipodi-0.dtd"
   xmlns:inkscape="http://www.inkscape.org/namespaces/inkscape"
   width="177.16534"
   height="106.29497"
   id="svg2"
   version="1.1"
   inkscape:version="0.91 r13725"
   sodipodi:docname="front_squat.svg">
  <defs
     id="defs4" />
  <sodipodi:namedview
     id="base"
     pagecolor="#ffffff"
     bordercolor="#666666"
     borderopacity="1.0"
     inkscape:pageopacity="0.0"
     inkscape:pageshadow="2"
     inkscape:zoom="2.7026234"
     inkscape:cx="130.5885"
     inkscape:cy="54.069367"
     inkscape:document-units="cm"
     inkscape:current-layer="layer1"
     showgrid="false"
     fit-margin-top="0"
     fit-margin-left="0"
     fit-margin-right="0"
     fit-margin-bottom="0"
     inkscape:window-width="1330"
     inkscape:window-height="747"
     inkscape:window-x="36"
     inkscape:window-y="21"
     inkscape:window-maximized="1"
     units="cm" />
  <metadata
     id="metadata7">
    <rdf:RDF>
      <cc:Work
         rdf:about="">
        <dc:format>image/svg+xml</dc:format>
        <dc:type
           rdf:resource="http://purl.org/dc/dcmitype/StillImage" />
        <dc:title></dc:title>
      </cc:Work>
    </rdf:RDF>
  </metadata>
  <g
     inkscape:label="Layer 1"
     inkscape:groupmode="layer"
     id="layer1"
     transform="translate(-32.228633,-1064.9324)">
    <path
       inkscape:connector-curvature="0"
       id="path5115-6"
       d="m 123.1032,946.21546 c 0.96825,7.9561 -3.43,15.0288 -5.30527,22.4318 0.55562,2.8664 -2.78231,10.3696 2.92738,7.9522"
       style="color:#000000;clip-rule:nonzero;display:inline;overflow:visible;visibility:visible;opacity:1;isolation:auto;mix-blend-mode:normal;color-interpolation:sRGB;color-interpolation-filters:linearRGB;solid-color:#000000;solid-opacity:1;fill:none;fill-opacity:1;fill-rule:evenodd;stroke:#000000;stroke-width:1.38269389;stroke-linecap:butt;stroke-linejoin:miter;stroke-miterlimit:4;stroke-dasharray:none;stroke-dashoffset:0;stroke-opacity:1;color-rendering:auto;image-rendering:auto;shape-rendering:auto;text-rendering:auto;enable-background:accumulate" />
    <path
       style="color:#000000;clip-rule:nonzero;display:inline;overflow:visible;visibility:visible;isolation:auto;mix-blend-mode:normal;color-interpolation:sRGB;color-interpolation-filters:linearRGB;solid-color:#000000;solid-opacity:1;fill:#000000;fill-opacity:1;fill-rule:evenodd;stroke:#000000;stroke-width:1.38269389;stroke-linecap:butt;stroke-linejoin:miter;stroke-miterlimit:4;stroke-dasharray:none;stroke-dashoffset:0;stroke-opacity:1;color-rendering:auto;image-rendering:auto;shape-rendering:auto;text-rendering:auto;enable-background:accumulate"
       d="m 80.624801,1080.2331 c 1.68929,-1.1455 -4.688508,1.2743 -5.596188,-0.6715 -1.341095,-0.5279 -2.558179,-1.9103 -2.238475,-4.0861 -0.193044,-2.1452 0.17381,-3.9729 0.89539,-5.3155 0.774631,-1.2383 2.093026,-2.5313 3.133865,-3.3577 1.395182,-0.7699 3.847874,-1.4047 5.37234,-0.4477 2.198117,0.2463 2.388281,3.8088 1.566932,5.5962 -0.21832,1.6557 -0.09813,3.6949 -0.671542,5.1484 -0.422631,1.4551 -0.595625,3.3029 -2.462322,3.1339 z"
       id="path5104"
       inkscape:connector-curvature="0" />
    <path
       style="color:#000000;clip-rule:nonzero;display:inline;overflow:visible;visibility:visible;isolation:auto;mix-blend-mode:normal;color-interpolation:sRGB;color-interpolation-filters:linearRGB;solid-color:#000000;solid-opacity:1;fill:none;fill-opacity:1;fill-rule:evenodd;stroke:#000000;stroke-width:1.38269389;stroke-linecap:butt;stroke-linejoin:miter;stroke-miterlimit:4;stroke-dasharray:none;stroke-dashoffset:0;stroke-opacity:1;color-rendering:auto;image-rendering:auto;shape-rendering:auto;text-rendering:auto;enable-background:accumulate"
       d="m 83.758665,1086.7247 c -2.333045,0.064 -4.232558,-0.9181 -6.548383,-0.8954 -2.637478,-0.4326 -5.375906,-0.5196 -8.225552,-0.4477"
       id="path5106"
       inkscape:connector-curvature="0" />
    <path
       style="color:#000000;clip-rule:nonzero;display:inline;overflow:visible;visibility:visible;isolation:auto;mix-blend-mode:normal;color-interpolation:sRGB;color-interpolation-filters:linearRGB;solid-color:#000000;solid-opacity:1;fill:none;fill-opacity:1;fill-rule:evenodd;stroke:#000000;stroke-width:1.38269389;stroke-linecap:butt;stroke-linejoin:miter;stroke-miterlimit:4;stroke-dasharray:none;stroke-dashoffset:0;stroke-opacity:1;color-rendering:auto;image-rendering:auto;shape-rendering:auto;text-rendering:auto;enable-background:accumulate"
       d="m 80.624801,1081.5762 c -0.74617,3.0005 -1.195703,5.4932 -1.79078,8.2824 -0.535927,1.6233 -1.28171,3.4357 -1.343085,5.3723 -0.952115,2.3591 -0.970861,5.5477 -1.790781,8.2824 -0.521722,2.5154 -0.260394,5.8018 -0.895389,8.0585 -0.07382,1.9057 -1.10021,6.3274 -0.671543,6.7154"
       id="path5108"
       inkscape:connector-curvature="0" />
    <path
       style="color:#000000;clip-rule:nonzero;display:inline;overflow:visible;visibility:visible;isolation:auto;mix-blend-mode:normal;color-interpolation:sRGB;color-interpolation-filters:linearRGB;solid-color:#000000;solid-opacity:1;fill:none;fill-opacity:1;fill-rule:evenodd;stroke:#000000;stroke-width:1.38269389;stroke-linecap:butt;stroke-linejoin:miter;stroke-miterlimit:4;stroke-dasharray:none;stroke-dashoffset:0;stroke-opacity:1;color-rendering:auto;image-rendering:auto;shape-rendering:auto;text-rendering:auto;enable-background:accumulate"
       d="m 76.147851,1120.7495 c 1.56949,2.0633 1.207688,4.7683 1.79078,7.1631 0.494796,2.5955 1.327825,4.8222 2.014628,7.1632 0.508501,2.6766 0.988235,5.3368 2.014627,7.8346 0.275951,1.9528 1.166202,3.0544 1.790779,4.9247 0.742306,2.2911 1.28683,4.2521 2.238476,6.2677 0.694097,1.4408 0.868162,3.383 1.790781,4.9246 0.619654,2.0808 1.262108,3.4156 1.790779,5.3724 0.03761,0.5379 -1.965731,1.6252 -2.462322,2.2385 -1.151734,0.4659 -1.89649,1.3316 -3.133865,2.0146 -0.391432,0.1647 -2.517438,1.7499 -2.014628,1.3431"
       id="path5110"
       inkscape:connector-curvature="0" />
    <path
       style="color:#000000;clip-rule:nonzero;display:inline;overflow:visible;visibility:visible;isolation:auto;mix-blend-mode:normal;color-interpolation:sRGB;color-interpolation-filters:linearRGB;solid-color:#000000;solid-opacity:1;fill:none;fill-opacity:1;fill-rule:evenodd;stroke:#000000;stroke-width:1.38269389;stroke-linecap:butt;stroke-linejoin:miter;stroke-miterlimit:4;stroke-dasharray:none;stroke-dashoffset:0;stroke-opacity:1;color-rendering:auto;image-rendering:auto;shape-rendering:auto;text-rendering:auto;enable-background:accumulate"
       d="m 70.551662,1116.7203 c 0.06537,2.4658 -0.269536,4.5207 0,6.9025 0.01286,3.2732 1.283088,5.7295 1.119238,8.9906 0.632192,1.9948 0.47732,4.3155 0.671543,6.4916 0.657759,2.3439 0.527823,5.0177 0.895389,7.4805 0.01942,2.5731 0.950585,5.7539 0.671543,7.7411 -2.498283,-0.1839 -4.53177,0.3844 -6.715425,0.6716 -0.394598,0.3759 -1.44674,0.1453 -1.790781,0.4477"
       id="path5112"
       inkscape:connector-curvature="0" />
    <path
       style="color:#000000;clip-rule:nonzero;display:inline;overflow:visible;visibility:visible;isolation:auto;mix-blend-mode:normal;color-interpolation:sRGB;color-interpolation-filters:linearRGB;solid-color:#000000;solid-opacity:1;fill:none;fill-opacity:1;fill-rule:evenodd;stroke:#000000;stroke-width:1.38269389;stroke-linecap:butt;stroke-linejoin:miter;stroke-miterlimit:4;stroke-dasharray:none;stroke-dashoffset:0;stroke-opacity:1;color-rendering:auto;image-rendering:auto;shape-rendering:auto;text-rendering:auto;enable-background:accumulate"
       d="m 85.549446,1086.7247 c -1.475909,-0.1195 -0.885514,2.2485 -1.950882,2.6852 -1.516342,1.1496 -2.95266,1.8979 -3.421458,3.1348 -1.101057,0.3703 -1.906152,1.5015 -2.68617,2.0147 -0.62736,0.7185 -1.281695,1.554 -2.014628,2.2384 -0.13343,0.1288 -0.268728,-3.5283 0.223847,-4.7008 0.09938,-2.7345 0.60953,-5.1698 1.343085,-7.3869 -0.193969,-2.8149 1.618755,-3.7378 3.805408,-3.8054 1.68494,0.1832 3.579389,-0.9527 4.029255,-1.567"
       id="path5114"
       inkscape:connector-curvature="0" />
    <path
       style="color:#000000;clip-rule:nonzero;display:inline;overflow:visible;visibility:visible;isolation:auto;mix-blend-mode:normal;color-interpolation:sRGB;color-interpolation-filters:linearRGB;solid-color:#000000;solid-opacity:1;fill:none;fill-opacity:1;fill-rule:evenodd;stroke:#000000;stroke-width:1.38269389;stroke-linecap:butt;stroke-linejoin:miter;stroke-miterlimit:4;stroke-dasharray:none;stroke-dashoffset:0;stroke-opacity:1;color-rendering:auto;image-rendering:auto;shape-rendering:auto;text-rendering:auto;enable-background:accumulate"
       d="m 70.327815,1086.5008 c -0.872433,0.4949 -0.9701,2.6289 -2.238476,3.5816 -0.727348,1.0806 -1.471302,2.3861 -2.462321,3.3577 -0.880658,0.9088 -3.029572,4.2501 -3.133866,3.488 0.228042,-2.6313 0.635871,-5.2754 1.566932,-7.2934 1.124829,-1.9423 -0.807174,-6.7638 2.295281,-6.4916 1.800366,-0.1237 3.717721,-0.7237 3.748602,-2.6861 l 0,0.2238"
       id="path5116"
       inkscape:connector-curvature="0" />
    <path
       style="color:#000000;clip-rule:nonzero;display:inline;overflow:visible;visibility:visible;isolation:auto;mix-blend-mode:normal;color-interpolation:sRGB;color-interpolation-filters:linearRGB;solid-color:#000000;solid-opacity:1;fill:none;fill-opacity:1;fill-rule:evenodd;stroke:#000080;stroke-width:1.38269389;stroke-linecap:butt;stroke-linejoin:miter;stroke-miterlimit:4;stroke-dasharray:none;stroke-dashoffset:0;stroke-opacity:1;color-rendering:auto;image-rendering:auto;shape-rendering:auto;text-rendering:auto;enable-background:accumulate"
       d="m 95.622584,1078.2185 c -11.11776,1.5669 -22.23552,3.1339 -33.35328,4.7008"
       id="path5118"
       inkscape:connector-curvature="0" />
    <path
       style="color:#000000;clip-rule:nonzero;display:inline;overflow:visible;visibility:visible;isolation:auto;mix-blend-mode:normal;color-interpolation:sRGB;color-interpolation-filters:linearRGB;solid-color:#000000;solid-opacity:1;fill:none;fill-opacity:1;fill-rule:evenodd;stroke:#000000;stroke-width:1.38269389;stroke-linecap:butt;stroke-linejoin:miter;stroke-miterlimit:4;stroke-dasharray:none;stroke-dashoffset:0;stroke-opacity:1;color-rendering:auto;image-rendering:auto;shape-rendering:auto;text-rendering:auto;enable-background:accumulate"
       d="m 163.89607,1104.8563 c -0.47382,-2.9951 -0.28365,2.6818 0.67154,3.5816 0.76324,1.9369 1.59853,3.5316 2.68617,5.1485 1.1301,1.9418 1.73258,4.1876 2.68618,5.5962 0.80833,2.1757 1.70906,3.7022 3.13387,5.82 0.98214,1.9835 2.51021,3.4382 2.91,4.9247"
       id="path5120"
       inkscape:connector-curvature="0" />
    <path
       style="color:#000000;clip-rule:nonzero;display:inline;overflow:visible;visibility:visible;isolation:auto;mix-blend-mode:normal;color-interpolation:sRGB;color-interpolation-filters:linearRGB;solid-color:#000000;solid-opacity:1;fill:none;fill-opacity:1;fill-rule:evenodd;stroke:#000000;stroke-width:1.26381576;stroke-linecap:butt;stroke-linejoin:miter;stroke-miterlimit:4;stroke-dasharray:none;stroke-dashoffset:0;stroke-opacity:1;color-rendering:auto;image-rendering:auto;shape-rendering:auto;text-rendering:auto;enable-background:accumulate"
       d="m 179.68808,1129.7756 c -5.46505,-2.0035 -11.50142,-0.1777 -16.6108,1.4698 -0.25848,3.0153 4.6218,9.0497 6.07374,13.3414 1.92891,3.2843 5.81176,8.0624 0.11986,9.8769 -1.36474,0.5891 -3.54083,1.7146 -4.31961,2.4575"
       id="path5122"
       inkscape:connector-curvature="0" />
    <path
       style="color:#000000;clip-rule:nonzero;display:inline;overflow:visible;visibility:visible;isolation:auto;mix-blend-mode:normal;color-interpolation:sRGB;color-interpolation-filters:linearRGB;solid-color:#000000;solid-opacity:1;fill:none;fill-opacity:1;fill-rule:evenodd;stroke:#000000;stroke-width:1.38269389;stroke-linecap:butt;stroke-linejoin:miter;stroke-miterlimit:4;stroke-dasharray:none;stroke-dashoffset:0;stroke-opacity:1;color-rendering:auto;image-rendering:auto;shape-rendering:auto;text-rendering:auto;enable-background:accumulate"
       d="m 174.13001,1128.0148 c -5.18668,-0.8085 -10.55035,0.8631 -15.40621,2.3571 -4.49333,1.152 0.74758,6.4162 0.94943,9.4606 1.31891,3.0141 4.89321,7.9211 4.36194,10.0738 -3.50126,-0.5267 -7.2419,-1.0293 -10.41463,-2.3312"
       id="path5124"
       inkscape:connector-curvature="0" />
    <path
       style="color:#000000;clip-rule:nonzero;display:inline;overflow:visible;visibility:visible;isolation:auto;mix-blend-mode:normal;color-interpolation:sRGB;color-interpolation-filters:linearRGB;solid-color:#000000;solid-opacity:1;fill:none;fill-opacity:1;fill-rule:evenodd;stroke:#000000;stroke-width:1.38269389;stroke-linecap:butt;stroke-linejoin:miter;stroke-miterlimit:4;stroke-dasharray:none;stroke-dashoffset:0;stroke-opacity:1;color-rendering:auto;image-rendering:auto;shape-rendering:auto;text-rendering:auto;enable-background:accumulate"
       d="m 166.3584,1107.5425 c -2.20895,-0.71 -5.1765,-1.4149 -7.83467,-1.7908 -1.30806,-0.479 -3.40243,-0.8393 -4.7008,-1.3431"
       id="path5126"
       inkscape:connector-curvature="0" />
    <path
       style="color:#000000;clip-rule:nonzero;display:inline;overflow:visible;visibility:visible;isolation:auto;mix-blend-mode:normal;color-interpolation:sRGB;color-interpolation-filters:linearRGB;solid-color:#000000;solid-opacity:1;fill:none;fill-opacity:1;fill-rule:evenodd;stroke:#000000;stroke-width:1.38269389;stroke-linecap:butt;stroke-linejoin:miter;stroke-miterlimit:4;stroke-dasharray:none;stroke-dashoffset:0;stroke-opacity:1;color-rendering:auto;image-rendering:auto;shape-rendering:auto;text-rendering:auto;enable-background:accumulate"
       d="m 167.25378,1107.3187 c -0.77016,2.1579 -1.74743,3.5623 -2.46231,5.3723 -0.87285,2.0227 -0.98671,4.8669 -2.01463,6.7154 -0.53579,2.442 -1.20504,4.8038 -2.01463,6.7155 -0.49218,-1.3143 -1.18805,-5.1328 -1.79079,-7.387 0.0648,-2.6492 -0.84356,-4.6832 -1.56693,-6.9393 -1.16003,-3.4519 2.93269,-2.7767 4.47696,-3.8054 0.8742,-0.8965 1.3782,-3.1682 0.22384,-4.2531"
       id="path5128"
       inkscape:connector-curvature="0" />
    <path
       style="color:#000000;clip-rule:nonzero;display:inline;overflow:visible;visibility:visible;isolation:auto;mix-blend-mode:normal;color-interpolation:sRGB;color-interpolation-filters:linearRGB;solid-color:#000000;solid-opacity:1;fill:none;fill-opacity:1;fill-rule:evenodd;stroke:#000000;stroke-width:1.38269389;stroke-linecap:butt;stroke-linejoin:miter;stroke-miterlimit:4;stroke-dasharray:none;stroke-dashoffset:0;stroke-opacity:1;color-rendering:auto;image-rendering:auto;shape-rendering:auto;text-rendering:auto;enable-background:accumulate"
       d="m 154.27063,1105.7517 c -0.96461,0.6984 -1.08795,3.7007 -2.01463,5.3724 -0.86548,2.2299 -1.38454,4.2398 -2.23847,6.4916 -0.92035,2.7901 -1.59628,-0 -1.56693,-2.0715 -0.42516,-2.6294 -0.0653,-5.5788 -0.4477,-8.2255 -1.77744,-2.3352 0.88828,-2.0067 2.01463,-3.1339 0.84424,-0.535 1.33764,-1.4741 2.23847,-2.0146 0.57487,-0.1543 -0.58944,-2.3697 -0.4477,-1.1193"
       id="path5130"
       inkscape:connector-curvature="0" />
    <path
       style="color:#000000;clip-rule:nonzero;display:inline;overflow:visible;visibility:visible;isolation:auto;mix-blend-mode:normal;color-interpolation:sRGB;color-interpolation-filters:linearRGB;solid-color:#000000;solid-opacity:1;fill:none;fill-opacity:1;fill-rule:evenodd;stroke:#000080;stroke-width:1.38269389;stroke-linecap:butt;stroke-linejoin:miter;stroke-miterlimit:4;stroke-dasharray:none;stroke-dashoffset:0;stroke-opacity:1;color-rendering:auto;image-rendering:auto;shape-rendering:auto;text-rendering:auto;enable-background:accumulate"
       d="m 179.34155,1110.4525 c -11.11776,-3.4323 -22.23552,-6.8647 -33.35328,-10.297"
       id="path5132"
       inkscape:connector-curvature="0" />
    <path
       style="color:#000000;clip-rule:nonzero;display:inline;overflow:visible;visibility:visible;isolation:auto;mix-blend-mode:normal;color-interpolation:sRGB;color-interpolation-filters:linearRGB;solid-color:#000000;solid-opacity:1;fill:#000000;fill-opacity:1;fill-rule:evenodd;stroke:#000000;stroke-width:1.38269389;stroke-linecap:butt;stroke-linejoin:miter;stroke-miterlimit:4;stroke-dasharray:none;stroke-dashoffset:0;stroke-opacity:1;color-rendering:auto;image-rendering:auto;shape-rendering:auto;text-rendering:auto;enable-background:accumulate"
       d="m 152.47985,1093.8878 c 0.6374,-1.867 1.4363,-4.2412 2.91001,-5.1485 0.70127,-0.9616 2.25418,-1.296 4.21636,-1.1192 2.16422,-0.2241 3.25482,1.5853 4.066,3.1339 0.63099,1.631 2.2462,3.7863 1.11925,5.5961 -0.33356,1.3984 -1.3806,2.3257 -2.01463,3.5816 -0.61947,0.9351 -1.08067,1.8425 -2.46233,2.0146 -1.22971,0.7107 -3.88619,0.8981 -5.59619,0.4477 -1.18254,-0.6384 -1.94547,-2.3602 -2.46232,-3.5815 -1.12935,-1.9965 0.296,-3.2712 0.22385,-4.9247 z"
       id="path5134"
       inkscape:connector-curvature="0" />
  </g>
</svg>
