<?xml version="1.0" encoding="UTF-8" standalone="no"?>
<!-- Created with Inkscape (http://www.inkscape.org/) -->

<svg
   xmlns:dc="http://purl.org/dc/elements/1.1/"
   xmlns:cc="http://creativecommons.org/ns#"
   xmlns:rdf="http://www.w3.org/1999/02/22-rdf-syntax-ns#"
   xmlns:svg="http://www.w3.org/2000/svg"
   xmlns="http://www.w3.org/2000/svg"
   xmlns:sodipodi="http://sodipodi.sourceforge.net/DTD/sodipodi-0.dtd"
   xmlns:inkscape="http://www.inkscape.org/namespaces/inkscape"
   width="177.16534"
   height="106.29497"
   id="svg2"
   version="1.1"
   inkscape:version="0.91 r13725"
   sodipodi:docname="lunge.svg">
  <defs
     id="defs4" />
  <sodipodi:namedview
     id="base"
     pagecolor="#ffffff"
     bordercolor="#666666"
     borderopacity="1.0"
     inkscape:pageopacity="0.0"
     inkscape:pageshadow="2"
     inkscape:zoom="1.400462"
     inkscape:cx="-25.348633"
     inkscape:cy="56.683912"
     inkscape:document-units="cm"
     inkscape:current-layer="layer1"
     showgrid="false"
     fit-margin-top="0"
     fit-margin-left="0"
     fit-margin-right="0"
     fit-margin-bottom="0"
     inkscape:window-width="1330"
     inkscape:window-height="747"
     inkscape:window-x="36"
     inkscape:window-y="21"
     inkscape:window-maximized="1"
     units="cm" />
  <metadata
     id="metadata7">
    <rdf:RDF>
      <cc:Work
         rdf:about="">
        <dc:format>image/svg+xml</dc:format>
        <dc:type
           rdf:resource="http://purl.org/dc/dcmitype/StillImage" />
        <dc:title></dc:title>
      </cc:Work>
    </rdf:RDF>
  </metadata>
  <g
     inkscape:label="Layer 1"
     inkscape:groupmode="layer"
     id="layer1"
     transform="translate(-32.228633,-1064.9324)">
    <path
       inkscape:connector-curvature="0"
       id="path5115-6"
       d="m 123.1032,946.21546 c 0.96825,7.9561 -3.43,15.0288 -5.30527,22.4318 0.55562,2.8664 -2.78231,10.3696 2.92738,7.9522"
       style="color:#000000;clip-rule:nonzero;display:inline;overflow:visible;visibility:visible;opacity:1;isolation:auto;mix-blend-mode:normal;color-interpolation:sRGB;color-interpolation-filters:linearRGB;solid-color:#000000;solid-opacity:1;fill:none;fill-opacity:1;fill-rule:evenodd;stroke:#000000;stroke-width:1.38269389;stroke-linecap:butt;stroke-linejoin:miter;stroke-miterlimit:4;stroke-dasharray:none;stroke-dashoffset:0;stroke-opacity:1;color-rendering:auto;image-rendering:auto;shape-rendering:auto;text-rendering:auto;enable-background:accumulate" />
    <path
       style="color:#000000;clip-rule:nonzero;display:inline;overflow:visible;visibility:visible;isolation:auto;mix-blend-mode:normal;color-interpolation:sRGB;color-interpolation-filters:linearRGB;solid-color:#000000;solid-opacity:1;fill:none;fill-opacity:1;fill-rule:evenodd;stroke:#000000;stroke-width:1.38269389;stroke-linecap:butt;stroke-linejoin:miter;stroke-miterlimit:4;stroke-dasharray:none;stroke-dashoffset:0;stroke-opacity:1;color-rendering:auto;image-rendering:auto;shape-rendering:auto;text-rendering:auto;enable-background:accumulate"
       d="m 75.600395,1089.6084 c 0.254916,-1.7135 -0.816885,-0.16 -1.094813,-0.4379 -0.05161,-0.052 0.05161,-0.1674 0,-0.219 -0.10322,-0.1032 -0.307362,0.065 -0.437925,0 -0.09232,-0.046 -0.12664,-0.1728 -0.218963,-0.2189 -0.130564,-0.065 -0.307361,0.065 -0.437926,0 -0.09232,-0.046 -0.12664,-0.1728 -0.218963,-0.219 -0.138136,-0.069 -0.956676,0.069 -1.094812,0 -0.09232,-0.046 -0.12664,-0.1728 -0.218963,-0.2189 -0.118785,-0.059 -0.815938,0.06 -0.87585,0 -0.05161,-0.052 0.05161,-0.1674 0,-0.219 -0.05161,-0.052 -0.145975,0 -0.218963,0 -0.07299,0 -0.145975,0 -0.218963,0 -0.437925,0 -0.875851,0 -1.313775,0 -0.07299,0 -0.145977,0 -0.218963,0 -0.07299,0 -0.153682,0.033 -0.218963,0 -0.09232,-0.046 -0.12664,-0.1728 -0.218963,-0.219 -0.07918,-0.04 -0.942516,0 -1.094812,0 -0.583901,0 -1.167802,0 -1.751703,0 -0.07299,0 -0.145975,0 -0.218961,0 -0.07299,0 -0.167354,0.052 -0.218963,0 -0.05161,-0.052 0.05161,-0.1673 0,-0.2189 -0.0099,-0.01 -0.991574,0 -1.094814,0 -0.07299,0 -0.167353,0.052 -0.218963,0 -0.05161,-0.052 0.05161,-0.1674 0,-0.219 -0.05161,-0.052 -0.145975,0 -0.218963,0 -0.07299,0 -0.145975,0 -0.218961,0"
       id="path5771"
       inkscape:connector-curvature="0" />
    <path
       style="color:#000000;clip-rule:nonzero;display:inline;overflow:visible;visibility:visible;isolation:auto;mix-blend-mode:normal;color-interpolation:sRGB;color-interpolation-filters:linearRGB;solid-color:#000000;solid-opacity:1;fill:none;fill-opacity:1;fill-rule:evenodd;stroke:#000000;stroke-width:1.38269389;stroke-linecap:butt;stroke-linejoin:miter;stroke-miterlimit:4;stroke-dasharray:none;stroke-dashoffset:0;stroke-opacity:1;color-rendering:auto;image-rendering:auto;shape-rendering:auto;text-rendering:auto;enable-background:accumulate"
       d="m 69.46944,1083.0395 c -0.254474,0.5998 -0.218961,1.1371 -0.218961,1.7518 0,0.073 0,0.1459 0,0.2189 0,0.073 0.03264,0.1537 0,0.219 -0.04616,0.092 -0.172802,0.1266 -0.218963,0.2189 -0.06648,0.133 0.06648,1.1809 0,1.3138 -0.04616,0.092 -0.172802,0.1267 -0.218963,0.219 -0.08758,0.1751 0.08758,0.4817 0,0.6569 -0.04616,0.092 -0.172802,0.1266 -0.218963,0.2189 -0.06881,0.1377 0.06881,0.7383 0,0.8759 -0.04616,0.092 -0.172802,0.1266 -0.218962,0.2189 -0.03264,0.065 0,0.146 0,0.219 0,0.1552 0.02831,1.2572 0,1.3138 -0.04616,0.092 -0.172801,0.1266 -0.218963,0.2189 -0.06528,0.1306 0.04616,0.2995 0,0.438 -0.05161,0.1548 -0.167353,0.2831 -0.218963,0.4379 -0.04453,0.1336 0,1.1447 0,1.3138 0,0.073 0.03264,0.1537 0,0.2189 -0.04616,0.092 -0.172801,0.1267 -0.218963,0.219 -0.08758,0.1752 0.08759,0.4817 0,0.6569 -0.04616,0.092 -0.172801,0.1266 -0.218961,0.2189 -0.03264,0.065 0.03264,0.1537 0,0.219 -0.04616,0.092 -0.172802,0.1266 -0.218963,0.219 -0.03264,0.065 0,0.1459 0,0.2189 0,0.146 0.04616,0.2995 0,0.438 -0.03264,0.098 -0.172802,0.1266 -0.218963,0.2189 -0.03264,0.065 0.02308,0.1498 0,0.219 -0.05161,0.1548 -0.167353,0.2831 -0.218963,0.4379 -0.07756,0.2327 0.07756,0.6432 0,0.8759 -0.05161,0.1548 -0.167353,0.2831 -0.218963,0.4379 -0.05875,0.1762 0.06996,0.7359 0,0.8758 -0.04616,0.092 -0.186321,0.1211 -0.218962,0.219 -0.06746,0.2024 0.06808,0.8906 0,1.0948 -0.05161,0.1548 -0.167353,0.2831 -0.218963,0.4379 -0.06808,0.2043 0.06746,0.8925 0,1.0949 -0.03264,0.098 -0.172801,0.1266 -0.218963,0.2189 -0.02454,0.049 0,0.8238 0,0.8759 0,0.8028 0,1.6057 0,2.4086 0,0.099 0.03332,0.5902 0,0.6568 -0.04616,0.092 -0.172801,0.1267 -0.218963,0.219 -0.03332,0.067 0,0.5583 0,0.6569 0,0.4379 0,0.8758 0,1.3138 0,0.1145 0.02879,0.8182 0,0.8758 -0.04616,0.092 -0.186321,0.1211 -0.218961,0.219 -0.0376,0.1128 0,1.3011 0,1.5327 0,0.073 0,0.146 0,0.219 0,0.073 0.03264,0.1537 0,0.2189 -0.04616,0.092 -0.172802,0.1267 -0.218963,0.219 -0.02879,0.058 0,0.7614 0,0.8759 0,0.8028 0,1.6057 0,2.4085 0,1.2408 0,2.4816 0,3.7224 0,0.3649 0,0.7299 0,1.0948 0,0.073 0,0.146 0,0.219 0,0.073 -0.03264,0.1537 0,0.219 0.04616,0.092 0.18632,0.121 0.218963,0.2189 0.03338,0.1002 -0.04872,0.7784 0,0.8759 0.04616,0.092 0.1728,0.1266 0.218961,0.2189 0.03332,0.067 0,0.5583 0,0.6569 0,0.4379 0,0.8759 0,1.3138"
       id="path5773"
       inkscape:connector-curvature="0" />
    <path
       style="color:#000000;clip-rule:nonzero;display:inline;overflow:visible;visibility:visible;isolation:auto;mix-blend-mode:normal;color-interpolation:sRGB;color-interpolation-filters:linearRGB;solid-color:#000000;solid-opacity:1;fill:none;fill-opacity:1;fill-rule:evenodd;stroke:#000000;stroke-width:1.38269389;stroke-linecap:butt;stroke-linejoin:miter;stroke-miterlimit:4;stroke-dasharray:none;stroke-dashoffset:0;stroke-opacity:1;color-rendering:auto;image-rendering:auto;shape-rendering:auto;text-rendering:auto;enable-background:accumulate"
       d="m 69.250479,1121.577 c -0.07299,0.2919 -0.159946,0.5807 -0.218963,0.8758 -0.04682,0.2341 0,0.8249 0,1.0948 0,0.6569 0,1.3138 0,1.9707 0,0.1747 0.04379,0.9635 0,1.0948 -0.05161,0.1548 -0.167353,0.2831 -0.218963,0.438 -0.04581,0.1374 0,0.6995 0,0.8758 0,0.5839 0,1.1678 0,1.7517 0,0.5135 0.05161,-0.1032 -0.218963,0.4379 -0.02832,0.057 -0.02699,1.2328 0,1.3138 0.05161,0.1548 0.167353,0.2831 0.218963,0.4379 0.04307,0.1292 0,0.9725 0,1.0948 0,0.6569 0,1.3138 0,1.9707 0,0.7299 0,1.4598 0,2.1896 0,0.075 -0.0395,0.7574 0,0.8759 0.05161,0.1548 0.167353,0.2831 0.218963,0.4379 0.04751,0.1425 0,1.3494 0,1.5327 0,0.073 0,0.146 0,0.219 0,0.073 -0.03264,0.1537 0,0.219 0.04616,0.092 0.172801,0.1266 0.218963,0.2189 0.06996,0.14 -0.05875,0.6996 0,0.8759 0.05161,0.1548 0.167351,0.2831 0.218961,0.4379 0.06569,0.1971 -0.06569,0.4598 0,0.6569 0.05161,0.1548 0.167353,0.2831 0.218963,0.4379 0.0502,0.1506 -0.0646,0.5277 0,0.6569 0.04616,0.092 0.172802,0.1266 0.218963,0.219 0.0646,0.1292 -0.0502,0.5062 0,0.6569 0.05161,0.1548 0.167353,0.2831 0.218963,0.4379 0.02308,0.069 -0.03264,0.1537 0,0.2189 0.04616,0.092 0.172802,0.1267 0.218962,0.219 0.04341,0.087 -0.04476,0.6121 0,0.6569 0.05161,0.052 0.167353,-0.052 0.218963,0 0.04476,0.045 -0.04341,0.5701 0,0.6569 0.04616,0.092 0.172801,0.1266 0.218963,0.219 0.08758,0.1751 -0.08758,0.4817 0,0.6568 0.04616,0.092 0.172801,0.1267 0.218963,0.219 0.06881,0.1376 -0.06881,0.7382 0,0.8758 0.04616,0.092 0.172801,0.1267 0.218963,0.219 0.06881,0.1376 -0.06881,0.7382 0,0.8759 0.04616,0.092 0.1728,0.1266 0.218961,0.2189 0.08759,0.1752 -0.08758,0.4817 0,0.6569 0.04616,0.092 0.172802,0.1267 0.218963,0.219 0.04872,0.097 -0.03338,0.7757 0,0.8758 0.03264,0.098 0.172802,0.1267 0.218963,0.219 0.06648,0.1329 -0.06648,1.1808 0,1.3138 0.04616,0.092 0.186321,0.121 0.218963,0.2189 0.09966,0.299 -0.09966,1.0148 0,1.3138 0.03264,0.098 0.1728,0.1266 0.218962,0.219 0.07256,0.1451 -0.06117,0.6923 0,0.8758 0.05161,0.1548 0.167353,0.2831 0.218963,0.4379 0.02308,0.069 0,0.146 0,0.219 0,0.1691 -0.04453,1.1802 0,1.3138 0.05161,0.1548 0.167353,0.2831 0.218963,0.4379 0.07079,0.2124 -0.07265,1.1685 0,1.3138 0.04616,0.092 0.186322,0.121 0.218963,0.2189 0.06746,0.2024 -0.06808,0.8906 0,1.0949 0.05161,0.1548 0.167351,0.2831 0.218961,0.4379 0.06117,0.1835 -0.07256,0.7307 0,0.8758 0.04616,0.092 0.186322,0.1211 0.218963,0.219 0.04616,0.1385 0,0.292 0,0.4379 0,0.073 -0.03264,0.1537 0,0.219 0.04616,0.092 0.172802,0.1266 0.218963,0.2189 0.06799,0.136 -0.07015,1.1735 0,1.3138 0.04616,0.092 0.172802,0.1267 0.218963,0.219 0.06907,0.1381 -0.06907,0.9567 0,1.0948 0.04616,0.092 0.172802,0.1266 0.218963,0.219 0.03264,0.065 0,0.1459 0,0.2189 0,0.073 0,0.146 0,0.219 0,0.3649 0,0.7299 0,1.0948 0,0.3649 0,0.7299 0,1.0948 0,0.073 -0.05161,0.1674 0,0.219 0.05161,0.052 0.218962,-0.073 0.218962,0 0,0.073 -0.145975,0 -0.218962,0 -0.07299,0 -0.145976,0 -0.218963,0 -0.583901,0 0.07299,-0.073 -0.218963,0.2189 -0.0099,0.01 -0.991572,0 -1.094813,0 -0.510913,0 -1.021826,0 -1.532738,0 -0.07299,0 -0.167353,-0.052 -0.218963,0 -0.05161,0.052 0.05161,0.1674 0,0.219 -0.05161,0.052 -0.145975,0 -0.218963,0 -0.07299,0 -0.145975,0 -0.218963,0 -0.437925,0 -0.875851,0 -1.313775,0 -0.09861,0 -0.59025,-0.033 -0.656888,0 -0.09232,0.046 -0.12664,0.1728 -0.218963,0.219 -0.06664,0.033 -0.558276,0 -0.656887,0 -0.07299,0 -0.145977,0 -0.218963,0 -0.07299,0 -0.153682,-0.033 -0.218963,0 -0.541146,0.2705 0.07558,0.2189 -0.437926,0.2189 -0.07299,0 -0.145975,0 -0.218962,0 -0.07299,0 -0.218963,-0.073 -0.218963,0 0,0.1033 0.218963,0.1158 0.218963,0.219 0,0.073 -0.167353,-0.052 -0.218963,0 -0.05161,0.052 0,0.146 0,0.219"
       id="path5775"
       inkscape:connector-curvature="0" />
    <path
       style="color:#000000;clip-rule:nonzero;display:inline;overflow:visible;visibility:visible;isolation:auto;mix-blend-mode:normal;color-interpolation:sRGB;color-interpolation-filters:linearRGB;solid-color:#000000;solid-opacity:1;fill:none;fill-opacity:1;fill-rule:evenodd;stroke:#000000;stroke-width:1.38269389;stroke-linecap:butt;stroke-linejoin:miter;stroke-miterlimit:4;stroke-dasharray:none;stroke-dashoffset:0;stroke-opacity:1;color-rendering:auto;image-rendering:auto;shape-rendering:auto;text-rendering:auto;enable-background:accumulate"
       d="m 63.338487,1122.2339 c 0.145974,0.2919 0.316698,0.5728 0.437924,0.8758 0.07021,0.1755 -0.07265,0.9495 0,1.0948 0.04616,0.092 0.186322,0.1211 0.218963,0.219 0.04152,0.1245 0,0.8886 0,1.0948 0,0.7299 0,1.4598 0,2.1896 0,0.5839 0,1.1678 0,1.7517 0,0.219 -0.06924,0.4492 0,0.6569 0.03264,0.098 0.172802,0.1267 0.218963,0.219 0.07213,0.1442 -0.0675,1.1113 0,1.3138 0.03264,0.098 0.186322,0.121 0.218963,0.2189 0.04616,0.1385 -0.0354,0.2963 0,0.438 0.03958,0.1583 0.167352,0.2831 0.218963,0.4379 0.02308,0.069 0,0.1459 0,0.2189 0,0.1566 -0.03736,1.2017 0,1.3138 0.03264,0.098 0.1728,0.1267 0.218962,0.219 0.03264,0.065 0,0.146 0,0.2189 0,0.146 0,0.292 0,0.438 0,0.3649 0,0.7298 0,1.0948 0,0.146 -0.04616,0.2994 0,0.4379 0.03264,0.098 0.186322,0.121 0.218963,0.219 0.04616,0.1384 0,0.2919 0,0.4379 0,0.073 -0.03264,0.1537 0,0.2189 0.04616,0.092 0.186322,0.1211 0.218963,0.219 0.04616,0.1385 0,0.292 0,0.4379 0,0.1989 -0.04738,1.3906 0,1.5328 0.03264,0.098 0.172801,0.1266 0.218963,0.2189 0.07265,0.1454 -0.07079,1.1015 0,1.3138 0.05161,0.1549 0.167351,0.2831 0.218961,0.4379 0.02308,0.069 0,0.146 0,0.219 0,0.1507 -0.0425,1.1863 0,1.3138 0.05161,0.1548 0.167353,0.2831 0.218963,0.4379 0.05875,0.1762 -0.06996,0.7359 0,0.8759 0.04616,0.092 0.172802,0.1266 0.218963,0.2189 0.03264,0.065 0,0.146 0,0.219 0,0.2121 -0.04352,1.1832 0,1.3138 0.05161,0.1548 0.167353,0.2831 0.218963,0.4379 0.04616,0.1385 -0.06528,0.3073 0,0.4379 0.04616,0.092 0.172802,0.1267 0.218962,0.219 0.08759,0.1751 -0.08759,0.4817 0,0.6569 0.04616,0.092 0.172801,0.1266 0.218963,0.2189 0.06907,0.1382 -0.06907,0.9567 0,1.0948 0.04616,0.092 0.186322,0.1211 0.218963,0.219 0.04616,0.1385 0,0.2919 0,0.4379 0,0.438 0,0.8759 0,1.3138 0,0.099 -0.03332,0.5902 0,0.6569 0.270572,0.5411 0.218963,-0.076 0.218963,0.4379 0,0.3649 0,0.7299 0,1.0948 0,0.073 0,0.146 0,0.219 0,0.073 -0.03264,0.1537 0,0.219 0.04616,0.092 0.172801,0.1266 0.218963,0.2189 0.06881,0.1376 -0.06881,0.7382 0,0.8759 0.04616,0.092 0.1728,0.1266 0.218961,0.2189 0.08759,0.1752 -0.08758,0.4817 0,0.6569 0.04616,0.092 0.186322,0.1211 0.218963,0.219 0.04965,0.1489 -0.05805,0.9787 0,1.0948 0.04616,0.092 0.172802,0.1266 0.218963,0.219 0.03264,0.065 -0.03264,0.1536 0,0.2189 0.04616,0.092 0.172802,0.1267 0.218963,0.219 0.05939,0.1188 -0.05991,0.8159 0,0.8758 0.09732,0.097 0.413595,-0.1703 0.218962,0.219 -0.04616,0.092 -0.172802,0.1266 -0.218962,0.219 -0.03264,0.065 0.03264,0.1536 0,0.2189 -0.04616,0.092 -0.172801,0.1267 -0.218963,0.219 -0.03264,0.065 0.05161,0.1673 0,0.2189 -0.0088,0.01 -0.79544,0 -0.87585,0 -0.114501,0 -0.818277,0.029 -0.875851,0 -0.09232,-0.046 -0.12664,-0.1728 -0.218963,-0.2189 -0.138137,-0.069 -0.956676,0.069 -1.094813,0 -0.09232,-0.046 -0.12664,-0.1728 -0.218963,-0.219 -0.06664,-0.033 -0.558277,0 -0.656888,0 -0.583901,0 -1.1678,0 -1.751701,0 -0.103241,0 -1.08489,-0.01 -1.094813,0 -0.05161,0.052 0.05161,0.1674 0,0.219 -0.29195,0.2919 -0.218963,-0.365 -0.218963,0.2189"
       id="path5777"
       inkscape:connector-curvature="0" />
    <path
       style="color:#000000;clip-rule:nonzero;display:inline;overflow:visible;visibility:visible;isolation:auto;mix-blend-mode:normal;color-interpolation:sRGB;color-interpolation-filters:linearRGB;solid-color:#000000;solid-opacity:1;fill:none;fill-opacity:1;fill-rule:evenodd;stroke:#000000;stroke-width:1.38269389;stroke-linecap:butt;stroke-linejoin:miter;stroke-miterlimit:4;stroke-dasharray:none;stroke-dashoffset:0;stroke-opacity:1;color-rendering:auto;image-rendering:auto;shape-rendering:auto;text-rendering:auto;enable-background:accumulate"
       d="m 78.008984,1089.1705 c -0.446016,0.663 -0.437925,0.733 -0.437925,1.3138 0,0.073 0.05161,0.1673 0,0.2189 -0.05161,0.052 -0.167353,-0.052 -0.218963,0 -0.07686,0.077 0.07562,0.9436 0,1.0949 -0.04616,0.092 -0.172801,0.1266 -0.218963,0.2189 -0.04341,0.087 0.04476,0.6121 0,0.6569 -0.05161,0.052 -0.167351,-0.052 -0.218961,0 -0.0678,0.068 0.0678,1.027 0,1.0948 -0.05161,0.052 -0.167353,-0.052 -0.218963,0 -0.05161,0.052 0,0.146 0,0.219 0,0.073 0,0.146 0,0.2189 0,0.365 0,0.7299 0,1.0949 0,0.073 0,0.1459 0,0.2189 0,0.073 0.03264,0.1537 0,0.219 -0.04616,0.092 -0.172802,0.1266 -0.218963,0.219 -0.03264,0.065 0,0.1459 0,0.2189 0,0.073 0,0.146 0,0.219 0,0.5109 0,1.0218 0,1.5327 0,0.099 0.03332,0.5903 0,0.6569 -0.270573,0.5411 -0.218963,-0.076 -0.218963,0.4379 0,0.08 0.0088,0.8671 0,0.8759 -0.05161,0.052 -0.167352,-0.052 -0.218963,0 -0.05161,0.052 0,0.146 0,0.2189 0,0.073 0,0.146 0,0.219 0,0.5109 0,1.0218 0,1.5327 0,0.073 0.05161,0.1674 0,0.219 -0.05161,0.052 -0.167352,-0.052 -0.218962,0 -0.05991,0.06 0.05939,0.7571 0,0.8759 -0.04616,0.092 -0.172801,0.1266 -0.218963,0.2189 -0.06967,0.1393 0.0631,0.9055 0,1.0948 -0.05161,0.1549 -0.167353,0.2831 -0.218963,0.438 -0.06117,0.1835 0.07256,0.7307 0,0.8758 -0.04616,0.092 -0.172801,0.1266 -0.218963,0.219 -0.03231,0.065 0,1.3071 0,1.5327 0,0.073 0,0.146 0,0.219 0,0.073 0.03264,0.1536 0,0.2189 -0.04616,0.092 -0.1728,0.1267 -0.218961,0.219 -0.06881,0.1376 0.06881,0.7382 0,0.8758 -0.04616,0.092 -0.172802,0.1267 -0.218963,0.219 -0.06881,0.1376 0.06881,0.7382 0,0.8759 -0.04616,0.092 -0.172802,0.1266 -0.218963,0.2189 -0.04341,0.087 0.04476,0.6121 0,0.6569 -0.05161,0.052 -0.167353,-0.052 -0.218963,0 -0.05269,0.053 0.05269,0.8232 0,0.8759 -0.05161,0.052 -0.167352,-0.052 -0.218962,0 -0.05269,0.053 0.05269,0.8231 0,0.8758 -0.05161,0.052 -0.167353,-0.052 -0.218963,0 -0.05991,0.06 0.05939,0.7571 0,0.8759 -0.04616,0.092 -0.172801,0.1266 -0.218963,0.2189 -0.03264,0.065 0.02308,0.1497 0,0.219 -0.05161,0.1548 -0.167353,0.2831 -0.218963,0.4379 -0.02308,0.069 0.03264,0.1537 0,0.219 -0.04616,0.092 -0.172801,0.1266 -0.218963,0.2189 -0.06528,0.1306 0.06528,0.3074 0,0.438 -0.04616,0.092 -0.1728,0.1266 -0.218961,0.2189 -0.03264,0.065 0.03264,0.1537 0,0.219 -0.04616,0.092 -0.186323,0.121 -0.218963,0.219 -0.04616,0.1384 0,0.2919 0,0.4379 0,0.073 0.03264,0.1537 0,0.2189 -0.726208,0.7262 0.103219,-0.2064 -0.218963,0.438 -0.04616,0.092 -0.186321,0.121 -0.218963,0.2189 -0.04616,0.1385 0.04616,0.2995 0,0.4379 -0.03264,0.098 -0.1728,0.1267 -0.218962,0.219 -0.06528,0.1306 0.06528,0.3074 0,0.4379 -0.04616,0.092 -0.172801,0.1267 -0.218963,0.219 -0.06528,0.1306 0.06528,0.3074 0,0.4379 -0.04616,0.092 -0.172801,0.1267 -0.218963,0.219 -0.03264,0.065 0.03264,0.1537 0,0.219 -0.04616,0.092 -0.172801,0.1266 -0.218963,0.2189 -0.03264,0.065 0.03264,0.1537 0,0.219 -0.04616,0.092 -0.172801,0.1266 -0.218961,0.2189 -0.03264,0.065 0.03264,0.1537 0,0.219 -0.04616,0.092 -0.172802,0.1266 -0.218963,0.219 -0.06528,0.1305 0.06528,0.3073 0,0.4379 -0.04616,0.092 -0.172802,0.1266 -0.218963,0.219 -0.06528,0.1305 0.06528,0.3073 0,0.4379 -0.04616,0.092 -0.172802,0.1266 -0.218963,0.2189 -0.06528,0.1306 0.06528,0.3074 0,0.438 -0.04616,0.092 -0.172802,0.1266 -0.218963,0.2189 -0.03264,0.065 0.05161,0.1674 0,0.219 -0.05161,0.052 -0.167352,-0.052 -0.218962,0 -0.109482,0.1095 0.109481,0.5474 0,0.6569 -0.05161,0.052 -0.167353,-0.052 -0.218963,0 -0.109481,0.1095 0.109481,0.5474 0,0.6569 -0.05161,0.052 -0.167353,-0.052 -0.218963,0 -0.10322,0.1032 0.06528,0.3073 0,0.4379 -0.131377,0.2627 -0.52551,0.3941 -0.656887,0.6569 -0.03264,0.065 0.02308,0.1497 0,0.2189 -0.05161,0.1549 -0.167353,0.2831 -0.218963,0.438 -0.02308,0.069 0.03264,0.1536 0,0.2189 -0.04616,0.092 -0.172802,0.1267 -0.218963,0.219 -0.03264,0.065 0.03264,0.1537 0,0.219 -0.131377,0.2627 -0.525511,0.3941 -0.656888,0.6569 -0.03264,0.065 0.03264,0.1536 0,0.2189 -0.09232,0.1847 -0.345603,0.2533 -0.437924,0.4379 -0.03264,0.065 0.03264,0.1537 0,0.219 -0.131379,0.2628 -0.525511,0.3941 -0.656889,0.6569 -0.03264,0.065 0.05161,0.1673 0,0.2189 -0.05161,0.052 -0.167353,-0.052 -0.218963,0 -0.05161,0.052 0.05161,0.1674 0,0.219 -0.05161,0.052 -0.167352,-0.052 -0.218962,0 -0.05161,0.052 0,0.146 0,0.219 0,0.1145 -0.02879,0.8183 0,0.8758 0.270572,0.5412 0.218962,-0.076 0.218962,0.4379"
       id="path5779"
       inkscape:connector-curvature="0" />
    <path
       style="color:#000000;clip-rule:nonzero;display:inline;overflow:visible;visibility:visible;isolation:auto;mix-blend-mode:normal;color-interpolation:sRGB;color-interpolation-filters:linearRGB;solid-color:#000000;solid-opacity:1;fill:none;fill-opacity:1;fill-rule:evenodd;stroke:#000000;stroke-width:1.38269389;stroke-linecap:butt;stroke-linejoin:miter;stroke-miterlimit:4;stroke-dasharray:none;stroke-dashoffset:0;stroke-opacity:1;color-rendering:auto;image-rendering:auto;shape-rendering:auto;text-rendering:auto;enable-background:accumulate"
       d="m 64.4333,1089.3895 c -0.07299,0.2919 -0.107198,0.5964 -0.218963,0.8758 -0.03834,0.096 -0.172801,0.1267 -0.218963,0.219 -0.06881,0.1376 0.06881,0.7382 0,0.8758 -0.04616,0.092 -0.172801,0.1267 -0.218963,0.219 -0.06528,0.1306 0.06528,0.3074 0,0.4379 -0.04616,0.092 -0.1728,0.1267 -0.218961,0.219 -0.03959,0.079 0,0.9425 0,1.0948 0,0.073 0.05161,0.1674 0,0.219 -0.05161,0.052 -0.167354,-0.052 -0.218963,0 -0.05161,0.052 0,0.1459 0,0.2189 0,0.073 0,0.146 0,0.219 0,0.1552 0.02831,1.2571 0,1.3138 -0.270573,0.5411 -0.218963,-0.076 -0.218963,0.4379 0,0.3649 0,0.7299 0,1.0948 0,0.073 0,0.146 0,0.219 0,0.073 0.03264,0.1536 0,0.2189 -0.04616,0.092 -0.172802,0.1267 -0.218963,0.219 -0.06528,0.1306 0.06528,0.3074 0,0.4379 -0.04616,0.092 -0.1728,0.1266 -0.218962,0.219 -0.03264,0.065 0.03264,0.1537 0,0.2189 -0.04616,0.092 -0.172801,0.1267 -0.218963,0.219 -0.03264,0.065 0.03264,0.1537 0,0.219 -0.04616,0.092 -0.186322,0.121 -0.218963,0.2189 -2.85e-4,0 1.42e-4,0.6567 0,0.6569 -0.05161,0.052 -0.167353,-0.052 -0.218963,0 -0.04476,0.045 0.04341,0.5701 0,0.6569 -0.04616,0.092 -0.172801,0.1266 -0.218962,0.219 -0.06528,0.1305 0.10322,0.3347 0,0.4379 -0.05161,0.052 -0.186322,-0.065 -0.218962,0 -0.06528,0.1306 0.04616,0.2994 0,0.4379 -0.03264,0.098 -0.172802,0.1267 -0.218963,0.219 -0.06528,0.1305 0.06528,0.3073 0,0.4379 -0.04616,0.092 -0.172802,0.1266 -0.218963,0.219 -0.03264,0.065 0.03264,0.1536 0,0.2189 -0.04616,0.092 -0.172802,0.1267 -0.218963,0.219 -0.06528,0.1306 0.06528,0.3074 0,0.4379 -0.04616,0.092 -0.1728,0.1267 -0.218962,0.219 -0.08759,0.1752 0.08759,0.4817 0,0.6569 -0.04616,0.092 -0.172801,0.1266 -0.218963,0.2189 -0.08758,0.1752 0.08759,0.4817 0,0.6569 -0.04616,0.092 -0.172801,0.1267 -0.218963,0.219 -0.02879,0.058 0,0.7613 0,0.8758 0,0.5135 0.05161,-0.1032 -0.218963,0.438 -0.03264,0.065 0,0.1459 0,0.2189 0,0.1552 0.02831,1.2572 0,1.3138 -0.04616,0.092 -0.1728,0.1266 -0.218962,0.219 -0.06528,0.1305 0.06528,0.3073 0,0.4379 -0.04616,0.092 -0.172801,0.1266 -0.218962,0.2189 -0.06881,0.1377 0.06881,0.7383 0,0.8759 -0.04616,0.092 -0.172802,0.1266 -0.218963,0.219 -0.05939,0.1188 0.05991,0.8159 0,0.8758 -0.05161,0.052 -0.167354,-0.052 -0.218963,0 -0.04262,0.043 0.03998,1.0149 0,1.0948 -0.03264,0.065 -0.167352,-0.052 -0.218962,0 -0.05991,0.06 0.05939,0.7571 0,0.8759 -0.04616,0.092 -0.172802,0.1266 -0.218963,0.2189 -0.06881,0.1377 0.06881,0.7383 0,0.8759 -0.04616,0.092 -0.172801,0.1266 -0.218963,0.2189 -0.03332,0.067 0,0.5583 0,0.6569 0,0.438 0,0.8759 0,1.3138 0,0.053 0.007,0.6499 0,0.6569 -0.05161,0.052 -0.167353,-0.052 -0.218963,0 -0.05161,0.052 0,0.146 0,0.219 0,0.073 0,0.1459 0,0.2189 0,1.0218 0,2.0437 0,3.0655 0,0.3649 0,0.7299 0,1.0948 0,0.146 -0.06528,0.3074 0,0.4379 0.03264,0.065 0.167353,-0.052 0.218963,0 0.0088,0.01 0,0.7955 0,0.8759 0,0.6063 0.218963,-0.1684 0.218963,0.4379 0,0.5135 -0.05161,-0.1032 0.218963,0.4379 0.04341,0.087 -0.04476,0.6122 0,0.6569 0.05161,0.052 0.167352,-0.052 0.218962,0 0.103219,0.1033 -0.06528,0.3074 0,0.438 0.04616,0.092 0.172801,0.1266 0.218963,0.2189 0.03264,0.065 -0.03264,0.1537 0,0.219 0.04616,0.092 0.172801,0.1266 0.218963,0.2189 0.03264,0.065 -0.05161,0.1674 0,0.219 0.05161,0.052 0.167353,-0.052 0.218962,0 0.05161,0.052 0.07299,0.219 0,0.219 -0.07299,0 0,-0.146 0,-0.219"
       id="path5781"
       inkscape:connector-curvature="0" />
    <path
       style="color:#000000;clip-rule:nonzero;display:inline;overflow:visible;visibility:visible;isolation:auto;mix-blend-mode:normal;color-interpolation:sRGB;color-interpolation-filters:linearRGB;solid-color:#000000;solid-opacity:1;fill:#000000;fill-opacity:1;fill-rule:evenodd;stroke:#000000;stroke-width:1.38269389;stroke-linecap:butt;stroke-linejoin:miter;stroke-miterlimit:4;stroke-dasharray:none;stroke-dashoffset:0;stroke-opacity:1;color-rendering:auto;image-rendering:auto;shape-rendering:auto;text-rendering:auto;enable-background:accumulate"
       d="m 64.4333,1083.4775 c 0.658256,-0.2679 1.289137,-0.219 1.970664,-0.219 0.07299,0 0.145975,0 0.218962,0 0.07299,0 0.153681,0.033 0.218963,0 0.09232,-0.046 0.12664,-0.1728 0.218963,-0.219 0.06528,-0.033 0.167353,0.052 0.218963,0 0.05161,-0.052 -0.05161,-0.1673 0,-0.2189 0.103219,-0.1032 0.334704,0.1032 0.437924,0 0.05161,-0.052 -0.05161,-0.1674 0,-0.219 0.07686,-0.077 0.94357,0.076 1.094814,0 0.09232,-0.046 0.12664,-0.1728 0.218963,-0.2189 0.06528,-0.033 0.15368,0.033 0.218963,0 0.09232,-0.046 0.12664,-0.1728 0.218961,-0.219 0.118785,-0.059 0.815938,0.06 0.875851,0 0.05161,-0.052 -0.05161,-0.1673 0,-0.219 0.453041,-0.453 -0.01771,0.6923 0.437926,-0.2189 0.03264,-0.065 -0.05161,-0.1674 0,-0.219 0.103219,-0.1032 0.334704,0.1032 0.437926,0 0.05161,-0.052 -0.03264,-0.1537 0,-0.2189 0.04616,-0.092 0.1728,-0.1267 0.218961,-0.219 0.03264,-0.065 -0.05161,-0.1674 0,-0.219 0.10322,-0.1032 0.334706,0.1032 0.437926,0 0.05161,-0.052 -0.05161,-0.1673 0,-0.2189 0.05161,-0.052 0.167353,0.052 0.218963,0 0.05161,-0.052 -0.05161,-0.1674 0,-0.219 0.05161,-0.052 0.167352,0.052 0.218962,0 0.05161,-0.052 -0.05161,-0.1674 0,-0.219 0.453041,-0.453 -0.01771,0.6924 0.437926,-0.2189 0.03264,-0.065 -0.05161,-0.1674 0,-0.219 0.05161,-0.052 0.167353,0.052 0.218963,0 0.103219,-0.1032 -0.10322,-0.3347 0,-0.4379 0.05161,-0.052 0.167351,0.052 0.218961,0 0.103221,-0.1032 -0.10322,-0.3347 0,-0.4379 0.05161,-0.052 0.145976,0 0.218963,0 0,-0.073 -0.05161,-0.1674 0,-0.219 0.05161,-0.052 0.167353,0.052 0.218963,0 0.10322,-0.1032 -0.10322,-0.3347 0,-0.4379 0.05161,-0.052 0.167353,0.052 0.218963,0 0.10322,-0.1032 -0.06528,-0.3074 0,-0.438 0.04616,-0.092 0.172802,-0.1266 0.218963,-0.2189 0.03264,-0.065 0,-0.146 0,-0.219 0,-0.073 0,-0.1459 0,-0.2189 0,-0.438 0,-0.8759 0,-1.3138 0,-0.073 0,-0.146 0,-0.219 0,-0.073 -0.03264,-0.1537 0,-0.2189 0.04616,-0.092 0.1728,-0.1267 0.218962,-0.219 0.03264,-0.065 0,-0.146 0,-0.219 0,-0.073 0,-0.1459 0,-0.2189 0,-0.365 0,-0.7299 0,-1.0948 0,-0.511 0,-1.0219 0,-1.5328 0,-0.099 0.03332,-0.5902 0,-0.6569 -0.04616,-0.092 -0.172802,-0.1266 -0.218962,-0.2189 -0.08759,-0.1752 0.08759,-0.4818 0,-0.6569 -0.04616,-0.092 -0.172801,-0.1267 -0.218963,-0.219 -0.04341,-0.087 0.04476,-0.6121 0,-0.6569 -0.05161,-0.052 -0.167353,0.052 -0.218963,0 -0.10322,-0.1032 0.10322,-0.3347 0,-0.4379 -0.05161,-0.052 -0.167353,0.052 -0.218963,0 -0.05161,-0.052 0.05161,-0.1674 0,-0.219 -0.05161,-0.052 -0.167351,0.052 -0.218963,0 -0.10322,-0.1032 0.103221,-0.3347 0,-0.4379 -0.05161,-0.052 -0.167351,0.052 -0.218961,0 -0.05161,-0.052 0.03264,-0.1537 0,-0.2189 -0.04616,-0.092 -0.172802,-0.1267 -0.218963,-0.219 -0.03264,-0.065 0.05161,-0.1674 0,-0.219 -0.05161,-0.052 -0.167353,0.052 -0.218963,0 -0.05161,-0.052 0.05161,-0.1673 0,-0.2189 -0.05161,-0.052 -0.167353,0.052 -0.218963,0 -0.05161,-0.052 0.05161,-0.1674 0,-0.219 -0.05161,-0.052 -0.15368,0.033 -0.218962,0 -0.09232,-0.046 -0.12664,-0.1728 -0.218963,-0.219 -0.06528,-0.033 -0.167353,0.052 -0.218963,0 -0.05161,-0.052 0.05161,-0.1673 0,-0.2189 -0.583901,0 0.07299,0.073 -0.218963,-0.219 -0.05161,-0.052 -0.15368,0.033 -0.218961,0 -0.184646,-0.092 -0.25328,-0.3456 -0.437926,-0.4379 -0.06528,-0.033 -0.167353,0.052 -0.218963,0 -0.05161,-0.052 0.05161,-0.1674 0,-0.219 -0.10322,-0.1032 -0.307362,0.065 -0.437925,0 -0.09232,-0.046 -0.12664,-0.1728 -0.218963,-0.2189 -0.0299,-0.015 -1.283872,-0.015 -1.313776,0 -0.09232,0.046 -0.12664,0.1728 -0.218962,0.2189 -0.118785,0.059 -0.815938,-0.06 -0.87585,0 -0.05161,0.052 0.05161,0.1674 0,0.219 -0.04476,0.045 -0.570072,-0.043 -0.656889,0 -0.09232,0.046 -0.12664,0.1728 -0.218963,0.2189 -0.130563,0.065 -0.307361,-0.065 -0.437925,0 -0.09232,0.046 -0.12664,0.1728 -0.218963,0.219 -0.06528,0.033 -0.15368,-0.033 -0.218963,0 -0.09232,0.046 -0.12664,0.1728 -0.218961,0.219 -0.130565,0.065 -0.334707,-0.1032 -0.437926,0 -0.05161,0.052 0.05161,0.1673 0,0.2189 -0.10322,0.1033 -0.307362,-0.065 -0.437925,0 -0.09232,0.046 -0.12664,0.1728 -0.218963,0.219 -0.06528,0.033 -0.167353,-0.052 -0.218963,0 -0.05161,0.052 0.05161,0.1674 0,0.219 -0.05161,0.052 -0.145975,0 -0.218963,0 0,0.073 0.05161,0.1673 0,0.2189 -0.05161,0.052 -0.167353,-0.052 -0.218963,0 -0.45304,0.4531 0.692309,-0.018 -0.218961,0.438 -0.06528,0.033 -0.167354,-0.052 -0.218963,0 -0.10322,0.1032 0.06528,0.3073 0,0.4379 -0.726208,0.7262 0.103219,-0.2065 -0.218963,0.4379 -0.09232,0.1847 -0.345603,0.2533 -0.437925,0.4379 -0.06528,0.1306 0.10322,0.3347 0,0.438 -0.05161,0.052 -0.167353,-0.052 -0.218963,0 -0.10322,0.1032 0.06528,0.3073 0,0.4379 -0.04616,0.092 -0.172801,0.1266 -0.218963,0.2189 -0.03264,0.065 0.03264,0.1537 0,0.219 -0.04616,0.092 -0.172801,0.1266 -0.218963,0.219 -0.03264,0.065 0.03264,0.1536 0,0.2189 -0.04616,0.092 -0.172801,0.1267 -0.218962,0.219 -0.03264,0.065 0.03264,0.1537 0,0.219 -0.04616,0.092 -0.172801,0.1266 -0.218962,0.2189 -0.06528,0.1306 0.06528,0.3074 0,0.438 -0.04616,0.092 -0.172802,0.1266 -0.218963,0.2189 -0.06528,0.1306 0.103219,0.3347 0,0.4379 -0.05161,0.052 -0.167354,-0.052 -0.218963,0 -0.05269,0.053 0.05269,0.8232 0,0.8759 -0.05161,0.052 -0.167354,-0.052 -0.218963,0 -0.05161,0.052 0,0.146 0,0.2189 0,0.511 0,1.0219 0,1.5328 0,0.073 0,0.146 0,0.219 0,0.073 -0.05161,0.1673 0,0.2189 0.05161,0.052 0.167353,-0.052 0.218963,0 0.0678,0.068 -0.0678,1.027 0,1.0948 0.05161,0.052 0.167353,-0.052 0.218963,0 0.05269,0.053 -0.05269,0.8232 0,0.8759 0.05161,0.052 0.167353,-0.052 0.218963,0 0.05161,0.052 0,0.1459 0,0.2189 0,0.365 0,0.7299 0,1.0949 0,0.073 -0.05161,0.1673 0,0.2189 0.05161,0.052 0.167351,-0.052 0.218962,0 0.04476,0.045 -0.04341,0.5701 0,0.6569 0.04616,0.092 0.172801,0.1266 0.218962,0.219 0.08759,0.1751 -0.08758,0.4817 0,0.6569 0.04616,0.092 0.172802,0.1266 0.218963,0.2189 0.06528,0.1306 -0.10322,0.3347 0,0.4379 0.05161,0.052 0.167353,-0.052 0.218963,0 0.05161,0.052 -0.03264,0.1537 0,0.219 0.04616,0.092 0.172802,0.1266 0.218963,0.219 0.03264,0.065 -0.05161,0.1673 0,0.2189 0.05161,0.052 0.167352,-0.052 0.218962,0 0.103219,0.1032 -0.10322,0.3347 0,0.4379 0.05161,0.052 0.167353,-0.052 0.218963,0 0.05161,0.052 -0.05161,0.1674 0,0.219 0.05161,0.052 0.153681,-0.033 0.218963,0 0.850805,0.4254 -1.087479,0.219 1.094813,0.219 z"
       id="path5785"
       inkscape:connector-curvature="0" />
    <path
       style="color:#000000;clip-rule:nonzero;display:inline;overflow:visible;visibility:visible;isolation:auto;mix-blend-mode:normal;color-interpolation:sRGB;color-interpolation-filters:linearRGB;solid-color:#000000;solid-opacity:1;fill:#000000;fill-opacity:1;fill-rule:evenodd;stroke:#000000;stroke-width:1.38269389;stroke-linecap:butt;stroke-linejoin:miter;stroke-miterlimit:4;stroke-dasharray:none;stroke-dashoffset:0;stroke-opacity:1;color-rendering:auto;image-rendering:auto;shape-rendering:auto;text-rendering:auto;enable-background:accumulate"
       d="m 143.25985,1111.6733 c 0.073,-0.2919 0.21896,-0.5749 0.21896,-0.8758 0,-0.073 -0.16735,0.052 -0.21896,0 -0.0678,-0.068 0.0678,-1.027 0,-1.0948 -0.0516,-0.052 -0.16736,0.052 -0.21897,0 -0.10948,-0.1095 0.10949,-0.5474 0,-0.6569 -0.0516,-0.052 -0.16735,0.052 -0.21896,0 -0.0516,-0.052 0,-0.146 0,-0.219 0,-0.073 0,-0.1459 0,-0.2189 0,-0.438 0,-0.8759 0,-1.3138 0,-0.073 -0.0516,-0.1673 0,-0.219 0.0516,-0.052 0.16735,0.052 0.21896,0 0.0516,-0.052 0,-0.1459 0,-0.2189 0,-0.073 0,-0.146 0,-0.219 0,-0.073 0,-0.146 0,-0.219 0,-0.073 -0.0326,-0.1536 0,-0.2189 0.0462,-0.092 0.17281,-0.1267 0.21897,-0.219 0.0326,-0.065 0,-0.1459 0,-0.2189 0,-0.073 0,-0.146 0,-0.219 0,-0.3649 0,-0.7299 0,-1.0948 0,-0.073 0,-0.146 0,-0.219 0,-0.073 -0.0516,-0.1673 0,-0.2189 0.0516,-0.052 0.16735,0.052 0.21896,0 0.0527,-0.053 -0.0527,-0.8232 0,-0.8759 0.0516,-0.052 0.16735,0.052 0.21897,0 0.10948,-0.1095 -0.10949,-0.5474 0,-0.6569 0.0516,-0.052 0.16736,0.052 0.21897,0 0.15522,-0.1552 -0.15525,-0.2827 0,-0.4379 0.0516,-0.052 0.16735,0.052 0.21896,0 0.10322,-0.1032 -0.10322,-0.3347 0,-0.4379 0.0516,-0.052 0.16735,0.052 0.21896,0 0.0516,-0.052 -0.0516,-0.1674 0,-0.219 0.0516,-0.052 0.16735,0.052 0.21896,0 0.0516,-0.052 -0.0326,-0.1537 0,-0.2189 0.0462,-0.092 0.1728,-0.1267 0.21896,-0.219 0.0326,-0.065 -0.0516,-0.1674 0,-0.219 0.0516,-0.052 0.16735,0.052 0.21896,0 0.0516,-0.052 -0.0516,-0.1673 0,-0.2189 0.0516,-0.052 0.15368,0.033 0.21896,0 0.26276,-0.1314 0.39414,-0.5256 0.65689,-0.6569 0.0653,-0.033 0.15369,0.033 0.21896,0 0.91128,-0.4557 -0.23407,0.015 0.21896,-0.438 0.0516,-0.052 0.15369,0.033 0.21898,0 0.0923,-0.046 0.12663,-0.1728 0.21896,-0.2189 0.0653,-0.033 0.15368,0.033 0.21896,0 0.0923,-0.046 0.12664,-0.1728 0.21896,-0.219 0.0653,-0.033 0.16735,0.052 0.21896,0 0.0516,-0.052 -0.0516,-0.1673 0,-0.2189 0.10949,-0.1095 0.54741,0.1094 0.65689,0 0.0516,-0.052 -0.073,-0.219 0,-0.219 0.10322,0 0.11574,0.219 0.21896,0.219 0.10322,0 0.12664,-0.1728 0.21896,-0.219 0.0566,-0.028 1.15859,0 1.31379,0 0.073,0 0.16735,-0.052 0.21896,0 0.0516,0.052 -0.0516,0.1674 0,0.219 0.10322,0.1032 0.3347,-0.1033 0.43792,0 0.0516,0.052 -0.0516,0.1673 0,0.2189 0.0516,0.052 0.16735,-0.052 0.21896,0 0.0516,0.052 -0.0516,0.1674 0,0.219 0.0516,0.052 0.16735,-0.052 0.21896,0 0.0516,0.052 -0.0326,0.1537 0,0.2189 0.0462,0.092 0.1728,0.1267 0.21897,0.219 0.0326,0.065 -0.0516,0.1674 0,0.219 0.0516,0.052 0.15367,-0.033 0.21896,0 0.91127,0.4556 -0.23408,-0.015 0.21896,0.4379 0.0516,0.052 0.16735,-0.052 0.21896,0 0.0527,0.053 -0.0527,0.8232 0,0.8759 0.0516,0.052 0.16735,-0.052 0.21896,0 0.0516,0.052 0,0.1459 0,0.2189 0,0.073 0,0.146 0,0.219 0,0.073 0,0.1459 0,0.2189 0,0.073 -0.0516,0.1674 0,0.219 0.0516,0.052 0.16735,-0.052 0.21898,0 0.10322,0.1032 -0.10324,0.3347 0,0.4379 0.0516,0.052 0.16735,-0.052 0.21896,0 0.10948,0.1095 -0.10948,0.5474 0,0.6569 0.0516,0.052 0.16735,-0.052 0.21896,0 0.0448,0.045 -0.0434,0.5701 0,0.6569 0.0462,0.092 0.1728,0.1266 0.21896,0.219 0.0434,0.087 -0.0448,0.6121 0,0.6569 0.0516,0.052 0.16735,-0.052 0.21896,0 0.10948,0.1094 -0.10948,0.5474 0,0.6568 0.0516,0.052 0.16735,-0.052 0.21896,0 0.10322,0.1033 -0.0653,0.3074 0,0.438 0.0462,0.092 0.17281,0.1266 0.21897,0.2189 0.0122,0.024 0.0122,1.0704 0,1.0948 -0.0462,0.092 -0.17281,0.1267 -0.21897,0.219 -0.0756,0.1512 0.0769,1.018 0,1.0948 -0.0516,0.052 -0.16735,-0.052 -0.21896,0 -0.10322,0.1032 0.10322,0.3347 0,0.4379 -0.0516,0.052 -0.16735,-0.052 -0.21896,0 -0.10322,0.1033 0.10322,0.3347 0,0.438 -0.0516,0.052 -0.16735,-0.052 -0.21896,0 -0.10322,0.1032 0.10322,0.3347 0,0.4379 -0.0516,0.052 -0.16735,-0.052 -0.21896,0 -0.0516,0.052 0.0326,0.1537 0,0.219 -0.0923,0.1846 -0.3456,0.2532 -0.43794,0.4379 -0.0326,0.065 0.0516,0.1673 0,0.2189 -0.0516,0.052 -0.15368,-0.033 -0.21896,0 -0.0923,0.046 -0.12664,0.1728 -0.21896,0.219 -0.0653,0.033 -0.15368,-0.033 -0.21896,0 -0.0923,0.046 -0.12664,0.1728 -0.21896,0.219 -0.0653,0.033 -0.15368,-0.033 -0.21897,0 -0.0923,0.046 -0.12664,0.1728 -0.21896,0.2189 -0.0868,0.043 -0.61212,-0.045 -0.65688,0 -0.0516,0.052 0.0516,0.1674 0,0.219 -0.0516,0.052 -0.15369,-0.033 -0.21896,0 -0.0923,0.046 -0.12665,0.1728 -0.21897,0.2189 -0.13056,0.065 -0.33471,-0.1032 -0.43793,0 -0.0516,0.052 0.0516,0.1674 0,0.219 -0.0516,0.052 -0.15368,-0.033 -0.21896,0 -0.7262,0.7262 0.20643,-0.1032 -0.43793,0.219 -0.0923,0.046 -0.12664,0.1728 -0.21896,0.2189 -0.0653,0.033 -0.15368,-0.033 -0.21896,0 -0.0923,0.046 -0.12664,0.1728 -0.21896,0.219 -0.0868,0.043 -0.61212,-0.045 -0.65689,0 -0.0516,0.052 0.0516,0.1674 0,0.219 -0.10948,0.1095 -0.5474,-0.1095 -0.65688,0 -0.0516,0.052 0.0516,0.1673 0,0.2189 -0.10324,0.1033 -0.30737,-0.065 -0.43794,0 -0.0923,0.046 -0.12664,0.1728 -0.21896,0.219 -0.0868,0.043 -0.61212,-0.045 -0.65689,0 -0.0516,0.052 0.0516,0.1673 0,0.219 -0.0448,0.045 -0.57007,-0.043 -0.65688,0 -0.0923,0.046 -0.12664,0.1728 -0.21896,0.2189 -0.0653,0.033 -0.14598,0 -0.21896,0 -0.073,0 -0.16735,0.052 -0.21896,0 -0.10949,-0.1095 0.10948,-0.5474 0,-0.6569 -0.0516,-0.052 -0.16736,0.052 -0.21897,0 -0.10323,-0.1032 0.0542,-0.3024 0,-0.4379 -0.12123,-0.3031 -0.29195,-0.5839 -0.43793,-0.8759 z"
       id="path5787"
       inkscape:connector-curvature="0" />
    <path
       style="color:#000000;clip-rule:nonzero;display:inline;overflow:visible;visibility:visible;isolation:auto;mix-blend-mode:normal;color-interpolation:sRGB;color-interpolation-filters:linearRGB;solid-color:#000000;solid-opacity:1;fill:none;fill-opacity:1;fill-rule:evenodd;stroke:#000000;stroke-width:1.38269389;stroke-linecap:butt;stroke-linejoin:miter;stroke-miterlimit:4;stroke-dasharray:none;stroke-dashoffset:0;stroke-opacity:1;color-rendering:auto;image-rendering:auto;shape-rendering:auto;text-rendering:auto;enable-background:accumulate"
       d="m 150.26666,1111.6733 c -0.9229,0.1756 -0.0525,0.762 -0.21896,1.0949 -0.0462,0.092 -0.1728,0.1266 -0.21896,0.2189 -0.0653,0.1306 0.0653,0.3074 0,0.438 -0.0462,0.092 -0.17281,0.1266 -0.21897,0.2189 -0.0653,0.1306 0.0653,0.3074 0,0.4379 -0.0462,0.092 -0.1728,0.1267 -0.21896,0.219 -0.0653,0.1306 0.10322,0.3347 0,0.4379 -0.0516,0.052 -0.16736,-0.052 -0.21897,0 -0.10322,0.1032 0.10322,0.3347 0,0.4379 -0.0516,0.052 -0.16735,-0.052 -0.21896,0 -0.0769,0.077 0.0756,0.9436 0,1.0949 -0.0462,0.092 -0.17281,0.1266 -0.21897,0.2189 -0.0333,0.067 0,0.5583 0,0.6569 0,0.5109 0,1.0218 0,1.5328 0,1.2407 0,2.4815 0,3.7223 0,0.1145 0.0288,0.8183 0,0.8759 -0.0462,0.092 -0.1728,0.1266 -0.21896,0.2189 -0.0288,0.058 0,0.7614 0,0.8759 0,0.4379 0,0.8758 0,1.3138 0,0.099 0.0333,0.5902 0,0.6568 -0.0462,0.092 -0.1728,0.1267 -0.21896,0.219 -0.0326,0.065 0,0.146 0,0.219 0,0.073 -0.0326,0.1537 0,0.2189 0.089,0.1781 0.34734,0.1812 0.21896,0.438 -0.0462,0.092 -0.1728,0.1266 -0.21896,0.2189 -0.0288,0.058 0,0.7614 0,0.8759 0,0.5839 0,1.1678 0,1.7517 0,0.5839 0,1.1678 0,1.7517 0,0.099 -0.0333,0.5902 0,0.6569 0.0462,0.092 0.1728,0.1266 0.21896,0.2189 0.0396,0.079 0,0.9425 0,1.0948 0,0.8029 0,1.6058 0,2.4086 0,0.053 0.007,0.6499 0,0.6569 -0.0516,0.052 -0.16735,-0.052 -0.21896,0 -0.0516,0.052 0,0.146 0,0.219 0,0.073 0,0.146 0,0.2189 0,0.5839 0,1.1678 0,1.7517 0,0.073 0,0.146 0,0.219 0,0.073 -0.0516,0.1674 0,0.219 0.0516,0.052 0.16735,-0.052 0.21896,0 0.01,0.01 0,0.9915 0,1.0948 0,0.099 -0.0333,0.5902 0,0.6569 0.0285,0.057 0.39014,0.2667 0.21896,0.4379 -0.0516,0.052 -0.16735,-0.052 -0.21896,0 -0.0516,0.052 0,0.146 0,0.219 0,0.073 0,0.1459 0,0.2189"
       id="path5791"
       inkscape:connector-curvature="0" />
    <path
       style="color:#000000;clip-rule:nonzero;display:inline;overflow:visible;visibility:visible;isolation:auto;mix-blend-mode:normal;color-interpolation:sRGB;color-interpolation-filters:linearRGB;solid-color:#000000;solid-opacity:1;fill:none;fill-opacity:1;fill-rule:evenodd;stroke:#000000;stroke-width:1.38269389;stroke-linecap:butt;stroke-linejoin:miter;stroke-miterlimit:4;stroke-dasharray:none;stroke-dashoffset:0;stroke-opacity:1;color-rendering:auto;image-rendering:auto;shape-rendering:auto;text-rendering:auto;enable-background:accumulate"
       d="m 150.70458,1142.985 c 1.0322,-0.063 -0.25805,0.8368 0,1.0948 0.0516,0.052 0.16735,-0.052 0.21896,0 0.0599,0.06 -0.0594,0.7571 0,0.8759 0.0462,0.092 0.1728,0.1266 0.21897,0.2189 0.0876,0.1752 -0.0876,0.4818 0,0.6569 0.0462,0.092 0.1728,0.1267 0.21896,0.219 0.0756,0.1512 -0.0769,1.0179 0,1.0948 0.0516,0.052 0.16735,-0.052 0.21896,0 0.10322,0.1032 -0.10322,0.3347 0,0.4379 0.0516,0.052 0.16735,-0.052 0.21896,0 0.0448,0.045 -0.0434,0.5701 0,0.6569 0.0462,0.092 0.18633,0.121 0.21896,0.219 0.0497,0.1489 -0.058,0.9787 0,1.0948 0.0462,0.092 0.1728,0.1266 0.21898,0.219 0.0326,0.065 -0.0516,0.1673 0,0.2189 0.0516,0.052 0.16735,-0.052 0.21896,0 0.034,0.034 -0.0284,0.5717 0,0.6569 0.0516,0.1548 0.16735,0.2831 0.21896,0.4379 0.0231,0.069 -0.0326,0.1537 0,0.219 0.0462,0.092 0.1728,0.1266 0.21896,0.219 0.0326,0.065 -0.0326,0.1536 0,0.2189 0.0462,0.092 0.1728,0.1267 0.21896,0.219 0.0326,0.065 -0.0326,0.1537 0,0.219 0.0462,0.092 0.1728,0.1266 0.21896,0.2189 0.0326,0.065 0,0.146 0,0.219 0.073,0.073 0.17281,0.1266 0.21897,0.2189 0.0326,0.065 0,0.146 0,0.219 0,0.146 -0.0462,0.2994 0,0.4379 0.0326,0.098 0.1728,0.1267 0.21896,0.219 0.0653,0.1306 -0.0653,0.3074 0,0.4379 0.0462,0.092 0.1728,0.1266 0.21896,0.219 0.0326,0.065 0,0.1459 0,0.2189 0,0.146 -0.0462,0.2995 0,0.438 0.0326,0.098 0.1728,0.1266 0.21896,0.2189 0.0326,0.065 -0.0326,0.1537 0,0.219 0.0462,0.092 0.1728,0.1266 0.21896,0.219 0.0326,0.065 -0.0326,0.1536 0,0.2189 0.0462,0.092 0.1728,0.1267 0.21896,0.219 0.0326,0.065 -0.0231,0.1497 0,0.2189 0.0516,0.1549 0.16736,0.2831 0.21897,0.438 0.0231,0.069 -0.0326,0.1536 0,0.2189 0.0462,0.092 0.1728,0.1267 0.21897,0.219 0.0653,0.1306 -0.0653,0.3073 0,0.4379 0.0462,0.092 0.17279,0.1266 0.21896,0.219 0.0326,0.065 -0.0326,0.1537 0,0.2189 0.0462,0.092 0.1728,0.1267 0.21896,0.219 0.0326,0.065 -0.0231,0.1497 0,0.219 0.0516,0.1548 0.16736,0.2831 0.21897,0.4379 0.0231,0.069 -0.0327,0.1537 0,0.2189 0.0462,0.092 0.1728,0.1267 0.21896,0.219 0.0876,0.1752 -0.0876,0.4817 0,0.6569 0.0462,0.092 0.1728,0.1266 0.21896,0.219 0.0326,0.065 -0.0326,0.1536 0,0.2189 0.0462,0.092 0.1728,0.1267 0.21896,0.219 0.0653,0.1305 -0.0653,0.3073 0,0.4379 0.0462,0.092 0.1728,0.1267 0.21896,0.219 0.0326,0.065 -0.0326,0.1537 0,0.2189 0.0462,0.092 0.1728,0.1267 0.21896,0.219 0.0653,0.1306 -0.10322,0.3347 0,0.4379 0.0516,0.052 0.16736,-0.052 0.21897,0 0.10322,0.1032 -0.0653,0.3074 0,0.4379 0.0462,0.092 0.1728,0.1267 0.21896,0.219 0.0653,0.1306 -0.0653,0.3074 0,0.4379 0.0462,0.092 0.1728,0.1267 0.21896,0.219 0.0326,0.065 -0.0516,0.1674 0,0.219 0.0516,0.052 0.16735,-0.052 0.21896,0 0.0516,0.052 -0.0516,0.1673 0,0.2189 0.0516,0.052 0.16735,-0.052 0.21898,0 0.0516,0.052 -0.0516,0.1674 0,0.219 0.10322,0.1032 0.3347,-0.1032 0.43792,0 0.0516,0.052 -0.0516,0.1673 0,0.219 0.0516,0.052 0.14596,0 0.21896,0 0.073,0 0.14597,0 0.21896,0 1.02183,0 2.04365,0 3.06548,0 0.1523,0 1.01562,0.039 1.09481,0 0.0923,-0.046 0.12664,-0.1728 0.21896,-0.219 0.11878,-0.059 0.81594,0.06 0.87586,0 0.0516,-0.052 -0.0516,-0.1674 0,-0.219 0.0516,-0.052 0.15368,0.033 0.21896,0 0.0923,-0.046 0.12664,-0.1728 0.21896,-0.2189 0.17516,-0.088 0.48172,0.088 0.65689,0 0.0923,-0.046 0.12664,-0.1728 0.21896,-0.219 0.13057,-0.065 0.30737,0.065 0.43792,0 0.0923,-0.046 0.12664,-0.1728 0.21896,-0.219 0.0653,-0.033 0.14598,0 0.21896,0 0.073,0 0.14598,0 0.21897,0 0.43793,0 0.87586,0 1.31378,0 0.0986,0 0.59025,0.033 0.65688,0 0.0923,-0.046 0.12665,-0.1728 0.21897,-0.2189 0.0576,-0.029 0.76135,0 0.87586,0 0.65688,0 1.31377,0 1.97065,0 0.1145,0 0.81827,0.029 0.87586,0 0.0923,-0.046 0.11574,-0.219 0.21896,-0.219 0.10322,0 0.12664,0.1728 0.21896,0.219 0.0868,0.043 0.61212,-0.045 0.65689,0 0.0516,0.052 -0.0516,0.1673 0,0.2189 0.0516,0.052 0.14598,0 0.21896,0 0.073,0 0.15368,0.033 0.21896,0 0.0923,-0.046 0.12664,-0.1728 0.21896,-0.2189 0.19788,-0.099 0.56578,0.1886 0.65689,0.2189 0.0693,0.023 0.14598,0 0.21896,0 0.15655,0 1.2017,0.037 1.31378,0 0.0979,-0.033 0.11574,-0.2189 0.21896,-0.2189 0.10322,0 0.12665,0.1728 0.21897,0.2189 0.0792,0.04 0.94251,0 1.0948,0 0.21216,0 1.18322,0.044 1.31379,0 0.75481,-0.2516 0.1622,-0.2189 0.65688,-0.2189 0.073,0 0.15368,-0.033 0.21896,0 0.0923,0.046 0.12664,0.1728 0.21896,0.2189 0.0299,0.015 1.28388,0.015 1.31379,0 0.0923,-0.046 0.12664,-0.1728 0.21896,-0.2189 0.0187,-0.01 0.85718,-0.01 0.87585,0 0.0923,0.046 0.11574,0.2189 0.21896,0.2189 0.0855,0 0.24661,-0.4102 0.43792,-0.2189 0.0309,0.031 0.0225,0.6119 0,0.6569 -0.0462,0.092 -0.1728,0.1266 -0.21896,0.2189 -0.0653,0.1306 0.0653,0.3074 0,0.438 -0.0462,0.092 -0.1728,0.1266 -0.21896,0.2189 -0.0326,0.065 0.0326,0.1537 0,0.219 -0.0462,0.092 -0.1728,0.1266 -0.21896,0.2189 -0.0653,0.1306 0.10322,0.3347 0,0.438 -0.0516,0.052 -0.16736,-0.052 -0.21897,0 -0.10322,0.1032 0.0653,0.3073 0,0.4379 -0.0462,0.092 -0.1728,0.1266 -0.21896,0.2189 -0.0653,0.1306 0.10322,0.3348 0,0.438 -0.0516,0.052 -0.16735,-0.052 -0.21896,0 -0.0516,0.052 0.0326,0.1537 0,0.2189 -0.13138,0.2628 -0.5255,0.3942 -0.65688,0.6569 -0.0327,0.065 0.0516,0.1674 0,0.219 -0.0516,0.052 -0.15369,-0.033 -0.21896,0 -0.91128,0.4556 0.23407,-0.015 -0.21897,0.4379 -0.45305,0.4531 0.0177,-0.6923 -0.43793,0.219 -0.0326,0.065 0.0516,0.1673 0,0.2189 -0.1459,0.1459 -0.29202,-0.1459 -0.43793,0 -0.0516,0.052 0.0516,0.1674 0,0.219 -0.10322,0.1032 -0.30735,-0.065 -0.43792,0 -0.0923,0.046 -0.12664,0.1728 -0.21896,0.219 -0.13057,0.065 -0.30736,-0.065 -0.43792,0 -0.0923,0.046 -0.12665,0.1728 -0.21897,0.2189 -0.0666,0.033 -0.55827,0 -0.65688,0 -0.0804,0 -0.86704,-0.01 -0.87586,0 -0.0516,0.052 0,0.146 0,0.219 0,0.073 0,0.146 0,0.219 0,0.1459 -0.0462,0.2994 0,0.4379 0.0326,0.098 0.14598,0.146 0.21896,0.2189"
       id="path5793"
       inkscape:connector-curvature="0" />
    <path
       style="color:#000000;clip-rule:nonzero;display:inline;overflow:visible;visibility:visible;isolation:auto;mix-blend-mode:normal;color-interpolation:sRGB;color-interpolation-filters:linearRGB;solid-color:#000000;solid-opacity:1;fill:none;fill-opacity:1;fill-rule:evenodd;stroke:#000000;stroke-width:1.38269389;stroke-linecap:butt;stroke-linejoin:miter;stroke-miterlimit:4;stroke-dasharray:none;stroke-dashoffset:0;stroke-opacity:1;color-rendering:auto;image-rendering:auto;shape-rendering:auto;text-rendering:auto;enable-background:accumulate"
       d="m 146.5443,1141.4523 c -0.29196,0.2189 -0.5839,0.4379 -0.87586,0.6569 -0.073,0 -0.15368,-0.033 -0.21896,0 -0.0923,0.046 -0.12665,0.1728 -0.21897,0.2189 -0.13056,0.065 -0.30735,-0.065 -0.43792,0 -0.0923,0.046 -0.12664,0.1728 -0.21896,0.219 -0.13057,0.065 -0.3347,-0.1032 -0.43792,0 -0.0516,0.052 0.0516,0.1673 0,0.2189 -0.0516,0.052 -0.14598,0 -0.21896,0 -0.1523,0 -1.01564,-0.04 -1.09483,0 -0.0923,0.046 -0.12664,0.1728 -0.21896,0.219 -0.0792,0.04 -0.94251,0 -1.09481,0 -0.51351,0 0.10322,-0.052 -0.43792,0.219 -0.0653,0.033 -0.14598,0 -0.21896,0 -0.14598,0 -0.29196,0 -0.43794,0 -0.5109,0 -1.02182,0 -1.53273,0 -0.0612,0 -1.06056,-0.017 -1.09482,0 -0.0653,0.033 0.0516,0.1673 0,0.2189 -0.007,0.01 -0.60378,0 -0.65689,0 -0.1552,0 -1.25716,-0.028 -1.31377,0 -0.0923,0.046 -0.12664,0.1728 -0.21896,0.219 -0.0653,0.033 -0.14598,0 -0.21896,0 -0.073,0 -0.14598,0 -0.21896,0 -0.36494,0 -0.72988,0 -1.09482,0 -0.073,0 -0.14598,0 -0.21896,0 -0.073,0 -0.16736,-0.052 -0.21897,0 -0.0516,0.052 0.0516,0.1674 0,0.219 -0.0678,0.068 -1.02701,-0.068 -1.0948,0 -0.0516,0.052 0.0516,0.1673 0,0.2189 -0.0448,0.045 -0.57007,-0.043 -0.6569,0 -0.0923,0.046 -0.12664,0.1728 -0.21896,0.219 -0.13056,0.065 -0.33471,-0.1032 -0.43793,0 -0.0516,0.052 0.0516,0.1673 0,0.219 -0.0516,0.052 -0.16735,-0.052 -0.21896,0 -0.0516,0.052 0,0.1459 0,0.2189 0,0.073 -0.0326,0.1537 0,0.219 0.0462,0.092 0.1728,0.1266 0.21896,0.2189 0.0876,0.1752 -0.0876,0.4818 0,0.6569 0.0462,0.092 0.1728,0.1267 0.21896,0.219 0.0653,0.1306 -0.0653,0.3074 0,0.4379 0.0462,0.092 0.17281,0.1266 0.21897,0.219 0.0653,0.1305 -0.0653,0.3073 0,0.4379 0.27057,0.5411 0.21896,-0.076 0.21896,0.4379 0,0.073 0,0.146 0,0.219 0,0.073 -0.0326,0.1537 0,0.219 0.0462,0.092 0.1728,0.1266 0.21896,0.2189 0.0688,0.1376 -0.0688,0.7382 0,0.8759 0.0462,0.092 0.1728,0.1266 0.21898,0.2189 0.0653,0.1306 -0.0653,0.3074 0,0.438 0.0462,0.092 0.17278,0.1266 0.21896,0.2189 0.0717,0.1434 -0.0648,0.9005 0,1.0948 0.0516,0.1549 0.16735,0.2831 0.21896,0.438 0.0587,0.1762 -0.07,0.7359 0,0.8758 0.0462,0.092 0.1728,0.1267 0.21896,0.219 0.0653,0.1305 -0.0653,0.3073 0,0.4379 0.0462,0.092 0.1728,0.1266 0.21896,0.219 0.0876,0.1751 -0.0876,0.4817 0,0.6568 0.0462,0.092 0.1728,0.1267 0.21896,0.219 0.0876,0.1752 -0.0876,0.4817 0,0.6569 0.0462,0.092 0.1728,0.1266 0.21896,0.219 0.0876,0.1751 -0.0876,0.4817 0,0.6569 0.0462,0.092 0.17281,0.1266 0.21897,0.2189 0.0688,0.1376 -0.0688,0.7382 0,0.8759 0.0462,0.092 0.1728,0.1266 0.21896,0.2189 0.0653,0.1306 -0.0653,0.3074 0,0.4379 0.0462,0.092 0.1728,0.1267 0.21896,0.219 0.0326,0.065 -0.0326,0.1537 0,0.219 0.0462,0.092 0.1728,0.1266 0.21896,0.2189 0.0653,0.1306 -0.0653,0.3074 0,0.438 0.0462,0.092 0.1728,0.1266 0.21896,0.2189 0.0434,0.087 -0.0448,0.6121 0,0.6569 0.0516,0.052 0.16735,-0.052 0.21896,0 0.0448,0.045 -0.0434,0.5701 0,0.6569 0.0462,0.092 0.17281,0.1266 0.21898,0.219 0.0434,0.087 -0.0448,0.6121 0,0.6569 0.0516,0.052 0.16735,-0.052 0.21896,0 0.10948,0.1094 -0.10948,0.5474 0,0.6568 0.0516,0.052 0.16735,-0.052 0.21896,0 0.10948,0.1095 -0.10948,0.5474 0,0.6569 0.0516,0.052 0.16735,-0.052 0.21896,0 0.10949,0.1095 -0.10948,0.5474 0,0.6569 0.0516,0.052 0.16736,-0.052 0.21897,0 0.0769,0.077 -0.0756,0.9436 0,1.0948 0.0462,0.092 0.1728,0.1267 0.21896,0.219 0.0653,0.1305 -0.0653,0.3073 0,0.4379 0.0462,0.092 0.1728,0.1267 0.21896,0.219 0.0434,0.087 -0.0448,0.6121 0,0.6569 0.29194,0.2919 0.21896,-0.365 0.21896,0.2189 0,0.053 0.007,0.6499 0,0.6569 -0.10948,0.1095 -0.5474,-0.1095 -0.65688,0 -0.0516,0.052 0.0516,0.1674 0,0.219 -0.0448,0.045 -0.57008,-0.043 -0.65689,0 -0.0923,0.046 -0.11574,0.2189 -0.21896,0.2189 -0.073,0 0.0516,-0.1673 0,-0.2189 -0.0516,-0.052 -0.14598,0 -0.21898,0 -0.073,0 -0.14596,0 -0.21896,0 -0.43792,0 -0.87584,0 -1.31377,0 -0.0986,0 -0.59025,0.033 -0.65688,0 -0.0923,-0.046 -0.12664,-0.1728 -0.21896,-0.219 -0.13296,-0.066 -1.18083,0.066 -1.31379,0 -0.0923,-0.046 -0.12664,-0.1728 -0.21896,-0.219 -0.13057,-0.065 -0.3347,0.1033 -0.43792,0 -0.0516,-0.052 0.0516,-0.1673 0,-0.2189 -0.0516,-0.052 -0.14598,0 -0.21896,0 -0.22052,0 -1.19269,0.04 -1.31379,0 -0.0979,-0.033 -0.12664,-0.1728 -0.21896,-0.219 -0.0653,-0.033 -0.14596,0 -0.21896,0 -0.073,0 -0.14598,0 -0.21896,0 -0.36494,0 -0.72987,0 -1.09481,0 -0.073,0 -0.14598,0 -0.21896,0 -0.073,0 -0.15369,0.033 -0.21896,0 -0.0923,-0.046 -0.11574,-0.2189 -0.21896,-0.2189 -0.073,0 0.0516,0.1673 0,0.2189 -0.16111,0.1611 -0.4984,-0.2794 0,0.219"
       id="path5795"
       inkscape:connector-curvature="0" />
    <path
       style="color:#000000;clip-rule:nonzero;display:inline;overflow:visible;visibility:visible;isolation:auto;mix-blend-mode:normal;color-interpolation:sRGB;color-interpolation-filters:linearRGB;solid-color:#000000;solid-opacity:1;fill:none;fill-opacity:1;fill-rule:evenodd;stroke:#000000;stroke-width:1.38269389;stroke-linecap:butt;stroke-linejoin:miter;stroke-miterlimit:4;stroke-dasharray:none;stroke-dashoffset:0;stroke-opacity:1;color-rendering:auto;image-rendering:auto;shape-rendering:auto;text-rendering:auto;enable-background:accumulate"
       d="m 153.77006,1118.8991 c -0.29195,-0.073 -0.60669,-0.084 -0.87585,-0.2189 -0.0653,-0.033 0.0516,-0.1674 0,-0.219 -0.0516,-0.052 -0.16735,0.052 -0.21896,0 -0.0516,-0.052 0.0516,-0.1674 0,-0.219 -0.10322,-0.1032 -0.3347,0.1033 -0.43792,0 -0.0516,-0.052 0.0516,-0.1673 0,-0.2189 -0.0448,-0.045 -0.57007,0.043 -0.6569,0 -0.0923,-0.046 -0.12664,-0.1728 -0.21896,-0.219 -0.13056,-0.065 -0.33471,0.1032 -0.43793,0 -0.0516,-0.052 0.0516,-0.1674 0,-0.219 -0.0516,-0.052 -0.15367,0.033 -0.21896,0 -0.0923,-0.046 -0.12664,-0.1728 -0.21896,-0.2189 -0.0653,-0.033 -0.15368,0.033 -0.21896,0 -0.0923,-0.046 -0.12664,-0.1728 -0.21896,-0.219 -0.13057,-0.065 -0.30737,0.065 -0.43793,0 -0.0923,-0.046 -0.12664,-0.1728 -0.21896,-0.2189 -0.13057,-0.065 -0.33471,0.1032 -0.43793,0 -0.0516,-0.052 0.0516,-0.1674 0,-0.219 -0.0516,-0.052 -0.15368,0.033 -0.21897,0 -0.0923,-0.046 -0.12664,-0.1728 -0.21896,-0.219 -0.0653,-0.033 -0.15368,0.033 -0.21896,0 -0.18464,-0.092 -0.25328,-0.3456 -0.43792,-0.4379 -0.0653,-0.033 -0.15368,0.033 -0.21896,0 -0.18464,-0.092 -0.25329,-0.3456 -0.43793,-0.4379 -0.0653,-0.033 -0.15369,0.033 -0.21896,0 -0.0923,-0.046 -0.12664,-0.1728 -0.21896,-0.219 -0.0653,-0.033 -0.14598,0 -0.21896,0 -0.073,-0.073 -0.12664,-0.1728 -0.21898,-0.219 -0.0653,-0.033 -0.16735,0.052 -0.21896,0 -0.29194,-0.2919 0.36494,-0.2189 -0.21896,-0.2189"
       id="path5797"
       inkscape:connector-curvature="0" />
    <path
       style="color:#000000;clip-rule:nonzero;display:inline;overflow:visible;visibility:visible;isolation:auto;mix-blend-mode:normal;color-interpolation:sRGB;color-interpolation-filters:linearRGB;solid-color:#000000;solid-opacity:1;fill:none;fill-opacity:1;fill-rule:evenodd;stroke:#000000;stroke-width:1.38269389;stroke-linecap:butt;stroke-linejoin:miter;stroke-miterlimit:4;stroke-dasharray:none;stroke-dashoffset:0;stroke-opacity:1;color-rendering:auto;image-rendering:auto;shape-rendering:auto;text-rendering:auto;enable-background:accumulate"
       d="m 155.52176,1120.4319 c 0.14597,0.2919 0.31669,0.5727 0.43793,0.8758 0.0393,0.098 0,0.5332 0,0.6569 0,0.5109 0,1.0218 0,1.5327 0,0.1523 0.0396,1.0157 0,1.0949 -0.0462,0.092 -0.1728,0.1266 -0.21896,0.2189 -0.0691,0.1382 0.0691,0.9567 0,1.0948 -0.0462,0.092 -0.17281,0.1267 -0.21897,0.219 -0.0326,0.065 0,0.146 0,0.2189 0,0.073 0,0.146 0,0.219 0,0.8029 0,1.6057 0,2.4086 0,0.1145 0.0288,0.8183 0,0.8759 -0.0462,0.092 -0.1728,0.1266 -0.21896,0.2189 -0.0326,0.065 0,0.146 0,0.219 0,0.3649 0,0.7298 0,1.0948 0,0.073 0,0.146 0,0.219 0,0.073 0.0326,0.1536 0,0.2189 -0.0462,0.092 -0.1728,0.1267 -0.21896,0.219 -0.0326,0.065 0,0.146 0,0.2189 0,0.099 0.0292,1.2555 0,1.3138 -0.0462,0.092 -0.1728,0.1267 -0.21897,0.219 -0.0325,0.065 0,1.102 0,1.3137 0,0.9968 0.10322,0.013 -0.21897,0.6569 -0.0326,0.065 0,0.146 0,0.219 0,0.099 0.0292,1.2554 0,1.3138 -0.0462,0.092 -0.1728,0.1266 -0.21896,0.2189 -0.0333,0.067 0,0.5583 0,0.6569 0,0.5109 0,1.0219 0,1.5328 0,0.099 0.0333,0.5902 0,0.6569 -0.0462,0.092 -0.1728,0.1266 -0.21896,0.2189 -0.0288,0.058 0,0.7614 0,0.8759 0,0.6569 0,1.3137 0,1.9706 0,0.1145 0.0288,0.8183 0,0.8759 -0.0462,0.092 -0.1728,0.1266 -0.21896,0.219 -0.0665,0.1329 0.0665,1.1808 0,1.3137 -0.0462,0.092 -0.1728,0.1267 -0.21896,0.219 -0.0434,0.087 0.0448,0.6121 0,0.6569 -0.0516,0.052 -0.16735,-0.052 -0.21896,0 -0.10948,0.1095 0.10948,0.5474 0,0.6569 -0.0516,0.052 -0.16736,-0.052 -0.21897,0 -0.10321,0.1032 0.0653,0.3073 0,0.4379 -0.0462,0.092 -0.1728,0.1266 -0.21896,0.219 -0.0326,0.065 0.0326,0.1536 0,0.2189 -0.0462,0.092 -0.1728,0.1267 -0.21896,0.219 -0.0653,0.1305 0.0653,0.3073 0,0.4379 -0.0462,0.092 -0.1728,0.1266 -0.21896,0.219 -0.0326,0.065 0.0326,0.1537 0,0.2189 -0.0462,0.092 -0.1728,0.1267 -0.21896,0.219 -0.0326,0.065 0.0326,0.1537 0,0.219 -0.0462,0.092 -0.1728,0.1266 -0.21896,0.2189 -0.0653,0.1306 0.0653,0.3074 0,0.4379 -0.0462,0.092 -0.1728,0.1267 -0.21898,0.219 -0.0326,0.065 0.0326,0.1537 0,0.219 -0.0462,0.092 -0.1728,0.1266 -0.21896,0.2189 -0.0326,0.065 0.0326,0.1537 0,0.219 -0.0462,0.092 -0.1728,0.1266 -0.21896,0.219 -0.35063,0.7012 0.35064,-0.2634 0,0.4379 -0.0462,0.092 -0.1728,0.1266 -0.21896,0.219 -0.0688,0.1376 0.0688,0.7382 0,0.8758 -0.0462,0.092 -0.1728,0.1266 -0.21896,0.219 -0.0396,0.079 0,0.9425 0,1.0948 0,0.8758 0,1.7517 0,2.6275 0,0.052 -0.0245,0.8268 0,0.8759 0.27057,0.5411 0.21896,-0.076 0.21896,0.4379 0,0.073 0,0.146 0,0.219 0,0.073 -0.073,0.2189 0,0.2189 0.10322,0 0.14598,-0.146 0.21896,-0.2189"
       id="path5799"
       inkscape:connector-curvature="0" />
    <path
       style="color:#000000;clip-rule:nonzero;display:inline;overflow:visible;visibility:visible;isolation:auto;mix-blend-mode:normal;color-interpolation:sRGB;color-interpolation-filters:linearRGB;solid-color:#000000;solid-opacity:1;fill:none;fill-opacity:1;fill-rule:evenodd;stroke:#000000;stroke-width:1.38269389;stroke-linecap:butt;stroke-linejoin:miter;stroke-miterlimit:4;stroke-dasharray:none;stroke-dashoffset:0;stroke-opacity:1;color-rendering:auto;image-rendering:auto;shape-rendering:auto;text-rendering:auto;enable-background:accumulate"
       d="m 145.44948,1116.7095 c 0.27972,0.7211 0.21896,1.4401 0.21896,2.1896 0,0.099 0.0333,0.5903 0,0.6569 -0.0462,0.092 -0.1728,0.1266 -0.21896,0.219 -0.0326,0.065 0.0326,0.1536 0,0.2189 -0.0462,0.092 -0.17281,0.1267 -0.21897,0.219 -0.0876,0.1752 0.0876,0.4817 0,0.6569 -0.0462,0.092 -0.1728,0.1266 -0.21896,0.219 -0.0326,0.065 0,0.1459 0,0.2189 0,0.073 0,0.146 0,0.219 0,0.3649 0,0.7298 0,1.0948 0,0.073 0.0326,0.1537 0,0.2189 -0.0462,0.092 -0.1728,0.1267 -0.21896,0.219 -0.0288,0.058 0,0.7614 0,0.8759 0,0.5839 0,1.1678 0,1.7517 0,0.5839 0,1.1678 0,1.7517 0,0.099 0.0333,0.5902 0,0.6569 -0.0462,0.092 -0.1728,0.1266 -0.21896,0.2189 -0.0691,0.1382 0.0691,0.9567 0,1.0948 -0.0462,0.092 -0.1728,0.1267 -0.21896,0.219 -0.0326,0.065 0,0.146 0,0.219 0,0.073 0,0.1459 0,0.2189 0,0.4379 0,0.8759 0,1.3138 0,0.073 0,0.146 0,0.219 0,0.073 0.0516,0.1673 0,0.2189 -0.0516,0.052 -0.16735,-0.052 -0.21896,0 -0.0516,0.052 0,0.146 0,0.219 0,0.073 0,0.146 0,0.2189 0,1.0949 0,2.1897 0,3.2845 0,0.053 0.007,0.6498 0,0.6569 -0.0516,0.052 -0.16735,-0.052 -0.21896,0 -0.0516,0.052 0,0.146 0,0.2189 0,0.365 0,0.7299 0,1.0948 0,0.073 0.0516,0.1674 0,0.219 -0.0516,0.052 -0.16736,-0.052 -0.21897,0 -0.0516,0.052 0.0326,0.1537 0,0.219 -0.0462,0.092 -0.1728,0.1266 -0.21897,0.2189 -0.0326,0.065 0,0.146 0,0.219 -0.073,0.073 -0.1728,0.1266 -0.21896,0.219 -0.0688,0.1376 0.0688,0.7382 0,0.8758 -0.0462,0.092 -0.17281,0.1267 -0.21897,0.219 -0.0688,0.1376 0.0688,0.7382 0,0.8758 -0.0462,0.092 -0.1728,0.1267 -0.21896,0.219 -0.0288,0.058 0,0.7613 0,0.8758 0,0.1523 -0.0396,1.0157 0,1.0948 0.0462,0.092 0.1728,0.1267 0.21896,0.219 0.0333,0.067 0,0.5583 0,0.6569 0,0.099 -0.0333,0.5903 0,0.6569 0.0462,0.092 0.17281,0.1266 0.21897,0.219 0.0653,0.1305 -0.0653,0.3073 0,0.4379 0.0462,0.092 0.1728,0.1266 0.21896,0.2189 0.0326,0.065 -0.0516,0.1674 0,0.219 0.29196,0.292 0.21897,-0.3649 0.21897,0.219"
       id="path5801"
       inkscape:connector-curvature="0" />
  </g>
</svg>
