<?xml version="1.0" encoding="UTF-8" standalone="no"?>
<!-- Created with Inkscape (http://www.inkscape.org/) -->

<svg
   xmlns:dc="http://purl.org/dc/elements/1.1/"
   xmlns:cc="http://creativecommons.org/ns#"
   xmlns:rdf="http://www.w3.org/1999/02/22-rdf-syntax-ns#"
   xmlns:svg="http://www.w3.org/2000/svg"
   xmlns="http://www.w3.org/2000/svg"
   xmlns:sodipodi="http://sodipodi.sourceforge.net/DTD/sodipodi-0.dtd"
   xmlns:inkscape="http://www.inkscape.org/namespaces/inkscape"
   width="177.16534"
   height="106.29497"
   id="svg2"
   version="1.1"
   inkscape:version="0.91 r13725"
   sodipodi:docname="power_cobra.svg">
  <defs
     id="defs4" />
  <sodipodi:namedview
     id="base"
     pagecolor="#ffffff"
     bordercolor="#666666"
     borderopacity="1.0"
     inkscape:pageopacity="0.0"
     inkscape:pageshadow="2"
     inkscape:zoom="2.191117"
     inkscape:cx="77.286203"
     inkscape:cy="116.0773"
     inkscape:document-units="cm"
     inkscape:current-layer="layer1"
     showgrid="false"
     fit-margin-top="0"
     fit-margin-left="0"
     fit-margin-right="0"
     fit-margin-bottom="0"
     inkscape:window-width="1330"
     inkscape:window-height="747"
     inkscape:window-x="36"
     inkscape:window-y="21"
     inkscape:window-maximized="1"
     units="cm" />
  <metadata
     id="metadata7">
    <rdf:RDF>
      <cc:Work
         rdf:about="">
        <dc:format>image/svg+xml</dc:format>
        <dc:type
           rdf:resource="http://purl.org/dc/dcmitype/StillImage" />
        <dc:title></dc:title>
      </cc:Work>
    </rdf:RDF>
  </metadata>
  <g
     inkscape:label="Layer 1"
     inkscape:groupmode="layer"
     id="layer1"
     transform="translate(-32.228633,-1064.9324)">
    <path
       inkscape:connector-curvature="0"
       id="path5115-6"
       d="m 123.1032,946.21546 c 0.96825,7.9561 -3.43,15.0288 -5.30527,22.4318 0.55562,2.8664 -2.78231,10.3696 2.92738,7.9522"
       style="color:#000000;clip-rule:nonzero;display:inline;overflow:visible;visibility:visible;opacity:1;isolation:auto;mix-blend-mode:normal;color-interpolation:sRGB;color-interpolation-filters:linearRGB;solid-color:#000000;solid-opacity:1;fill:none;fill-opacity:1;fill-rule:evenodd;stroke:#000000;stroke-width:1.38269389;stroke-linecap:butt;stroke-linejoin:miter;stroke-miterlimit:4;stroke-dasharray:none;stroke-dashoffset:0;stroke-opacity:1;color-rendering:auto;image-rendering:auto;shape-rendering:auto;text-rendering:auto;enable-background:accumulate" />
    <path
       style="color:#000000;clip-rule:nonzero;display:inline;overflow:visible;visibility:visible;isolation:auto;mix-blend-mode:normal;color-interpolation:sRGB;color-interpolation-filters:linearRGB;solid-color:#000000;solid-opacity:1;fill:#000000;fill-opacity:1;fill-rule:evenodd;stroke:#000000;stroke-width:1.38269389;stroke-linecap:butt;stroke-linejoin:miter;stroke-miterlimit:4;stroke-dasharray:none;stroke-dashoffset:0;stroke-opacity:1;color-rendering:auto;image-rendering:auto;shape-rendering:auto;text-rendering:auto;enable-background:accumulate"
       d="m 45.790129,1097.174 c -4.265467,7.8427 -16.040726,4.2653 -12.294915,-4.9622 2.244858,-6.0573 11.655325,-6.3324 13.93405,0.036 2.056156,2.3654 -0.84457,4.4818 -0.736012,5.8293"
       id="path5924"
       inkscape:connector-curvature="0" />
    <path
       style="color:#000000;clip-rule:nonzero;display:inline;overflow:visible;visibility:visible;isolation:auto;mix-blend-mode:normal;color-interpolation:sRGB;color-interpolation-filters:linearRGB;solid-color:#000000;solid-opacity:1;fill:none;fill-opacity:1;fill-rule:evenodd;stroke:#000000;stroke-width:1.38269389;stroke-linecap:butt;stroke-linejoin:miter;stroke-miterlimit:4;stroke-dasharray:none;stroke-dashoffset:0;stroke-opacity:1;color-rendering:auto;image-rendering:auto;shape-rendering:auto;text-rendering:auto;enable-background:accumulate"
       d="m 44.435446,1099.4318 c 1.50701,1.8891 2.153699,3.2117 3.612489,4.9672 1.232148,1.8488 3.663225,3.5753 5.16977,5.6604 1.472149,0.9073 1.937707,2.0851 3.200032,3.1218 1.208862,1.9858 3.273105,3.3754 4.725472,5.2162 2.028937,1.1668 3.065099,3.5052 4.741394,4.2898 0.567771,0.7938 1.107245,1.1242 1.806245,2.032"
       id="path5926"
       inkscape:connector-curvature="0" />
    <path
       style="color:#000000;clip-rule:nonzero;display:inline;overflow:visible;visibility:visible;isolation:auto;mix-blend-mode:normal;color-interpolation:sRGB;color-interpolation-filters:linearRGB;solid-color:#000000;solid-opacity:1;fill:none;fill-opacity:1;fill-rule:evenodd;stroke:#000000;stroke-width:1.38269389;stroke-linecap:butt;stroke-linejoin:miter;stroke-miterlimit:4;stroke-dasharray:none;stroke-dashoffset:0;stroke-opacity:1;color-rendering:auto;image-rendering:auto;shape-rendering:auto;text-rendering:auto;enable-background:accumulate"
       d="m 67.013506,1127.4286 c 0.825204,0.9009 2.909357,1.2178 4.854295,2.2685 0.664356,0.4877 2.561963,1.5845 4.402709,2.0213 2.119127,0.711 4.287122,1.3043 6.773419,1.1289 2.010487,0.6597 4.35028,0.5063 6.470888,0.9031 4.099044,0.262 7.952106,-0.9059 12.043123,-0.2257 2.83679,-0.3236 5.659,-0.709 8.57966,-0.6774 2.88395,-0.7691 5.17406,-0.8629 7.22498,-2.2578 1.57833,0.044 3.30932,-3.2077 3.61249,-1.3547 0.24487,2.2288 2.7111,5.8863 -0.45156,6.5477 0.16229,0.6867 -1.19057,0.1204 -1.35468,0.4515"
       id="path5928"
       inkscape:connector-curvature="0" />
    <path
       style="color:#000000;clip-rule:nonzero;display:inline;overflow:visible;visibility:visible;isolation:auto;mix-blend-mode:normal;color-interpolation:sRGB;color-interpolation-filters:linearRGB;solid-color:#000000;solid-opacity:1;fill:none;fill-opacity:1;fill-rule:evenodd;stroke:#000000;stroke-width:1.38269389;stroke-linecap:butt;stroke-linejoin:miter;stroke-miterlimit:4;stroke-dasharray:none;stroke-dashoffset:0;stroke-opacity:1;color-rendering:auto;image-rendering:auto;shape-rendering:auto;text-rendering:auto;enable-background:accumulate"
       d="m 67.465067,1119.752 c 1.259544,0.1543 3.716416,1.0093 5.418734,2.0321 3.754753,1.4552 8.020959,1.6757 12.417934,1.5804 2.455324,-0.84 4.387434,-1.3244 6.999198,-2.032 2.399419,-0.676 4.781216,-1.9304 7.22498,-2.4836 1.638987,-0.7842 3.145967,-1.1349 4.967177,-2.2578 1.76161,-1.0625 3.28008,-0.7025 3.83827,0.9031 0.45668,1.2144 1.23007,6.3784 -1.12891,5.4188"
       id="path5930"
       inkscape:connector-curvature="0" />
    <path
       style="color:#000000;clip-rule:nonzero;display:inline;overflow:visible;visibility:visible;isolation:auto;mix-blend-mode:normal;color-interpolation:sRGB;color-interpolation-filters:linearRGB;solid-color:#000000;solid-opacity:1;fill:none;fill-opacity:1;fill-rule:evenodd;stroke:#000000;stroke-width:1.38269389;stroke-linecap:butt;stroke-linejoin:miter;stroke-miterlimit:4;stroke-dasharray:none;stroke-dashoffset:0;stroke-opacity:1;color-rendering:auto;image-rendering:auto;shape-rendering:auto;text-rendering:auto;enable-background:accumulate"
       d="m 49.402619,1100.3349 c -0.734846,1.9779 -1.126366,3.3407 -2.257806,4.2898 -0.522356,1.0801 -1.752988,1.9247 -2.032026,3.3868 l -0.22578,0.2257 0.22578,0"
       id="path5932"
       inkscape:connector-curvature="0" />
    <path
       style="color:#000000;clip-rule:nonzero;display:inline;overflow:visible;visibility:visible;isolation:auto;mix-blend-mode:normal;color-interpolation:sRGB;color-interpolation-filters:linearRGB;solid-color:#000000;solid-opacity:1;fill:none;fill-opacity:1;fill-rule:evenodd;stroke:#000000;stroke-width:1.38269389;stroke-linecap:butt;stroke-linejoin:miter;stroke-miterlimit:4;stroke-dasharray:none;stroke-dashoffset:0;stroke-opacity:1;color-rendering:auto;image-rendering:auto;shape-rendering:auto;text-rendering:auto;enable-background:accumulate"
       d="m 46.693252,1109.5919 c 1.625004,3.1061 1.472743,6.4927 2.257806,9.9344 0.204909,3.1879 0.881712,6.1802 1.354683,9.257 -0.195409,2.5828 0.879808,4.6392 0.677342,7.2249 0.422616,2.037 2.062584,7.0016 -1.580464,6.5477 -2.027485,0.3411 -4.321884,0.3618 -6.168358,0.6773 -0.333617,-0.015 -1.869444,0.3454 -1.282402,0.2258"
       id="path5934"
       inkscape:connector-curvature="0" />
    <path
       style="color:#000000;clip-rule:nonzero;display:inline;overflow:visible;visibility:visible;isolation:auto;mix-blend-mode:normal;color-interpolation:sRGB;color-interpolation-filters:linearRGB;solid-color:#000000;solid-opacity:1;fill:none;fill-opacity:1;fill-rule:evenodd;stroke:#000000;stroke-width:1.38269389;stroke-linecap:butt;stroke-linejoin:miter;stroke-miterlimit:4;stroke-dasharray:none;stroke-dashoffset:0;stroke-opacity:1;color-rendering:auto;image-rendering:auto;shape-rendering:auto;text-rendering:auto;enable-background:accumulate"
       d="m 50.983083,1100.7865 c -0.599358,2.9642 0.484433,6.0391 -0.22578,8.9544 -0.435938,3.0078 -0.09945,6.06 0,9.108 0.506858,1.8262 0.04519,4.621 0.903122,6.0961 -0.181228,2.9551 -4.684594,1.6287 -6.696669,2.4836 -0.141824,0 -0.579477,0 -0.07675,0"
       id="path5936"
       inkscape:connector-curvature="0" />
    <path
       style="color:#000000;clip-rule:nonzero;display:inline;overflow:visible;visibility:visible;isolation:auto;mix-blend-mode:normal;color-interpolation:sRGB;color-interpolation-filters:linearRGB;solid-color:#000000;solid-opacity:1;fill:none;fill-opacity:1;fill-rule:evenodd;stroke:#000000;stroke-width:1.38269389;stroke-linecap:butt;stroke-linejoin:miter;stroke-miterlimit:4;stroke-dasharray:none;stroke-dashoffset:0;stroke-opacity:1;color-rendering:auto;image-rendering:auto;shape-rendering:auto;text-rendering:auto;enable-background:accumulate"
       d="m 182.56565,1096.8012 c 0.36145,0.8608 1.97852,1.0735 3.10423,2.3776 1.00723,0.834 3.07736,1.9955 4.23972,2.7312 3.33318,1.7463 6.66098,3.5556 9.57905,5.2685 2.55171,1.6976 4.63023,4.4989 7.09551,6.5285 0.16087,0.2744 1.66509,1.0992 1.6853,1.2944"
       id="path5940"
       inkscape:connector-curvature="0" />
    <path
       style="color:#000000;clip-rule:nonzero;display:inline;overflow:visible;visibility:visible;isolation:auto;mix-blend-mode:normal;color-interpolation:sRGB;color-interpolation-filters:linearRGB;solid-color:#000000;solid-opacity:1;fill:none;fill-opacity:1;fill-rule:evenodd;stroke:#000000;stroke-width:1.38269389;stroke-linecap:butt;stroke-linejoin:miter;stroke-miterlimit:4;stroke-dasharray:none;stroke-dashoffset:0;stroke-opacity:1;color-rendering:auto;image-rendering:auto;shape-rendering:auto;text-rendering:auto;enable-background:accumulate"
       d="m 207.31155,1116.5979 c -4.38696,-0.9352 -9.1623,-0.2864 -13.72998,-0.3193 -1.86185,-0.3731 -4.43884,0.01 -5.90709,-0.3193 0.17062,2.112 1.25485,3.2022 1.59651,4.9492 1.18142,2.3046 2.17597,4.8674 3.51232,7.1843 0.58522,2.1552 1.38001,3.4789 2.07547,5.4281 1.37388,2.4343 2.29605,4.6433 3.67196,7.0246 0.30557,1.2917 1.69299,2.6365 1.27722,3.8317 -1.56225,0.697 -3.95574,1.0307 -5.58779,2.2351 -1.82367,0.3156 -3.14923,1.5646 -4.78953,2.0755 0.27341,-0.01 0.557,0.047 0.79826,-0.1597"
       id="path5942"
       inkscape:connector-curvature="0" />
    <path
       style="color:#000000;clip-rule:nonzero;display:inline;overflow:visible;visibility:visible;isolation:auto;mix-blend-mode:normal;color-interpolation:sRGB;color-interpolation-filters:linearRGB;solid-color:#000000;solid-opacity:1;fill:none;fill-opacity:1;fill-rule:evenodd;stroke:#000000;stroke-width:1.38269389;stroke-linecap:butt;stroke-linejoin:miter;stroke-miterlimit:4;stroke-dasharray:none;stroke-dashoffset:0;stroke-opacity:1;color-rendering:auto;image-rendering:auto;shape-rendering:auto;text-rendering:auto;enable-background:accumulate"
       d="m 208.10981,1113.2452 c -3.00106,-0.8446 -6.68625,-1.2648 -10.11353,-1.5965 -2.79612,-0.2783 -5.0756,-1.5696 -7.76738,-1.9158 -0.80859,-0.2576 -3.07576,-2.0436 -2.39477,-0.9579 1.09223,1.9677 2.62308,3.8002 3.19302,5.7474 2.36504,2.9363 4.4139,5.6937 6.06675,8.9405 0.68486,1.3045 1.69896,3.2795 2.07545,4.7895 -3.03873,0.1444 -5.64969,-0.9887 -8.62115,-1.1175 l 0,-0.1597"
       id="path5944"
       inkscape:connector-curvature="0" />
    <path
       style="color:#000000;clip-rule:nonzero;display:inline;overflow:visible;visibility:visible;isolation:auto;mix-blend-mode:normal;color-interpolation:sRGB;color-interpolation-filters:linearRGB;solid-color:#000000;solid-opacity:1;fill:none;fill-opacity:1;fill-rule:evenodd;stroke:#000000;stroke-width:1.38269389;stroke-linecap:butt;stroke-linejoin:miter;stroke-miterlimit:4;stroke-dasharray:none;stroke-dashoffset:0;stroke-opacity:1;color-rendering:auto;image-rendering:auto;shape-rendering:auto;text-rendering:auto;enable-background:accumulate"
       d="m 184.00251,1095.524 c -1.04778,1.9203 -1.16041,3.1048 -2.55442,4.9492 -0.36999,0.8895 -1.07343,1.6116 -1.43686,2.3947"
       id="path5946"
       inkscape:connector-curvature="0" />
    <path
       style="color:#000000;clip-rule:nonzero;display:inline;overflow:visible;visibility:visible;isolation:auto;mix-blend-mode:normal;color-interpolation:sRGB;color-interpolation-filters:linearRGB;solid-color:#000000;solid-opacity:1;fill:none;fill-opacity:1;fill-rule:evenodd;stroke:#000000;stroke-width:1.38269389;stroke-linecap:butt;stroke-linejoin:miter;stroke-miterlimit:4;stroke-dasharray:none;stroke-dashoffset:0;stroke-opacity:1;color-rendering:auto;image-rendering:auto;shape-rendering:auto;text-rendering:auto;enable-background:accumulate"
       d="m 180.96914,1103.1872 c 0.64049,2.6373 0.0239,5.782 -0.6386,8.4615 -0.27401,2.0339 -1.52045,3.1659 -2.23512,5.2685 -0.97355,2.7465 -3.59743,4.5126 -4.62988,7.1843 -1.94663,2.9075 -4.17052,6.5114 -7.1703,7.9331 -2.45486,1.3048 -4.62979,1.7554 -7.51759,2.6039 -0.60156,0.4104 -2.14806,0.8535 -2.07546,1.1175"
       id="path5948"
       inkscape:connector-curvature="0" />
    <path
       style="color:#000000;clip-rule:nonzero;display:inline;overflow:visible;visibility:visible;isolation:auto;mix-blend-mode:normal;color-interpolation:sRGB;color-interpolation-filters:linearRGB;solid-color:#000000;solid-opacity:1;fill:none;fill-opacity:1;fill-rule:evenodd;stroke:#000000;stroke-width:1.38269389;stroke-linecap:butt;stroke-linejoin:miter;stroke-miterlimit:4;stroke-dasharray:none;stroke-dashoffset:0;stroke-opacity:1;color-rendering:auto;image-rendering:auto;shape-rendering:auto;text-rendering:auto;enable-background:accumulate"
       d="m 182.7253,1096.0029 c -1.89678,2.1364 -1.96995,5.2547 -3.54295,7.3663 -0.57956,1.4714 -2.34748,2.8823 -3.00274,4.7672 -1.27031,1.5553 -1.79232,3.388 -2.87372,4.9492 -0.87381,1.7318 -1.91795,3.1675 -3.10423,4.6127 -0.71302,1.0035 -2.52313,2.2903 -3.92041,2.7312 -1.78669,0.7374 -3.76925,1.4836 -5.74744,2.0755 l 0.15965,0"
       id="path5950"
       inkscape:connector-curvature="0" />
    <path
       style="color:#000000;clip-rule:nonzero;display:inline;overflow:visible;visibility:visible;isolation:auto;mix-blend-mode:normal;color-interpolation:sRGB;color-interpolation-filters:linearRGB;solid-color:#000000;solid-opacity:1;fill:#000000;fill-opacity:1;fill-rule:evenodd;stroke:#000000;stroke-width:1.38269389;stroke-linecap:butt;stroke-linejoin:miter;stroke-miterlimit:4;stroke-dasharray:none;stroke-dashoffset:0;stroke-opacity:1;color-rendering:auto;image-rendering:auto;shape-rendering:auto;text-rendering:auto;enable-background:accumulate"
       d="m 166.1216,1088.659 c 1.11247,-1.0347 3.87767,-0.2823 4.94918,0.3193 1.41049,0.329 2.89112,1.0495 3.6265,1.5957 2.13566,1.1475 3.70456,2.8254 3.55779,5.4289 -0.32998,2.5795 -1.47814,4.3361 -2.71406,6.2264 -0.82574,0.5495 -1.63416,1.3739 -3.08888,0.9579 -2.44497,-0.038 -3.30574,-1.2202 -5.05332,-2.5544 -0.53182,-0.7686 -1.71902,-1.3373 -2.07547,-2.2351 -0.58374,-0.9831 -1.19186,-2.1576 -1.91581,-2.8737 -0.58884,-1.3832 -0.30492,-3.0516 0.6386,-3.9913 0.49736,-0.9175 0.95472,-1.8795 1.59651,-2.5544 -0.70694,-0.013 1.18591,0.082 0.47896,-0.3193 z"
       id="path5952"
       inkscape:connector-curvature="0" />
  </g>
</svg>
