<?xml version="1.0" encoding="UTF-8" standalone="no"?>
<!-- Created with Inkscape (http://www.inkscape.org/) -->

<svg
   xmlns:dc="http://purl.org/dc/elements/1.1/"
   xmlns:cc="http://creativecommons.org/ns#"
   xmlns:rdf="http://www.w3.org/1999/02/22-rdf-syntax-ns#"
   xmlns:svg="http://www.w3.org/2000/svg"
   xmlns="http://www.w3.org/2000/svg"
   xmlns:xlink="http://www.w3.org/1999/xlink"
   xmlns:sodipodi="http://sodipodi.sourceforge.net/DTD/sodipodi-0.dtd"
   xmlns:inkscape="http://www.inkscape.org/namespaces/inkscape"
   width="177.16534"
   height="106.29497"
   id="svg2"
   version="1.1"
   inkscape:version="0.91 r13725"
   sodipodi:docname="prisoner_squat.svg">
  <defs
     id="defs4" />
  <sodipodi:namedview
     id="base"
     pagecolor="#ffffff"
     bordercolor="#666666"
     borderopacity="1.0"
     inkscape:pageopacity="0.0"
     inkscape:pageshadow="2"
     inkscape:zoom="1.8408689"
     inkscape:cx="189.67677"
     inkscape:cy="-30.307812"
     inkscape:document-units="cm"
     inkscape:current-layer="layer1"
     showgrid="false"
     fit-margin-top="0"
     fit-margin-left="0"
     fit-margin-right="0"
     fit-margin-bottom="0"
     inkscape:window-width="1330"
     inkscape:window-height="747"
     inkscape:window-x="36"
     inkscape:window-y="21"
     inkscape:window-maximized="1"
     units="cm" />
  <metadata
     id="metadata7">
    <rdf:RDF>
      <cc:Work
         rdf:about="">
        <dc:format>image/svg+xml</dc:format>
        <dc:type
           rdf:resource="http://purl.org/dc/dcmitype/StillImage" />
        <dc:title></dc:title>
      </cc:Work>
    </rdf:RDF>
  </metadata>
  <g
     inkscape:label="Layer 1"
     inkscape:groupmode="layer"
     id="layer1"
     transform="translate(-32.228633,-1064.9324)">
    <path
       style="color:#000000;clip-rule:nonzero;display:inline;overflow:visible;visibility:visible;opacity:1;isolation:auto;mix-blend-mode:normal;color-interpolation:sRGB;color-interpolation-filters:linearRGB;solid-color:#000000;solid-opacity:1;fill:none;fill-opacity:1;fill-rule:evenodd;stroke:#000000;stroke-width:1.38269389;stroke-linecap:butt;stroke-linejoin:miter;stroke-miterlimit:4;stroke-dasharray:none;stroke-dashoffset:0;stroke-opacity:1;color-rendering:auto;image-rendering:auto;shape-rendering:auto;text-rendering:auto;enable-background:accumulate"
       d="m 239.36119,1011.8292 c 0,0.3641 -0.0883,0.7391 0,1.0924 0.0222,0.088 0.20873,-0.064 0.27311,0 0.0845,0.085 -0.0846,1.2809 0,1.3654 0.0643,0.064 0.2087,-0.064 0.27308,0 0.0123,0.012 0,1.2367 0,1.3655 0,0.091 -0.0644,0.2087 0,0.2731 0.0644,0.064 0.20873,-0.064 0.2731,0 0.0643,0.064 0,0.1821 0,0.2731 0,0.4552 0,0.9103 0,1.3655 0,0.091 -0.0644,0.2087 0,0.2731 0.0643,0.064 0.20871,-0.064 0.27309,0 0.009,0.01 0,0.753 0,0.8192 0,0.8193 0,1.6386 0,2.4579 0,0.2312 -0.0489,0.9456 0,1.0924 0.0407,0.1221 0.21551,0.1579 0.2731,0.2731 0.0407,0.081 0,0.182 0,0.2731 0,0.091 0,0.182 0,0.273 0,0.3266 -0.0594,1.4604 0,1.6386 0.0643,0.1931 0.22371,0.3487 0.27308,0.5462 0.0662,0.2649 0,0.5462 0,0.8193 0,0.5462 0,1.0924 0,1.6385 0,0.065 -0.0306,1.0312 0,1.0924 0.0576,0.1152 0.21552,0.158 0.27311,0.2731 0.0829,0.1658 -0.0829,1.4728 0,1.6386 0.0576,0.1151 0.21552,0.1579 0.27308,0.2731 0.0861,0.1723 -0.0861,1.1932 0,1.3654 0.0576,0.1152 0.21552,0.158 0.27311,0.2731 0.0866,0.1733 -0.0887,1.1881 0,1.3655 0.0576,0.1152 0.21552,0.158 0.27308,0.2731 0.0813,0.1626 -0.0766,1.1355 0,1.3655 0.0644,0.1931 0.20873,0.3531 0.27311,0.5462 0.0808,0.2423 -0.0894,1.1866 0,1.3654 0.0576,0.1152 0.21552,0.158 0.27308,0.2731 0.0407,0.081 0,0.1821 0,0.2731 0,0.091 0,0.1821 0,0.2731 0,0.4552 0,0.9103 0,1.3655"
       id="path6158"
       inkscape:connector-curvature="0" />
    <image
       sodipodi:absref="/home/maurizio/Downloads/screenshot/Screenshot_2016-06-01-00-54-09.png"
       y="1975.5938"
       x="-626.45453"
       id="image4169"
       xlink:href="file:///home/maurizio/Downloads/screenshot/Screenshot_2016-06-01-00-54-09.png"
       preserveAspectRatio="none"
       height="1280"
       width="720" />
    <image
       sodipodi:absref="/home/maurizio/Downloads/screenshot/Screenshot_2016-06-01-00-54-14.png"
       y="1975.5938"
       x="-1346.4545"
       id="image4180"
       xlink:href="file:///home/maurizio/Downloads/screenshot/Screenshot_2016-06-01-00-54-14.png"
       preserveAspectRatio="none"
       height="1280"
       width="720" />
    <g
       id="g4586"
       transform="translate(-144.54146,-160.17573)">
      <path
         inkscape:connector-curvature="0"
         id="path4525"
         d="m 222.47821,1241.3423 c -0.22509,-0.3001 -0.41004,-0.635 -0.67527,-0.9003 -0.0525,-0.053 -0.17196,0.053 -0.22509,0 -0.0525,-0.053 0.0535,-0.172 0,-0.225 -0.0525,-0.053 -0.17197,0.053 -0.22499,0 -0.10616,-0.1062 0.10605,-0.3441 0,-0.4502 -0.0525,-0.053 -0.17207,0.053 -0.22509,0 -0.0525,-0.053 0.0337,-0.1579 0,-0.225 -0.0476,-0.095 -0.17762,-0.1303 -0.2251,-0.2251 -0.0337,-0.067 0.0525,-0.1721 0,-0.2251 -0.0525,-0.053 -0.17196,0.053 -0.22509,0 -0.10605,-0.1062 0.10616,-0.344 0,-0.4502 -0.0525,-0.053 -0.17196,0.053 -0.22509,0 -0.0525,-0.053 0.0535,-0.172 0,-0.225 -0.0525,-0.053 -0.17196,0.053 -0.22499,0 -0.0535,-0.053 0.0525,-0.172 0,-0.2251 -0.0535,-0.053 -0.17206,0.053 -0.22509,0 -0.0525,-0.053 0.0337,-0.158 0,-0.2251 -0.0476,-0.095 -0.17762,-0.1301 -0.22509,-0.2251 -0.0674,-0.1342 0.10615,-0.344 0,-0.45 -0.0525,-0.053 -0.17207,0.053 -0.22509,0 -0.1125,-0.1126 0.11259,-0.5627 0,-0.6753 -0.0525,-0.053 -0.17197,0.053 -0.225,0 -0.01,-0.01 0,-0.8176 0,-0.9003 0,-0.075 0,-0.15 0,-0.2251 0,-0.075 0.0525,-0.1719 0,-0.2251 -0.0535,-0.053 -0.17206,0.053 -0.22509,0 -0.0694,-0.069 0.0694,-1.0555 0,-1.1253 -0.0535,-0.053 -0.17206,0.053 -0.22509,0 -0.0456,-0.046 0.0446,-0.586 0,-0.6752 -0.0476,-0.095 -0.17761,-0.1301 -0.22509,-0.2251 -0.01,-0.019 -0.01,-0.881 0,-0.9002 0.0476,-0.095 0.17761,-0.1302 0.22509,-0.2251 0.0704,-0.1415 -0.0704,-0.7589 0,-0.9003 0.27812,-0.5562 0.22509,0.077 0.22509,-0.4501 0,-0.054 -0.01,-0.668 0,-0.6753 0.0525,-0.053 0.17197,0.053 0.22509,0 0.1125,-0.1125 -0.11259,-0.5626 0,-0.6751 0.0525,-0.053 0.17197,0.053 0.225,0 0.10615,-0.1062 -0.0674,-0.316 0,-0.4502 0.74653,-0.7465 -0.10606,0.2122 0.22509,-0.4501 0.0476,-0.095 0.17761,-0.1302 0.22509,-0.2251 0.0337,-0.067 -0.0525,-0.1721 0,-0.2251 0.0525,-0.053 0.17196,0.053 0.22509,0 0.10605,-0.1061 -0.10615,-0.344 0,-0.4502 0.0525,-0.053 0.17197,0.053 0.22499,0 0.10615,-0.106 -0.10605,-0.344 0,-0.4501 0.0535,-0.053 0.17207,0.053 0.22509,0 0.0535,-0.053 -0.0525,-0.172 0,-0.225 0.0535,-0.053 0.17207,0.053 0.22509,0 0.0525,-0.053 -0.0525,-0.1721 0,-0.2251 0.0525,-0.053 0.17207,0.053 0.2251,0 0.0525,-0.053 -0.0525,-0.172 0,-0.2251 0.0525,-0.053 0.17206,0.053 0.22509,0 0.0525,-0.053 -0.0525,-0.172 0,-0.225 0.10605,-0.1062 0.34403,0.106 0.45008,0 0.0525,-0.053 -0.0525,-0.1721 0,-0.2251 0.0525,-0.053 0.15799,0.034 0.22509,0 0.0951,-0.048 0.13014,-0.1776 0.22509,-0.2251 0.0674,-0.034 0.15006,0 0.22509,0 0.0753,0 0.15007,0 0.225,0 0.37515,0 0.7503,0 1.12535,0 0.45019,0 0.90037,0 1.35045,0 0.0753,0 0.17207,-0.053 0.22509,0 0.0525,0.053 -0.0525,0.1721 0,0.2251 0.0545,0.055 0.84615,-0.054 0.90027,0 0.0525,0.053 -0.0525,0.172 0,0.2251 0.0615,0.061 0.77816,-0.062 0.90027,0 0.0951,0.048 0.13023,0.1776 0.22509,0.225 0.1342,0.067 0.34403,-0.1061 0.45018,0 0.0525,0.053 -0.0535,0.172 0,0.2251 0.0525,0.053 0.17197,-0.053 0.22499,0 0.0535,0.053 -0.0525,0.172 0,0.2251 0.0535,0.053 0.17207,-0.053 0.22509,0 0.0535,0.053 -0.0525,0.172 0,0.225 0.0535,0.053 0.15799,-0.034 0.2251,0 0.0951,0.048 0.13013,0.1777 0.22509,0.2251 0.0674,0.034 0.17206,-0.053 0.22509,0 0.0525,0.053 -0.0337,0.1579 0,0.225 0.0297,0.059 0.61541,0.6454 0.67517,0.6753 0.0674,0.034 0.17207,-0.053 0.22509,0 0.10606,0.1061 -0.10605,0.344 0,0.4501 0.0525,0.053 0.17197,-0.053 0.2251,0 0.0525,0.053 -0.0535,0.1721 0,0.2251 0.0525,0.053 0.17196,-0.053 0.22499,0 0.0535,0.053 -0.0337,0.158 0,0.2251 0.0476,0.095 0.17771,0.1301 0.22509,0.2251 0.0337,0.067 -0.0525,0.1719 0,0.2251 0.0535,0.053 0.17206,-0.053 0.22509,0 0.0525,0.053 -0.0337,0.1578 0,0.2249 0.0476,0.095 0.17762,0.1303 0.22509,0.2251 0.0902,0.1801 -0.0902,0.4952 0,0.6753 0.0476,0.095 0.17762,0.1301 0.22509,0.225 0.0347,0.068 0,0.5739 0,0.6753 0,0.4501 0,0.9002 0,1.3503 0,0.6003 0,1.2004 0,1.8007 0,0.1176 0.0297,0.8411 0,0.9002 -0.0476,0.095 -0.17761,0.1302 -0.22509,0.2251 -0.0446,0.089 0.0456,0.6292 0,0.6752 -0.0525,0.053 -0.17206,-0.053 -0.22509,0 -0.10605,0.1061 0.0674,0.316 0,0.4502 -0.0476,0.095 -0.17761,0.1301 -0.22509,0.2251 -0.0674,0.1342 0.10615,0.344 0,0.45 -0.0525,0.054 -0.17197,-0.053 -0.22509,0 -0.10606,0.1062 0.10615,0.3441 0,0.4502 -0.0525,0.053 -0.17197,-0.053 -0.22499,0 -0.0535,0.053 0.0337,0.158 0,0.2251 -0.0952,0.1897 -0.35533,0.2603 -0.45019,0.4501 -0.0337,0.067 0.0525,0.1721 0,0.2251 -0.0535,0.053 -0.17206,-0.053 -0.22509,0 -0.0525,0.053 0,0.1501 0,0.2251 -0.0753,0 -0.17196,-0.053 -0.22499,0 -0.0535,0.053 0.0337,0.158 0,0.2251 -0.0476,0.095 -0.15006,0.1499 -0.22509,0.225 -0.0753,0.075 -0.13024,0.1776 -0.22509,0.2251 -0.0674,0.034 -0.17207,-0.053 -0.22509,0 -0.0525,0.053 0.0525,0.172 0,0.2251 -0.0525,0.053 -0.17197,-0.053 -0.2251,0 -0.0525,0.053 0.0535,0.1719 0,0.225 -0.0525,0.053 -0.15006,0 -0.22509,0 0,0.075 0.0337,0.158 0,0.2251 -0.0476,0.095 -0.14996,0.15 -0.22499,0.225 -0.0753,0.075 -0.13024,0.1776 -0.22509,0.2251 -0.0674,0.034 -0.17207,-0.053 -0.22509,0 -0.0525,0.053 0.0525,0.1721 0,0.2251 -0.10606,0.1061 -0.34403,-0.1061 -0.45009,0 -0.0535,0.053 0.0525,0.172 0,0.2251 -0.0535,0.053 -0.17206,-0.053 -0.22509,0 -0.0535,0.053 0.0525,0.172 0,0.225 -0.10615,0.1061 -0.34403,-0.1061 -0.45018,0 -0.0525,0.053 0.0525,0.1721 0,0.2251 -0.0525,0.053 -0.15006,0 -0.22509,0 -0.45008,0 -0.90027,0 -1.35035,0 -0.15888,0 -1.29306,0.035 -1.35045,0 -0.32163,-0.193 -0.60024,-0.4501 -0.90027,-0.6752 z"
         style="color:#000000;clip-rule:nonzero;display:inline;overflow:visible;visibility:visible;opacity:1;isolation:auto;mix-blend-mode:normal;color-interpolation:sRGB;color-interpolation-filters:linearRGB;solid-color:#000000;solid-opacity:1;fill:#000000;fill-opacity:1;fill-rule:evenodd;stroke:#000000;stroke-width:1.37046397;stroke-linecap:butt;stroke-linejoin:miter;stroke-miterlimit:4;stroke-dasharray:none;stroke-dashoffset:0;stroke-opacity:1;color-rendering:auto;image-rendering:auto;shape-rendering:auto;text-rendering:auto;enable-background:accumulate" />
      <path
         inkscape:connector-curvature="0"
         id="path4527"
         d="m 228.1049,1242.2426 c 0.0753,0.3001 0.22509,0.5909 0.22509,0.9002 0,0.075 -0.17196,-0.053 -0.22509,0 -0.0793,0.079 0.0773,0.97 0,1.1254 -0.0476,0.095 -0.17761,0.1302 -0.22499,0.2251 -0.0704,0.1414 0.0704,0.7588 0,0.9003 -0.0476,0.095 -0.17761,0.1302 -0.22509,0.225 -0.0704,0.1415 0.0704,0.7589 0,0.9003 -0.0476,0.095 -0.17762,0.1303 -0.22509,0.2251 -0.0664,0.1328 0.0515,0.5204 0,0.6752 -0.0525,0.1592 -0.17197,0.291 -0.22509,0.4502 -0.0238,0.071 0,0.15 0,0.2251 0,0.1738 0.0456,1.213 0,1.3504 -0.2586,0.7758 -0.225,0.1667 -0.225,0.6752 0,0.2029 0.0476,0.9837 0,1.1253 -0.0535,0.1592 -0.17206,0.291 -0.22509,0.4502 -0.0664,0.1997 0.0734,0.978 0,1.1254 -0.0476,0.095 -0.17761,0.1301 -0.22509,0.225 -0.0902,0.1801 0.0902,0.4952 0,0.6752 -0.0476,0.095 -0.17761,0.1302 -0.22509,0.225 -0.0337,0.067 0,0.1501 0,0.2251 0,0.075 0,0.1501 0,0.2251 0,0.3752 0,0.7502 0,1.1254 0,0.075 0.0337,0.158 0,0.2251 -0.0476,0.095 -0.17761,0.1301 -0.22509,0.2251 -0.0337,0.067 0,0.15 0,0.225 0,0.3751 0,0.7503 0,1.1253 0,0.075 0,0.1501 0,0.2251 0,0.075 0.0337,0.158 0,0.2251 -0.0476,0.095 -0.17762,0.1301 -0.22509,0.2251 -0.0337,0.067 0,0.15 0,0.2251 0,0.1018 0.0297,1.2904 0,1.3503 -0.0476,0.095 -0.17762,0.1303 -0.22499,0.2251 -0.0337,0.067 0,0.1501 0,0.2251 0,0.1501 0,0.3001 0,0.4502 0,0.6001 0,1.2003 0,1.8005 0,0.3752 0,0.7502 0,1.1254 0,0.075 0,0.15 0,0.2251 0,0.075 0.0337,0.1579 0,0.225 -0.0476,0.095 -0.17762,0.1302 -0.2251,0.2251 -0.0347,0.068 0,0.5738 0,0.6752 0,0.6002 0,1.2004 0,1.8006 0,0.2176 -0.0337,1.2836 0,1.3504 0.0476,0.095 0.17762,0.1301 0.2251,0.2251 0.0337,0.068 0,0.7449 0,0.9003 0,0.8252 0,1.6504 0,2.4758 0,1.4254 0,2.8508 0,4.2763 0,0.054 -0.01,0.6679 0,0.6752 0.0525,0.053 0.17196,-0.053 0.22499,0 0.01,0.01 0,0.6206 0,0.6752"
         style="color:#000000;clip-rule:nonzero;display:inline;overflow:visible;visibility:visible;opacity:1;isolation:auto;mix-blend-mode:normal;color-interpolation:sRGB;color-interpolation-filters:linearRGB;solid-color:#000000;solid-opacity:1;fill:none;fill-opacity:1;fill-rule:evenodd;stroke:#000000;stroke-width:1.37046397;stroke-linecap:butt;stroke-linejoin:miter;stroke-miterlimit:4;stroke-dasharray:none;stroke-dashoffset:0;stroke-opacity:1;color-rendering:auto;image-rendering:auto;shape-rendering:auto;text-rendering:auto;enable-background:accumulate" />
      <path
         inkscape:connector-curvature="0"
         id="path4529"
         d="m 229.90553,1274.6529 c 0.24323,0.973 0.2251,0.5909 0.2251,1.1253 0,0.075 -0.0337,0.1579 0,0.225 0.0476,0.095 0.17761,0.1302 0.22499,0.2251 0.0347,0.068 0,0.5739 0,0.6753 0,0.6001 0,1.2004 0,1.8005 0,0.076 -0.0406,0.7785 0,0.9003 0.0535,0.1591 0.17206,0.291 0.22509,0.4501 0.0238,0.071 0,0.1501 0,0.2251 0,0.1796 -0.0446,0.9903 0,1.1254 0.0535,0.1591 0.17206,0.2909 0.22509,0.4501 0.0793,0.2391 -0.0793,0.6611 0,0.9002 0.0525,0.1592 0.17206,0.291 0.22509,0.4502 0.0496,0.1489 0,1.1294 0,1.3505 0,0.075 -0.0337,0.1579 0,0.2251 0.0476,0.095 0.19149,0.1244 0.22509,0.225 0.0486,0.1461 0,1.371 0,1.5755 0,0.075 0,0.1501 0,0.2251 0,0.075 -0.0337,0.1579 0,0.225 0.0476,0.095 0.17762,0.1302 0.225,0.2251 0.0297,0.059 0,0.7826 0,0.9002 0,0.1204 -0.0327,1.0611 0,1.1254 0.0476,0.095 0.17771,0.1302 0.22509,0.2251 0.0297,0.06 0,0.7826 0,0.9003 0,0.6002 0,1.2003 0,1.8006 0,0.9003 0,1.8005 0,2.7008 0,0.1566 -0.0406,1.044 0,1.1253 0.0476,0.095 0.17761,0.1303 0.22509,0.2251 0.0287,0.058 0,1.1909 0,1.3505 0,0.075 0,0.15 0,0.2251 0,0.075 -0.0337,0.1579 0,0.225 0.0476,0.095 0.17761,0.1302 0.22509,0.2251 0.0337,0.067 0,0.15 0,0.225 0,0.075 0,0.1501 0,0.2251 0,0.3752 0,0.7502 0,1.1254 0,0.075 0,0.1501 0,0.2251 0,0.075 -0.0337,0.1579 0,0.225 0.0476,0.095 0.17761,0.1302 0.22509,0.2251 0.0337,0.067 0,0.15 0,0.2251 0,0.075 0,0.15 0,0.2251 0,0.45 0,0.9002 0,1.3504 0,0.1013 -0.0347,0.6067 0,0.6752 0.0476,0.095 0.17762,0.1301 0.22509,0.2251 0.0714,0.1419 -0.0714,0.9833 0,1.1253 0.0476,0.095 0.17762,0.1302 0.22499,0.2251 0.0714,0.142 -0.0714,0.9833 0,1.1254 0.0476,0.095 0.17762,0.1301 0.2251,0.225 0.0902,0.1801 -0.0902,0.4952 0,0.6752 0.0476,0.095 0.17761,0.1302 0.22509,0.2251 0.0704,0.1415 -0.0704,0.7588 0,0.9003 0.0476,0.095 0.17761,0.1301 0.22509,0.225 0.0337,0.067 -0.0337,0.158 0,0.2251 0.0476,0.095 0.17761,0.1302 0.22499,0.2251 0.0337,0.067 -0.0337,0.158 0,0.2251 0.0476,0.095 0.17761,0.1301 0.22509,0.2251 0.0674,0.1342 -0.0674,0.3158 0,0.45 0.0476,0.095 0.17762,0.1303 0.22509,0.2251 0.0674,0.1342 -0.10605,0.3441 0,0.4502 0.0535,0.053 0.17207,-0.053 0.22509,0 0.0545,0.054 -0.0545,0.8461 0,0.9003 0.0525,0.053 0.17197,-0.053 0.2251,0 0.10605,0.106 -0.10616,0.344 0,0.4501 0.0525,0.053 0.17196,-0.053 0.22509,0 0.01,0.01 0,0.6206 0,0.6752 0,0.6002 0,1.2004 0,1.8006 0,0.1014 -0.0347,0.6067 0,0.6752 0.0476,0.095 0.17761,0.1302 0.22499,0.225 0.0297,0.059 0,0.7827 0,0.9004 0,0.6752 0,1.3504 0,2.0256 0,0.075 0,0.1501 0,0.2251 0,0.075 -0.0337,0.1579 0,0.225 0.0476,0.095 0.17761,0.1302 0.22509,0.2251 0.0347,0.068 0,0.5739 0,0.6752 0,0.075 0.0525,0.172 0,0.2251 -0.0525,0.053 -0.17206,-0.053 -0.22509,0 -0.0525,0.053 0,0.15 0,0.2251 0,0.5252 0,1.0503 0,1.5755 0,0.1061 0.01,1.1151 0,1.1254 -0.0525,0.053 -0.17197,-0.054 -0.22499,0 -0.10616,0.106 0.10605,0.344 0,0.45 -0.0535,0.053 -0.17207,-0.053 -0.22509,0 0,0.6003 0.0753,-0.075 -0.2251,0.2251 -0.10615,0.1061 0.10606,0.3441 0,0.4502 -0.10615,0.1061 -0.34403,-0.1061 -0.45018,0 -0.0525,0.053 0.0525,0.172 0,0.225 -0.0525,0.054 -0.17196,-0.052 -0.22509,0 -0.0525,0.054 0.0535,0.1721 0,0.2251 -0.46564,0.4656 0.0178,-0.7117 -0.45008,0.2251 0,0.6001 0.0753,-0.075 -0.22509,0.2251 -0.0525,0.053 0.0337,0.158 0,0.2251 -0.0476,0.095 -0.15007,0.1499 -0.2251,0.225 -0.0753,0.075 -0.13013,0.1776 -0.22499,0.2251 -0.0674,0.034 -0.17206,-0.053 -0.22509,0 -0.46574,0.4656 0.71155,-0.018 -0.22509,0.4501 -0.31043,0.1553 -0.2013,-0.2725 -0.45018,0.2251 -0.0337,0.067 0.0525,0.172 0,0.225 -0.0525,0.053 -0.17197,-0.053 -0.22509,0 -0.0525,0.053 0.0535,0.1721 0,0.2251 -0.0525,0.053 -0.17197,-0.053 -0.225,0 -0.0525,0.053 0.0535,0.1721 0,0.2251 -0.0525,0.053 -0.17206,-0.053 -0.22509,0 -0.0525,0.053 0.0525,0.172 0,0.2251 -0.0525,0.053 -0.17206,-0.053 -0.22509,0 -0.0525,0.053 0.0525,0.172 0,0.225 -0.0525,0.053 -0.15799,-0.034 -0.22509,0 -0.93664,0.4684 0.24065,-0.016 -0.22509,0.4502 -0.0525,0.053 -0.17197,-0.053 -0.22499,0 -0.0535,0.053 0.0525,0.172 0,0.2251 -0.0535,0.053 -0.17207,-0.053 -0.2251,0 0,0.6001 0.0753,-0.075 -0.22509,0.2251 -0.0535,0.053 0.0525,0.1719 0,0.2249 -0.0535,0.054 -0.17206,-0.053 -0.22509,0 -0.0525,0.054 0.0525,0.1721 0,0.2251 -0.0525,0.053 -0.17196,-0.053 -0.22499,0 -0.0535,0.053 0.0753,0.2251 0,0.2251 -0.0753,0 0,-0.15 0,-0.2251"
         style="color:#000000;clip-rule:nonzero;display:inline;overflow:visible;visibility:visible;opacity:1;isolation:auto;mix-blend-mode:normal;color-interpolation:sRGB;color-interpolation-filters:linearRGB;solid-color:#000000;solid-opacity:1;fill:none;fill-opacity:1;fill-rule:evenodd;stroke:#000000;stroke-width:1.37046397;stroke-linecap:butt;stroke-linejoin:miter;stroke-miterlimit:4;stroke-dasharray:none;stroke-dashoffset:0;stroke-opacity:1;color-rendering:auto;image-rendering:auto;shape-rendering:auto;text-rendering:auto;enable-background:accumulate" />
      <path
         inkscape:connector-curvature="0"
         id="path4531"
         d="m 220.67758,1275.328 c 0.15006,0.3001 0.38437,0.5713 0.45019,0.9003 0.0208,0.1041 -0.17762,0.1302 -0.2251,0.2251 -0.0674,0.1342 0.0674,0.316 0,0.4502 -0.0476,0.095 -0.17761,0.1301 -0.22509,0.225 -0.0674,0.1343 0.0674,0.3159 0,0.4501 -0.0476,0.095 -0.19149,0.1244 -0.22509,0.2251 -0.0476,0.1424 0,0.3002 0,0.4501 0,0.075 0.0337,0.158 0,0.2251 -0.0476,0.095 -0.19149,0.1244 -0.22499,0.2251 -0.0476,0.1423 0.0476,0.3078 0,0.4502 -0.0337,0.1006 -0.17771,0.1301 -0.22509,0.225 -0.0337,0.067 0.0238,0.1539 0,0.2251 -0.0525,0.1591 -0.17207,0.291 -0.22509,0.4501 -0.0625,0.1887 0.0743,0.7511 0,0.9003 -0.0476,0.095 -0.19149,0.1244 -0.22509,0.2251 -0.0476,0.1423 0.0476,0.3078 0,0.4501 -0.0337,0.1007 -0.1915,0.1245 -0.225,0.2251 -0.0476,0.1423 0,0.3001 0,0.4502 0,0.075 0.0337,0.158 0,0.2251 -0.0476,0.095 -0.19159,0.1243 -0.22509,0.2249 -0.0803,0.2392 0.0793,0.6612 0,0.9004 -0.0535,0.1591 -0.17206,0.2909 -0.22509,0.4501 -0.0674,0.2026 0.0674,0.4727 0,0.6753 -0.0525,0.159 -0.17206,0.2909 -0.22509,0.4501 -0.0238,0.071 0,0.15 0,0.225 0,0.1739 0.0456,1.2131 0,1.3505 -0.0525,0.1591 -0.17197,0.291 -0.22509,0.4501 -0.0238,0.071 0,0.15 0,0.2251 0,0.238 0.0386,1.4595 0,1.5755 -0.0337,0.1006 -0.17762,0.1301 -0.22509,0.225 -0.0734,0.1474 0.0664,0.9256 0,1.1254 -0.0525,0.1591 -0.17197,0.291 -0.22499,0.4501 -0.0605,0.1812 0.0714,0.7565 0,0.9003 -0.0476,0.095 -0.1916,0.1244 -0.2251,0.2251 -0.0476,0.1423 0,0.3001 0,0.4502 0,0.075 0.0337,0.1579 0,0.225 -0.0476,0.095 -0.17761,0.1302 -0.22509,0.2251 -0.0674,0.1342 0.0674,0.3159 0,0.4501 -0.0476,0.095 -0.17761,0.1302 -0.22509,0.2251 -0.0337,0.068 0,0.5738 0,0.6752 0,0.4502 0,0.9003 0,1.3505 0,0.1594 -0.0287,1.2921 0,1.3503 0.0476,0.095 0.17762,0.1302 0.22509,0.2251 0.0674,0.1342 -0.0674,0.316 0,0.4502 0.0476,0.095 0.19149,0.1244 0.22509,0.2251 0.0347,0.103 0,0.9997 0,1.1253 0,0.1256 0.0347,1.0223 0,1.1254 -0.0337,0.1006 -0.19149,0.1244 -0.22509,0.225 -0.0476,0.1424 0,0.3001 0,0.4502 0,0.4501 0,0.9002 0,1.3504 0,0.4501 0,0.9003 0,1.3505 0,0.225 -0.0714,0.4616 0,0.6751 0.0337,0.1007 0.19149,0.1244 0.22509,0.2251 0.0476,0.1424 0,0.3001 0,0.4501 0,0.3752 0,0.7503 0,1.1254 0,0.075 0,0.15 0,0.2251 0,0.075 -0.0337,0.158 0,0.2251 0.0476,0.095 0.17762,0.1301 0.2251,0.225 0.0287,0.058 0,1.1909 0,1.3504 0,0.075 -0.0337,0.158 0,0.2251 0.0476,0.095 0.17761,0.1302 0.22499,0.2251 0.0297,0.059 0,0.7826 0,0.9002 0,0.8254 0,1.6506 0,2.4758 0,0.1596 -0.0288,1.2923 0,1.3505 0.0476,0.095 0.17761,0.1301 0.22509,0.2251 0.0406,0.081 0,0.9687 0,1.1253 0,0.5252 0,1.0504 0,1.5755 0,0.1014 -0.0337,0.6067 0,0.6753 0.0476,0.095 0.17761,0.1301 0.22509,0.225 0.0297,0.059 0,0.7826 0,0.9003 0,0.075 0.0535,0.172 0,0.225 -0.0525,0.053 -0.15799,-0.034 -0.22509,0 -0.0952,0.048 -0.15006,0.1501 -0.22509,0.2251 -0.13232,0.1324 -0.796,0.8482 -0.90027,0.9003 -0.0674,0.034 -0.15789,-0.034 -0.22499,0 -0.0951,0.048 -0.15006,0.15 -0.22509,0.2251 -0.0753,0.075 -0.17762,0.1301 -0.22509,0.225 -0.0337,0.067 0.0525,0.172 0,0.2251 -0.0525,0.054 -0.17207,-0.053 -0.22509,0 -0.0525,0.054 0.0535,0.172 0,0.225 -0.0525,0.053 -0.158,-0.034 -0.2251,0 -0.0952,0.048 -0.13013,0.1777 -0.22499,0.2251 -0.0674,0.034 -0.15799,-0.034 -0.22509,0 -0.0951,0.048 -0.13024,0.1776 -0.22509,0.2251 -0.0674,0.034 -0.17207,-0.053 -0.22509,0 -0.0525,0.053 0.0337,0.158 0,0.2251 -0.0476,0.095 -0.15006,0.1501 -0.22509,0.2251 -0.0753,0.075 -0.13014,0.1776 -0.225,0.225 -0.0674,0.034 -0.17206,-0.053 -0.22509,0 -0.0535,0.053 0.0337,0.158 0,0.2251 -0.46842,0.9367 0.0159,-0.2406 -0.45018,0.2251 -0.0535,0.053 0.0525,0.172 0,0.2251 -0.0535,0.053 -0.15799,-0.034 -0.22509,0 -0.0952,0.048 -0.13014,0.1776 -0.22499,0.2251 -0.0674,0.034 -0.15799,-0.034 -0.22509,0 -0.0952,0.047 -0.13014,0.1776 -0.2251,0.2249 -0.0674,0.034 -0.15799,-0.034 -0.22509,0 -0.0951,0.048 -0.13014,0.1777 -0.22509,0.2251 -0.1342,0.067 -0.34403,-0.106 -0.45008,0 -0.0525,0.053 0.0525,0.1721 0,0.2251 -0.10615,0.1061 -0.34403,-0.106 -0.45018,0 -0.0525,0.053 0.0525,0.1721 0,0.2251 -0.0525,0.053 -0.17197,-0.053 -0.2251,0 -0.30002,0.3 0.37516,0.2251 -0.22499,0.2251 -0.0753,0 -0.15006,0 -0.22509,0 -0.0753,0 -0.17206,-0.053 -0.22509,0 -0.30012,0.3 0.37515,0.225 -0.22509,0.225 -0.0753,0 -0.22509,0.075 -0.22509,0 0,-0.075 0.15006,0 0.22509,0 0.0753,0 0.15006,0 0.22509,0"
         style="color:#000000;clip-rule:nonzero;display:inline;overflow:visible;visibility:visible;opacity:1;isolation:auto;mix-blend-mode:normal;color-interpolation:sRGB;color-interpolation-filters:linearRGB;solid-color:#000000;solid-opacity:1;fill:none;fill-opacity:1;fill-rule:evenodd;stroke:#000000;stroke-width:1.37046397;stroke-linecap:butt;stroke-linejoin:miter;stroke-miterlimit:4;stroke-dasharray:none;stroke-dashoffset:0;stroke-opacity:1;color-rendering:auto;image-rendering:auto;shape-rendering:auto;text-rendering:auto;enable-background:accumulate" />
      <path
         inkscape:connector-curvature="0"
         id="path4533"
         d="m 231.93116,1234.8153 c 0.60024,0 -0.0753,-0.075 0.22509,0.225 0.0525,0.053 0.22509,-0.075 0.22509,0 0,0.1061 -0.17761,0.1302 -0.22509,0.225 -0.0337,0.067 0.0525,0.1721 0,0.2251 -0.0525,0.054 -0.17207,-0.053 -0.22509,0 -0.0535,0.054 0.0525,0.1721 0,0.2251 -0.0535,0.053 -0.15006,0 -0.22509,0 -0.0753,0 -0.15789,0.034 -0.225,0 -0.0951,-0.048 -0.13023,-0.1776 -0.22509,-0.2251 -0.0674,-0.034 -0.15006,0 -0.22509,0 -0.60024,0 -1.20039,0 -1.80053,0 -0.11775,0 -0.84119,0.03 -0.90037,0 -0.0952,-0.047 -0.13013,-0.1776 -0.22499,-0.2251 -0.0674,-0.034 -0.15006,0 -0.22509,0 -0.0753,0 -0.15006,0 -0.22509,0 -0.37515,0 -0.75021,0 -1.12536,0 -0.15957,0 -1.29227,0.029 -1.35045,0 -0.0952,-0.048 -0.13014,-0.1776 -0.22499,-0.225 -0.0684,-0.035 -0.57388,0 -0.67527,0 -0.45009,0 -0.90027,0 -1.35045,0 -0.1013,0 -0.60669,0.035 -0.67518,0 -0.0951,-0.047 -0.13023,-0.1776 -0.22509,-0.225 -0.0674,-0.034 -0.15006,0 -0.22509,0 -0.0753,0 -0.14996,0 -0.22499,0 -0.45018,0 -0.90037,0 -1.35045,0 -0.0753,0 -0.15006,0 -0.22509,0 -0.0753,0 -0.15799,0.034 -0.22509,0 -0.0951,-0.048 -0.13014,-0.1777 -0.22509,-0.2251 -0.0595,-0.03 -0.78252,0 -0.90027,0 -0.82524,0 -1.65047,0 -2.47581,0 -0.0535,0 -0.84981,0.025 -0.90026,0 -0.0952,-0.048 -0.13014,-0.1776 -0.22509,-0.2251 -0.0813,-0.041 -0.96876,0 -1.12526,0 -0.90037,0 -1.80063,0 -2.7009,0 -0.0545,0 -0.66804,-0.01 -0.67527,0 -0.17593,0.1759 0.19585,0.3916 0.22509,0.4502 0.0337,0.067 -0.0525,0.1719 0,0.225 0.0535,0.053 0.17206,-0.052 0.22509,0 0.0525,0.053 -0.0525,0.172 0,0.225 0.0525,0.053 0.17206,-0.053 0.22509,0 0.0525,0.053 -0.0337,0.158 0,0.2251 0.135,0.2701 0.54018,0.4052 0.67518,0.6753 0.0337,0.067 -0.0525,0.172 0,0.225 0.0535,0.053 0.17206,-0.053 0.22509,0 0.0525,0.053 -0.0525,0.1721 0,0.2251 0.0525,0.053 0.17206,-0.053 0.22509,0 0.0525,0.053 -0.0337,0.158 0,0.2251 0.0476,0.095 0.17761,0.1301 0.22509,0.2251 0.0337,0.067 -0.0337,0.158 0,0.2251 0.0476,0.095 0.17761,0.1301 0.22499,0.225 0.0337,0.067 -0.0337,0.1579 0,0.225 0.0476,0.095 0.17772,0.1303 0.22509,0.2251 0.0337,0.067 -0.0525,0.1721 0,0.2251 0.0535,0.053 0.17207,-0.053 0.22509,0 0.0525,0.053 -0.0337,0.158 0,0.2251 0.0951,0.1897 0.35523,0.2603 0.45019,0.4501 0.0674,0.1342 -0.0674,0.316 0,0.4502 0.0476,0.095 0.17761,0.1301 0.22509,0.2251 0.0674,0.1342 -0.0674,0.3159 0,0.4501 0.0476,0.095 0.17761,0.1301 0.22499,0.2251 0.0337,0.067 -0.0337,0.1579 0,0.225 0.0951,0.1899 0.35523,0.2603 0.45018,0.4501 0.0674,0.1342 -0.10615,0.3441 0,0.4502 0.0525,0.053 0.17197,-0.053 0.22509,0 0.10606,0.1061 -0.0674,0.3159 0,0.4501 0.0476,0.095 0.17762,0.1302 0.225,0.2251 0.0337,0.067 -0.0525,0.1721 0,0.2251 0.0535,0.053 0.17206,-0.053 0.22509,0 0.0535,0.053 -0.0337,0.158 0,0.2251 0.0951,0.1898 0.35523,0.2603 0.45018,0.4501 0.0337,0.067 -0.0525,0.172 0,0.225 0.0535,0.053 0.17206,-0.053 0.22509,0 0.0525,0.053 -0.0337,0.158 0,0.2251 0.0952,0.1898 0.35523,0.2604 0.45009,0.4502 0.0337,0.067 -0.0337,0.1579 0,0.225 0.13509,0.2701 0.54017,0.4052 0.67527,0.6753 0.0337,0.067 -0.0535,0.1719 0,0.2251 0.0525,0.053 0.17196,-0.053 0.22509,0 0.0525,0.053 -0.0337,0.1579 0,0.225 0.0476,0.095 0.14996,0.15 0.22499,0.2251 0.0753,0.075 0.15006,0.15 0.22509,0.225 0.7742,0.7742 -0.56476,0.072 1.12536,1.1254 0.60015,0 1.20039,0 1.80053,0 0.1014,0 0.60679,-0.035 0.67528,0 0.0952,0.048 0.13014,0.1776 0.22499,0.2251 0.0595,0.03 0.78262,0 0.90036,0 0.11765,0 0.8411,0.03 0.90027,0 0.0952,-0.048 0.13014,-0.1776 0.22509,-0.2251 0.0684,-0.035 0.57378,0 0.67518,0 0.45018,0 0.90026,0 1.35045,0 0.0753,0 0.15006,0 0.22499,0 0.0753,0 0.17206,0.053 0.22509,0 0.0535,-0.053 -0.0525,-0.1721 0,-0.2251 0.0535,-0.053 0.15006,0 0.22509,0 0.0753,0 0.15006,0 0.22509,0 0.60025,0 1.20039,0 1.80053,0 1.50051,0 3.00102,0 4.50143,0 0.60025,0 1.20039,0 1.80064,0 0.0753,0 0.15006,0 0.22509,0 0.0753,0 0.17196,0.053 0.22499,0 0.0525,-0.053 -0.0525,-0.1719 0,-0.2251 0.26523,-0.2652 1.18978,1.0611 1.12536,0 0.30012,-0.075 0.62363,-0.087 0.90036,-0.225 0.0674,-0.034 -0.0535,-0.172 0,-0.2251 0.0525,-0.053 0.17197,0.053 0.22499,0 0.0525,-0.053 -0.0337,-0.1579 0,-0.2251 0.0951,-0.1898 0.35523,-0.2603 0.45019,-0.4501 0.0337,-0.067 -0.0337,-0.1579 0,-0.225 0.0951,-0.1898 0.35523,-0.2604 0.45008,-0.4502 0.0337,-0.067 -0.0525,-0.1721 0,-0.2251 0.0535,-0.053 0.17206,0.053 0.22509,0 0.0535,-0.053 -0.0337,-0.158 0,-0.2251 0.0476,-0.095 0.17762,-0.1301 0.22509,-0.225 0.0674,-0.1342 -0.0674,-0.316 0,-0.4502 0.0951,-0.1898 0.35523,-0.2603 0.45018,-0.4501 0.0615,-0.1221 -0.0614,-0.8387 0,-0.9003 0.0525,-0.053 0.17197,0.053 0.225,0 0.10615,-0.1061 -0.0674,-0.3159 0,-0.4501 0.0476,-0.095 0.17771,-0.1302 0.22509,-0.2251 0.0337,-0.067 -0.0525,-0.1721 0,-0.2251 0.0525,-0.053 0.17206,0.053 0.22509,0 0.0456,-0.046 -0.0446,-0.586 0,-0.6752 0.0476,-0.095 0.17761,-0.1302 0.22509,-0.225 0.0446,-0.089 -0.0466,-0.6292 0,-0.6752 0.0525,-0.053 0.17197,0.053 0.22509,0 0.10606,-0.1062 -0.0674,-0.316 0,-0.4502 0.0476,-0.095 0.17762,-0.1301 0.22499,-0.2251 0.0337,-0.067 -0.0337,-0.158 0,-0.2251 0.0476,-0.095 0.17772,-0.1301 0.2251,-0.225 0.0674,-0.1342 -0.10606,-0.3441 0,-0.4502 0.0535,-0.053 0.17206,0.053 0.22509,0 0.11249,-0.1125 -0.1125,-0.5626 0,-0.6751 0.30012,-0.3002 0.22509,0.375 0.22509,-0.2251 0,-0.5279 -0.0525,0.106 0.22509,-0.4502 0.0674,-0.1342 -0.0674,-0.3159 0,-0.4501 0.0476,-0.095 0.17761,-0.1302 0.22499,-0.2251 0.0674,-0.1342 -0.10605,-0.344 0,-0.4502 0.0535,-0.053 0.17207,0.054 0.22509,0 0.0525,-0.053 0,-0.15 0,-0.2251 0,-0.054 0.01,-0.6679 0,-0.6751 -0.10605,-0.1061 -0.34403,0.1061 -0.45008,0 -0.0535,-0.053 0.0525,-0.1721 0,-0.2251 -0.0466,-0.046 -0.58597,0.045 -0.67527,0 -0.0952,-0.048 -0.13014,-0.1776 -0.2251,-0.2251 -0.14143,-0.07 -0.75872,0.07 -0.90026,0 -0.0952,-0.048 -0.13014,-0.1776 -0.22509,-0.225 -0.14144,-0.07 -0.75883,0.07 -0.90027,0 -0.0952,-0.048 -0.13014,-0.1776 -0.22509,-0.2251 -0.14144,-0.07 -0.75873,0.07 -0.90027,0 -0.0952,-0.048 -0.13014,-0.1776 -0.22499,-0.2251 -0.18009,-0.09 -0.49518,0.09 -0.67527,0 -0.0952,-0.048 -0.13014,-0.1776 -0.22509,-0.2251 -0.15542,-0.077 -1.04637,0.079 -1.12536,0 -0.0525,-0.053 0.0535,-0.1719 0,-0.2251 -0.0545,-0.054 -0.84615,0.054 -0.90027,0 -0.0525,-0.053 0.0535,-0.1719 0,-0.225 -0.0525,-0.053 -0.15006,0 -0.22509,0 -0.10605,0 -1.11515,0.01 -1.12536,0 -0.30002,-0.3001 0.37516,-0.2251 -0.22499,-0.2251 -0.0545,0 -0.66804,0.01 -0.67527,0 -0.0535,-0.053 0.0525,-0.172 0,-0.225 -0.0615,-0.062 -0.77816,0.061 -0.90027,0 -0.0951,-0.048 -0.13014,-0.1777 -0.22509,-0.2251 -0.15541,-0.077 -1.04636,0.079 -1.12536,0 -0.30002,-0.3001 0.37516,-0.2251 -0.22509,-0.2251 -0.15948,0 -1.29217,0.029 -1.35035,0 -0.0951,-0.048 -0.11904,-0.225 -0.22509,-0.225 -0.0753,0 0.0525,0.1719 0,0.225 -0.0198,0.02 -0.86944,0 -0.22509,0"
         style="color:#000000;clip-rule:nonzero;display:inline;overflow:visible;visibility:visible;opacity:1;isolation:auto;mix-blend-mode:normal;color-interpolation:sRGB;color-interpolation-filters:linearRGB;solid-color:#000000;solid-opacity:1;fill:none;fill-opacity:1;fill-rule:evenodd;stroke:#000000;stroke-width:1.37046397;stroke-linecap:butt;stroke-linejoin:miter;stroke-miterlimit:4;stroke-dasharray:none;stroke-dashoffset:0;stroke-opacity:1;color-rendering:auto;image-rendering:auto;shape-rendering:auto;text-rendering:auto;enable-background:accumulate" />
      <path
         inkscape:connector-curvature="0"
         id="path4539"
         d="m 307.55215,1275.7782 c -1.76128,-0.2621 -0.16443,0.8396 -0.45018,1.1254 -0.0525,0.053 -0.15789,-0.034 -0.22499,0 -0.18981,0.095 -0.26038,0.3552 -0.45019,0.4501 -0.0674,0.034 -0.17196,-0.053 -0.22509,0 -0.0525,0.053 0.0535,0.172 0,0.225 -0.0525,0.053 -0.17196,-0.053 -0.22499,0 -0.0535,0.053 0.0525,0.1721 0,0.2251 -0.10615,0.1061 -0.34413,-0.1061 -0.45018,0 -0.0525,0.053 0.0525,0.172 0,0.2251 -0.10616,0.1061 -0.34403,-0.1061 -0.45019,0 -0.0525,0.053 0.0535,0.172 0,0.225 -0.10605,0.1062 -0.34403,-0.106 -0.45008,0 -0.0535,0.053 0.0535,0.1721 0,0.2251 -0.10615,0.1062 -0.34403,-0.106 -0.45018,0 -0.0535,0.053 0.0525,0.1721 0,0.2251 -0.0535,0.053 -0.17197,-0.053 -0.22509,0 -0.0525,0.053 0.0535,0.1721 0,0.2251 -0.0525,0.053 -0.17197,-0.053 -0.22499,0 -0.0535,0.053 0.0525,0.172 0,0.2251 -0.10616,0.106 -0.34413,-0.1062 -0.45019,0 -0.0525,0.053 0.0525,0.1719 0,0.225 -0.10615,0.1061 -0.34403,-0.1061 -0.45018,0 -0.0525,0.053 0.0535,0.172 0,0.2251 -0.01,0.01 -1.0192,0 -1.12536,0 -0.0753,0 -0.17196,0.053 -0.22499,0 -0.0535,-0.053 0.0525,-0.172 0,-0.2251 -0.10615,-0.1061 -0.34413,0.1061 -0.45018,0 -0.0525,-0.053 0.0337,-0.1579 0,-0.225 -0.0476,-0.095 -0.17762,-0.1303 -0.22509,-0.2251 -0.0674,-0.1342 0.10615,-0.344 0,-0.4502 -0.0525,-0.053 -0.17197,0.053 -0.22509,0 -0.0525,-0.053 0.0535,-0.172 0,-0.2251 -0.0525,-0.053 -0.17197,0.053 -0.225,0 -0.0535,-0.053 0.0337,-0.1579 0,-0.225 -0.0476,-0.095 -0.17761,-0.1302 -0.22509,-0.2251 -0.0446,-0.089 0.0456,-0.6292 0,-0.6752 -0.0525,-0.053 -0.17206,0.053 -0.22509,0 -0.10605,-0.1061 0.10605,-0.3441 0,-0.4501 -0.0525,-0.053 -0.17206,0.053 -0.22509,0 -0.10605,-0.1062 0.10615,-0.3441 0,-0.4502 -0.0525,-0.053 -0.17197,0.053 -0.22509,0 -0.1125,-0.1125 0.11259,-0.5627 0,-0.6752 -0.0525,-0.053 -0.17197,0.053 -0.22499,0 -0.1126,-0.1126 0.11249,-0.5627 0,-0.6752 -0.0535,-0.053 -0.17207,0.053 -0.2251,0 -0.0545,-0.054 0.0545,-0.8461 0,-0.9003 -0.0525,-0.053 -0.17206,0.053 -0.22509,0 -0.0545,-0.054 0.0545,-0.8461 0,-0.9003 -0.0525,-0.053 -0.17206,0.053 -0.22509,0 -0.0614,-0.061 0.0615,-0.7781 0,-0.9003 -0.0476,-0.095 -0.17761,-0.1301 -0.22509,-0.225 -0.0902,-0.18 0.0902,-0.4952 0,-0.6752 -0.0476,-0.095 -0.17761,-0.1303 -0.22499,-0.2251 -0.0337,-0.067 0,-0.1501 0,-0.2251 0,-0.075 0,-0.1501 0,-0.2251 0,-0.4501 0,-0.9003 0,-1.3503 0,-0.075 0,-0.1501 0,-0.2251 0,-0.075 -0.0535,-0.1721 0,-0.2251 0.0525,-0.053 0.17196,0.053 0.22499,0 0.10615,-0.1061 -0.10605,-0.3441 0,-0.4502 0.0535,-0.053 0.17206,0.053 0.22509,0 0.0525,-0.053 -0.0525,-0.172 0,-0.225 0.0525,-0.053 0.17207,0.053 0.22509,0 0.10616,-0.1062 -0.10605,-0.3441 0,-0.4502 0.0525,-0.053 0.17207,0.053 0.22509,0 0.10606,-0.106 -0.10615,-0.344 0,-0.4502 0.0525,-0.053 0.17197,0.053 0.2251,0 0.0525,-0.053 -0.0337,-0.1579 0,-0.225 0.0476,-0.095 0.17761,-0.1302 0.22499,-0.2251 0.0337,-0.067 -0.0525,-0.172 0,-0.225 0.0535,-0.054 0.17206,0.052 0.22509,0 0.10615,-0.1061 -0.10605,-0.3441 0,-0.4502 0.0525,-0.053 0.17206,0.052 0.22509,0 0.0525,-0.053 -0.0337,-0.1579 0,-0.225 0.0476,-0.095 0.17762,-0.1303 0.22509,-0.2251 0.0337,-0.067 -0.0337,-0.158 0,-0.2251 0.46832,-0.9366 -0.0159,0.2407 0.45009,-0.2251 0.10615,-0.106 -0.10606,-0.344 0,-0.4501 0.0535,-0.053 0.17206,0.053 0.22509,0 0.0525,-0.053 -0.0525,-0.172 0,-0.2251 0.0525,-0.053 0.17206,0.053 0.22509,0 0.0525,-0.053 -0.0525,-0.172 0,-0.2251 0.11249,-0.1125 0.56268,0.1125 0.67517,0 0.0535,-0.053 -0.0525,-0.1719 0,-0.225 0.10616,-0.1061 0.31598,0.067 0.45019,0 0.0951,-0.048 0.13013,-0.1777 0.22509,-0.2251 0.0892,-0.045 0.62918,0.046 0.67517,0 0.0525,-0.053 -0.0525,-0.172 0,-0.225 0.0614,-0.062 0.77816,0.061 0.90027,0 0.0951,-0.048 0.13024,-0.1776 0.22509,-0.2251 0.0674,-0.034 0.15006,0 0.22509,0 0.0753,0 0.15006,0 0.22509,0 0.45008,0 0.90027,0 1.35045,0 0.0753,0 0.17197,-0.053 0.22499,0 0.0535,0.053 -0.0525,0.1719 0,0.2251 0.0535,0.053 0.15799,-0.034 0.22509,0 0.0951,0.048 0.13014,0.1776 0.22509,0.225 0.0674,0.034 0.17197,-0.053 0.2251,0 0.0535,0.053 -0.0535,0.172 0,0.2251 0.0535,0.053 0.15789,-0.034 0.22499,0 0.0951,0.048 0.13024,0.1776 0.22509,0.225 0.0674,0.034 0.17206,-0.053 0.22509,0 0.0525,0.053 -0.0535,0.1721 0,0.2251 0.0525,0.053 0.17203,-0.053 0.22508,0 0.053,0.053 -0.053,0.172 0,0.2251 0.053,0.053 0.17203,-0.053 0.22507,0 0.053,0.053 -0.053,0.172 0,0.225 0.053,0.053 0.17202,-0.053 0.22508,0 0.053,0.053 -0.053,0.1721 0,0.2251 0.053,0.053 0.17201,-0.053 0.22507,0 0.053,0.053 -0.0336,0.158 0,0.2251 0.0475,0.095 0.17761,0.1301 0.22507,0.2251 0.0335,0.067 -0.0336,0.158 0,0.2251 0.0475,0.095 0.17761,0.1301 0.22506,0.225 0.0446,0.089 -0.046,0.6293 0,0.6752 0.053,0.053 0.17202,-0.053 0.22508,0 0.053,0.053 0,0.1501 0,0.2251 0,0.3751 0,0.7502 0,1.1254 0,0.075 -0.053,0.172 0,0.225 0.053,0.053 0.17202,-0.053 0.22507,0 0.007,0.01 0,0.6207 0,0.6753 0,0.8252 0,1.6504 0,2.4758 0,0.1565 0.0407,1.0439 0,1.1253 -0.0475,0.095 -0.17762,0.1302 -0.22507,0.225 -0.0296,0.06 0,0.7826 0,0.9004 0,0.075 0,0.1499 0,0.225 0,0.075 0.053,0.172 0,0.2251 -0.053,0.053 -0.17202,-0.053 -0.22508,0 -0.11253,0.1126 0.11255,0.5626 0,0.6752 -0.053,0.053 -0.17202,-0.053 -0.22506,0 -0.1061,0.1061 0.10609,0.3441 0,0.4501 -0.053,0.053 -0.17203,-0.053 -0.22507,0 -0.053,0.053 0,0.1501 0,0.2251 -0.30011,0.075 -0.6002,0.1501 -0.9003,0.2251 z"
         style="color:#000000;clip-rule:nonzero;display:inline;overflow:visible;visibility:visible;opacity:1;isolation:auto;mix-blend-mode:normal;color-interpolation:sRGB;color-interpolation-filters:linearRGB;solid-color:#000000;solid-opacity:1;fill:#000000;fill-opacity:1;fill-rule:evenodd;stroke:#000000;stroke-width:1.37046397;stroke-linecap:butt;stroke-linejoin:miter;stroke-miterlimit:4;stroke-dasharray:none;stroke-dashoffset:0;stroke-opacity:1;color-rendering:auto;image-rendering:auto;shape-rendering:auto;text-rendering:auto;enable-background:accumulate" />
      <path
         inkscape:connector-curvature="0"
         id="path4541"
         d="m 314.75443,1284.1058 c -0.56472,-0.2461 -1.01114,-0.2251 -1.57549,-0.2251 -0.075,0 -0.17203,0.053 -0.22507,0 -0.053,-0.053 0.053,-0.172 0,-0.225 -0.0616,-0.061 -0.77819,0.062 -0.90029,0 -0.0949,-0.048 -0.13018,-0.1777 -0.22507,-0.2251 -0.14147,-0.07 -0.75882,0.07 -0.90029,0 -0.0949,-0.048 -0.12441,-0.1916 -0.22507,-0.2251 -0.10294,-0.035 -0.80013,0.051 -0.90028,0 -0.0949,-0.048 -0.13017,-0.1776 -0.22507,-0.2251 -0.14199,-0.071 -0.98336,0.071 -1.12535,0 -0.095,-0.047 -0.13018,-0.1776 -0.22507,-0.2251 -0.0582,-0.029 -1.19093,0 -1.3504,0 -0.15661,0 -1.04399,0.041 -1.12536,0 -0.0951,-0.048 -0.13024,-0.1776 -0.22509,-0.2249 -0.13668,-0.068 -1.21377,0.068 -1.35045,0 -0.0951,-0.048 -0.13014,-0.1778 -0.22509,-0.2251 -0.0674,-0.034 -0.15006,0 -0.22499,0 -0.37516,0 -0.75031,0 -1.12536,0 -0.0753,0 -0.15006,0 -0.22509,0 -0.0753,0 -0.15799,0.034 -0.22509,0 -0.0952,-0.048 -0.13014,-0.1777 -0.2251,-0.2251 -0.0892,-0.045 -0.62918,0.046 -0.67517,0 -0.0535,-0.054 0.0525,-0.1721 0,-0.2251 -0.0793,-0.079 -0.96995,0.077 -1.12536,0 -0.0951,-0.048 -0.13024,-0.1776 -0.22509,-0.2251 -0.0585,-0.029 -1.19087,0 -1.35045,0"
         style="color:#000000;clip-rule:nonzero;display:inline;overflow:visible;visibility:visible;opacity:1;isolation:auto;mix-blend-mode:normal;color-interpolation:sRGB;color-interpolation-filters:linearRGB;solid-color:#000000;solid-opacity:1;fill:none;fill-opacity:1;fill-rule:evenodd;stroke:#000000;stroke-width:1.37046397;stroke-linecap:butt;stroke-linejoin:miter;stroke-miterlimit:4;stroke-dasharray:none;stroke-dashoffset:0;stroke-opacity:1;color-rendering:auto;image-rendering:auto;shape-rendering:auto;text-rendering:auto;enable-background:accumulate" />
      <path
         inkscape:connector-curvature="0"
         id="path4543"
         d="m 315.65471,1283.4306 c 2.26689,0.494 0.36589,-0.816 0.67522,-1.1253 0.053,-0.053 0.17202,0.053 0.22507,0 0.053,-0.053 -0.053,-0.1721 0,-0.2251 0.053,-0.054 0.17203,0.053 0.22507,0 0.053,-0.054 -0.053,-0.1721 0,-0.2251 0.053,-0.053 0.17203,0.053 0.22507,0 0.46569,-0.4657 -0.71162,0.018 0.22507,-0.4501 0.0671,-0.034 0.17203,0.053 0.22508,0 0.053,-0.053 -0.053,-0.1721 0,-0.2251 0.053,-0.053 0.17202,0.053 0.22507,0 0.46567,-0.4657 -0.71162,0.018 0.22507,-0.4502 0.31045,-0.1552 0.20132,0.2726 0.45014,-0.2251 0.0336,-0.067 -0.053,-0.1719 0,-0.225 0.46568,-0.4657 -0.0182,0.7116 0.45015,-0.2251 0.0336,-0.067 -0.0336,-0.1579 0,-0.225 0.0475,-0.095 0.17761,-0.1302 0.22507,-0.2251 0.0336,-0.067 -0.0336,-0.158 0,-0.2251 0.0475,-0.095 0.17761,-0.1302 0.22507,-0.225 0.0671,-0.1342 -0.0671,-0.316 0,-0.4502 0.0475,-0.095 0.17761,-0.1301 0.22507,-0.2251 0.0336,-0.067 -0.053,-0.172 0,-0.2251 0.053,-0.053 0.17201,0.053 0.22507,0 0.10609,-0.106 -0.0671,-0.3159 0,-0.4501 0.0475,-0.095 0.17762,-0.1301 0.22507,-0.2251 0.0446,-0.089 -0.046,-0.6291 0,-0.6751 0.053,-0.053 0.17202,0.053 0.22506,0 0.17595,-0.176 -0.19576,-0.3916 -0.22506,-0.4502 -0.0671,-0.1342 0.0671,-0.3159 0,-0.4502 -0.0475,-0.095 -0.17762,-0.1301 -0.22507,-0.225 -0.0671,-0.1342 0.0671,-0.316 0,-0.4502 -0.0475,-0.095 -0.17762,-0.1301 -0.22507,-0.2251 -0.0336,-0.067 0.053,-0.1719 0,-0.225 -0.053,-0.053 -0.17203,0.053 -0.22507,0 -0.053,-0.053 0.053,-0.172 0,-0.225 -0.053,-0.053 -0.17203,0.053 -0.22507,0 -0.053,-0.053 0.053,-0.1721 0,-0.2251 -0.053,-0.053 -0.17203,0.053 -0.22507,0 -0.053,-0.053 0.053,-0.1721 0,-0.2251 -0.053,-0.053 -0.17203,0.053 -0.22508,0 -0.053,-0.053 0.053,-0.172 0,-0.2251 -0.053,-0.053 -0.17202,0.053 -0.22507,0 -0.053,-0.053 0.053,-0.172 0,-0.225 -0.053,-0.053 -0.17202,0.053 -0.22507,0 -0.053,-0.053 0.053,-0.1721 0,-0.2251 -0.053,-0.053 -0.15797,0.034 -0.22507,0 -0.0949,-0.048 -0.13018,-0.1776 -0.22507,-0.2251 -0.1342,-0.067 -0.34404,0.1061 -0.45015,0 -0.053,-0.053 0.053,-0.1721 0,-0.2251 -0.1061,-0.106 -0.34403,0.1062 -0.45014,0 -0.053,-0.053 0.053,-0.172 0,-0.2251 -0.10609,-0.106 -0.34404,0.1062 -0.45014,0 -0.053,-0.053 0.053,-0.1719 0,-0.225 -0.053,-0.053 -0.15797,0.034 -0.22507,0 -0.0949,-0.047 -0.13017,-0.1777 -0.22507,-0.2251 -0.0671,-0.034 -0.15796,0.034 -0.22508,0 -0.0949,-0.048 -0.13016,-0.1776 -0.22507,-0.2251 -0.0671,-0.034 -0.15004,0 -0.22507,0 -0.075,-0.075 -0.13017,-0.1776 -0.22507,-0.225 -0.0671,-0.034 -0.17201,0.053 -0.22507,0 -0.053,-0.053 0.053,-0.172 0,-0.2251 -0.053,-0.054 -0.17202,0.053 -0.22507,0 -0.053,-0.054 0.053,-0.172 0,-0.225 -0.1061,-0.1062 -0.34404,0.106 -0.45014,0 -0.053,-0.053 0.053,-0.1721 0,-0.2251 -0.053,-0.053 -0.15797,0.034 -0.22507,0 -0.0949,-0.048 -0.13018,-0.1776 -0.22507,-0.2251 -0.0671,-0.034 -0.17202,0.053 -0.22507,0 -0.053,-0.053 0.053,-0.1721 0,-0.2251 -0.053,-0.053 -0.17203,0.053 -0.22507,0 -0.053,-0.053 0.053,-0.172 0,-0.2251 -0.053,-0.053 -0.15797,0.034 -0.22507,0 -0.0949,-0.048 -0.13018,-0.1776 -0.22507,-0.225 -0.0671,-0.034 -0.17203,0.053 -0.22508,0 -0.053,-0.053 0.053,-0.1721 0,-0.2251 -0.053,-0.053 -0.15797,0.034 -0.22507,0 -0.0949,-0.048 -0.13018,-0.1776 -0.22507,-0.2251 -0.1342,-0.067 -0.34404,0.1061 -0.45014,0 -0.053,-0.053 0.053,-0.172 0,-0.2251 -0.053,-0.053 -0.15797,0.034 -0.22507,0 -0.0949,-0.047 -0.13017,-0.1776 -0.22508,-0.2251 -0.0671,-0.034 -0.15797,0.034 -0.22507,0 -0.0949,-0.048 -0.13017,-0.1776 -0.22507,-0.2249 -0.0892,-0.045 -0.62919,0.046 -0.67521,0 -0.053,-0.053 0.053,-0.1721 0,-0.2251 -0.11254,-0.1126 -0.56268,0.1125 -0.67521,0 -0.053,-0.053 0.053,-0.1721 0,-0.2251 -0.1061,-0.1061 -0.34405,0.106 -0.45015,0 -0.30009,-0.3001 0.37512,-0.2251 -0.22506,-0.2251 -0.0827,0 -0.89123,0.01 -0.90029,0 -0.053,-0.053 0.053,-0.172 0,-0.2251 -0.007,-0.01 -0.62065,0 -0.67526,0 -0.0753,0 -0.14996,0 -0.22499,0 -0.0753,0 -0.2251,-0.075 -0.2251,0 0,0.1061 0.15007,0.1501 0.2251,0.2251"
         style="color:#000000;clip-rule:nonzero;display:inline;overflow:visible;visibility:visible;opacity:1;isolation:auto;mix-blend-mode:normal;color-interpolation:sRGB;color-interpolation-filters:linearRGB;solid-color:#000000;solid-opacity:1;fill:none;fill-opacity:1;fill-rule:evenodd;stroke:#000000;stroke-width:1.37046397;stroke-linecap:butt;stroke-linejoin:miter;stroke-miterlimit:4;stroke-dasharray:none;stroke-dashoffset:0;stroke-opacity:1;color-rendering:auto;image-rendering:auto;shape-rendering:auto;text-rendering:auto;enable-background:accumulate" />
      <path
         inkscape:connector-curvature="0"
         id="path4545"
         d="m 297.87412,1281.405 c -0.30013,-0.075 -0.60025,-0.1501 -0.90027,-0.2251 -0.0753,-0.075 -0.13024,-0.1776 -0.22509,-0.2251 -0.1342,-0.067 -0.31598,0.067 -0.45018,0 -0.0951,-0.048 -0.13014,-0.1776 -0.22509,-0.2251 -0.0674,-0.034 -0.17197,0.053 -0.225,0 -0.0535,-0.053 0.0525,-0.1719 0,-0.2251 -0.0535,-0.053 -0.15799,0.034 -0.22509,0 -0.0951,-0.047 -0.13014,-0.1776 -0.22509,-0.225 -0.0674,-0.034 -0.15799,0.034 -0.22509,0 -0.18981,-0.095 -0.26028,-0.3553 -0.45008,-0.4501 -0.0674,-0.034 -0.15799,0.034 -0.2251,0 -0.0951,-0.048 -0.13013,-0.1777 -0.22509,-0.2251 -0.0674,-0.034 -0.17196,0.053 -0.22509,0 -0.0525,-0.053 0.0535,-0.172 0,-0.2251 -0.0525,-0.053 -0.17196,0.053 -0.22499,0 -0.0535,-0.053 0.0525,-0.172 0,-0.225 -0.0535,-0.053 -0.17206,0.053 -0.22509,0 -0.0525,-0.053 0.0337,-0.158 0,-0.2251 -0.46842,-0.9368 0.0159,0.2405 -0.45018,-0.2251 -0.0525,-0.053 0.0535,-0.1721 0,-0.2251 -0.0525,-0.053 -0.17197,0.053 -0.2251,0 -0.0525,-0.053 0.0535,-0.172 0,-0.2251 -0.0525,-0.053 -0.17196,0.053 -0.22499,0 -0.0535,-0.053 0.0525,-0.1719 0,-0.225 -0.0535,-0.053 -0.17206,0.053 -0.22509,0 -0.0525,-0.053 0.0337,-0.158 0,-0.2251 -0.13509,-0.2701 -0.54018,-0.4052 -0.67527,-0.6752 -0.0337,-0.067 0.0535,-0.172 0,-0.225 -0.0525,-0.053 -0.17197,0.053 -0.225,0 -0.10615,-0.1062 0.10606,-0.3441 0,-0.4502 -0.0535,-0.053 -0.17206,0.053 -0.22509,0 -0.0525,-0.053 0.0525,-0.172 0,-0.2251 -0.0525,-0.053 -0.17206,0.053 -0.22509,0 -0.0525,-0.053 0.0525,-0.172 0,-0.2251 -0.0525,-0.053 -0.17206,0.052 -0.22509,0 -0.0525,-0.053 0.0337,-0.1579 0,-0.225 -0.0476,-0.095 -0.17761,-0.1302 -0.22509,-0.2251 -0.0337,-0.067 0.0337,-0.158 0,-0.2251 -0.0476,-0.095 -0.17762,-0.1301 -0.22499,-0.2251 -0.0337,-0.067 0.0525,-0.1719 0,-0.225 -0.0535,-0.053 -0.17207,0.053 -0.22509,0 -0.0525,-0.053 0.0535,-0.172 0,-0.225 -0.0525,-0.053 -0.17207,0.053 -0.2251,0 -0.0525,-0.053 0.0525,-0.1721 0,-0.2251 -0.0525,-0.053 -0.17206,0.053 -0.22509,0 -0.10605,-0.1062 0.10616,-0.3441 0,-0.4502 -0.0535,-0.053 -0.17196,0.053 -0.22509,0 -0.0525,-0.053 0.0337,-0.1579 0,-0.225 -0.0476,-0.095 -0.17761,-0.1303 -0.22499,-0.2251 -0.0337,-0.067 0.0337,-0.158 0,-0.2251 -0.0476,-0.095 -0.17762,-0.1301 -0.22509,-0.2251 -0.0406,-0.081 0,-0.9687 0,-1.1253 0,-0.055 -0.01,-0.668 0,-0.6752 0.0535,-0.053 0.15799,0.034 0.22509,0 0.0951,-0.048 0.13014,-0.1776 0.22499,-0.2251 0.0674,-0.034 0.15799,0.034 0.22509,0 0.0951,-0.048 0.13024,-0.1776 0.22509,-0.2251 0.0674,-0.034 0.15799,0.034 0.2251,0 0.0952,-0.048 0.13013,-0.1776 0.22509,-0.2251 0.1342,-0.067 0.31588,0.067 0.45008,0 0.0951,-0.048 0.12439,-0.1915 0.22509,-0.225 0.2135,-0.071 0.45018,0 0.67518,0 0.52521,0 1.05032,0 1.57554,0 1.57554,0 3.15098,0 4.72652,0 0.60014,0 1.20039,0 1.80053,0 0.0753,0 0.17206,0.053 0.22509,0 0.0525,-0.053 -0.0525,-0.1721 0,-0.2251 0.0694,-0.069 1.05568,0.069 1.12536,0 0.0525,-0.053 -0.0535,-0.172 0,-0.2251 0.0525,-0.053 0.15006,0 0.22509,0 0.45008,0 0.90027,0 1.35035,0 0.11775,0 0.84109,0.03 0.90037,0 0.0951,-0.048 0.13013,-0.1776 0.22499,-0.2251 0.18009,-0.09 0.49518,0.09 0.67527,0 0.0951,-0.047 0.13014,-0.1776 0.22509,-0.2251 0.0119,-0.01 0.66338,-0.01 0.67518,0 0.0952,0.048 0.15006,0.1501 0.22509,0.2251"
         style="color:#000000;clip-rule:nonzero;display:inline;overflow:visible;visibility:visible;opacity:1;isolation:auto;mix-blend-mode:normal;color-interpolation:sRGB;color-interpolation-filters:linearRGB;solid-color:#000000;solid-opacity:1;fill:none;fill-opacity:1;fill-rule:evenodd;stroke:#000000;stroke-width:1.37046397;stroke-linecap:butt;stroke-linejoin:miter;stroke-miterlimit:4;stroke-dasharray:none;stroke-dashoffset:0;stroke-opacity:1;color-rendering:auto;image-rendering:auto;shape-rendering:auto;text-rendering:auto;enable-background:accumulate" />
      <path
         inkscape:connector-curvature="0"
         id="path4547"
         d="m 306.42679,1279.1543 c -0.24323,0.973 -0.22509,0.5909 -0.22509,1.1253 0,0.075 0.0535,0.172 0,0.225 -0.0525,0.053 -0.17196,-0.053 -0.22499,0 -0.01,0.01 0,1.0193 0,1.1254 0,0.6753 0,1.3504 0,2.0257 0,0.1177 0.0297,0.8411 0,0.9003 -0.0476,0.095 -0.17771,0.1301 -0.22509,0.2251 -0.0347,0.068 0,0.5737 0,0.6751 0,0.5252 0,1.0504 0,1.5755 0,0.6002 0,1.2004 0,1.8006 0,0.053 -0.0248,0.8498 0,0.9003 0.0476,0.095 0.19149,0.1244 0.22509,0.2251 0.0416,0.1245 0,1.1237 0,1.3504 0,0.2319 -0.0337,1.5091 0,1.5755 0.0476,0.095 0.17762,0.1302 0.22499,0.2251 0.0902,0.18 -0.0902,0.4951 0,0.6751 0.0476,0.095 0.17762,0.1303 0.22509,0.2251 0.0704,0.1415 -0.0704,0.7588 0,0.9003 0.0476,0.095 0.17762,0.1302 0.22509,0.2251 0.0704,0.1414 -0.0704,0.7588 0,0.9002 0.0476,0.095 0.17762,0.1303 0.2251,0.2251 0.0704,0.1415 -0.0704,0.7589 0,0.9003 0.0476,0.095 0.17761,0.1302 0.22499,0.2251 0.0674,0.1342 -0.0674,0.316 0,0.4502 0.0476,0.095 0.17771,0.1301 0.22509,0.225 0.0337,0.067 -0.0337,0.158 0,0.2251 0.0476,0.095 0.17761,0.1302 0.22509,0.225 0.0446,0.089 -0.0456,0.6292 0,0.6752 0.0525,0.053 0.17203,-0.053 0.22508,0 0.1061,0.1062 -0.0671,0.316 0,0.4502 0.0475,0.095 0.17763,0.1301 0.22507,0.2251 0.0671,0.1342 -0.0671,0.3159 0,0.4501 0.0475,0.095 0.17762,0.1302 0.22508,0.2251 0.09,0.1801 -0.09,0.4952 0,0.6752 0.0475,0.095 0.17761,0.1302 0.22507,0.225 0.0335,0.067 0,0.1501 0,0.2251 0,0.1501 -0.0475,0.3079 0,0.4502 0.0335,0.1006 0.17761,0.1302 0.22507,0.2251 0.0335,0.067 -0.0336,0.1579 0,0.225 0.0475,0.095 0.17761,0.1302 0.22506,0.2251 0.0708,0.1414 -0.0708,0.7588 0,0.9003 0.0475,0.095 0.17762,0.1302 0.22508,0.225 0.0708,0.1415 -0.0708,0.7589 0,0.9003 0.0475,0.095 0.17762,0.1302 0.22507,0.2251 0.0335,0.067 -0.0336,0.158 0,0.2251 0.0475,0.095 0.17762,0.1301 0.22507,0.2251 0.0335,0.067 0,0.15 0,0.2251 0,0.075 0,0.1499 0,0.225"
         style="color:#000000;clip-rule:nonzero;display:inline;overflow:visible;visibility:visible;opacity:1;isolation:auto;mix-blend-mode:normal;color-interpolation:sRGB;color-interpolation-filters:linearRGB;solid-color:#000000;solid-opacity:1;fill:none;fill-opacity:1;fill-rule:evenodd;stroke:#000000;stroke-width:1.37046397;stroke-linecap:butt;stroke-linejoin:miter;stroke-miterlimit:4;stroke-dasharray:none;stroke-dashoffset:0;stroke-opacity:1;color-rendering:auto;image-rendering:auto;shape-rendering:auto;text-rendering:auto;enable-background:accumulate" />
      <path
         inkscape:connector-curvature="0"
         id="path4549"
         d="m 315.20457,1306.3879 c 0.19956,-0.7658 -1.34122,-0.3331 -1.57549,-0.4502 -0.0949,-0.048 -0.13018,-0.1776 -0.22507,-0.225 -0.0582,-0.029 -1.1909,0 -1.35043,0 -0.1177,0 -0.8411,0.03 -0.90029,0 -0.0949,-0.048 -0.13016,-0.1777 -0.22507,-0.2251 -0.0814,-0.041 -0.9688,0 -1.12535,0 -0.075,0 -0.17202,-0.053 -0.22507,0 -0.053,0.053 0.053,0.172 0,0.2251 -0.053,0.053 -0.15005,0 -0.22507,0 -0.15655,0 -1.04396,-0.041 -1.12535,0 -0.095,0.048 -0.13018,0.1776 -0.22508,0.225 -0.13421,0.067 -0.344,-0.1061 -0.45015,0 -0.0535,0.053 0.0525,0.172 0,0.2251 -0.0456,0.046 -0.58597,-0.045 -0.67517,0 -0.0951,0.047 -0.15006,0.15 -0.2251,0.2251 -0.0753,0.075 -0.17761,0.1301 -0.22509,0.225 -0.20001,0.4002 0.12509,0.125 0.22509,0.2251 0.0456,0.046 -0.0446,0.586 0,0.6752 0.0476,0.095 0.17762,0.1301 0.2251,0.2251 0.0674,0.1342 -0.0674,0.3159 0,0.4501 0.0476,0.095 0.17761,0.1302 0.22499,0.2251 0.0337,0.067 -0.0337,0.158 0,0.2251 0.0476,0.095 0.17771,0.1301 0.22509,0.2251 0.0674,0.1342 -0.10605,0.344 0,0.45 0.0535,0.053 0.17206,-0.053 0.22509,0 0.0694,0.069 -0.0694,1.0557 0,1.1254 0.0525,0.053 0.17203,-0.053 0.22508,0 0.1061,0.1062 -0.0671,0.316 0,0.4502 0.0475,0.095 0.17763,0.1301 0.22507,0.2251 0.0611,0.1221 -0.0616,0.8386 0,0.9002 0.053,0.053 0.17202,-0.053 0.22508,0 0.10609,0.1061 -0.10611,0.3441 0,0.4501 0.053,0.053 0.17201,-0.053 0.22507,0 0.10609,0.1062 -0.0671,0.316 0,0.4502 0.0475,0.095 0.17761,0.1301 0.22507,0.2251 0.0446,0.089 -0.046,0.6292 0,0.6752 0.053,0.053 0.17201,-0.053 0.22506,0 0.046,0.046 -0.0446,0.5859 0,0.6752 0.0475,0.095 0.17762,0.1302 0.22508,0.225 0.0671,0.1342 -0.0671,0.316 0,0.4502 0.0475,0.095 0.17762,0.1302 0.22507,0.2251 0.0671,0.1342 -0.1061,0.344 0,0.4501 0.053,0.053 0.17202,-0.053 0.22507,0 0.079,0.079 -0.0777,0.9699 0,1.1254 0.0475,0.095 0.17762,0.1302 0.22507,0.225 0.09,0.1801 -0.09,0.4952 0,0.6753 0.0475,0.095 0.17762,0.1302 0.22507,0.225 0.0671,0.1342 -0.0671,0.316 0,0.4502 0.0475,0.095 0.17762,0.1301 0.22507,0.2251 0.0336,0.067 -0.0335,0.1579 0,0.225 0.0475,0.095 0.17762,0.1302 0.22507,0.2251 0.0336,0.067 -0.053,0.172 0,0.2251 0.053,0.053 0.17203,-0.053 0.22507,0 0.0542,0.054 -0.0541,0.8461 0,0.9002 0.053,0.053 0.17203,-0.053 0.22507,0 0.0616,0.062 -0.0611,0.7783 0,0.9003 0.0475,0.095 0.17763,0.1302 0.22507,0.2251 0.0611,0.1221 -0.0616,0.8387 0,0.9002 0.053,0.054 0.17203,-0.053 0.22508,0 0.046,0.047 -0.0446,0.586 0,0.6753 0.0475,0.095 0.17762,0.1302 0.22507,0.2251 0.0336,0.067 -0.0335,0.1579 0,0.225 0.0475,0.095 0.17762,0.1302 0.22507,0.2251 0.0291,0.059 0,1.1909 0,1.3504 0,0.055 0.007,0.668 0,0.6752 -0.053,0.053 -0.17203,-0.053 -0.22507,0 -0.10611,0.1062 0.0671,0.316 0,0.4502 -0.13505,0.2701 -0.54017,0.4051 -0.67522,0.6752 -0.0335,0.067 0.0336,0.158 0,0.2251 -0.0475,0.095 -0.15004,0.15 -0.22507,0.2251 -0.075,0.075 -0.13017,0.1776 -0.22507,0.2251 -0.0671,0.034 -0.17201,-0.054 -0.22507,0 -0.053,0.053 0.053,0.1719 0,0.2249 -0.053,0.054 -0.15004,0 -0.22507,0 0,0.075 0.053,0.1721 0,0.2251 -0.053,0.053 -0.17202,-0.053 -0.22507,0 -0.053,0.053 0.053,0.1721 0,0.2251 -0.053,0.053 -0.17202,-0.053 -0.22507,0 -0.053,0.053 0.053,0.1721 0,0.2251 -0.053,0.053 -0.15797,-0.034 -0.22507,0 -0.18979,0.095 -0.26035,0.3552 -0.45015,0.4501 -0.0671,0.034 -0.17202,-0.053 -0.22506,0 -0.053,0.053 0.053,0.1721 0,0.2251 -0.053,0.053 -0.17203,-0.052 -0.22507,0 -0.053,0.053 0.053,0.1721 0,0.2251 -0.053,0.053 -0.15797,-0.034 -0.22507,0 -0.095,0.048 -0.15006,0.15 -0.22508,0.2251 -0.075,0.075 -0.17762,0.1301 -0.22507,0.2251 -0.0336,0.067 0.053,0.1719 0,0.225 -0.053,0.053 -0.15798,-0.034 -0.22508,0 -0.0951,0.048 -0.13014,0.1777 -0.22509,0.225 -0.0674,0.034 -0.17197,-0.053 -0.22509,0 -0.0525,0.054 0.0535,0.1721 0,0.2251 -0.0525,0.053 -0.15789,-0.034 -0.22499,0 -0.0951,0.048 -0.15006,0.1501 -0.2251,0.2251 -0.0753,0.075 -0.15006,0.1501 -0.22509,0.2251"
         style="color:#000000;clip-rule:nonzero;display:inline;overflow:visible;visibility:visible;opacity:1;isolation:auto;mix-blend-mode:normal;color-interpolation:sRGB;color-interpolation-filters:linearRGB;solid-color:#000000;solid-opacity:1;fill:none;fill-opacity:1;fill-rule:evenodd;stroke:#000000;stroke-width:1.37046397;stroke-linecap:butt;stroke-linejoin:miter;stroke-miterlimit:4;stroke-dasharray:none;stroke-dashoffset:0;stroke-opacity:1;color-rendering:auto;image-rendering:auto;shape-rendering:auto;text-rendering:auto;enable-background:accumulate" />
      <path
         inkscape:connector-curvature="0"
         id="path4551"
         d="m 307.55215,1303.0118 c -0.30012,0 -0.60014,0 -0.90027,0 0,-0.075 0.0525,-0.1721 0,-0.2251 -0.01,-0.01 -1.0192,0 -1.12535,0 -1.80053,0 -3.60117,0 -5.4017,0 -0.60024,0 -1.20039,0 -1.80063,0 -0.1013,0 -0.60669,-0.035 -0.67517,0 -0.0952,0.048 -0.13014,0.1776 -0.2251,0.2251 -0.14193,0.071 -0.98332,-0.071 -1.12535,0 -0.0951,0.048 -0.13014,0.1776 -0.22509,0.2251 -0.1462,0.073 -0.98254,-0.071 -1.12526,0 -0.0952,0.047 -0.13024,0.1776 -0.22509,0.2251 -0.0892,0.045 -0.62919,-0.046 -0.67528,0 -0.0525,0.053 0.0535,0.1719 0,0.225 -0.0615,0.061 -0.77815,-0.061 -0.90026,0 -0.0952,0.048 -0.13014,0.1776 -0.2251,0.225 -0.1342,0.067 -0.31588,-0.067 -0.45008,0 -0.0951,0.048 -0.13024,0.1777 -0.22509,0.2251 -0.1342,0.067 -0.31598,-0.067 -0.45018,0 -0.0951,0.048 -0.13014,0.1777 -0.225,0.2251 -0.0813,0.041 -0.96885,0 -1.12535,0 -0.30012,0 -0.60025,0 -0.90037,0 -0.0753,0 -0.14996,0 -0.22499,0 -0.0753,0 -0.22509,-0.075 -0.22509,0 0,0.4336 0.45097,0 0.67517,0.4501 0.0337,0.067 -0.0535,0.1721 0,0.2251 0.0525,0.053 0.15799,-0.034 0.22509,0 0.0952,0.048 0.15007,0.1501 0.2251,0.2251 0.0753,0.075 0.17761,0.1301 0.22509,0.2251 0.0337,0.067 -0.0535,0.172 0,0.2251 0.0525,0.053 0.17196,-0.053 0.22499,0 0.10615,0.106 -0.0674,0.3159 0,0.4501 0.0476,0.095 0.17761,0.1301 0.22509,0.2251 0.0337,0.067 -0.0337,0.1579 0,0.225 0.0476,0.095 0.17762,0.1302 0.22509,0.2251 0.0337,0.067 -0.0337,0.1579 0,0.225 0.0476,0.095 0.17762,0.1303 0.22509,0.2251 0.0674,0.1342 -0.0674,0.316 0,0.4502 0.0476,0.095 0.17762,0.1301 0.22509,0.225 0.0704,0.1415 -0.0704,0.7588 0,0.9004 0.0476,0.095 0.17762,0.1301 0.225,0.225 0.0674,0.1343 -0.0674,0.3159 0,0.4501 0.0476,0.095 0.17761,0.1302 0.22509,0.2251 0.0674,0.1342 -0.10606,0.3441 0,0.4501 0.0535,0.053 0.17206,-0.053 0.22509,0 0.0525,0.053 -0.0337,0.158 0,0.2251 0.0476,0.095 0.17761,0.1302 0.22509,0.2251 0.0674,0.1342 -0.0674,0.316 0,0.4502 0.0476,0.095 0.17762,0.1301 0.22509,0.225 0.0337,0.067 -0.0337,0.158 0,0.2251 0.0476,0.095 0.17762,0.1302 0.22499,0.225 0.0337,0.067 -0.0525,0.1721 0,0.2251 0.0535,0.053 0.17207,-0.053 0.2251,0 0.10615,0.1061 -0.0674,0.3159 0,0.4501 0.0951,0.1898 0.35523,0.2604 0.45018,0.4502 0.0674,0.1342 -0.0674,0.316 0,0.4502 0.0476,0.095 0.17761,0.1301 0.22509,0.225 0.0337,0.067 -0.0535,0.172 0,0.2251 0.0525,0.053 0.17197,-0.053 0.22499,0 0.10615,0.1061 -0.0674,0.316 0,0.4502 0.0951,0.1898 0.35523,0.2602 0.45018,0.45 0.0337,0.067 -0.0337,0.158 0,0.2251 0.0476,0.095 0.17762,0.1303 0.2251,0.2251 0.0337,0.067 -0.0535,0.1721 0,0.2251 0.0525,0.053 0.17196,-0.053 0.22509,0 0.0525,0.053 -0.0337,0.158 0,0.2251 0.0476,0.095 0.17761,0.1301 0.22499,0.225 0.0337,0.067 -0.0525,0.1721 0,0.2251 0.0535,0.053 0.17206,-0.053 0.22509,0 0.0525,0.053 -0.0337,0.158 0,0.2251 0.27812,0.5562 0.22509,-0.077 0.22509,0.4502 0,0.6001 -0.0753,-0.075 0.22509,0.225 0.0525,0.053 -0.0337,0.1579 0,0.225 0.0476,0.095 0.17762,0.1302 0.225,0.2251 0.0337,0.067 -0.0525,0.172 0,0.2251 0.0535,0.053 0.17206,-0.053 0.22509,0 0.0535,0.053 -0.0337,0.1579 0,0.2251 0.0951,0.1897 0.35523,0.2603 0.45018,0.4501 0.0674,0.1342 -0.10615,0.344 0,0.4502 0.10001,0.1 0.42511,-0.1751 0.22509,0.225 -0.0476,0.095 -0.17761,0.1302 -0.22509,0.2251 -0.0337,0.067 0.0525,0.172 0,0.2251 -0.10615,0.1061 -0.34403,-0.1061 -0.45018,0 -0.0525,0.053 0.0535,0.172 0,0.225 -0.0525,0.053 -0.17197,-0.053 -0.22509,0 -0.0525,0.053 0.0535,0.172 0,0.2251 -0.10606,0.1061 -0.34403,-0.1061 -0.45009,0 -0.0525,0.054 0.0525,0.172 0,0.225 -0.10615,0.1062 -0.31598,-0.067 -0.45018,0 -0.18981,0.095 -0.26028,0.3554 -0.45008,0.4502 -0.0674,0.034 -0.17207,-0.053 -0.2251,0 -0.0525,0.053 0.0525,0.1721 0,0.2251 -0.10615,0.1061 -0.31598,-0.067 -0.45018,0 -0.0951,0.048 -0.13014,0.1776 -0.22499,0.2251 -0.0674,0.034 -0.17206,-0.053 -0.22509,0 -0.0525,0.053 0.0525,0.172 0,0.225 -0.10615,0.1061 -0.31598,-0.067 -0.45018,0 -0.18981,0.095 -0.26038,0.3553 -0.45009,0.4502 -0.1342,0.067 -0.31598,-0.067 -0.45018,0 -0.0951,0.047 -0.13014,0.1776 -0.22509,0.2251 -0.0674,0.034 -0.15799,-0.034 -0.22509,0 -0.0951,0.048 -0.13014,0.1776 -0.225,0.2251 -0.18009,0.09 -0.49518,-0.09 -0.67527,0 -0.0951,0.047 -0.13014,0.1776 -0.22509,0.2249 -0.0674,0.034 -0.17197,-0.053 -0.22499,0 -0.0535,0.054 0.0525,0.1721 0,0.2251 -0.10616,0.1062 -0.31598,-0.067 -0.45019,0 -0.0951,0.048 -0.13013,0.1777 -0.22509,0.2251 -0.0674,0.034 -0.17196,-0.053 -0.22509,0 -0.0525,0.053 0.0535,0.1721 0,0.2251 -0.10605,0.1061 -0.34403,-0.1061 -0.45008,0 -0.0525,0.053 0.0535,0.172 0,0.2251 -0.1126,0.1125 -0.56268,-0.1126 -0.67528,0 -0.0525,0.053 0.0535,0.172 0,0.225 -0.0525,0.054 -0.15789,-0.034 -0.22499,0 -0.55623,0.2781 0.0773,0.2251 -0.45018,0.2251"
         style="color:#000000;clip-rule:nonzero;display:inline;overflow:visible;visibility:visible;opacity:1;isolation:auto;mix-blend-mode:normal;color-interpolation:sRGB;color-interpolation-filters:linearRGB;solid-color:#000000;solid-opacity:1;fill:none;fill-opacity:1;fill-rule:evenodd;stroke:#000000;stroke-width:1.37046397;stroke-linecap:butt;stroke-linejoin:miter;stroke-miterlimit:4;stroke-dasharray:none;stroke-dashoffset:0;stroke-opacity:1;color-rendering:auto;image-rendering:auto;shape-rendering:auto;text-rendering:auto;enable-background:accumulate" />
    </g>
  </g>
</svg>
