<?xml version="1.0" encoding="UTF-8" standalone="no"?>
<!-- Created with Inkscape (http://www.inkscape.org/) -->

<svg
   xmlns:dc="http://purl.org/dc/elements/1.1/"
   xmlns:cc="http://creativecommons.org/ns#"
   xmlns:rdf="http://www.w3.org/1999/02/22-rdf-syntax-ns#"
   xmlns:svg="http://www.w3.org/2000/svg"
   xmlns="http://www.w3.org/2000/svg"
   xmlns:sodipodi="http://sodipodi.sourceforge.net/DTD/sodipodi-0.dtd"
   xmlns:inkscape="http://www.inkscape.org/namespaces/inkscape"
   width="177.16534"
   height="106.29497"
   id="svg2"
   version="1.1"
   inkscape:version="0.91 r13725"
   sodipodi:docname="pull_up.svg">
  <defs
     id="defs4" />
  <sodipodi:namedview
     id="base"
     pagecolor="#ffffff"
     bordercolor="#666666"
     borderopacity="1.0"
     inkscape:pageopacity="0.0"
     inkscape:pageshadow="2"
     inkscape:zoom="0.83185002"
     inkscape:cx="-234.78164"
     inkscape:cy="-1.6392694"
     inkscape:document-units="cm"
     inkscape:current-layer="layer1"
     showgrid="false"
     fit-margin-top="0"
     fit-margin-left="0"
     fit-margin-right="0"
     fit-margin-bottom="0"
     inkscape:window-width="1330"
     inkscape:window-height="747"
     inkscape:window-x="36"
     inkscape:window-y="21"
     inkscape:window-maximized="1"
     units="cm" />
  <metadata
     id="metadata7">
    <rdf:RDF>
      <cc:Work
         rdf:about="">
        <dc:format>image/svg+xml</dc:format>
        <dc:type
           rdf:resource="http://purl.org/dc/dcmitype/StillImage" />
        <dc:title></dc:title>
      </cc:Work>
    </rdf:RDF>
  </metadata>
  <g
     inkscape:label="Layer 1"
     inkscape:groupmode="layer"
     id="layer1"
     transform="translate(-32.228633,-1064.9324)">
    <path
       style="fill:#000000"
       d="m -91.956972,1013.5049 c -5.812466,0.025 -10.106128,2.0882 -11.976528,5.7544 -1.15081,2.2558 -1.50517,7.4532 -0.84339,12.4004 0.81775,6.1132 2.21042,8.7004 5.826834,10.8278 l 1.75486,1.0324 0.04613,0.4525 c 3.312919,0.1187 3.849772,0.1282 6.916211,0.2394 0.425645,-0.189 0.980155,-0.3267 1.794394,-0.4569 2.415955,-0.3863 5.30591,-3.3578 6.630691,-6.8197 2.409763,-6.2971 1.137744,-16.131 -2.668529,-20.6344 -1.912555,-2.2628 -3.384741,-2.8138 -7.480667,-2.7959 z"
       id="path3082"
       inkscape:connector-curvature="0" />
    <path
       style="fill:#000000"
       d="m -47.467994,1019.015 c -0.564021,-3.3182 -3.930799,-5.1946 -6.984717,-5.7469 -5.088591,-1.1928 -10.396917,-0.081 -15.209592,1.6882 -1.533882,0.6429 -2.707339,2.0227 -3.014508,3.6679 -1.056482,3.4272 -0.610592,7.1081 0.537668,10.4492 0.78941,2.6409 1.332265,5.3901 2.51665,7.8904 1.214047,1.9453 3.190069,3.2249 4.729106,4.8867 2.560119,2.1961 5.831097,3.2884 8.989683,4.3025 2.496156,0.5846 5.165485,0.5439 7.634855,-0.1391 1.753655,-0.4837 3.049573,-2.1314 3.034449,-3.9628 0.0512,-2.0282 -0.605855,-4.0152 -0.384743,-6.0507 0.06476,-4.4295 0.316084,-8.949 -0.917593,-13.2603 -0.27495,-1.2502 -0.588962,-2.4917 -0.930871,-3.7252 z"
       id="path3108"
       inkscape:connector-curvature="0" />
    <g
       id="g4402"
       transform="matrix(0.81333226,0,0,0.81333226,599.39349,175.43184)">
      <g
         transform="translate(-151.26,-0.79847746)"
         id="g4352">
        <path
           inkscape:connector-curvature="0"
           id="path4320"
           d="m -397.92719,1097.6947 c 2.32944,-5.8478 13.13734,-3.2725 10.70637,3.5121 0.37508,6.4514 -11.58633,11.443 -11.20427,2.6246 0.0212,-2.0571 0.4932,-4.079 0.4979,-6.1367 z"
           style="fill:#000000" />
        <path
           inkscape:connector-curvature="0"
           id="path4322"
           d="m -385.51494,1112.022 c -5.55851,0.1125 -10.85294,1.6032 -16.22889,2.4043"
           style="color:#000000;clip-rule:nonzero;display:inline;overflow:visible;visibility:visible;opacity:1;isolation:auto;mix-blend-mode:normal;color-interpolation:sRGB;color-interpolation-filters:linearRGB;solid-color:#000000;solid-opacity:1;fill:none;fill-opacity:1;fill-rule:evenodd;stroke:#000000;stroke-width:1.77165353;stroke-linecap:butt;stroke-linejoin:miter;stroke-miterlimit:4;stroke-dasharray:none;stroke-dashoffset:0;stroke-opacity:1;color-rendering:auto;image-rendering:auto;shape-rendering:auto;text-rendering:auto;enable-background:accumulate" />
        <path
           inkscape:connector-curvature="0"
           id="path4324"
           d="m -401.4433,1116.2295 c -1.93501,2.2388 -6.7761,10.0711 -9.32031,6.8271 -0.8225,-4.7053 1.95746,-11.26 -0.77214,-14.7715 -1.57455,0.4034 -1.34812,2.2523 -1.62841,3.4363"
           style="color:#000000;clip-rule:nonzero;display:inline;overflow:visible;visibility:visible;opacity:1;isolation:auto;mix-blend-mode:normal;color-interpolation:sRGB;color-interpolation-filters:linearRGB;solid-color:#000000;solid-opacity:1;fill:none;fill-opacity:1;fill-rule:evenodd;stroke:#000000;stroke-width:1.77165353;stroke-linecap:butt;stroke-linejoin:miter;stroke-miterlimit:4;stroke-dasharray:none;stroke-dashoffset:0;stroke-opacity:1;color-rendering:auto;image-rendering:auto;shape-rendering:auto;text-rendering:auto;enable-background:accumulate" />
        <path
           inkscape:connector-curvature="0"
           id="path4328"
           d="m -385.21441,1112.3225 c 1.37582,4.7861 3.05637,9.5317 6.24303,13.424 3.83274,7.7212 1.60959,-6.7587 2.15259,-9.627 -0.12984,-2.4773 -0.79499,-13.9208 -4.23158,-8.4141 l 0.0435,1.0107"
           style="color:#000000;clip-rule:nonzero;display:inline;overflow:visible;visibility:visible;opacity:1;isolation:auto;mix-blend-mode:normal;color-interpolation:sRGB;color-interpolation-filters:linearRGB;solid-color:#000000;solid-opacity:1;fill:none;fill-opacity:1;fill-rule:evenodd;stroke:#000000;stroke-width:1.77165353;stroke-linecap:butt;stroke-linejoin:miter;stroke-miterlimit:4;stroke-dasharray:none;stroke-dashoffset:0;stroke-opacity:1;color-rendering:auto;image-rendering:auto;shape-rendering:auto;text-rendering:auto;enable-background:accumulate" />
        <path
           inkscape:connector-curvature="0"
           id="path4330"
           d="m -393.32885,1115.6284 c -1.57595,6.3868 -2.81803,12.8573 -4.28987,19.2665 -0.61163,3.7216 -0.60948,7.535 -1.72083,11.0875"
           style="color:#000000;clip-rule:nonzero;display:inline;overflow:visible;visibility:visible;opacity:1;isolation:auto;mix-blend-mode:normal;color-interpolation:sRGB;color-interpolation-filters:linearRGB;solid-color:#000000;solid-opacity:1;fill:none;fill-opacity:1;fill-rule:evenodd;stroke:#000000;stroke-width:1.77165353;stroke-linecap:butt;stroke-linejoin:miter;stroke-miterlimit:4;stroke-dasharray:none;stroke-dashoffset:0;stroke-opacity:1;color-rendering:auto;image-rendering:auto;shape-rendering:auto;text-rendering:auto;enable-background:accumulate" />
        <path
           inkscape:connector-curvature="0"
           id="path4334"
           d="m -402.04437,1147.1846 c -2.96265,5.2346 -2.24556,11.6427 -4.61368,17.1534 -3.55493,5.0883 -0.34357,8.961 2.96737,13.0929 2.51055,4.7602 7.78024,7.8552 8.83438,13.3811 -1.34118,3.1382 -2.80634,6.1499 -4.18272,9.2667"
           style="color:#000000;clip-rule:nonzero;display:inline;overflow:visible;visibility:visible;opacity:1;isolation:auto;mix-blend-mode:normal;color-interpolation:sRGB;color-interpolation-filters:linearRGB;solid-color:#000000;solid-opacity:1;fill:none;fill-opacity:1;fill-rule:evenodd;stroke:#000000;stroke-width:1.77165353;stroke-linecap:butt;stroke-linejoin:miter;stroke-miterlimit:4;stroke-dasharray:none;stroke-dashoffset:0;stroke-opacity:1;color-rendering:auto;image-rendering:auto;shape-rendering:auto;text-rendering:auto;enable-background:accumulate" />
        <path
           inkscape:connector-curvature="0"
           id="path4336"
           d="m -392.72778,1148.3867 c -0.7583,8.0741 0.40309,16.2619 -1.46866,24.2441 -1.00608,6.3799 -0.433,13.0803 -3.45629,18.9757 -0.71905,2.2285 -2.06698,4.2196 -2.88896,6.3685"
           style="color:#000000;clip-rule:nonzero;display:inline;overflow:visible;visibility:visible;opacity:1;isolation:auto;mix-blend-mode:normal;color-interpolation:sRGB;color-interpolation-filters:linearRGB;solid-color:#000000;solid-opacity:1;fill:none;fill-opacity:1;fill-rule:evenodd;stroke:#000000;stroke-width:1.77165353;stroke-linecap:butt;stroke-linejoin:miter;stroke-miterlimit:4;stroke-dasharray:none;stroke-dashoffset:0;stroke-opacity:1;color-rendering:auto;image-rendering:auto;shape-rendering:auto;text-rendering:auto;enable-background:accumulate" />
        <path
           inkscape:connector-curvature="0"
           id="path4338"
           d="m -422.78128,1109.3172 c 17.43103,-0.4007 34.86205,-0.8015 52.29308,-1.2022"
           style="fill:none;fill-rule:evenodd;stroke:#000080;stroke-width:1.70078743;stroke-linecap:butt;stroke-linejoin:miter;stroke-miterlimit:4;stroke-dasharray:none;stroke-opacity:1" />
      </g>
      <g
         id="g4342">
        <path
           inkscape:connector-curvature="0"
           id="path4222"
           d="m -627.23536,1127.4477 c 2.34999,-5.782 13.4051,-3.2856 10.6631,3.5525 0.16464,5.0403 -9.29008,11.6104 -10.90525,4.5114 -0.0893,-2.6629 -0.16719,-5.4264 0.24215,-8.0639 z"
           style="fill:#000000" />
        <path
           inkscape:connector-curvature="0"
           id="path4308"
           d="m -627.44557,1172.73 c -2.03085,7.2604 -1.70311,14.9277 -3.02571,22.3523 0.0796,5.5044 -1.22758,10.8905 -0.88125,16.4167 -0.72919,2.8078 -3.66627,8.4661 -4.50802,9.3166"
           style="color:#000000;clip-rule:nonzero;display:inline;overflow:visible;visibility:visible;opacity:1;isolation:auto;mix-blend-mode:normal;color-interpolation:sRGB;color-interpolation-filters:linearRGB;solid-color:#000000;solid-opacity:1;fill:none;fill-opacity:1;fill-rule:evenodd;stroke:#000000;stroke-width:1.77165353;stroke-linecap:butt;stroke-linejoin:miter;stroke-miterlimit:4;stroke-dasharray:none;stroke-dashoffset:0;stroke-opacity:1;color-rendering:auto;image-rendering:auto;shape-rendering:auto;text-rendering:auto;enable-background:accumulate" />
        <path
           inkscape:connector-curvature="0"
           id="path4310"
           d="m -621.73541,1139.0701 c -0.90851,6.987 -1.66594,13.981 -3.7935,20.8322 -1.75322,5.1346 -4.37657,9.8081 -6.72522,14.6309"
           style="color:#000000;clip-rule:nonzero;display:inline;overflow:visible;visibility:visible;opacity:1;isolation:auto;mix-blend-mode:normal;color-interpolation:sRGB;color-interpolation-filters:linearRGB;solid-color:#000000;solid-opacity:1;fill:none;fill-opacity:1;fill-rule:evenodd;stroke:#000000;stroke-width:1.77165353;stroke-linecap:butt;stroke-linejoin:miter;stroke-miterlimit:4;stroke-dasharray:none;stroke-dashoffset:0;stroke-opacity:1;color-rendering:auto;image-rendering:auto;shape-rendering:auto;text-rendering:auto;enable-background:accumulate" />
        <path
           inkscape:connector-curvature="0"
           id="path4312"
           d="m -635.86055,1174.8338 c -2.68646,6.1716 -5.98425,12.1712 -9.91766,17.7315 -3.17381,5.6136 6.86155,9.2339 9.07272,14.1779 3.8642,4.8168 11.47259,9.412 5.01323,15.56 -0.34536,0.7213 -0.73985,1.0481 -1.16294,1.2173"
           style="color:#000000;clip-rule:nonzero;display:inline;overflow:visible;visibility:visible;opacity:1;isolation:auto;mix-blend-mode:normal;color-interpolation:sRGB;color-interpolation-filters:linearRGB;solid-color:#000000;solid-opacity:1;fill:none;fill-opacity:1;fill-rule:evenodd;stroke:#000000;stroke-width:1.77165353;stroke-linecap:butt;stroke-linejoin:miter;stroke-miterlimit:4;stroke-dasharray:none;stroke-dashoffset:0;stroke-opacity:1;color-rendering:auto;image-rendering:auto;shape-rendering:auto;text-rendering:auto;enable-background:accumulate" />
        <path
           inkscape:connector-curvature="0"
           id="path4314"
           d="m -612.11829,1143.5782 c -7.46724,0.4076 -14.9687,1.0441 -22.4714,0.3723 -0.21675,-0.3207 0.63166,0.1393 0.53235,-0.072"
           style="color:#000000;clip-rule:nonzero;display:inline;overflow:visible;visibility:visible;opacity:1;isolation:auto;mix-blend-mode:normal;color-interpolation:sRGB;color-interpolation-filters:linearRGB;solid-color:#000000;solid-opacity:1;fill:none;fill-opacity:1;fill-rule:evenodd;stroke:#000000;stroke-width:1.77165353;stroke-linecap:butt;stroke-linejoin:miter;stroke-miterlimit:4;stroke-dasharray:none;stroke-dashoffset:0;stroke-opacity:1;color-rendering:auto;image-rendering:auto;shape-rendering:auto;text-rendering:auto;enable-background:accumulate" />
        <path
           inkscape:connector-curvature="0"
           id="path4316"
           d="m -634.95895,1142.6765 c -0.90964,-6.9415 -4.80596,-12.7364 -7.31845,-19.1286 -3.64707,-4.9269 -2.37787,-11.9828 -3.26897,-16.3561 l -0.79139,0.6574 -0.34204,0.8669"
           style="color:#000000;clip-rule:nonzero;display:inline;overflow:visible;visibility:visible;opacity:1;isolation:auto;mix-blend-mode:normal;color-interpolation:sRGB;color-interpolation-filters:linearRGB;solid-color:#000000;solid-opacity:1;fill:none;fill-opacity:1;fill-rule:evenodd;stroke:#000000;stroke-width:1.77165353;stroke-linecap:butt;stroke-linejoin:miter;stroke-miterlimit:4;stroke-dasharray:none;stroke-dashoffset:0;stroke-opacity:1;color-rendering:auto;image-rendering:auto;shape-rendering:auto;text-rendering:auto;enable-background:accumulate" />
        <path
           inkscape:connector-curvature="0"
           id="path4318"
           d="m -613.32043,1142.6765 c 1.4429,-6.4336 1.21208,-12.9945 1.20214,-19.5347 0.58391,-5.4481 0.17912,-11.0219 0.30053,-16.5294 -1.58715,-1.4495 -2.81832,1.0171 -2.40425,2.4042"
           style="color:#000000;clip-rule:nonzero;display:inline;overflow:visible;visibility:visible;opacity:1;isolation:auto;mix-blend-mode:normal;color-interpolation:sRGB;color-interpolation-filters:linearRGB;solid-color:#000000;solid-opacity:1;fill:none;fill-opacity:1;fill-rule:evenodd;stroke:#000000;stroke-width:1.77165353;stroke-linecap:butt;stroke-linejoin:miter;stroke-miterlimit:4;stroke-dasharray:none;stroke-dashoffset:0;stroke-opacity:1;color-rendering:auto;image-rendering:auto;shape-rendering:auto;text-rendering:auto;enable-background:accumulate" />
        <path
           inkscape:connector-curvature="0"
           id="path4340"
           d="m -655.09479,1109.6177 c 17.43103,-0.4007 34.86205,-0.8015 52.29308,-1.2022"
           style="fill:none;fill-rule:evenodd;stroke:#000080;stroke-width:1.70078743;stroke-linecap:butt;stroke-linejoin:miter;stroke-miterlimit:4;stroke-dasharray:none;stroke-opacity:1" />
      </g>
    </g>
  </g>
</svg>
