<?xml version="1.0" encoding="UTF-8" standalone="no"?>
<!-- Created with Inkscape (http://www.inkscape.org/) -->

<svg
   xmlns:dc="http://purl.org/dc/elements/1.1/"
   xmlns:cc="http://creativecommons.org/ns#"
   xmlns:rdf="http://www.w3.org/1999/02/22-rdf-syntax-ns#"
   xmlns:svg="http://www.w3.org/2000/svg"
   xmlns="http://www.w3.org/2000/svg"
   xmlns:sodipodi="http://sodipodi.sourceforge.net/DTD/sodipodi-0.dtd"
   xmlns:inkscape="http://www.inkscape.org/namespaces/inkscape"
   width="177.16534"
   height="106.29497"
   id="svg2"
   version="1.1"
   inkscape:version="0.91 r13725"
   sodipodi:docname="renegade.svg">
  <defs
     id="defs4" />
  <sodipodi:namedview
     id="base"
     pagecolor="#ffffff"
     bordercolor="#666666"
     borderopacity="1.0"
     inkscape:pageopacity="0.0"
     inkscape:pageshadow="2"
     inkscape:zoom="0.42107426"
     inkscape:cx="264.5648"
     inkscape:cy="133.34871"
     inkscape:document-units="cm"
     inkscape:current-layer="layer1"
     showgrid="false"
     fit-margin-top="0"
     fit-margin-left="0"
     fit-margin-right="0"
     fit-margin-bottom="0"
     inkscape:window-width="1330"
     inkscape:window-height="747"
     inkscape:window-x="36"
     inkscape:window-y="21"
     inkscape:window-maximized="1"
     units="cm" />
  <metadata
     id="metadata7">
    <rdf:RDF>
      <cc:Work
         rdf:about="">
        <dc:format>image/svg+xml</dc:format>
        <dc:type
           rdf:resource="http://purl.org/dc/dcmitype/StillImage" />
        <dc:title></dc:title>
      </cc:Work>
    </rdf:RDF>
  </metadata>
  <g
     inkscape:label="Layer 1"
     inkscape:groupmode="layer"
     id="layer1"
     transform="translate(-32.228633,-1064.9324)">
    <path
       inkscape:connector-curvature="0"
       id="path5115"
       d="m 111.85688,962.12555 c 0.96825,7.95603 -3.43,15.02874 -5.30527,22.43173 0.55562,2.86645 -2.78231,10.36958 2.92738,7.9522"
       style="color:#000000;clip-rule:nonzero;display:inline;overflow:visible;visibility:visible;opacity:1;isolation:auto;mix-blend-mode:normal;color-interpolation:sRGB;color-interpolation-filters:linearRGB;solid-color:#000000;solid-opacity:1;fill:none;fill-opacity:1;fill-rule:evenodd;stroke:#000000;stroke-width:1.38269389;stroke-linecap:butt;stroke-linejoin:miter;stroke-miterlimit:4;stroke-dasharray:none;stroke-dashoffset:0;stroke-opacity:1;color-rendering:auto;image-rendering:auto;shape-rendering:auto;text-rendering:auto;enable-background:accumulate" />
    <g
       id="g7471"
       transform="translate(-5.6311959e-6,0.23354316)">
      <path
         inkscape:connector-curvature="0"
         id="path7130"
         d="m 101.4528,1101.6429 c 0.81395,0.1548 0.0463,0.672 0.19311,0.9656 0.0407,0.081 0.1524,0.1117 0.19312,0.1931 0.0772,0.1545 -0.0772,0.4248 0,0.5794 0.0407,0.081 0.1524,0.1116 0.19311,0.1931 0.0288,0.057 -0.0288,0.1355 0,0.1931 0.0407,0.081 0.1524,0.1116 0.19311,0.1931 0.0667,0.1334 -0.0678,0.8978 0,0.9655 0.0455,0.046 0.1476,-0.045 0.19311,0 0.0966,0.097 -0.0966,0.4828 0,0.5794 0.0455,0.045 0.1476,-0.046 0.19312,0 0.12911,0.1291 -0.12912,0.2571 0,0.3862 0.0455,0.046 0.14759,-0.045 0.19311,0 0.0455,0.046 -0.0455,0.1476 0,0.1931 0.0455,0.046 0.14759,-0.045 0.19311,0 0.091,0.091 -0.0576,0.2711 0,0.3862 0.0814,0.1629 0.3048,0.2234 0.38623,0.3863 0.0288,0.058 -0.0455,0.1475 0,0.1931 0.0455,0.046 0.13554,-0.029 0.19311,0 0.0814,0.041 0.11169,0.1524 0.19311,0.1931 0.0396,0.02 0.5521,0.027 0.57934,0 0.25748,-0.2575 -0.32186,-0.1931 0.19311,-0.1931 0.38622,0 0.77245,0 1.15868,0 0.0644,0 0.14759,0.046 0.19311,0 0.0455,-0.046 -0.0455,-0.1476 0,-0.1931 0.091,-0.091 0.29519,0.091 0.38622,0 0.0455,-0.046 -0.0455,-0.1476 0,-0.1932 0.091,-0.091 0.2952,0.091 0.38623,0 0.0455,-0.045 -0.0455,-0.1475 0,-0.1931 0.091,-0.091 0.29519,0.091 0.38622,0 0.0455,-0.046 -0.0455,-0.1475 0,-0.1931 0.0455,-0.045 0.1476,0.046 0.19311,0 0.0455,-0.045 -0.0455,-0.1476 0,-0.1931 0.0455,-0.045 0.13554,0.029 0.19312,0 0.16284,-0.081 0.22337,-0.3048 0.38622,-0.3862 0.0576,-0.029 0.1476,0.045 0.19311,0 0.0455,-0.046 -0.0455,-0.1476 0,-0.1931 0.091,-0.091 0.29519,0.091 0.38623,0 0.0455,-0.046 -0.0288,-0.1355 0,-0.1931 0.40184,-0.8037 -0.0133,0.2064 0.38623,-0.1931 0.0455,-0.046 -0.0455,-0.1476 0,-0.1932 0.0455,-0.045 0.14759,0.046 0.19311,0 0.0455,-0.045 -0.0455,-0.1475 0,-0.1931 0.0455,-0.045 0.14759,0.046 0.19311,0 0.0455,-0.045 -0.0455,-0.1476 0,-0.1931 0.0455,-0.046 0.14759,0.046 0.19311,0 0.0455,-0.046 -0.0455,-0.1476 0,-0.1931 0.0455,-0.046 0.1476,0.045 0.19312,0 0.0455,-0.046 -0.0288,-0.1355 0,-0.1931 0.0407,-0.082 0.1524,-0.1117 0.19311,-0.1931 0.0288,-0.058 -0.0288,-0.1356 0,-0.1931 0.0814,-0.1629 0.3048,-0.2234 0.38622,-0.3862 0.0288,-0.058 -0.0455,-0.1477 0,-0.1932 0.0455,-0.045 0.1476,0.046 0.19311,0 0.091,-0.091 -0.091,-0.2952 0,-0.3862 0.0455,-0.045 0.1476,0.045 0.19312,0 0.0455,-0.045 -0.0288,-0.1356 0,-0.1931 0.0407,-0.081 0.1524,-0.1117 0.19311,-0.1931 0.0288,-0.058 -0.0288,-0.1356 0,-0.1931 0.0407,-0.082 0.1524,-0.1117 0.19311,-0.1931 0.0576,-0.1152 -0.091,-0.2952 0,-0.3863 0.0455,-0.045 0.1476,0.045 0.19311,0 0.0455,-0.045 0,-0.1287 0,-0.1931 0,-0.064 0,-0.1288 0,-0.1931 0,-0.515 -0.0644,0.064 0.19312,-0.1931 0.0528,-0.053 -0.0524,-0.6677 0,-0.7725 0.0407,-0.081 0.1524,-0.1116 0.19311,-0.1931 0.025,-0.05 0,-1.0218 0,-1.1587 0,-0.064 0.0455,-0.1475 0,-0.1931 -0.0455,-0.045 -0.1476,0.046 -0.19311,0 -0.12912,-0.1291 0.12912,-0.2571 0,-0.3862 -0.0455,-0.045 -0.12875,0 -0.19312,0 0,-0.064 0.0288,-0.1355 0,-0.1931 -0.40184,-0.8037 0.0133,0.2064 -0.38622,-0.1931 -0.0455,-0.046 0.0455,-0.1476 0,-0.1931 -0.0455,-0.046 -0.14759,0.045 -0.19311,0 -0.0455,-0.046 0.0455,-0.1476 0,-0.1931 -0.0455,-0.046 -0.1476,0.045 -0.19312,0 -0.0455,-0.046 0.0455,-0.1476 0,-0.1932 -0.0455,-0.045 -0.14759,0.046 -0.19311,0 -0.0455,-0.045 0.0455,-0.1475 0,-0.1931 -0.0455,-0.045 -0.14759,0.046 -0.19311,0 -0.0455,-0.045 0.0455,-0.1476 0,-0.1931 -0.0455,-0.045 -0.1476,0.046 -0.19311,0 -0.091,-0.091 0.091,-0.2951 0,-0.3862 -0.0455,-0.046 -0.1476,0.045 -0.19311,0 -0.0455,-0.046 0.0455,-0.1476 0,-0.1931 -0.0455,-0.046 -0.1476,0.045 -0.19312,0 -0.091,-0.091 0.091,-0.2952 0,-0.3862 -0.0455,-0.046 -0.13554,0.029 -0.19311,0 -0.23174,-0.1159 -0.3476,-0.4635 -0.57934,-0.5794 -0.0576,-0.029 -0.14759,0.046 -0.19311,0 -0.0455,-0.045 0.0455,-0.1476 0,-0.1931 -0.0465,-0.046 -0.72598,0.047 -0.77245,0 -0.0455,-0.045 0.0455,-0.1476 0,-0.1931 -0.006,-0.01 -0.5325,0 -0.57934,0 -0.10098,0 -0.72167,-0.025 -0.77245,0 -0.0814,0.041 -0.11168,0.1524 -0.19311,0.1931 -0.0766,0.038 -0.53986,-0.039 -0.57934,0 -0.0455,0.046 0.0455,0.1476 0,0.1931 -0.0455,0.046 -0.13553,-0.029 -0.19311,0 -0.0814,0.041 -0.11169,0.1524 -0.19311,0.1931 -0.11515,0.058 -0.29519,-0.091 -0.38623,0 -0.0455,0.046 0.0455,0.1476 0,0.1932 -0.091,0.091 -0.29519,-0.091 -0.38622,0 -0.0455,0.045 0.0455,0.1475 0,0.1931 -0.0455,0.045 -0.13554,-0.029 -0.19312,0 -0.0814,0.041 -0.11168,0.1524 -0.19311,0.1931 -0.0576,0.029 -0.13554,-0.029 -0.19311,0 -0.0814,0.041 -0.11169,0.1524 -0.19311,0.1931 -0.0576,0.029 -0.1476,-0.046 -0.19311,0 -0.0455,0.045 0.0455,0.1476 0,0.1931 -0.0455,0.045 -0.13554,-0.029 -0.19312,0 -0.42698,0.2135 -0.0599,0.1198 -0.19311,0.3862 -0.0407,0.081 -0.1524,0.1117 -0.19311,0.1931 -0.0288,0.058 0.0455,0.1476 0,0.1931 -0.25748,0.2575 -0.19311,-0.3218 -0.19311,0.1932 0,0.4528 0.0455,-0.091 -0.19312,0.3862 -0.0772,0.1545 0.0772,0.4248 0,0.5793 -0.0407,0.082 -0.1524,0.1117 -0.19311,0.1931 -0.0607,0.1214 0.0607,0.6511 0,0.7725 -0.0407,0.081 -0.1524,0.1117 -0.19311,0.1931 -0.0529,0.1058 0.0489,1.0771 0,1.1587 -0.1656,0.2759 -0.38623,0.5149 -0.57934,0.7724 z"
         style="color:#000000;clip-rule:nonzero;display:inline;overflow:visible;visibility:visible;opacity:1;isolation:auto;mix-blend-mode:normal;color-interpolation:sRGB;color-interpolation-filters:linearRGB;solid-color:#000000;solid-opacity:1;fill:#000000;fill-opacity:1;fill-rule:evenodd;stroke:#000000;stroke-width:1.38269389;stroke-linecap:butt;stroke-linejoin:miter;stroke-miterlimit:4;stroke-dasharray:none;stroke-dashoffset:0;stroke-opacity:1;color-rendering:auto;image-rendering:auto;shape-rendering:auto;text-rendering:auto;enable-background:accumulate" />
      <path
         inkscape:connector-curvature="0"
         id="path7132"
         d="m 196.94488,1107.4051 c 0,-0.5793 0,-1.1587 0,-1.738 0,-0.064 0,-0.1287 0,-0.1931 0,-0.064 -0.0455,-0.1476 0,-0.1931 0.0455,-0.046 0.1476,0.045 0.19312,0 0.0455,-0.046 -0.0288,-0.1356 0,-0.1931 0.0407,-0.081 0.15239,-0.1117 0.19311,-0.1932 0.0288,-0.058 -0.0455,-0.1475 0,-0.1931 0.0455,-0.045 0.14759,0.046 0.19311,0 0.0455,-0.045 -0.0288,-0.1355 0,-0.1931 0.0407,-0.081 0.1524,-0.1117 0.19311,-0.1931 0.0288,-0.058 -0.0455,-0.1476 0,-0.1931 0.0455,-0.045 0.1476,0.046 0.19311,0 0.0455,-0.045 -0.0455,-0.1476 0,-0.1931 0.091,-0.091 0.27108,0.058 0.38623,0 0.23173,-0.1159 0.3476,-0.4635 0.57933,-0.5793 0.11516,-0.058 0.29519,0.091 0.38623,0 0.0455,-0.046 -0.0455,-0.1476 0,-0.1932 0.091,-0.091 0.29519,0.091 0.38623,0 0.0455,-0.045 -0.0455,-0.1475 0,-0.1931 0.0465,-0.046 0.72598,0.046 0.77245,0 0.0455,-0.046 -0.0455,-0.1476 0,-0.1931 0.0455,-0.046 0.12874,0 0.19311,0 0.38622,0 0.77245,0 1.15867,0 0.0644,0 0.13554,-0.029 0.19311,0 0.0814,0.04 0.11169,0.1524 0.19312,0.1931 0.0499,0.025 1.02179,0 1.15867,0 0.0644,0 0.1476,-0.046 0.19312,0 0.25748,0.2575 -0.32186,0.1931 0.19311,0.1931 0.0468,0 0.57312,-0.01 0.57933,0 0.0455,0.046 -0.0455,0.1476 0,0.1932 0.0455,0.045 0.13554,-0.029 0.19312,0 0.64047,0.6404 -0.18207,-0.091 0.38622,0.1931 0.19003,0.095 0.58242,0.6774 0.77245,0.7724 0.0576,0.029 0.13554,-0.029 0.19312,0 0.0513,0.026 0.55369,0.5281 0.57933,0.5793 0.0288,0.058 -0.0455,0.1476 0,0.1932 0.0455,0.045 0.1476,-0.046 0.19312,0 0.0455,0.045 -0.0455,0.1475 0,0.1931 0.0455,0.045 0.14759,-0.046 0.19311,0 0.091,0.091 -0.0576,0.271 0,0.3862 0.0407,0.081 0.1524,0.1117 0.19311,0.1931 0.0383,0.077 -0.0395,0.5399 0,0.5793 0.0455,0.046 0.14759,-0.045 0.19311,0 0.0966,0.097 -0.0966,0.4828 0,0.5794 0.0455,0.045 0.1476,-0.046 0.19311,0 0.0455,0.045 0,0.1287 0,0.1931 0,0.5149 0,1.0299 0,1.5449 0,0.071 0.008,0.7647 0,0.7724 -0.0455,0.046 -0.14759,-0.045 -0.19311,0 -0.091,0.091 0.091,0.2952 0,0.3863 -0.0455,0.045 -0.14759,-0.046 -0.19311,0 -0.0455,0.045 0.0288,0.1355 0,0.1931 -0.0407,0.081 -0.1524,0.1117 -0.19311,0.1931 -0.0288,0.058 0.0455,0.1476 0,0.1931 -0.0455,0.046 -0.1476,-0.045 -0.19311,0 -0.0455,0.046 0.0288,0.1356 0,0.1931 -0.0407,0.081 -0.15241,0.1117 -0.19312,0.1932 -0.0288,0.057 0.0455,0.1475 0,0.1931 -0.0455,0.045 -0.14759,-0.046 -0.19311,0 -0.0455,0.045 0.0455,0.1476 0,0.1931 -0.0455,0.045 -0.1476,-0.046 -0.19311,0 -0.0455,0.045 0.0455,0.1476 0,0.1931 -0.0455,0.046 -0.1476,-0.046 -0.19311,0 -0.0455,0.046 0.0455,0.1476 0,0.1931 -0.0455,0.045 -0.1476,-0.046 -0.19312,0 0,0.515 0.0644,-0.064 -0.19311,0.1931 -0.0455,0.045 0.0455,0.1476 0,0.1931 -0.0455,0.045 -0.1476,-0.045 -0.19311,0 -0.0455,0.045 0.0288,0.1356 0,0.1931 -0.0407,0.081 -0.1524,0.1117 -0.19312,0.1931 -0.0288,0.058 0.0455,0.1476 0,0.1932 -0.0455,0.045 -0.13553,-0.029 -0.19311,0 -0.0814,0.041 -0.12874,0.1287 -0.19311,0.1931 -0.0644,0.064 -0.11169,0.1524 -0.19311,0.1931 -0.0576,0.029 -0.13554,-0.029 -0.19312,0 -0.0814,0.041 -0.11168,0.1524 -0.19311,0.1931 -0.0576,0.029 -0.14759,-0.046 -0.19311,0 0,0.515 0.0644,-0.064 -0.19311,0.1931 -0.0455,0.046 0.0455,0.1476 0,0.1931 -0.0455,0.046 -0.1476,-0.046 -0.19311,0 -0.0455,0.046 0.0455,0.1476 0,0.1931 -0.0966,0.097 -0.48279,-0.097 -0.57934,0 -0.0455,0.046 0.0455,0.1476 0,0.1931 -0.091,0.091 -0.27108,-0.058 -0.38623,0 -0.0814,0.041 -0.11169,0.1524 -0.19311,0.1932 -0.0576,0.029 -0.13554,-0.029 -0.19311,0 -0.0814,0.041 -0.11169,0.1524 -0.19312,0.1931 -0.11514,0.058 -0.29519,-0.091 -0.38622,0 -0.0455,0.046 0.0455,0.1475 0,0.1931 -0.0455,0.045 -0.12874,0 -0.19311,0 -0.32186,0 -0.64371,0 -0.96556,0 -0.087,0 -0.52057,-0.03 -0.57934,0 -0.0814,0.041 -0.11169,0.1524 -0.19311,0.1931 -0.0576,0.029 -0.12875,0 -0.19312,0 -0.0644,0 -0.13553,0.029 -0.19311,0 -0.0814,-0.041 -0.11169,-0.1524 -0.19311,-0.1931 -0.0766,-0.038 -0.53986,0.039 -0.57934,0 -0.0455,-0.046 0.0455,-0.1476 0,-0.1931 -0.0455,-0.046 -0.13554,0.029 -0.19311,0 -0.0814,-0.041 -0.11169,-0.1524 -0.19312,-0.1931 -0.0576,-0.029 -0.14759,0.045 -0.19311,0 -0.091,-0.091 0.091,-0.2952 0,-0.3863 -0.0455,-0.046 -0.14759,0.046 -0.19311,0 -0.0455,-0.046 0.0288,-0.1355 0,-0.1931 -0.0407,-0.081 -0.1524,-0.1117 -0.19311,-0.1931 -0.0288,-0.058 0.0288,-0.1355 0,-0.1931 -0.0407,-0.081 -0.1524,-0.1117 -0.19311,-0.1931 -0.0772,-0.1545 0.0772,-0.4249 0,-0.5794 -0.0407,-0.081 -0.15241,-0.1117 -0.19311,-0.1931 -0.0288,-0.057 0.0288,-0.1355 0,-0.1931 -0.0407,-0.081 -0.15241,-0.1117 -0.19312,-0.1931 -0.0524,-0.1048 0.0528,-0.7196 0,-0.7724 -0.0455,-0.046 -0.1476,0.045 -0.19311,0 -0.0598,-0.06 0.0598,-0.9058 0,-0.9656 -0.0455,-0.045 -0.1476,0.045 -0.19311,0 -0.0455,-0.045 0,-0.1287 0,-0.1931 0,-0.3863 0,-0.7725 0,-1.1587 0,-0.064 0.0455,-0.1476 0,-0.1931 -0.0455,-0.045 -0.1476,0.046 -0.19312,0 -0.0455,-0.045 0,-0.1288 0,-0.1931 0,-0.064 -0.0331,-0.138 0,-0.1932 0.1656,-0.2759 0.38623,-0.5149 0.57934,-0.7724 z"
         style="color:#000000;clip-rule:nonzero;display:inline;overflow:visible;visibility:visible;opacity:1;isolation:auto;mix-blend-mode:normal;color-interpolation:sRGB;color-interpolation-filters:linearRGB;solid-color:#000000;solid-opacity:1;fill:#000000;fill-opacity:1;fill-rule:evenodd;stroke:#000000;stroke-width:1.38269389;stroke-linecap:butt;stroke-linejoin:miter;stroke-miterlimit:4;stroke-dasharray:none;stroke-dashoffset:0;stroke-opacity:1;color-rendering:auto;image-rendering:auto;shape-rendering:auto;text-rendering:auto;enable-background:accumulate" />
      <path
         inkscape:connector-curvature="0"
         id="path7134"
         d="m 192.88952,1108.95 c -0.57934,0 -1.15868,0 -1.73801,0 -0.0644,0 -0.12874,0 -0.19311,0 -0.0644,0 -0.13554,-0.029 -0.19312,0 -0.0814,0.041 -0.11169,0.1524 -0.19311,0.1931 -0.0576,0.029 -0.12874,0 -0.19311,0 -0.0644,0.064 -0.11169,0.1524 -0.19311,0.1931 -0.11516,0.058 -0.29519,-0.091 -0.38623,0 -0.0455,0.046 0.0455,0.1476 0,0.1931 -0.091,0.091 -0.29519,-0.091 -0.38623,0 -0.0455,0.046 0.0455,0.1477 0,0.1932 -0.0455,0.045 -0.13553,-0.029 -0.19311,0 -0.64047,0.6404 0.18207,-0.091 -0.38622,0.1931 -0.0814,0.041 -0.11169,0.1524 -0.19312,0.1931 -0.0576,0.028 -0.13553,-0.029 -0.19311,0 -0.0814,0.041 -0.11169,0.1524 -0.19311,0.1931 -0.0576,0.029 -0.13554,-0.029 -0.19311,0 -0.0814,0.041 -0.11169,0.1524 -0.19311,0.1931 -0.0576,0.029 -0.13554,-0.029 -0.19312,0 -0.0814,0.041 -0.11168,0.1524 -0.19311,0.1931 -0.0766,0.038 -0.53986,-0.04 -0.57934,0 -0.0455,0.045 0.0455,0.1476 0,0.1932 -0.091,0.091 -0.29519,-0.091 -0.38622,0 -0.0455,0.045 0.0455,0.1475 0,0.1931 -0.0395,0.04 -0.50277,-0.038 -0.57934,0 -0.0814,0.04 -0.11169,0.1523 -0.19311,0.1931 -0.0576,0.029 -0.13554,-0.029 -0.19311,0 -0.0814,0.041 -0.11169,0.1524 -0.19312,0.1931 -0.15449,0.077 -0.42484,-0.077 -0.57933,0 -0.0814,0.041 -0.11169,0.1524 -0.19311,0.1931 -0.11516,0.058 -0.2952,-0.091 -0.38623,0 -0.0455,0.045 0.0455,0.1476 0,0.1931 -0.0395,0.04 -0.50277,-0.038 -0.57934,0 -0.0814,0.04 -0.11169,0.1524 -0.19311,0.1931 -0.0576,0.029 -0.13554,-0.029 -0.19312,0 -0.0814,0.041 -0.11168,0.1524 -0.19311,0.1931 -0.11515,0.058 -0.27107,-0.057 -0.38622,0 -0.0814,0.041 -0.11169,0.1524 -0.19311,0.1931 -0.11515,0.058 -0.27108,-0.057 -0.38623,0 -0.0814,0.041 -0.11169,0.1525 -0.19311,0.1932 -0.0576,0.028 -0.13554,-0.029 -0.19311,0 -0.0814,0.041 -0.11169,0.1524 -0.19311,0.1931 -0.11516,0.058 -0.27108,-0.058 -0.38623,0 -0.0814,0.041 -0.11169,0.1524 -0.19311,0.1931 -0.12138,0.061 -0.65108,-0.061 -0.77246,0 -0.0814,0.041 -0.11168,0.1524 -0.19311,0.1931 -0.0576,0.029 -0.13553,-0.029 -0.19311,0 -0.0814,0.041 -0.11169,0.1524 -0.19311,0.1931 -0.0576,0.029 -0.13205,-0.02 -0.19311,0 -0.13656,0.046 -0.24968,0.1476 -0.38623,0.1931 -0.12213,0.041 -0.27108,-0.058 -0.38622,0 -0.0814,0.041 -0.11169,0.1524 -0.19311,0.1931 -0.11516,0.058 -0.27108,-0.058 -0.38623,0 -0.0814,0.041 -0.11169,0.1524 -0.19311,0.1931 -0.11515,0.058 -0.27108,-0.058 -0.38623,0 -0.0814,0.041 -0.11169,0.1524 -0.19311,0.1932 -0.11515,0.058 -0.27107,-0.058 -0.38623,0 -0.0814,0.041 -0.11169,0.1524 -0.19311,0.1931 -0.0698,0.035 -0.83124,0 -0.96556,0 -0.0644,0 -0.1476,-0.046 -0.19311,0 -0.0455,0.046 0.0455,0.1475 0,0.1931 -0.0528,0.053 -0.66769,-0.052 -0.77245,0 -0.0814,0.041 -0.11169,0.1524 -0.19311,0.1931 -0.0576,0.029 -0.12875,0 -0.19312,0 -0.0644,0 -0.12874,0 -0.19311,0 -0.0644,0 -0.12874,0 -0.19311,0 -0.0644,0 -0.13554,-0.029 -0.19312,0 -0.0814,0.04 -0.11169,0.1524 -0.19311,0.1931 -0.1234,0.062 -0.61701,-0.052 -0.77245,0 -0.13655,0.045 -0.24967,0.1476 -0.38622,0.1931 -0.18194,0.061 -1.03347,-0.063 -1.15868,0 -0.0814,0.041 -0.11169,0.1524 -0.19311,0.1931 -0.0576,0.029 -0.12874,0 -0.19311,0 -0.0644,0 -0.12875,0 -0.19312,0 -0.0709,0 -0.76467,-0.01 -0.77244,0 -0.0455,0.046 0.0455,0.1476 0,0.1931 -0.0455,0.046 -0.12875,0 -0.19312,0 -0.32185,0 -0.6437,0 -0.96556,0 -0.0644,0 -0.1476,-0.045 -0.19311,0 -0.0455,0.046 0.0455,0.1476 0,0.1931 -0.0455,0.046 -0.12874,0 -0.19311,0 -0.0644,0 -0.12875,0 -0.19312,0 -0.13431,0 -0.89572,-0.035 -0.96556,0 -0.0814,0.041 -0.11169,0.1524 -0.19311,0.1932 -0.10476,0.052 -0.71961,-0.053 -0.77245,0 -0.0455,0.045 0.0455,0.1475 0,0.1931 -0.091,0.091 -0.38622,-0.1288 -0.38622,0 0,0.091 0.12874,0.1287 0.19311,0.1931"
         style="color:#000000;clip-rule:nonzero;display:inline;overflow:visible;visibility:visible;opacity:1;isolation:auto;mix-blend-mode:normal;color-interpolation:sRGB;color-interpolation-filters:linearRGB;solid-color:#000000;solid-opacity:1;fill:none;fill-opacity:1;fill-rule:evenodd;stroke:#000000;stroke-width:1.38269389;stroke-linecap:butt;stroke-linejoin:miter;stroke-miterlimit:4;stroke-dasharray:none;stroke-dashoffset:0;stroke-opacity:1;color-rendering:auto;image-rendering:auto;shape-rendering:auto;text-rendering:auto;enable-background:accumulate" />
      <path
         inkscape:connector-curvature="0"
         id="path7136"
         d="m 165.85378,1117.0607 c -0.25749,0.1931 -0.51497,0.3862 -0.77246,0.5794 0,0.064 0.0455,0.1476 0,0.1931 -0.0455,0.045 -0.14759,-0.045 -0.19311,0 -0.0455,0.045 0.0455,0.1476 0,0.1931 -0.0455,0.045 -0.14759,-0.045 -0.19311,0 -0.0455,0.045 0.0455,0.1476 0,0.1931 -0.0455,0.045 -0.13554,-0.029 -0.19312,0 -0.0814,0.041 -0.12874,0.1287 -0.19311,0.1931 -0.10166,0.1017 -0.4762,0.5278 -0.57933,0.5793 -0.0576,0.029 -0.1476,-0.045 -0.19312,0 -0.0455,0.046 0.0455,0.1477 0,0.1932 -0.0455,0.045 -0.14759,-0.045 -0.19311,0 -0.0455,0.045 0.0455,0.1476 0,0.1931 -0.0455,0.046 -0.13554,-0.029 -0.19311,0 -0.0814,0.041 -0.11169,0.1524 -0.19311,0.1931 -0.0576,0.029 -0.1476,-0.046 -0.19311,0 -0.0455,0.045 0.0455,0.1476 0,0.1931 -0.0455,0.045 -0.1476,-0.045 -0.19312,0 -0.0455,0.045 0.0455,0.1476 0,0.1931 -0.0455,0.045 -0.1476,-0.045 -0.19311,0 -0.0455,0.045 0.0455,0.1476 0,0.1931 -0.091,0.091 -0.29519,-0.091 -0.38623,0 -0.0455,0.046 0.0455,0.1476 0,0.1932 -0.091,0.091 -0.27107,-0.058 -0.38622,0 -0.23174,0.1158 -0.3476,0.4634 -0.57934,0.5793 -0.11515,0.057 -0.27107,-0.058 -0.38622,0 -0.0814,0.041 -0.11169,0.1524 -0.19311,0.1931 -0.11515,0.058 -0.27108,-0.058 -0.38623,0 -0.15494,0.078 -0.23128,0.3087 -0.38622,0.3862 -0.0576,0.029 -0.13554,-0.029 -0.19312,0 -0.0814,0.04 -0.11169,0.1524 -0.19311,0.1931 -0.0576,0.029 -0.13554,-0.029 -0.19311,0 -0.0814,0.041 -0.11169,0.1524 -0.19312,0.1932 -0.0576,0.029 -0.13553,-0.029 -0.19311,0 -0.0814,0.04 -0.11169,0.1524 -0.19311,0.1931 -0.0576,0.029 -0.13554,-0.029 -0.19311,0 -0.0814,0.041 -0.11169,0.1524 -0.19312,0.1931 -0.0576,0.029 -0.13553,-0.029 -0.19311,0 -0.16285,0.081 -0.22337,0.3048 -0.38622,0.3862 -0.0576,0.029 -0.13554,-0.029 -0.19311,0 -0.0814,0.04 -0.11169,0.1524 -0.19312,0.1931 -0.0576,0.029 -0.13553,-0.029 -0.19311,0 -0.0814,0.041 -0.11169,0.1524 -0.19311,0.1931 -0.0576,0.029 -0.13554,-0.029 -0.19311,0 -0.0814,0.041 -0.11169,0.1524 -0.19312,0.1931 -0.0576,0.029 -0.13553,-0.029 -0.19311,0 -0.0814,0.041 -0.10675,0.1644 -0.19311,0.1932 -0.12214,0.04 -0.26409,-0.041 -0.38623,0 -0.17272,0.057 -0.22338,0.3048 -0.38622,0.3862 -0.0576,0.029 -0.13554,-0.029 -0.19312,0 -0.0814,0.04 -0.11168,0.1524 -0.19311,0.1931 -0.0576,0.029 -0.13554,-0.029 -0.19311,0 -0.0814,0.041 -0.11169,0.1524 -0.19311,0.1931 -0.0576,0.029 -0.13554,-0.029 -0.19311,0 -0.0814,0.041 -0.11169,0.1524 -0.19312,0.1931 -0.0576,0.029 -0.13553,-0.029 -0.19311,0 -0.16285,0.081 -0.22338,0.3048 -0.38622,0.3862 -0.11516,0.058 -0.27108,-0.058 -0.38623,0 -0.0814,0.041 -0.11169,0.1524 -0.19311,0.1932 -0.0576,0.029 -0.1476,-0.046 -0.19311,0 -0.0455,0.045 0.0455,0.1475 0,0.1931 -0.091,0.091 -0.27108,-0.058 -0.38623,0 -0.0814,0.041 -0.11169,0.1524 -0.19311,0.1931 -0.0576,0.029 -0.13554,-0.029 -0.19312,0 -0.0814,0.041 -0.11168,0.1524 -0.19311,0.1931 -0.11514,0.058 -0.27107,-0.058 -0.38622,0 -0.0814,0.041 -0.11169,0.1524 -0.19311,0.1931 -0.0576,0.029 -0.12874,0 -0.19312,0 -0.12874,0 -0.26409,-0.041 -0.38622,0 -0.0864,0.029 -0.11169,0.1524 -0.19311,0.1931 -0.11516,0.058 -0.27108,-0.058 -0.38623,0 -0.0814,0.041 -0.11169,0.1524 -0.19311,0.1931 -0.0576,0.029 -0.13204,-0.02 -0.19311,0 -0.13655,0.046 -0.24968,0.1476 -0.38623,0.1931 -0.13283,0.044 -0.46539,-0.057 -0.57934,0 -0.0814,0.041 -0.11169,0.1524 -0.19311,0.1931 -0.0576,0.029 -0.13554,-0.029 -0.19311,0 -0.0814,0.041 -0.11169,0.1525 -0.19311,0.1932 -0.0576,0.029 -0.12874,0 -0.19311,0 -0.12875,0 -0.2641,-0.041 -0.38623,0 -0.0864,0.029 -0.11169,0.1524 -0.19311,0.1931 -0.0576,0.029 -0.13554,-0.029 -0.19311,0 -0.0814,0.041 -0.11169,0.1524 -0.19312,0.1931 -0.0576,0.029 -0.13553,-0.029 -0.19311,0 -0.0814,0.041 -0.11169,0.1524 -0.19311,0.1931 -0.0576,0.029 -0.13554,-0.029 -0.19312,0 -0.0814,0.041 -0.11169,0.1524 -0.19311,0.1931 -0.11515,0.058 -0.29519,-0.091 -0.38622,0 -0.0455,0.046 0.0576,0.1643 0,0.1931 -0.11515,0.058 -0.26409,-0.04 -0.38623,0 -0.0864,0.029 -0.11169,0.1524 -0.19311,0.1931 -0.11515,0.058 -0.27108,-0.058 -0.38622,0 -0.0814,0.041 -0.11169,0.1524 -0.19312,0.1931 -0.0576,0.029 -0.13553,-0.029 -0.19311,0 -0.0814,0.041 -0.11169,0.1524 -0.19311,0.1931 -0.0576,0.029 -0.13554,-0.029 -0.19311,0 -0.0814,0.041 -0.11169,0.1525 -0.19312,0.1932 -0.11515,0.057 -0.27107,-0.058 -0.38622,0 -0.0814,0.041 -0.11169,0.1524 -0.19312,0.1931 -0.11514,0.058 -0.27107,-0.058 -0.38622,0 -0.0814,0.041 -0.11169,0.1524 -0.19311,0.1931 -0.11515,0.058 -0.27108,-0.058 -0.38623,0 -0.0814,0.041 -0.11169,0.1524 -0.19311,0.1931 -0.11515,0.058 -0.27108,-0.058 -0.38622,0 -0.0814,0.041 -0.11169,0.1524 -0.19312,0.1931 -0.0576,0.029 -0.12874,0 -0.19311,0 -0.0644,0.064 -0.11169,0.1524 -0.19311,0.1931 -0.11515,0.058 -0.27108,-0.058 -0.38623,0 -0.0814,0.04 -0.11169,0.1524 -0.19311,0.1931 -0.11515,0.058 -0.27107,-0.058 -0.38623,0 -0.0814,0.041 -0.11169,0.1524 -0.19311,0.1931 -0.11515,0.058 -0.29519,-0.091 -0.38622,0 -0.0455,0.046 0.0455,0.1477 0,0.1931 -0.091,0.091 -0.27108,-0.057 -0.38623,0 -0.0814,0.041 -0.11169,0.1525 -0.19311,0.1932 -0.0576,0.029 -0.13554,-0.029 -0.19311,0 -0.0814,0.041 -0.11169,0.1524 -0.19311,0.1931 -0.11515,0.058 -0.27108,-0.058 -0.38623,0 -0.0814,0.041 -0.11169,0.1524 -0.19311,0.1931 -0.11515,0.058 -0.29519,-0.091 -0.38623,0 -0.0455,0.045 0.0455,0.1476 0,0.1931 -0.091,0.091 -0.27107,-0.058 -0.38622,0 -0.0814,0.041 -0.11169,0.1524 -0.19311,0.1932 -0.0766,0.038 -0.53986,-0.04 -0.57934,0 -0.0455,0.045 0.0455,0.1475 0,0.1931 -0.0395,0.04 -0.50277,-0.038 -0.57934,0 -0.0814,0.041 -0.11169,0.1523 -0.19311,0.1931 -0.0576,0.029 -0.12874,0 -0.19311,0 -0.0644,0.064 -0.11169,0.1523 -0.19311,0.1931 -0.11516,0.057 -0.27108,-0.058 -0.38623,0 -0.0814,0.041 -0.11169,0.1523 -0.19311,0.1931 -0.10476,0.052 -0.71961,-0.053 -0.77245,0 -0.0455,0.045 0.0455,0.1476 0,0.1931 -0.0465,0.046 -0.72598,-0.046 -0.77245,0 -0.0455,0.045 0.0455,0.1476 0,0.1931 -0.0528,0.053 -0.66769,-0.052 -0.77245,0 -0.0814,0.041 -0.11169,0.1524 -0.19311,0.1931 -0.11516,0.058 -0.27108,-0.058 -0.38623,0 -0.0814,0.041 -0.10675,0.1644 -0.19311,0.1931 -0.1068,0.035 -0.96421,0 -1.15868,0 -0.0644,0 -0.12874,0 -0.19311,0 -0.0644,0 -0.13554,-0.029 -0.19311,0 -0.0814,0.041 -0.11169,0.1525 -0.19312,0.1932 -0.15449,0.077 -0.42484,-0.077 -0.57933,0 -0.0814,0.041 -0.11169,0.1524 -0.19311,0.1931 -0.15449,0.077 -0.42485,-0.077 -0.57934,0 -0.0814,0.041 -0.11169,0.1524 -0.19311,0.1931 -0.12138,0.061 -0.65108,-0.061 -0.77246,0 -0.0814,0.04 -0.11169,0.1524 -0.19311,0.1931 -0.0508,0.025 -0.67147,0 -0.77245,0 -0.0468,0 -0.57312,-0.01 -0.57933,0 -0.0455,0.045 -0.0455,0.1476 0,0.1931 0.0455,0.046 0.14759,-0.046 0.19311,0 0.0455,0.046 -0.0455,0.1476 0,0.1931 0.0455,0.046 0.14759,-0.045 0.19311,0 0.39956,0.3996 -0.61057,-0.016 0.19311,0.3862 0.0576,0.029 0.1476,-0.045 0.19311,0 0.091,0.091 -0.091,0.2952 0,0.3863 0.0455,0.045 0.1476,-0.046 0.19312,0 0,0.5149 -0.0644,-0.064 0.19311,0.1931 0.0455,0.045 -0.0288,0.1355 0,0.1931 0.0407,0.081 0.1524,0.1117 0.19311,0.1931 0.0288,0.058 -0.0455,0.1476 0,0.1931 0.28415,0 0.1476,-0.045 0.38623,0.1931 0.0644,0.064 0.12874,0.1288 0.19311,0.1931 0,0.064 -0.0455,0.1476 0,0.1931 0.0455,0.046 0.1476,-0.045 0.19311,0 0.091,0.091 -0.091,0.2952 0,0.3863 0.0455,0.045 0.13554,-0.029 0.19312,0 0.0814,0.04 0.12874,0.1287 0.19311,0.1931 0.0644,0.064 0.1524,0.1117 0.19311,0.1931 0.0288,0.058 -0.0455,0.1476 0,0.1931 0.0455,0.045 0.13554,-0.029 0.19311,0 0.0814,0.041 0.12875,0.1287 0.19312,0.1931 0.0644,0.064 0.1524,0.1117 0.19311,0.1931 0.0288,0.058 -0.0455,0.1476 0,0.1931 0.0455,0.046 0.14759,-0.046 0.19311,0 0.0455,0.046 -0.0455,0.1476 0,0.1931 0.0455,0.046 0.13554,-0.029 0.19311,0 0.80369,0.4019 -0.20644,-0.013 0.19311,0.3863 0.0455,0.045 0.12875,0 0.19312,0 0,0.064 -0.0455,0.1476 0,0.1931 0.0455,0.046 0.14759,-0.046 0.19311,0 0.0455,0.046 -0.0455,0.1476 0,0.1931 0.0455,0.045 0.1476,-0.046 0.19311,0 0.0455,0.045 -0.0455,0.1476 0,0.1931 0.0455,0.046 0.1476,-0.045 0.19311,0 0.0455,0.046 -0.0455,0.1476 0,0.1931 0.0455,0.046 0.13554,-0.029 0.19312,0 0.0513,0.026 0.5537,0.5281 0.57934,0.5793 0.0288,0.058 -0.0455,0.1477 0,0.1932 0.0455,0.045 0.13553,-0.029 0.19311,0 0.16284,0.081 0.22338,0.3048 0.38622,0.3862 0.0576,0.029 0.1476,-0.045 0.19312,0 0.0455,0.045 -0.0288,0.1356 0,0.1931 0.21348,0.427 0.11985,0.06 0.38622,0.1931 0.0814,0.04 0.11169,0.1524 0.19311,0.1931 0.0216,0.011 0.94401,0.011 0.96556,0 0.0814,-0.04 0.11169,-0.1523 0.19312,-0.1931 0.0576,-0.029 0.12874,0 0.19311,0 0.0644,0 0.12874,0 0.19311,0 0.38623,0 0.77245,0 1.15868,0"
         style="color:#000000;clip-rule:nonzero;display:inline;overflow:visible;visibility:visible;opacity:1;isolation:auto;mix-blend-mode:normal;color-interpolation:sRGB;color-interpolation-filters:linearRGB;solid-color:#000000;solid-opacity:1;fill:none;fill-opacity:1;fill-rule:evenodd;stroke:#000000;stroke-width:1.38269389;stroke-linecap:butt;stroke-linejoin:miter;stroke-miterlimit:4;stroke-dasharray:none;stroke-dashoffset:0;stroke-opacity:1;color-rendering:auto;image-rendering:auto;shape-rendering:auto;text-rendering:auto;enable-background:accumulate" />
      <path
         inkscape:connector-curvature="0"
         id="path7138"
         d="m 193.08263,1110.688 c 0,0.3863 0,0.7725 0,1.1587 0,0.4529 -0.0455,-0.091 0.19311,0.3862 0.0254,0.051 0,0.6715 0,0.7725 0,0.5149 0,1.0299 0,1.5449 0,0.087 -0.0294,0.5205 0,0.5793 0.0407,0.081 0.1524,0.1117 0.19312,0.1931 0.0349,0.07 0,0.8313 0,0.9656 0,0.3862 0,0.7724 0,1.1586 0,0.1269 -0.0363,0.4705 0,0.5794 0.0455,0.1366 0.14759,0.2497 0.19311,0.3862 0.0363,0.109 0,0.4525 0,0.5793 0,0.4506 0,0.9012 0,1.3519 0,0.064 0,0.1287 0,0.1931 0,0.064 -0.0455,0.1476 0,0.1931 0.0455,0.045 0.14759,-0.046 0.19311,0 0.0455,0.045 0,0.1287 0,0.1931 0,0.3862 0,0.7724 0,1.1587 0,0.064 0,0.1287 0,0.1931 0,0.064 -0.0455,0.1476 0,0.1931 0.0455,0.045 0.1476,-0.046 0.19312,0 0.0455,0.045 0.0455,0.1476 0,0.1931 -0.0455,0.045 -0.1476,-0.045 -0.19312,0 -0.0455,0.045 0,0.1288 0,0.1931 0,0.064 0,0.1288 0,0.1931 0,0.6437 0,1.2874 0,1.9312 0,0.6437 0,1.2874 0,1.9311 0,0.1009 -0.0254,0.7217 0,0.7724 0.0407,0.082 0.1524,0.1117 0.19312,0.1931 0.0288,0.058 0,0.1288 0,0.1931 0,0.064 0,0.1288 0,0.1931 0,0.3219 0,0.6438 0,0.9656 0,0.064 -0.0288,0.1356 0,0.1931 0.0407,0.082 0.15239,0.1117 0.19311,0.1931 0.0524,0.1048 -0.0528,0.7196 0,0.7725 0.0455,0.045 0.14759,-0.046 0.19311,0 0.0528,0.053 -0.0524,0.6677 0,0.7725 0.0407,0.081 0.1524,0.1116 0.19311,0.1931 0.0576,0.1151 -0.0576,0.271 0,0.3862 0.0407,0.081 0.1524,0.1117 0.19311,0.1931 0.0772,0.1545 -0.0772,0.4248 0,0.5793 0.0407,0.082 0.15241,0.1117 0.19312,0.1932 0.0772,0.1544 -0.0772,0.4248 0,0.5793 0.0407,0.081 0.1524,0.1116 0.19311,0.1931 0.025,0.05 0,1.0218 0,1.1587 0,0.064 -0.0455,0.1476 0,0.1931 0.0455,0.045 0.1476,-0.046 0.19311,0 0.0455,0.045 0,0.1287 0,0.1931 0,0.064 0,0.1287 0,0.1931 0,0.3862 0,0.7725 0,1.1587 0,0.064 0,0.1287 0,0.1931 0,0.064 0.0288,0.1355 0,0.1931 -0.0407,0.081 -0.1524,0.1117 -0.19311,0.1931 -0.0198,0.04 -0.0272,0.5521 0,0.5793 0.0455,0.046 0.1476,-0.045 0.19311,0 0.091,0.091 -0.091,0.2953 0,0.3863 0.091,0.091 0.27108,-0.058 0.38623,0 0.0814,0.041 0.11169,0.1524 0.19311,0.1931 0.0766,0.038 0.53986,-0.04 0.57934,0 0.0455,0.046 -0.0455,0.1476 0,0.1931 0.0455,0.045 0.19311,-0.064 0.19311,0 0,0.064 -0.1476,-0.046 -0.19311,0 -0.12988,0.1299 0.12987,0.2563 0,0.3862 -0.0455,0.046 -0.1476,-0.045 -0.19312,0 -0.0455,0.046 0.0455,0.1476 0,0.1931 -0.0455,0.046 -0.14759,-0.045 -0.19311,0 -0.0455,0.046 0.0455,0.1476 0,0.1931 -0.091,0.091 -0.29519,-0.091 -0.38622,0 -0.0455,0.046 0.0455,0.1477 0,0.1931 -0.0455,0.046 -0.19312,0.064 -0.19312,0 0,-0.064 0.1476,-0.046 0.19312,0 0.0455,0.046 0,0.1288 0,0.1932"
         style="color:#000000;clip-rule:nonzero;display:inline;overflow:visible;visibility:visible;opacity:1;isolation:auto;mix-blend-mode:normal;color-interpolation:sRGB;color-interpolation-filters:linearRGB;solid-color:#000000;solid-opacity:1;fill:none;fill-opacity:1;fill-rule:evenodd;stroke:#000000;stroke-width:1.38269389;stroke-linecap:butt;stroke-linejoin:miter;stroke-miterlimit:4;stroke-dasharray:none;stroke-dashoffset:0;stroke-opacity:1;color-rendering:auto;image-rendering:auto;shape-rendering:auto;text-rendering:auto;enable-background:accumulate" />
      <path
         inkscape:connector-curvature="0"
         id="path7140"
         d="m 189.41349,1107.5982 c -0.55212,0.3511 -0.66431,-0.4287 -0.96556,-0.5793 -0.11515,-0.058 -0.29519,0.091 -0.38622,0 -0.0455,-0.046 0.0455,-0.1476 0,-0.1931 -0.0455,-0.046 -0.12874,0 -0.19311,0 0,-0.064 0.0455,-0.1476 0,-0.1931 -0.091,-0.091 -0.27108,0.057 -0.38623,0 -0.0814,-0.041 -0.11169,-0.1525 -0.19311,-0.1932 -0.11515,-0.057 -0.29519,0.091 -0.38623,0 -0.0455,-0.045 0.0455,-0.1475 0,-0.1931 -0.0455,-0.045 -0.13553,0.029 -0.19311,0 -0.0814,-0.04 -0.11169,-0.1524 -0.19311,-0.1931 -0.15449,-0.077 -0.42485,0.077 -0.57934,0 -0.0814,-0.041 -0.11169,-0.1524 -0.19311,-0.1931 -0.15449,-0.077 -0.42485,0.077 -0.57934,0 -0.0814,-0.041 -0.11169,-0.1524 -0.19311,-0.1931 -0.12138,-0.061 -0.65108,0.061 -0.77245,0 -0.0814,-0.041 -0.11169,-0.1524 -0.19311,-0.1931 -0.11516,-0.058 -0.27108,0.058 -0.38623,0 -0.0814,-0.04 -0.11169,-0.1524 -0.19311,-0.1931 -0.15449,-0.077 -0.42485,0.077 -0.57934,0 -0.0814,-0.041 -0.11169,-0.1524 -0.19311,-0.1931 -0.15449,-0.077 -0.42485,0.077 -0.57934,0 -0.0814,-0.041 -0.11169,-0.1524 -0.19311,-0.1932 -0.11515,-0.058 -0.29519,0.091 -0.38622,0 -0.0455,-0.046 0.0455,-0.1475 0,-0.1931 -0.091,-0.091 -0.2952,0.091 -0.38623,0 -0.0455,-0.045 0.0455,-0.1475 0,-0.1931 -0.0395,-0.039 -0.50277,0.038 -0.57934,0 -0.0814,-0.041 -0.11169,-0.1524 -0.19311,-0.1931 -0.10476,-0.052 -0.71961,0.053 -0.77245,0 -0.0455,-0.045 0.0455,-0.1476 0,-0.1931 -0.008,-0.01 -0.70153,0 -0.77245,0 -0.53477,0 0.14854,-0.1931 -0.38622,-0.1931 -0.45289,0 0.091,0.045 -0.38623,-0.1931 -0.11515,-0.058 -0.29519,0.091 -0.38623,0 -0.0455,-0.046 0.0455,-0.1476 0,-0.1931 -0.091,-0.091 -0.29519,0.091 -0.38622,0 -0.0455,-0.046 0.0455,-0.1476 0,-0.1931 -0.091,-0.091 -0.29519,0.091 -0.38623,0 -0.0455,-0.046 0.0455,-0.1476 0,-0.1932 -0.0455,-0.045 -0.12874,0 -0.19311,0 -0.0644,0 -0.14759,-0.045 -0.19311,0 -0.0455,0.046 0,0.1288 0,0.1932 0,0.064 -0.0455,0.1475 0,0.1931 0.0455,0.046 0.1476,-0.046 0.19311,0 0.0966,0.097 -0.0966,0.4827 0,0.5793 0.0455,0.046 0.1476,-0.045 0.19311,0 0.091,0.091 -0.0576,0.2711 0,0.3862 0.0407,0.081 0.15241,0.1117 0.19312,0.1931 0.0288,0.058 0,0.1288 0,0.1931 0.0644,0.064 0.1524,0.1118 0.19311,0.1932 0.0383,0.076 -0.0395,0.5398 0,0.5793 0.0455,0.046 0.1476,-0.046 0.19311,0 0.0455,0.046 -0.0288,0.1355 0,0.1931 0.0407,0.081 0.1524,0.1117 0.19311,0.1931 0.0576,0.1152 -0.0576,0.2711 0,0.3862 0.0407,0.082 0.1524,0.1117 0.19312,0.1932 0.0288,0.057 -0.0288,0.1355 0,0.1931 0.0407,0.081 0.1524,0.1117 0.19311,0.1931 0.0864,0.1727 -0.0864,0.4066 0,0.5793 0.0288,0.058 0.14759,-0.045 0.19311,0 0.0678,0.068 -0.0667,0.8322 0,0.9656 0.0407,0.081 0.1524,0.1117 0.19312,0.1931 0.0772,0.1545 -0.0772,0.4248 0,0.5793 0.0407,0.082 0.15239,0.1117 0.19311,0.1931 0.0609,0.1219 -0.0609,0.8438 0,0.9656 0.0407,0.081 0.1524,0.1117 0.19311,0.1931 0.0349,0.07 0,0.8312 0,0.9656 0,0.064 -0.0455,0.1476 0,0.1931 0.0455,0.045 0.14759,-0.045 0.19311,0 0.0528,0.053 -0.0524,0.6677 0,0.7725 0.0407,0.081 0.1524,0.1116 0.19311,0.1931 0.0383,0.076 -0.0395,0.5398 0,0.5793 0.0455,0.046 0.1476,-0.045 0.19312,0 0.0395,0.04 -0.0383,0.5028 0,0.5793 0.0407,0.081 0.1524,0.1117 0.19311,0.1932 0.0576,0.1151 -0.0576,0.271 0,0.3862 0.0407,0.081 0.1524,0.1117 0.19311,0.1931 0.0772,0.1545 -0.0772,0.4248 0,0.5793 0.23863,0.4773 0.19311,-0.067 0.19311,0.3862 0,0.071 -0.008,0.7647 0,0.7725 0.0455,0.046 0.1476,-0.046 0.19311,0 0.0529,0.053 -0.0524,0.6677 0,0.7724 0.0407,0.082 0.15241,0.1117 0.19312,0.1931 0.0524,0.1048 -0.0528,0.7197 0,0.7725 0.0455,0.045 0.1476,-0.045 0.19311,0 0.091,0.091 -0.091,0.2952 0,0.3862 0.0455,0.046 0.12874,0 0.19311,0 0.0644,0 0.12875,0 0.19312,0 0.0644,0 0.14759,0.046 0.19311,0 0.0455,-0.046 -0.0455,-0.1476 0,-0.1931 0.0455,-0.045 0.14759,0.046 0.19311,0 0.0455,-0.045 -0.0288,-0.1355 0,-0.1931 0.0407,-0.081 0.1524,-0.1117 0.19312,-0.1931 0.0576,-0.1151 -0.091,-0.2952 0,-0.3862 0.0455,-0.046 0.14759,0.045 0.19311,0 0.0455,-0.046 0,-0.1288 0,-0.1932 0,-0.064 0.0455,-0.1475 0,-0.1931 -0.0455,-0.045 -0.1476,0.046 -0.19311,0 -0.0395,-0.039 0.0383,-0.5027 0,-0.5793 -0.0407,-0.081 -0.15241,-0.1117 -0.19312,-0.1931 -0.0288,-0.058 0.0455,-0.1476 0,-0.1931 -0.0455,-0.046 -0.19311,0.064 -0.19311,0 0,-0.064 0.12874,0 0.19311,0"
         style="color:#000000;clip-rule:nonzero;display:inline;overflow:visible;visibility:visible;opacity:1;isolation:auto;mix-blend-mode:normal;color-interpolation:sRGB;color-interpolation-filters:linearRGB;solid-color:#000000;solid-opacity:1;fill:none;fill-opacity:1;fill-rule:evenodd;stroke:#000000;stroke-width:1.38269389;stroke-linecap:butt;stroke-linejoin:miter;stroke-miterlimit:4;stroke-dasharray:none;stroke-dashoffset:0;stroke-opacity:1;color-rendering:auto;image-rendering:auto;shape-rendering:auto;text-rendering:auto;enable-background:accumulate" />
      <path
         inkscape:connector-curvature="0"
         id="path7144"
         d="m 101.64591,1102.4154 c -0.15481,0.8139 -0.67198,0.046 -0.96556,0.1931 -0.0814,0.04 -0.11169,0.1524 -0.19311,0.1931 -0.11515,0.058 -0.27108,-0.058 -0.38623,0 -0.0814,0.041 -0.111684,0.1524 -0.193111,0.1931 -0.115148,0.058 -0.271074,-0.058 -0.386222,0 -0.08143,0.041 -0.111689,0.1524 -0.193115,0.1931 -0.05757,0.029 -0.135535,-0.029 -0.193111,0 -0.08142,0.041 -0.111689,0.1524 -0.193111,0.1932 -0.05758,0.028 -0.13554,-0.029 -0.193112,0 -0.08143,0.04 -0.111689,0.1523 -0.193115,0.1931 -0.05757,0.029 -0.132044,-0.02 -0.193111,0 -0.136551,0.045 -0.249676,0.1475 -0.386227,0.1931 -0.122135,0.04 -0.264087,-0.041 -0.386222,0 -0.136551,0.045 -0.249675,0.1476 -0.386227,0.1931 -0.122135,0.041 -0.271074,-0.058 -0.386226,0 -0.08142,0.041 -0.106749,0.1643 -0.193111,0.1931 -0.173801,0.058 -0.405537,-0.058 -0.579338,0 -0.136551,0.046 -0.249671,0.1476 -0.386222,0.1931 -0.06107,0.02 -0.13554,-0.029 -0.193116,0 -0.08142,0.041 -0.106749,0.1643 -0.193111,0.1931 -0.122135,0.04 -0.257481,0 -0.386227,0 -0.06437,0 -0.135534,-0.029 -0.193111,0 -0.08142,0.04 -0.111689,0.1524 -0.193111,0.1931 -0.05758,0.029 -0.12874,0 -0.193115,0 -0.128741,0 -0.264087,-0.041 -0.386222,0 -0.08636,0.029 -0.111689,0.1524 -0.193112,0.1931 -0.05758,0.029 -0.135539,-0.028 -0.193115,0 -0.640475,0.6405 0.182071,-0.091 -0.386222,0.1932 -0.08143,0.041 -0.111689,0.1524 -0.193116,0.1931 -0.115148,0.058 -0.264087,-0.041 -0.386222,0 -0.136551,0.045 -0.249675,0.1476 -0.386227,0.1931 -0.06107,0.02 -0.135539,-0.029 -0.193111,0 -0.08143,0.041 -0.111689,0.1524 -0.193115,0.1931 -0.05757,0.029 -0.128741,0 -0.193111,0 -0.128741,0 -0.264092,-0.041 -0.386222,0 -0.08637,0.029 -0.106754,0.1643 -0.193116,0.1931 -0.122135,0.041 -0.257482,0 -0.386222,0 -0.06437,0 -0.13554,-0.029 -0.193116,0 -0.08142,0.041 -0.111689,0.1524 -0.193111,0.1931 -0.05758,0.029 -0.135539,-0.029 -0.193111,0 -0.08143,0.041 -0.111689,0.1524 -0.193116,0.1931 -0.05757,0.029 -0.135534,-0.029 -0.193111,0 -0.162848,0.081 -0.223378,0.3048 -0.386226,0.3862 -0.154486,0.077 -0.424847,-0.077 -0.579338,0 -0.08142,0.041 -0.111689,0.1525 -0.193111,0.1932 -0.115148,0.058 -0.271074,-0.058 -0.386222,0 -0.08143,0.041 -0.106754,0.1643 -0.193116,0.1931 -0.122135,0.041 -0.257481,0 -0.386222,0 -0.06437,0 -0.135539,-0.029 -0.193116,0 -0.08142,0.041 -0.111689,0.1524 -0.193111,0.1931 -0.05758,0.029 -0.135539,-0.029 -0.193111,0 -0.08143,0.041 -0.106753,0.1643 -0.193115,0.1931 -0.178898,0.06 -0.780517,-0.062 -0.96556,0 -0.136551,0.045 -0.246585,0.1582 -0.386227,0.1931 -0.263042,0.066 -0.925049,-0.078 -1.158675,0 -0.08636,0.028 -0.106749,0.1643 -0.193111,0.1931 -0.178585,0.06 -1.031444,-0.064 -1.158676,0 -0.08142,0.041 -0.106749,0.1643 -0.193111,0.1931 -0.08833,0.03 -0.686519,-0.043 -0.772449,0 -0.08143,0.041 -0.106753,0.1644 -0.193115,0.1931 -0.09885,0.033 -1.020616,0 -1.158671,0 -0.06437,0 -0.135539,-0.029 -0.193116,0 -0.08142,0.041 -0.111689,0.1525 -0.193111,0.1932 -0.154491,0.077 -0.424847,-0.077 -0.579338,0 -0.08142,0.041 -0.111689,0.1524 -0.193111,0.1931 -0.115152,0.057 -0.295191,-0.091 -0.386226,0 -0.04554,0.045 0.04554,0.1475 0,0.1931 -0.09104,0.091 -0.271074,-0.058 -0.386227,0 -0.08142,0.041 -0.111689,0.1524 -0.193111,0.1931 -0.07657,0.038 -0.539857,-0.04 -0.579338,0 -0.04554,0.045 0.04554,0.1476 0,0.1931 -0.09655,0.097 -0.482782,-0.097 -0.579338,0 -0.04554,0.046 0.04554,0.1476 0,0.1931 -0.09103,0.091 -0.295191,-0.091 -0.386222,0 -0.04554,0.046 0.04554,0.1476 0,0.1931 -0.03947,0.04 -0.502773,-0.038 -0.579337,0 -0.08143,0.041 -0.111689,0.1524 -0.193116,0.1931 -0.121827,0.061 -0.843733,-0.061 -0.96556,0 -0.08142,0.041 -0.111689,0.1524 -0.193111,0.1931 -0.115153,0.058 -0.295191,-0.091 -0.386227,0 -0.04554,0.046 0.06437,0.1932 0,0.1932 -0.09104,0 -0.10208,-0.1932 -0.193111,-0.1932 -0.09104,0 -0.111689,0.1525 -0.193115,0.1932 -0.05757,0.029 -0.128741,0 -0.193111,0 -0.58564,-0.1888 -1.002239,-0.1932 -1.544898,-0.1932 -0.06437,0 -0.135539,-0.028 -0.193111,0 -0.08143,0.041 -0.111689,0.1525 -0.193116,0.1932 -0.104761,0.052 -0.71961,-0.053 -0.772448,0 -0.04549,0.046 0.04554,0.1476 0,0.1931 -0.03947,0.039 -0.502769,-0.038 -0.579338,0 -0.08142,0.041 -0.111689,0.1524 -0.193111,0.1931 -0.05758,0.029 -0.135539,-0.029 -0.193116,0 -0.08142,0.041 -0.111689,0.1524 -0.193111,0.1931 -0.05758,0.029 -0.147595,-0.045 -0.193111,0 -0.04554,0.045 0.04549,0.1476 0,0.1931 -0.09104,0.091 -0.271074,-0.057 -0.386227,0 -0.08142,0.041 -0.111689,0.1524 -0.193111,0.1931 -0.115152,0.058 -0.271074,-0.057 -0.386226,0 -0.08142,0.041 -0.111689,0.1524 -0.193111,0.1931 -0.05758,0.029 -0.147596,-0.046 -0.193111,0 -0.04554,0.046 0.04554,0.1477 0,0.1931 -0.09104,0.091 -0.295191,-0.091 -0.386227,0 -0.04554,0.046 0.04554,0.1477 0,0.1931 -0.09104,0.091 -0.295191,-0.091 -0.386227,0 -0.04554,0.046 0.04554,0.1477 0,0.1932 -0.09103,0.091 -0.295191,-0.091 -0.386222,0 -0.04554,0.045 0.04554,0.1476 0,0.1931 -0.09104,0.091 -0.295191,-0.091 -0.386227,0 -0.04554,0.046 0.04554,0.1476 0,0.1931 -0.09103,0.091 -0.271074,-0.058 -0.386222,0 -0.08143,0.041 -0.111689,0.1524 -0.193115,0.1931 -0.115148,0.058 -0.295191,-0.091 -0.386222,0 -0.04554,0.045 0.04554,0.1476 0,0.1931 -0.09104,0.091 -0.271079,-0.058 -0.386227,0 -0.08142,0.041 -0.111689,0.1524 -0.193111,0.1932 -0.115153,0.058 -0.271079,-0.058 -0.386227,0 -0.640474,0.6404 0.182067,-0.091 -0.386227,0.1931 -0.08142,0.041 -0.111689,0.1523 -0.193111,0.1931 -0.05758,0.029 -0.135534,-0.029 -0.193111,0 -0.162848,0.081 -0.223378,0.3048 -0.386226,0.3862 -0.115148,0.057 -0.271074,-0.058 -0.386222,0 -0.08143,0.041 -0.111689,0.1524 -0.193116,0.1931 -0.05757,0.029 -0.135535,-0.029 -0.193111,0 -0.08142,0.041 -0.111689,0.1524 -0.193111,0.1931 -0.05758,0.029 -0.135539,-0.029 -0.193116,0 -0.08142,0.041 -0.111689,0.1524 -0.193111,0.1931 -0.05758,0.029 -0.147595,-0.046 -0.193111,0 -0.04554,0.045 0.04554,0.1476 0,0.1932 -0.04554,0.045 -0.135539,-0.029 -0.193116,0 -0.08142,0.041 -0.111689,0.1524 -0.193111,0.1931 -0.05758,0.029 -0.135534,-0.029 -0.193111,0 -0.162848,0.081 -0.223378,0.3047 -0.386226,0.3862 -0.05757,0.029 -0.135535,-0.029 -0.193111,0 -0.08142,0.04 -0.111689,0.1524 -0.193111,0.1931 -0.05758,0.028 -0.13554,-0.029 -0.193116,0 -0.08142,0.041 -0.111689,0.1524 -0.193111,0.1931 -0.05758,0.029 -0.147596,-0.046 -0.193111,0 -0.04554,0.046 0.04554,0.1476 0,0.1931 -0.04554,0.046 -0.135539,-0.029 -0.193116,0 -0.08142,0.041 -0.111689,0.1524 -0.193111,0.1931 -0.115148,0.058 -0.295191,-0.091 -0.386226,0 -0.04554,0.046 0.05758,0.1644 0,0.1932 -0.115149,0.058 -0.271074,-0.058 -0.386223,0 -0.05758,0.029 0.04554,0.1475 0,0.1931 -0.04554,0.045 -0.135539,-0.029 -0.193111,0 -0.08143,0.04 -0.111693,0.1524 -0.193115,0.1931 -0.05758,0.029 -0.135535,-0.029 -0.193111,0 -0.08142,0.041 -0.111689,0.1524 -0.193111,0.1931 -0.05758,0.029 -0.147596,-0.046 -0.193116,0 -0.04554,0.045 0.04554,0.1476 0,0.1931 -0.04554,0.045 -0.135535,-0.028 -0.193111,0 -0.08142,0.041 -0.111689,0.1524 -0.193111,0.1931 -0.115153,0.058 -0.295191,-0.091 -0.386227,0 -0.04554,0.046 0.04554,0.1476 0,0.1931 -0.04554,0.046 -0.135539,-0.029 -0.193111,0 -0.162848,0.081 -0.223378,0.3048 -0.386227,0.3862 -0.05758,0.029 -0.12874,0 -0.193111,0 -0.06437,0.064 -0.111689,0.1525 -0.193115,0.1932 -0.115148,0.058 -0.295187,-0.091 -0.386222,0 -0.04554,0.045 0.04554,0.1475 0,0.1931 -0.04554,0.046 -0.13554,-0.029 -0.193111,0 -0.08143,0.041 -0.111689,0.1524 -0.193116,0.1931 -0.05757,0.029 -0.135535,-0.029 -0.193111,0 -0.08142,0.041 -0.111689,0.1524 -0.193111,0.1931 -0.05758,0.029 -0.135539,-0.029 -0.193116,0 -0.08142,0.041 -0.111689,0.1524 -0.193111,0.1931 -0.05758,0.028 -0.135539,-0.029 -0.193111,0 -0.162848,0.081 -0.223378,0.3048 -0.386227,0.3862 -0.05758,0.029 -0.12874,0 -0.193111,0 -0.06437,0.064 -0.111689,0.1524 -0.193115,0.1931 -0.115148,0.058 -0.271074,-0.057 -0.386222,0 -0.08142,0.041 -0.111689,0.1524 -0.193111,0.1931 -0.05758,0.029 -0.13554,-0.029 -0.193116,0 -0.08142,0.041 -0.111689,0.1525 -0.193111,0.1932 -0.05758,0.029 -0.147596,-0.046 -0.193111,0 -0.04554,0.045 0.04554,0.1475 0,0.1931 -0.04554,0.045 -0.135539,-0.029 -0.193116,0 -0.08142,0.041 -0.111689,0.1524 -0.193111,0.1931 -0.05758,0.029 -0.135539,-0.029 -0.193111,0 -0.08143,0.041 -0.111689,0.1524 -0.193115,0.1931 -0.115149,0.058 -0.271074,-0.058 -0.386223,0 -0.08143,0.041 -0.111689,0.1524 -0.193115,0.1931 -0.05757,0.029 -0.135535,-0.029 -0.193111,0 -0.08142,0.041 -0.111689,0.1524 -0.193111,0.1931 -0.115153,0.058 -0.295191,-0.091 -0.386227,0 -0.04554,0.046 0.04554,0.1476 0,0.1931 -0.09103,0.091 -0.271074,-0.058 -0.386222,0 -0.08143,0.041 -0.111689,0.1524 -0.193116,0.1931 -0.115148,0.058 -0.271074,-0.057 -0.386222,0 -0.08143,0.041 -0.111689,0.1525 -0.193115,0.1932 -0.05757,0.029 -0.135535,-0.029 -0.193111,0 -0.08142,0.041 -0.11169,0.1524 -0.193112,0.1931 -0.05758,0.029 -0.135539,-0.029 -0.193115,0 -0.08142,0.041 -0.111689,0.1524 -0.193111,0.1931 -0.115148,0.058 -0.271074,-0.058 -0.386222,0 -0.08143,0.041 -0.111694,0.1524 -0.193116,0.1931 -0.05758,0.029 -0.132043,-0.02 -0.193111,0 -0.136551,0.045 -0.249675,0.1476 -0.386227,0.1931 -0.06107,0.02 -0.135534,-0.028 -0.193111,0 -0.08142,0.041 -0.111689,0.1524 -0.193111,0.1931 -0.206593,0.1033 -0.179638,-0.1033 -0.386226,0 -0.08142,0.041 -0.11169,0.1524 -0.193112,0.1931 -0.05758,0.029 -0.135539,-0.029 -0.193115,0 -0.08142,0.04 -0.111689,0.1524 -0.193111,0.1931 -0.154491,0.077 -0.424847,-0.077 -0.579338,0 -0.08142,0.041 -0.111689,0.1524 -0.193111,0.1932 -0.115153,0.057 -0.271074,-0.058 -0.386227,0 -0.08142,0.04 -0.111689,0.1524 -0.193111,0.1931 -0.206588,0.1033 -0.179633,-0.1033 -0.386226,0 -0.08142,0.041 -0.111689,0.1524 -0.193111,0.1931 -0.154491,0.077 -0.424848,-0.077 -0.579338,0 -0.08142,0.041 -0.111689,0.1524 -0.193111,0.1931 -0.115153,0.058 -0.295191,-0.091 -0.386227,0 -0.04554,0.045 0.05758,0.1644 0,0.1931 -0.11852,0.059 -0.845849,-0.06 -0.96556,0 -0.08143,0.04 -0.111689,0.1524 -0.193115,0.1932 -0.115149,0.058 -0.295191,-0.091 -0.386223,0 -0.04554,0.045 0.04554,0.1475 0,0.1931 -0.05284,0.053 -0.667691,-0.052 -0.772453,0 -0.08142,0.04 -0.111689,0.1523 -0.193111,0.1931 -0.115148,0.058 -0.271074,-0.058 -0.386222,0 -0.08143,0.041 -0.111689,0.1523 -0.193116,0.1931 -0.115148,0.057 -0.264086,-0.041 -0.386222,0 -0.136551,0.045 -0.249675,0.1476 -0.386226,0.1931 -0.155439,0.052 -0.649049,-0.062 -0.772449,0 -0.08143,0.041 -0.111689,0.1524 -0.193116,0.1931 -0.115148,0.058 -0.295191,-0.091 -0.386222,0 -0.04554,0.045 0.04554,0.1476 0,0.1931 -0.03947,0.04 -0.502769,-0.038 -0.579338,0 -0.08142,0.041 -0.111689,0.1524 -0.193111,0.1931 -0.121376,0.061 -0.651077,-0.061 -0.772453,0 -0.08142,0.041 -0.111689,0.1524 -0.193111,0.1931 -0.154491,0.077 -0.424847,-0.077 -0.579338,0 -0.08142,0.041 -0.111689,0.1525 -0.193111,0.1932 -0.104762,0.052 -0.71961,-0.053 -0.772449,0 -0.04554,0.045 0.04554,0.1475 0,0.1931 -0.09656,0.096 -0.482782,-0.097 -0.579337,0 -0.04554,0.045 0,0.1287 0,0.1931 0,0.064 -0.04554,0.1476 0,0.1931 0.04554,0.046 0.147595,-0.046 0.193111,0 0.09103,0.091 -0.09104,0.2952 0,0.3862 0.04554,0.046 0.147595,-0.046 0.193111,0 0.129881,0.1299 -0.129877,0.2564 0,0.3862 0.04554,0.046 0.147595,-0.045 0.193115,0 0.09103,0.091 -0.09103,0.2952 0,0.3863 0.04554,0.045 0.147596,-0.046 0.193111,0 0.09104,0.091 -0.09104,0.2951 0,0.3862 0.04554,0.045 0.147596,-0.046 0.193111,0 0.04554,0.045 -0.02879,0.1355 0,0.1931 0.04071,0.081 0.152403,0.1117 0.193111,0.1931 0.03827,0.077 -0.03947,0.5399 0,0.5793 0.04554,0.046 0.147596,-0.045 0.193116,0 0.09103,0.091 -0.05758,0.2711 0,0.3863 0.04071,0.081 0.152398,0.1117 0.193111,0.1931 0.05758,0.1151 -0.09104,0.2952 0,0.3862 0.04549,0.046 0.147596,-0.045 0.193111,0 0.03947,0.04 -0.03827,0.5028 0,0.5793 0.04071,0.082 0.152402,0.1117 0.193116,0.1931 0.02879,0.058 -0.0288,0.1356 0,0.1932 0.04071,0.081 0.152398,0.1117 0.193111,0.1931 0.05758,0.1151 -0.05758,0.2711 0,0.3862 0.04071,0.081 0.152402,0.1117 0.193111,0.1931 0.03827,0.077 -0.03947,0.5399 0,0.5793 0.04554,0.046 0.147595,-0.045 0.193116,0 0.09103,0.091 -0.09104,0.2953 0,0.3863 0.04549,0.045 0.147595,-0.046 0.193111,0 0.04554,0.045 -0.04554,0.1476 0,0.1931 0.04554,0.045 0.147595,-0.045 0.193111,0 0.04554,0.045 -0.04549,0.1476 0,0.1931 0.09104,0.091 0.295191,-0.091 0.386226,0 0.04554,0.045 -0.04554,0.1476 0,0.1931 0.04554,0.045 0.135535,-0.028 0.193111,0 0.640475,0.6405 -0.182066,-0.091 0.386227,0.1931 0.08142,0.041 0.111689,0.1524 0.193111,0.1931 0.04993,0.025 1.021798,0 1.158676,0 0.06437,0 0.135539,-0.029 0.193111,0 0.08143,0.041 0.111689,0.1524 0.193115,0.1931 0.07657,0.038 0.539857,-0.04 0.579338,0 0.04554,0.046 -0.04554,0.1477 0,0.1932 0.09103,0.091 0.386222,-0.1288 0.386222,0 0,0.064 -0.193111,0.064 -0.193111,0 0,-0.064 0.128741,0 0.193111,0"
         style="color:#000000;clip-rule:nonzero;display:inline;overflow:visible;visibility:visible;opacity:1;isolation:auto;mix-blend-mode:normal;color-interpolation:sRGB;color-interpolation-filters:linearRGB;solid-color:#000000;solid-opacity:1;fill:none;fill-opacity:1;fill-rule:evenodd;stroke:#000000;stroke-width:1.38269389;stroke-linecap:butt;stroke-linejoin:miter;stroke-miterlimit:4;stroke-dasharray:none;stroke-dashoffset:0;stroke-opacity:1;color-rendering:auto;image-rendering:auto;shape-rendering:auto;text-rendering:auto;enable-background:accumulate" />
      <path
         inkscape:connector-curvature="0"
         id="path7146"
         d="m 95.466313,1104.1534 c 0.208728,0.8349 0.193116,0.507 0.193116,0.9656 0,0.064 0.0288,0.1355 0,0.1931 -0.04071,0.081 -0.152403,0.1117 -0.193116,0.1931 -0.0288,0.058 0,0.1287 0,0.1931 0,0.064 0,0.1287 0,0.1931 0,0.3862 0,0.7724 0,1.1587 0,0.064 0,0.1287 0,0.1931 0,0.064 0.0288,0.1355 0,0.1931 -0.04071,0.081 -0.152398,0.1117 -0.193111,0.1931 -0.03491,0.07 0,0.8313 0,0.9656 0,0.047 -0.0062,0.5731 0,0.5793 0.04554,0.046 0.147596,-0.046 0.193111,0 0.04554,0.046 0,0.1287 0,0.1931 0,0.064 0,0.1288 0,0.1931 0,0.4506 0,0.9012 0,1.3518 0,0.064 -0.04554,0.1476 0,0.1931 0.04554,0.046 0.147596,-0.045 0.193116,0 0.09655,0.097 -0.09656,0.4828 0,0.5793 0.04554,0.046 0.147595,-0.045 0.193111,0 0.06779,0.068 -0.06669,0.8323 0,0.9656 0.04071,0.082 0.152402,0.1117 0.193111,0.1932 0.07724,0.1544 -0.07725,0.4248 0,0.5793 0.04071,0.081 0.152402,0.1117 0.193115,0.1931 0.0288,0.057 0,0.1288 0,0.1931 0,0.064 0,0.1288 0,0.1931 0,0.3863 0,0.7725 0,1.1587 0,0.064 0,0.1287 0,0.1931 0,0.064 -0.04554,0.1476 0,0.1931 0.04554,0.046 0.147596,-0.045 0.193112,0 0.04554,0.046 0,0.1288 0,0.1931 0,0.1343 0.03491,0.8957 0,0.9656 -0.04071,0.081 -0.152403,0.1117 -0.193112,0.1931 -0.02539,0.051 0,0.6715 0,0.7725 0,0.5149 0,1.0299 0,1.5449 0,1.4161 0,2.8323 0,4.2485 0,1.4161 0,2.8323 0,4.2484 0,0.3862 0,0.7725 0,1.1587 0,0.087 -0.02939,0.5205 0,0.5793 0.04071,0.081 0.152398,0.1117 0.193112,0.1931 0.05238,0.1048 -0.05284,0.7196 0,0.7725 0.04554,0.045 0.147595,-0.046 0.193111,0 0.09104,0.091 -0.09103,0.2952 0,0.3862 0.04554,0.046 0.147595,-0.045 0.193111,0 0.129881,0.1299 -0.129877,0.2563 0,0.3862 0.04554,0.046 0.147595,-0.045 0.193115,0 0.04554,0.046 -0.04554,0.1476 0,0.1931 0.04554,0.046 0.147596,-0.045 0.193111,0 0.04554,0.046 -0.04554,0.1477 0,0.1931 0.04554,0.046 0.147596,-0.045 0.193111,0 0.04554,0.046 -0.04554,0.1477 0,0.1932 0.09656,0.097 0.482783,-0.097 0.579338,0 0.04554,0.046 -0.04554,0.1476 0,0.1931 0.283231,0.2832 0.173801,-0.3669 0.193116,-0.3863 0.04554,-0.045 0.147595,0.046 0.193111,0 0.09104,-0.091 -0.09104,-0.2951 0,-0.3862 0.04554,-0.045 0.147595,0.046 0.193111,0 0.0062,-0.01 0,-0.5325 0,-0.5793 0,-0.064 0,-0.1288 0,-0.1931 0,-0.064 0.0288,-0.1356 0,-0.1931 -0.238627,-0.4773 -0.193111,-0.1154 -0.193111,0"
         style="color:#000000;clip-rule:nonzero;display:inline;overflow:visible;visibility:visible;opacity:1;isolation:auto;mix-blend-mode:normal;color-interpolation:sRGB;color-interpolation-filters:linearRGB;solid-color:#000000;solid-opacity:1;fill:none;fill-opacity:1;fill-rule:evenodd;stroke:#000000;stroke-width:1.38269389;stroke-linecap:butt;stroke-linejoin:miter;stroke-miterlimit:4;stroke-dasharray:none;stroke-dashoffset:0;stroke-opacity:1;color-rendering:auto;image-rendering:auto;shape-rendering:auto;text-rendering:auto;enable-background:accumulate" />
      <path
         inkscape:connector-curvature="0"
         id="path7398"
         d="m 101.05183,1130.9779 c 0.11072,5.5289 -6.843227,1.9402 -4.13505,-1.8664 1.48142,-2.6563 4.37085,-0.4822 4.13505,1.8664 z"
         style="color:#000000;clip-rule:nonzero;display:inline;overflow:visible;visibility:visible;opacity:1;isolation:auto;mix-blend-mode:normal;color-interpolation:sRGB;color-interpolation-filters:linearRGB;solid-color:#000000;solid-opacity:1;fill:#000080;fill-opacity:1;fill-rule:evenodd;stroke:#000080;stroke-width:0.78152317;stroke-linecap:butt;stroke-linejoin:miter;stroke-miterlimit:4;stroke-dasharray:none;stroke-dashoffset:0;stroke-opacity:1;marker:none;color-rendering:auto;image-rendering:auto;shape-rendering:auto;text-rendering:auto;enable-background:accumulate" />
      <path
         inkscape:connector-curvature="0"
         id="path7400"
         d="m 97.019803,1132.3547 c 0.110746,5.5291 -6.843229,1.9403 -4.135047,-1.8663 1.404639,-2.6612 4.427078,-0.4466 4.135047,1.8663 z"
         style="color:#000000;clip-rule:nonzero;display:inline;overflow:visible;visibility:visible;opacity:1;isolation:auto;mix-blend-mode:normal;color-interpolation:sRGB;color-interpolation-filters:linearRGB;solid-color:#000000;solid-opacity:1;fill:#000080;fill-opacity:1;fill-rule:evenodd;stroke:#000080;stroke-width:0.78152317;stroke-linecap:butt;stroke-linejoin:miter;stroke-miterlimit:4;stroke-dasharray:none;stroke-dashoffset:0;stroke-opacity:1;marker:none;color-rendering:auto;image-rendering:auto;shape-rendering:auto;text-rendering:auto;enable-background:accumulate" />
      <path
         inkscape:connector-curvature="0"
         id="path7402"
         d="m 95.058876,1132.5378 c 1.066256,-0.4636 2.132497,-0.9272 3.198748,-1.3908"
         style="color:#000000;clip-rule:nonzero;display:inline;overflow:visible;visibility:visible;opacity:1;isolation:auto;mix-blend-mode:normal;color-interpolation:sRGB;color-interpolation-filters:linearRGB;solid-color:#000000;solid-opacity:1;fill:#000080;fill-opacity:1;fill-rule:evenodd;stroke:#000080;stroke-width:0.78152317;stroke-linecap:butt;stroke-linejoin:miter;stroke-miterlimit:4;stroke-dasharray:none;stroke-dashoffset:0;stroke-opacity:1;marker:none;color-rendering:auto;image-rendering:auto;shape-rendering:auto;text-rendering:auto;enable-background:accumulate" />
      <path
         style="color:#000000;clip-rule:nonzero;display:inline;overflow:visible;visibility:visible;opacity:1;isolation:auto;mix-blend-mode:normal;color-interpolation:sRGB;color-interpolation-filters:linearRGB;solid-color:#000000;solid-opacity:1;fill:#000080;fill-opacity:1;fill-rule:evenodd;stroke:#000080;stroke-width:0.78152317;stroke-linecap:butt;stroke-linejoin:miter;stroke-miterlimit:4;stroke-dasharray:none;stroke-dashoffset:0;stroke-opacity:1;marker:none;color-rendering:auto;image-rendering:auto;shape-rendering:auto;text-rendering:auto;enable-background:accumulate"
         d="m 185.71353,1117.5958 c 0.11072,5.529 -6.84322,1.9403 -4.13504,-1.8663 1.48141,-2.6563 4.37084,-0.4823 4.13504,1.8663 z"
         id="path7404"
         inkscape:connector-curvature="0" />
      <path
         style="color:#000000;clip-rule:nonzero;display:inline;overflow:visible;visibility:visible;opacity:1;isolation:auto;mix-blend-mode:normal;color-interpolation:sRGB;color-interpolation-filters:linearRGB;solid-color:#000000;solid-opacity:1;fill:#000080;fill-opacity:1;fill-rule:evenodd;stroke:#000080;stroke-width:0.78152317;stroke-linecap:butt;stroke-linejoin:miter;stroke-miterlimit:4;stroke-dasharray:none;stroke-dashoffset:0;stroke-opacity:1;marker:none;color-rendering:auto;image-rendering:auto;shape-rendering:auto;text-rendering:auto;enable-background:accumulate"
         d="m 181.68151,1118.9727 c 0.11074,5.529 -6.84323,1.9402 -4.13505,-1.8664 1.40464,-2.6611 4.42708,-0.4466 4.13505,1.8664 z"
         id="path7406"
         inkscape:connector-curvature="0" />
      <path
         style="color:#000000;clip-rule:nonzero;display:inline;overflow:visible;visibility:visible;opacity:1;isolation:auto;mix-blend-mode:normal;color-interpolation:sRGB;color-interpolation-filters:linearRGB;solid-color:#000000;solid-opacity:1;fill:#000080;fill-opacity:1;fill-rule:evenodd;stroke:#000080;stroke-width:0.78152317;stroke-linecap:butt;stroke-linejoin:miter;stroke-miterlimit:4;stroke-dasharray:none;stroke-dashoffset:0;stroke-opacity:1;marker:none;color-rendering:auto;image-rendering:auto;shape-rendering:auto;text-rendering:auto;enable-background:accumulate"
         d="m 179.72058,1119.1558 c 1.06626,-0.4636 2.1325,-0.9273 3.19875,-1.3908"
         id="path7408"
         inkscape:connector-curvature="0" />
      <path
         inkscape:connector-curvature="0"
         id="path7410"
         d="m 199.91485,1136.713 c 0.11072,5.529 -6.84323,1.9403 -4.13505,-1.8663 1.48142,-2.6564 4.37085,-0.4823 4.13505,1.8663 z"
         style="color:#000000;clip-rule:nonzero;display:inline;overflow:visible;visibility:visible;opacity:1;isolation:auto;mix-blend-mode:normal;color-interpolation:sRGB;color-interpolation-filters:linearRGB;solid-color:#000000;solid-opacity:1;fill:#000080;fill-opacity:1;fill-rule:evenodd;stroke:#000080;stroke-width:0.78152317;stroke-linecap:butt;stroke-linejoin:miter;stroke-miterlimit:4;stroke-dasharray:none;stroke-dashoffset:0;stroke-opacity:1;marker:none;color-rendering:auto;image-rendering:auto;shape-rendering:auto;text-rendering:auto;enable-background:accumulate" />
      <path
         inkscape:connector-curvature="0"
         id="path7412"
         d="m 195.88282,1138.0898 c 0.11075,5.5291 -6.84323,1.9403 -4.13504,-1.8663 1.40464,-2.6612 4.42707,-0.4466 4.13504,1.8663 z"
         style="color:#000000;clip-rule:nonzero;display:inline;overflow:visible;visibility:visible;opacity:1;isolation:auto;mix-blend-mode:normal;color-interpolation:sRGB;color-interpolation-filters:linearRGB;solid-color:#000000;solid-opacity:1;fill:#000080;fill-opacity:1;fill-rule:evenodd;stroke:#000080;stroke-width:0.78152317;stroke-linecap:butt;stroke-linejoin:miter;stroke-miterlimit:4;stroke-dasharray:none;stroke-dashoffset:0;stroke-opacity:1;marker:none;color-rendering:auto;image-rendering:auto;shape-rendering:auto;text-rendering:auto;enable-background:accumulate" />
      <path
         inkscape:connector-curvature="0"
         id="path7414"
         d="m 193.9219,1138.273 c 1.06625,-0.4637 2.13249,-0.9273 3.19874,-1.3909"
         style="color:#000000;clip-rule:nonzero;display:inline;overflow:visible;visibility:visible;opacity:1;isolation:auto;mix-blend-mode:normal;color-interpolation:sRGB;color-interpolation-filters:linearRGB;solid-color:#000000;solid-opacity:1;fill:#000080;fill-opacity:1;fill-rule:evenodd;stroke:#000080;stroke-width:0.78152317;stroke-linecap:butt;stroke-linejoin:miter;stroke-miterlimit:4;stroke-dasharray:none;stroke-dashoffset:0;stroke-opacity:1;marker:none;color-rendering:auto;image-rendering:auto;shape-rendering:auto;text-rendering:auto;enable-background:accumulate" />
    </g>
  </g>
</svg>
