<?xml version="1.0" encoding="UTF-8" standalone="no"?>
<!-- Created with Inkscape (http://www.inkscape.org/) -->

<svg
   xmlns:dc="http://purl.org/dc/elements/1.1/"
   xmlns:cc="http://creativecommons.org/ns#"
   xmlns:rdf="http://www.w3.org/1999/02/22-rdf-syntax-ns#"
   xmlns:svg="http://www.w3.org/2000/svg"
   xmlns="http://www.w3.org/2000/svg"
   xmlns:sodipodi="http://sodipodi.sourceforge.net/DTD/sodipodi-0.dtd"
   xmlns:inkscape="http://www.inkscape.org/namespaces/inkscape"
   width="177.16534"
   height="106.29497"
   id="svg2"
   version="1.1"
   inkscape:version="0.91 r13725"
   sodipodi:docname="reverse_crunch.svg">
  <defs
     id="defs4" />
  <sodipodi:namedview
     id="base"
     pagecolor="#ffffff"
     bordercolor="#666666"
     borderopacity="1.0"
     inkscape:pageopacity="0.0"
     inkscape:pageshadow="2"
     inkscape:zoom="0.59548892"
     inkscape:cx="110.50756"
     inkscape:cy="-244.26852"
     inkscape:document-units="cm"
     inkscape:current-layer="layer1"
     showgrid="false"
     fit-margin-top="0"
     fit-margin-left="0"
     fit-margin-right="0"
     fit-margin-bottom="0"
     inkscape:window-width="1330"
     inkscape:window-height="747"
     inkscape:window-x="36"
     inkscape:window-y="21"
     inkscape:window-maximized="1"
     units="cm" />
  <metadata
     id="metadata7">
    <rdf:RDF>
      <cc:Work
         rdf:about="">
        <dc:format>image/svg+xml</dc:format>
        <dc:type
           rdf:resource="http://purl.org/dc/dcmitype/StillImage" />
        <dc:title></dc:title>
      </cc:Work>
    </rdf:RDF>
  </metadata>
  <g
     inkscape:label="Layer 1"
     inkscape:groupmode="layer"
     id="layer1"
     transform="translate(-32.228633,-1064.9324)">
    <path
       inkscape:connector-curvature="0"
       id="path5115"
       d="m 111.85688,962.12555 c 0.96825,7.95603 -3.43,15.02874 -5.30527,22.43173 0.55562,2.86645 -2.78231,10.36958 2.92738,7.9522"
       style="color:#000000;clip-rule:nonzero;display:inline;overflow:visible;visibility:visible;opacity:1;isolation:auto;mix-blend-mode:normal;color-interpolation:sRGB;color-interpolation-filters:linearRGB;solid-color:#000000;solid-opacity:1;fill:none;fill-opacity:1;fill-rule:evenodd;stroke:#000000;stroke-width:1.38269389;stroke-linecap:butt;stroke-linejoin:miter;stroke-miterlimit:4;stroke-dasharray:none;stroke-dashoffset:0;stroke-opacity:1;color-rendering:auto;image-rendering:auto;shape-rendering:auto;text-rendering:auto;enable-background:accumulate" />
    <g
       id="g7063"
       transform="matrix(0.20444431,0,0,0.20444431,115.62042,916.99033)">
      <path
         inkscape:connector-curvature="0"
         id="path7061"
         d="m 397.2163,795.95587 c -5.40415,0.08 -34.31984,12.7134 -43.40039,18.9609 -3.1293,2.153 -7.24148,5.8777 -9.13867,8.2774 -1.89717,2.3996 -5.30419,5.4667 -7.57227,6.8164 -2.30257,1.3703 -4.9534,4.4397 -6.00195,6.9492 -1.7379,4.1594 -1.67397,5.1148 0.86328,12.8183 1.5079,4.5783 5.40387,13.6681 8.6582,20.1993 5.61949,11.2779 10.83169,27.8225 18.14649,57.6035 3.01203,12.2631 5.64768,31.8216 4.6543,34.5371 -0.83042,2.2699 -12.50411,6.2603 -28.31055,9.6777 -13.44076,2.906 -34.38103,9.1796 -56.74024,16.9981 -13.24106,4.6301 -27.24737,12.78383 -29.49609,17.17183 -3.10813,6.065 -3.79396,22.601 -1.3125,31.6465 2.65231,9.6684 11.13614,27.0354 18.9375,38.7676 3.15499,4.7447 5.37319,8.9901 4.92969,9.4336 -2.07748,2.0775 -41.7978,6.1211 -75.875,7.7246 -16.46662,0.7748 -18.78033,1.1749 -24.6875,4.2715 -3.58492,1.8793 -9.47071,4.8772 -13.08008,6.6602 -3.60938,1.7829 -7.96875,3.9657 -9.6875,4.8515 -1.71875,0.8857 -4.11201,3.5539 -5.31836,5.9297 -1.7963,3.5376 -1.94223,5.0419 -0.80273,8.3106 1.68735,4.8404 7.21906,8.0288 12.04687,6.9433 7.47528,-1.6807 17.18429,-5.8111 22.30469,-9.4883 5.19004,-3.7272 5.92346,-3.8807 20.76172,-4.3574 8.4603,-0.2718 19.03906,-1.0228 23.50781,-1.6699 4.46875,-0.6472 14.875,-1.5226 23.125,-1.9453 8.25,-0.4226 16.90458,-1.2609 19.23242,-1.8633 2.32785,-0.6024 10.76535,-1.7537 18.75,-2.5586 l 14.51758,-1.4648 9.24805,5.375 c 15.23975,8.8571 21.94976,11.132 32.93945,11.166 9.35864,0.029 9.6875,0.1289 9.6875,3 0,1.6345 -0.70313,3.5485 -1.5625,4.2519 -0.85938,0.7033 -10.84375,1.5508 -22.1875,1.8828 -26.86324,0.7864 -61.84729,2.8885 -86.875,5.2207 -11,1.025 -29,2.4448 -40,3.1543 -11,0.7095 -25.34375,2.0944 -31.875,3.0782 -20.07779,3.0243 -31.68849,4.4592 -36.0332,4.4492 -5.59788,-0.011 -11.4668,5.7429 -11.4668,11.2422 0,2.6906 1.16055,5.102 3.6543,7.5957 3.23431,3.2344 4.52311,3.6543 11.22656,3.6543 7.0194,0 13.95075,-0.7985 33.24414,-3.8243 4.125,-0.647 17.0625,-1.7642 28.75,-2.4843 11.6875,-0.72 28.28125,-2.1678 36.875,-3.2168 19.2269,-2.347 65.87284,-5.3988 99.59961,-6.5156 22.68816,-0.7512 25.57818,-1.0913 28.75,-3.3985 4.62792,-3.3663 8.85763,-12.0011 10.07227,-20.5605 l 0.9746,-6.875 5.08594,-0.375 c 4.90449,-0.3605 5.1375,-0.205 6.5586,4.375 3.16001,10.1842 15.67556,22.6785 30.10742,30.0527 6.39354,3.2668 16.66996,3.7724 22.95508,1.1309 6.39108,-2.6859 13.77532,-11.7979 18.41015,-22.7149 4.06775,-9.5813 4.23538,-10.6046 4.29688,-26.3066 0.0628,-16.0269 -0.003,-16.4249 -3.45117,-20.9551 -1.93325,-2.5399 -6.152,-5.9531 -9.375,-7.584 -11.50548,-5.8222 -38.93714,-7.7597 -47.47266,-3.3535 -6.53997,3.3761 -13.59711,11.1003 -15.51563,16.9805 -1.53847,4.7154 -1.9142,5 -6.57617,5 -4.64291,0 -4.99606,-0.2664 -5.83398,-4.3633 -0.93246,-4.5592 -11.23231,-15.1221 -17.13477,-17.5723 -2.67145,-1.1089 -25.96377,0.5929 -45.54492,3.3262 -5.84458,0.8158 -6.07425,0.7183 -11.06836,-4.6543 -11.22451,-12.0751 -25.24573,-35.9617 -26.33203,-44.8613 -0.35823,-2.9348 0.0756,-3.1883 7.11914,-4.1543 12.75298,-1.7491 23.33341,-4.5708 33.75,-9.002 5.5,-2.3396 15.87607,-6.2892 23.05859,-8.7773 7.18252,-2.4882 15.62002,-5.8208 18.75,-7.4043 3.12998,-1.5835 9.86565,-4.11973 14.9668,-5.63673 9.86483,-2.9336 15.77909,-7.3994 16.79102,-12.6778 3.13635,-16.3599 3.50982,-21.017 2.71875,-33.914 -0.77472,-12.6302 -5.10567,-34.9498 -8.41407,-43.3653 -0.69041,-1.7562 -2.29707,-7.412 -3.57031,-12.5683 -1.27325,-5.1562 -3.96443,-14.4375 -5.98047,-20.625 -2.01603,-6.1875 -4.05677,-14.7084 -4.53711,-18.9356 l -0.875,-7.6855 6.67188,-1.4434 c 3.66878,-0.7931 10.32617,-1.7691 14.79492,-2.1699 9.50578,-0.8524 14.32864,-3.2499 16.34961,-8.1289 1.73203,-4.1815 -0.27646,-10.3492 -4.02149,-12.3535 -3.38668,-1.8124 -2.91811,-2.8671 2.66993,-6.0078 5.83206,-3.2778 7.50195,-5.8882 7.50195,-11.7266 0,-5.8589 -4.57593,-10.0393 -10.88672,-9.9453 z"
         style="fill-opacity:1" />
      <path
         inkscape:connector-curvature="0"
         id="path7047"
         d="m -398.26808,909.00207 c -2.4461,0.1609 -4.83795,1.0938 -6.62109,2.877 -5.3552,5.3552 -4.80011,8.4481 12.05469,67.1601 2.79957,9.752 6.97518,15.2827 13.05468,17.2891 3.02904,0.9994 17.69391,1.3221 48.39649,1.0664 24.22786,-0.2018 51.92578,0.1759 61.55078,0.8379 l 17.5,1.2031 0,36.25003 c 0,19.9375 -0.45919,39.4658 -1.02149,43.3965 -1.00468,7.0233 -1.10186,7.1589 -5.625,7.8926 -4.19383,0.6802 -20.28973,3.6695 -27.57617,5.1211 -5.07897,1.0118 -10.15234,7.1593 -10.15234,12.3008 0,5.6545 4.56085,10.6821 9.63086,10.6191 3.18683,-0.04 16.21249,-2.2139 26.27929,-4.3867 3.64052,-0.7857 4.1701,-0.52 5.39063,2.7168 1.66012,4.4027 8.08803,11.2815 12.89648,13.7988 3.91834,2.0513 8.88044,1.3912 12.23047,-1.627 2.67244,-2.4077 16.96037,-4.0341 47.94727,-5.457 13.75,-0.6315 32.03125,-1.722 40.625,-2.4219 16.99854,-1.3843 39.66143,-1.5026 45.624995,-0.2382 3.05859,0.6484 3.81873,1.5047 4.125,4.6367 0.36173,3.6989 0.10911,3.9114 -6.875,5.8183 -14.408115,3.9339 -31.325185,7.1191 -47.874995,9.0137 -9.28125,1.0625 -20.8125,2.4926 -25.625,3.1777 -15.10975,2.1509 -38.56596,3.762 -55.21485,3.793 -8.81918,0.016 -22.78515,0.6108 -31.03515,1.3203 -8.25,0.7095 -20.77299,1.7153 -27.82812,2.2364 -9.8366,0.7267 -13.60589,1.531 -16.16993,3.4453 -7.19643,5.3729 -6.17846,14.1299 2.125,18.2793 4.94894,2.473 10.74933,2.7155 23.97071,1.0039 5.03411,-0.6518 11.68359,-1.4857 14.77734,-1.8535 3.09375,-0.3677 21.09375,-1.2515 40,-1.9629 18.90625,-0.7114 38.03125,-1.7653 42.5,-2.3438 4.46875,-0.5785 17.125,-2.0076 28.125,-3.1738 11,-1.1661 24.78125,-3.1835 30.625,-4.4844 5.84375,-1.3008 12.87499,-2.7305 15.625,-3.1777 10.448865,-1.6991 28.933346,-8.0611 31.556636,-10.8614 3.708909,-3.9592 5.318359,-8.8381 5.318359,-16.1132 0,-3.8433 0.4804,-5.9444 1.25,-5.4688 0.6875,0.4249 1.25,1.7735 1.25,2.9981 0,1.2246 1.73365,5.6953 3.85156,9.9336 4.37461,8.7544 8.50341,11.7569 24.6211,17.9023 16.89621,6.4422 35.6231501,6.0691 50.08984,-0.998 8.69101,-4.2456 13.19097,-11.1283 15.24609,-23.3125 1.70553,-10.1116 0.94564,-29.0199 -1.45898,-36.3067 -2.26941,-6.8771 -10.29145,-15.5004 -15.85938,-17.0469 -10.85911989,-3.016 -50.50219,0.2823 -61.49023,5.1153 -6.95225,3.0579 -12.25225,7.9144 -14.58203,13.3633 -2.5113,5.8735 -4.68796,4.3257 -5.42774,-3.8614 -0.75097,-8.311 -4.810389,-13.4312 -13.183589,-16.6289 -7.20298,-2.7509 -26.418856,-1.8991 -53.056636,2.3516 -31.81629,5.0771 -83.76303,9.7839 -83.73633,7.5879 0.007,-0.6042 0.85043,-8.9727 1.87304,-18.5977 1.07979,-10.1629 1.86033,-29.474 1.86133,-46.0605 0.003,-32.81453 -0.67516,-35.81113 -8.92773,-39.50593 -2.60909,-1.1681 -5.89383,-3.5864 -7.30078,-5.375 -4.18258,-5.3173 -9.64411,-6.4166 -20.92969,-4.2109 -14.77404,2.8875 -21.14675,3.5352 -33.91015,3.4492 -10.6036,-0.072 -41.5862,-4.3534 -44.5,-6.1504 -0.65691,-0.4051 -9.49095,-1.0584 -19.63281,-1.4512 -10.14184,-0.3927 -18.98329,-1.2726 -19.64649,-1.955 -0.6632,-0.6825 -2.62378,-6.6039 -4.35742,-13.1583 -2.84286,-10.748 -8.79163,-27.5052 -12.24805,-34.5058 -1.80309,-3.652 -6.02862,-5.5279 -10.10547,-5.2598 z"
         style="fill-opacity:1" />
    </g>
  </g>
</svg>
