<?xml version="1.0" encoding="UTF-8" standalone="no"?>
<!-- Created with Inkscape (http://www.inkscape.org/) -->

<svg
   xmlns:dc="http://purl.org/dc/elements/1.1/"
   xmlns:cc="http://creativecommons.org/ns#"
   xmlns:rdf="http://www.w3.org/1999/02/22-rdf-syntax-ns#"
   xmlns:svg="http://www.w3.org/2000/svg"
   xmlns="http://www.w3.org/2000/svg"
   xmlns:sodipodi="http://sodipodi.sourceforge.net/DTD/sodipodi-0.dtd"
   xmlns:inkscape="http://www.inkscape.org/namespaces/inkscape"
   width="177.16534"
   height="106.29497"
   id="svg2"
   version="1.1"
   inkscape:version="0.91 r13725"
   sodipodi:docname="single_up.svg">
  <defs
     id="defs4" />
  <sodipodi:namedview
     id="base"
     pagecolor="#ffffff"
     bordercolor="#666666"
     borderopacity="1.0"
     inkscape:pageopacity="0.0"
     inkscape:pageshadow="2"
     inkscape:zoom="1.6637"
     inkscape:cx="-46.285584"
     inkscape:cy="-4.4405596"
     inkscape:document-units="cm"
     inkscape:current-layer="layer1"
     showgrid="false"
     fit-margin-top="0"
     fit-margin-left="0"
     fit-margin-right="0"
     fit-margin-bottom="0"
     inkscape:window-width="1330"
     inkscape:window-height="747"
     inkscape:window-x="36"
     inkscape:window-y="21"
     inkscape:window-maximized="1"
     units="cm" />
  <metadata
     id="metadata7">
    <rdf:RDF>
      <cc:Work
         rdf:about="">
        <dc:format>image/svg+xml</dc:format>
        <dc:type
           rdf:resource="http://purl.org/dc/dcmitype/StillImage" />
        <dc:title></dc:title>
      </cc:Work>
    </rdf:RDF>
  </metadata>
  <g
     inkscape:label="Layer 1"
     inkscape:groupmode="layer"
     id="layer1"
     transform="translate(-32.228633,-1064.9324)">
    <path
       style="fill:#000000"
       d="m -91.956972,1013.5049 c -5.812466,0.025 -10.106128,2.0882 -11.976528,5.7544 -1.15081,2.2558 -1.50517,7.4532 -0.84339,12.4004 0.81775,6.1132 2.21042,8.7004 5.826834,10.8278 l 1.75486,1.0324 0.04613,0.4525 c 3.312919,0.1187 3.849772,0.1282 6.916211,0.2394 0.425645,-0.189 0.980155,-0.3267 1.794394,-0.4569 2.415955,-0.3863 5.30591,-3.3578 6.630691,-6.8197 2.409763,-6.2971 1.137744,-16.131 -2.668529,-20.6344 -1.912555,-2.2628 -3.384741,-2.8138 -7.480667,-2.7959 z"
       id="path3082"
       inkscape:connector-curvature="0" />
    <path
       style="fill:#000000"
       d="m -47.467994,1019.015 c -0.564021,-3.3182 -3.930799,-5.1946 -6.984717,-5.7469 -5.088591,-1.1928 -10.396917,-0.081 -15.209592,1.6882 -1.533882,0.6429 -2.707339,2.0227 -3.014508,3.6679 -1.056482,3.4272 -0.610592,7.1081 0.537668,10.4492 0.78941,2.6409 1.332265,5.3901 2.51665,7.8904 1.214047,1.9453 3.190069,3.2249 4.729106,4.8867 2.560119,2.1961 5.831097,3.2884 8.989683,4.3025 2.496156,0.5846 5.165485,0.5439 7.634855,-0.1391 1.753655,-0.4837 3.049573,-2.1314 3.034449,-3.9628 0.0512,-2.0282 -0.605855,-4.0152 -0.384743,-6.0507 0.06476,-4.4295 0.316084,-8.949 -0.917593,-13.2603 -0.27495,-1.2502 -0.588962,-2.4917 -0.930871,-3.7252 z"
       id="path3108"
       inkscape:connector-curvature="0" />
    <path
       style="fill:none;fill-rule:evenodd;stroke:#000000;stroke-width:1.77165353;stroke-linecap:butt;stroke-linejoin:miter;stroke-miterlimit:4;stroke-dasharray:none;stroke-opacity:1"
       d="m -68.92098,1050.2429 c 0.30053,0.4007 0.61047,0.7946 0.9016,1.2022 0.20994,0.2939 0.39113,0.6077 0.60107,0.9016 1.03446,1.4482 2.17947,2.8307 3.30589,4.2075 0.49545,0.6055 1.03322,1.1772 1.50267,1.8032 0.86688,1.1558 1.5545,2.4379 2.40428,3.6064 0.37729,0.5188 0.80833,0.9963 1.20214,1.5027 0.30752,0.3954 0.61047,0.7945 0.90161,1.2021 0.20994,0.2939 0.37543,0.6196 0.60107,0.9016 0.177,0.2213 0.43106,0.3744 0.60107,0.6011 0.1344,0.1792 0.20035,0.4007 0.30053,0.6011 0.10018,0.2003 0.24621,0.3837 0.30054,0.601 0.0486,0.1944 -0.0634,0.411 0,0.6011 0.37137,1.1141 0.30053,-0.3663 0.30053,0.6011"
       id="path4226"
       inkscape:connector-curvature="0" />
    <g
       id="g4266"
       transform="matrix(0.45993955,0,0,0.45993955,243.84944,595.07447)">
      <path
         style="fill:#000000"
         d="m -266.23555,1052.9374 c 0.22847,-3.0279 3.09543,-4.9956 5.79234,-5.7478 4.47088,-1.498 9.33235,-0.9442 13.80368,0.2415 1.43172,0.449 2.60145,1.59 3.01528,3.042 1.23629,2.99 1.14432,6.3338 0.39296,9.4312 -0.48771,2.4384 -0.74488,4.9534 -1.59917,7.2986 -0.92745,1.8492 -2.59518,3.1642 -3.83832,4.7859 -2.11556,2.1873 -4.96219,3.4427 -7.71441,4.6184 -2.19319,0.7344 -4.59435,0.9215 -6.86974,0.5151 -1.61579,-0.2875 -2.91798,-1.659 -3.05791,-3.3053 -0.21602,-1.8176 0.20762,-3.6575 -0.16162,-5.4673 -0.42957,-3.9735 -1.03409,-8.0121 -0.28733,-11.9882 0.14217,-1.1461 0.32017,-2.2875 0.52388,-3.4242 z"
         id="path4222"
         inkscape:connector-curvature="0" />
      <path
         inkscape:connector-curvature="0"
         id="path4236"
         d="m -276.12022,1087.0776 c 1.00178,0 2.00356,0 3.00535,0 0.10017,0 0.20035,0 0.30053,0 0.10018,0 0.21093,0.045 0.30054,0 0.12671,-0.063 0.16613,-0.2558 0.30053,-0.3006 0.16157,-0.054 0.94769,0 1.20214,0 0.80143,0 1.60285,0 2.40428,0 2.70481,0 5.40963,0 8.11444,0 8.61534,0 17.23067,0 25.84601,0"
         style="color:#000000;clip-rule:nonzero;display:inline;overflow:visible;visibility:visible;opacity:1;isolation:auto;mix-blend-mode:normal;color-interpolation:sRGB;color-interpolation-filters:linearRGB;solid-color:#000000;solid-opacity:1;fill:none;fill-opacity:1;fill-rule:evenodd;stroke:#000000;stroke-width:1.77165353;stroke-linecap:butt;stroke-linejoin:miter;stroke-miterlimit:4;stroke-dasharray:none;stroke-dashoffset:0;stroke-opacity:1;color-rendering:auto;image-rendering:auto;shape-rendering:auto;text-rendering:auto;enable-background:accumulate" />
      <path
         inkscape:connector-curvature="0"
         id="path4238"
         d="m -234.34587,1087.9792 c 0,2.0036 0,4.0071 0,6.0107 0,0.6011 0,1.2021 0,1.8032 0,0.1002 0,0.2004 0,0.3005 0,0.1002 -0.0448,0.211 0,0.3006 0.0634,0.1267 0.23718,0.1738 0.30054,0.3005 0.0984,0.1968 -0.0889,1.236 0,1.5027 0.0708,0.2125 0.2297,0.3885 0.30053,0.601 0.0317,0.095 0,0.2004 0,0.3006 0,0.2003 0,0.4007 0,0.6011 0,0.5008 0,1.0017 0,1.5026 0,0.1002 0,0.2004 0,0.3006 0,0.1001 -0.0448,0.2109 0,0.3005 0.0634,0.1267 0.23718,0.1738 0.30054,0.3005 0.12021,0.2405 -0.12022,0.6612 0,0.9016 0.0634,0.1268 0.25573,0.1662 0.30053,0.3006 0.13679,0.4103 -0.13678,1.3928 0,1.8032 0.0448,0.1344 0.23718,0.1738 0.30054,0.3005 0.0944,0.1889 -0.0944,1.0133 0,1.2022 0.0634,0.1267 0.23717,0.1738 0.30053,0.3005 0.0948,0.1896 -0.0948,1.3131 0,1.5027 0.0634,0.1267 0.23718,0.1738 0.30054,0.3005 0.0448,0.09 -0.0708,0.2297 0,0.3005 0.0708,0.071 0.2297,-0.071 0.30053,0 0.0614,0.062 -0.0596,0.7825 0,0.9016 0.0634,0.1268 0.23718,0.1739 0.30054,0.3006 0.0596,0.1191 -0.0614,0.8401 0,0.9016 0.0708,0.071 0.2297,-0.071 0.30053,0 0.0614,0.061 -0.0596,0.7824 0,0.9016 0.0634,0.1267 0.23718,0.1738 0.30054,0.3005 0.0596,0.1192 -0.0614,0.8402 0,0.9016 0.0708,0.071 0.2297,-0.071 0.30053,0 0.14168,0.1417 -0.14167,0.4594 0,0.6011 0.0708,0.071 0.2297,-0.071 0.30054,0 0.0708,0.071 -0.0708,0.2297 0,0.3005 0.0708,0.071 0.2297,-0.071 0.30053,0 0.0708,0.071 -0.0448,0.211 0,0.3006 0.0634,0.1267 0.23718,0.1738 0.30054,0.3005 0.0896,0.1792 -0.0896,0.4219 0,0.6011 0.0634,0.1267 0.23717,0.1738 0.30053,0.3005 0.12022,0.2404 -0.12021,0.6612 0,0.9016 0.0634,0.1267 0.23718,0.1738 0.30054,0.3005 0.0896,0.1792 -0.0896,0.4219 0,0.6011 0.0634,0.1267 0.23717,0.1738 0.30053,0.3005 0.0448,0.09 -0.0448,0.211 0,0.3006 0.0634,0.1267 0.23718,0.1738 0.30054,0.3005 0.0896,0.1792 -0.14168,0.4594 0,0.6011 0.0708,0.071 0.2297,-0.071 0.30053,0 0.14168,0.1417 -0.14167,0.4594 0,0.6011 0.0708,0.071 0.2297,-0.071 0.30054,0 0.14167,0.1416 -0.0896,0.4218 0,0.601 0.0634,0.1267 0.23717,0.1738 0.30053,0.3006 0.0448,0.09 0,0.2003 0,0.3005 0.10018,0.1002 0.23718,0.1738 0.30054,0.3005 0.0448,0.09 -0.0708,0.2297 0,0.3006 0.0708,0.071 0.2297,-0.071 0.30053,0 0.0708,0.071 -0.0448,0.2109 0,0.3005 0.0634,0.1267 0.23718,0.1738 0.30054,0.3005 0.0448,0.09 -0.0708,0.2297 0,0.3006 0.62181,0.6218 -0.0243,-0.9502 0.60107,0.3005 0.0448,0.09 -0.0448,0.2109 0,0.3005 0.0634,0.1268 0.20035,0.2004 0.30053,0.3006 0.10018,0.1002 0.17382,0.2372 0.30054,0.3005 0.0896,0.045 0.21093,-0.045 0.30053,0 0.25344,0.1267 0.34764,0.4744 0.60107,0.6011 0.0896,0.045 0.2297,-0.071 0.30054,0 0.0708,0.071 -0.0448,0.2109 0,0.3005 0.0634,0.1267 0.20035,0.2004 0.30053,0.3006 0.10018,0.1001 0.17382,0.2371 0.30054,0.3005 0.0896,0.045 0.21093,-0.045 0.30053,0 0.0575,0.029 1.17338,1.1446 1.20214,1.2021 0.0448,0.09 -0.0708,0.2297 0,0.3006 0.0708,0.071 0.21093,-0.045 0.30054,0 0.99675,0.9967 -0.28335,-0.1417 0.60107,0.3005 1.25075,0.6254 -0.32129,-0.021 0.30053,0.6011 0.0708,0.071 0.21093,-0.045 0.30054,0 0.12671,0.063 0.20035,0.2003 0.30053,0.3005 0.10018,0.1002 0.23718,0.1738 0.30054,0.3005 0.0448,0.09 -0.0708,0.2297 0,0.3006 0.0708,0.071 0.22969,-0.071 0.30053,0 0.0708,0.071 -0.0708,0.2297 0,0.3005 0.0708,0.071 0.21093,-0.045 0.30054,0 0.0575,0.029 1.17337,1.1446 1.20214,1.2021 0.20727,0.4146 -0.36397,0.2689 0.30053,0.6011 0.0896,0.045 0.21093,-0.045 0.30054,0 0.36064,0.1803 0.54096,0.7213 0.9016,0.9016 0.0896,0.045 0.2297,-0.071 0.30054,0 0.62181,0.6218 -0.95022,-0.024 0.30053,0.6011 0.0896,0.045 0.2297,-0.071 0.30054,0 0.0708,0.071 -0.0708,0.2297 0,0.3005 0.0708,0.071 0.21093,-0.045 0.30053,0 0.29574,0.1479 0.9064,1.0543 1.20214,1.2022 0.0896,0.045 0.2297,-0.071 0.30053,0 0.0708,0.071 -0.0708,0.2297 0,0.3005 0.0708,0.071 0.2297,-0.071 0.30054,0 0.0708,0.071 0,0.2004 0,0.3005 0.10018,0 0.21093,-0.045 0.30053,0 1.25076,0.6254 -0.32128,-0.021 0.30054,0.6011 0.0708,0.071 0.2297,-0.071 0.30053,0 0.14168,0.1417 -0.14167,0.4594 0,0.6011 0.0708,0.071 0.20036,0 0.30054,0 0,0.1002 -0.0708,0.2297 0,0.3005 0.0708,0.071 0.2297,-0.071 0.30053,0 0.0708,0.071 -0.0708,0.2297 0,0.3005 0.62182,0.6219 -0.0243,-0.9502 0.60107,0.3006 0.0448,0.09 -0.0708,0.2297 0,0.3005 0.0708,0.071 0.2297,-0.071 0.30054,0 0.14167,0.1417 -0.14167,0.4594 0,0.6011 0.0708,0.071 0.2297,-0.071 0.30053,0 0.14168,0.1417 -0.14167,0.4594 0,0.6011 0.0708,0.071 0.2297,-0.071 0.30054,0 0.15027,0.1502 -0.15027,0.7513 0,0.9016 0.0708,0.071 0.2297,-0.071 0.30053,0 0.0708,0.071 0,0.2003 0,0.3005 0,0.8014 0,1.6028 0,2.4043 0,0.601 0,1.2021 0,1.8032 0,0.1002 0.0708,0.2297 0,0.3005 -0.0136,0.014 -1.36097,0 -1.50267,0 -0.50089,0 -1.00178,0 -1.50268,0 -0.10017,0 -0.20035,0 -0.30053,0 -0.10018,0 -0.21093,0.045 -0.30054,0 -0.25343,-0.1267 -0.34763,-0.4743 -0.60107,-0.6011 -0.0896,-0.045 -0.22969,0.071 -0.30053,0 -0.0708,-0.071 0.0708,-0.2297 0,-0.3005 -0.0708,-0.071 -0.2297,0.071 -0.30053,0 -0.14168,-0.1417 0.14167,-0.4594 0,-0.6011 -0.0708,-0.071 -0.2297,0.071 -0.30054,0 -0.0708,-0.071 0.0708,-0.2297 0,-0.3005 -0.0708,-0.071 -0.2297,0.071 -0.30053,0 -0.15027,-0.1503 0.15026,-0.7513 0,-0.9016 -0.0708,-0.071 -0.20036,0 -0.30054,0"
         style="color:#000000;clip-rule:nonzero;display:inline;overflow:visible;visibility:visible;opacity:1;isolation:auto;mix-blend-mode:normal;color-interpolation:sRGB;color-interpolation-filters:linearRGB;solid-color:#000000;solid-opacity:1;fill:none;fill-opacity:1;fill-rule:evenodd;stroke:#000000;stroke-width:1.77165353;stroke-linecap:butt;stroke-linejoin:miter;stroke-miterlimit:4;stroke-dasharray:none;stroke-dashoffset:0;stroke-opacity:1;color-rendering:auto;image-rendering:auto;shape-rendering:auto;text-rendering:auto;enable-background:accumulate" />
      <path
         inkscape:connector-curvature="0"
         id="path4240"
         d="m -274.91808,1088.2797 c 0,0.8014 0,1.6029 0,2.4043 0,0.1002 0,0.2004 0,0.3005 0,0.1002 0.0448,0.211 0,0.3006 -0.0634,0.1267 -0.23718,0.1738 -0.30054,0.3005 -0.12021,0.2404 0.12021,0.6612 0,0.9016 -0.0634,0.1267 -0.23718,0.1738 -0.30053,0.3005 -0.0913,0.1825 0.0912,1.6208 0,1.8033 -0.0634,0.1267 -0.23718,0.1738 -0.30054,0.3005 -0.0401,0.08 0,1.6672 0,1.8032 0,0.1002 0.0448,0.2109 0,0.3005 -0.0634,0.1268 -0.23718,0.1739 -0.30053,0.3006 -0.0448,0.09 0,0.2003 0,0.3005 0,0.1002 0,0.2004 0,0.3005 0,0.7013 0,1.4025 0,2.1038 0,0.1353 0.0457,0.8101 0,0.9016 -0.0634,0.1267 -0.23718,0.1738 -0.30054,0.3005 -0.0448,0.09 0,0.2004 0,0.3006 0,0.1001 0,0.2003 0,0.3005 0,0.5009 0,1.0018 0,1.5027 0,0.1001 0.0448,0.2109 0,0.3005 -0.0634,0.1267 -0.23718,0.1738 -0.30053,0.3005 -0.0395,0.079 0,1.045 0,1.2022 0,0.9016 0,1.8032 0,2.7048 0,0.1104 0.0121,1.19 0,1.2021 -0.0708,0.071 -0.2297,-0.071 -0.30054,0 -0.01,0.01 0,0.8288 0,0.9016 0,1.9034 0,3.8068 0,5.7102 0,2.0036 0,4.0071 0,6.0107 0,0.073 0.01,0.8919 0,0.9016 -0.0614,0.061 -0.78244,-0.06 -0.9016,0 -0.12672,0.063 -0.20036,0.2004 -0.30054,0.3005 -0.20036,0 -0.40669,-0.049 -0.60107,0 -0.43463,0.1087 -0.7675,0.4925 -1.20214,0.6011 -0.19437,0.049 -0.4046,-0.039 -0.60107,0 -0.60351,-0.069 -0.9793,0.4702 -1.50267,0.6011 -0.19438,0.049 -0.4067,-0.049 -0.60107,0 -0.21732,0.054 -0.38376,0.2462 -0.60107,0.3005 -0.23641,0.059 -1.49068,0 -1.80321,0 -0.10018,0 -0.21093,-0.045 -0.30054,0 -0.12671,0.063 -0.16613,0.2557 -0.30053,0.3006 -0.19008,0.063 -0.40072,0 -0.60107,0 -0.10018,0 -0.21093,-0.045 -0.30054,0 -0.12671,0.063 -0.16613,0.2557 -0.30053,0.3005 -0.19008,0.063 -0.4067,-0.049 -0.60107,0 -0.43464,0.1086 -0.76751,0.4924 -1.20214,0.6011 -0.19438,0.048 -0.4067,-0.049 -0.60107,0 -0.21732,0.054 -0.38856,0.2297 -0.60107,0.3005 -0.095,0.032 -0.2055,-0.032 -0.30054,0 -0.21251,0.071 -0.38375,0.2462 -0.60107,0.3005 -0.14641,0.037 -1.04322,-0.079 -1.20214,0 -0.12671,0.063 -0.17381,0.2372 -0.30053,0.3006 -0.24043,0.1202 -0.66118,-0.1203 -0.90161,0 -0.12671,0.063 -0.17381,0.2371 -0.30053,0.3005 -0.17921,0.09 -0.42187,-0.09 -0.60107,0 -0.12672,0.063 -0.17382,0.2372 -0.30054,0.3005 -0.32066,0.1604 -0.2804,-0.1603 -0.60107,0 -0.12671,0.063 -0.17381,0.2372 -0.30053,0.3006 -0.1792,0.09 -0.4594,-0.1417 -0.60107,0 -0.0708,0.071 0.0708,0.2297 0,0.3005 -0.14167,0.1417 -0.4594,-0.1417 -0.60107,0 -0.0708,0.071 0.0708,0.2297 0,0.3005 -0.14167,0.1417 -0.42187,-0.09 -0.60107,0 -0.12672,0.063 -0.17382,0.2372 -0.30054,0.3006 -0.1792,0.09 -0.42186,-0.09 -0.60106,0 -0.12672,0.063 -0.17382,0.2371 -0.30054,0.3005 -0.1792,0.09 -0.4594,-0.1417 -0.60107,0 -0.0708,0.071 0.0708,0.2297 0,0.3005 -0.14167,0.1417 -0.4594,-0.1416 -0.60107,0 -0.0708,0.071 0.0708,0.2297 0,0.3006 -0.0708,0.071 -0.21093,-0.045 -0.30053,0 -0.12672,0.063 -0.17382,0.2372 -0.30054,0.3005 -0.0896,0.045 -0.2297,-0.071 -0.30053,0 -0.0708,0.071 0.0708,0.2297 0,0.3005 -0.0708,0.071 -0.21094,-0.045 -0.30054,0 -0.12672,0.063 -0.17382,0.2372 -0.30053,0.3006 -0.0896,0.045 -0.2297,-0.071 -0.30054,0 -0.0708,0.071 0.0708,0.2297 0,0.3005 -0.0708,0.071 -0.21093,-0.045 -0.30053,0 -0.12672,0.063 -0.17382,0.2372 -0.30054,0.3005 -0.0896,0.045 -0.21093,-0.045 -0.30053,0 -0.12672,0.063 -0.17382,0.2372 -0.30054,0.3006 -0.0896,0.045 -0.21093,-0.045 -0.30053,0 -0.25344,0.1267 -0.34764,0.4743 -0.60107,0.6011 -0.0896,0.045 -0.21094,-0.045 -0.30054,0 -0.12672,0.063 -0.17382,0.2371 -0.30053,0.3005 -0.0896,0.045 -0.21094,-0.045 -0.30054,0 -0.12672,0.063 -0.17382,0.2372 -0.30053,0.3005 -0.0896,0.045 -0.21094,-0.045 -0.30054,0 -0.12672,0.063 -0.17382,0.2372 -0.30053,0.3006 -0.17921,0.09 -0.4594,-0.1417 -0.60107,0 -0.0708,0.071 0.0708,0.2297 0,0.3005 -0.14168,0.1417 -0.42187,-0.09 -0.60107,0 -0.99675,0.9967 0.28334,-0.1417 -0.60107,0.3005 -0.12672,0.063 -0.17382,0.2372 -0.30054,0.3006 -0.0896,0.045 -0.21093,-0.045 -0.30053,0 -0.12672,0.063 -0.17382,0.2371 -0.30054,0.3005 -0.0896,0.045 -0.21093,-0.045 -0.30053,0 -0.36064,0.1803 -0.54097,0.7213 -0.90161,0.9016 -0.0896,0.045 -0.21093,-0.045 -0.30053,0 -0.12672,0.063 -0.17382,0.2372 -0.30054,0.3005 -0.0896,0.045 -0.21093,-0.045 -0.30053,0 -0.12672,0.063 -0.17382,0.2372 -0.30054,0.3006 -0.0896,0.045 -0.2297,-0.071 -0.30053,0 -0.0708,0.071 0,0.2003 0,0.3005 -0.10018,0 -0.2297,-0.071 -0.30054,0 -0.0708,0.071 0.0708,0.2297 0,0.3005 -0.0708,0.071 -0.21093,-0.045 -0.30053,0 -0.36064,0.1804 -0.54097,0.7213 -0.90161,0.9016 -0.0896,0.045 -0.2297,-0.071 -0.30053,0 -0.0708,0.071 0.0448,0.211 0,0.3006 -0.0634,0.1267 -0.23718,0.1738 -0.30054,0.3005 -0.0448,0.09 0.0708,0.2297 0,0.3006 -0.0708,0.071 -0.2297,-0.071 -0.30053,0 -0.14168,0.1416 0.14167,0.4593 0,0.601 -0.0708,0.071 -0.2297,-0.071 -0.30054,0 -0.0708,0.071 0,0.2004 0,0.3006 0,0.1001 0.10018,0.3005 0,0.3005 -0.10018,0 0,-0.4007 0,-0.3005 0,0.2003 -0.0896,0.4218 0,0.601 0.0448,0.09 0.20036,0 0.30054,0 0.27089,0 1.31352,0.063 1.50267,0 0.54584,-0.1819 0.55775,-0.2572 0.90161,-0.601 0.10018,-0.1002 0.17382,-0.2372 0.30053,-0.3006 0.0896,-0.045 0.2297,0.071 0.30054,0 0.0708,-0.071 -0.0448,-0.2109 0,-0.3005 0.12671,-0.2534 0.47435,-0.3476 0.60107,-0.6011 0.0448,-0.09 -0.0708,-0.2297 0,-0.3005 0.0708,-0.071 0.2297,0.071 0.30053,0 0.0708,-0.071 -0.0708,-0.2297 0,-0.3006 0.0708,-0.071 0.2297,0.071 0.30054,0 0.0708,-0.071 -0.0708,-0.2296 0,-0.3005 0.0708,-0.071 0.21093,0.045 0.30053,0 0.12672,-0.063 0.17382,-0.2372 0.30054,-0.3005 0.1792,-0.09 0.45939,0.1417 0.60107,0 0.0708,-0.071 -0.0708,-0.2297 0,-0.3006 0.0708,-0.071 0.30053,-0.1001 0.30053,0 0,0.1002 -0.20035,0 -0.30053,0"
         style="color:#000000;clip-rule:nonzero;display:inline;overflow:visible;visibility:visible;opacity:1;isolation:auto;mix-blend-mode:normal;color-interpolation:sRGB;color-interpolation-filters:linearRGB;solid-color:#000000;solid-opacity:1;fill:none;fill-opacity:1;fill-rule:evenodd;stroke:#000000;stroke-width:1.77165353;stroke-linecap:butt;stroke-linejoin:miter;stroke-miterlimit:4;stroke-dasharray:none;stroke-dashoffset:0;stroke-opacity:1;color-rendering:auto;image-rendering:auto;shape-rendering:auto;text-rendering:auto;enable-background:accumulate" />
      <path
         inkscape:connector-curvature="0"
         id="path4242"
         d="m -254.48171,1075.0562 c -0.74432,1.2799 -0.60107,1.2174 -0.60107,2.4043 0,0.1001 0.0708,0.2297 0,0.3005 -0.0708,0.071 -0.2297,-0.071 -0.30053,0 -0.0136,0.014 0,1.361 0,1.5027 0,0.2709 0.0631,1.3135 0,1.5026 -0.0708,0.2126 -0.2297,0.3886 -0.30054,0.6011 -0.0317,0.095 0,0.2004 0,0.3006 0,0.2003 0,0.4007 0,0.601 0,0.6011 0,1.2022 0,1.8032 0,0.7013 0,1.4025 0,2.1038 0,0.2003 0,0.4007 0,0.601 0,0.2004 0.0486,0.4067 0,0.6011 -0.0543,0.2173 -0.2297,0.3886 -0.30053,0.6011 -0.096,0.288 0.0928,1.2242 0,1.5027 -0.0448,0.1344 -0.25574,0.1661 -0.30054,0.3005 -0.0574,0.1722 0,1.2205 0,1.5027 0,0.1002 0.0317,0.2055 0,0.3005 -0.0708,0.2125 -0.2297,0.3886 -0.30053,0.6011 -0.0317,0.095 0,0.2003 0,0.3005 0,0.2004 0,0.4007 0,0.6011 0,0.6011 0,1.2021 0,1.8032 0,0.2003 0.0634,0.411 0,0.6011 -0.0708,0.2125 -0.24621,0.3837 -0.30054,0.601 -0.0988,0.3952 0.12442,1.1295 0,1.5027 -0.0448,0.1344 -0.25573,0.1661 -0.30053,0.3005 -0.1212,0.3636 0.10234,1.3939 0,1.8033 -0.0543,0.2173 -0.24621,0.3837 -0.30054,0.601 -0.0591,0.2364 0,1.4907 0,1.8032 0,1.4025 0,2.805 0,4.2075 0,0.2035 0.0456,1.9669 0,2.1038 -0.0448,0.1344 -0.25573,0.1661 -0.30053,0.3005 -0.12672,0.3801 0.0972,0.8134 0,1.2021 -0.0543,0.2174 -0.24621,0.3838 -0.30054,0.6011 -0.0486,0.1944 0,0.4007 0,0.6011 0,0.7012 0,1.4025 0,2.1037 0,2.0036 0,4.0072 0,6.0107 0,0.8014 0,1.6029 0,2.4043 0,0.3005 0.0589,0.6069 0,0.9016 -0.0439,0.2197 -0.2462,0.3838 -0.30053,0.6011 -0.0508,0.2034 0,1.9103 0,2.1037 0,1.4025 0,2.805 0,4.2075 0,3.7066 0,7.4132 0,11.1198 0,2.1037 0,4.2075 0,6.3112 0,0.7013 0,1.4025 0,2.1038 0,0.1353 -0.0457,0.8101 0,0.9016 0.0634,0.1267 0.23717,0.1738 0.30053,0.3005 0.0448,0.09 0,0.2004 0,0.3006 0,0.1001 0,0.2003 0,0.3005 0,0.5009 0,1.0018 0,1.5027 0,0.1001 -0.0448,0.2109 0,0.3005 0.0634,0.1267 0.23718,0.1738 0.30054,0.3005 0.0912,0.1825 -0.0913,1.6208 0,1.8032 0.0634,0.1268 0.23717,0.1739 0.30053,0.3006 0.0448,0.09 0,0.2003 0,0.3005 0,0.1002 0,0.2004 0,0.3006"
         style="color:#000000;clip-rule:nonzero;display:inline;overflow:visible;visibility:visible;opacity:1;isolation:auto;mix-blend-mode:normal;color-interpolation:sRGB;color-interpolation-filters:linearRGB;solid-color:#000000;solid-opacity:1;fill:none;fill-opacity:1;fill-rule:evenodd;stroke:#000000;stroke-width:1.77165353;stroke-linecap:butt;stroke-linejoin:miter;stroke-miterlimit:4;stroke-dasharray:none;stroke-dashoffset:0;stroke-opacity:1;color-rendering:auto;image-rendering:auto;shape-rendering:auto;text-rendering:auto;enable-background:accumulate" />
      <path
         inkscape:connector-curvature="0"
         id="path4246"
         d="m -248.47101,1156.8017 c 0,0.6011 0,1.2021 0,1.8032 0,0.1002 -0.0448,0.2109 0,0.3005 0.12672,0.2535 0.51147,0.3323 0.60107,0.6011 0.0634,0.1901 -0.0486,0.4067 0,0.6011 0.0543,0.2173 0.20036,0.4007 0.30054,0.601 0.20035,0.4008 0.43468,0.7862 0.60107,1.2022 1.2101,3.0252 -0.23466,-0.6381 0.30053,1.5027 0.0543,0.2173 0.24621,0.3837 0.30054,0.601 0.0486,0.1944 -0.0486,0.4067 0,0.6011 0.0543,0.2173 0.2462,0.3837 0.30053,0.6011 0.0486,0.1943 -0.0486,0.4067 0,0.601 0.0543,0.2174 0.2297,0.3886 0.30054,0.6011 0.0317,0.095 -0.0448,0.2109 0,0.3005 0.0634,0.1268 0.25573,0.1662 0.30053,0.3006 0.0634,0.1901 -0.0486,0.4067 0,0.6011 0.0543,0.2173 0.24621,0.3837 0.30054,0.601 0.0486,0.1944 -0.0634,0.411 0,0.6011 0.0448,0.1344 0.25573,0.1661 0.30053,0.3005 0.0634,0.1901 -0.0486,0.4067 0,0.6011 0.10866,0.4346 0.49241,0.7675 0.60107,1.2021 0.0486,0.1944 -0.0486,0.4067 0,0.6011 0.10866,0.4346 0.49241,0.7675 0.60107,1.2021 0.0486,0.1944 -0.0393,0.4047 0,0.6011 -0.069,0.6035 0.47023,0.9793 0.60107,1.5027 0.0486,0.1944 -0.0393,0.4046 0,0.6011 0.0621,0.3106 0.23841,0.5909 0.30054,0.9016 0.0393,0.1964 -0.0486,0.4067 0,0.601 0.0543,0.2173 0.2462,0.3838 0.30053,0.6011 0.0486,0.1944 0,0.4007 0,0.6011 0,0.5009 0,1.0017 0,1.5026 0,1.4025 0,2.805 0,4.2075 0,0.25 0,1.2527 0,1.5027 0,0.3005 -0.0589,0.6069 0,0.9016 0.0439,0.2197 0.24621,0.3838 0.30053,0.6011 0.0486,0.1944 0,0.4007 0,0.601 0,0.7013 0,1.4025 0,2.1038 0,1.8032 0,3.6064 0,5.4096 0,4.7084 0,9.4168 0,14.1252 0,5.9105 0,11.821 0,17.7315 0,1.3023 0,2.6047 0,3.907 0,0.6011 0,1.2021 0,1.8032 0,0.2003 0,0.4007 0,0.6011 0,0.1001 0.0448,0.2109 0,0.3005 -0.0633,0.1267 -0.23717,0.1738 -0.30053,0.3005 -0.0448,0.09 0,0.2004 0,0.3006 0,0.1002 0,0.2003 0,0.3005 0,0.3593 0.0654,1.6071 0,1.8032 -0.0708,0.2125 -0.2297,0.3886 -0.30053,0.6011 -0.0634,0.1901 0.0633,0.411 0,0.6011 -0.0708,0.2125 -0.2297,0.3885 -0.30054,0.601 -0.0634,0.1901 0.0634,0.411 0,0.6011 -0.0708,0.2125 -0.2297,0.3885 -0.30053,0.6011 -0.0634,0.19 0.0896,0.4218 0,0.601 -0.0634,0.1267 -0.25574,0.1662 -0.30054,0.3006 -0.0634,0.1901 0,0.4007 0,0.601 0,0.1002 0.0448,0.211 0,0.3006 -0.0634,0.1267 -0.23718,0.1738 -0.30053,0.3005 -0.0448,0.09 0.0317,0.2055 0,0.3005 -0.0708,0.2126 -0.2297,0.3886 -0.30054,0.6011 -0.0634,0.1901 0.0634,0.411 0,0.6011 -0.0708,0.2125 -0.24621,0.3837 -0.30053,0.6011 -0.0486,0.1943 0.0634,0.4109 0,0.601 -0.0448,0.1344 -0.23718,0.1738 -0.30054,0.3006 -0.0448,0.09 0.0448,0.2109 0,0.3005 -0.0634,0.1267 -0.23718,0.1738 -0.30053,0.3005 -0.0896,0.1792 0.0896,0.4219 0,0.6011 -0.0634,0.1267 -0.23718,0.1738 -0.30054,0.3005 -0.0896,0.1792 0.14167,0.4594 0,0.6011 -0.0708,0.071 -0.2297,-0.071 -0.30053,0 -0.14168,0.1417 0.0896,0.4219 0,0.6011 -0.0634,0.1267 -0.23718,0.1738 -0.30054,0.3005 -0.0896,0.1792 0.14167,0.4594 0,0.6011 -0.0708,0.071 -0.2297,-0.071 -0.30053,0 -0.14168,0.1416 0.14167,0.4594 0,0.601 -0.0708,0.071 -0.2297,-0.071 -0.30054,0 -0.14167,0.1417 0.14167,0.4594 0,0.6011 -0.0708,0.071 -0.2297,-0.071 -0.30053,0 -0.14168,0.1417 0.14167,0.4594 0,0.6011 -0.0708,0.071 -0.2297,-0.071 -0.30054,0 -0.14167,0.1417 0.14167,0.4594 0,0.6011 -0.0708,0.071 -0.2297,-0.071 -0.30053,0 -0.14168,0.1416 0.0896,0.4218 0,0.601 -0.62538,1.2508 0.0207,-0.3212 -0.60107,0.3006 -0.14168,0.1416 0.14167,0.4594 0,0.601 -0.0708,0.071 -0.2297,-0.071 -0.30054,0 -0.0708,0.071 0,0.2004 0,0.3006 0,0.1001 0,0.2003 0,0.3005"
         style="color:#000000;clip-rule:nonzero;display:inline;overflow:visible;visibility:visible;opacity:1;isolation:auto;mix-blend-mode:normal;color-interpolation:sRGB;color-interpolation-filters:linearRGB;solid-color:#000000;solid-opacity:1;fill:none;fill-opacity:1;fill-rule:evenodd;stroke:#000000;stroke-width:1.77165353;stroke-linecap:butt;stroke-linejoin:miter;stroke-miterlimit:4;stroke-dasharray:none;stroke-dashoffset:0;stroke-opacity:1;color-rendering:auto;image-rendering:auto;shape-rendering:auto;text-rendering:auto;enable-background:accumulate" />
      <path
         inkscape:connector-curvature="0"
         id="path4248"
         d="m -264.6999,1159.206 c -0.10017,0.4007 -0.20035,0.8014 -0.30053,1.2021 -0.10018,0.1002 -0.23718,0.1738 -0.30054,0.3005 -0.0457,0.091 0,0.7663 0,0.9016 0,0.8015 0,1.6029 0,2.4043 0,1.3024 0,2.6047 0,3.907 0,0.209 -0.0543,1.394 0,1.5027 0.0634,0.1267 0.23718,0.1738 0.30054,0.3005 0.0395,0.079 0,1.045 0,1.2021 0,0.2398 -0.0601,1.3224 0,1.5027 0.0708,0.2125 0.2297,0.3886 0.30053,0.6011 0.0317,0.095 0,0.2003 0,0.3005 0,0.3126 -0.0591,1.5668 0,1.8032 0.0543,0.2173 0.24621,0.3838 0.30054,0.6011 0.0972,0.3887 -0.0972,0.8134 0,1.2021 0.0543,0.2173 0.2462,0.3838 0.30053,0.6011 0.0972,0.3888 -0.0972,0.8134 0,1.2021 0.0543,0.2174 0.24621,0.3838 0.30054,0.6011 0.10234,0.4094 -0.1212,1.4396 0,1.8032 0.0448,0.1344 0.25573,0.1662 0.30053,0.3006 0.0634,0.19 0,0.4007 0,0.601 0,0.2004 0,0.4007 0,0.6011 0,1.0018 0,2.0036 0,3.0053 0,1.523 -0.0896,-0.3584 0.30054,1.2022 0.0486,0.1944 0,0.4007 0,0.6011 0,0.5009 0,1.0017 0,1.5026 0,0.7013 0,1.4025 0,2.1038 0,0.4007 -0.0786,0.8092 0,1.2021 0.0621,0.3106 0.23841,0.591 0.30053,0.9016 0.0786,0.393 0,0.8015 0,1.2022 0,1.0017 0,2.0035 0,3.0053 0,1.8032 0,3.6064 0,5.4096 0,0.7013 0,1.4025 0,2.1038 0,0.2003 0,0.4007 0,0.601 0,0.2004 -0.0486,0.4067 0,0.6011 0.0543,0.2173 0.2297,0.3886 0.30054,0.6011 0.0317,0.095 0,0.2003 0,0.3005 0,0.6011 0,1.2022 0,1.8032 0,0.2004 -0.0486,0.4067 0,0.6011 0.0543,0.2173 0.2462,0.3838 0.30053,0.6011 0.0486,0.1944 0,0.4007 0,0.6011 0,0.2003 0,0.4007 0,0.601 0,0.8014 0,1.6029 0,2.4043 0,0.5009 0,1.0018 0,1.5027 0,0.2003 -0.0486,0.4067 0,0.601 0.0543,0.2174 0.2297,0.3886 0.30054,0.6011 0.0663,0.1988 0,1.508 0,1.8032 0,1.0018 0,2.0036 0,3.0054 0,0.4007 0,0.8014 0,1.2021 0,0.2004 -0.0393,0.4046 0,0.6011 0.0621,0.3106 0.23841,0.5909 0.30053,0.9016 0.0786,0.3929 0,0.8014 0,1.2021 0,0.7013 0,1.4025 0,2.1038 0,2.4042 0,4.8085 0,7.2128 0,1.4025 0,2.805 0,4.2075 0,0.209 0.0543,1.394 0,1.5027 -0.0634,0.1267 -0.23717,0.1738 -0.30053,0.3005 -0.0944,0.1889 0.0944,1.0132 0,1.2021 -0.0634,0.1268 -0.23718,0.1739 -0.30054,0.3006 -0.0596,0.1191 0.0614,0.8401 0,0.9016 -0.0708,0.071 -0.22969,-0.071 -0.30053,0 -0.15027,0.1502 0.15027,0.7513 0,0.9016 -0.0708,0.071 -0.2297,-0.071 -0.30054,0 -0.14167,0.1417 0.0896,0.4218 0,0.6011 -0.0634,0.1267 -0.23717,0.1738 -0.30053,0.3005 -0.0896,0.1792 0.14167,0.4594 0,0.6011 -0.0708,0.071 -0.20036,0 -0.30054,0 0,0.1001 0.0708,0.2297 0,0.3005 -0.0708,0.071 -0.22969,-0.071 -0.30053,0 -0.0708,0.071 0.0708,0.2297 0,0.3005 -0.0708,0.071 -0.20036,0 -0.30054,0 0,0.1002 0.0708,0.2297 0,0.3006 -0.0708,0.071 -0.22969,-0.071 -0.30053,0 -0.14167,0.1416 0.14167,0.4594 0,0.601 -0.0708,0.071 -0.2297,-0.071 -0.30054,0 -0.0708,0.071 0.0708,0.2297 0,0.3006 -0.0708,0.071 -0.22969,-0.071 -0.30053,0 -0.0708,0.071 0.0708,0.2297 0,0.3005 -0.0708,0.071 -0.2297,-0.071 -0.30054,0 -0.0708,0.071 0.0708,0.2297 0,0.3005 -0.0708,0.071 -0.21093,-0.045 -0.30053,0 -0.12672,0.063 -0.17382,0.2372 -0.30054,0.3006 -0.0896,0.045 -0.22969,-0.071 -0.30053,0 -0.14167,0.1417 0.14167,0.4594 0,0.6011 -0.0708,0.071 -0.20036,0 -0.30054,0 0,0.1001 0.0708,0.2297 0,0.3005 -0.0708,0.071 -0.22969,-0.071 -0.30053,0 -0.0708,0.071 0.0708,0.2297 0,0.3005 -0.0708,0.071 -0.20036,0 -0.30054,0 0,0.1002 0.0708,0.2297 0,0.3006 -0.14167,0.1416 -0.45939,-0.1417 -0.60107,0 -0.0708,0.071 0.0708,0.2297 0,0.3005 -0.0708,0.071 -0.22969,-0.071 -0.30053,0 -0.0708,0.071 0.0708,0.2297 0,0.3005 -0.0708,0.071 -0.2297,-0.071 -0.30054,0 -0.40071,0.4007 0.5009,0.3006 -0.30053,0.3006 -0.80143,0 0.10018,-0.1002 -0.30054,0.3005 -0.0708,0.071 -0.21093,-0.045 -0.30053,0 -0.12672,0.063 -0.17382,0.2372 -0.30054,0.3005 -0.0896,0.045 -0.22969,-0.071 -0.30053,0 -0.0708,0.071 0.0708,0.2297 0,0.3006 -0.40071,0.4007 -0.30053,-0.5009 -0.30053,0.3005"
         style="color:#000000;clip-rule:nonzero;display:inline;overflow:visible;visibility:visible;opacity:1;isolation:auto;mix-blend-mode:normal;color-interpolation:sRGB;color-interpolation-filters:linearRGB;solid-color:#000000;solid-opacity:1;fill:none;fill-opacity:1;fill-rule:evenodd;stroke:#000000;stroke-width:1.77165353;stroke-linecap:butt;stroke-linejoin:miter;stroke-miterlimit:4;stroke-dasharray:none;stroke-dashoffset:0;stroke-opacity:1;color-rendering:auto;image-rendering:auto;shape-rendering:auto;text-rendering:auto;enable-background:accumulate" />
      <path
         inkscape:connector-curvature="0"
         id="path4264"
         d="m -217.25846,1140.6259 c 0,-1.4168 0,-2.8335 0,-4.2502 0,-0.1417 0,-0.2834 0,-0.425 0,-0.1417 0.10018,-0.3249 0,-0.4251 -0.10018,-0.1001 -0.32484,0.1002 -0.42502,0 -0.0869,-0.087 0.0843,-1.1065 0,-1.275 -0.0896,-0.1792 -0.33542,-0.2458 -0.42502,-0.425 -0.0843,-0.1686 0.0869,-1.1882 0,-1.2751 -0.10018,-0.1002 -0.32484,0.1002 -0.42502,0 -0.0869,-0.087 0.0843,-1.1066 0,-1.2751 -0.0896,-0.1792 -0.33542,-0.2458 -0.42502,-0.425 -0.12672,-0.2534 0.20035,-0.6497 0,-0.85 -0.10018,-0.1002 -0.32484,0.1001 -0.42502,0 -0.21251,-0.2125 0.21251,-1.0626 0,-1.2751 -0.10018,-0.1002 -0.32484,0.1002 -0.42502,0 -0.20036,-0.2003 0.20035,-0.6497 0,-0.85 -0.10018,-0.1002 -0.32485,0.1001 -0.42502,0 -0.10018,-0.1002 0.0634,-0.2983 0,-0.4251 -0.0896,-0.1792 -0.33542,-0.2458 -0.42502,-0.425 -0.12672,-0.2534 0.20035,-0.6497 0,-0.85 -0.10018,-0.1002 -0.32485,0.1002 -0.42502,0 -0.20036,-0.2004 0.12671,-0.5966 0,-0.8501 -0.0896,-0.1792 -0.33542,-0.2458 -0.42503,-0.425 -0.0633,-0.1267 0.0634,-0.2983 0,-0.425 -0.0896,-0.1792 -0.33541,-0.2458 -0.42502,-0.425 -0.0634,-0.1267 0.10018,-0.3249 0,-0.425 -0.10017,-0.1002 -0.32484,0.1001 -0.42502,0 -0.10018,-0.1002 0.0634,-0.2983 0,-0.4251 -0.9674,-0.9674 -0.11233,0.088 -0.42502,-0.85 -1.0262,-3.0786 0.12254,0.6701 -0.85004,-1.2751 -0.0634,-0.1267 0.0448,-0.2906 0,-0.425 -0.10018,-0.3005 -0.32484,-0.5495 -0.42502,-0.85 -0.0896,-0.2688 0.12672,-0.5966 0,-0.8501 -0.0896,-0.1792 -0.33542,-0.2458 -0.42502,-0.425 -0.12672,-0.2534 0.12672,-0.5966 0,-0.85 -0.0896,-0.1792 -0.33542,-0.2458 -0.42502,-0.425 -0.12672,-0.2535 0.12672,-0.5967 0,-0.8501 -0.45253,-0.905 -0.39752,0.055 -0.85004,-0.85 -0.0634,-0.1267 0,-0.2834 0,-0.4251 -0.14168,-0.1416 -0.33542,-0.2458 -0.42502,-0.425 -0.0634,-0.1267 0.0634,-0.2983 0,-0.425 -0.0896,-0.1792 -0.36166,-0.2349 -0.42502,-0.425 -0.0896,-0.2688 0.0896,-0.5812 0,-0.8501 -0.0634,-0.19 -0.33542,-0.2458 -0.42502,-0.425 -0.0634,-0.1267 0.0634,-0.2983 0,-0.425 -0.0896,-0.1792 -0.33542,-0.2458 -0.42502,-0.425 -0.12672,-0.2534 0.12671,-0.5966 0,-0.8501 -0.17921,-0.3584 -0.72333,-0.4698 -0.85005,-0.85 -0.0896,-0.2688 0.0896,-0.5812 0,-0.85 -0.0634,-0.1901 -0.33541,-0.2459 -0.42502,-0.4251 -0.0634,-0.1267 0.0634,-0.2983 0,-0.425 -0.0896,-0.1792 -0.33541,-0.2458 -0.42502,-0.425 -0.0634,-0.1267 0.0634,-0.2983 0,-0.425 -0.0896,-0.1792 -0.33541,-0.2458 -0.42502,-0.425 -0.12671,-0.2535 0.12672,-0.5966 0,-0.8501 -1.40961,-1.4096 0.20036,0.4007 -0.42502,-0.85 -0.0896,-0.1792 -0.33542,-0.2458 -0.42502,-0.425 -0.0634,-0.1268 0.10018,-0.3249 0,-0.4251 -0.10018,-0.1001 -0.32484,0.1002 -0.42502,0 -0.10018,-0.1001 0.0634,-0.2983 0,-0.425 -0.1792,-0.3584 -0.62776,-0.5166 -0.85004,-0.85 -0.17572,-0.2636 -0.2493,-0.5865 -0.42502,-0.8501 -0.11114,-0.1667 -0.36166,-0.2349 -0.42502,-0.425 -0.0896,-0.2688 0.0896,-0.5812 0,-0.85 -0.0634,-0.1901 -0.31388,-0.2583 -0.42502,-0.4251 -0.17573,-0.2635 -0.2493,-0.5864 -0.42502,-0.85 -0.11114,-0.1667 -0.31388,-0.2583 -0.42502,-0.425 -0.14168,-0.2834 -0.28335,-0.5667 -0.42502,-0.8501 0,-0.1416 0.0634,-0.2983 0,-0.425 -0.0896,-0.1792 -0.31389,-0.2583 -0.42502,-0.425 -0.41292,-0.6194 -0.26534,-0.8853 -0.85005,-1.2751 -0.26358,-0.1757 -0.58645,-0.2493 -0.85004,-0.425 -0.1667,-0.1111 -0.24581,-0.3354 -0.42502,-0.425 -0.12671,-0.063 -0.2983,0.063 -0.42502,0 -0.1792,-0.09 -0.28334,-0.2833 -0.42502,-0.425 -0.14167,-0.1417 -0.33542,-0.2458 -0.42502,-0.425 -0.0634,-0.1268 0.10018,-0.3249 0,-0.4251 -0.10018,-0.1001 -0.32484,0.1002 -0.42502,0 -0.20036,-0.2003 0.12672,-0.5966 0,-0.85 -0.0896,-0.1792 -0.33542,-0.2458 -0.42502,-0.425 -0.0634,-0.1267 0.10018,-0.3249 0,-0.425 -0.10018,-0.1002 -0.32484,0.1001 -0.42502,0 -0.10018,-0.1002 0.0634,-0.2983 0,-0.4251 -1.40962,-1.4096 0.20036,0.4007 -0.42502,-0.85 -0.0896,-0.1792 -0.33542,-0.2458 -0.42502,-0.425 -0.0634,-0.1267 0.0634,-0.2983 0,-0.425 -1.40962,-1.4097 0.20035,0.4007 -0.42502,-0.8501 -0.0896,-0.1792 -0.33542,-0.2458 -0.42502,-0.425 -0.0634,-0.1267 0.0634,-0.2983 0,-0.425 -0.17921,-0.3584 -0.67084,-0.4917 -0.85004,-0.8501 -0.0634,-0.1267 0,-0.2833 0,-0.425 -0.14168,-0.2833 -0.2493,-0.5864 -0.42502,-0.85 -0.11114,-0.1667 -0.36167,-0.235 -0.42503,-0.4251 -0.0896,-0.2688 0.0896,-0.5812 0,-0.85 -0.0633,-0.1901 -0.33541,-0.2458 -0.42502,-0.425 -0.0634,-0.1267 0.0634,-0.2983 0,-0.425 -0.0896,-0.1792 -0.33541,-0.2459 -0.42502,-0.4251 -0.12671,-0.2534 0.12672,-0.5966 0,-0.85 -0.0896,-0.1792 -0.33541,-0.2458 -0.42502,-0.425 -0.0843,-0.1685 0.0869,-1.1882 0,-1.2751 -0.10018,-0.1002 -0.32484,0.1002 -0.42502,0 -0.21251,-0.2125 0.21251,-1.0625 0,-1.275 -0.10018,-0.1002 -0.32484,0.1001 -0.42502,0 -0.20035,-0.2004 0.20036,-0.6497 0,-0.8501 -0.10018,-0.1002 -0.32484,0.1002 -0.42502,0 -0.0869,-0.087 0.0843,-1.1065 0,-1.275 -0.0896,-0.1792 -0.33542,-0.2459 -0.42502,-0.4251 -0.12672,-0.2534 0.20036,-0.6496 0,-0.85 -0.10018,-0.1002 -0.32484,0.1002 -0.42502,0 -0.10018,-0.1002 0.0634,-0.2983 0,-0.425 -0.0896,-0.1792 -0.33542,-0.2458 -0.42502,-0.425 -0.12672,-0.2535 0.12672,-0.5967 0,-0.8501 -0.0896,-0.1792 -0.33542,-0.2458 -0.42502,-0.425 -0.12672,-0.2534 0.12672,-0.5966 0,-0.85 -0.0896,-0.1793 -0.33542,-0.2459 -0.42502,-0.4251 -0.12672,-0.2534 0.20035,-0.6497 0,-0.85 -0.10018,-0.1002 -0.32484,0.1002 -0.42502,0 -0.20036,-0.2004 0.12671,-0.5966 0,-0.8501 -0.0896,-0.1792 -0.33542,-0.2458 -0.42502,-0.425 -0.12672,-0.2534 0.20035,-0.6497 0,-0.85 -0.10018,-0.1002 -0.32485,0.1002 -0.42502,0 -0.20036,-0.2004 0.20035,-0.6497 0,-0.8501 -0.10018,-0.1001 -0.32485,0.1002 -0.42502,0 -0.21251,-0.2125 0.21251,-1.0625 0,-1.275 -0.10018,-0.1002 -0.32485,0.1002 -0.42502,0 -0.10018,-0.1002 0.0634,-0.2983 0,-0.425 -0.0896,-0.1792 -0.33542,-0.2459 -0.42503,-0.4251 -0.12671,-0.2534 0.12672,-0.5966 0,-0.85 -0.0896,-0.1792 -0.33541,-0.2458 -0.42502,-0.425 -0.0634,-0.1267 0.10018,-0.3249 0,-0.425 -0.10017,-0.1002 -0.32484,0.1001 -0.42502,0 -0.20035,-0.2004 0.20036,-0.6497 0,-0.8501 -0.10017,-0.1002 -0.32484,0.1002 -0.42502,0 -0.20035,-0.2003 0.12672,-0.5966 0,-0.85 -0.0896,-0.1792 -0.33542,-0.2458 -0.42502,-0.425 -0.0634,-0.1268 0,-0.2834 0,-0.4251 -0.14167,-0.1416 -0.33542,-0.2458 -0.42502,-0.425 -0.0634,-0.1267 0.0634,-0.2983 0,-0.425 -1.40961,-1.4096 0.20036,0.4007 -0.42502,-0.85 -0.0896,-0.1793 -0.33542,-0.2459 -0.42502,-0.4251 -0.12672,-0.2534 0.12672,-0.5966 0,-0.85 -1.40962,-1.4096 0.20036,0.4007 -0.42502,-0.85 -0.0896,-0.1793 -0.33542,-0.2459 -0.42502,-0.4251 -0.0634,-0.1267 0.0634,-0.2983 0,-0.425 -0.0896,-0.1792 -0.33542,-0.2458 -0.42502,-0.425 -0.0634,-0.1267 0.0634,-0.2983 0,-0.425 -0.0896,-0.1792 -0.33542,-0.2458 -0.42502,-0.4251 -0.12672,-0.2534 0.12671,-0.5966 0,-0.85 -0.17921,-0.3584 -0.67084,-0.4916 -0.85004,-0.85 -0.0634,-0.1268 0.0634,-0.2983 0,-0.4251 -0.17921,-0.3584 -0.67084,-0.4916 -0.85004,-0.85 -0.0634,-0.1267 0.0634,-0.2983 0,-0.425 -0.0896,-0.1792 -0.33542,-0.2458 -0.42502,-0.425 -0.0634,-0.1268 0.0634,-0.2983 0,-0.4251 -0.0896,-0.1792 -0.33542,-0.2458 -0.42503,-0.425 -0.0634,-0.1267 0.0634,-0.2983 0,-0.425 -0.1792,-0.3584 -0.67083,-0.4916 -0.85004,-0.85 -0.0634,-0.1268 0,-0.2834 0,-0.4251 -0.14167,-0.2833 -0.24929,-0.5864 -0.42502,-0.85 -0.25793,-0.3869 -1.0867,-0.8984 -1.27506,-1.2751 -0.0634,-0.1267 0.0634,-0.2983 0,-0.425 -0.1792,-0.3584 -0.67084,-0.4916 -0.85004,-0.85 -0.0634,-0.1267 0.0634,-0.2983 0,-0.425 -0.97258,-1.9452 0.17616,1.8035 -0.85004,-1.2751 -0.0448,-0.1344 0.0634,-0.2983 0,-0.425 -0.17921,-0.3584 -0.67084,-0.4917 -0.85004,-0.8501 -0.0634,-0.1267 0.0634,-0.2983 0,-0.425 -0.17921,-0.3584 -0.67084,-0.4916 -0.85004,-0.85 -0.0634,-0.1267 0.0634,-0.2983 0,-0.4251 -0.0896,-0.1792 -0.33542,-0.2458 -0.42502,-0.425 -0.0634,-0.1267 0.10017,-0.3248 0,-0.425 -0.10018,-0.1002 -0.32485,0.1002 -0.42503,0 -0.10017,-0.1002 0.0634,-0.2983 0,-0.425 -0.0896,-0.1792 -0.28334,-0.2834 -0.42502,-0.425 -0.14167,-0.1417 -0.28334,-0.2834 -0.42502,-0.4251 -0.14167,-0.1416 -0.28334,-0.2833 -0.42502,-0.425 -0.14167,-0.1416 -0.33542,-0.2458 -0.42502,-0.425 -0.0634,-0.1267 0.0634,-0.2983 0,-0.425 -0.20911,-0.4182 -1.49096,-1.2819 -1.70008,-1.7001 -0.0634,-0.1267 0.0634,-0.2983 0,-0.425 -1.40962,-1.4096 0.20036,0.4007 -0.42502,-0.8501 -0.46987,-0.9397 -0.26379,-0.1319 -0.85004,-0.425 -0.93975,-0.4699 -0.13189,-0.2638 -0.42502,-0.85 -0.88442,-1.7689 0.0293,0.4543 -0.85004,-0.425 -0.87939,-0.8794 1.34381,0.034 -0.42502,-0.8501 -1.13339,0 0.14167,0.1417 -0.42502,-0.425 -0.10018,-0.1002 -0.32485,0.1002 -0.42503,0 -0.10017,-0.1002 0.10018,-0.3248 0,-0.425 -0.10017,-0.1002 -0.32484,0.1002 -0.42502,0 -0.87938,-0.8794 1.34382,0.034 -0.42502,-0.8501 -0.58625,-0.2931 -0.38017,0.5148 -0.85004,-0.425 -0.0634,-0.1267 0.10018,-0.3248 0,-0.425 -0.10018,-0.1002 -0.2983,0.063 -0.42502,0 -0.35841,-0.1792 -0.49163,-0.6708 -0.85004,-0.85 -0.12672,-0.063 -0.32484,0.1001 -0.42502,0 -0.10018,-0.1002 0.10018,-0.3249 0,-0.4251 -0.10018,-0.1001 -0.2983,0.063 -0.42502,0 -0.35841,-0.1792 -0.49163,-0.6708 -0.85004,-0.85 -0.12672,-0.063 -0.29831,0.063 -0.42502,0 -0.35841,-0.1792 -0.49163,-0.6708 -0.85004,-0.8501 -0.12672,-0.063 -0.32485,0.1002 -0.42502,0 -0.10018,-0.1001 0.10017,-0.3248 0,-0.425 -0.21251,-0.2125 -1.06256,0.2125 -1.27507,0 -0.10017,-0.1002 0.10018,-0.3248 0,-0.425 -0.20035,-0.2004 -0.64968,0.2004 -0.85004,0 -0.10018,-0.1002 0.10018,-0.3248 0,-0.425 -0.20035,-0.2004 -0.5966,0.1267 -0.85004,0 -0.1792,-0.09 -0.24581,-0.3354 -0.42502,-0.425 -0.16852,-0.084 -1.18817,0.087 -1.27506,0 -0.10018,-0.1002 0.10018,-0.3249 0,-0.4251 -0.13161,-0.1316 -1.9935,0.1317 -2.1251,0 -0.10018,-0.1001 0.10017,-0.3248 0,-0.425 -0.10228,-0.1022 -1.59781,0.1023 -1.70009,0 -0.10017,-0.1002 0.10018,-0.3248 0,-0.425 -0.10227,-0.1023 -1.59781,0.1023 -1.70008,0 -0.10018,-0.1002 0.10018,-0.3248 0,-0.425 -0.0869,-0.087 -1.10654,0.084 -1.27506,0 -0.1792,-0.09 -0.24582,-0.3354 -0.42502,-0.425 -0.25343,-0.1268 -0.59661,0.1267 -0.85004,0 -0.17921,-0.09 -0.24582,-0.3355 -0.42502,-0.4251 -0.25344,-0.1267 -0.59661,0.1268 -0.85004,0 -0.17921,-0.09 -0.24582,-0.3354 -0.42502,-0.425 -0.25344,-0.1267 -0.59661,0.1267 -0.85005,0 -0.1792,-0.09 -0.24581,-0.3354 -0.42502,-0.425 -0.26713,-0.1336 -1.43294,0.1336 -1.70008,0 -0.1792,-0.09 -0.24581,-0.3354 -0.42502,-0.425 -0.25808,-0.1291 -2.29204,0.129 -2.55012,0 -0.17921,-0.09 -0.24582,-0.3354 -0.42502,-0.425 -0.10989,-0.055 -2.24887,0 -2.55013,0 -0.30125,0 -2.44023,-0.055 -2.55012,0 -0.1792,0.09 -0.24582,0.3354 -0.42502,0.425 -0.12672,0.063 -0.2983,-0.063 -0.42502,0 -0.17921,0.09 -0.24582,0.3354 -0.42502,0.425 -0.12672,0.063 -0.32484,-0.1002 -0.42502,0 -0.10018,0.1002 0.10018,0.3248 0,0.425 -0.20036,0.2004 -0.64969,-0.2003 -0.85004,0 -0.10018,0.1002 0.10017,0.3249 0,0.425 -0.20036,0.2004 -0.64969,-0.2003 -0.85005,0 -0.10017,0.1002 0.10018,0.3249 0,0.4251 -0.10017,0.1001 -0.32484,-0.1002 -0.42502,0 -0.10017,0.1001 0.10018,0.3248 0,0.425 -0.10017,0.1002 -0.32484,-0.1002 -0.42502,0 -0.10017,0.1002 0.10018,0.3248 0,0.425 -0.10017,0.1002 -0.2983,-0.063 -0.42502,0 -0.1792,0.09 -0.24581,0.3354 -0.42502,0.425 -0.12671,0.063 -0.28334,0 -0.42502,0 -0.14167,0.1417 -0.24581,0.3354 -0.42502,0.425 -0.12672,0.063 -0.2983,-0.063 -0.42502,0 -1.76883,0.8845 0.45436,-0.029 -0.42502,0.8501 -0.10018,0.1002 -0.32484,-0.1002 -0.42502,0 -0.10018,0.1002 0.10018,0.3248 0,0.425 -0.10018,0.1002 -0.2983,-0.063 -0.42502,0 -0.17921,0.09 -0.24582,0.3354 -0.42502,0.425 -0.12672,0.063 -0.29831,-0.063 -0.42502,0 -1.76884,0.8844 0.45436,-0.029 -0.42502,0.8501 -0.10018,0.1001 -0.32485,-0.1002 -0.42502,0 -0.20036,0.2003 0.20035,0.6497 0,0.85 -0.10018,0.1002 -0.32485,-0.1002 -0.42502,0 -0.10018,0.1002 0.10017,0.3249 0,0.425 -0.10018,0.1002 -0.32485,-0.1001 -0.42502,0 -0.10018,0.1002 0.10017,0.3249 0,0.4251 -0.10018,0.1001 -0.28335,0 -0.42503,0 0,0.1416 0.10018,0.3248 0,0.425 -0.10017,0.1001 -0.32484,-0.1002 -0.42502,0 -0.87938,0.8794 1.34382,-0.034 -0.42502,0.85 -0.12671,0.063 -0.32484,-0.1002 -0.42502,0 -0.20035,0.2004 0.20036,0.6497 0,0.8501 -0.10018,0.1001 -0.32484,-0.1002 -0.42502,0 -0.20035,0.2003 0.20036,0.6496 0,0.85 -0.10018,0.1002 -0.32484,-0.1002 -0.42502,0 -0.10018,0.1002 0.0634,0.2983 0,0.425 -0.0896,0.1792 -0.33542,0.2458 -0.42502,0.425 -0.0634,0.1268 0,0.2834 0,0.4251 -0.14167,0.1416 -0.33542,0.2458 -0.42502,0.425 -0.12672,0.2534 0.20036,0.6497 0,0.85 -0.87938,0.8794 0.0344,-1.3438 -0.85004,0.425 -0.0634,0.1268 0.0634,0.2983 0,0.4251 -0.0896,0.1792 -0.33542,0.2458 -0.42502,0.425 -0.0634,0.1267 0.0634,0.2983 0,0.425 -0.0896,0.1792 -0.33542,0.2458 -0.42502,0.425 -0.0634,0.1267 0.0634,0.2983 0,0.425 -0.0896,0.1792 -0.33542,0.2459 -0.42502,0.4251 -0.12672,0.2534 0.12671,0.5966 0,0.85 -0.0896,0.1792 -0.33542,0.2458 -0.42502,0.425 -0.0634,0.1267 0.0634,0.2983 0,0.425 -0.0896,0.1792 -0.33542,0.2459 -0.42502,0.4251 -0.0634,0.1267 0.0633,0.2983 0,0.425 -0.0896,0.1792 -0.36167,0.2349 -0.42502,0.425 -0.0896,0.2688 0.0896,0.5812 0,0.85 -0.0634,0.1901 -0.33542,0.2459 -0.42502,0.4251 -0.12672,0.2534 0.0896,0.5812 0,0.85 -0.10018,0.3005 -0.32485,0.5495 -0.42503,0.8501 -0.0448,0.1344 0.0634,0.2983 0,0.425 -0.0896,0.1792 -0.33541,0.2458 -0.42502,0.425 -0.12671,0.2534 0.12672,0.5966 0,0.85 -0.0896,0.1792 -0.33541,0.2458 -0.42502,0.4251 -0.17,0.34 0.17001,0.935 0,1.275 -0.0896,0.1792 -0.33542,0.2458 -0.42502,0.425 -0.0647,0.1294 0,1.0837 0,1.2751 0,0.1031 0.0137,1.2614 0,1.2751 -0.10018,0.1001 -0.32484,-0.1002 -0.42502,0 -0.0869,0.087 0.0843,1.1065 0,1.275 -0.0896,0.1792 -0.33542,0.2458 -0.42502,0.425 -0.12672,0.2535 0.12672,0.5967 0,0.8501 -0.0896,0.1792 -0.33542,0.2458 -0.42502,0.425 -0.0647,0.1294 0,1.0837 0,1.2751 0,0.3012 0.055,2.4402 0,2.5501 -0.0896,0.1792 -0.36166,0.2349 -0.42502,0.425 -0.1344,0.4032 0,0.8501 0,1.2751 0,0.7083 0,1.4167 0,2.1251 0,1.1334 0,2.2668 0,3.4001 0,0.3422 -0.0889,1.4334 0,1.7001 0.10018,0.3006 0.32484,0.5495 0.42502,0.8501 0.0448,0.1344 -0.0634,0.2983 0,0.425 0.0896,0.1792 0.36166,0.2349 0.42502,0.425 0.1344,0.4032 -0.1344,0.8719 0,1.2751 0.10018,0.3005 0.32484,0.5495 0.42502,0.85 0.0896,0.2688 -0.12671,0.5966 0,0.85 0.0896,0.1793 0.36166,0.235 0.42502,0.4251 0.0896,0.2688 0,0.5667 0,0.85 0,0.1417 -0.0634,0.2983 0,0.425 0.0896,0.1792 0.36167,0.235 0.42502,0.4251 0.15055,0.4516 -0.15054,1.2484 0,1.7 0.10018,0.3006 0.32485,0.5495 0.42502,0.8501 0.0896,0.2688 -0.12671,0.5966 0,0.85 0.0896,0.1792 0.36167,0.235 0.42502,0.425 0.12751,0.3826 -0.1275,0.8926 0,1.2751 0.10018,0.3005 0.32485,0.5495 0.42503,0.85 0.1344,0.4032 -0.10309,0.8628 0,1.2751 0.0768,0.3073 0.34818,0.5427 0.42502,0.85 0.0687,0.2749 0,0.5667 0,0.8501 0,0.442 -0.0836,2.2158 0,2.5501 0.0768,0.3073 0.34818,0.5427 0.42502,0.85 0.16667,0.6667 -0.16668,1.4585 0,2.1252 0.0768,0.3073 0.32484,0.5495 0.42502,0.85 0.0936,0.2809 0,2.5192 0,2.9751 0,0.2834 -0.0896,0.5813 0,0.8501 0.10018,0.3005 0.32484,0.5495 0.42502,0.85 0.0448,0.1344 0,0.2834 0,0.425 0,0.2373 -0.0649,1.9306 0,2.1251 0.0634,0.1901 0.33542,0.2459 0.42502,0.4251 0.0634,0.1267 0,0.2833 0,0.425 0,0.2833 -0.0687,0.5751 0,0.85 0.0768,0.3074 0.32484,0.5495 0.42502,0.8501 0.0448,0.1344 -0.0448,0.2906 0,0.425 0.10018,0.3005 0.34819,0.5427 0.42502,0.85 0.0904,0.3618 -0.122,1.8811 0,2.1251 0.0896,0.1792 0.28335,0.2834 0.42502,0.4251 0,0.2833 -0.0896,0.5812 0,0.85 0.0634,0.1901 0.36166,0.2349 0.42502,0.425 0.0896,0.2688 -0.0896,0.5812 0,0.8501 0.0634,0.19 0.36166,0.2349 0.42502,0.425 0.0896,0.2688 -0.0687,0.5751 0,0.85 0.0768,0.3073 0.34819,0.5427 0.42502,0.8501 0.0687,0.2748 -0.0896,0.5812 0,0.85 0.0634,0.1901 0.33542,0.2458 0.42502,0.425 0.12672,0.2535 -0.12671,0.5966 0,0.8501 0.0896,0.1792 0.33542,0.2458 0.42502,0.425 0.0946,0.1891 -0.0648,1.5057 0,1.7001 0.0634,0.19 0.36167,0.2349 0.42502,0.425 0.21251,0.6375 -0.21251,1.4876 0,2.1251 0.0634,0.1901 0.33542,0.2458 0.42502,0.425 0.0634,0.1267 0,0.2834 0,0.425 0,0.1923 -0.0566,2.4369 0,2.5502 0.0896,0.1792 0.33542,0.2458 0.42502,0.425 0.12653,0.253 -0.11927,1.7672 0,2.1251 0.10018,0.3005 0.32485,0.5495 0.42503,0.85 0.0896,0.2688 0,0.5667 0,0.8501 0,0.428 -0.0784,2.315 0,2.5501 0.0634,0.1901 0.36166,0.2349 0.42502,0.425 0.21251,0.6375 -0.21251,1.4876 0,2.1251 0.0634,0.1901 0.36166,0.235 0.42502,0.425 0.21251,0.6376 -0.21251,1.4876 0,2.1251 0.0634,0.1901 0.33541,0.2458 0.42502,0.425 0.12671,0.2535 -0.12672,0.5967 0,0.8501 0.0896,0.1792 0.33542,0.2458 0.42502,0.425 0.13357,0.2671 -0.13357,1.433 0,1.7001 0.0896,0.1792 0.33542,0.2458 0.42502,0.425 0.17001,0.34 -0.17001,0.9351 0,1.2751 0.0896,0.1792 0.33542,0.2458 0.42502,0.425 0.12672,0.2534 -0.12672,0.5966 0,0.85 0.0896,0.1792 0.33542,0.2459 0.42502,0.4251 0.12672,0.2534 -0.20036,0.6496 0,0.85 0.10018,0.1002 0.32484,-0.1002 0.42502,0 0.10227,0.1023 -0.10227,1.5978 0,1.7001 0.10018,0.1002 0.32484,-0.1002 0.42502,0 0.10018,0.1002 -0.0634,0.2983 0,0.425 0.0896,0.1792 0.33542,0.2458 0.42502,0.425 0.0843,0.1685 -0.0869,1.1882 0,1.2751 0.10018,0.1002 0.28335,0 0.42502,0"
         style="color:#000000;clip-rule:nonzero;display:inline;overflow:visible;visibility:visible;opacity:0.58499995;isolation:auto;mix-blend-mode:normal;color-interpolation:sRGB;color-interpolation-filters:linearRGB;solid-color:#000000;solid-opacity:1;fill:none;fill-opacity:1;fill-rule:evenodd;stroke:#008080;stroke-width:1.77165353;stroke-linecap:butt;stroke-linejoin:miter;stroke-miterlimit:4;stroke-dasharray:none;stroke-dashoffset:0;stroke-opacity:1;color-rendering:auto;image-rendering:auto;shape-rendering:auto;text-rendering:auto;enable-background:accumulate" />
    </g>
  </g>
</svg>
