<?xml version="1.0" encoding="UTF-8" standalone="no"?>
<!-- Created with Inkscape (http://www.inkscape.org/) -->

<svg
   xmlns:dc="http://purl.org/dc/elements/1.1/"
   xmlns:cc="http://creativecommons.org/ns#"
   xmlns:rdf="http://www.w3.org/1999/02/22-rdf-syntax-ns#"
   xmlns:svg="http://www.w3.org/2000/svg"
   xmlns="http://www.w3.org/2000/svg"
   xmlns:sodipodi="http://sodipodi.sourceforge.net/DTD/sodipodi-0.dtd"
   xmlns:inkscape="http://www.inkscape.org/namespaces/inkscape"
   width="177.16534"
   height="106.29497"
   id="svg2"
   version="1.1"
   inkscape:version="0.91 r13725"
   sodipodi:docname="sit_up.svg">
  <defs
     id="defs4" />
  <sodipodi:namedview
     id="base"
     pagecolor="#ffffff"
     bordercolor="#666666"
     borderopacity="1.0"
     inkscape:pageopacity="0.0"
     inkscape:pageshadow="2"
     inkscape:zoom="2.3819557"
     inkscape:cx="42.136564"
     inkscape:cy="51.96989"
     inkscape:document-units="cm"
     inkscape:current-layer="layer1"
     showgrid="false"
     fit-margin-top="0"
     fit-margin-left="0"
     fit-margin-right="0"
     fit-margin-bottom="0"
     inkscape:window-width="1330"
     inkscape:window-height="747"
     inkscape:window-x="36"
     inkscape:window-y="21"
     inkscape:window-maximized="1"
     units="cm" />
  <metadata
     id="metadata7">
    <rdf:RDF>
      <cc:Work
         rdf:about="">
        <dc:format>image/svg+xml</dc:format>
        <dc:type
           rdf:resource="http://purl.org/dc/dcmitype/StillImage" />
        <dc:title></dc:title>
      </cc:Work>
    </rdf:RDF>
  </metadata>
  <g
     inkscape:label="Layer 1"
     inkscape:groupmode="layer"
     id="layer1"
     transform="translate(-32.228633,-1064.9324)">
    <path
       inkscape:connector-curvature="0"
       id="path5115"
       d="m 111.85688,962.12555 c 0.96825,7.95603 -3.43,15.02874 -5.30527,22.43173 0.55562,2.86645 -2.78231,10.36958 2.92738,7.9522"
       style="color:#000000;clip-rule:nonzero;display:inline;overflow:visible;visibility:visible;opacity:1;isolation:auto;mix-blend-mode:normal;color-interpolation:sRGB;color-interpolation-filters:linearRGB;solid-color:#000000;solid-opacity:1;fill:none;fill-opacity:1;fill-rule:evenodd;stroke:#000000;stroke-width:1.38269389;stroke-linecap:butt;stroke-linejoin:miter;stroke-miterlimit:4;stroke-dasharray:none;stroke-dashoffset:0;stroke-opacity:1;color-rendering:auto;image-rendering:auto;shape-rendering:auto;text-rendering:auto;enable-background:accumulate" />
    <g
       id="g7020">
      <path
         inkscape:connector-curvature="0"
         id="path6970"
         d="m 111.84231,1132.8527 c 0.80353,0.1528 0.0457,0.6633 0.19064,0.9532 0.0402,0.08 0.15045,0.1102 0.19064,0.1906 0.0763,0.1525 -0.0763,0.4194 0,0.5719 0.0402,0.08 0.15045,0.1103 0.19064,0.1907 0.0599,0.1198 -0.0599,0.6427 0,0.7625 0.0402,0.08 0.15046,0.1103 0.19064,0.1907 0.0599,0.1198 -0.0599,0.6427 0,0.7625 0.0402,0.08 0.15046,0.1103 0.19065,0.1907 0.0658,0.1317 -0.0669,0.8863 0,0.9532 0.045,0.045 0.14571,-0.045 0.19064,0 0.0953,0.095 -0.0953,0.4766 0,0.5719 0.045,0.045 0.14571,-0.045 0.19064,0 0.0899,0.09 -0.0568,0.2676 0,0.3813 0.0402,0.08 0.15045,0.1103 0.19065,0.1907 0.0568,0.1136 -0.0899,0.2914 0,0.3812 0.045,0.045 0.1457,-0.045 0.19064,0 0.0899,0.09 -0.0899,0.2915 0,0.3813 0.0449,0.045 0.14571,-0.045 0.19064,0 0.0899,0.09 -0.0899,0.2914 0,0.3813 0.045,0.045 0.14571,-0.045 0.19064,0 0,0.5084 -0.0635,-0.063 0.19065,0.1906 0.0449,0.045 -0.045,0.1458 0,0.1907 0.0449,0.045 0.1457,-0.045 0.19064,0 0.045,0.045 -0.045,0.1457 0,0.1906 0.045,0.045 0.1457,-0.045 0.19064,0 0,0.5084 -0.0636,-0.063 0.19064,0.1907 0.045,0.045 -0.045,0.1457 0,0.1906 0.045,0.045 0.1338,-0.029 0.19064,0 0.0804,0.04 0.11026,0.1505 0.19064,0.1907 0.11368,0.057 0.29142,-0.09 0.38129,0 0.045,0.045 -0.0449,0.1457 0,0.1906 0.0899,0.09 0.29142,-0.09 0.38129,0 0.045,0.045 -0.045,0.1457 0,0.1906 0.0953,0.095 0.4766,-0.095 0.57192,0 0.045,0.045 -0.045,0.1458 0,0.1907 0.0953,0.095 0.47661,-0.095 0.57193,0 0.045,0.045 -0.045,0.1457 0,0.1906 0.059,0.059 0.89418,-0.059 0.95321,0 0.045,0.045 -0.045,0.1457 0,0.1907 0.0522,0.052 0.65915,-0.052 0.76257,0 0.0804,0.04 0.11026,0.1504 0.19064,0.1906 0.058,0.029 0.48608,0 0.57193,0 0.44483,0 0.88966,0 1.3345,0 0.1326,0 0.88427,0.034 0.95321,0 0.16076,-0.08 0.22052,-0.3009 0.38128,-0.3813 0.20395,-0.1019 0.17734,0.102 0.38129,0 0.0804,-0.04 0.11026,-0.1504 0.19064,-0.1906 0.0568,-0.029 0.14571,0.045 0.19064,0 0.045,-0.045 -0.045,-0.1457 0,-0.1907 0.39445,-0.3944 -0.0154,0.6028 0.38129,-0.1906 0.0284,-0.057 -0.045,-0.1457 0,-0.1906 0.045,-0.045 0.14571,0.045 0.19064,0 0.0899,-0.09 -0.0899,-0.2915 0,-0.3813 0.045,-0.045 0.14571,0.045 0.19064,0 0.0899,-0.09 -0.0568,-0.2676 0,-0.3813 0.0402,-0.08 0.15045,-0.1103 0.19065,-0.1907 0.0378,-0.075 -0.039,-0.5329 0,-0.5719 0.045,-0.045 0.1457,0.045 0.19064,0 0.0899,-0.09 -0.0568,-0.2676 0,-0.3813 0.0402,-0.08 0.15045,-0.1102 0.19064,-0.1906 0.0378,-0.076 -0.039,-0.5329 0,-0.5719 0.045,-0.045 0.1457,0.045 0.19064,0 0.0899,-0.09 -0.0899,-0.2914 0,-0.3813 0.045,-0.045 0.14571,0.045 0.19064,0 0.039,-0.039 -0.0378,-0.4963 0,-0.5719 0.0402,-0.08 0.15046,-0.1103 0.19064,-0.1907 0.0568,-0.1136 -0.0899,-0.2914 0,-0.3813 0.045,-0.045 0.14571,0.045 0.19065,0 0.0459,-0.046 -0.0459,-0.7167 0,-0.7626 0.045,-0.045 0.14571,0.045 0.19064,0 0.045,-0.045 0,-0.127 0,-0.1906 0,-0.3177 0,-0.6355 0,-0.9532 0,-0.063 -0.045,-0.1457 0,-0.1906 0.045,-0.045 0.14571,0.045 0.19064,0 0.045,-0.045 0,-0.1271 0,-0.1907 0,-0.064 0.0284,-0.1338 0,-0.1906 -0.0402,-0.08 -0.15045,-0.1103 -0.19064,-0.1907 -0.0568,-0.1136 0.0568,-0.2676 0,-0.3812 -0.3967,-0.7934 0.0132,0.2038 -0.38129,-0.1907 -0.045,-0.045 0.0284,-0.1338 0,-0.1906 -0.3967,-0.7934 0.0132,0.2038 -0.38128,-0.1907 -0.045,-0.045 0.045,-0.1457 0,-0.1906 -0.045,-0.045 -0.1271,0 -0.19064,0 0,-0.064 0.045,-0.1457 0,-0.1906 -0.045,-0.045 -0.14571,0.045 -0.19064,0 -0.045,-0.045 0.045,-0.1458 0,-0.1907 -0.045,-0.045 -0.14571,0.045 -0.19064,0 -0.045,-0.045 0.045,-0.1457 0,-0.1906 -0.045,-0.045 -0.14571,0.045 -0.19065,0 -0.045,-0.045 0.045,-0.1458 0,-0.1907 -0.045,-0.045 -0.1338,0.029 -0.19064,0 -0.60828,-0.3041 0.227,-0.077 -0.38129,-0.3813 -0.0568,-0.028 -0.14571,0.045 -0.19064,0 -0.045,-0.045 0.045,-0.1457 0,-0.1906 -0.045,-0.045 -0.1338,0.029 -0.19064,0 -0.0804,-0.04 -0.11026,-0.1505 -0.19064,-0.1907 -0.11368,-0.057 -0.29142,0.09 -0.38129,0 -0.045,-0.045 0.045,-0.1457 0,-0.1906 -0.045,-0.045 -0.12709,0 -0.19064,0 0,-0.064 0.0449,-0.1457 0,-0.1906 -0.0899,-0.09 -0.29141,0.09 -0.38128,0 -0.045,-0.045 0.045,-0.1457 0,-0.1907 -0.12747,-0.1275 -0.25382,0.1275 -0.38129,0 -0.045,-0.045 0.045,-0.1457 0,-0.1906 -0.045,-0.045 -0.1338,0.029 -0.19064,0 -0.0804,-0.04 -0.11026,-0.1505 -0.19064,-0.1907 -0.11368,-0.057 -0.29142,0.09 -0.38129,0 -0.045,-0.045 0.045,-0.1457 0,-0.1906 -0.0899,-0.09 -0.29141,0.09 -0.38128,0 -0.0449,-0.045 0.045,-0.1457 0,-0.1907 -0.039,-0.039 -0.49634,0.038 -0.57193,0 -0.0804,-0.04 -0.11026,-0.1504 -0.19064,-0.1906 -0.11368,-0.057 -0.26761,0.057 -0.38129,0 -0.0804,-0.04 -0.11026,-0.1504 -0.19064,-0.1906 -0.0568,-0.029 -0.12709,0 -0.19064,0 -0.0636,-0.064 -0.11026,-0.1505 -0.19064,-0.1907 -0.15252,-0.076 -0.41942,0.076 -0.57193,0 -0.0804,-0.04 -0.11026,-0.1505 -0.19065,-0.1906 -0.0568,-0.028 -0.1338,0.029 -0.19064,0 -0.0804,-0.041 -0.11026,-0.1505 -0.19064,-0.1907 -0.0568,-0.029 -0.1338,0.029 -0.19064,0 -0.0804,-0.04 -0.11026,-0.1504 -0.19064,-0.1906 -0.11368,-0.057 -0.26761,0.057 -0.38129,0 -0.0804,-0.04 -0.11026,-0.1504 -0.19064,-0.1906 -0.13168,-0.066 -0.88629,0.067 -0.95321,0 -0.045,-0.045 0.0635,-0.1907 0,-0.1907 -0.0899,0 -0.11026,0.1505 -0.19065,0.1907 -0.0568,0.029 -0.12709,0 -0.19064,0 -0.0635,0 -0.12709,0 -0.19064,0 -0.07,0 -0.7549,-0.01 -0.76257,0 -0.045,0.045 0.045,0.1456 0,0.1906 -0.045,0.045 -0.1338,-0.029 -0.19064,0 -0.20043,0.1002 -0.18085,0.2811 -0.38128,0.3813 -0.11368,0.057 -0.29142,-0.09 -0.38129,0 0,0.5084 0.0636,-0.064 -0.19064,0.1906 -0.045,0.045 0.045,0.1457 0,0.1907 -0.045,0.045 -0.14571,-0.045 -0.19065,0 -0.045,0.045 0.045,0.1457 0,0.1906 -0.045,0.045 -0.1457,-0.045 -0.19064,0 -0.045,0.045 0.045,0.1457 0,0.1906 -0.045,0.045 -0.1457,-0.045 -0.19064,0 -0.045,0.045 0.045,0.1458 0,0.1907 -0.045,0.045 -0.1457,-0.045 -0.19064,0 -0.045,0.045 0,0.1271 0,0.1906 0,0.3178 0,0.6355 0,0.9532 0,0.064 -0.045,0.1458 0,0.1907 0.045,0.045 0.1457,-0.045 0.19064,0 0.045,0.045 0,0.1271 0,0.1906 0,0.4749 0.0284,0.1338 -0.38128,0.9533 z"
         style="color:#000000;clip-rule:nonzero;display:inline;overflow:visible;visibility:visible;isolation:auto;mix-blend-mode:normal;color-interpolation:sRGB;color-interpolation-filters:linearRGB;solid-color:#000000;solid-opacity:1;fill:#000000;fill-opacity:1;fill-rule:evenodd;stroke:#000000;stroke-width:1.37551463;stroke-linecap:butt;stroke-linejoin:miter;stroke-miterlimit:4;stroke-dasharray:none;stroke-dashoffset:0;stroke-opacity:1;color-rendering:auto;image-rendering:auto;shape-rendering:auto;text-rendering:auto;enable-background:accumulate" />
      <path
         inkscape:connector-curvature="0"
         id="path6972"
         d="m 111.84231,1135.9029 c -0.31774,0 -0.63548,0 -0.95321,0 -0.0635,0 -0.13381,0.029 -0.19065,0 -0.0804,-0.04 -0.11026,-0.1504 -0.19064,-0.1906 -0.11982,-0.06 -0.64274,0.06 -0.76257,0 -0.0804,-0.04 -0.11026,-0.1505 -0.19064,-0.1907 -0.0689,-0.034 -0.82061,0 -0.95321,0 -0.69902,0 -1.39804,0 -2.09707,0 -0.31774,0 -0.63547,0 -0.95321,0 -0.0635,0 -0.12709,0 -0.19064,0 -0.0636,0 -0.13381,-0.029 -0.19065,0 -0.0804,0.04 -0.11026,0.1505 -0.19064,0.1907 -0.13168,0.066 -0.88629,-0.067 -0.95321,0 -0.045,0.045 0.045,0.1457 0,0.1906 -0.006,0.01 -0.52569,0 -0.57192,0 -1.3345,0 -2.669,0 -4.003494,0 -5.147341,0 -10.294687,0 -15.442028,0 -1.525137,0 -3.050278,0 -4.575414,0 -0.508381,0 -1.016761,0 -1.525141,0 -0.08586,0 -0.513907,0.029 -0.571928,0 -0.08038,-0.04 -0.11026,-0.1504 -0.190641,-0.1906 -0.152514,-0.076 -0.419412,0.076 -0.571927,0 -0.08038,-0.04 -0.11026,-0.1505 -0.190641,-0.1907 -0.05684,-0.029 -0.127094,0 -0.190645,0 -0.06355,0 -0.127094,0 -0.190641,0 -0.317735,0 -0.635474,0 -0.953209,0"
         style="color:#000000;clip-rule:nonzero;display:inline;overflow:visible;visibility:visible;isolation:auto;mix-blend-mode:normal;color-interpolation:sRGB;color-interpolation-filters:linearRGB;solid-color:#000000;solid-opacity:1;fill:none;fill-opacity:1;fill-rule:evenodd;stroke:#000000;stroke-width:1.37551463;stroke-linecap:butt;stroke-linejoin:miter;stroke-miterlimit:4;stroke-dasharray:none;stroke-dashoffset:0;stroke-opacity:1;color-rendering:auto;image-rendering:auto;shape-rendering:auto;text-rendering:auto;enable-background:accumulate" />
      <path
         inkscape:connector-curvature="0"
         id="path6974"
         d="m 75.238982,1134.5684 c 0.292836,-0.6526 -0.406217,-0.6218 -0.571928,-0.9532 -0.02843,-0.057 0.02843,-0.1338 0,-0.1906 -0.04019,-0.08 -0.150453,-0.1103 -0.190641,-0.1907 -0.02843,-0.057 0.04491,-0.1457 0,-0.1906 -0.04496,-0.045 -0.145707,0.045 -0.190645,0 -0.04496,-0.045 0.02843,-0.1338 0,-0.1906 -0.0938,-0.1877 -0.668769,-0.575 -0.762568,-0.7626 -0.02843,-0.057 0.04496,-0.1457 0,-0.1907 -0.04496,-0.045 -0.145708,0.045 -0.190641,0 -0.04496,-0.045 0.04496,-0.1457 0,-0.1906 -0.04496,-0.045 -0.145708,0.045 -0.190646,0 -0.04496,-0.045 0.02843,-0.1338 0,-0.1907 -0.04019,-0.08 -0.150448,-0.1102 -0.190641,-0.1906 -0.02843,-0.057 0.04496,-0.1457 0,-0.1907 -0.04496,-0.045 -0.145707,0.045 -0.19064,0 -0.04496,-0.045 0.04496,-0.1456 0,-0.1906 -0.04496,-0.045 -0.145708,0.045 -0.190641,0 -0.04496,-0.045 0.02843,-0.1338 0,-0.1906 -0.04019,-0.08 -0.150453,-0.1103 -0.190646,-0.1907 -0.02843,-0.057 0.04496,-0.1457 0,-0.1906 -0.04496,-0.045 -0.145707,0.045 -0.190641,0 -0.04496,-0.045 0.04496,-0.1457 0,-0.1907 -0.04496,-0.045 -0.145707,0.045 -0.190641,0 -0.04496,-0.045 0.02843,-0.1337 0,-0.1906 -0.05099,-0.1019 -0.3303,-0.2793 -0.381286,-0.3813 -0.02843,-0.057 0.04496,-0.1457 0,-0.1906 -0.04496,-0.045 -0.145708,0.045 -0.190641,0 -0.04496,-0.045 0.04496,-0.1457 0,-0.1907 -0.04496,-0.045 -0.145708,0.045 -0.190645,0 -0.04496,-0.045 0.02843,-0.1337 0,-0.1906 -0.0938,-0.1876 -0.668769,-0.575 -0.762569,-0.7626 -0.02843,-0.057 0.04496,-0.1457 0,-0.1906 -0.04496,-0.045 -0.145707,0.045 -0.190641,0 -0.04496,-0.045 0.02843,-0.1338 0,-0.1906 -0.396703,-0.7934 0.01317,0.2038 -0.381286,-0.1907 -0.04496,-0.045 0.04496,-0.1457 0,-0.1906 -0.04496,-0.045 -0.145708,0.045 -0.190641,0 -0.04496,-0.045 0.04496,-0.1458 0,-0.1907 -0.04496,-0.045 -0.145708,0.045 -0.190641,0 -0.04496,-0.045 0.02843,-0.1338 0,-0.1906 -0.04019,-0.08 -0.150453,-0.1103 -0.190645,-0.1907 -0.02843,-0.057 0.04496,-0.1457 0,-0.1906 -0.04496,-0.045 -0.145708,0.045 -0.190641,0 -0.127467,-0.1275 0.127466,-0.2538 0,-0.3813 -0.04496,-0.045 -0.145708,0.045 -0.190641,0 -0.04496,-0.045 0.02843,-0.1338 0,-0.1907 -0.04019,-0.08 -0.150453,-0.1102 -0.190646,-0.1906 -0.02843,-0.057 0.04496,-0.1457 0,-0.1906 -0.04496,-0.045 -0.145707,0.045 -0.190641,0 -0.04496,-0.045 0.02843,-0.1338 0,-0.1907 -0.04019,-0.08 -0.150452,-0.1102 -0.19064,-0.1906 -0.02843,-0.057 0.02843,-0.1338 0,-0.1907 -0.114389,-0.2287 -0.457544,-0.3431 -0.571928,-0.5719 -0.02843,-0.057 0.04496,-0.1457 0,-0.1906 -0.04496,-0.045 -0.145707,0.045 -0.190641,0 -0.04496,-0.045 0.04491,-0.1457 0,-0.1907 -0.04496,-0.045 -0.145707,0.045 -0.190645,0 -0.04496,-0.045 0.02843,-0.1337 0,-0.1906 -0.0938,-0.1876 -0.668769,-0.575 -0.762568,-0.7626 -0.02843,-0.057 0.04496,-0.1457 0,-0.1906 -0.04496,-0.045 -0.145708,0.045 -0.190641,0 -0.04496,-0.045 0.02843,-0.1338 0,-0.1906 -0.04019,-0.081 -0.150453,-0.1103 -0.190646,-0.1907 -0.02843,-0.057 0.04496,-0.1457 0,-0.1906 -0.04496,-0.045 -0.145707,0.045 -0.190641,0 -0.04496,-0.045 0.04496,-0.1458 0,-0.1907 -0.04496,-0.045 -0.145707,0.045 -0.190641,0 -0.04496,-0.045 0.02843,-0.1338 0,-0.1906 -0.04019,-0.08 -0.150453,-0.1103 -0.190645,-0.1907 -0.02843,-0.057 0.04496,-0.1457 0,-0.1906 -0.04491,-0.045 -0.145708,0.045 -0.190641,0 -0.08987,-0.09 0.05684,-0.2676 0,-0.3813 -0.04019,-0.08 -0.150453,-0.1102 -0.190641,-0.1907 -0.02843,-0.057 0.04496,-0.1456 0,-0.1906 -0.04496,-0.045 -0.145707,0.045 -0.190645,0 -0.04496,-0.045 0.02843,-0.1338 0,-0.1906 -0.04019,-0.08 -0.150449,-0.1103 -0.190641,-0.1907 -0.05684,-0.1137 0.05684,-0.2676 0,-0.3813 -0.08038,-0.1607 -0.300902,-0.2205 -0.381282,-0.3812 -0.02843,-0.057 0.04496,-0.1458 0,-0.1907 -0.04496,-0.045 -0.145708,0.045 -0.190646,0 -0.08987,-0.09 0.08987,-0.2914 0,-0.3813 -0.04496,-0.045 -0.145707,0.045 -0.190641,0 -0.08987,-0.09 0.08987,-0.2914 0,-0.3812 -0.04496,-0.045 -0.145707,0.045 -0.19064,0 -0.08987,-0.09 0.08987,-0.2915 0,-0.3813 -0.04496,-0.045 -0.145708,0.045 -0.190646,0 -0.04496,-0.045 0.02843,-0.1338 0,-0.1907 -0.04019,-0.08 -0.150448,-0.1102 -0.190641,-0.1906 -0.02843,-0.057 0.04496,-0.1457 0,-0.1906 -0.04496,-0.045 -0.145707,0.045 -0.190641,0 -0.127466,-0.1275 0.127467,-0.2539 0,-0.3813 -0.04496,-0.045 -0.145707,0.045 -0.190645,0 -0.04496,-0.045 0.02843,-0.1338 0,-0.1907 -0.08038,-0.1607 -0.300902,-0.2205 -0.381282,-0.3813 -0.02843,-0.057 0.02843,-0.1338 0,-0.1906 -0.04019,-0.08 -0.150453,-0.1103 -0.190646,-0.1907 -0.02843,-0.057 0.04496,-0.1457 0,-0.1906 -0.04496,-0.045 -0.145707,0.045 -0.19064,0 -0.04496,-0.045 0.02843,-0.1338 0,-0.1907 -0.04019,-0.08 -0.150449,-0.1102 -0.190641,-0.1906 -0.02843,-0.057 0.04496,-0.1457 0,-0.1906 -0.04496,-0.045 -0.145708,0.045 -0.190641,0 -0.04496,-0.045 0.06355,-0.1907 0,-0.1907 -0.01226,0 -0.525695,0.5257 -0.571928,0.5719 -0.06355,0.064 -0.11026,0.1505 -0.190645,0.1907 -0.05683,0.029 -0.145708,-0.045 -0.190641,0 -0.394446,0.3944 0.602765,-0.015 -0.190641,0.3813 -0.262966,0.1315 -0.170524,-0.2309 -0.381286,0.1906 -0.02843,0.057 0.02843,0.1338 0,0.1907 -0.04019,0.08 -0.150453,0.1102 -0.190641,0.1906 -0.02843,0.057 0.04496,0.1457 0,0.1907 -0.04496,0.045 -0.133806,-0.029 -0.190646,0 -0.08038,0.04 -0.127094,0.1271 -0.190641,0.1906 -0.06355,0.064 -0.150452,0.1102 -0.19064,0.1907 -0.02843,0.057 0.02843,0.1337 0,0.1906 -0.04019,0.08 -0.150453,0.1102 -0.190641,0.1906 -0.02843,0.057 0.02843,0.1338 0,0.1907 -0.04019,0.08 -0.150453,0.1102 -0.190646,0.1906 -0.02843,0.057 0.04496,0.1457 0,0.1907 -0.04496,0.045 -0.145707,-0.045 -0.190641,0 -0.04496,0.045 0.04496,0.1456 0,0.1906 -0.04496,0.045 -0.145707,-0.045 -0.190641,0 -0.127471,0.1275 0.127467,0.2538 0,0.3813 -0.04496,0.045 -0.133805,-0.028 -0.190645,0 -0.793406,0.3967 0.203805,-0.013 -0.190641,0.3813 -0.04496,0.045 -0.145708,-0.045 -0.190641,0 -0.127466,0.1274 0.127466,0.2538 0,0.3812 -0.04496,0.045 -0.145708,-0.045 -0.190645,0 -0.04496,0.045 0.04496,0.1458 0,0.1907 -0.04496,0.045 -0.145708,-0.045 -0.190641,0 -0.04496,0.045 0,0.1271 0,0.1906 -0.06355,0 -0.145708,-0.045 -0.190641,0 -0.04496,0.045 0.04496,0.1457 0,0.1907 -0.04496,0.045 -0.145708,-0.045 -0.190646,0 -0.04496,0.045 0.02843,0.1338 0,0.1906 -0.04019,0.08 -0.150448,0.1103 -0.190641,0.1906 -0.02843,0.057 0.04491,0.1458 0,0.1907 -0.04496,0.045 -0.145707,-0.045 -0.190641,0 -0.04496,0.045 0.04496,0.1457 0,0.1906 -0.04496,0.045 -0.145707,-0.045 -0.190641,0 -0.04496,0.045 0.04496,0.1458 0,0.1907 -0.04496,0.045 -0.145707,-0.045 -0.190645,0 -0.04496,0.045 0.02843,0.1338 0,0.1906 -0.04019,0.08 -0.150448,0.1103 -0.190641,0.1907 -0.02843,0.057 0.04496,0.1457 0,0.1906 -0.04496,0.045 -0.133806,-0.029 -0.190641,0 -0.05062,0.026 -0.54662,0.5213 -0.571927,0.572 -0.02843,0.057 0.04496,0.1456 0,0.1906 -0.04496,0.045 -0.145708,-0.045 -0.190646,0 -0.04496,0.045 0.02843,0.1338 0,0.1906 -0.04019,0.08 -0.150448,0.1103 -0.190641,0.1907 -0.02843,0.057 0.04496,0.1457 0,0.1906 -0.04496,0.045 -0.145707,-0.045 -0.19064,0 -0.04496,0.045 0.02843,0.1338 0,0.1907 -0.08039,0.1607 -0.300906,0.2205 -0.381287,0.3812 -0.02843,0.057 0.04496,0.1458 0,0.1907 -0.04496,0.045 -0.145707,-0.045 -0.190641,0 -0.04496,0.045 0.04496,0.1457 0,0.1906 -0.04496,0.045 -0.145707,-0.045 -0.190645,0 -0.04496,0.045 0.02843,0.1338 0,0.1907 -0.04019,0.08 -0.150449,0.1102 -0.190641,0.1906 -0.02843,0.057 0.04496,0.1457 0,0.1906 -0.04496,0.045 -0.145708,-0.045 -0.190641,0 -0.04496,0.045 0.02843,0.1339 0,0.1907 -0.04019,0.08 -0.150453,0.1103 -0.190641,0.1906 -0.02843,0.057 0.02843,0.1338 0,0.1907 -0.04019,0.08 -0.150453,0.1102 -0.190645,0.1906 -0.02843,0.057 0.04496,0.1457 0,0.1906 -0.04496,0.045 -0.145708,-0.045 -0.190641,0 -0.04496,0.045 0.04496,0.1458 0,0.1907 -0.04496,0.045 -0.145708,-0.045 -0.190641,0 -0.04496,0.045 0.04496,0.1457 0,0.1906 -0.04496,0.045 -0.145708,-0.045 -0.190646,0 -0.127466,0.1275 0.127471,0.2538 0,0.3813 -0.04491,0.045 -0.145707,-0.045 -0.190641,0 -0.04496,0.045 0.02843,0.1338 0,0.1907 -0.04019,0.08 -0.150453,0.1102 -0.190641,0.1906 -0.02843,0.057 0.02843,0.1338 0,0.1907 -0.114388,0.2287 -0.457543,0.3431 -0.571927,0.5719 -0.02843,0.057 0.04496,0.1457 0,0.1906 -0.04496,0.045 -0.145707,-0.045 -0.190645,0 -0.08987,0.09 0.08987,0.2914 0,0.3813 -0.04496,0.045 -0.133801,-0.028 -0.190641,0 -0.08038,0.04 -0.110261,0.1505 -0.190641,0.1907 -0.05684,0.029 -0.145708,-0.045 -0.190641,0 -0.04496,0.045 0.02843,0.1337 0,0.1906 -0.08039,0.1608 -0.300906,0.2205 -0.381287,0.3813 -0.02843,0.057 0.04496,0.1457 0,0.1906 -0.04496,0.045 -0.133805,-0.029 -0.19064,0 -0.793411,0.3967 0.2038,-0.013 -0.190646,0.3813 -0.04496,0.045 -0.145707,-0.045 -0.190641,0 -0.04496,0.045 0.04496,0.1457 0,0.1906 -0.04496,0.045 -0.145707,-0.045 -0.190641,0 -0.04496,0.045 0.02843,0.1339 0,0.1907 -0.04019,0.08 -0.127098,0.1271 -0.190645,0.1906 -0.06355,0.064 -0.110261,0.1505 -0.190641,0.1907 -0.05684,0.029 -0.145708,-0.045 -0.190641,0 -0.04496,0.045 0.02843,0.1338 0,0.1906 -0.04019,0.08 -0.150453,0.1103 -0.190646,0.1906 -0.02843,0.057 0.02843,0.1339 0,0.1907 -0.04414,0.088 -0.650441,0.6504 -0.762568,0.7626 -0.06355,0.064 -0.150448,0.1102 -0.190641,0.1906 -0.02843,0.057 0.04496,0.1457 0,0.1907 -0.04496,0.045 -0.145707,-0.045 -0.190641,0 -0.04496,0.045 0.02843,0.1338 0,0.1906 -0.04019,0.08 -0.150453,0.1102 -0.190645,0.1907 -0.02843,0.057 0.04496,0.1456 0,0.1906 -0.04496,0.045 -0.145708,-0.045 -0.190641,0 -0.04496,0.045 0.02843,0.1338 0,0.1906 -0.632282,0.6323 0.08987,-0.1797 -0.190641,0.3813 -0.08038,0.1608 -0.300906,0.2205 -0.381286,0.3813 -0.02843,0.057 0.02843,0.1338 0,0.1906 -0.04019,0.08 -0.150453,0.1103 -0.190641,0.1907 -0.02843,0.057 0.04496,0.1457 0,0.1906 -0.04496,0.045 -0.145708,-0.045 -0.190646,0 -0.04496,0.045 0.02843,0.1338 0,0.1907 -0.04019,0.08 -0.150448,0.1102 -0.190641,0.1906 -0.02843,0.057 0.04496,0.1457 0,0.1906 -0.04496,0.045 -0.145707,-0.045 -0.19064,0 -0.04496,0.045 0.02843,0.1339 0,0.1907 -0.04019,0.08 -0.150453,0.1103 -0.190641,0.1906 -0.02843,0.057 0.04496,0.1458 0,0.1907 -0.04496,0.045 -0.145708,-0.045 -0.190646,0 -0.04491,0.045 0.02843,0.1338 0,0.1906 -0.04019,0.08 -0.150448,0.1103 -0.190641,0.1906 -0.02843,0.057 0.04496,0.1458 0,0.1907 -0.04496,0.045 -0.145707,-0.045 -0.190641,0 -0.04496,0.045 0.02843,0.1338 0,0.1906 -0.04019,0.08 -0.150453,0.1103 -0.190645,0.1907 -0.02843,0.057 0.04496,0.1457 0,0.1906 -0.04496,0.045 -0.145708,-0.045 -0.190641,0 -0.04496,0.045 0.04496,0.1457 0,0.1907 -0.04496,0.045 -0.145708,-0.045 -0.190641,0 -0.04496,0.045 0.04496,0.1457 0,0.1906 -0.04496,0.045 -0.145708,-0.045 -0.190645,0 -0.04496,0.045 0.04496,0.1457 0,0.1907 -0.04496,0.045 -0.145708,-0.045 -0.190641,0 -0.394447,0.3944 0.602765,-0.015 -0.190641,0.3813 -0.05684,0.028 -0.145708,-0.045 -0.190646,0 -0.04496,0.045 0.02843,0.1337 0,0.1906 -0.02529,0.051 -0.521308,0.5466 -0.571927,0.5719 -0.05683,0.029 -0.145703,-0.045 -0.190641,0 -0.04496,0.045 0.04496,0.1457 0,0.1907 -0.04496,0.045 -0.145708,-0.045 -0.190641,0 -0.04496,0.045 0.04496,0.1456 0,0.1906 -0.0086,0.01 -0.863324,0 -0.953214,0 -0.826115,0 -1.65223,0 -2.47835,0 -0.132597,0 -0.884267,-0.034 -0.953209,0 -0.08038,0.04 -0.11026,0.1504 -0.190645,0.1906 -0.05012,0.025 -0.662875,0 -0.762569,0 -0.635474,0 -1.270948,0 -1.906422,0 -0.762569,0 -1.525137,0 -2.28771,0 -0.381281,0 -0.762568,0 -1.14385,0 -0.06355,0 -0.190645,0.064 -0.190645,0 0,-0.2311 0.238094,0.047 0.381286,0.1907"
         style="color:#000000;clip-rule:nonzero;display:inline;overflow:visible;visibility:visible;isolation:auto;mix-blend-mode:normal;color-interpolation:sRGB;color-interpolation-filters:linearRGB;solid-color:#000000;solid-opacity:1;fill:none;fill-opacity:1;fill-rule:evenodd;stroke:#000000;stroke-width:1.37551463;stroke-linecap:butt;stroke-linejoin:miter;stroke-miterlimit:4;stroke-dasharray:none;stroke-dashoffset:0;stroke-opacity:1;color-rendering:auto;image-rendering:auto;shape-rendering:auto;text-rendering:auto;enable-background:accumulate" />
      <path
         inkscape:connector-curvature="0"
         id="path6978"
         d="m 106.12304,1138.5719 c -0.25419,-0.063 -0.50565,-0.1392 -0.76257,-0.1906 -0.20384,-0.041 -0.7182,0 -0.95321,0 -0.63548,0 -1.27095,0 -1.90643,0 -0.07,0 -0.7549,-0.01 -0.76257,0 -0.0449,0.045 0.045,0.1457 0,0.1906 -0.0522,0.052 -0.65915,-0.052 -0.76256,0 -0.0804,0.04 -0.11026,0.1505 -0.19065,0.1907 -0.12027,0.06 -0.832939,-0.06 -0.953208,0 -0.08038,0.04 -0.11026,0.1504 -0.190645,0.1906 -0.05012,0.025 -0.662875,0 -0.762569,0 -0.50838,0 -1.016756,0 -1.525136,0 -0.317739,0 -0.635474,0 -0.953214,0 -0.06355,0 -0.127094,0 -0.190641,0 -0.06355,0 -0.133805,-0.029 -0.190641,0 -0.08039,0.04 -0.11026,0.1504 -0.190645,0.1906 -0.05802,0.029 -0.48607,0 -0.571927,0 -0.381282,0 -0.762569,0 -1.143855,0 -0.06355,0 -0.127094,0 -0.190641,0 -0.06355,0 -0.133801,-0.029 -0.190641,0 -0.08038,0.04 -0.11026,0.1505 -0.190641,0.1907 -0.05013,0.025 -0.662879,0 -0.762572,0 -0.08586,0 -0.513907,0.029 -0.571928,0 -0.08038,-0.04 -0.11026,-0.1505 -0.190641,-0.1907 -0.05684,-0.029 -0.127094,0 -0.190641,0 -0.06355,0 -0.127094,0 -0.190645,0 -0.317735,0 -0.635474,0 -0.953209,0 -0.762568,0 -1.525141,0 -2.287709,0 -0.15608,0 -0.829689,0.041 -0.95321,0 -0.134804,-0.045 -0.24343,-0.1561 -0.381286,-0.1906 -0.123302,-0.031 -0.254188,0 -0.381286,0 -0.127094,0 -0.254188,0 -0.381282,0 -0.381287,0 -0.762568,0 -1.143855,0 -0.50838,0 -1.01676,0 -1.525141,0 -0.127094,0 -0.254188,0 -0.381282,0 -0.06355,0 -0.133805,0.029 -0.190641,0 -0.08039,-0.04 -0.105387,-0.1622 -0.190645,-0.1906 -0.09759,-0.033 -1.007561,0 -1.143855,0 -0.06355,0 -0.127094,0 -0.190641,0 -0.06355,0 -0.133805,0.029 -0.19064,0 -0.08039,-0.04 -0.105384,-0.1623 -0.190646,-0.1907 -0.180855,-0.06 -0.381282,0 -0.571923,0 -0.444833,0 -0.889666,0 -1.3345,0 -0.06355,0 -0.127094,0 -0.190641,0 -0.06355,0 -0.145707,0.045 -0.190641,0 -0.04496,-0.045 0.04496,-0.1457 0,-0.1906 -0.04496,-0.045 -0.127094,0 -0.190645,0 -0.381282,0 -0.762568,0 -1.14385,0 -0.31774,0 -0.635474,0 -0.953214,0 -0.06355,0 -0.127094,0 -0.190641,0 -0.06355,0 -0.133805,0.029 -0.190645,0 -0.08038,-0.041 -0.110261,-0.1505 -0.190641,-0.1907 -0.04273,-0.021 -0.717267,0 -0.762568,0 -0.381287,0 -0.762569,0 -1.143855,0 -0.06355,0 -0.127094,0 -0.190641,0 -0.06355,0 -0.133805,0.029 -0.190645,0 -0.08038,-0.04 -0.110261,-0.1504 -0.190641,-0.1906 -0.05802,-0.029 -0.486071,0 -0.571928,0 -0.444833,0 -0.889662,0 -1.334495,0 -1.398043,0 -2.79609,0 -4.194132,0 -0.699021,0 -1.398043,0 -2.097064,0 -0.06355,0 -0.127094,0 -0.190645,0 -0.06355,0 -0.145703,0.045 -0.190641,0 -0.04496,-0.045 -0.04496,-0.1457 0,-0.1906 0.04496,-0.045 0.127094,0 0.190641,0"
         style="color:#000000;clip-rule:nonzero;display:inline;overflow:visible;visibility:visible;isolation:auto;mix-blend-mode:normal;color-interpolation:sRGB;color-interpolation-filters:linearRGB;solid-color:#000000;solid-opacity:1;fill:none;fill-opacity:1;fill-rule:evenodd;stroke:#000000;stroke-width:1.37551463;stroke-linecap:butt;stroke-linejoin:miter;stroke-miterlimit:4;stroke-dasharray:none;stroke-dashoffset:0;stroke-opacity:1;color-rendering:auto;image-rendering:auto;shape-rendering:auto;text-rendering:auto;enable-background:accumulate" />
      <path
         inkscape:connector-curvature="0"
         id="path6980"
         d="m 201.25356,1106.544 c -0.82422,-0.2061 -0.50056,-0.1907 -0.95322,-0.1907 -0.0635,0 -0.1338,0.029 -0.19064,0 -0.0804,-0.04 -0.11026,-0.1504 -0.19064,-0.1906 -0.0493,-0.024 -1.00873,0 -1.14385,0 -0.0635,0 -0.1271,0 -0.19064,0 -0.0636,0 -0.14571,0.045 -0.19065,0 -0.045,-0.045 0.045,-0.1457 0,-0.1906 -0.045,-0.045 -0.12709,0 -0.19064,0 -0.50838,0 -1.01676,0 -1.52514,0 -0.57192,0 -1.14385,0 -1.71578,0 -0.0635,0 -0.12709,0 -0.19064,0 -0.0635,0 -0.14571,0.045 -0.19064,0 -0.045,-0.045 0.045,-0.1457 0,-0.1907 -0.0899,-0.09 -0.26761,0.057 -0.38129,0 -0.0804,-0.04 -0.11026,-0.1504 -0.19064,-0.1906 -0.4065,-0.2033 0.0252,0.2032 -0.38128,0 -0.0804,-0.04 -0.11026,-0.1505 -0.19065,-0.1907 -0.0568,-0.029 -0.14571,0.045 -0.19064,0 -0.045,-0.045 0.045,-0.1457 0,-0.1906 -0.0953,-0.095 -0.47661,0.095 -0.57193,0 -0.045,-0.045 0.045,-0.1457 0,-0.1906 -0.045,-0.045 -0.14571,0.045 -0.19064,0 -0.045,-0.045 0.045,-0.1458 0,-0.1907 -0.045,-0.045 -0.14571,0.045 -0.19064,0 -0.045,-0.045 0.0284,-0.1338 0,-0.1906 -0.0402,-0.08 -0.15045,-0.1103 -0.19064,-0.1907 -0.0284,-0.057 0,-0.1271 0,-0.1906 0,-0.3813 0,-0.7626 0,-1.1439 0,-0.063 -0.045,-0.1457 0,-0.1906 0.045,-0.045 0.1457,0.045 0.19064,0 0.045,-0.045 0,-0.1271 0,-0.1906 0,-0.064 0,-0.1272 0,-0.1907 0,-0.1351 -0.0247,-1.0945 0,-1.1439 0.0402,-0.08 0.15045,-0.1102 0.19064,-0.1906 0.0284,-0.057 -0.0284,-0.1338 0,-0.1906 0.0402,-0.08 0.15045,-0.1103 0.19064,-0.1907 0.0568,-0.1137 -0.0899,-0.2914 0,-0.3813 0.045,-0.045 0.14571,0.045 0.19064,0 0.0953,-0.095 -0.0953,-0.4766 0,-0.5719 0.045,-0.045 0.14571,0.045 0.19065,0 0.0953,-0.095 -0.0953,-0.4766 0,-0.5719 0.045,-0.045 0.14571,0.045 0.19064,0 0.045,-0.045 -0.0284,-0.1338 0,-0.1907 0.0402,-0.08 0.15045,-0.1102 0.19064,-0.1906 0.0284,-0.057 -0.045,-0.1457 0,-0.1906 0.045,-0.045 0.14571,0.045 0.19065,0 0.045,-0.045 -0.0284,-0.1339 0,-0.1907 0.0804,-0.1608 0.3009,-0.2205 0.38128,-0.3813 0.0284,-0.057 -0.045,-0.1457 0,-0.1906 0.045,-0.045 0.1338,0.029 0.19064,0 0.0804,-0.04 0.11026,-0.1505 0.19064,-0.1906 0.0568,-0.029 0.14571,0.045 0.19065,0 0.045,-0.045 -0.045,-0.1458 0,-0.1907 0.0899,-0.09 0.29141,0.09 0.38128,0 0.045,-0.045 -0.045,-0.1457 0,-0.1907 0.045,-0.045 0.1338,0.029 0.19064,0 0.0804,-0.04 0.11026,-0.1504 0.19064,-0.1906 0.0568,-0.029 0.14571,0.045 0.19065,0 0.045,-0.045 -0.0284,-0.1338 0,-0.1906 0.0402,-0.08 0.12709,-0.1271 0.19064,-0.1907 0.11213,-0.1121 0.71843,-0.6742 0.76257,-0.7625 0.0284,-0.057 -0.0284,-0.1339 0,-0.1907 0.0402,-0.08 0.15045,-0.1103 0.19064,-0.1906 0.0284,-0.057 -0.045,-0.1457 0,-0.1907 0.0449,-0.045 0.14571,0.045 0.19064,0 0.045,-0.045 -0.045,-0.1457 0,-0.1906 0.045,-0.045 0.1271,0 0.19065,0 0,-0.064 -0.045,-0.1457 0,-0.1906 0.045,-0.045 0.1457,0.045 0.19064,0 0.045,-0.045 -0.045,-0.1458 0,-0.1907 0.045,-0.045 0.1457,0.045 0.19064,0 0.045,-0.045 -0.045,-0.1457 0,-0.1906 0.045,-0.045 0.14571,0.045 0.19064,0 0.045,-0.045 -0.045,-0.1458 0,-0.1907 0.045,-0.045 0.1271,0 0.19064,0 0,-0.063 -0.045,-0.1457 0,-0.1906 0.045,-0.045 0.14571,0.045 0.19065,0 0.045,-0.045 -0.045,-0.1457 0,-0.1907 0.0899,-0.09 0.29141,0.09 0.38128,0 0.045,-0.045 -0.045,-0.1457 0,-0.1906 0.0953,-0.095 0.47661,0.095 0.57193,0 0.045,-0.045 -0.045,-0.1457 0,-0.1906 0.0899,-0.09 0.29141,0.09 0.38128,0 0.045,-0.045 -0.045,-0.1458 0,-0.1907 0.009,-0.01 0.86333,0 0.95321,0 0.31774,0 0.63548,0 0.95322,0 0.0635,0 0.12709,0 0.19064,0 0.0635,0 0.1338,-0.029 0.19064,0 0.0804,0.04 0.11026,0.1505 0.19064,0.1907 0.11368,0.057 0.29142,-0.09 0.38129,0 0.0449,0.045 -0.045,0.1457 0,0.1906 0.039,0.039 0.49634,-0.038 0.57192,0 0.0804,0.04 0.11026,0.1504 0.19065,0.1906 0.11982,0.06 0.64274,-0.06 0.76257,0 0.0804,0.04 0.11026,0.1505 0.19064,0.1907 0.0756,0.038 0.53295,-0.039 0.57193,0 0.045,0.045 -0.045,0.1457 0,0.1906 0.0899,0.09 0.29141,-0.09 0.38128,0 0.045,0.045 -0.045,0.1457 0,0.1907 0.039,0.039 0.49634,-0.038 0.57193,0 0.0804,0.04 0.11026,0.1504 0.19064,0.1906 0.20395,0.102 0.17734,-0.102 0.38129,0 0.0804,0.04 0.11026,0.1505 0.19064,0.1907 0.0568,0.028 0.1338,-0.029 0.19064,0 0.0804,0.04 0.1271,0.127 0.19064,0.1906 0.0635,0.063 0.15045,0.1103 0.19064,0.1906 0.0284,0.057 -0.045,0.1458 0,0.1907 0.045,0.045 0.14571,-0.045 0.19065,0 0.045,0.045 -0.045,0.1457 0,0.1906 0.045,0.045 0.1457,-0.045 0.19064,0 0.045,0.045 -0.0284,0.1338 0,0.1907 0.11438,0.2287 0.45754,0.3431 0.57193,0.5719 0.0284,0.057 -0.0284,0.1338 0,0.1906 0.0402,0.08 0.15045,0.1103 0.19064,0.1907 0.0284,0.057 -0.0284,0.1338 0,0.1906 0.0804,0.1608 0.3009,0.2205 0.38128,0.3813 0.0284,0.057 -0.0284,0.1338 0,0.1907 0.0402,0.08 0.15045,0.1102 0.19065,0.1906 0.0568,0.1136 -0.0899,0.2914 0,0.3813 0.045,0.045 0.1457,-0.045 0.19064,0 0.045,0.045 0,0.127 0,0.1906 0,0.3813 0,0.7626 0,1.1439 0,0.3813 0,0.7625 0,1.1438 0,0.064 0.045,0.1457 0,0.1907 -0.045,0.045 -0.14571,-0.045 -0.19064,0 -0.0459,0.046 0.0459,0.7166 0,0.7625 -0.045,0.045 -0.14571,-0.045 -0.19065,0 -0.059,0.059 0.059,0.8942 0,0.9533 -0.045,0.045 -0.14571,-0.045 -0.19064,0 -0.0953,0.095 0.0953,0.4765 0,0.5719 -0.045,0.045 -0.14571,-0.045 -0.19064,0 -0.0899,0.09 0.0899,0.2914 0,0.3813 -0.045,0.045 -0.14571,-0.045 -0.19064,0 -0.0899,0.09 0.0899,0.2914 0,0.3812 -0.045,0.045 -0.14571,-0.045 -0.19065,0 -0.045,0.045 0.045,0.1457 0,0.1907 -0.045,0.045 -0.1457,-0.045 -0.19064,0 -0.045,0.045 0.045,0.1457 0,0.1906 -0.045,0.045 -0.14571,-0.045 -0.19064,0 -0.045,0.045 0.045,0.1457 0,0.1907 -0.045,0.045 -0.14571,-0.045 -0.19064,0 -0.045,0.045 0.045,0.1457 0,0.1906 -0.0899,0.09 -0.29142,-0.09 -0.38129,0 -0.045,0.045 0.045,0.1457 0,0.1907 -0.045,0.045 -0.1338,-0.029 -0.19064,0 -0.0804,0.04 -0.11026,0.1504 -0.19064,0.1906 -0.0568,0.029 -0.13381,-0.029 -0.19064,0 -0.1557,0.078 -0.2256,0.3034 -0.38129,0.3813 -0.0568,0.029 -0.14571,-0.045 -0.19064,0 0,0.5084 0.0635,-0.064 -0.19065,0.1906 -0.045,0.045 0.045,0.1457 0,0.1907 -0.0953,0.095 -0.4766,-0.095 -0.57192,0 -0.045,0.045 0.045,0.1457 0,0.1906 -0.0899,0.09 -0.29141,-0.09 -0.38129,0 -0.045,0.045 0.045,0.1457 0,0.1906 -0.039,0.039 -0.49633,-0.038 -0.57192,0 -0.0804,0.041 -0.11026,0.1505 -0.19064,0.1907 -0.11368,0.057 -0.29142,-0.09 -0.38129,0 -0.045,0.045 0.045,0.1457 0,0.1906 -0.045,0.045 -0.12709,0 -0.19064,0 -0.0635,0 -0.12709,0 -0.19065,0 -0.2228,0 -0.55061,0.042 -0.76256,0 -0.25693,-0.051 -0.50838,-0.1271 -0.76257,-0.1906 z"
         style="color:#000000;clip-rule:nonzero;display:inline;overflow:visible;visibility:visible;isolation:auto;mix-blend-mode:normal;color-interpolation:sRGB;color-interpolation-filters:linearRGB;solid-color:#000000;solid-opacity:1;fill:#000000;fill-opacity:1;fill-rule:evenodd;stroke:#000000;stroke-width:1.37551463;stroke-linecap:butt;stroke-linejoin:miter;stroke-miterlimit:4;stroke-dasharray:none;stroke-dashoffset:0;stroke-opacity:1;color-rendering:auto;image-rendering:auto;shape-rendering:auto;text-rendering:auto;enable-background:accumulate" />
      <path
         inkscape:connector-curvature="0"
         id="path6982"
         d="m 199.15649,1106.7346 c 0.0636,0.2542 0.19064,0.5006 0.19064,0.7626 0,0.063 -0.1457,-0.045 -0.19064,0 -0.045,0.045 0,0.1271 0,0.1907 0,0.064 0,0.1271 0,0.1906 0,0.5084 0,1.0168 0,1.5251 0,0.064 0.045,0.1458 0,0.1907 -0.045,0.045 -0.1457,-0.045 -0.19064,0 -0.045,0.045 0,0.1271 0,0.1906 0,0.1351 0.0247,1.0946 0,1.1439 -0.0402,0.08 -0.15045,0.1102 -0.19064,0.1906 -0.0284,0.057 0,0.1271 0,0.1906 0,0.1352 0.0247,1.0946 0,1.1439 -0.0402,0.08 -0.15046,0.1103 -0.19064,0.1907 -0.0251,0.05 0,0.6628 0,0.7625 0,0.4471 0.045,-0.09 -0.19065,0.3813 -0.0283,0.057 0,1.0637 0,1.1439 0,0.063 0.0284,0.1337 0,0.1906 -0.0402,0.08 -0.15045,0.1103 -0.19064,0.1906 -0.0763,0.1526 0.0763,0.4194 0,0.572 -0.0402,0.08 -0.15045,0.1102 -0.19064,0.1906 -0.0284,0.057 0,0.1271 0,0.1906 -0.0635,0.064 -0.15045,0.1103 -0.19065,0.1907 -0.0284,0.057 0.0284,0.1338 0,0.1906 -0.0402,0.08 -0.15044,0.1103 -0.19064,0.1907 -0.0762,0.1525 0.0763,0.4194 0,0.5719 -0.0402,0.08 -0.15045,0.1103 -0.19064,0.1907 -0.0599,0.1197 0.0599,0.6427 0,0.7625 -0.0402,0.08 -0.15045,0.1103 -0.19064,0.1907 -0.0763,0.1525 0.0763,0.4194 0,0.5719 -0.0402,0.08 -0.15045,0.1103 -0.19064,0.1906 -0.0568,0.1137 0.0568,0.2676 0,0.3813 -0.0402,0.08 -0.15045,0.1102 -0.19065,0.1907 -0.0762,0.1525 0.0763,0.4194 0,0.5719 -0.0402,0.08 -0.15045,0.1102 -0.19064,0.1906 -0.0619,0.1239 0.0605,0.8323 0,0.9532 -0.0402,0.08 -0.15045,0.1103 -0.19064,0.1907 -0.0599,0.1198 0.0599,0.6427 0,0.7626 -0.0804,0.1607 -0.3009,0.2205 -0.38128,0.3812 -0.0568,0.1137 0.0568,0.2676 0,0.3813 -0.0402,0.08 -0.15046,0.1103 -0.19065,0.1907 -0.0599,0.1198 0.0599,0.6427 0,0.7625 -0.0402,0.08 -0.12709,0.1271 -0.19064,0.1907 0,0.1271 0.0402,0.2607 0,0.3813 -0.0284,0.085 -0.15045,0.1102 -0.19064,0.1906 -0.0568,0.1137 0.0568,0.2676 0,0.3813 -0.0402,0.08 -0.15045,0.1102 -0.19065,0.1906 -0.0284,0.057 0.0284,0.1338 0,0.1907 -0.0402,0.08 -0.15045,0.1102 -0.19064,0.1906 -0.0284,0.057 0.0284,0.1338 0,0.1906 -0.0402,0.08 -0.15045,0.1103 -0.19064,0.1907 -0.0568,0.1137 0.0568,0.2676 0,0.3813 -0.0402,0.08 -0.15045,0.1102 -0.19064,0.1906 -0.0284,0.057 0.0284,0.1338 0,0.1906 -0.0804,0.1608 -0.30091,0.2206 -0.38129,0.3814 -0.0284,0.057 0.0284,0.1337 0,0.1906 -0.0402,0.08 -0.15045,0.1102 -0.19064,0.1906 -0.0284,0.057 0.045,0.1457 0,0.1906 -0.045,0.045 -0.1457,-0.045 -0.19064,0 -0.045,0.045 0.0284,0.1339 0,0.1907 -0.0402,0.08 -0.15045,0.1103 -0.19064,0.1907 -0.0568,0.1136 0.0899,0.2914 0,0.3812 -0.045,0.045 -0.13381,-0.029 -0.19064,0 -0.42153,0.2108 -0.0592,0.1184 -0.19065,0.3813 -0.0402,0.08 -0.15045,0.1103 -0.19064,0.1907 -0.0284,0.057 0.0284,0.1338 0,0.1906 -0.0804,0.1608 -0.3009,0.2206 -0.38129,0.3813 -0.0284,0.057 0.0284,0.1338 0,0.1906 -0.63227,0.6323 0.0899,-0.1797 -0.19064,0.3813 -0.0402,0.08 -0.15045,0.1103 -0.19064,0.1907 -0.0568,0.1136 0.0899,0.2914 0,0.3812 -0.045,0.045 -0.14571,-0.045 -0.19064,0 -0.045,0.045 0.0284,0.1339 0,0.1907 -0.63228,0.6323 0.0899,-0.1798 -0.19064,0.3813 -0.0804,0.1607 -0.30091,0.2205 -0.38129,0.3812 -0.0284,0.057 0,0.1271 0,0.1907 -0.0635,0.063 -0.15045,0.1103 -0.19064,0.1907 -0.0568,0.1136 0.0568,0.2676 0,0.3812 -0.0402,0.08 -0.15045,0.1103 -0.19064,0.1906 -0.0284,0.057 0.045,0.1458 0,0.1907 -0.045,0.045 -0.14571,-0.045 -0.19064,0 -0.045,0.045 0.0284,0.1338 0,0.1907 -0.0402,0.08 -0.15046,0.1102 -0.19065,0.1906 -0.0284,0.057 0.045,0.1457 0,0.1906 -0.045,0.045 -0.14571,-0.045 -0.19064,0 -0.045,0.045 0.0284,0.1338 0,0.1907 -0.0804,0.1608 -0.3009,0.2205 -0.38129,0.3813 -0.0284,0.057 0.0284,0.1338 0,0.1906 -0.0804,0.1608 -0.3009,0.2206 -0.38128,0.3813 -0.0284,0.057 0.0284,0.1338 0,0.1906 -0.0509,0.1018 -0.47156,0.4716 -0.57193,0.572 -0.0635,0.063 -0.12709,0.1271 -0.19064,0.1906 -0.0635,0.063 -0.15045,0.1103 -0.19064,0.1906 -0.0284,0.057 0.045,0.1458 0,0.1907 -0.045,0.045 -0.1338,-0.029 -0.19064,0 -0.16077,0.08 -0.22052,0.3009 -0.38129,0.3813 -0.0568,0.029 -0.14571,-0.045 -0.19064,0 -0.045,0.045 0.045,0.1457 0,0.1906 -0.045,0.045 -0.14571,-0.045 -0.19064,0 -0.045,0.045 0.045,0.1457 0,0.1906 -0.045,0.045 -0.14571,-0.045 -0.19065,0 -0.045,0.045 0.045,0.1458 0,0.1907 -0.045,0.045 -0.1457,-0.045 -0.19064,0 -0.045,0.045 0.045,0.1457 0,0.1907 -0.045,0.045 -0.14571,-0.045 -0.19064,0 -0.045,0.045 0.0284,0.1337 0,0.1906 -0.0509,0.1018 -0.47156,0.4716 -0.57193,0.5719 -0.10036,0.1004 -0.4701,0.521 -0.57192,0.5719 -0.50838,0 0.0635,-0.063 -0.19064,0.1907 -0.045,0.045 -0.14571,-0.045 -0.19065,0 -0.045,0.045 0.045,0.1457 0,0.1906 -0.045,0.045 -0.14571,-0.045 -0.19064,0 -0.045,0.045 0.045,0.1458 0,0.1907 -0.25419,0.2542 -0.19064,-0.3178 -0.19064,0.1906"
         style="color:#000000;clip-rule:nonzero;display:inline;overflow:visible;visibility:visible;isolation:auto;mix-blend-mode:normal;color-interpolation:sRGB;color-interpolation-filters:linearRGB;solid-color:#000000;solid-opacity:1;fill:none;fill-opacity:1;fill-rule:evenodd;stroke:#000000;stroke-width:1.37551463;stroke-linecap:butt;stroke-linejoin:miter;stroke-miterlimit:4;stroke-dasharray:none;stroke-dashoffset:0;stroke-opacity:1;color-rendering:auto;image-rendering:auto;shape-rendering:auto;text-rendering:auto;enable-background:accumulate" />
      <path
         inkscape:connector-curvature="0"
         id="path6984"
         d="m 184.66767,1140.4783 c 0.19915,-0.6528 -0.58059,-0.5892 -0.76256,-0.9532 -0.0284,-0.057 0.045,-0.1457 0,-0.1906 -0.045,-0.045 -0.14571,0.045 -0.19064,0 -0.045,-0.045 0.0284,-0.1338 0,-0.1907 -0.0402,-0.08 -0.15046,-0.1102 -0.19065,-0.1906 -0.0284,-0.057 0.045,-0.1457 0,-0.1906 -0.045,-0.045 -0.1338,0.029 -0.19064,0 -0.0804,-0.04 -0.12709,-0.1271 -0.19064,-0.1907 -0.0635,-0.063 -0.15045,-0.1103 -0.19065,-0.1906 -0.0284,-0.057 0.0284,-0.1339 0,-0.1907 -0.0402,-0.08 -0.15045,-0.1102 -0.19064,-0.1906 -0.0284,-0.057 0.0284,-0.1338 0,-0.1907 -0.3967,-0.7934 0.0132,0.2038 -0.38128,-0.1906 -0.045,-0.045 0.045,-0.1457 0,-0.1906 -0.045,-0.045 -0.14571,0.045 -0.19065,0 -0.045,-0.045 0.0284,-0.1339 0,-0.1907 -0.0402,-0.08 -0.15045,-0.1102 -0.19064,-0.1907 -0.0284,-0.057 0.0284,-0.1337 0,-0.1906 -0.0402,-0.08 -0.15045,-0.1102 -0.19064,-0.1906 -0.0284,-0.057 0.045,-0.1457 0,-0.1907 -0.045,-0.045 -0.14571,0.045 -0.19064,0 -0.045,-0.045 0.0284,-0.1338 0,-0.1906 -0.0402,-0.08 -0.15045,-0.1103 -0.19064,-0.1907 -0.0284,-0.057 0.045,-0.1456 0,-0.1906 -0.045,-0.045 -0.14571,0.045 -0.19064,0 -0.0899,-0.09 0.0568,-0.2676 0,-0.3813 -0.0402,-0.08 -0.15046,-0.1103 -0.19065,-0.1906 -0.0284,-0.057 0.0284,-0.1338 0,-0.1907 -0.0402,-0.08 -0.15045,-0.1102 -0.19064,-0.1906 -0.0284,-0.057 0.0284,-0.1338 0,-0.1906 -0.0804,-0.1608 -0.3009,-0.2206 -0.38129,-0.3813 -0.0284,-0.057 0.045,-0.1457 0,-0.1907 -0.045,-0.045 -0.14571,0.045 -0.19064,0 -0.045,-0.045 0.0284,-0.1338 0,-0.1906 -0.0402,-0.08 -0.15045,-0.1103 -0.19064,-0.1906 -0.0284,-0.057 0,-0.1271 0,-0.1907 -0.0636,-0.063 -0.15045,-0.1103 -0.19064,-0.1906 -0.0284,-0.057 0.0284,-0.1339 0,-0.1907 -0.0804,-0.1607 -0.30091,-0.2205 -0.38129,-0.3813 -0.0284,-0.057 0.045,-0.1457 0,-0.1906 -0.045,-0.045 -0.1457,0.045 -0.19064,0 -0.045,-0.045 0.0284,-0.1338 0,-0.1906 -0.0938,-0.1876 -0.66877,-0.575 -0.76257,-0.7626 -0.0284,-0.057 0.045,-0.1457 0,-0.1907 -0.045,-0.045 -0.14571,0.045 -0.19064,0 -0.0899,-0.09 0.0899,-0.2914 0,-0.3813 -0.045,-0.045 -0.14571,0.045 -0.19064,0 -0.045,-0.045 0.0284,-0.1337 0,-0.1906 -0.39671,-0.7934 0.0132,0.2038 -0.38129,-0.1906 -0.39444,-0.3945 0.60277,0.015 -0.19064,-0.3813 -0.0568,-0.029 -0.14571,0.045 -0.19064,0 -0.045,-0.045 0.0284,-0.1338 0,-0.1907 -0.0402,-0.08 -0.15045,-0.1102 -0.19065,-0.1906 -0.0284,-0.057 0.045,-0.1457 0,-0.1906 -0.045,-0.045 -0.1457,0.045 -0.19064,0 -0.045,-0.045 0.045,-0.1458 0,-0.1907 -0.045,-0.045 -0.1457,0.045 -0.19064,0 -0.045,-0.045 0.0284,-0.1338 0,-0.1906 -0.0402,-0.08 -0.15045,-0.1103 -0.19064,-0.1907 -0.0284,-0.057 0.045,-0.1457 0,-0.1906 -0.045,-0.045 -0.14571,0.045 -0.19064,0 -0.045,-0.045 0.0284,-0.1338 0,-0.1906 -0.0402,-0.081 -0.15046,-0.1103 -0.19064,-0.1907 -0.0284,-0.057 0.0449,-0.1457 0,-0.1906 -0.045,-0.045 -0.14571,0.045 -0.19065,0 -0.045,-0.045 0.0284,-0.1339 0,-0.1907 -0.0402,-0.08 -0.15045,-0.1102 -0.19064,-0.1906 -0.0284,-0.057 0.0284,-0.1338 0,-0.1907 -0.0402,-0.08 -0.15045,-0.1102 -0.19064,-0.1906 -0.0284,-0.057 0.045,-0.1457 0,-0.1906 -0.045,-0.045 -0.14571,0.045 -0.19065,0 -0.045,-0.045 0.0284,-0.1339 0,-0.1907 -0.0804,-0.1608 -0.3009,-0.2205 -0.38128,-0.3813 -0.0284,-0.057 0.0284,-0.1338 0,-0.1906 -0.0402,-0.08 -0.15045,-0.1103 -0.19065,-0.1907 -0.0284,-0.057 0.0284,-0.1338 0,-0.1906 -0.17321,-0.3465 -0.20806,-0.035 -0.38128,-0.3813 -0.0568,-0.1137 0.0899,-0.2914 0,-0.3813 -0.045,-0.045 -0.1457,0.045 -0.19064,0 -0.0449,-0.045 0.045,-0.1457 0,-0.1906 -0.0449,-0.045 -0.14571,0.045 -0.19064,0 -0.0899,-0.09 0.0899,-0.2914 0,-0.3813 -0.045,-0.045 -0.14571,0.045 -0.19064,0 -0.045,-0.045 0.0284,-0.1338 0,-0.1906 -0.17323,-0.3465 -0.20807,-0.035 -0.38129,-0.3813 -0.0284,-0.057 0.045,-0.1457 0,-0.1907 -0.045,-0.045 -0.14571,0.045 -0.19064,0 -0.39445,-0.3944 0.60276,0.015 -0.19064,-0.3812 -0.0568,-0.029 -0.14571,0.045 -0.19065,0 -0.045,-0.045 0.045,-0.1458 0,-0.1907 -0.39444,-0.3944 0.0154,0.6028 -0.38128,-0.1906 -0.0284,-0.057 0.0284,-0.1339 0,-0.1907 -0.0938,-0.1876 -0.66877,-0.575 -0.76257,-0.7625 -0.0284,-0.057 0.045,-0.1458 0,-0.1907 -0.045,-0.045 -0.14571,0.045 -0.19064,0 -0.045,-0.045 0.045,-0.1457 0,-0.1907 -0.045,-0.045 -0.14571,0.045 -0.19064,0 -0.045,-0.045 0.045,-0.1456 0,-0.1906 -0.045,-0.045 -0.13381,0.029 -0.19065,0 -0.79341,-0.3967 0.20381,0.013 -0.19064,-0.3813 -0.045,-0.045 -0.14571,0.045 -0.19064,0 -0.045,-0.045 0.0284,-0.1338 0,-0.1906 -0.0402,-0.08 -0.15045,-0.1103 -0.19064,-0.1907 -0.0284,-0.057 0.045,-0.1456 0,-0.1906 -0.045,-0.045 -0.14571,0.045 -0.19065,0 -0.045,-0.045 0.045,-0.1457 0,-0.1906 -0.045,-0.045 -0.14571,0.045 -0.19064,0 -0.045,-0.045 0.045,-0.1457 0,-0.1907 -0.045,-0.045 -0.14571,0.045 -0.19064,0 -0.045,-0.045 0.045,-0.1457 0,-0.1906 -0.045,-0.045 -0.1271,0 -0.19065,0 0,-0.064 0.0284,-0.1338 0,-0.1907 -0.0402,-0.08 -0.12709,-0.1271 -0.19064,-0.1906 -0.0635,-0.064 -0.11026,-0.1504 -0.19064,-0.1906 -0.0568,-0.029 -0.1457,0.045 -0.19064,0 -0.045,-0.045 0.0284,-0.1339 0,-0.1907 -0.0253,-0.051 -0.52131,-0.5466 -0.57193,-0.5719 -0.0568,-0.029 -0.14571,0.045 -0.19064,0 -0.045,-0.045 0.045,-0.1457 0,-0.1906 -0.045,-0.045 -0.14571,0.045 -0.19064,0 -0.045,-0.045 0.045,-0.1458 0,-0.1907 -0.045,-0.045 -0.14571,0.045 -0.19064,0 -0.11394,-0.1139 0.20605,-0.3813 -0.19065,-0.3813 -0.0636,0 0.0284,0.1338 0,0.1907 -0.0402,0.08 -0.15045,0.1102 -0.19064,0.1906 -0.13148,0.263 0.23088,0.1705 -0.19064,0.3813 -0.0568,0.029 -0.14571,-0.045 -0.19065,0 -0.0449,0.045 0.0284,0.1338 0,0.1906 -0.0402,0.08 -0.12709,0.1271 -0.19064,0.1907 -0.11212,0.1121 -0.71843,0.6743 -0.76256,0.7625 -0.0284,0.057 0.0284,0.1339 0,0.1907 -0.0402,0.08 -0.1271,0.1271 -0.19065,0.1906 -0.0635,0.064 -0.12709,0.1271 -0.19064,0.1907 -0.63228,0.6323 0.0899,-0.1798 -0.19064,0.3812 -0.13553,0.2711 -0.24576,0.1103 -0.38129,0.3813 -0.0284,0.057 0.0284,0.1338 0,0.1907 -0.0804,0.1607 -0.3009,0.2205 -0.38128,0.3812 -0.0284,0.057 0.045,0.1458 0,0.1907 -0.045,0.045 -0.14571,-0.045 -0.19065,0 -0.045,0.045 0.045,0.1457 0,0.1907 -0.045,0.045 -0.1338,-0.029 -0.19064,0 -0.7934,0.3967 0.20381,-0.013 -0.19064,0.3812 -0.045,0.045 -0.14571,-0.045 -0.19064,0 -0.0899,0.09 0.0568,0.2676 0,0.3813 -0.0402,0.08 -0.15045,0.1103 -0.19064,0.1907 -0.0284,0.057 0.045,0.1457 0,0.1906 -0.045,0.045 -0.14571,-0.045 -0.19064,0 -0.045,0.045 0.0284,0.1338 0,0.1907 -0.0804,0.1607 -0.30091,0.2205 -0.38129,0.3812 -0.0284,0.057 0,0.1271 0,0.1907 -0.0636,0.063 -0.15045,0.1102 -0.19064,0.1906 -0.0284,0.057 0.0284,0.1338 0,0.1907 -0.0804,0.1607 -0.30091,0.2205 -0.38129,0.3812 -0.0284,0.057 0.045,0.1458 0,0.1907 -0.045,0.045 -0.14571,-0.045 -0.19064,0 -0.045,0.045 0.0284,0.1338 0,0.1906 -0.0402,0.08 -0.15045,0.1103 -0.19064,0.1907 -0.0568,0.1136 0.0899,0.2914 0,0.3812 -0.045,0.045 -0.14571,-0.045 -0.19065,0 -0.045,0.045 0.0284,0.1339 0,0.1907 -0.0402,0.08 -0.15044,0.1103 -0.19064,0.1906 -0.0284,0.057 0.045,0.1457 0,0.1907 -0.045,0.045 -0.1457,-0.045 -0.19064,0 -0.045,0.045 0.045,0.1457 0,0.1906 -0.045,0.045 -0.14571,-0.045 -0.19064,0 -0.0899,0.09 0.0568,0.2676 0,0.3813 -0.0402,0.08 -0.15045,0.1103 -0.19064,0.1907 -0.0284,0.057 0.0284,0.1337 0,0.1906 -0.0804,0.1607 -0.30091,0.2205 -0.38129,0.3813 -0.0284,0.057 0.045,0.1457 0,0.1906 -0.045,0.045 -0.14571,-0.045 -0.19064,0 -0.045,0.045 0.045,0.1457 0,0.1907 -0.045,0.045 -0.14571,-0.045 -0.19064,0 -0.0899,0.09 0.0899,0.2914 0,0.3813 -0.045,0.045 -0.14571,-0.045 -0.19065,0 -0.045,0.045 0.0284,0.1337 0,0.1906 -0.0402,0.08 -0.15045,0.1103 -0.19064,0.1906 -0.0284,0.057 0.0284,0.1339 0,0.1907 -0.3967,0.7934 0.0132,-0.2038 -0.38128,0.1906 -0.045,0.045 0.045,0.1457 0,0.1907 -0.045,0.045 -0.1271,0 -0.19065,0 0,0.063 0.045,0.1456 0,0.1906 -0.045,0.045 -0.1457,-0.045 -0.19064,0 -0.045,0.045 0.045,0.1457 0,0.1906 -0.045,0.045 -0.1457,-0.045 -0.19064,0 -0.045,0.045 0.045,0.1458 0,0.1907 -0.045,0.045 -0.14571,-0.045 -0.19064,0 -0.045,0.045 0.045,0.1457 0,0.1906 -0.045,0.045 -0.14571,-0.045 -0.19064,0 -0.045,0.045 0.0284,0.1338 0,0.1907 -0.0253,0.051 -0.52131,0.5466 -0.57193,0.5719 -0.0568,0.029 -0.14571,-0.045 -0.19064,0 -0.045,0.045 0.0284,0.1338 0,0.1906 -0.0402,0.08 -0.15046,0.1103 -0.19065,0.1907 -0.0284,0.057 0.045,0.1457 0,0.1906 -0.045,0.045 -0.14571,-0.045 -0.19064,0 -0.39444,0.3944 0.60277,-0.015 -0.19064,0.3813 -0.0568,0.029 -0.14571,-0.045 -0.19064,0 -0.045,0.045 0.0284,0.1338 0,0.1907 -0.0402,0.08 -0.15045,0.1102 -0.19065,0.1906 -0.0284,0.057 0.045,0.1457 0,0.1906 -0.045,0.045 -0.1457,-0.045 -0.19064,0 -0.12821,0.1283 0.12822,0.2531 0,0.3813 -0.045,0.045 -0.1457,-0.045 -0.19064,0 -0.045,0.045 0.0284,0.1338 0,0.1907 -0.0804,0.1607 -0.3009,0.2205 -0.38128,0.3813 -0.0284,0.057 0.0284,0.1337 0,0.1906 -0.0402,0.08 -0.15046,0.1103 -0.19065,0.1906 -0.0284,0.057 0.0284,0.1339 0,0.1907 -0.0402,0.08 -0.15045,0.1102 -0.19064,0.1906 -0.0284,0.057 0.0284,0.1338 0,0.1907 -0.11438,0.2287 -0.45754,0.3431 -0.57193,0.5719 -0.0284,0.057 0.045,0.1457 0,0.1906 -0.045,0.045 -0.14571,-0.045 -0.19064,0 -0.045,0.045 0.0284,0.1338 0,0.1907 -0.0402,0.08 -0.15045,0.1102 -0.19064,0.1906 -0.0284,0.057 0.0284,0.1338 0,0.1906 -0.0402,0.08 -0.15045,0.1103 -0.19064,0.1907 -0.0284,0.057 0.0284,0.1338 0,0.1906 -0.0804,0.1608 -0.30091,0.2206 -0.38129,0.3813 -0.0284,0.057 0.0284,0.1338 0,0.1906 -0.0402,0.08 -0.15045,0.1103 -0.19064,0.1907 -0.0284,0.057 0.045,0.1457 0,0.1907 -0.045,0.045 -0.14571,-0.045 -0.19064,0 -0.045,0.045 0.0284,0.1337 0,0.1906 -0.0402,0.08 -0.15045,0.1102 -0.19064,0.1906 -0.0284,0.057 0.045,0.1457 0,0.1907 -0.045,0.045 -0.14571,-0.045 -0.19065,0 -0.045,0.045 0.0284,0.1338 0,0.1906 -0.0804,0.1608 -0.3009,0.2205 -0.38128,0.3813 -0.0284,0.057 0.0284,0.1338 0,0.1907 -0.0804,0.1607 -0.3009,0.2205 -0.38129,0.3812 -0.0284,0.057 0.045,0.1458 0,0.1907 -0.045,0.045 -0.14571,-0.045 -0.19064,0 -0.045,0.045 0.045,0.1457 0,0.1906 -0.39445,0.3945 0.0154,-0.6027 -0.38129,0.1907 -0.0284,0.057 0.0284,0.1337 0,0.1906 -0.0402,0.08 -0.15044,0.1103 -0.19064,0.1906 -0.0284,0.057 0.045,0.1458 0,0.1907 -0.045,0.045 -0.1457,-0.045 -0.19064,0 -0.045,0.045 0.0284,0.1338 0,0.1906 -0.0402,0.08 -0.15045,0.1103 -0.19064,0.1907 -0.0284,0.057 0.045,0.1457 0,0.1906 -0.045,0.045 -0.14571,-0.045 -0.19064,0 -0.045,0.045 0.045,0.1457 0,0.1906 -0.045,0.045 -0.14571,-0.045 -0.19064,0 -0.045,0.045 0.0284,0.1339 0,0.1907 -0.0402,0.08 -0.15046,0.1103 -0.19065,0.1906 -0.0284,0.057 0.045,0.1457 0,0.1907 -0.045,0.045 -0.1457,-0.045 -0.19064,0 -0.045,0.045 0.045,0.1457 0,0.1906 -0.045,0.045 -0.1338,-0.029 -0.19064,0 -0.0804,0.04 -0.11026,0.1505 -0.19064,0.1906 -0.15252,0.076 -0.41942,-0.076 -0.57193,0 -0.0804,0.04 -0.11026,0.1505 -0.19065,0.1907 -0.0568,0.029 -0.12709,0 -0.19064,0 -0.0635,0 -0.12709,0 -0.19064,0 -0.38128,0 -0.76257,0 -1.14385,0 -0.0859,0 -0.51391,-0.029 -0.57193,0 -0.0804,0.04 -0.11026,0.1505 -0.19064,0.1907 -0.0689,0.034 -0.82061,0 -0.95321,0 -0.69903,0 -1.39805,0 -2.09707,0 -0.0997,0 -0.71244,-0.025 -0.76257,0 -0.0804,0.04 -0.11026,0.1504 -0.19064,0.1906 -0.058,0.029 -0.48607,0 -0.57193,0 -0.44483,0 -0.88966,0 -1.33449,0 -0.31774,0 -0.63548,0 -0.95321,0 -0.0636,0 -0.14571,0.045 -0.19065,0 -0.045,-0.045 0.045,-0.1457 0,-0.1906 -0.045,-0.045 -0.12709,0 -0.19064,0 -0.07,0 -0.7549,-0.01 -0.76257,0 -0.045,0.045 0,0.1271 0,0.1906"
         style="color:#000000;clip-rule:nonzero;display:inline;overflow:visible;visibility:visible;isolation:auto;mix-blend-mode:normal;color-interpolation:sRGB;color-interpolation-filters:linearRGB;solid-color:#000000;solid-opacity:1;fill:none;fill-opacity:1;fill-rule:evenodd;stroke:#000000;stroke-width:1.37551463;stroke-linecap:butt;stroke-linejoin:miter;stroke-miterlimit:4;stroke-dasharray:none;stroke-dashoffset:0;stroke-opacity:1;color-rendering:auto;image-rendering:auto;shape-rendering:auto;text-rendering:auto;enable-background:accumulate" />
      <path
         inkscape:connector-curvature="0"
         id="path6986"
         d="m 195.91557,1115.8855 c -0.25419,-0.064 -0.50838,-0.1271 -0.76257,-0.1907 -0.0635,-0.063 -0.11026,-0.1504 -0.19064,-0.1906 -0.0689,-0.034 -0.82061,0 -0.95321,0 -0.63548,0 -1.27095,0 -1.90642,0 -0.31774,0 -0.63548,0 -0.95321,0 -0.0635,0 -0.1271,0 -0.19065,0 -0.0635,0 -0.1338,-0.029 -0.19064,0 -0.0804,0.04 -0.11026,0.1505 -0.19064,0.1906 -0.058,0.029 -0.48607,0 -0.57193,0 -0.38128,0 -0.76257,0 -1.14385,0 -0.82612,0 -1.65224,0 -2.47835,0 -1.27095,0 -2.5419,0 -3.81285,0 -0.0462,0 -0.5658,0.01 -0.57193,0 -0.045,-0.045 0.045,-0.1457 0,-0.1906 -0.045,-0.045 -0.12709,0 -0.19064,0 -0.13513,0 -1.09456,0.024 -1.14385,0 -0.0804,-0.04 -0.11026,-0.1505 -0.19065,-0.1907 -0.0568,-0.029 -0.12709,0 -0.19064,0 -0.13513,0 -1.09456,0.025 -1.14385,0 -0.47116,-0.2356 0.0658,-0.1906 -0.38128,-0.1906 -0.0462,0 -0.5658,0.01 -0.57193,0 -0.045,-0.045 0.045,-0.1457 0,-0.1906 -0.045,-0.045 -0.1271,0 -0.19065,0 -0.1326,0 -0.88427,0.034 -0.95321,0 -0.0804,-0.04 -0.11026,-0.1505 -0.19064,-0.1907 -0.12027,-0.06 -0.83294,0.06 -0.95321,0 -0.0804,-0.04 -0.11026,-0.1505 -0.19064,-0.1906 -0.15252,-0.076 -0.41942,0.076 -0.57193,0 -0.0804,-0.04 -0.11026,-0.1505 -0.19065,-0.1907 -0.0568,-0.029 -0.12709,0 -0.19064,0 -0.12709,0 -0.25798,0.031 -0.38128,0 -0.13785,-0.034 -0.24648,-0.1457 -0.38128,-0.1906 -0.15345,-0.051 -0.64075,0.061 -0.76257,0 -0.0804,-0.04 -0.11026,-0.1504 -0.19065,-0.1906 -0.11982,-0.06 -0.64274,0.06 -0.76257,0 -0.0804,-0.04 -0.11026,-0.1505 -0.19064,-0.1907 -0.11368,-0.057 -0.2676,0.057 -0.38128,0 -0.0804,-0.04 -0.11026,-0.1505 -0.19064,-0.1906 -0.11983,-0.06 -0.64275,0.06 -0.76257,0 -0.0804,-0.041 -0.11026,-0.1505 -0.19065,-0.1907 -0.0756,-0.038 -0.53295,0.039 -0.57193,0 -0.045,-0.045 0.045,-0.1457 0,-0.1906 -0.0459,-0.046 -0.71669,0.046 -0.76256,0 -0.045,-0.045 0.045,-0.1457 0,-0.1907 -0.045,-0.045 -0.1271,0 -0.19064,0 -0.13261,0 -0.88428,0.035 -0.95322,0 -0.0804,-0.04 -0.11026,-0.1504 -0.19064,-0.1906 -0.15251,-0.076 -0.41941,0.076 -0.57193,0 -0.0804,-0.04 -0.11026,-0.1505 -0.19064,-0.1906 -0.12027,-0.06 -0.83294,0.06 -0.95321,0 -0.0804,-0.04 -0.11026,-0.1505 -0.19064,-0.1907 -0.11983,-0.06 -0.64275,0.06 -0.76257,0 -0.0804,-0.04 -0.11026,-0.1505 -0.19065,-0.1907 -0.15251,-0.076 -0.41941,0.076 -0.57192,0 -0.0804,-0.04 -0.11026,-0.1504 -0.19064,-0.1906 -0.0493,-0.024 -1.00873,0 -1.14386,0 -0.0635,0 -0.14571,0.045 -0.19064,0 -0.045,-0.045 0.045,-0.1457 0,-0.1906 -0.045,-0.045 -0.12709,0 -0.19064,0 -0.1326,0 -0.88427,0.034 -0.95321,0 -0.0804,-0.04 -0.11026,-0.1505 -0.19064,-0.1907 -0.11577,-0.058 -1.0281,0.058 -1.14386,0 -0.0804,-0.04 -0.11026,-0.1504 -0.19064,-0.1906 -0.0493,-0.024 -1.00873,0 -1.14386,0 -0.0635,0 -0.1457,0.045 -0.19064,0 -0.045,-0.045 0.045,-0.1457 0,-0.1907 -0.045,-0.045 -0.12709,0 -0.19064,0 -0.38129,0 -0.76257,0 -1.14386,0 -0.0635,0 -0.1457,0.045 -0.19064,0 -0.045,-0.045 0.045,-0.1456 0,-0.1906 -0.045,-0.045 -0.12709,0 -0.19064,0 -0.0635,0 -0.1271,0 -0.19064,0 -0.50838,0 -1.01676,0 -1.52514,0 -0.0636,0 -0.12709,0 -0.19064,0 -0.0636,0 -0.14571,0.045 -0.19065,0 -0.0449,-0.045 0.045,-0.1457 0,-0.1906 -0.0449,-0.045 -0.12709,0 -0.19064,0 -0.0635,0 -0.12709,0 -0.19064,0 -0.50838,0 -1.01676,0 -1.52514,0"
         style="color:#000000;clip-rule:nonzero;display:inline;overflow:visible;visibility:visible;isolation:auto;mix-blend-mode:normal;color-interpolation:sRGB;color-interpolation-filters:linearRGB;solid-color:#000000;solid-opacity:1;fill:none;fill-opacity:1;fill-rule:evenodd;stroke:#000000;stroke-width:1.37551463;stroke-linecap:butt;stroke-linejoin:miter;stroke-miterlimit:4;stroke-dasharray:none;stroke-dashoffset:0;stroke-opacity:1;color-rendering:auto;image-rendering:auto;shape-rendering:auto;text-rendering:auto;enable-background:accumulate" />
    </g>
  </g>
</svg>
