<?xml version="1.0" encoding="UTF-8" standalone="no"?>
<!-- Created with Inkscape (http://www.inkscape.org/) -->

<svg
   xmlns:dc="http://purl.org/dc/elements/1.1/"
   xmlns:cc="http://creativecommons.org/ns#"
   xmlns:rdf="http://www.w3.org/1999/02/22-rdf-syntax-ns#"
   xmlns:svg="http://www.w3.org/2000/svg"
   xmlns="http://www.w3.org/2000/svg"
   xmlns:sodipodi="http://sodipodi.sourceforge.net/DTD/sodipodi-0.dtd"
   xmlns:inkscape="http://www.inkscape.org/namespaces/inkscape"
   width="177.16534"
   height="106.29497"
   id="svg2"
   version="1.1"
   inkscape:version="0.91 r13725"
   sodipodi:docname="step_up_onto_chair.svg">
  <defs
     id="defs4" />
  <sodipodi:namedview
     id="base"
     pagecolor="#ffffff"
     bordercolor="#666666"
     borderopacity="1.0"
     inkscape:pageopacity="0.0"
     inkscape:pageshadow="2"
     inkscape:zoom="0.84214851"
     inkscape:cx="-74.497878"
     inkscape:cy="-0.39096813"
     inkscape:document-units="cm"
     inkscape:current-layer="layer1"
     showgrid="false"
     fit-margin-top="0"
     fit-margin-left="0"
     fit-margin-right="0"
     fit-margin-bottom="0"
     inkscape:window-width="1330"
     inkscape:window-height="747"
     inkscape:window-x="36"
     inkscape:window-y="21"
     inkscape:window-maximized="1"
     units="cm" />
  <metadata
     id="metadata7">
    <rdf:RDF>
      <cc:Work
         rdf:about="">
        <dc:format>image/svg+xml</dc:format>
        <dc:type
           rdf:resource="http://purl.org/dc/dcmitype/StillImage" />
        <dc:title></dc:title>
      </cc:Work>
    </rdf:RDF>
  </metadata>
  <g
     inkscape:label="Layer 1"
     inkscape:groupmode="layer"
     id="layer1"
     transform="translate(-32.228633,-1064.9324)">
    <path
       inkscape:connector-curvature="0"
       id="path5115"
       d="m 111.85688,962.12555 c 0.96825,7.95603 -3.43,15.02874 -5.30527,22.43173 0.55562,2.86645 -2.78231,10.36958 2.92738,7.9522"
       style="color:#000000;clip-rule:nonzero;display:inline;overflow:visible;visibility:visible;opacity:1;isolation:auto;mix-blend-mode:normal;color-interpolation:sRGB;color-interpolation-filters:linearRGB;solid-color:#000000;solid-opacity:1;fill:none;fill-opacity:1;fill-rule:evenodd;stroke:#000000;stroke-width:1.38269389;stroke-linecap:butt;stroke-linejoin:miter;stroke-miterlimit:4;stroke-dasharray:none;stroke-dashoffset:0;stroke-opacity:1;color-rendering:auto;image-rendering:auto;shape-rendering:auto;text-rendering:auto;enable-background:accumulate" />
    <g
       id="g6919"
       transform="matrix(1.0558434,0,0,1.0558434,-457.07835,-62.437591)">
      <path
         inkscape:connector-curvature="0"
         id="path6758"
         d="m 507.75282,1094.6214 c -1.52757,1.7404 -3.01407,2.4388 -5.01898,2.3775 -2.79504,0.3651 -3.91017,-1.7316 -3.43404,-4.6642 0.10199,-2.1182 1.12413,-3.7833 1.8491,-5.3738 1.65279,-0.9166 4.014,-2.3187 5.81146,-1.5849 1.20942,0.3598 1.83476,1.7839 2.64038,2.038 0.81778,2.1029 2.21206,4.1043 1.05783,5.8867 -0.95047,0.312 -1.34201,1.198 -2.90575,1.3207 z"
         style="color:#000000;clip-rule:nonzero;display:inline;overflow:visible;visibility:visible;opacity:1;isolation:auto;mix-blend-mode:normal;color-interpolation:sRGB;color-interpolation-filters:linearRGB;solid-color:#000000;solid-opacity:1;fill:#000000;fill-opacity:1;fill-rule:evenodd;stroke:#000000;stroke-width:1.38250113;stroke-linecap:butt;stroke-linejoin:miter;stroke-miterlimit:4;stroke-dasharray:none;stroke-dashoffset:0;stroke-opacity:1;color-rendering:auto;image-rendering:auto;shape-rendering:auto;text-rendering:auto;enable-background:accumulate" />
      <path
         inkscape:connector-curvature="0"
         id="path6760"
         d="m 506.43204,1097.5272 c 0,3.7862 0,7.5725 0,11.3587 -0.68658,2.3882 -0.62949,5.7768 -0.79248,8.6265 0.0374,4.1896 0.0704,7.8128 0,11.9777 0.68053,2.3927 0.86586,4.494 1.05663,6.9323 0.21534,2.6513 0.50234,5.2201 0.79247,7.6606 0.57451,1.5173 -0.0797,4.2634 0.52832,5.7473 -0.17864,4.0728 0.25838,7.8906 0.26415,11.887 1.51361,3.0415 -1.53386,3.5011 -4.22651,3.1699 -1.40697,1.0261 -5.362,-0.6671 -6.07561,0.7925"
         style="color:#000000;clip-rule:nonzero;display:inline;overflow:visible;visibility:visible;opacity:1;isolation:auto;mix-blend-mode:normal;color-interpolation:sRGB;color-interpolation-filters:linearRGB;solid-color:#000000;solid-opacity:1;fill:none;fill-opacity:1;fill-rule:evenodd;stroke:#000000;stroke-width:1.38250113;stroke-linecap:butt;stroke-linejoin:miter;stroke-miterlimit:4;stroke-dasharray:none;stroke-dashoffset:0;stroke-opacity:1;color-rendering:auto;image-rendering:auto;shape-rendering:auto;text-rendering:auto;enable-background:accumulate" />
      <path
         inkscape:connector-curvature="0"
         id="path6762"
         d="m 507.75282,1102.0179 c -0.10248,2.9278 0.25046,6.311 -0.26416,8.8266 0.0293,3.4675 0.21097,6.9981 -1.05662,9.9284 -1.07624,1.331 -1.68699,3.6811 -2.37742,5.8115 -0.066,2.0014 -1.83471,3.7087 -2.37741,5.2832 -0.22174,1.0389 -1.81162,1.8567 -1.05663,3.1699"
         style="color:#000000;clip-rule:nonzero;display:inline;overflow:visible;visibility:visible;opacity:1;isolation:auto;mix-blend-mode:normal;color-interpolation:sRGB;color-interpolation-filters:linearRGB;solid-color:#000000;solid-opacity:1;fill:none;fill-opacity:1;fill-rule:evenodd;stroke:#000000;stroke-width:1.38250113;stroke-linecap:butt;stroke-linejoin:miter;stroke-miterlimit:4;stroke-dasharray:none;stroke-dashoffset:0;stroke-opacity:1;color-rendering:auto;image-rendering:auto;shape-rendering:auto;text-rendering:auto;enable-background:accumulate" />
      <path
         inkscape:connector-curvature="0"
         id="path6764"
         d="m 572.73545,1094.8856 c -1.44001,1.877 -4.7775,3.5058 -6.33976,1.3208 -1.37774,-1.4109 -1.16671,-4.2893 -0.52832,-6.6039 0.78876,-1.2515 1.40131,-2.5415 2.64157,-3.6983 1.39602,-0.8921 4.004,-1.1178 5.5473,-0.5282 1.4954,0.9445 2.3791,1.6586 2.64157,3.434 0.18721,2.2146 -0.49025,3.6581 -1.32079,4.7548 -0.35541,0.9266 -1.34516,1.0024 -2.64157,1.3208 z"
         style="color:#000000;clip-rule:nonzero;display:inline;overflow:visible;visibility:visible;opacity:1;isolation:auto;mix-blend-mode:normal;color-interpolation:sRGB;color-interpolation-filters:linearRGB;solid-color:#000000;solid-opacity:1;fill:#000000;fill-opacity:1;fill-rule:evenodd;stroke:#000000;stroke-width:1.38250113;stroke-linecap:butt;stroke-linejoin:miter;stroke-miterlimit:4;stroke-dasharray:none;stroke-dashoffset:0;stroke-opacity:1;color-rendering:auto;image-rendering:auto;shape-rendering:auto;text-rendering:auto;enable-background:accumulate" />
      <path
         inkscape:connector-curvature="0"
         id="path6766"
         d="m 570.88636,1099.3762 c -0.59225,6.1016 -0.10651,12.3359 -0.26416,18.491 0.47485,1.8824 0.2642,5.135 0.26416,7.1323 -0.009,3.0727 -0.43558,5.7281 -0.26416,8.9813 -0.69928,2.0913 0.11732,5.0385 0.26416,7.3965 0.86035,2.8002 0.93964,7.0858 2.37741,9.2454 0.53844,3.1528 0.35775,5.1308 0.26415,8.3171 0.49185,3.4415 0.0518,5.1081 -3.6982,4.8907 -1.07022,0.077 -4.58253,-0.2626 -3.96235,0.5284"
         style="color:#000000;clip-rule:nonzero;display:inline;overflow:visible;visibility:visible;opacity:1;isolation:auto;mix-blend-mode:normal;color-interpolation:sRGB;color-interpolation-filters:linearRGB;solid-color:#000000;solid-opacity:1;fill:none;fill-opacity:1;fill-rule:evenodd;stroke:#000000;stroke-width:1.38250113;stroke-linecap:butt;stroke-linejoin:miter;stroke-miterlimit:4;stroke-dasharray:none;stroke-dashoffset:0;stroke-opacity:1;color-rendering:auto;image-rendering:auto;shape-rendering:auto;text-rendering:auto;enable-background:accumulate" />
      <path
         inkscape:connector-curvature="0"
         id="path6768"
         d="m 572.4713,1125.7919 c -2.31413,0.016 -4.10944,-0.8843 -6.60393,-0.7924 -2.29512,0.1283 -5.35661,-0.2802 -7.11974,0.2543 -2.40749,-1.1657 -2.24241,2.2029 -2.12576,4.2099 0.007,2.812 -0.5795,5.384 -0.52831,8.2153 -0.63945,1.5531 -0.0701,4.315 -0.26416,6.3134 0.31296,2.347 -0.55386,3.5142 -2.37742,3.7246 -1.1167,1.0846 -4.29024,0.1124 -5.81145,0.7925 l -0.26416,0 0.26416,0"
         style="color:#000000;clip-rule:nonzero;display:inline;overflow:visible;visibility:visible;opacity:1;isolation:auto;mix-blend-mode:normal;color-interpolation:sRGB;color-interpolation-filters:linearRGB;solid-color:#000000;solid-opacity:1;fill:none;fill-opacity:1;fill-rule:evenodd;stroke:#000000;stroke-width:1.38250113;stroke-linecap:butt;stroke-linejoin:miter;stroke-miterlimit:4;stroke-dasharray:none;stroke-dashoffset:0;stroke-opacity:1;color-rendering:auto;image-rendering:auto;shape-rendering:auto;text-rendering:auto;enable-background:accumulate" />
      <path
         inkscape:connector-curvature="0"
         id="path6770"
         d="m 572.20714,1103.3386 c -0.17517,1.7579 0.51809,5.3006 0.52831,8.1888 0.53286,2.1327 0.33506,5.0176 -0.26415,6.604 -0.56606,1.6823 -1.92495,2.88 -2.11326,4.4907 -0.95592,2.0105 -1.45108,3.3436 -2.3786,5.0942 -0.76883,0.5394 -1.405,2.823 -2.36656,4.428 0.18006,0.4788 -1.11468,1.5948 -0.27382,1.8365"
         style="color:#000000;clip-rule:nonzero;display:inline;overflow:visible;visibility:visible;opacity:1;isolation:auto;mix-blend-mode:normal;color-interpolation:sRGB;color-interpolation-filters:linearRGB;solid-color:#000000;solid-opacity:1;fill:none;fill-opacity:1;fill-rule:evenodd;stroke:#000000;stroke-width:1.38250113;stroke-linecap:butt;stroke-linejoin:miter;stroke-miterlimit:4;stroke-dasharray:none;stroke-dashoffset:0;stroke-opacity:1;color-rendering:auto;image-rendering:auto;shape-rendering:auto;text-rendering:auto;enable-background:accumulate" />
      <path
         inkscape:connector-curvature="0"
         id="path6772"
         d="m 618.69878,1079.3003 c -2.17802,0.716 -6.0926,1.8029 -6.07561,-1.6944 -0.25619,-2.203 0.45312,-4.2874 1.05662,-5.702 0.79292,-1.2635 1.08172,-1.9471 2.64158,-2.6416 1.14993,-1.0134 4.18408,-1.1942 5.28314,0 0.757,0.9117 2.13228,2.339 1.32079,4.2265 -0.1883,2.4701 -0.942,3.308 -1.84911,5.2832 -0.73682,0.2003 -1.18209,1.3747 -2.37741,0.5283 z"
         style="color:#000000;clip-rule:nonzero;display:inline;overflow:visible;visibility:visible;opacity:1;isolation:auto;mix-blend-mode:normal;color-interpolation:sRGB;color-interpolation-filters:linearRGB;solid-color:#000000;solid-opacity:1;fill:#000000;fill-opacity:1;fill-rule:evenodd;stroke:#000000;stroke-width:1.38250113;stroke-linecap:butt;stroke-linejoin:miter;stroke-miterlimit:4;stroke-dasharray:none;stroke-dashoffset:0;stroke-opacity:1;color-rendering:auto;image-rendering:auto;shape-rendering:auto;text-rendering:auto;enable-background:accumulate" />
      <path
         inkscape:connector-curvature="0"
         id="path6774"
         d="m 618.69878,1080.8853 c 0.78785,3.9248 -0.32285,7.6197 -0.52831,11.3587 -0.30021,2.9408 -0.28668,5.9627 -0.26416,8.9814 -0.63447,1.5794 -0.0721,4.3555 -0.26416,6.3774 0.10787,3.8019 -0.3401,7.8341 0.52832,11.3211 0.9815,3.3964 1.52997,7.1975 1.84909,11.0946 0.71107,2.3554 0.59706,5.6568 0.79248,8.4718 0,3.4278 0,6.8555 0,10.2833 -2.11042,0.1377 -5.33188,-0.2051 -7.94354,-0.2641 -0.37523,-0.2309 -2.96239,0.3282 -1.56611,0.2641"
         style="color:#000000;clip-rule:nonzero;display:inline;overflow:visible;visibility:visible;opacity:1;isolation:auto;mix-blend-mode:normal;color-interpolation:sRGB;color-interpolation-filters:linearRGB;solid-color:#000000;solid-opacity:1;fill:none;fill-opacity:1;fill-rule:evenodd;stroke:#000000;stroke-width:1.38250113;stroke-linecap:butt;stroke-linejoin:miter;stroke-miterlimit:4;stroke-dasharray:none;stroke-dashoffset:0;stroke-opacity:1;color-rendering:auto;image-rendering:auto;shape-rendering:auto;text-rendering:auto;enable-background:accumulate" />
      <path
         inkscape:connector-curvature="0"
         id="path6776"
         d="m 620.28372,1085.376 c 0.14485,3.8562 -0.66922,7.6222 0,11.3587 0.55126,1.579 0.4172,3.6404 -0.79247,4.7548 -1.31282,1.1068 -1.68587,2.6965 -2.64157,3.9624 -0.80614,1.5612 -1.05963,3.4923 -2.11325,5.2831 -0.51285,1.7841 -1.86974,2.6329 -2.11326,4.2266 -0.68192,0.5009 -0.69137,1.9077 -1.58495,2.1132"
         style="color:#000000;clip-rule:nonzero;display:inline;overflow:visible;visibility:visible;opacity:1;isolation:auto;mix-blend-mode:normal;color-interpolation:sRGB;color-interpolation-filters:linearRGB;solid-color:#000000;solid-opacity:1;fill:none;fill-opacity:1;fill-rule:evenodd;stroke:#000000;stroke-width:1.38250113;stroke-linecap:butt;stroke-linejoin:miter;stroke-miterlimit:4;stroke-dasharray:none;stroke-dashoffset:0;stroke-opacity:1;color-rendering:auto;image-rendering:auto;shape-rendering:auto;text-rendering:auto;enable-background:accumulate" />
      <g
         style="color:#000000;clip-rule:nonzero;display:inline;overflow:visible;visibility:visible;opacity:1;isolation:auto;mix-blend-mode:normal;color-interpolation:sRGB;color-interpolation-filters:linearRGB;solid-color:#000000;solid-opacity:1;fill:none;fill-opacity:1;fill-rule:evenodd;stroke:#000080;stroke-width:15.49200916;stroke-linecap:butt;stroke-linejoin:miter;stroke-miterlimit:4;stroke-dasharray:none;stroke-dashoffset:0;stroke-opacity:1;color-rendering:auto;image-rendering:auto;shape-rendering:auto;text-rendering:auto;enable-background:accumulate"
         transform="matrix(0.08923962,0,0,0.08923962,416.11999,1066.7071)"
         id="g6792">
        <path
           inkscape:connector-curvature="0"
           id="path6788"
           d="m 1334.6668,668.01259 c -1.9734,154.9112 -3.9467,309.82241 -5.9201,464.73361"
           style="color:#000000;clip-rule:nonzero;display:inline;overflow:visible;visibility:visible;isolation:auto;mix-blend-mode:normal;color-interpolation:sRGB;color-interpolation-filters:linearRGB;solid-color:#000000;solid-opacity:1;fill:none;fill-opacity:1;fill-rule:evenodd;stroke:#000080;stroke-width:15.49200916;stroke-linecap:butt;stroke-linejoin:miter;stroke-miterlimit:4;stroke-dasharray:none;stroke-dashoffset:0;stroke-opacity:1;color-rendering:auto;image-rendering:auto;shape-rendering:auto;text-rendering:auto;enable-background:accumulate" />
        <path
           inkscape:connector-curvature="0"
           id="path6790"
           d="m 1331.7068,958.10111 c 92.7494,0.9867 185.4987,1.97339 278.2481,2.96009 -0.9867,58.215 -1.9733,116.4301 -2.96,174.6451"
           style="color:#000000;clip-rule:nonzero;display:inline;overflow:visible;visibility:visible;isolation:auto;mix-blend-mode:normal;color-interpolation:sRGB;color-interpolation-filters:linearRGB;solid-color:#000000;solid-opacity:1;fill:none;fill-opacity:1;fill-rule:evenodd;stroke:#000080;stroke-width:15.49200916;stroke-linecap:butt;stroke-linejoin:miter;stroke-miterlimit:4;stroke-dasharray:none;stroke-dashoffset:0;stroke-opacity:1;color-rendering:auto;image-rendering:auto;shape-rendering:auto;text-rendering:auto;enable-background:accumulate" />
      </g>
      <g
         style="color:#000000;clip-rule:nonzero;display:inline;overflow:visible;visibility:visible;opacity:1;isolation:auto;mix-blend-mode:normal;color-interpolation:sRGB;color-interpolation-filters:linearRGB;solid-color:#000000;solid-opacity:1;fill:none;fill-opacity:1;fill-rule:evenodd;stroke:#000080;stroke-width:15.49200916;stroke-linecap:butt;stroke-linejoin:miter;stroke-miterlimit:4;stroke-dasharray:none;stroke-dashoffset:0;stroke-opacity:1;color-rendering:auto;image-rendering:auto;shape-rendering:auto;text-rendering:auto;enable-background:accumulate"
         transform="matrix(0.08923962,0,0,0.08923962,350.76615,1067.0569)"
         id="g6796">
        <path
           inkscape:connector-curvature="0"
           id="path6798"
           d="m 1334.6668,668.01259 c -1.9734,154.9112 -3.9467,309.82241 -5.9201,464.73361"
           style="color:#000000;clip-rule:nonzero;display:inline;overflow:visible;visibility:visible;isolation:auto;mix-blend-mode:normal;color-interpolation:sRGB;color-interpolation-filters:linearRGB;solid-color:#000000;solid-opacity:1;fill:none;fill-opacity:1;fill-rule:evenodd;stroke:#000080;stroke-width:15.49200916;stroke-linecap:butt;stroke-linejoin:miter;stroke-miterlimit:4;stroke-dasharray:none;stroke-dashoffset:0;stroke-opacity:1;color-rendering:auto;image-rendering:auto;shape-rendering:auto;text-rendering:auto;enable-background:accumulate" />
        <path
           inkscape:connector-curvature="0"
           id="path6800"
           d="m 1331.7068,958.10111 c 92.7494,0.9867 185.4987,1.97339 278.2481,2.96009 -0.9867,58.215 -1.9733,116.4301 -2.96,174.6451"
           style="color:#000000;clip-rule:nonzero;display:inline;overflow:visible;visibility:visible;isolation:auto;mix-blend-mode:normal;color-interpolation:sRGB;color-interpolation-filters:linearRGB;solid-color:#000000;solid-opacity:1;fill:none;fill-opacity:1;fill-rule:evenodd;stroke:#000080;stroke-width:15.49200916;stroke-linecap:butt;stroke-linejoin:miter;stroke-miterlimit:4;stroke-dasharray:none;stroke-dashoffset:0;stroke-opacity:1;color-rendering:auto;image-rendering:auto;shape-rendering:auto;text-rendering:auto;enable-background:accumulate" />
      </g>
      <g
         style="color:#000000;clip-rule:nonzero;display:inline;overflow:visible;visibility:visible;opacity:1;isolation:auto;mix-blend-mode:normal;color-interpolation:sRGB;color-interpolation-filters:linearRGB;solid-color:#000000;solid-opacity:1;fill:none;fill-opacity:1;fill-rule:evenodd;stroke:#000080;stroke-width:15.49200916;stroke-linecap:butt;stroke-linejoin:miter;stroke-miterlimit:4;stroke-dasharray:none;stroke-dashoffset:0;stroke-opacity:1;color-rendering:auto;image-rendering:auto;shape-rendering:auto;text-rendering:auto;enable-background:accumulate"
         id="g6802"
         transform="matrix(0.08923962,0,0,0.08923962,481.62381,1066.7928)">
        <path
           inkscape:connector-curvature="0"
           id="path6804"
           d="m 1334.6668,668.01259 c -1.9734,154.9112 -3.9467,309.82241 -5.9201,464.73361"
           style="color:#000000;clip-rule:nonzero;display:inline;overflow:visible;visibility:visible;isolation:auto;mix-blend-mode:normal;color-interpolation:sRGB;color-interpolation-filters:linearRGB;solid-color:#000000;solid-opacity:1;fill:none;fill-opacity:1;fill-rule:evenodd;stroke:#000080;stroke-width:15.49200916;stroke-linecap:butt;stroke-linejoin:miter;stroke-miterlimit:4;stroke-dasharray:none;stroke-dashoffset:0;stroke-opacity:1;color-rendering:auto;image-rendering:auto;shape-rendering:auto;text-rendering:auto;enable-background:accumulate" />
        <path
           inkscape:connector-curvature="0"
           id="path6806"
           d="m 1331.7068,958.10111 c 92.7494,0.9867 185.4987,1.97339 278.2481,2.96009 -0.9867,58.215 -1.9733,116.4301 -2.96,174.6451"
           style="color:#000000;clip-rule:nonzero;display:inline;overflow:visible;visibility:visible;isolation:auto;mix-blend-mode:normal;color-interpolation:sRGB;color-interpolation-filters:linearRGB;solid-color:#000000;solid-opacity:1;fill:none;fill-opacity:1;fill-rule:evenodd;stroke:#000080;stroke-width:15.49200916;stroke-linecap:butt;stroke-linejoin:miter;stroke-miterlimit:4;stroke-dasharray:none;stroke-dashoffset:0;stroke-opacity:1;color-rendering:auto;image-rendering:auto;shape-rendering:auto;text-rendering:auto;enable-background:accumulate" />
      </g>
    </g>
  </g>
</svg>
