<?xml version="1.0" encoding="UTF-8" standalone="no"?>
<!-- Created with Inkscape (http://www.inkscape.org/) -->

<svg
   xmlns:dc="http://purl.org/dc/elements/1.1/"
   xmlns:cc="http://creativecommons.org/ns#"
   xmlns:rdf="http://www.w3.org/1999/02/22-rdf-syntax-ns#"
   xmlns:svg="http://www.w3.org/2000/svg"
   xmlns="http://www.w3.org/2000/svg"
   xmlns:sodipodi="http://sodipodi.sourceforge.net/DTD/sodipodi-0.dtd"
   xmlns:inkscape="http://www.inkscape.org/namespaces/inkscape"
   width="177.16534"
   height="106.29497"
   id="svg2"
   version="1.1"
   inkscape:version="0.91 r13725"
   sodipodi:docname="teaser.svg">
  <defs
     id="defs4" />
  <sodipodi:namedview
     id="base"
     pagecolor="#ffffff"
     bordercolor="#666666"
     borderopacity="1.0"
     inkscape:pageopacity="0.0"
     inkscape:pageshadow="2"
     inkscape:zoom="0.33782792"
     inkscape:cx="1093.1147"
     inkscape:cy="-426.4937"
     inkscape:document-units="cm"
     inkscape:current-layer="layer1"
     showgrid="false"
     fit-margin-top="0"
     fit-margin-left="0"
     fit-margin-right="0"
     fit-margin-bottom="0"
     inkscape:window-width="1330"
     inkscape:window-height="747"
     inkscape:window-x="36"
     inkscape:window-y="21"
     inkscape:window-maximized="1"
     units="cm" />
  <metadata
     id="metadata7">
    <rdf:RDF>
      <cc:Work
         rdf:about="">
        <dc:format>image/svg+xml</dc:format>
        <dc:type
           rdf:resource="http://purl.org/dc/dcmitype/StillImage" />
        <dc:title></dc:title>
      </cc:Work>
    </rdf:RDF>
  </metadata>
  <g
     inkscape:label="Layer 1"
     inkscape:groupmode="layer"
     id="layer1"
     transform="translate(-32.228633,-1064.9324)">
    <path
       inkscape:connector-curvature="0"
       id="path5115"
       d="m 111.85688,962.12555 c 0.96825,7.95603 -3.43,15.02874 -5.30527,22.43173 0.55562,2.86645 -2.78231,10.36958 2.92738,7.9522"
       style="color:#000000;clip-rule:nonzero;display:inline;overflow:visible;visibility:visible;opacity:1;isolation:auto;mix-blend-mode:normal;color-interpolation:sRGB;color-interpolation-filters:linearRGB;solid-color:#000000;solid-opacity:1;fill:none;fill-opacity:1;fill-rule:evenodd;stroke:#000000;stroke-width:1.38269389;stroke-linecap:butt;stroke-linejoin:miter;stroke-miterlimit:4;stroke-dasharray:none;stroke-dashoffset:0;stroke-opacity:1;color-rendering:auto;image-rendering:auto;shape-rendering:auto;text-rendering:auto;enable-background:accumulate" />
    <path
       style="fill:none;fill-rule:evenodd;stroke:#000000;stroke-width:1px;stroke-linecap:butt;stroke-linejoin:miter;stroke-opacity:1"
       d="m 714.52866,580.69003 c 0,1.97339 -0.38701,3.9851 0,5.92017 0.25698,1.28491 4.0232,2.70993 4.44013,2.96009 1.5253,0.91518 2.84913,2.16459 4.44013,2.96009 1.3954,0.6977 3.00617,0.86549 4.44013,1.48004 6.80257,2.91539 5.67054,3.62522 13.32039,5.92018 2.4095,0.72284 4.93348,0.98669 7.40022,1.48004 2.96009,0.98669 5.89803,2.04248 8.88026,2.96009 3.4328,1.05624 6.90687,1.97339 10.36031,2.96008 3.45343,0.9867 6.8484,2.20754 10.3603,2.96009 3.41106,0.73094 6.91237,0.94959 10.3603,1.48004 0.0515,0.008 17.75258,2.95943 17.76053,2.96009 25.9438,0 -6.38573,-0.58052 16.28047,1.48004 2.94793,0.268 5.9304,-0.24582 8.88026,0 2.99056,0.24922 5.89167,1.20836 8.88026,1.48005 2.45661,0.22332 4.94572,-0.24545 7.40022,0 2.50311,0.25031 4.90002,1.20224 7.40022,1.48004 1.96132,0.21792 3.94678,0 5.92017,0 7.40022,0 14.80044,0 22.20065,0 4.44014,0 8.88027,0 13.3204,0 1.97339,0 3.96202,0.24477 5.92017,0 4.03683,-0.5046 7.80351,-2.45548 11.84035,-2.96009 1.95815,-0.24477 3.96202,0.24477 5.92017,0 2.97348,-0.37168 7.41127,-1.97707 10.36031,-2.96008 1.48004,-0.49335 2.90125,-1.22357 4.44013,-1.48005 1.4599,-0.24331 2.98022,0.24332 4.44013,0 3.07775,-0.51296 5.82064,-2.34816 8.88026,-2.96008 1.4513,-0.29026 2.96008,0 4.44013,0"
       id="path4352"
       inkscape:connector-curvature="0" />
    <g
       id="g5533"
       transform="translate(-504.28209,-40.089507)">
      <path
         inkscape:connector-curvature="0"
         id="path5505"
         d="m 579.57363,1133.5516 c -0.6977,0.3489 -1.3954,0.6977 -2.09309,1.0466 0,0.1744 0.12333,0.3999 0,0.5232 -0.24668,0.2467 -0.79988,-0.2466 -1.04655,0 -0.12334,0.1234 0.12333,0.4 0,0.5233 -0.24668,0.2467 -0.79988,-0.2467 -1.04655,0 -0.12334,0.1233 0.12333,0.3999 0,0.5233 -0.24668,0.2467 -0.73453,-0.156 -1.04655,0 -0.22063,0.1103 -0.30264,0.4129 -0.52328,0.5233 -0.15601,0.078 -0.36726,-0.078 -0.52327,0 -0.22063,0.1103 -0.30264,0.4129 -0.52327,0.5232 -0.15601,0.078 -0.36727,-0.078 -0.52328,0 -0.22063,0.1103 -0.30264,0.413 -0.52327,0.5233 -0.31202,0.156 -0.79988,-0.2467 -1.04655,0 -0.12334,0.1233 0.12334,0.3999 0,0.5233 -0.24668,0.2467 -0.73453,-0.156 -1.04655,0 -0.22063,0.1103 -0.30264,0.4129 -0.52328,0.5233 -0.15601,0.078 -0.36726,-0.078 -0.52327,0 -0.22063,0.1103 -0.30264,0.4129 -0.52327,0.5232 -0.15601,0.078 -0.36727,-0.078 -0.52328,0 -0.22063,0.1103 -0.30264,0.413 -0.52327,0.5233 -0.15601,0.078 -0.39994,-0.1233 -0.52328,0 -0.12333,0.1233 0.12334,0.3999 0,0.5233 -0.12333,0.1233 -0.34885,0 -0.52327,0 -0.17443,0 -0.34885,0 -0.52328,0 -1.74424,0 -3.48849,0 -5.23274,0 -1.04655,0 -2.0931,0 -3.13965,0 -0.17442,0 -0.39993,0.1233 -0.52327,0 -0.12334,-0.1234 0.12334,-0.4 0,-0.5233 -0.24667,-0.2467 -0.73453,0.156 -1.04655,0 -0.22063,-0.1103 -0.30264,-0.413 -0.52327,-0.5233 -0.15601,-0.078 -0.39994,0.1234 -0.52328,0 -0.12333,-0.1233 0.078,-0.3672 0,-0.5232 -0.11031,-0.2207 -0.41296,-0.3027 -0.52327,-0.5233 -0.078,-0.156 0.12333,-0.4 0,-0.5233 -0.12334,-0.1233 -0.39994,0.1233 -0.52328,0 -0.12333,-0.1233 0.12334,-0.3999 0,-0.5233 -0.12333,-0.1233 -0.39993,0.1234 -0.52327,0 -0.12334,-0.1233 0.12334,-0.3999 0,-0.5232 -0.12334,-0.1234 -0.39994,0.1233 -0.52328,0 -0.24667,-0.2467 0.24668,-0.7999 0,-1.0466 -0.12333,-0.1233 -0.39993,0.1233 -0.52327,0 -0.12334,-0.1233 0.12334,-0.3999 0,-0.5233 -0.12334,-0.1233 -0.39994,0.1234 -0.52327,0 -0.12334,-0.1233 0.12333,-0.3999 0,-0.5232 -0.12334,-0.1234 -0.39994,0.1233 -0.52328,0 -0.12334,-0.1234 0.12334,-0.4 0,-0.5233 -0.12334,-0.1233 -0.39994,0.1233 -0.52327,0 -0.12334,-0.1233 0.12333,-0.4 0,-0.5233 -0.12334,-0.1233 -0.39994,0.1233 -0.52328,0 -0.24667,-0.2467 0.24668,-0.7999 0,-1.0465 -0.12333,-0.1234 -0.39993,0.1233 -0.52327,0 -0.24668,-0.2467 0.24667,-0.7999 0,-1.0466 -0.12334,-0.1233 -0.39994,0.1234 -0.52328,0 -0.12333,-0.1233 0.078,-0.3672 0,-0.5233 -0.11031,-0.2206 -0.41295,-0.3026 -0.52327,-0.5232 -0.078,-0.156 0.12334,-0.4 0,-0.5233 -0.12334,-0.1233 -0.39994,0.1233 -0.52327,0 -0.26164,-0.2616 0.26163,-1.3082 0,-1.5698 -0.12334,-0.1234 -0.39994,0.1233 -0.52328,0 -0.12334,-0.1234 0,-0.3489 0,-0.5233 0,-1.3954 0,-2.7908 0,-4.1862 0,-0.1922 -0.0211,-2.072 0,-2.0931 0.12334,-0.1233 0.39994,0.1233 0.52328,0 0.12333,-0.1233 -0.078,-0.3673 0,-0.5233 1.08887,-2.1777 -0.0361,0.5594 1.04654,-0.5232 0.12334,-0.1234 -0.12333,-0.4 0,-0.5233 0.12334,-0.1234 0.39994,0.1233 0.52328,0 0.12334,-0.1234 -0.12334,-0.4 0,-0.5233 0.12334,-0.1233 0.36726,0.078 0.52327,0 0.22063,-0.1103 0.30265,-0.413 0.52328,-0.5233 0.15601,-0.078 0.39993,0.1234 0.52327,0 0.12334,-0.1233 -0.12334,-0.3999 0,-0.5232 0.12334,-0.1234 0.39994,0.1233 0.52328,0 0.12333,-0.1234 -0.12334,-0.4 0,-0.5233 0.24667,-0.2467 0.79987,0.2467 1.04654,0 0.12334,-0.1234 -0.12333,-0.4 0,-0.5233 0.12334,-0.1233 0.36727,0.078 0.52328,0 0.44126,-0.2206 0.60528,-0.8259 1.04655,-1.0465 0.15601,-0.078 0.39994,0.1233 0.52327,0 0.12334,-0.1234 -0.12333,-0.4 0,-0.5233 0.24668,-0.2467 0.73453,0.156 1.04655,0 0.22063,-0.1103 0.30264,-0.413 0.52328,-0.5233 0.13529,-0.068 2.76874,0 3.13964,0 1.04655,0 2.0931,0 3.13965,0 0.23566,0 1.41057,-0.08 1.56982,0 0.22063,0.1103 0.30264,0.413 0.52328,0.5233 0.15601,0.078 0.39993,-0.1234 0.52327,0 0.12334,0.1233 -0.12334,0.3999 0,0.5233 0.24667,0.2466 0.73453,-0.1561 1.04655,0 0.22063,0.1103 0.30264,0.4129 0.52327,0.5232 0.15601,0.078 0.36727,-0.078 0.52328,0 0.22063,0.1103 0.30264,0.413 0.52327,0.5233 0.15601,0.078 0.39994,-0.1233 0.52328,0 0.12333,0.1233 -0.12334,0.3999 0,0.5233 0.12333,0.1233 0.36726,-0.078 0.52327,0 0.22063,0.1103 0.30264,0.4129 0.52327,0.5233 0.15602,0.078 0.36727,-0.078 0.52328,0 2.17774,1.0888 -0.5594,-0.036 0.52327,1.0465 0.12334,0.1233 0.39994,-0.1233 0.52328,0 0.12334,0.1233 -0.12334,0.3999 0,0.5233 0.12334,0.1233 0.39994,-0.1234 0.52327,0 0.12334,0.1233 -0.12333,0.3999 0,0.5233 0.12334,0.1233 0.39994,-0.1234 0.52328,0 0.12333,0.1233 -0.12334,0.3999 0,0.5232 0.12333,0.1234 0.39993,-0.1233 0.52327,0 0.12334,0.1234 -0.12334,0.4 0,0.5233 0.12334,0.1233 0.39994,-0.1233 0.52328,0 0.12333,0.1233 -0.12334,0.3999 0,0.5233 0.12333,0.1233 0.36726,-0.078 0.52327,0 0.22063,0.1103 0.34885,0.3488 0.52327,0.5233 0.17443,0.1744 0.41296,0.3026 0.52328,0.5232 0.078,0.156 -0.078,0.3673 0,0.5233 0.31396,0.6279 1.25586,0.9419 1.56982,1.5698 0.078,0.156 -0.12334,0.4 0,0.5233 0.12334,0.1233 0.39994,-0.1233 0.52328,0 0.12333,0.1233 -0.12334,0.3999 0,0.5233 0.12333,0.1233 0.39993,-0.1234 0.52327,0 0.12334,0.1233 -0.12334,0.3999 0,0.5232 0.12334,0.1234 0.39994,-0.1233 0.52328,0 0.12333,0.1234 -0.12334,0.4 0,0.5233 0.12333,0.1234 0.39993,-0.1233 0.52327,0 0.12334,0.1234 -0.12334,0.4 0,0.5233 0.12334,0.1233 0.39994,-0.1233 0.52327,0 0.12334,0.1233 -0.078,0.3673 0,0.5233 0.22064,0.4412 0.82592,0.6053 1.04655,1.0465 0.15601,0.312 -0.24667,0.7999 0,1.0466 0.12334,0.1233 0.39994,-0.1234 0.52328,0 0.12333,0.1233 -0.078,0.3672 0,0.5232 0.11031,0.2207 0.41296,0.3027 0.52327,0.5233 0.34885,0.6977 -0.61385,1.4441 -1.04655,2.0931 z"
         style="color:#000000;clip-rule:nonzero;display:inline;overflow:visible;visibility:visible;isolation:auto;mix-blend-mode:normal;color-interpolation:sRGB;color-interpolation-filters:linearRGB;solid-color:#000000;solid-opacity:1;fill:#000000;fill-opacity:1;fill-rule:evenodd;stroke:#000000;stroke-width:1.38269389;stroke-linecap:butt;stroke-linejoin:miter;stroke-miterlimit:4;stroke-dasharray:none;stroke-dashoffset:0;stroke-opacity:1;color-rendering:auto;image-rendering:auto;shape-rendering:auto;text-rendering:auto;enable-background:accumulate" />
      <path
         inkscape:connector-curvature="0"
         id="path5507"
         d="m 571.20124,1139.8309 c 0.52328,0.6977 0.95314,1.4764 1.56983,2.0931 0.12333,0.1233 0.36726,-0.078 0.52327,0 0.22063,0.1103 0.34885,0.3489 0.52327,0.5233 0.17443,0.1744 0.41296,0.3026 0.52328,0.5233 0.078,0.156 -0.12334,0.3999 0,0.5232 0.12334,0.1234 0.39994,-0.1233 0.52327,0 0.12334,0.1234 -0.078,0.3673 0,0.5233 0.22064,0.4413 0.82592,0.6053 1.04655,1.0465 0.078,0.1561 -0.12334,0.4 0,0.5233 0.12334,0.1234 0.39994,-0.1233 0.52328,0 0.12333,0.1234 -0.078,0.3673 0,0.5233 0.11031,0.2206 0.41295,0.3026 0.52327,0.5233 0.15601,0.312 -0.24667,0.7998 0,1.0465 0.12334,0.1234 0.39994,-0.1233 0.52328,0 0.12333,0.1234 -0.078,0.3673 0,0.5233 0.11031,0.2206 0.41295,0.3026 0.52327,0.5233 0.078,0.156 -0.078,0.3672 0,0.5232 0.11032,0.2207 0.41296,0.3027 0.52327,0.5233 0.078,0.156 -0.12333,0.4 0,0.5233 0.12334,0.1233 0.39994,-0.1233 0.52328,0 0.12334,0.1233 -0.078,0.3673 0,0.5233 0.31396,0.6279 1.25586,0.9419 1.56982,1.5698 0.078,0.156 -0.078,0.3673 0,0.5233 0.11032,0.2206 0.41296,0.3026 0.52328,0.5232 0.078,0.156 -0.12334,0.4 0,0.5233 0.12333,0.1233 0.36726,-0.078 0.52327,0 2.17774,1.0889 -0.5594,-0.036 0.52327,1.0466 0.12334,0.1233 0.39994,-0.1234 0.52328,0 0.12334,0.1233 -0.078,0.3672 0,0.5232 0.22063,0.4413 0.82592,0.6053 1.04655,1.0466 0.078,0.156 -0.12334,0.3999 0,0.5233 0.12333,0.1233 0.39994,-0.1234 0.52327,0 0.12334,0.1233 -0.12333,0.3999 0,0.5232 0.12334,0.1234 0.39994,-0.1233 0.52328,0 0.12333,0.1234 -0.078,0.3673 0,0.5233 0.11031,0.2206 0.41295,0.3027 0.52327,0.5233 0.078,0.156 -0.078,0.3672 0,0.5233 0.31397,0.6279 1.25586,0.9419 1.56982,1.5698 0.078,0.156 -0.078,0.3672 0,0.5233 0.31397,0.6279 1.25586,0.9418 1.56983,1.5698 0.078,0.156 -0.078,0.3672 0,0.5233 0.16665,0.3333 2.2052,2.2051 2.61637,2.6163 0.17442,0.1745 0.41296,0.3027 0.52327,0.5233 0.078,0.156 -0.078,0.3673 0,0.5233 0.11032,0.2206 0.34885,0.3488 0.52328,0.5232 0.17442,0.1745 0.34885,0.3489 0.52327,0.5233 0.6977,0.6977 1.3954,1.3954 2.0931,2.0931 0.30776,0.3078 1.85078,1.972 2.0931,2.0931 0.15601,0.078 0.39993,-0.1233 0.52327,0 0.12334,0.1234 -0.078,0.3673 0,0.5233 0.31397,0.6279 1.25586,0.9419 1.56982,1.5698 0.078,0.156 -0.12333,0.4 0,0.5233 0.12334,0.1233 0.36727,-0.078 0.52328,0 2.17774,1.0889 -0.5594,-0.036 0.52327,1.0465 0.12334,0.1234 0.39994,-0.1233 0.52328,0 0.12333,0.1234 -0.12334,0.4 0,0.5233 0.12333,0.1233 0.39994,-0.1233 0.52327,0 0.12334,0.1233 -0.078,0.3673 0,0.5233 0.11032,0.2206 0.41296,0.3026 0.52328,0.5233 0.078,0.156 -0.12334,0.3999 0,0.5232 0.12333,0.1234 0.39993,-0.1233 0.52327,0 0.12334,0.1234 -0.078,0.3673 0,0.5233 0.31397,0.6279 1.25586,0.9419 1.56982,1.5698 0.078,0.156 -0.12333,0.4 0,0.5233 0.12334,0.1233 0.39994,-0.1233 0.52328,0 0.12334,0.1233 -0.078,0.3673 0,0.5233 0.11031,0.2206 0.41296,0.3026 0.52327,0.5233 0.078,0.156 -0.078,0.3672 0,0.5232 0.11032,0.2207 0.41296,0.3027 0.52328,0.5233 0.078,0.156 -0.12334,0.3999 0,0.5233 0.12333,0.1233 0.39993,-0.1234 0.52327,0 0.12334,0.1233 -0.078,0.3672 0,0.5233 0.31397,0.6279 1.25586,0.9418 1.56982,1.5698 0.078,0.156 -0.12333,0.3999 0,0.5232 0.12334,0.1234 0.39994,-0.1233 0.52328,0 0.12334,0.1234 -0.078,0.3673 0,0.5233 0.13974,0.2795 1.29434,1.2944 1.56982,1.5698 0.17443,0.1745 0.41296,0.3027 0.52328,0.5233 0.078,0.156 -0.12334,0.4 0,0.5233 0.12333,0.1233 0.34885,0 0.52327,0 0,0.1744 -0.078,0.3673 0,0.5233 1.08887,2.1777 -0.0361,-0.5594 1.04655,0.5232 0.12334,0.1234 -0.12334,0.4 0,0.5233 0.12334,0.1234 0.39994,-0.1233 0.52327,0 0.12334,0.1234 -0.12333,0.4 0,0.5233 0.12334,0.1233 0.39994,-0.1233 0.52328,0 0.12334,0.1233 -0.078,0.3673 0,0.5233 0.11031,0.2206 0.34885,0.3488 0.52327,0.5232 0.17443,0.1745 0.34885,0.3489 0.52328,0.5233 0.6977,0.6977 1.3954,1.3954 2.09309,2.0931 0.17443,0.1744 0.34885,0.3489 0.52328,0.5233 0.17442,0.1744 0.41296,0.3026 0.52327,0.5233 0.078,0.156 -0.12333,0.3999 0,0.5232 0.12334,0.1234 0.39994,-0.1233 0.52328,0 0.12333,0.1234 -0.12334,0.4 0,0.5233 0.12333,0.1233 0.39994,-0.1233 0.52327,0 0.12334,0.1233 -0.12333,0.3999 0,0.5233 0.12334,0.1233 0.39994,-0.1234 0.52328,0 0.12333,0.1233 -0.12334,0.3999 0,0.5233 0.12333,0.1233 0.39993,-0.1234 0.52327,0 0.12334,0.1233 0,0.3488 0,0.5232 0.17443,0 0.36727,-0.078 0.52328,0 2.17774,1.0889 -0.5594,-0.036 0.52327,1.0466 0.12334,0.1233 0.39994,-0.1234 0.52327,0 0.12334,0.1233 -0.12333,0.3999 0,0.5233 0.12334,0.1233 0.39994,-0.1234 0.52328,0 0.12334,0.1233 -0.12334,0.3999 0,0.5232 0.12334,0.1234 0.39994,-0.1233 0.52327,0 0.12334,0.1234 -0.12333,0.4 0,0.5233 0.12334,0.1233 0.52328,-0.1744 0.52328,0 0,0.1744 -0.34885,0 -0.52328,0 -1.14849,-5.2703 1.89721,-0.8506 2.61638,-1.5698 0.24667,-0.2467 -0.24668,-0.7999 0,-1.0466 0.12333,-0.1233 0.39994,0.1234 0.52327,0 0.12334,-0.1233 -0.12333,-0.3999 0,-0.5232 0.12334,-0.1234 0.39994,0.1233 0.52328,0 0.12333,-0.1234 -0.12334,-0.4 0,-0.5233 0.12333,-0.1234 0.39993,0.1233 0.52327,0 0.12334,-0.1234 -0.12334,-0.4 0,-0.5233 0.12334,-0.1233 0.39994,0.1233 0.52328,0 0.12333,-0.1233 -0.12334,-0.3999 0,-0.5233 0.12333,-0.1233 0.39993,0.1234 0.52327,0 0.12334,-0.1233 -0.078,-0.3672 0,-0.5232 0.11032,-0.2207 0.41296,-0.3027 0.52327,-0.5233 0.078,-0.156 -0.12333,-0.3999 0,-0.5233 0.12334,-0.1233 0.36727,0.078 0.52328,0 0.22063,-0.1103 0.34885,-0.3488 0.52327,-0.5233 0.17443,-0.1744 0.41296,-0.3026 0.52328,-0.5232 0.078,-0.156 -0.12334,-0.4 0,-0.5233 0.12333,-0.1233 0.39993,0.1233 0.52327,0 0.12334,-0.1233 -0.12334,-0.3999 0,-0.5233 0.12334,-0.1233 0.36727,0.078 0.52328,0 0.22063,-0.1103 0.30264,-0.4129 0.52327,-0.5233 0.15601,-0.078 0.39994,0.1234 0.52327,0 0.12334,-0.1233 -0.12333,-0.3999 0,-0.5232 0.12334,-0.1234 0.39994,0.1233 0.52328,0 0.12334,-0.1234 -0.12334,-0.4 0,-0.5233 0.12334,-0.1233 0.39994,0.1233 0.52327,0 0.12334,-0.1233 -0.12333,-0.3999 0,-0.5233 0.24668,-0.2467 0.79988,0.2467 1.04655,0 0.12334,-0.1233 -0.12333,-0.3999 0,-0.5233 0.12334,-0.1233 0.39994,0.1234 0.52328,0 0.12333,-0.1233 -0.12334,-0.3999 0,-0.5232 0.12333,-0.1234 0.36726,0.078 0.52327,0 0.44126,-0.2207 0.60529,-0.8259 1.04655,-1.0466 0.15601,-0.078 0.36726,0.078 0.52327,0 0.22064,-0.1103 0.30265,-0.4129 0.52328,-0.5233 0.15601,-0.078 0.39994,0.1234 0.52327,0 0.12334,-0.1233 -0.12333,-0.3999 0,-0.5232 0.12334,-0.1234 0.36727,0.078 0.52328,0 0.22063,-0.1103 0.30264,-0.413 0.52327,-0.5233 0.15601,-0.078 0.39994,0.1233 0.52328,0 0.12333,-0.1233 -0.12334,-0.3999 0,-0.5233 0.12333,-0.1233 0.36726,0.078 0.52327,0 0.22063,-0.1103 0.30264,-0.4129 0.52328,-0.5232 0.15601,-0.078 0.39993,0.1233 0.52327,0 0.12334,-0.1234 -0.12334,-0.4 0,-0.5233 0.12334,-0.1234 0.39994,0.1233 0.52327,0 0.12334,-0.1234 -0.12333,-0.4 0,-0.5233 0.24668,-0.2467 0.79988,0.2467 1.04655,0 0.12334,-0.1233 -0.12333,-0.3999 0,-0.5233 0.12334,-0.1233 0.36727,0.078 0.52328,0 0.22063,-0.1103 0.30264,-0.4129 0.52327,-0.5232 0.15601,-0.078 0.39994,0.1233 0.52328,0 0.12333,-0.1234 -0.12334,-0.4 0,-0.5233 0.12333,-0.1234 0.36726,0.078 0.52327,0 0.22063,-0.1103 0.30264,-0.413 0.52327,-0.5233 0.15601,-0.078 0.39994,0.1233 0.52328,0 0.12334,-0.1233 -0.12334,-0.3999 0,-0.5233 0.12334,-0.1233 0.36726,0.078 0.52327,0 0.22064,-0.1103 0.30265,-0.4129 0.52328,-0.5232 0.15601,-0.078 0.39994,0.1233 0.52327,0 0.12334,-0.1234 -0.12333,-0.4 0,-0.5233 0.12334,-0.1234 0.39994,0.1233 0.52328,0 0.12333,-0.1234 -0.12334,-0.4 0,-0.5233 0.12333,-0.1233 0.36726,0.078 0.52327,0 0.22063,-0.1103 0.30264,-0.413 0.52328,-0.5233 0.31202,-0.156 0.79987,0.2467 1.04654,0 0.12334,-0.1233 -0.12333,-0.3999 0,-0.5232 0.24668,-0.2467 0.79988,0.2466 1.04655,0 0.12334,-0.1234 -0.12333,-0.4 0,-0.5233 0.12334,-0.1234 0.36727,0.078 0.52328,0 1.73548,-1.7355 -0.49335,0.2467 1.04655,-0.5233 0.22063,-0.1103 0.30264,-0.4129 0.52327,-0.5233 0.15601,-0.078 0.36726,0.078 0.52327,0 0.22064,-0.1103 0.30265,-0.4129 0.52328,-0.5232 0.31202,-0.1561 0.79987,0.2466 1.04655,0 0.12333,-0.1234 -0.12334,-0.4 0,-0.5233 0.12333,-0.1234 0.36726,0.078 0.52327,0 0.22063,-0.1103 0.30264,-0.413 0.52328,-0.5233 0.31202,-0.156 0.73452,0.156 1.04655,0 0.22063,-0.1103 0.30264,-0.4129 0.52327,-0.5233 0.15601,-0.078 0.39994,0.1234 0.52327,0 0.12334,-0.1233 -0.12333,-0.3999 0,-0.5232 0.12334,-0.1234 0.36727,0.078 0.52328,0 1.73548,-1.7355 -0.49335,0.2466 1.04655,-0.5233 0.22063,-0.1103 0.30264,-0.413 0.52327,-0.5233 0.15601,-0.078 0.39994,0.1234 0.52328,0 0.12333,-0.1233 -0.12334,-0.3999 0,-0.5233 0.24667,-0.2466 0.79987,0.2467 1.04654,0 0.12334,-0.1233 -0.12333,-0.3999 0,-0.5232 0.24668,-0.2467 0.79988,0.2466 1.04655,0 0.12334,-0.1234 -0.12333,-0.4 0,-0.5233 0.34878,-0.3488 0.69778,0.3488 1.04655,0 0.12334,-0.1233 -0.12333,-0.3999 0,-0.5233 0.10698,-0.107 1.36235,0.1038 1.56983,0 0.22063,-0.1103 0.30264,-0.4129 0.52327,-0.5233 0.15601,-0.078 0.39994,0.1234 0.52327,0 0.12334,-0.1233 -0.12333,-0.3999 0,-0.5232 0.24668,-0.2467 0.79988,0.2466 1.04655,0 0.12334,-0.1234 -0.12333,-0.4 0,-0.5233 0.24668,-0.2467 0.73453,0.156 1.04655,0 0.22063,-0.1103 0.30264,-0.413 0.52328,-0.5233 0.31202,-0.156 0.73452,0.156 1.04654,0 0.44127,-0.2206 0.60529,-0.8259 1.04655,-1.0465 0.15601,-0.078 0.34885,0 0.52328,0 0.17442,-0.1745 0.30264,-0.413 0.52327,-0.5233 0.15601,-0.078 0.39994,0.1233 0.52328,0 0.12333,-0.1233 -0.12334,-0.3999 0,-0.5233 0.12333,-0.1233 0.36726,0.078 0.52327,0 0.22063,-0.1103 0.34885,-0.3488 0.52328,-0.5233 0.30776,-0.3077 1.85078,-1.9719 2.09309,-2.0931 0.15601,-0.078 0.39994,0.1234 0.52328,0 0.24667,-0.2466 -0.24668,-0.7998 0,-1.0465 0.12333,-0.1233 0.36726,0.078 0.52327,0 2.17774,-1.0889 -0.5594,0.036 0.52328,-1.0465 0.12333,-0.1234 0.39993,0.1233 0.52327,0 0.12334,-0.1234 -0.12334,-0.4 0,-0.5233 0.12334,-0.1234 0.39994,0.1233 0.52327,0 0.12334,-0.1234 -0.12333,-0.4 0,-0.5233 0.12334,-0.1233 0.36727,0.078 0.52328,0 0.44126,-0.2206 0.60528,-0.8259 1.04655,-1.0465 0.15601,-0.078 0.39994,0.1233 0.52327,0 0.12334,-0.1234 -0.12333,-0.4 0,-0.5233 0.12334,-0.1234 0.36727,0.078 0.52328,0 0.44126,-0.2207 0.60528,-0.8259 1.04655,-1.0466 0.15601,-0.078 0.39993,0.1234 0.52327,0 0.12334,-0.1233 -0.12334,-0.3999 0,-0.5232 0.12334,-0.1234 0.36726,0.078 0.52327,0 0.22064,-0.1104 0.30265,-0.413 0.52328,-0.5233 0.15601,-0.078 0.39994,0.1233 0.52327,0 0.12334,-0.1234 -0.12333,-0.4 0,-0.5233 0.24668,-0.2467 0.79988,0.2467 1.04655,0 0.12334,-0.1233 -0.12334,-0.3999 0,-0.5233 0.24668,-0.2466 0.79988,0.2467 1.04655,0 0.12334,-0.1233 -0.12334,-0.3999 0,-0.5232 0.24667,-0.2467 0.79988,0.2466 1.04655,0 0.12334,-0.1234 -0.078,-0.3673 0,-0.5233 1.08887,-2.1778 -0.0361,0.5594 1.04655,-0.5233 0.12334,-0.1233 -0.12334,-0.3999 0,-0.5233 0.12334,-0.1233 0.39994,0.1234 0.52327,0 0.12334,-0.1233 -0.12333,-0.3999 0,-0.5232 0.12334,-0.1234 0.39994,0.1233 0.52328,0 0.12333,-0.1234 -0.12334,-0.4 0,-0.5233 0.24667,-0.2467 0.79987,0.2467 1.04655,0 0.12333,-0.1233 -0.12334,-0.3999 0,-0.5233 0.12333,-0.1233 0.39993,0.1234 0.52327,0 0.12334,-0.1233 -0.12334,-0.3999 0,-0.5233 0.12334,-0.1233 0.39994,0.1234 0.52327,0 0.12334,-0.1233 -0.078,-0.3672 0,-0.5232 0.11032,-0.2207 0.34885,-0.3489 0.52328,-0.5233 0.17442,-0.1744 0.30264,-0.413 0.52327,-0.5233 0.15601,-0.078 0.39994,0.1234 0.52328,0 0.12333,-0.1233 -0.12334,-0.3999 0,-0.5233 0.12333,-0.1233 0.39993,0.1234 0.52327,0 0.12334,-0.1233 -0.078,-0.3672 0,-0.5232 0.11032,-0.2207 0.41296,-0.3027 0.52328,-0.5233 0.078,-0.156 -0.12334,-0.3999 0,-0.5233 1.08267,-1.0827 -0.0423,1.6545 1.04655,-0.5233 0.078,-0.156 -0.12334,-0.3999 0,-0.5232 0.12333,-0.1234 0.36726,0.078 0.52327,0 0.22063,-0.1103 0.30264,-0.413 0.52327,-0.5233 0.15601,-0.078 0.39994,0.1233 0.52328,0 0.12334,-0.1233 -0.12334,-0.3999 0,-0.5233 0.12334,-0.1233 0.39994,0.1234 0.52327,0 0.12334,-0.1233 -0.12333,-0.3999 0,-0.5233 0.24668,-0.2466 0.79988,0.2467 1.04655,0 0.12334,-0.1233 -0.12334,-0.3999 0,-0.5232 0.24668,-0.2467 0.79988,0.2466 1.04655,0 0.12334,-0.1234 -0.12334,-0.4 0,-0.5233 0.26164,-0.2616 1.30819,0.2616 1.56982,0 0.10698,-0.107 -0.10373,-1.3624 0,-1.5698 0.11032,-0.2207 0.41296,-0.3027 0.52328,-0.5233 0.20931,-0.4186 -0.20931,-1.1512 0,-1.5698 0.11031,-0.2207 0.41296,-0.3027 0.52327,-0.5233 0.15601,-0.312 -0.24667,-0.7999 0,-1.0465 0.12334,-0.1234 0.39994,0.1233 0.52328,0 0.24667,-0.2467 -0.15601,-0.7346 0,-1.0466 0.11031,-0.2206 0.41295,-0.3026 0.52327,-0.5233 0.20931,-0.4186 -0.20931,-1.1512 0,-1.5698 0.11032,-0.2206 0.41296,-0.3026 0.52328,-0.5233 0.14193,-0.2838 -0.14318,-1.9499 0,-2.0931 0.12333,-0.1233 0.39993,0.1234 0.52327,0 0.0168,-0.017 0,-1.4429 0,-1.5698 0,-0.3639 0.0946,-2.4271 0,-2.6164 -0.11032,-0.2206 -0.41296,-0.3026 -0.52327,-0.5232 -0.0688,-0.1376 0,-1.8195 0,-2.0931 0,-1.5699 0,-3.1397 0,-4.7095"
         style="color:#000000;clip-rule:nonzero;display:inline;overflow:visible;visibility:visible;isolation:auto;mix-blend-mode:normal;color-interpolation:sRGB;color-interpolation-filters:linearRGB;solid-color:#000000;solid-opacity:1;fill:none;fill-opacity:1;fill-rule:evenodd;stroke:#000000;stroke-width:1.38269389;stroke-linecap:butt;stroke-linejoin:miter;stroke-miterlimit:4;stroke-dasharray:none;stroke-dashoffset:0;stroke-opacity:1;color-rendering:auto;image-rendering:auto;shape-rendering:auto;text-rendering:auto;enable-background:accumulate" />
      <path
         inkscape:connector-curvature="0"
         id="path5509"
         d="m 581.66673,1155.0059 c 2.22853,-1.296 2.11977,-1.0466 4.1862,-1.0466 0.17442,0 0.34884,0 0.52327,0 0.17442,0 0.36726,0.078 0.52327,0 0.22064,-0.1103 0.30265,-0.4129 0.52328,-0.5233 0.20747,-0.1037 1.46285,0.107 1.56982,0 0.12334,-0.1233 -0.12334,-0.3999 0,-0.5232 0.0168,-0.017 1.44292,0 1.56982,0 0.87213,0 1.74425,0 2.61638,0 0.17442,0 0.39993,0.1233 0.52327,0 0.12334,-0.1234 -0.12334,-0.4 0,-0.5233 0.12334,-0.1233 0.34885,0 0.52328,0 0.17442,0 0.34884,0 0.52327,0 1.04655,0 2.0931,0 3.13965,0 0.17442,0 0.34885,0 0.52327,0 0.17443,0 0.36726,0.078 0.52327,0 0.22064,-0.1103 0.30265,-0.413 0.52328,-0.5233 0.15925,-0.08 1.33416,0 1.56982,0 0.27363,0 1.95551,0.069 2.0931,0 0.22063,-0.1103 0.30264,-0.4129 0.52327,-0.5233 0.32889,-0.1644 1.76421,0.1645 2.0931,0 0.22063,-0.1103 0.30264,-0.4129 0.52328,-0.5232 0.28387,-0.142 1.94991,0.1431 2.09309,0 0.12334,-0.1234 -0.12333,-0.4 0,-0.5233 0.14318,-0.1432 1.80923,0.1419 2.0931,0 0.22063,-0.1103 0.30264,-0.413 0.52328,-0.5233 0.15925,-0.08 1.33416,0 1.56982,0 1.04655,0 2.0931,0 3.13964,0 0.17443,0 0.34885,0 0.52328,0 0.17442,0 0.39994,0.1234 0.52327,0 0.12334,-0.1233 -0.12333,-0.3999 0,-0.5233 0.24668,-0.2466 0.79988,0.2467 1.04655,0 0.12334,-0.1233 -0.12333,-0.3999 0,-0.5232 0.24668,-0.2467 0.73453,0.156 1.04655,0 0.22063,-0.1103 0.30264,-0.413 0.52328,-0.5233 0.15601,-0.078 0.39993,0.1233 0.52327,0 0.12334,-0.1233 -0.12334,-0.3999 0,-0.5233 0.12334,-0.1233 0.36726,0.078 0.52327,0 0.22064,-0.1103 0.30265,-0.4129 0.52328,-0.5233 0.15601,-0.078 0.36726,0.078 0.52327,0 0.22063,-0.1103 0.30265,-0.4129 0.52328,-0.5232 0.31202,-0.156 0.79987,0.2466 1.04655,0 0.12333,-0.1234 -0.12334,-0.4 0,-0.5233 0.24667,-0.2467 0.79987,0.2467 1.04654,0 0.12334,-0.1233 -0.12333,-0.3999 0,-0.5233 0.12334,-0.1233 0.39994,0.1234 0.52328,0 0.12334,-0.1233 -0.12334,-0.3999 0,-0.5233 0.24667,-0.2466 0.73453,0.1561 1.04655,0 0.22063,-0.1103 0.30264,-0.4129 0.52327,-0.5232 0.15601,-0.078 0.39994,0.1233 0.52328,0 0.12333,-0.1234 -0.12334,-0.4 0,-0.5233 0.24667,-0.2467 0.79987,0.2467 1.04655,0 0.12333,-0.1233 -0.12334,-0.3999 0,-0.5233 0.12333,-0.1233 0.39993,0.1234 0.52327,0 0.12334,-0.1233 -0.12334,-0.3999 0,-0.5232 0.12334,-0.1234 0.39994,0.1233 0.52327,0 0.12334,-0.1234 -0.12333,-0.4 0,-0.5233 0.12334,-0.1234 0.36727,0.078 0.52328,0 0.22063,-0.1103 0.30264,-0.413 0.52327,-0.5233 0.15601,-0.078 0.36727,0.078 0.52328,0 0.22063,-0.1103 0.30264,-0.413 0.52327,-0.5233 0.15601,-0.078 0.39994,0.1234 0.52328,0 0.12333,-0.1233 -0.12334,-0.3999 0,-0.5232 0.12333,-0.1234 0.39993,0.1233 0.52327,0 0.12334,-0.1234 -0.12334,-0.4 0,-0.5233 1.08267,-1.0827 -0.0423,1.6544 1.04655,-0.5233 0.078,-0.156 -0.12334,-0.3999 0,-0.5233 0.12334,-0.1233 0.36726,0.078 0.52327,0 0.22064,-0.1103 0.30265,-0.4129 0.52328,-0.5232 0.15601,-0.078 0.39994,0.1233 0.52327,0 0,-1.3954 -0.17442,0.1744 0.52328,-0.5233 0.12333,-0.1234 -0.12334,-0.4 0,-0.5233 0.24667,-0.2467 0.73453,0.156 1.04655,0 0.44126,-0.2206 0.60528,-0.8259 1.04654,-1.0465 0.15601,-0.078 0.39994,0.1233 0.52328,0 0.12334,-0.1234 -0.12334,-0.4 0,-0.5233 0.12334,-0.1234 0.36726,0.078 0.52327,0 0.22064,-0.1103 0.30265,-0.413 0.52328,-0.5233 0.15601,-0.078 0.39994,0.1233 0.52327,0 0.12334,-0.1233 -0.12333,-0.3999 0,-0.5233 0.12334,-0.1233 0.36727,0.078 0.52328,0 0.22063,-0.1103 0.30264,-0.4129 0.52327,-0.5232 0.15601,-0.078 0.36726,0.078 0.52328,0 0.22063,-0.1104 0.30264,-0.413 0.52327,-0.5233 0.15601,-0.078 0.39994,0.1233 0.52327,0 0.12334,-0.1233 -0.12333,-0.4 0,-0.5233 0.12334,-0.1233 0.39994,0.1233 0.52328,0 0.12334,-0.1233 -0.12334,-0.3999 0,-0.5233 0.12334,-0.1233 0.36726,0.078 0.52327,0 0.22063,-0.1103 0.30265,-0.4129 0.52328,-0.5232 0.15601,-0.078 0.39993,0.1233 0.52327,0 0.12334,-0.1234 -0.12334,-0.4 0,-0.5233 0.12334,-0.1233 0.39994,0.1233 0.52328,0 0.12333,-0.1233 -0.12334,-0.3999 0,-0.5233 0.12333,-0.1233 0.36726,0.078 0.52327,0 0.22063,-0.1103 0.30264,-0.4129 0.52327,-0.5233 0.15601,-0.078 0.39994,0.1234 0.52328,0 0.12334,-0.1233 -0.12334,-0.3999 0,-0.5232 0.24667,-0.2467 0.79987,0.2466 1.04655,0 0.12333,-0.1234 -0.12334,-0.4 0,-0.5233 0.12333,-0.1233 0.39994,0.1233 0.52327,0 0.12334,-0.1233 -0.12333,-0.3999 0,-0.5233 0.24668,-0.2467 0.79988,0.2467 1.04655,0 0.12334,-0.1233 -0.12334,-0.3999 0,-0.5233 0.24667,-0.2466 0.79988,0.2467 1.04655,0 0.12334,-0.1233 -0.12334,-0.3999 0,-0.5232 0.24667,-0.2467 0.79987,0.2466 1.04655,0 0.12334,-0.1234 -0.12334,-0.4 0,-0.5233 0.24667,-0.2467 0.79987,0.2467 1.04655,0 0.12333,-0.1233 -0.12334,-0.3999 0,-0.5233 0.24667,-0.2467 0.79987,0.2467 1.04655,0 0.12333,-0.1233 -0.12334,-0.3999 0,-0.5233 0.26163,-0.2616 1.30818,0.2617 1.56982,0 0.12334,-0.1233 -0.12334,-0.3999 0,-0.5232 0.24667,-0.2467 1.04655,0.3488 1.04655,0 0,-0.6466 -0.73383,-0.5233 -1.04655,-0.5233"
         style="color:#000000;clip-rule:nonzero;display:inline;overflow:visible;visibility:visible;isolation:auto;mix-blend-mode:normal;color-interpolation:sRGB;color-interpolation-filters:linearRGB;solid-color:#000000;solid-opacity:1;fill:none;fill-opacity:1;fill-rule:evenodd;stroke:#000000;stroke-width:1.38269389;stroke-linecap:butt;stroke-linejoin:miter;stroke-miterlimit:4;stroke-dasharray:none;stroke-dashoffset:0;stroke-opacity:1;color-rendering:auto;image-rendering:auto;shape-rendering:auto;text-rendering:auto;enable-background:accumulate" />
    </g>
  </g>
</svg>
