<?xml version="1.0" encoding="UTF-8" standalone="no"?>
<!-- Created with Inkscape (http://www.inkscape.org/) -->

<svg
   xmlns:dc="http://purl.org/dc/elements/1.1/"
   xmlns:cc="http://creativecommons.org/ns#"
   xmlns:rdf="http://www.w3.org/1999/02/22-rdf-syntax-ns#"
   xmlns:svg="http://www.w3.org/2000/svg"
   xmlns="http://www.w3.org/2000/svg"
   xmlns:sodipodi="http://sodipodi.sourceforge.net/DTD/sodipodi-0.dtd"
   xmlns:inkscape="http://www.inkscape.org/namespaces/inkscape"
   width="177.16534"
   height="106.29497"
   id="svg2"
   version="1.1"
   inkscape:version="0.91 r13725"
   sodipodi:docname="ticeps_dip.svg">
  <defs
     id="defs4" />
  <sodipodi:namedview
     id="base"
     pagecolor="#ffffff"
     bordercolor="#666666"
     borderopacity="1.0"
     inkscape:pageopacity="0.0"
     inkscape:pageshadow="2"
     inkscape:zoom="1.4769629"
     inkscape:cx="-28.799917"
     inkscape:cy="107.82507"
     inkscape:document-units="cm"
     inkscape:current-layer="layer1"
     showgrid="false"
     fit-margin-top="0"
     fit-margin-left="0"
     fit-margin-right="0"
     fit-margin-bottom="0"
     inkscape:window-width="1330"
     inkscape:window-height="747"
     inkscape:window-x="36"
     inkscape:window-y="21"
     inkscape:window-maximized="1"
     units="cm" />
  <metadata
     id="metadata7">
    <rdf:RDF>
      <cc:Work
         rdf:about="">
        <dc:format>image/svg+xml</dc:format>
        <dc:type
           rdf:resource="http://purl.org/dc/dcmitype/StillImage" />
        <dc:title></dc:title>
      </cc:Work>
    </rdf:RDF>
  </metadata>
  <g
     inkscape:label="Layer 1"
     inkscape:groupmode="layer"
     id="layer1"
     transform="translate(-32.228633,-1064.9324)">
    <path
       style="fill:#000000"
       d="m -57.278716,1051.1237 c -5.81246,0.025 -10.10613,2.0882 -11.97653,5.7544 -1.15081,2.2558 -1.50517,7.4532 -0.84339,12.4004 0.81775,6.1132 2.21042,8.7004 5.82684,10.8278 l 1.75486,1.0324 0.0461,0.4525 c 3.31292,0.1187 3.84977,0.1282 6.91621,0.2394 0.42564,-0.189 0.98015,-0.3267 1.79439,-0.4569 2.41596,-0.3863 5.30591,-3.3578 6.63069,-6.8197 2.40977,-6.2971 1.13775,-16.131 -2.66852,-20.6344 -1.91256,-2.2628 -3.38475,-2.8138 -7.48067,-2.7959 z"
       id="path3082"
       inkscape:connector-curvature="0" />
    <g
       id="g4714"
       transform="matrix(1.2283701,0,0,1.2283701,573.74921,-267.47119)">
      <g
         transform="translate(0,26.776268)"
         id="g4674">
        <path
           inkscape:connector-curvature="0"
           id="path4222"
           d="m -409.73145,1074.5706 c 1.73674,-4.6805 10.47638,-2.6214 8.86035,2.5709 -0.44682,3.574 -4.35996,8.06 -8.11152,5.7883 -1.86278,-2.1344 -0.77844,-5.7527 -0.74883,-8.3592 z"
           style="fill:#000000" />
        <path
           inkscape:connector-curvature="0"
           id="path4516"
           d="m -410.85534,1084.0981 c 4.80548,-0.053 9.60769,-0.075 14.34853,0.6576 3.15327,-0.039 6.28947,-0.3371 9.45262,-0.2325 -0.64436,3.0082 -0.66489,6.2476 -1.06255,9.325 -0.0135,2.3224 0.15307,4.9326 -1.19831,6.8851 0.434,-0.9396 -1.65451,-1.4466 -0.92679,-1.9719"
           style="color:#000000;clip-rule:nonzero;display:inline;overflow:visible;visibility:visible;opacity:1;isolation:auto;mix-blend-mode:normal;color-interpolation:sRGB;color-interpolation-filters:linearRGB;solid-color:#000000;solid-opacity:1;fill:none;fill-opacity:1;fill-rule:evenodd;stroke:#000000;stroke-width:1.77165353;stroke-linecap:butt;stroke-linejoin:miter;stroke-miterlimit:4;stroke-dasharray:none;stroke-dashoffset:0;stroke-opacity:1;color-rendering:auto;image-rendering:auto;shape-rendering:auto;text-rendering:auto;enable-background:accumulate" />
        <path
           inkscape:connector-curvature="0"
           id="path4520"
           d="m -409.36777,1084.3107 c 4.10483,-0.903 6.3774,1.1101 5.52527,5.1372 -0.1769,1.9355 0.38579,4.0556 -0.34473,5.857 -1.14132,0.3875 -2.50222,4.0749 -0.0803,3.0314"
           style="color:#000000;clip-rule:nonzero;display:inline;overflow:visible;visibility:visible;opacity:1;isolation:auto;mix-blend-mode:normal;color-interpolation:sRGB;color-interpolation-filters:linearRGB;solid-color:#000000;solid-opacity:1;fill:none;fill-opacity:1;fill-rule:evenodd;stroke:#000000;stroke-width:1.77165353;stroke-linecap:butt;stroke-linejoin:miter;stroke-miterlimit:4;stroke-dasharray:none;stroke-dashoffset:0;stroke-opacity:1;color-rendering:auto;image-rendering:auto;shape-rendering:auto;text-rendering:auto;enable-background:accumulate" />
        <path
           inkscape:connector-curvature="0"
           id="path4522"
           d="m -405.33007,1084.9482 c 1.97844,5.9937 2.86375,12.2713 3.82518,18.4884"
           style="color:#000000;clip-rule:nonzero;display:inline;overflow:visible;visibility:visible;opacity:1;isolation:auto;mix-blend-mode:normal;color-interpolation:sRGB;color-interpolation-filters:linearRGB;solid-color:#000000;solid-opacity:1;fill:none;fill-opacity:1;fill-rule:evenodd;stroke:#000000;stroke-width:1.77165353;stroke-linecap:butt;stroke-linejoin:miter;stroke-miterlimit:4;stroke-dasharray:none;stroke-dashoffset:0;stroke-opacity:1;color-rendering:auto;image-rendering:auto;shape-rendering:auto;text-rendering:auto;enable-background:accumulate" />
        <path
           inkscape:connector-curvature="0"
           id="path4524"
           d="m -402.77995,1104.7116 c -0.25471,3.5434 2.64299,6.4358 1.48754,10.4984 -0.54186,3.2539 -0.17666,6.1116 3.72429,5.0149 2.60365,0.1188 5.28571,-0.3809 7.7678,0.5957 3.55052,-0.3977 4.29228,2.1151 4.93279,4.7162 l 0.16138,-0.3224 -0.0104,-0.7393"
           style="color:#000000;clip-rule:nonzero;display:inline;overflow:visible;visibility:visible;opacity:1;isolation:auto;mix-blend-mode:normal;color-interpolation:sRGB;color-interpolation-filters:linearRGB;solid-color:#000000;solid-opacity:1;fill:none;fill-opacity:1;fill-rule:evenodd;stroke:#000000;stroke-width:1.77165353;stroke-linecap:butt;stroke-linejoin:miter;stroke-miterlimit:4;stroke-dasharray:none;stroke-dashoffset:0;stroke-opacity:1;color-rendering:auto;image-rendering:auto;shape-rendering:auto;text-rendering:auto;enable-background:accumulate" />
        <path
           inkscape:connector-curvature="0"
           id="path4526"
           d="m -399.37978,1104.9242 c 0.97922,3.2816 0.58363,6.7778 0.85004,10.1562 0.26798,2.1076 -0.36716,4.1346 -0.73571,6.0906 3.97597,-1.3801 8.62231,-1.3256 12.84879,-2.2212"
           style="color:#000000;clip-rule:nonzero;display:inline;overflow:visible;visibility:visible;opacity:1;isolation:auto;mix-blend-mode:normal;color-interpolation:sRGB;color-interpolation-filters:linearRGB;solid-color:#000000;solid-opacity:1;fill:none;fill-opacity:1;fill-rule:evenodd;stroke:#000000;stroke-width:1.77165353;stroke-linecap:butt;stroke-linejoin:miter;stroke-miterlimit:4;stroke-dasharray:none;stroke-dashoffset:0;stroke-opacity:1;color-rendering:auto;image-rendering:auto;shape-rendering:auto;text-rendering:auto;enable-background:accumulate" />
        <path
           inkscape:connector-curvature="0"
           id="path4528"
           d="m -397.6797,1144.4511 c 0,-14.5924 0,-29.1848 0,-43.7772 5.40308,-1.4477 10.80614,-2.8955 16.20922,-4.3432"
           style="color:#000000;clip-rule:nonzero;display:inline;overflow:visible;visibility:visible;opacity:1;isolation:auto;mix-blend-mode:normal;color-interpolation:sRGB;color-interpolation-filters:linearRGB;solid-color:#000000;solid-opacity:1;fill:none;fill-opacity:1;fill-rule:evenodd;stroke:#000080;stroke-width:1.38330531;stroke-linecap:butt;stroke-linejoin:miter;stroke-miterlimit:4;stroke-dasharray:none;stroke-dashoffset:0;stroke-opacity:1;color-rendering:auto;image-rendering:auto;shape-rendering:auto;text-rendering:auto;enable-background:accumulate" />
        <path
           inkscape:connector-curvature="0"
           id="path4647"
           d="m -417.23065,1143.6011 c 0,-14.5924 0,-29.1848 0,-43.7772 5.40308,-1.4477 10.80614,-2.8955 16.20922,-4.3432"
           style="color:#000000;clip-rule:nonzero;display:inline;overflow:visible;visibility:visible;opacity:1;isolation:auto;mix-blend-mode:normal;color-interpolation:sRGB;color-interpolation-filters:linearRGB;solid-color:#000000;solid-opacity:1;fill:none;fill-opacity:1;fill-rule:evenodd;stroke:#000080;stroke-width:1.38330531;stroke-linecap:butt;stroke-linejoin:miter;stroke-miterlimit:4;stroke-dasharray:none;stroke-dashoffset:0;stroke-opacity:1;color-rendering:auto;image-rendering:auto;shape-rendering:auto;text-rendering:auto;enable-background:accumulate" />
      </g>
      <g
         transform="translate(-90.529387,26.776268)"
         id="g4665">
        <path
           inkscape:connector-curvature="0"
           id="path4649"
           d="m -253.74889,1060.5449 c 2.46345,-5.7331 12.25945,-1.1198 8.29459,4.5376 -0.98685,5.2755 -10.03972,6.163 -8.54891,-0.4403 -0.007,-1.369 0.0445,-2.7426 0.25432,-4.0973 z"
           style="fill:#000000" />
        <path
           inkscape:connector-curvature="0"
           id="path4651"
           d="m -246.79739,1144.4511 c 0,-14.5924 0,-29.1848 0,-43.7772 5.40308,-1.4477 10.80614,-2.8955 16.20922,-4.3432"
           style="color:#000000;clip-rule:nonzero;display:inline;overflow:visible;visibility:visible;opacity:1;isolation:auto;mix-blend-mode:normal;color-interpolation:sRGB;color-interpolation-filters:linearRGB;solid-color:#000000;solid-opacity:1;fill:none;fill-opacity:1;fill-rule:evenodd;stroke:#000080;stroke-width:1.38330531;stroke-linecap:butt;stroke-linejoin:miter;stroke-miterlimit:4;stroke-dasharray:none;stroke-dashoffset:0;stroke-opacity:1;color-rendering:auto;image-rendering:auto;shape-rendering:auto;text-rendering:auto;enable-background:accumulate" />
        <path
           inkscape:connector-curvature="0"
           id="path4653"
           d="m -266.34834,1143.6011 c 0,-14.5924 0,-29.1848 0,-43.7772 5.40308,-1.4477 10.80614,-2.8955 16.20922,-4.3432"
           style="color:#000000;clip-rule:nonzero;display:inline;overflow:visible;visibility:visible;opacity:1;isolation:auto;mix-blend-mode:normal;color-interpolation:sRGB;color-interpolation-filters:linearRGB;solid-color:#000000;solid-opacity:1;fill:none;fill-opacity:1;fill-rule:evenodd;stroke:#000080;stroke-width:1.38330531;stroke-linecap:butt;stroke-linejoin:miter;stroke-miterlimit:4;stroke-dasharray:none;stroke-dashoffset:0;stroke-opacity:1;color-rendering:auto;image-rendering:auto;shape-rendering:auto;text-rendering:auto;enable-background:accumulate" />
        <path
           inkscape:connector-curvature="0"
           id="path4655"
           d="m -254.0309,1097.2958 c -3.85329,-1.9683 0.0919,-8.2481 -0.18887,-12.0536 0.85767,-4.5455 -0.87845,-8.9239 -0.42581,-13.4754 -0.49941,-1.8523 3.34421,-0.5117 4.81148,-0.9181 2.97767,-0.068 5.97055,0.049 8.8765,0.7513 1.47343,4.6605 3.56253,9.0836 3.59176,14.1432 1.33224,4.3492 0.41099,9.4246 2.27245,13.2011 -0.2611,1.3166 -1.38535,1.9134 -2.70859,1.6574"
           style="color:#000000;clip-rule:nonzero;display:inline;overflow:visible;visibility:visible;opacity:1;isolation:auto;mix-blend-mode:normal;color-interpolation:sRGB;color-interpolation-filters:linearRGB;solid-color:#000000;solid-opacity:1;fill:none;fill-opacity:1;fill-rule:evenodd;stroke:#000000;stroke-width:1.77165353;stroke-linecap:butt;stroke-linejoin:miter;stroke-miterlimit:4;stroke-dasharray:none;stroke-dashoffset:0;stroke-opacity:1;color-rendering:auto;image-rendering:auto;shape-rendering:auto;text-rendering:auto;enable-background:accumulate" />
        <path
           inkscape:connector-curvature="0"
           id="path4657"
           d="m -249.67315,1071.7503 c 0.51804,5.1947 0.71685,10.4063 1.05187,15.6278 0.55516,2.8456 1.07787,5.678 1.35241,8.5653"
           style="color:#000000;clip-rule:nonzero;display:inline;overflow:visible;visibility:visible;opacity:1;isolation:auto;mix-blend-mode:normal;color-interpolation:sRGB;color-interpolation-filters:linearRGB;solid-color:#000000;solid-opacity:1;fill:none;fill-opacity:1;fill-rule:evenodd;stroke:#000000;stroke-width:1.77165353;stroke-linecap:butt;stroke-linejoin:miter;stroke-miterlimit:4;stroke-dasharray:none;stroke-dashoffset:0;stroke-opacity:1;color-rendering:auto;image-rendering:auto;shape-rendering:auto;text-rendering:auto;enable-background:accumulate" />
        <path
           inkscape:connector-curvature="0"
           id="path4659"
           d="m -243.51218,1095.4926 c 1.21452,4.2984 1.24628,8.8535 1.92239,13.2613 -0.94346,7.1487 6.24218,-1.2321 8.5111,-0.2093 -0.53492,1.2628 -0.016,2.6244 -0.065,3.9282"
           style="color:#000000;clip-rule:nonzero;display:inline;overflow:visible;visibility:visible;opacity:1;isolation:auto;mix-blend-mode:normal;color-interpolation:sRGB;color-interpolation-filters:linearRGB;solid-color:#000000;solid-opacity:1;fill:none;fill-opacity:1;fill-rule:evenodd;stroke:#000000;stroke-width:1.77165353;stroke-linecap:butt;stroke-linejoin:miter;stroke-miterlimit:4;stroke-dasharray:none;stroke-dashoffset:0;stroke-opacity:1;color-rendering:auto;image-rendering:auto;shape-rendering:auto;text-rendering:auto;enable-background:accumulate" />
        <path
           inkscape:connector-curvature="0"
           id="path4663"
           d="m -251.17582,1096.6947 c -0.0858,4.5051 1.49436,9.1301 2.78408,13.0998 5.15261,0.4402 10.50094,1.1815 15.49229,2.0889 -0.0919,2.4049 2.25037,4.0176 3.06161,6.1493"
           style="color:#000000;clip-rule:nonzero;display:inline;overflow:visible;visibility:visible;opacity:1;isolation:auto;mix-blend-mode:normal;color-interpolation:sRGB;color-interpolation-filters:linearRGB;solid-color:#000000;solid-opacity:1;fill:none;fill-opacity:1;fill-rule:evenodd;stroke:#000000;stroke-width:1.77165353;stroke-linecap:butt;stroke-linejoin:miter;stroke-miterlimit:4;stroke-dasharray:none;stroke-dashoffset:0;stroke-opacity:1;color-rendering:auto;image-rendering:auto;shape-rendering:auto;text-rendering:auto;enable-background:accumulate" />
      </g>
    </g>
  </g>
</svg>
