<?xml version="1.0" encoding="UTF-8" standalone="no"?>
<!-- Created with Inkscape (http://www.inkscape.org/) -->

<svg
   xmlns:dc="http://purl.org/dc/elements/1.1/"
   xmlns:cc="http://creativecommons.org/ns#"
   xmlns:rdf="http://www.w3.org/1999/02/22-rdf-syntax-ns#"
   xmlns:svg="http://www.w3.org/2000/svg"
   xmlns="http://www.w3.org/2000/svg"
   xmlns:xlink="http://www.w3.org/1999/xlink"
   xmlns:sodipodi="http://sodipodi.sourceforge.net/DTD/sodipodi-0.dtd"
   xmlns:inkscape="http://www.inkscape.org/namespaces/inkscape"
   width="177.16534"
   height="106.29497"
   id="svg2"
   version="1.1"
   inkscape:version="0.91 r13725"
   sodipodi:docname="triceps_press.svg">
  <defs
     id="defs4" />
  <sodipodi:namedview
     id="base"
     pagecolor="#ffffff"
     bordercolor="#666666"
     borderopacity="1.0"
     inkscape:pageopacity="0.0"
     inkscape:pageshadow="2"
     inkscape:zoom="1.9698829"
     inkscape:cx="19.206215"
     inkscape:cy="150.08431"
     inkscape:document-units="cm"
     inkscape:current-layer="layer1"
     showgrid="false"
     fit-margin-top="0"
     fit-margin-left="0"
     fit-margin-right="0"
     fit-margin-bottom="0"
     inkscape:window-width="1330"
     inkscape:window-height="747"
     inkscape:window-x="36"
     inkscape:window-y="21"
     inkscape:window-maximized="1"
     units="cm" />
  <metadata
     id="metadata7">
    <rdf:RDF>
      <cc:Work
         rdf:about="">
        <dc:format>image/svg+xml</dc:format>
        <dc:type
           rdf:resource="http://purl.org/dc/dcmitype/StillImage" />
        <dc:title></dc:title>
      </cc:Work>
    </rdf:RDF>
  </metadata>
  <g
     inkscape:label="Layer 1"
     inkscape:groupmode="layer"
     id="layer1"
     transform="translate(-32.228633,-1064.9324)">
    <path
       style="color:#000000;clip-rule:nonzero;display:inline;overflow:visible;visibility:visible;opacity:1;isolation:auto;mix-blend-mode:normal;color-interpolation:sRGB;color-interpolation-filters:linearRGB;solid-color:#000000;solid-opacity:1;fill:none;fill-opacity:1;fill-rule:evenodd;stroke:#000000;stroke-width:1.38269389;stroke-linecap:butt;stroke-linejoin:miter;stroke-miterlimit:4;stroke-dasharray:none;stroke-dashoffset:0;stroke-opacity:1;color-rendering:auto;image-rendering:auto;shape-rendering:auto;text-rendering:auto;enable-background:accumulate"
       d="m 239.36119,1011.8292 c 0,0.3641 -0.0883,0.7391 0,1.0924 0.0222,0.088 0.20873,-0.064 0.27311,0 0.0845,0.085 -0.0846,1.2809 0,1.3654 0.0643,0.064 0.2087,-0.064 0.27308,0 0.0123,0.012 0,1.2367 0,1.3655 0,0.091 -0.0644,0.2087 0,0.2731 0.0644,0.064 0.20873,-0.064 0.2731,0 0.0643,0.064 0,0.1821 0,0.2731 0,0.4552 0,0.9103 0,1.3655 0,0.091 -0.0644,0.2087 0,0.2731 0.0643,0.064 0.20871,-0.064 0.27309,0 0.009,0.01 0,0.753 0,0.8192 0,0.8193 0,1.6386 0,2.4579 0,0.2312 -0.0489,0.9456 0,1.0924 0.0407,0.1221 0.21551,0.1579 0.2731,0.2731 0.0407,0.081 0,0.182 0,0.2731 0,0.091 0,0.182 0,0.273 0,0.3266 -0.0594,1.4604 0,1.6386 0.0643,0.1931 0.22371,0.3487 0.27308,0.5462 0.0662,0.2649 0,0.5462 0,0.8193 0,0.5462 0,1.0924 0,1.6385 0,0.065 -0.0306,1.0312 0,1.0924 0.0576,0.1152 0.21552,0.158 0.27311,0.2731 0.0829,0.1658 -0.0829,1.4728 0,1.6386 0.0576,0.1151 0.21552,0.1579 0.27308,0.2731 0.0861,0.1723 -0.0861,1.1932 0,1.3654 0.0576,0.1152 0.21552,0.158 0.27311,0.2731 0.0866,0.1733 -0.0887,1.1881 0,1.3655 0.0576,0.1152 0.21552,0.158 0.27308,0.2731 0.0813,0.1626 -0.0766,1.1355 0,1.3655 0.0644,0.1931 0.20873,0.3531 0.27311,0.5462 0.0808,0.2423 -0.0894,1.1866 0,1.3654 0.0576,0.1152 0.21552,0.158 0.27308,0.2731 0.0407,0.081 0,0.1821 0,0.2731 0,0.091 0,0.1821 0,0.2731 0,0.4552 0,0.9103 0,1.3655"
       id="path6158"
       inkscape:connector-curvature="0" />
    <g
       id="g5334"
       transform="matrix(0.98164239,0,0,0.98164239,8.6430504,157.53785)">
      <path
         inkscape:connector-curvature="0"
         id="path5222"
         d="m 87.304521,950.24955 c -0.55629,2.99718 -8.2008,4.42098 -7.61122,-1.47779 -3.45777,-5.8622 6.34342,-13.51715 9.53836,-6.32775 1.10784,2.17515 1.33447,7.54961 -1.92714,7.80554 z"
         style="fill:#000000;fill-rule:evenodd;stroke:#000000;stroke-width:0.2632795px;stroke-linecap:butt;stroke-linejoin:miter;stroke-opacity:1" />
      <path
         inkscape:connector-curvature="0"
         id="path5224"
         d="m 98.531321,926.19213 c -5.11153,2.82948 -4.43362,10.41645 -7.19753,15.34832 -2.56043,5.12357 2.21037,12.15731 0.74675,15.65304 -4.75925,-1.17389 -12.98406,1.00089 -12.38679,-6.22614 -0.88768,-8.08187 3.9011,-15.30518 7.68795,-22.03119 1.2705,-2.22848 4.00385,-0.50738 5.80353,-0.33829"
         style="color:#000000;clip-rule:nonzero;display:inline;overflow:visible;visibility:visible;opacity:1;isolation:auto;mix-blend-mode:normal;color-interpolation:sRGB;color-interpolation-filters:linearRGB;solid-color:#000000;solid-opacity:1;fill:none;fill-opacity:1;fill-rule:evenodd;stroke:#000000;stroke-width:1.38269389;stroke-linecap:butt;stroke-linejoin:miter;stroke-miterlimit:4;stroke-dasharray:none;stroke-dashoffset:0;stroke-opacity:1;color-rendering:auto;image-rendering:auto;shape-rendering:auto;text-rendering:auto;enable-background:accumulate" />
      <path
         inkscape:connector-curvature="0"
         id="path5226"
         d="m 85.968001,952.38799 c 1.58471,6.06324 0.40828,12.43008 -0.14341,18.57495 -0.49414,5.25556 -2.29033,12.0676 -1.19311,16.44196"
         style="color:#000000;clip-rule:nonzero;display:inline;overflow:visible;visibility:visible;opacity:1;isolation:auto;mix-blend-mode:normal;color-interpolation:sRGB;color-interpolation-filters:linearRGB;solid-color:#000000;solid-opacity:1;fill:none;fill-opacity:1;fill-rule:evenodd;stroke:#000000;stroke-width:1.38269389;stroke-linecap:butt;stroke-linejoin:miter;stroke-miterlimit:4;stroke-dasharray:none;stroke-dashoffset:0;stroke-opacity:1;color-rendering:auto;image-rendering:auto;shape-rendering:auto;text-rendering:auto;enable-background:accumulate" />
      <path
         inkscape:connector-curvature="0"
         id="path5228"
         d="m 89.442961,986.87029 c -0.44338,7.13528 -0.88245,14.53231 1.58824,21.33561 1.27937,6.526 1.50227,13.2064 1.11345,19.7932 -1.4462,1.4827 -4.682,3.0697 -5.37474,4.313"
         style="color:#000000;clip-rule:nonzero;display:inline;overflow:visible;visibility:visible;opacity:1;isolation:auto;mix-blend-mode:normal;color-interpolation:sRGB;color-interpolation-filters:linearRGB;solid-color:#000000;solid-opacity:1;fill:none;fill-opacity:1;fill-rule:evenodd;stroke:#000000;stroke-width:1.38269389;stroke-linecap:butt;stroke-linejoin:miter;stroke-miterlimit:4;stroke-dasharray:none;stroke-dashoffset:0;stroke-opacity:1;color-rendering:auto;image-rendering:auto;shape-rendering:auto;text-rendering:auto;enable-background:accumulate" />
      <path
         inkscape:connector-curvature="0"
         id="path5232"
         d="m 81.156521,982.59342 c 1.23284,7.59769 -0.25484,15.46546 2.01473,22.95418 0.59267,6.583 3.24427,13.9692 1.17401,20.2206 -2.29241,1.5423 -4.80996,2.869 -6.66371,4.4055"
         style="color:#000000;clip-rule:nonzero;display:inline;overflow:visible;visibility:visible;opacity:1;isolation:auto;mix-blend-mode:normal;color-interpolation:sRGB;color-interpolation-filters:linearRGB;solid-color:#000000;solid-opacity:1;fill:none;fill-opacity:1;fill-rule:evenodd;stroke:#000000;stroke-width:1.38269389;stroke-linecap:butt;stroke-linejoin:miter;stroke-miterlimit:4;stroke-dasharray:none;stroke-dashoffset:0;stroke-opacity:1;color-rendering:auto;image-rendering:auto;shape-rendering:auto;text-rendering:auto;enable-background:accumulate" />
      <path
         inkscape:connector-curvature="0"
         id="path5234"
         d="m 150.12113,939.82467 c -3.42561,0.28888 -7.10635,-0.62856 -10.34265,0.55541 -4.243,5.40518 2.90629,9.61983 4.64541,13.89311 -5.51697,-0.99723 -14.33856,0.74728 -14.77884,-7.33519 -2.96842,-8.23937 7.25536,-9.11848 12.87816,-8.95807 -0.31146,0.27522 2.61067,-0.32852 1.44991,-0.2937"
         style="color:#000000;clip-rule:nonzero;display:inline;overflow:visible;visibility:visible;opacity:1;isolation:auto;mix-blend-mode:normal;color-interpolation:sRGB;color-interpolation-filters:linearRGB;solid-color:#000000;solid-opacity:1;fill:none;fill-opacity:1;fill-rule:evenodd;stroke:#000000;stroke-width:1.38269389;stroke-linecap:butt;stroke-linejoin:miter;stroke-miterlimit:4;stroke-dasharray:none;stroke-dashoffset:0;stroke-opacity:1;color-rendering:auto;image-rendering:auto;shape-rendering:auto;text-rendering:auto;enable-background:accumulate" />
      <path
         inkscape:connector-curvature="0"
         id="path5238"
         d="m 134.61746,935.01318 c 8.83533,-2.62678 10.85421,10.53413 2.94035,13.09794 -4.8965,4.77624 -6.67163,-3.81011 -6.14801,-7.61314 -0.29342,-2.27784 0.91392,-4.75179 3.20766,-5.4848 z"
         style="fill:#000000;fill-rule:evenodd;stroke:#000000;stroke-width:0.2632795px;stroke-linecap:butt;stroke-linejoin:miter;stroke-opacity:1" />
      <path
         inkscape:connector-curvature="0"
         id="path5240"
         d="m 137.55781,948.91303 c 0.89085,7.42882 -1.45109,14.75522 -1.79714,22.16143 -1.19253,3.86412 -0.12588,8.56539 -0.87591,12.05357"
         style="color:#000000;clip-rule:nonzero;display:inline;overflow:visible;visibility:visible;opacity:1;isolation:auto;mix-blend-mode:normal;color-interpolation:sRGB;color-interpolation-filters:linearRGB;solid-color:#000000;solid-opacity:1;fill:none;fill-opacity:1;fill-rule:evenodd;stroke:#000000;stroke-width:1.38269389;stroke-linecap:butt;stroke-linejoin:miter;stroke-miterlimit:4;stroke-dasharray:none;stroke-dashoffset:0;stroke-opacity:1;color-rendering:auto;image-rendering:auto;shape-rendering:auto;text-rendering:auto;enable-background:accumulate" />
      <path
         inkscape:connector-curvature="0"
         id="path5242"
         d="m 139.16164,982.59342 c 1.05049,5.81214 0.21658,11.88579 1.40002,17.74708 0.89654,7.9645 2.11537,15.9067 1.80763,23.9524 -1.79638,2.5364 -4.81468,3.7196 -6.68261,6.1481"
         style="color:#000000;clip-rule:nonzero;display:inline;overflow:visible;visibility:visible;opacity:1;isolation:auto;mix-blend-mode:normal;color-interpolation:sRGB;color-interpolation-filters:linearRGB;solid-color:#000000;solid-opacity:1;fill:none;fill-opacity:1;fill-rule:evenodd;stroke:#000000;stroke-width:1.38269389;stroke-linecap:butt;stroke-linejoin:miter;stroke-miterlimit:4;stroke-dasharray:none;stroke-dashoffset:0;stroke-opacity:1;color-rendering:auto;image-rendering:auto;shape-rendering:auto;text-rendering:auto;enable-background:accumulate" />
      <path
         inkscape:connector-curvature="0"
         id="path5244"
         d="m 131.94441,982.59342 c 1.30066,6.31128 1.67882,12.8887 3.20766,19.21978 1.27508,5.6396 1.10542,11.3926 1.06921,17.1337 1.93968,5.0908 -4.78727,5.4626 -6.94992,8.5537"
         style="color:#000000;clip-rule:nonzero;display:inline;overflow:visible;visibility:visible;opacity:1;isolation:auto;mix-blend-mode:normal;color-interpolation:sRGB;color-interpolation-filters:linearRGB;solid-color:#000000;solid-opacity:1;fill:none;fill-opacity:1;fill-rule:evenodd;stroke:#000000;stroke-width:1.38269389;stroke-linecap:butt;stroke-linejoin:miter;stroke-miterlimit:4;stroke-dasharray:none;stroke-dashoffset:0;stroke-opacity:1;color-rendering:auto;image-rendering:auto;shape-rendering:auto;text-rendering:auto;enable-background:accumulate" />
      <g
         transform="matrix(0.25553982,-0.96679853,0.96679853,0.25553982,-802.49734,716.51391)"
         id="g5307">
        <path
           style="color:#000000;clip-rule:nonzero;display:inline;overflow:visible;visibility:visible;opacity:1;isolation:auto;mix-blend-mode:normal;color-interpolation:sRGB;color-interpolation-filters:linearRGB;solid-color:#000000;solid-opacity:1;fill:#000080;fill-opacity:1;fill-rule:evenodd;stroke:#000080;stroke-width:1.04237795;stroke-linecap:butt;stroke-linejoin:miter;stroke-miterlimit:4;stroke-dasharray:none;stroke-dashoffset:0;stroke-opacity:1;marker:none;color-rendering:auto;image-rendering:auto;shape-rendering:auto;text-rendering:auto;enable-background:accumulate"
           d="m 28.010258,922.32249 c -2.4856,11.1094 -10.86083,-9.1015 -0.66526,-2.5734 l 0.55371,1.2384 0.11155,1.335 0,0 z"
           id="use5043-9"
           inkscape:connector-curvature="0" />
        <path
           style="color:#000000;clip-rule:nonzero;display:inline;overflow:visible;visibility:visible;opacity:1;isolation:auto;mix-blend-mode:normal;color-interpolation:sRGB;color-interpolation-filters:linearRGB;solid-color:#000000;solid-opacity:1;fill:#000080;fill-opacity:1;fill-rule:evenodd;stroke:#000080;stroke-width:1.04237795;stroke-linecap:butt;stroke-linejoin:miter;stroke-miterlimit:4;stroke-dasharray:none;stroke-dashoffset:0;stroke-opacity:1;marker:none;color-rendering:auto;image-rendering:auto;shape-rendering:auto;text-rendering:auto;enable-background:accumulate"
           d="m 20.016968,924.40299 c 0.71108,-0.3092 3.55536,-1.5457 4.26643,-1.8549"
           id="use5045-2"
           inkscape:connector-curvature="0" />
        <path
           style="color:#000000;clip-rule:nonzero;display:inline;overflow:visible;visibility:visible;opacity:1;isolation:auto;mix-blend-mode:normal;color-interpolation:sRGB;color-interpolation-filters:linearRGB;solid-color:#000000;solid-opacity:1;fill:#000080;fill-opacity:1;fill-rule:evenodd;stroke:#000080;stroke-width:1.04237795;stroke-linecap:butt;stroke-linejoin:miter;stroke-miterlimit:4;stroke-dasharray:none;stroke-dashoffset:0;stroke-opacity:1;marker:none;color-rendering:auto;image-rendering:auto;shape-rendering:auto;text-rendering:auto;enable-background:accumulate"
           d="m 22.632418,924.15869 c -2.45986,11.1021 -10.89224,-9.0741 -0.66528,-2.5748 l 0.56614,1.2328 0.0991,1.342 z"
           id="use5047-8"
           inkscape:connector-curvature="0" />
      </g>
      <use
         height="100%"
         width="100%"
         transform="translate(51.272083,11.675821)"
         id="use5312"
         xlink:href="#g5307"
         y="0"
         x="0" />
    </g>
  </g>
</svg>
