<?xml version="1.0" encoding="UTF-8" standalone="no"?>
<!-- Created with Inkscape (http://www.inkscape.org/) -->

<svg
   xmlns:dc="http://purl.org/dc/elements/1.1/"
   xmlns:cc="http://creativecommons.org/ns#"
   xmlns:rdf="http://www.w3.org/1999/02/22-rdf-syntax-ns#"
   xmlns:svg="http://www.w3.org/2000/svg"
   xmlns="http://www.w3.org/2000/svg"
   xmlns:sodipodi="http://sodipodi.sourceforge.net/DTD/sodipodi-0.dtd"
   xmlns:inkscape="http://www.inkscape.org/namespaces/inkscape"
   width="177.16534"
   height="106.29497"
   id="svg2"
   version="1.1"
   inkscape:version="0.91 r13725"
   sodipodi:docname="triceps_dip_on_chair.svg">
  <defs
     id="defs4" />
  <sodipodi:namedview
     id="base"
     pagecolor="#ffffff"
     bordercolor="#666666"
     borderopacity="1.0"
     inkscape:pageopacity="0.0"
     inkscape:pageshadow="2"
     inkscape:zoom="1.3513117"
     inkscape:cx="201.93034"
     inkscape:cy="11.422562"
     inkscape:document-units="cm"
     inkscape:current-layer="layer1"
     showgrid="false"
     fit-margin-top="0"
     fit-margin-left="0"
     fit-margin-right="0"
     fit-margin-bottom="0"
     inkscape:window-width="1330"
     inkscape:window-height="747"
     inkscape:window-x="36"
     inkscape:window-y="21"
     inkscape:window-maximized="1"
     units="cm" />
  <metadata
     id="metadata7">
    <rdf:RDF>
      <cc:Work
         rdf:about="">
        <dc:format>image/svg+xml</dc:format>
        <dc:type
           rdf:resource="http://purl.org/dc/dcmitype/StillImage" />
        <dc:title></dc:title>
      </cc:Work>
    </rdf:RDF>
  </metadata>
  <g
     inkscape:label="Layer 1"
     inkscape:groupmode="layer"
     id="layer1"
     transform="translate(-32.228633,-1064.9324)">
    <path
       inkscape:connector-curvature="0"
       id="path5115"
       d="m 111.85688,962.12555 c 0.96825,7.95603 -3.43,15.02874 -5.30527,22.43173 0.55562,2.86645 -2.78231,10.36958 2.92738,7.9522"
       style="color:#000000;clip-rule:nonzero;display:inline;overflow:visible;visibility:visible;opacity:1;isolation:auto;mix-blend-mode:normal;color-interpolation:sRGB;color-interpolation-filters:linearRGB;solid-color:#000000;solid-opacity:1;fill:none;fill-opacity:1;fill-rule:evenodd;stroke:#000000;stroke-width:1.38269389;stroke-linecap:butt;stroke-linejoin:miter;stroke-miterlimit:4;stroke-dasharray:none;stroke-dashoffset:0;stroke-opacity:1;color-rendering:auto;image-rendering:auto;shape-rendering:auto;text-rendering:auto;enable-background:accumulate" />
    <g
       id="g6006"
       transform="translate(-277.68116,20.660364)">
      <path
         inkscape:connector-curvature="0"
         id="path5890"
         d="m 364.8684,1075.3946 c -0.29664,1.5595 -1.28756,0.089 -1.85006,0.37 -0.15601,0.078 -0.214,0.292 -0.37001,0.37 -0.0973,0.049 -1.28656,0 -1.48004,0 -0.16664,0 -0.99743,0.056 -1.11004,0 -0.15601,-0.078 -0.214,-0.292 -0.37001,-0.37 -0.1467,-0.073 -1.03438,0.076 -1.11003,0 -0.0872,-0.087 0.0872,-0.2828 0,-0.37 -0.17442,-0.1745 -0.5656,0.1744 -0.74002,0 -0.0872,-0.087 0.0872,-0.2828 0,-0.3701 -0.0872,-0.087 -0.2828,0.087 -0.37001,0 -0.0872,-0.087 0.0872,-0.2828 0,-0.37 -0.0872,-0.087 -0.2828,0.087 -0.37001,0 -0.17443,-0.1744 0.17442,-0.5656 0,-0.74 -0.0872,-0.087 -0.2828,0.087 -0.37001,0 -0.18501,-0.185 0.185,-0.925 0,-1.11 -0.0872,-0.087 -0.2828,0.087 -0.37001,0 -0.0149,-0.015 0,-1.3442 0,-1.4801 0,-0.1233 0,-0.2466 0,-0.37 0,-0.1233 0.0872,-0.2828 0,-0.37 -0.0872,-0.087 -0.2828,0.087 -0.37001,0 -0.0872,-0.087 0,-0.2467 0,-0.37 0,-0.8634 0,-1.7267 0,-2.5901 0,-0.1233 0,-0.2466 0,-0.37 0,-0.1233 -0.0872,-0.2828 0,-0.37 0.0872,-0.087 0.28279,0.087 0.37001,0 0.17442,-0.1744 -0.17443,-0.5656 0,-0.74 0.0872,-0.087 0.28279,0.087 0.37001,0 0.0872,-0.087 -0.0872,-0.2828 0,-0.37 0.0872,-0.087 0.2828,0.087 0.37001,0 0.17442,-0.1745 -0.17443,-0.5656 0,-0.7401 0.0872,-0.087 0.25969,0.055 0.37001,0 0.15601,-0.078 0.214,-0.292 0.37001,-0.37 0.11032,-0.055 0.2828,0.087 0.37001,0 0.0872,-0.087 -0.0872,-0.2828 0,-0.37 0.17443,-0.1744 0.5656,0.1745 0.74002,0 0.0872,-0.087 -0.0872,-0.2828 0,-0.37 0.0872,-0.087 0.2597,0.055 0.37001,0 0.15601,-0.078 0.214,-0.292 0.37001,-0.37 0.22064,-0.1103 0.5656,0.1744 0.74003,0 0.0872,-0.087 -0.0872,-0.2828 0,-0.37 0.0872,-0.087 0.24667,0 0.37001,0 0.61668,0 1.23337,0 1.85005,0 0.0897,0 1.09813,-0.012 1.11003,0 0.0872,0.087 -0.0872,0.2828 0,0.37 0.0757,0.076 0.96333,-0.073 1.11004,0 0.15601,0.078 0.214,0.292 0.37001,0.37 0.22063,0.1103 0.56559,-0.1744 0.74002,0 0.0872,0.087 -0.0872,0.2828 0,0.37 0.0872,0.087 0.2828,-0.087 0.37001,0 0.0872,0.087 -0.0872,0.2828 0,0.37 0.0872,0.087 0.25969,-0.055 0.37001,0 0.15601,0.078 0.24667,0.2467 0.37001,0.37 0.12334,0.1234 0.29201,0.2141 0.37001,0.3701 0.0552,0.1103 -0.0552,0.2597 0,0.37 0.078,0.156 0.29201,0.214 0.37001,0.37 0.11032,0.2206 -0.11031,0.5194 0,0.74 0.078,0.156 0.29201,0.214 0.37001,0.37 0.0669,0.1338 0,1.5927 0,1.8501 0,0.1233 0,0.2466 0,0.37 0,0.1233 0.0872,0.2828 0,0.37 -0.0872,0.087 -0.28279,-0.087 -0.37001,0 -0.0872,0.087 0,0.2467 0,0.37 0,0.1233 0,0.2467 0,0.37 0,0.9867 0.12334,-0.1233 -0.37001,0.37 -0.17442,0.1744 0.17443,0.5656 0,0.74 -0.0872,0.087 -0.2828,-0.087 -0.37001,0 -0.0872,0.087 0.0872,0.2828 0,0.3701 -0.0872,0.087 -0.2828,-0.087 -0.37001,0 -0.0872,0.087 0.0872,0.2828 0,0.37 -0.0872,0.087 -0.2828,-0.087 -0.37001,0 -0.0872,0.087 0.0872,0.2828 0,0.37 -0.0872,0.087 -0.2828,-0.087 -0.37001,0 -0.76557,0.7655 1.16988,-0.03 -0.37001,0.74 -0.11032,0.055 -0.2828,-0.087 -0.37001,0 -0.0872,0.087 0.0242,0.2491 0,0.37 -0.0997,0.4987 -0.24668,0.9867 -0.37001,1.4801 z"
         style="color:#000000;clip-rule:nonzero;display:inline;overflow:visible;visibility:visible;isolation:auto;mix-blend-mode:normal;color-interpolation:sRGB;color-interpolation-filters:linearRGB;solid-color:#000000;solid-opacity:1;fill:#000000;fill-opacity:1;fill-rule:evenodd;stroke:#000000;stroke-width:1.38269389;stroke-linecap:butt;stroke-linejoin:miter;stroke-miterlimit:4;stroke-dasharray:none;stroke-dashoffset:0;stroke-opacity:1;color-rendering:auto;image-rendering:auto;shape-rendering:auto;text-rendering:auto;enable-background:accumulate" />
      <path
         inkscape:connector-curvature="0"
         id="path5898"
         d="m 316.02696,1117.5758 c 0.49335,0.37 0.9867,0.74 1.48005,1.11 0,0.1234 -0.0872,0.2828 0,0.37 0.76556,0.7656 -0.0299,-1.1699 0.74002,0.37 0.0552,0.1104 -0.0872,0.2828 0,0.3701 0.0872,0.087 0.25969,-0.055 0.37001,0 0.15601,0.078 0.214,0.292 0.37001,0.37 0.11032,0.055 0.25969,-0.055 0.37001,0 0.15601,0.078 0.214,0.292 0.37001,0.37 0.11032,0.055 0.2828,-0.087 0.37001,0 0.0872,0.087 -0.0872,0.2828 0,0.37 0.0872,0.087 0.2828,-0.087 0.37001,0 0.0872,0.087 -0.0872,0.2828 0,0.37 0.0872,0.087 0.2828,-0.087 0.37001,0 0.0872,0.087 -0.0872,0.2828 0,0.37 0.0872,0.087 0.2828,-0.087 0.37001,0 0.0872,0.087 -0.0872,0.2828 0,0.37 0.0872,0.087 0.2828,-0.087 0.37002,0 0.17442,0.1744 -0.17443,0.5656 0,0.74 0.0872,0.087 0.28279,-0.087 0.37001,0 0.0872,0.087 -0.0872,0.2828 0,0.3701 0.0872,0.087 0.28279,-0.087 0.37001,0 0.0872,0.087 -0.0872,0.2828 0,0.37 0.0872,0.087 0.2828,-0.087 0.37001,0 0.0872,0.087 -0.0872,0.2828 0,0.37 0.17442,0.1744 0.56559,-0.1744 0.74002,0 0.0872,0.087 -0.0872,0.2828 0,0.37 0.0872,0.087 0.2828,-0.087 0.37001,0 0.0872,0.087 -0.0552,0.2597 0,0.37 0.078,0.156 0.24667,0.2467 0.37001,0.37 0.12334,0.1233 0.19559,0.37 0.37001,0.37 0.12334,0 -0.0872,-0.2828 0,-0.37 0.0872,-0.087 0.2597,0.055 0.37001,0 0.15601,-0.078 0.214,-0.292 0.37001,-0.37 0.11032,-0.055 0.2597,0.055 0.37001,0 0.15601,-0.078 0.21401,-0.292 0.37002,-0.37 0.11031,-0.055 0.25969,0.055 0.37001,0 0.15601,-0.078 0.214,-0.292 0.37001,-0.37 0.11031,-0.055 0.25969,0.055 0.37001,0 0.15601,-0.078 0.214,-0.292 0.37001,-0.37 0.11031,-0.055 0.2828,0.087 0.37001,0 0.0872,-0.087 -0.0872,-0.2828 0,-0.37 0.24679,-0.2468 0.49323,0.2467 0.74002,0 0.0872,-0.087 -0.0872,-0.2828 0,-0.3701 0.0872,-0.087 0.2597,0.055 0.37001,0 0.15601,-0.078 0.214,-0.292 0.37001,-0.37 0.22064,-0.1103 0.5656,0.1745 0.74003,0 0.0872,-0.087 -0.0872,-0.2828 0,-0.37 0.17442,-0.1744 0.51938,0.1103 0.74002,0 0.15601,-0.078 0.214,-0.292 0.37001,-0.37 0.11031,-0.055 0.25969,0.055 0.37001,0 0.15601,-0.078 0.214,-0.292 0.37001,-0.37 0.22063,-0.1103 0.51939,0.1103 0.74002,0 0.15601,-0.078 0.214,-0.292 0.37001,-0.37 0.14671,-0.073 1.03439,0.076 1.11003,0 0.0872,-0.087 -0.0872,-0.2828 0,-0.37 0.17443,-0.1744 0.5656,0.1744 0.74003,0 0.0872,-0.087 -0.0872,-0.2828 0,-0.37 0.17442,-0.1745 0.56559,0.1744 0.74002,0 0.0872,-0.087 -0.0872,-0.2828 0,-0.37 0.0872,-0.087 0.25969,0.055 0.37001,0 0.15601,-0.078 0.214,-0.292 0.37001,-0.3701 0.11032,-0.055 0.2828,0.087 0.37001,0 0.0872,-0.087 -0.0872,-0.2828 0,-0.37 0.0872,-0.087 0.2597,0.055 0.37001,0 0.31202,-0.156 0.428,-0.584 0.74002,-0.74 0.11032,-0.055 0.2828,0.087 0.37001,0 0.0872,-0.087 -0.0872,-0.2828 0,-0.37 0.0872,-0.087 0.2828,0.087 0.37001,0 0.0872,-0.087 -0.0872,-0.2828 0,-0.37 0.0872,-0.087 0.2828,0.087 0.37002,0 0.0872,-0.087 -0.0872,-0.2828 0,-0.37 0.0872,-0.087 0.28279,0.087 0.37001,0 0.0872,-0.087 -0.0872,-0.2828 0,-0.37 0.76556,-0.7656 -0.0299,1.1699 0.74002,-0.37 0.0552,-0.1104 -0.0872,-0.2828 0,-0.3701 0.0872,-0.087 0.25969,0.055 0.37001,0 0.15601,-0.078 0.214,-0.292 0.37001,-0.37 0.11032,-0.055 0.2828,0.087 0.37001,0 0.0872,-0.087 -0.0872,-0.2828 0,-0.37 0.0872,-0.087 0.2828,0.087 0.37001,0 0.0872,-0.087 -0.0872,-0.2828 0,-0.37 0.0872,-0.087 0.2597,0.055 0.37001,0 0.44402,-0.222 0.66602,-0.888 1.11004,-1.11 0.11031,-0.055 0.28279,0.087 0.37001,0 0.0872,-0.087 -0.0872,-0.2828 0,-0.37 0.0872,-0.087 0.28279,0.087 0.37001,0 0.0872,-0.087 -0.0872,-0.2828 0,-0.37 0.0872,-0.087 0.25969,0.055 0.37001,0 0.31202,-0.156 0.428,-0.584 0.74002,-0.7401 0.11032,-0.055 0.2828,0.087 0.37001,0 0.0872,-0.087 -0.0872,-0.2828 0,-0.37 0.0872,-0.087 0.2597,0.055 0.37001,0 0.31202,-0.156 0.428,-0.584 0.74002,-0.74 0.11032,-0.055 0.2828,0.087 0.37001,0 0.0872,-0.087 -0.0872,-0.2828 0,-0.37 0.0872,-0.087 0.2828,0.087 0.37001,0 0.0872,-0.087 -0.0872,-0.2828 0,-0.37 0.0872,-0.087 0.2828,0.087 0.37002,0 0.0872,-0.087 -0.0872,-0.2828 0,-0.37 0.0872,-0.087 0.25969,0.055 0.37001,0 0.44401,-0.222 0.66602,-0.8881 1.11003,-1.1101 0.11031,-0.055 0.2828,0.087 0.37001,0 0.0872,-0.087 -0.0872,-0.2828 0,-0.37 0.0872,-0.087 0.24667,0 0.37001,0 0,-0.1233 -0.0872,-0.2828 0,-0.37 0.0872,-0.087 0.2597,0.055 0.37001,0 0.44401,-0.222 0.66602,-0.888 1.11003,-1.11 0.11032,-0.055 0.2828,0.087 0.37002,0 0.0872,-0.087 -0.0872,-0.2828 0,-0.37 0.0872,-0.087 0.28279,0.087 0.37001,0 0.0872,-0.087 -0.0872,-0.2828 0,-0.37 0.0872,-0.087 0.25969,0.055 0.37001,0 0.31202,-0.156 0.428,-0.584 0.74002,-0.7401 0.11031,-0.055 0.2828,0.087 0.37001,0 0.0872,-0.087 -0.0552,-0.2597 0,-0.37 0.76995,-1.5399 -0.0255,0.3956 0.74002,-0.37 0.0872,-0.087 -0.0872,-0.2828 0,-0.37 0.0872,-0.087 0.2597,0.055 0.37001,0 0.15601,-0.078 0.214,-0.292 0.37001,-0.37 0.11032,-0.055 0.2828,0.087 0.37001,0 0.0872,-0.087 -0.0551,-0.2597 0,-0.37 0.76995,-1.5399 -0.0255,0.3955 0.74003,-0.37 0.0872,-0.087 -0.0872,-0.2828 0,-0.37 0.0872,-0.087 0.25969,0.055 0.37001,0 0.15601,-0.078 0.214,-0.292 0.37001,-0.37 0.11031,-0.055 0.2828,0.087 0.37001,0 0.0872,-0.087 -0.0872,-0.2828 0,-0.3701 0.0872,-0.087 0.25969,0.055 0.37001,0 1.5399,-0.7699 -0.39556,0.026 0.37001,-0.74 0.0872,-0.087 0.2828,0.087 0.37001,0 0.0872,-0.087 -0.0872,-0.2828 0,-0.37 0.76557,-0.7656 -0.0299,1.1699 0.74002,-0.37 0.0552,-0.1103 -0.0872,-0.2828 0,-0.37 0.0872,-0.087 0.2828,0.087 0.37001,0 0.0872,-0.087 -0.0872,-0.2828 0,-0.37 0.0872,-0.087 0.2828,0.087 0.37001,0 0.0872,-0.087 -0.0872,-0.2828 0,-0.37 0.0872,-0.087 0.2828,0.087 0.37001,0 0.0872,-0.087 -0.0872,-0.2828 0,-0.37 0.0872,-0.087 0.2828,0.087 0.37002,0 0.0872,-0.087 -0.0872,-0.2828 0,-0.3701 0.0872,-0.087 0.28279,0.087 0.37001,0 0.0872,-0.087 -0.0552,-0.2596 0,-0.37 0.078,-0.156 0.292,-0.214 0.37001,-0.37 0.0552,-0.1103 -0.0872,-0.2828 0,-0.37 0.0872,-0.087 0.2828,0.087 0.37001,0 0.17442,-0.1744 -0.17443,-0.5656 0,-0.74 0.0872,-0.087 0.2828,0.087 0.37001,0 0.0872,-0.087 -0.0552,-0.2597 0,-0.37 0.078,-0.156 0.292,-0.214 0.37001,-0.37 0.11032,-0.2207 -0.17442,-0.5656 0,-0.74 0.0872,-0.087 0.2828,0.087 0.37001,0 0.0872,-0.087 -0.0872,-0.2828 0,-0.3701 0.0872,-0.087 0.2828,0.087 0.37001,0 0.089,-0.089 -0.089,-1.391 0,-1.48 0.0872,-0.087 0.2828,0.087 0.37001,0 0.17443,-0.1744 -0.17442,-0.5656 0,-0.74 0.0872,-0.087 0.2828,0.087 0.37001,0 0.0872,-0.087 -0.0551,-0.2597 0,-0.37 0.078,-0.156 0.29201,-0.214 0.37001,-0.37 0.0552,-0.1104 -0.0552,-0.2597 0,-0.3701 0.078,-0.156 0.29201,-0.214 0.37002,-0.37 0.0551,-0.1103 -0.0552,-0.2597 0,-0.37 0.078,-0.156 0.292,-0.214 0.37001,-0.37 0.0552,-0.1103 -0.0552,-0.2597 0,-0.37 0.078,-0.156 0.292,-0.214 0.37001,-0.37 0.11031,-0.2206 -0.17443,-0.5656 0,-0.74 0.0872,-0.087 0.2828,0.087 0.37001,0 0.17442,-0.1745 -0.11032,-0.5194 0,-0.7401 0.078,-0.156 0.292,-0.214 0.37001,-0.37 0.0552,-0.1103 -0.0552,-0.2597 0,-0.37 0.078,-0.156 0.292,-0.214 0.37001,-0.37 0.0552,-0.1103 0,-0.2467 0,-0.37 0,-0.2623 -0.0478,-2.1244 0,-2.2201 0.078,-0.156 0.29201,-0.214 0.37001,-0.37 0.10036,-0.2007 -0.10124,-1.3788 0,-1.48 0.0872,-0.087 0.2828,0.087 0.37001,0 0.18501,-0.185 -0.185,-0.925 0,-1.11 0.0872,-0.087 0.2828,0.087 0.37001,0 0.0149,-0.015 0,-1.3442 0,-1.4801 0,-0.74 0,-1.48 0,-2.2201 0,-0.1233 0.0872,-0.2828 0,-0.37 -0.0872,-0.087 -0.2828,0.087 -0.37001,0 -0.0872,-0.087 0.0872,-0.2828 0,-0.37 -0.0872,-0.087 -0.24667,0 -0.37001,0 0,-0.1233 0.0872,-0.2828 0,-0.37 -0.0872,-0.087 -0.2828,0.087 -0.37001,0 -0.0872,-0.087 0.0872,-0.2828 0,-0.37 -0.0872,-0.087 -0.2828,0.087 -0.37001,0 -0.0872,-0.087 0.0872,-0.2828 0,-0.37 -0.0872,-0.087 -0.2828,0.087 -0.37001,0 -0.17443,-0.1744 0.17442,-0.5656 0,-0.74 -0.0872,-0.087 -0.2828,0.087 -0.37001,0 -0.24871,-0.2487 0.2487,-0.4914 0,-0.7401 -0.49335,-0.4933 -0.37001,0.6167 -0.37001,-0.37"
         style="color:#000000;clip-rule:nonzero;display:inline;overflow:visible;visibility:visible;isolation:auto;mix-blend-mode:normal;color-interpolation:sRGB;color-interpolation-filters:linearRGB;solid-color:#000000;solid-opacity:1;fill:none;fill-opacity:1;fill-rule:evenodd;stroke:#000000;stroke-width:1.38269389;stroke-linecap:butt;stroke-linejoin:miter;stroke-miterlimit:4;stroke-dasharray:none;stroke-dashoffset:0;stroke-opacity:1;color-rendering:auto;image-rendering:auto;shape-rendering:auto;text-rendering:auto;enable-background:accumulate" />
      <path
         inkscape:connector-curvature="0"
         id="path5900"
         d="m 367.82848,1082.0548 c 0.12334,0.4933 0.27028,0.9813 0.37001,1.48 0.03,0.1497 -0.0357,0.7043 0,0.74 0.0872,0.087 0.2828,-0.087 0.37001,0 0.0872,0.087 0,0.2467 0,0.37 0,0.8634 0,1.7267 0,2.5901 0,0.1233 0,0.2467 0,0.37 0,0.1233 -0.0872,0.2828 0,0.37 0.0872,0.087 0.2828,-0.087 0.37002,0 0.0119,0.012 0,1.0203 0,1.1101 0,1.0246 0.37001,-0.2847 0.37001,0.74 0,0.1359 -0.0149,1.4651 0,1.48 0.0872,0.087 0.28279,-0.087 0.37001,0 0.0872,0.087 0,0.2467 0,0.37 0,0.1234 0,0.2467 0,0.37 0,0.7401 0,1.4801 0,2.2201 0,0.1233 -0.0872,0.2828 0,0.37 0.0872,0.087 0.2828,-0.087 0.37001,0 0.0149,0.015 0,1.3442 0,1.4801 0,0.1744 -0.0168,1.8332 0,1.85 0.0872,0.087 0.2828,-0.087 0.37001,0 0.0872,0.087 0,0.2467 0,0.37 0,0.2574 -0.0669,1.7163 0,1.8501 0.078,0.156 0.292,0.214 0.37001,0.37 0.11032,0.2206 -0.17442,0.5656 0,0.74 0.0872,0.087 0.2828,-0.087 0.37001,0 0.089,0.089 -0.089,1.391 0,1.4801 0.49335,0.4933 0.37001,-0.6167 0.37001,0.37 0,0.74 0,1.48 0,2.22 0,0.1667 -0.0563,0.9975 0,1.1101 0.078,0.156 0.29201,0.214 0.37001,0.37 0.0669,0.1338 0,1.5927 0,1.85 0,0.1234 0.0872,0.2828 0,0.37 -0.0872,0.087 -0.2828,-0.087 -0.37001,0 -0.17442,0.1745 0.17443,0.5656 0,0.7401 -0.0872,0.087 -0.2828,-0.087 -0.37001,0 -0.0872,0.087 0.0872,0.2828 0,0.37 -0.0872,0.087 -0.25969,-0.055 -0.37001,0 -1.5399,0.7699 0.39555,-0.026 -0.37001,0.74 -0.0872,0.087 -0.2828,-0.087 -0.37001,0 -0.0872,0.087 0.0872,0.2828 0,0.37 -0.0872,0.087 -0.2828,-0.087 -0.37001,0 -0.0872,0.087 0.0872,0.2828 0,0.37 -0.17443,0.1744 -0.5656,-0.1744 -0.74002,0 -0.0872,0.087 0.12333,0.37 0,0.37 -0.12334,0 0,-0.2466 0,-0.37"
         style="color:#000000;clip-rule:nonzero;display:inline;overflow:visible;visibility:visible;isolation:auto;mix-blend-mode:normal;color-interpolation:sRGB;color-interpolation-filters:linearRGB;solid-color:#000000;solid-opacity:1;fill:none;fill-opacity:1;fill-rule:evenodd;stroke:#000000;stroke-width:1.38269389;stroke-linecap:butt;stroke-linejoin:miter;stroke-miterlimit:4;stroke-dasharray:none;stroke-dashoffset:0;stroke-opacity:1;color-rendering:auto;image-rendering:auto;shape-rendering:auto;text-rendering:auto;enable-background:accumulate" />
      <path
         inkscape:connector-curvature="0"
         id="path5902"
         d="m 380.40885,1104.6254 c -1.48004,0 -2.96008,0 -4.44013,0 -0.0897,0 -1.09813,-0.012 -1.11003,0 -0.0872,0.087 0.0872,0.2828 0,0.37 -0.12988,0.1299 -1.59448,-0.1278 -1.85005,0 -0.15602,0.078 -0.21401,0.292 -0.37002,0.37 -0.23342,0.1167 -1.61662,-0.1167 -1.85005,0 -0.15601,0.078 -0.214,0.292 -0.37001,0.37 -0.11032,0.055 -0.24667,0 -0.37001,0 -0.12334,0 -0.24668,0 -0.37001,0 -0.61669,0 -1.23337,0 -1.85006,0 -0.98669,0 -1.97339,0 -2.96008,0 -0.12334,0 -0.24668,0 -0.37001,0 -0.12334,0 -0.37002,0.1234 -0.37002,0 0,-0.1233 0.2828,-0.087 0.37002,0 0.0872,0.087 -0.0872,0.2828 0,0.3701 0.0872,0.087 0.28279,-0.087 0.37001,0 0.76556,0.7655 -1.16989,-0.03 0.37001,0.74 0.11031,0.055 0.2828,-0.087 0.37001,0 0.0872,0.087 -0.0872,0.2828 0,0.37 0.0872,0.087 0.2828,-0.087 0.37001,0 0.0872,0.087 -0.0872,0.2828 0,0.37 0.0872,0.087 0.2828,-0.087 0.37001,0 0.0872,0.087 -0.0552,0.2597 0,0.37 0.078,0.156 0.29201,0.214 0.37001,0.37 0.0552,0.1103 -0.0872,0.2828 0,0.37 0.0872,0.087 0.2828,-0.087 0.37001,0 0.0872,0.087 -0.0552,0.2597 0,0.37 0.078,0.1561 0.29201,0.214 0.37001,0.3701 0.11032,0.2206 -0.17442,0.5655 0,0.74 0.0872,0.087 0.2597,-0.055 0.37001,0 0.15601,0.078 0.24668,0.2466 0.37001,0.37 0.12334,0.1233 0.29201,0.214 0.37001,0.37 0.0552,0.1103 -0.0872,0.2828 0,0.37 0.0872,0.087 0.2828,-0.087 0.37002,0 0.0872,0.087 -0.0872,0.2828 0,0.37 0.0872,0.087 0.24667,0 0.37001,0 0,0.1234 -0.0872,0.2828 0,0.37 0.0872,0.087 0.28279,-0.087 0.37001,0 0.76556,0.7656 -1.16989,-0.03 0.37001,0.7401 0.0973,0.049 1.28656,0 1.48004,0 0.9867,0 1.97339,0 2.96009,0 0.98669,0 -0.12334,-0.1234 0.37001,0.37 0.0149,0.015 1.34416,0 1.48004,0 1.23337,0 2.46674,0 3.70011,0 0.19349,0 1.38275,0.049 1.48005,0 0.91444,-0.4573 -0.12772,-0.37 0.74002,-0.37"
         style="color:#000000;clip-rule:nonzero;display:inline;overflow:visible;visibility:visible;isolation:auto;mix-blend-mode:normal;color-interpolation:sRGB;color-interpolation-filters:linearRGB;solid-color:#000000;solid-opacity:1;fill:none;fill-opacity:1;fill-rule:evenodd;stroke:#000080;stroke-width:1.38269389;stroke-linecap:butt;stroke-linejoin:miter;stroke-miterlimit:4;stroke-dasharray:none;stroke-dashoffset:0;stroke-opacity:1;color-rendering:auto;image-rendering:auto;shape-rendering:auto;text-rendering:auto;enable-background:accumulate" />
      <path
         inkscape:connector-curvature="0"
         id="path5906"
         d="m 369.67854,1114.2457 c 0.63921,-0.064 0.2497,2.3495 0.37001,2.5901 0.078,0.156 0.292,0.214 0.37001,0.37 0.0486,0.097 0,1.2865 0,1.48 0,0.1234 0.0872,0.2828 0,0.37 -0.0872,0.087 -0.2828,-0.087 -0.37001,0 -0.0872,0.087 0,0.2467 0,0.37 0,0.1234 0,0.2467 0,0.3701 0,1.85 0,3.7001 0,5.5501 0,0.1234 0,0.2467 0,0.37 0,0.1234 0.0872,0.2828 0,0.37 -0.0872,0.087 -0.2828,-0.087 -0.37001,0 -0.0872,0.087 0,0.2467 0,0.3701 0,0.1233 0,0.2466 0,0.37 0,1.11 0,2.22 0,3.3301"
         style="color:#000000;clip-rule:nonzero;display:inline;overflow:visible;visibility:visible;isolation:auto;mix-blend-mode:normal;color-interpolation:sRGB;color-interpolation-filters:linearRGB;solid-color:#000000;solid-opacity:1;fill:none;fill-opacity:1;fill-rule:evenodd;stroke:#000080;stroke-width:1.38269389;stroke-linecap:butt;stroke-linejoin:miter;stroke-miterlimit:4;stroke-dasharray:none;stroke-dashoffset:0;stroke-opacity:1;color-rendering:auto;image-rendering:auto;shape-rendering:auto;text-rendering:auto;enable-background:accumulate" />
      <path
         inkscape:connector-curvature="0"
         id="path5908"
         d="m 364.8684,1107.5855 0,15.5405"
         style="color:#000000;clip-rule:nonzero;display:inline;overflow:visible;visibility:visible;isolation:auto;mix-blend-mode:normal;color-interpolation:sRGB;color-interpolation-filters:linearRGB;solid-color:#000000;solid-opacity:1;fill:none;fill-opacity:1;fill-rule:evenodd;stroke:#000080;stroke-width:1.38269389;stroke-linecap:butt;stroke-linejoin:miter;stroke-miterlimit:4;stroke-dasharray:none;stroke-dashoffset:0;stroke-opacity:1;color-rendering:auto;image-rendering:auto;shape-rendering:auto;text-rendering:auto;enable-background:accumulate" />
      <path
         inkscape:connector-curvature="0"
         id="path5910"
         d="m 369.30853,1112.7657 c 2.3434,0 4.6868,0 7.0302,0 0.12334,0 0.2828,0.087 0.37001,0 0.16445,-0.1645 -0.28778,-0.699 0.37001,-0.3701 0.15601,0.078 0.21401,0.292 0.37002,0.3701 0.64661,0.3233 0.1383,-0.3701 0.74002,-0.3701 0.1445,0 0.41671,0.6934 0.74002,0.3701 0.0872,-0.087 -0.0872,-0.2828 0,-0.3701 0.0872,-0.087 0.24667,0 0.37001,0 0.61668,0 1.23337,0 1.85005,0 0.9867,0 1.9734,0 2.96009,0 0.19349,0 1.38275,0.049 1.48004,0 0.15601,-0.078 0.21401,-0.292 0.37002,-0.37 0.11031,-0.055 0.24667,0 0.37001,0 0.12333,0 0.24667,0 0.37001,0 0.74002,0 1.48004,0 2.22006,0 0.12334,0 0.24668,0 0.37001,0 0.12334,0 0.2828,-0.087 0.37001,0 0.49335,0.4934 -0.61668,0.37 0.37001,0.37 l -8.51024,-7.7702"
         style="color:#000000;clip-rule:nonzero;display:inline;overflow:visible;visibility:visible;isolation:auto;mix-blend-mode:normal;color-interpolation:sRGB;color-interpolation-filters:linearRGB;solid-color:#000000;solid-opacity:1;fill:none;fill-opacity:1;fill-rule:evenodd;stroke:#000080;stroke-width:1.38269389;stroke-linecap:butt;stroke-linejoin:miter;stroke-miterlimit:4;stroke-dasharray:none;stroke-dashoffset:0;stroke-opacity:1;color-rendering:auto;image-rendering:auto;shape-rendering:auto;text-rendering:auto;enable-background:accumulate" />
      <path
         inkscape:connector-curvature="0"
         id="path5912"
         d="m 389.28911,1091.675 -0.37001,40.7012"
         style="color:#000000;clip-rule:nonzero;display:inline;overflow:visible;visibility:visible;isolation:auto;mix-blend-mode:normal;color-interpolation:sRGB;color-interpolation-filters:linearRGB;solid-color:#000000;solid-opacity:1;fill:none;fill-opacity:1;fill-rule:evenodd;stroke:#000080;stroke-width:1.38269389;stroke-linecap:butt;stroke-linejoin:miter;stroke-miterlimit:4;stroke-dasharray:none;stroke-dashoffset:0;stroke-opacity:1;color-rendering:auto;image-rendering:auto;shape-rendering:auto;text-rendering:auto;enable-background:accumulate" />
      <path
         sodipodi:nodetypes="cc"
         inkscape:connector-curvature="0"
         id="path5914"
         d="m 382.25891,1084.2748 -0.37001,21.0906"
         style="color:#000000;clip-rule:nonzero;display:inline;overflow:visible;visibility:visible;isolation:auto;mix-blend-mode:normal;color-interpolation:sRGB;color-interpolation-filters:linearRGB;solid-color:#000000;solid-opacity:1;fill:none;fill-opacity:1;fill-rule:evenodd;stroke:#000080;stroke-width:1.38269389;stroke-linecap:butt;stroke-linejoin:miter;stroke-miterlimit:4;stroke-dasharray:none;stroke-dashoffset:0;stroke-opacity:1;color-rendering:auto;image-rendering:auto;shape-rendering:auto;text-rendering:auto;enable-background:accumulate" />
      <path
         inkscape:connector-curvature="0"
         id="path5916"
         d="m 381.8889,1122.7559 0,-10.3603"
         style="color:#000000;clip-rule:nonzero;display:inline;overflow:visible;visibility:visible;isolation:auto;mix-blend-mode:normal;color-interpolation:sRGB;color-interpolation-filters:linearRGB;solid-color:#000000;solid-opacity:1;fill:none;fill-opacity:1;fill-rule:evenodd;stroke:#000080;stroke-width:1.38269389;stroke-linecap:butt;stroke-linejoin:miter;stroke-miterlimit:4;stroke-dasharray:none;stroke-dashoffset:0;stroke-opacity:1;color-rendering:auto;image-rendering:auto;shape-rendering:auto;text-rendering:auto;enable-background:accumulate" />
      <path
         inkscape:connector-curvature="0"
         id="path5918"
         d="m 381.51889,1088.7149 7.40021,8.5103"
         style="color:#000000;clip-rule:nonzero;display:inline;overflow:visible;visibility:visible;isolation:auto;mix-blend-mode:normal;color-interpolation:sRGB;color-interpolation-filters:linearRGB;solid-color:#000000;solid-opacity:1;fill:none;fill-opacity:1;fill-rule:evenodd;stroke:#000080;stroke-width:1.38269389;stroke-linecap:butt;stroke-linejoin:miter;stroke-miterlimit:4;stroke-dasharray:none;stroke-dashoffset:0;stroke-opacity:1;color-rendering:auto;image-rendering:auto;shape-rendering:auto;text-rendering:auto;enable-background:accumulate" />
      <path
         inkscape:connector-curvature="0"
         id="path5920"
         d="m 447.01081,1097.9652 c -0.49335,0.2467 -0.98669,0.4934 -1.48004,0.7401 0,0.1233 0.0872,0.2828 0,0.37 -0.17443,0.1744 -0.5656,-0.1745 -0.74002,0 -0.0872,0.087 0.0872,0.2828 0,0.37 -0.17443,0.1744 -0.5656,-0.1745 -0.74003,0 -0.0872,0.087 0.0872,0.2828 0,0.37 -0.17442,0.1744 -0.56559,-0.1744 -0.74002,0 -0.0872,0.087 0.0872,0.2828 0,0.37 -0.0872,0.087 -0.24667,0 -0.37001,0 -0.74002,0 -1.48004,0 -2.22006,0 -0.12334,0 -0.24668,0 -0.37001,0 -0.12334,0 -0.2828,0.087 -0.37002,0 -0.0872,-0.087 0.0872,-0.2828 0,-0.37 -0.0872,-0.087 -0.28279,0.087 -0.37001,0 -0.185,-0.185 0.18501,-0.925 0,-1.11 -0.0872,-0.087 -0.28279,0.087 -0.37001,0 -0.0756,-0.076 0.0734,-0.9634 0,-1.1101 -0.078,-0.156 -0.292,-0.214 -0.37001,-0.37 -0.148,-0.296 0.14801,-0.814 0,-1.11 -0.078,-0.156 -0.292,-0.214 -0.37001,-0.37 -0.0669,-0.1338 0,-1.5927 0,-1.8501 0,-0.1233 0.0872,-0.2828 0,-0.37 -0.0872,-0.087 -0.2828,0.087 -0.37001,0 -0.0872,-0.087 0,-0.2467 0,-0.37 0,-0.8634 0,-1.7267 0,-2.5901 0,-0.1233 0,-0.2467 0,-0.37 0,-0.1233 0.0872,-0.2828 0,-0.37 -0.0872,-0.087 -0.2828,0.087 -0.37001,0 -0.0872,-0.087 0,-0.2467 0,-0.37 0,-0.1667 -0.0563,-0.9974 0,-1.1101 0.76995,-1.5398 -0.0255,0.3956 0.74002,-0.37 0.0872,-0.087 -0.0872,-0.2828 0,-0.37 0.0872,-0.087 0.2597,0.055 0.37001,0 0.15601,-0.078 0.214,-0.292 0.37001,-0.37 0.29601,-0.148 0.81403,0.148 1.11004,0 0.15601,-0.078 0.214,-0.292 0.37001,-0.37 0.11031,-0.055 0.24667,0 0.37001,0 0.12333,0 0.2828,-0.087 0.37001,0 0.0872,0.087 -0.0872,0.2828 0,0.37 0.089,0.089 1.39101,-0.089 1.48004,0 0.0872,0.087 -0.0872,0.2828 0,0.37 0.0872,0.087 0.24668,0 0.37001,0 0.25736,0 1.71625,-0.067 1.85006,0 0.15601,0.078 0.214,0.292 0.37001,0.37 0.22063,0.1104 0.51939,-0.1103 0.74002,0 0.15601,0.078 0.214,0.292 0.37001,0.37 0.29601,0.1481 0.81402,-0.148 1.11003,0 0.15601,0.078 0.214,0.2921 0.37001,0.3701 0.11032,0.055 0.2828,-0.087 0.37001,0 0.0872,0.087 -0.0872,0.2828 0,0.37 0.0872,0.087 0.2828,-0.087 0.37002,0 0.0872,0.087 -0.0872,0.2828 0,0.37 0.0872,0.087 0.28279,-0.087 0.37001,0 0.0872,0.087 0,0.2467 0,0.37 0,0.6167 0,1.2334 0,1.85 0,0.09 -0.0119,1.0982 0,1.1101 0.0872,0.087 0.28279,-0.087 0.37001,0 0.0872,0.087 0,0.2467 0,0.37 0,0.1666 0.0563,0.9974 0,1.11 -0.078,0.156 -0.29201,0.214 -0.37001,0.37 -0.0734,0.1467 0.0756,1.0344 0,1.1101 -0.0872,0.087 -0.2828,-0.087 -0.37001,0 -0.0872,0.087 0.0872,0.2828 0,0.37 -0.0872,0.087 -0.2828,-0.087 -0.37002,0 -0.0872,0.087 0.0872,0.2828 0,0.37 -0.17442,0.1744 -0.59201,-0.1974 -0.74002,0 -0.33095,0.4413 -0.49335,0.9867 -0.74002,1.48 z"
         style="color:#000000;clip-rule:nonzero;display:inline;overflow:visible;visibility:visible;isolation:auto;mix-blend-mode:normal;color-interpolation:sRGB;color-interpolation-filters:linearRGB;solid-color:#000000;solid-opacity:1;fill:#000000;fill-opacity:1;fill-rule:evenodd;stroke:#000000;stroke-width:1.38269389;stroke-linecap:butt;stroke-linejoin:miter;stroke-miterlimit:4;stroke-dasharray:none;stroke-dashoffset:0;stroke-opacity:1;color-rendering:auto;image-rendering:auto;shape-rendering:auto;text-rendering:auto;enable-background:accumulate" />
      <path
         inkscape:connector-curvature="0"
         id="path5922"
         d="m 450.71092,1102.4054 c 0.9867,0 1.97339,0 2.96009,0 0.12333,0 0.24667,0 0.37001,0 0.12333,0 0.25969,-0.055 0.37001,0 0.15601,0.078 0.214,0.292 0.37001,0.37 0.11031,0.055 0.24667,0 0.37001,0 0.12334,0 0.2828,0.087 0.37001,0 0.0872,-0.087 -0.0872,-0.2828 0,-0.37 0.0872,-0.087 0.24667,0 0.37001,0 0.74002,0 1.48005,0 2.22007,0 0.17446,0 1.83328,0.017 1.85005,0 0.0872,-0.087 -0.0872,-0.2828 0,-0.3701 0.0872,-0.087 0.24667,0 0.37001,0 0.12334,0 0.24668,0 0.37001,0 1.11004,0 2.22007,0 3.3301,0 0.12334,0 0.24667,0 0.37001,0 0.12334,0 0.2828,-0.087 0.37001,0 0.0872,0.087 0.0872,0.2828 0,0.3701 -0.0872,0.087 -0.2828,-0.087 -0.37001,0 -0.17442,0.1744 0.11032,0.5193 0,0.74 -0.078,0.156 -0.292,0.214 -0.37001,0.37 -0.0734,0.1467 0.0756,1.0344 0,1.11 -0.49335,0.4934 -0.37001,-0.6167 -0.37001,0.37 0,0.1234 0,0.2467 0,0.37 0,0.1234 0.0872,0.2828 0,0.3701 -0.0872,0.087 -0.2828,-0.087 -0.37001,0 -0.0872,0.087 0.0552,0.2597 0,0.37 -0.078,0.156 -0.29201,0.214 -0.37001,0.37 -0.0552,0.1103 0.0872,0.2828 0,0.37 -0.0872,0.087 -0.2828,-0.087 -0.37001,0 -0.17443,0.1744 0.17442,0.5656 0,0.74 -0.0872,0.087 -0.2828,-0.087 -0.37001,0 -0.17443,0.1744 0.17442,0.5656 0,0.74 -0.0872,0.087 -0.2828,-0.087 -0.37001,0 -0.0872,0.087 0.0551,0.2597 0,0.37 -0.078,0.1561 -0.29201,0.214 -0.37002,0.3701 -0.0551,0.1103 0.0552,0.2597 0,0.37 -1.22717,1.2271 0.17443,-0.3489 -0.37001,0.74 -0.078,0.156 -0.292,0.214 -0.37001,0.37 -0.0733,0.1467 0.0756,1.0344 0,1.11 -0.0872,0.087 -0.2828,-0.087 -0.37001,0 -0.185,0.185 0.18501,0.9251 0,1.1101 -0.0872,0.087 -0.2828,-0.087 -0.37001,0 -0.185,0.185 0.18501,0.925 0,1.11 -0.0872,0.087 -0.2828,-0.087 -0.37001,0 -0.17442,0.1744 0.24667,0.74 0,0.74 -0.12334,0 -0.12334,-0.37 0,-0.37 0.12334,0 0.0872,0.2828 0,0.37 -0.0872,0.087 -0.2828,-0.087 -0.37001,0 -0.0872,0.087 0.0872,0.2828 0,0.37 -0.0872,0.087 -0.2597,-0.055 -0.37001,0 -0.15601,0.078 -0.24668,0.2467 -0.37001,0.37 -0.12334,0.1234 -0.24668,0.2467 -0.37001,0.3701"
         style="color:#000000;clip-rule:nonzero;display:inline;overflow:visible;visibility:visible;isolation:auto;mix-blend-mode:normal;color-interpolation:sRGB;color-interpolation-filters:linearRGB;solid-color:#000000;solid-opacity:1;fill:none;fill-opacity:1;fill-rule:evenodd;stroke:#000000;stroke-width:1.38269389;stroke-linecap:butt;stroke-linejoin:miter;stroke-miterlimit:4;stroke-dasharray:none;stroke-dashoffset:0;stroke-opacity:1;color-rendering:auto;image-rendering:auto;shape-rendering:auto;text-rendering:auto;enable-background:accumulate" />
      <path
         inkscape:connector-curvature="0"
         id="path5924"
         d="m 448.12084,1100.5553 c 0.37001,0.4934 0.74003,0.9867 1.11004,1.48 0.12333,0 0.28279,-0.087 0.37001,0 0.76556,0.7656 -1.16989,-0.03 0.37001,0.7401 0.11031,0.055 0.2828,-0.087 0.37001,0 0.0872,0.087 -0.0552,0.2597 0,0.37 0.078,0.156 0.292,0.214 0.37001,0.37 0.11032,0.2206 -0.17443,0.5656 0,0.74 0.0872,0.087 0.2828,-0.087 0.37001,0 0.0756,0.076 -0.0734,0.9633 0,1.11 0.078,0.1561 0.29201,0.214 0.37001,0.3701 0.11628,0.2325 -0.11628,1.2474 0,1.48 0.078,0.156 0.29201,0.214 0.37001,0.37 0.0158,0.032 0.0158,1.4485 0,1.4801 -0.45722,0.9144 -0.37001,-0.1278 -0.37001,0.74 0,0.1744 0.0168,1.8333 0,1.85 -0.0872,0.087 -0.2828,-0.087 -0.37001,0 -0.0872,0.087 0,0.2467 0,0.37 0,0.1745 0.0168,1.8333 0,1.8501 -0.0872,0.087 -0.2828,-0.087 -0.37001,0 -0.10124,0.1012 0.10036,1.2793 0,1.48 -0.078,0.1561 -0.29201,0.214 -0.37001,0.3701 -0.11032,0.2206 0.11031,0.5193 0,0.74 -0.078,0.156 -0.29201,0.214 -0.37001,0.37 -0.11032,0.2206 0.17442,0.5656 0,0.74 -0.0872,0.087 -0.2828,-0.087 -0.37001,0 -0.089,0.089 0.089,1.391 0,1.48 -0.0872,0.087 -0.2828,-0.087 -0.37001,0 -0.17443,0.1745 0.17442,0.5656 0,0.7401 -0.0872,0.087 -0.2828,-0.087 -0.37001,0 -0.17443,0.1744 0.17442,0.5656 0,0.74 -0.0872,0.087 -0.2828,-0.087 -0.37002,0 -0.185,0.185 0.18501,0.925 0,1.11 -0.0872,0.087 -0.28279,-0.087 -0.37001,0 -0.17442,0.1745 0.17443,0.5656 0,0.74 -0.0872,0.087 -0.2828,-0.087 -0.37001,0 -0.185,0.1851 0.18501,0.9251 0,1.1101 -0.0872,0.087 -0.2828,-0.087 -0.37001,0 -0.17442,0.1744 0.17443,0.5656 0,0.74 -0.0872,0.087 -0.2828,-0.087 -0.37001,0 -0.0872,0.087 0.12334,0.37 0,0.37 -0.12334,0 0,-0.2467 0,-0.37 -0.86336,-0.2467 -1.72671,-0.4933 -2.59007,-0.74 0,-0.1234 0.0872,-0.2828 0,-0.37 -0.17443,-0.1745 -0.51939,0.1103 -0.74002,0 -0.15601,-0.078 -0.214,-0.292 -0.37001,-0.37 -0.11032,-0.055 -0.2597,0.055 -0.37002,0 -0.15601,-0.078 -0.214,-0.292 -0.37001,-0.3701 -0.22063,-0.1103 -0.56559,0.1745 -0.74002,0 -0.0872,-0.087 0.0872,-0.2828 0,-0.37 -0.17442,-0.1744 -0.51939,0.1104 -0.74002,0 -0.15601,-0.078 -0.214,-0.292 -0.37001,-0.37 -0.22063,-0.1103 -0.51939,0.1103 -0.74002,0 -0.15601,-0.078 -0.214,-0.292 -0.37001,-0.37 -0.22064,-0.1103 -0.5656,0.1744 -0.74003,0 -0.0872,-0.087 0.0872,-0.2828 0,-0.37 -0.12988,-0.1299 -1.59447,0.1278 -1.85005,0 -0.15601,-0.078 -0.214,-0.292 -0.37001,-0.37 -0.13381,-0.067 -1.5927,0 -1.85005,0 -0.12334,0 -0.2828,0.087 -0.37002,0 -0.0872,-0.087 0.0872,-0.2828 0,-0.37 -0.0756,-0.076 -0.96332,0.073 -1.11003,0 -0.15601,-0.078 -0.214,-0.292 -0.37001,-0.37 -0.11261,-0.056 -0.94339,0 -1.11003,0 -0.86336,0 -1.72672,0 -2.59008,0 -0.74002,0 -1.48004,0 -2.22006,0 -0.12334,0 -0.2828,-0.087 -0.37001,0 -0.0872,0.087 0.0872,0.2828 0,0.37 -0.18501,0.185 -0.92503,-0.185 -1.11004,0 -0.0872,0.087 0.0872,0.2828 0,0.37 -0.24678,0.2468 -0.49323,-0.2468 -0.74002,0 -0.0872,0.087 0.0872,0.2828 0,0.37 -0.17442,0.1744 -0.51939,-0.1103 -0.74002,0 -0.15601,0.078 -0.214,0.292 -0.37001,0.37 -0.11032,0.055 -0.2597,-0.055 -0.37001,0 -0.15601,0.078 -0.214,0.292 -0.37001,0.37 -0.22063,0.1103 -0.5656,-0.1744 -0.74002,0 -0.0872,0.087 0.0872,0.2828 0,0.37 -0.17443,0.1745 -0.51939,-0.1103 -0.74003,0 -0.15601,0.078 -0.214,0.292 -0.37001,0.37 -0.22063,0.1104 -0.56559,-0.1744 -0.74002,0 -0.0872,0.087 0.0872,0.2828 0,0.3701 -0.0872,0.087 -0.2828,-0.087 -0.37001,0 -0.0872,0.087 0.0872,0.2828 0,0.37 -0.76556,0.7655 0.0299,-1.1699 -0.74002,0.37 -0.0552,0.1103 0.0872,0.2828 0,0.37 -0.0872,0.087 -0.2828,-0.087 -0.37001,0 -0.0872,0.087 0.0872,0.2828 0,0.37 -0.17443,0.1744 -0.5656,-0.1744 -0.74002,0 -0.0872,0.087 0.0872,0.2828 0,0.37 -0.0872,0.087 -0.2597,-0.055 -0.37001,0 -0.15601,0.078 -0.214,0.292 -0.37002,0.37 -0.22063,0.1103 -0.56559,-0.1744 -0.74002,0 -0.0872,0.087 0.0872,0.2828 0,0.37 -0.0872,0.087 -0.2828,-0.087 -0.37001,0 -0.0872,0.087 0.0872,0.2828 0,0.37 -0.0872,0.087 -0.25969,-0.055 -0.37001,0 -0.15601,0.078 -0.214,0.2921 -0.37001,0.3701 -0.11032,0.055 -0.25969,-0.055 -0.37001,0 -0.15601,0.078 -0.214,0.292 -0.37001,0.37 -0.22063,0.1103 -0.5656,-0.1745 -0.74002,0 -0.0872,0.087 0.0872,0.2828 0,0.37 -0.24679,0.2468 -0.49324,-0.2468 -0.74002,0 -0.0872,0.087 0.0872,0.2828 0,0.37 -0.17443,0.1744 -0.51939,-0.1103 -0.74003,0 -0.31202,0.156 -0.428,0.584 -0.74002,0.74 -0.11031,0.055 -0.2828,-0.087 -0.37001,0 -0.0872,0.087 0.0872,0.2828 0,0.37 -0.0522,0.052 -1.03413,0.038 -1.11003,0 -1.5399,-0.7699 0.39555,0.026 -0.37001,-0.74 -0.0872,-0.087 -0.2828,0.087 -0.37001,0 -0.0872,-0.087 0.0872,-0.2828 0,-0.37 -0.0872,-0.087 -0.2828,0.087 -0.37001,0 -0.0872,-0.087 0.0872,-0.2828 0,-0.37 -0.0872,-0.087 -0.24668,0 -0.37002,0 0,-0.1234 0.0872,-0.2828 0,-0.37 -0.0872,-0.087 -0.28279,0.087 -0.37001,0 -0.0872,-0.087 0.0552,-0.2597 0,-0.37 -0.15601,-0.3121 -0.58401,-0.428 -0.74002,-0.7401 -0.0552,-0.1103 0.0872,-0.2828 0,-0.37 -0.0872,-0.087 -0.2828,0.087 -0.37001,0 -0.0872,-0.087 0.0872,-0.2828 0,-0.37 -0.0872,-0.087 -0.25969,0.055 -0.37001,0 -0.3641,-0.182 -1.11594,-1.298 -1.48004,-1.48 -0.11032,-0.055 -0.2828,0.087 -0.37001,0 -0.0872,-0.087 0.0872,-0.2828 0,-0.37 -0.0872,-0.087 -0.2828,0.087 -0.37001,0 -0.0872,-0.087 0.0872,-0.2828 0,-0.3701 -0.24679,-0.2467 -0.49324,0.2468 -0.74003,0 -0.0872,-0.087 -0.12333,-0.37 0,-0.37 0.12334,0 0,0.2467 0,0.37"
         style="color:#000000;clip-rule:nonzero;display:inline;overflow:visible;visibility:visible;isolation:auto;mix-blend-mode:normal;color-interpolation:sRGB;color-interpolation-filters:linearRGB;solid-color:#000000;solid-opacity:1;fill:none;fill-opacity:1;fill-rule:evenodd;stroke:#000000;stroke-width:1.38269389;stroke-linecap:butt;stroke-linejoin:miter;stroke-miterlimit:4;stroke-dasharray:none;stroke-dashoffset:0;stroke-opacity:1;color-rendering:auto;image-rendering:auto;shape-rendering:auto;text-rendering:auto;enable-background:accumulate" />
      <path
         inkscape:connector-curvature="0"
         id="path5926"
         d="m 458.11114,1107.9555 18.87055,0"
         style="color:#000000;clip-rule:nonzero;display:inline;overflow:visible;visibility:visible;isolation:auto;mix-blend-mode:normal;color-interpolation:sRGB;color-interpolation-filters:linearRGB;solid-color:#000000;solid-opacity:1;fill:none;fill-opacity:1;fill-rule:evenodd;stroke:#000080;stroke-width:1.38269389;stroke-linecap:butt;stroke-linejoin:miter;stroke-miterlimit:4;stroke-dasharray:none;stroke-dashoffset:0;stroke-opacity:1;color-rendering:auto;image-rendering:auto;shape-rendering:auto;text-rendering:auto;enable-background:accumulate" />
      <path
         inkscape:connector-curvature="0"
         id="path5930"
         d="m 457.37112,1108.3255 3.33009,8.5103 17.76053,-0.74"
         style="color:#000000;clip-rule:nonzero;display:inline;overflow:visible;visibility:visible;isolation:auto;mix-blend-mode:normal;color-interpolation:sRGB;color-interpolation-filters:linearRGB;solid-color:#000000;solid-opacity:1;fill:none;fill-opacity:1;fill-rule:evenodd;stroke:#000080;stroke-width:1.38269389;stroke-linecap:butt;stroke-linejoin:miter;stroke-miterlimit:4;stroke-dasharray:none;stroke-dashoffset:0;stroke-opacity:1;color-rendering:auto;image-rendering:auto;shape-rendering:auto;text-rendering:auto;enable-background:accumulate" />
      <path
         inkscape:connector-curvature="0"
         id="path5932"
         d="m 475.87166,1107.9555 3.3301,8.1403 -0.74002,15.5404"
         style="color:#000000;clip-rule:nonzero;display:inline;overflow:visible;visibility:visible;isolation:auto;mix-blend-mode:normal;color-interpolation:sRGB;color-interpolation-filters:linearRGB;solid-color:#000000;solid-opacity:1;fill:none;fill-opacity:1;fill-rule:evenodd;stroke:#000080;stroke-width:1.38269389;stroke-linecap:butt;stroke-linejoin:miter;stroke-miterlimit:4;stroke-dasharray:none;stroke-dashoffset:0;stroke-opacity:1;color-rendering:auto;image-rendering:auto;shape-rendering:auto;text-rendering:auto;enable-background:accumulate" />
      <path
         inkscape:connector-curvature="0"
         id="path5934"
         d="m 462.18126,1116.8358 -1.11004,14.8004"
         style="color:#000000;clip-rule:nonzero;display:inline;overflow:visible;visibility:visible;isolation:auto;mix-blend-mode:normal;color-interpolation:sRGB;color-interpolation-filters:linearRGB;solid-color:#000000;solid-opacity:1;fill:none;fill-opacity:1;fill-rule:evenodd;stroke:#000080;stroke-width:1.38269389;stroke-linecap:butt;stroke-linejoin:miter;stroke-miterlimit:4;stroke-dasharray:none;stroke-dashoffset:0;stroke-opacity:1;color-rendering:auto;image-rendering:auto;shape-rendering:auto;text-rendering:auto;enable-background:accumulate" />
      <path
         inkscape:connector-curvature="0"
         id="path5936"
         d="m 456.63109,1108.6955 0,14.4305"
         style="color:#000000;clip-rule:nonzero;display:inline;overflow:visible;visibility:visible;isolation:auto;mix-blend-mode:normal;color-interpolation:sRGB;color-interpolation-filters:linearRGB;solid-color:#000000;solid-opacity:1;fill:none;fill-opacity:1;fill-rule:evenodd;stroke:#000080;stroke-width:1.38269389;stroke-linecap:butt;stroke-linejoin:miter;stroke-miterlimit:4;stroke-dasharray:none;stroke-dashoffset:0;stroke-opacity:1;color-rendering:auto;image-rendering:auto;shape-rendering:auto;text-rendering:auto;enable-background:accumulate" />
      <path
         inkscape:connector-curvature="0"
         id="path5938"
         d="m 479.94178,1116.4658 0.74002,-22.5707"
         style="color:#000000;clip-rule:nonzero;display:inline;overflow:visible;visibility:visible;isolation:auto;mix-blend-mode:normal;color-interpolation:sRGB;color-interpolation-filters:linearRGB;solid-color:#000000;solid-opacity:1;fill:none;fill-opacity:1;fill-rule:evenodd;stroke:#000080;stroke-width:1.38269389;stroke-linecap:butt;stroke-linejoin:miter;stroke-miterlimit:4;stroke-dasharray:none;stroke-dashoffset:0;stroke-opacity:1;color-rendering:auto;image-rendering:auto;shape-rendering:auto;text-rendering:auto;enable-background:accumulate" />
      <path
         inkscape:connector-curvature="0"
         id="path5940"
         d="m 475.50165,1106.8455 1.48004,-18.8706"
         style="color:#000000;clip-rule:nonzero;display:inline;overflow:visible;visibility:visible;isolation:auto;mix-blend-mode:normal;color-interpolation:sRGB;color-interpolation-filters:linearRGB;solid-color:#000000;solid-opacity:1;fill:none;fill-opacity:1;fill-rule:evenodd;stroke:#000080;stroke-width:1.38269389;stroke-linecap:butt;stroke-linejoin:miter;stroke-miterlimit:4;stroke-dasharray:none;stroke-dashoffset:0;stroke-opacity:1;color-rendering:auto;image-rendering:auto;shape-rendering:auto;text-rendering:auto;enable-background:accumulate" />
      <path
         inkscape:connector-curvature="0"
         id="path5942"
         d="m 476.24167,1096.1152 3.3301,4.8101"
         style="color:#000000;clip-rule:nonzero;display:inline;overflow:visible;visibility:visible;isolation:auto;mix-blend-mode:normal;color-interpolation:sRGB;color-interpolation-filters:linearRGB;solid-color:#000000;solid-opacity:1;fill:none;fill-opacity:1;fill-rule:evenodd;stroke:#000080;stroke-width:1.38269389;stroke-linecap:butt;stroke-linejoin:miter;stroke-miterlimit:4;stroke-dasharray:none;stroke-dashoffset:0;stroke-opacity:1;color-rendering:auto;image-rendering:auto;shape-rendering:auto;text-rendering:auto;enable-background:accumulate" />
    </g>
  </g>
</svg>
