<?xml version="1.0" encoding="UTF-8" standalone="no"?>
<!-- Created with Inkscape (http://www.inkscape.org/) -->

<svg
   xmlns:dc="http://purl.org/dc/elements/1.1/"
   xmlns:cc="http://creativecommons.org/ns#"
   xmlns:rdf="http://www.w3.org/1999/02/22-rdf-syntax-ns#"
   xmlns:svg="http://www.w3.org/2000/svg"
   xmlns="http://www.w3.org/2000/svg"
   xmlns:xlink="http://www.w3.org/1999/xlink"
   xmlns:sodipodi="http://sodipodi.sourceforge.net/DTD/sodipodi-0.dtd"
   xmlns:inkscape="http://www.inkscape.org/namespaces/inkscape"
   width="177.16534"
   height="106.29497"
   id="svg2"
   version="1.1"
   inkscape:version="0.91 r13725"
   sodipodi:docname="tuck_jump.svg">
  <defs
     id="defs4" />
  <sodipodi:namedview
     id="base"
     pagecolor="#ffffff"
     bordercolor="#666666"
     borderopacity="1.0"
     inkscape:pageopacity="0.0"
     inkscape:pageshadow="2"
     inkscape:zoom="1.1854695"
     inkscape:cx="-90.34924"
     inkscape:cy="80.745469"
     inkscape:document-units="cm"
     inkscape:current-layer="layer1"
     showgrid="false"
     fit-margin-top="0"
     fit-margin-left="0"
     fit-margin-right="0"
     fit-margin-bottom="0"
     inkscape:window-width="1330"
     inkscape:window-height="747"
     inkscape:window-x="36"
     inkscape:window-y="21"
     inkscape:window-maximized="1"
     units="cm" />
  <metadata
     id="metadata7">
    <rdf:RDF>
      <cc:Work
         rdf:about="">
        <dc:format>image/svg+xml</dc:format>
        <dc:type
           rdf:resource="http://purl.org/dc/dcmitype/StillImage" />
        <dc:title></dc:title>
      </cc:Work>
    </rdf:RDF>
  </metadata>
  <g
     inkscape:label="Layer 1"
     inkscape:groupmode="layer"
     id="layer1"
     transform="translate(-32.228633,-1064.9324)">
    <path
       style="color:#000000;clip-rule:nonzero;display:inline;overflow:visible;visibility:visible;opacity:1;isolation:auto;mix-blend-mode:normal;color-interpolation:sRGB;color-interpolation-filters:linearRGB;solid-color:#000000;solid-opacity:1;fill:none;fill-opacity:1;fill-rule:evenodd;stroke:#000000;stroke-width:1.38269389;stroke-linecap:butt;stroke-linejoin:miter;stroke-miterlimit:4;stroke-dasharray:none;stroke-dashoffset:0;stroke-opacity:1;color-rendering:auto;image-rendering:auto;shape-rendering:auto;text-rendering:auto;enable-background:accumulate"
       d="m 239.36119,1011.8292 c 0,0.3641 -0.0883,0.7391 0,1.0924 0.0222,0.088 0.20873,-0.064 0.27311,0 0.0845,0.085 -0.0846,1.2809 0,1.3654 0.0643,0.064 0.2087,-0.064 0.27308,0 0.0123,0.012 0,1.2367 0,1.3655 0,0.091 -0.0644,0.2087 0,0.2731 0.0644,0.064 0.20873,-0.064 0.2731,0 0.0643,0.064 0,0.1821 0,0.2731 0,0.4552 0,0.9103 0,1.3655 0,0.091 -0.0644,0.2087 0,0.2731 0.0643,0.064 0.20871,-0.064 0.27309,0 0.009,0.01 0,0.753 0,0.8192 0,0.8193 0,1.6386 0,2.4579 0,0.2312 -0.0489,0.9456 0,1.0924 0.0407,0.1221 0.21551,0.1579 0.2731,0.2731 0.0407,0.081 0,0.182 0,0.2731 0,0.091 0,0.182 0,0.273 0,0.3266 -0.0594,1.4604 0,1.6386 0.0643,0.1931 0.22371,0.3487 0.27308,0.5462 0.0662,0.2649 0,0.5462 0,0.8193 0,0.5462 0,1.0924 0,1.6385 0,0.065 -0.0306,1.0312 0,1.0924 0.0576,0.1152 0.21552,0.158 0.27311,0.2731 0.0829,0.1658 -0.0829,1.4728 0,1.6386 0.0576,0.1151 0.21552,0.1579 0.27308,0.2731 0.0861,0.1723 -0.0861,1.1932 0,1.3654 0.0576,0.1152 0.21552,0.158 0.27311,0.2731 0.0866,0.1733 -0.0887,1.1881 0,1.3655 0.0576,0.1152 0.21552,0.158 0.27308,0.2731 0.0813,0.1626 -0.0766,1.1355 0,1.3655 0.0644,0.1931 0.20873,0.3531 0.27311,0.5462 0.0808,0.2423 -0.0894,1.1866 0,1.3654 0.0576,0.1152 0.21552,0.158 0.27308,0.2731 0.0407,0.081 0,0.1821 0,0.2731 0,0.091 0,0.1821 0,0.2731 0,0.4552 0,0.9103 0,1.3655"
       id="path6158"
       inkscape:connector-curvature="0" />
    <image
       sodipodi:absref="/home/maurizio/Downloads/screenshot/Screenshot_2016-06-01-00-54-09.png"
       y="1975.5938"
       x="-626.45453"
       id="image4169"
       xlink:href="file:///home/maurizio/Downloads/screenshot/Screenshot_2016-06-01-00-54-09.png"
       preserveAspectRatio="none"
       height="1280"
       width="720" />
    <image
       sodipodi:absref="/home/maurizio/Downloads/screenshot/Screenshot_2016-06-01-00-54-14.png"
       y="1975.5938"
       x="-1346.4545"
       id="image4180"
       xlink:href="file:///home/maurizio/Downloads/screenshot/Screenshot_2016-06-01-00-54-14.png"
       preserveAspectRatio="none"
       height="1280"
       width="720" />
    <g
       id="g4487"
       transform="matrix(0.98966276,0,0,0.98966276,6.1931147,-135.73335)">
      <path
         inkscape:connector-curvature="0"
         id="path4385"
         d="m 152.10561,1225.1451 c 0,-0.7665 0,-1.5329 0,-2.2993 0,-0.077 0,-0.1533 0,-0.23 0,-0.077 -0.0343,-0.1613 0,-0.2299 0.0485,-0.097 0.18146,-0.133 0.22992,-0.2299 0.035,-0.07 0,-0.5863 0,-0.6898 0,-0.163 -0.0297,-1.3202 0,-1.3796 0.0485,-0.097 0.18145,-0.133 0.22995,-0.23 0.0343,-0.069 -0.0343,-0.1613 0,-0.2299 0.0485,-0.097 0.18145,-0.133 0.22991,-0.2299 0.0686,-0.1371 -0.10837,-0.3515 0,-0.4599 0.0542,-0.054 0.17573,0.054 0.22995,0 0.0542,-0.054 -0.0542,-0.1757 0,-0.2299 0.0542,-0.054 0.17573,0.054 0.22992,0 0.1084,-0.1084 -0.10838,-0.3515 0,-0.4599 0.0542,-0.054 0.17573,0.054 0.22994,0 0.0542,-0.054 -0.0542,-0.1757 0,-0.2299 0.0542,-0.054 0.17573,0.054 0.22992,0 0.0542,-0.054 -0.0542,-0.1757 0,-0.2299 0.0542,-0.054 0.1614,0.034 0.22995,0 0.2759,-0.138 0.41385,-0.5519 0.68978,-0.6898 0.0686,-0.034 0.17573,0.054 0.22992,0 0.0542,-0.054 -0.0542,-0.1758 0,-0.23 0.0542,-0.054 0.17576,0.054 0.22995,0 0.0542,-0.054 -0.0542,-0.1757 0,-0.2299 0.0542,-0.054 0.16136,0.034 0.22991,0 0.19392,-0.097 0.26598,-0.3629 0.45987,-0.4599 0.0686,-0.034 0.17576,0.054 0.22994,0 0.0542,-0.054 -0.0343,-0.1613 0,-0.2299 0.0221,-0.044 0.87571,-0.8977 0.91973,-0.9197 0.0686,-0.034 0.17573,0.054 0.22992,0 0.0542,-0.054 -0.0542,-0.1757 0,-0.2299 0.0542,-0.054 0.16139,0.034 0.22995,0 0.0969,-0.048 0.13296,-0.1815 0.22992,-0.23 0.0605,-0.03 0.79949,0 0.91973,0 0.12023,0 0.85927,-0.03 0.91972,0 0.097,0.049 0.13299,0.1815 0.22992,0.23 0.0912,0.045 0.64279,-0.047 0.68981,0 0.0542,0.054 -0.0542,0.1757 0,0.2299 0.10838,0.1084 0.32276,-0.069 0.45987,0 0.95691,0.4784 -0.24581,-0.016 0.22992,0.4599 0.1084,0.1083 0.35148,-0.1084 0.45986,0 0.0542,0.054 -0.0542,0.1757 0,0.2299 0.0542,0.054 0.16139,-0.034 0.22995,0 0.19388,0.097 0.26595,0.3629 0.45986,0.4598 0.0686,0.034 0.17573,-0.054 0.22992,0 0.0542,0.054 -0.0343,0.1614 0,0.23 0.0485,0.097 0.18145,0.133 0.22994,0.2299 0.0343,0.069 -0.0343,0.1614 0,0.2299 0.0485,0.097 0.18146,0.133 0.22992,0.23 0.0343,0.068 -0.0542,0.1757 0,0.2299 0.0542,0.054 0.17573,-0.054 0.22995,0 0.0542,0.054 -0.0542,0.1757 0,0.2299 0.0542,0.054 0.17573,-0.054 0.22992,0 0.0542,0.054 -0.0542,0.1758 0,0.23 0.0542,0.054 0.17573,-0.054 0.22994,0 0.10838,0.1084 -0.1084,0.3514 0,0.4598 0.0542,0.054 0.17573,-0.054 0.22992,0 0.0542,0.054 -0.0343,0.1614 0,0.23 0.0485,0.097 0.18146,0.1329 0.22995,0.2299 0.0685,0.1371 -0.0686,0.3228 0,0.4599 0.0485,0.097 0.18145,0.1329 0.22992,0.2299 0.0723,0.1445 -0.0723,0.7752 0,0.9197 0.0485,0.097 0.18145,0.133 0.22991,0.2299 0.0723,0.1446 -0.0722,0.7753 0,0.9198 0.0485,0.097 0.18149,0.133 0.22995,0.2299 0.035,0.07 0,0.5862 0,0.6898 0,0.6131 0,1.2263 0,1.8395 0,0.4598 0,0.9197 0,1.3795 0,0.077 0,0.1533 0,0.23 0,0.077 0.0343,0.1613 0,0.2299 -0.0485,0.097 -0.18145,0.133 -0.22995,0.2299 -0.0456,0.091 0.047,0.6428 0,0.6898 -0.0542,0.054 -0.17573,-0.054 -0.22991,0 -0.10841,0.1084 0.0686,0.3228 0,0.4599 -0.0485,0.097 -0.18146,0.133 -0.22992,0.2299 -0.0686,0.1371 0.0685,0.3228 0,0.4599 -0.0485,0.097 -0.18148,0.133 -0.22995,0.2299 -0.0686,0.1371 0.0686,0.3228 0,0.4599 -0.0485,0.097 -0.18145,0.133 -0.22992,0.2299 -0.0343,0.069 0.0343,0.1614 0,0.2299 -0.0485,0.097 -0.18148,0.133 -0.22994,0.23 -0.0343,0.069 0.0542,0.1757 0,0.2299 -0.0542,0.054 -0.17573,-0.054 -0.22992,0 -0.0542,0.054 0.0542,0.1757 0,0.2299 -0.0542,0.054 -0.17576,-0.054 -0.22995,0 -0.0542,0.054 0.0542,0.1758 0,0.23 -0.0542,0.054 -0.17573,-0.054 -0.22992,0 -0.0542,0.054 0.0542,0.1757 0,0.2299 -0.0542,0.054 -0.17575,-0.054 -0.22994,0 -0.47573,0.4757 0.72699,-0.019 -0.22992,0.4599 -0.13711,0.069 -0.35149,-0.1084 -0.45986,0 -0.0542,0.054 0.0542,0.1757 0,0.2299 -0.009,0.01 -0.83529,0 -0.91973,0 -0.10355,0 -0.61982,0.035 -0.68981,0 -0.0969,-0.048 -0.13297,-0.1815 -0.22992,-0.2299 -0.13711,-0.069 -0.35146,0.1084 -0.45987,0 -0.0542,-0.054 0.0542,-0.1758 0,-0.23 -0.0542,-0.054 -0.17573,0.054 -0.22991,0 -0.0542,-0.054 0.0542,-0.1757 0,-0.2299 -0.0542,-0.054 -0.17576,0.054 -0.22995,0 -0.0542,-0.054 0.0542,-0.1757 0,-0.2299 -0.0542,-0.054 -0.16137,0.034 -0.22992,0 -0.0969,-0.049 -0.13299,-0.1815 -0.22994,-0.23 -0.0686,-0.034 -0.17574,0.054 -0.22992,0 -0.0542,-0.054 0.0343,-0.1613 0,-0.2299 -0.47848,-0.9569 0.0158,0.2458 -0.45987,-0.2299 -0.0542,-0.054 0.0542,-0.1758 0,-0.23 -0.1084,-0.1083 -0.32276,0.069 -0.45986,0 -0.27593,-0.1379 -0.41388,-0.5518 -0.68981,-0.6898 -0.0686,-0.034 -0.17573,0.054 -0.22992,0 -0.0542,-0.054 0.0542,-0.1757 0,-0.2299 -0.0542,-0.054 -0.16139,0.034 -0.22995,0 -0.0969,-0.049 -0.13296,-0.1814 -0.22992,-0.2299 -0.0685,-0.034 -0.16139,0.034 -0.22994,0 -0.19389,-0.097 -0.26595,-0.3629 -0.45987,-0.4599 -0.1371,-0.068 -0.35146,0.1084 -0.45986,0 -0.0542,-0.054 0.0542,-0.1757 0,-0.2299 -0.0542,-0.054 -0.16137,0.034 -0.22992,0 -0.097,-0.049 -0.13299,-0.1815 -0.22992,-0.2299 -0.0685,-0.034 -0.16139,0.034 -0.22994,0 -0.95691,-0.4785 0.24581,0.016 -0.22992,-0.4599 -0.0542,-0.054 -0.16139,0.034 -0.22995,0 -0.0969,-0.048 -0.15329,-0.1533 -0.22992,-0.2299 -0.0766,-0.077 -0.18148,-0.133 -0.22994,-0.23 -0.0343,-0.068 0.0542,-0.1757 0,-0.2299 -0.0542,-0.054 -0.17573,0.054 -0.22992,0 -0.0542,-0.054 0,-0.1533 0,-0.2299 -0.30659,-0.23 -0.61316,-0.4599 -0.91973,-0.6898 z"
         style="color:#000000;clip-rule:nonzero;display:inline;overflow:visible;visibility:visible;isolation:auto;mix-blend-mode:normal;color-interpolation:sRGB;color-interpolation-filters:linearRGB;solid-color:#000000;solid-opacity:1;fill:#000000;fill-opacity:1;fill-rule:evenodd;stroke:#000000;stroke-width:1.38269389;stroke-linecap:butt;stroke-linejoin:miter;stroke-miterlimit:4;stroke-dasharray:none;stroke-dashoffset:0;stroke-opacity:1;color-rendering:auto;image-rendering:auto;shape-rendering:auto;text-rendering:auto;enable-background:accumulate" />
      <path
         inkscape:connector-curvature="0"
         id="path4387"
         d="m 155.7845,1229.0539 c -0.28125,0.6912 -0.22992,1.3537 -0.22992,2.0694 0,0.077 0,0.1533 0,0.2299 0,0.077 0.0343,0.1614 0,0.23 -0.0485,0.097 -0.18145,0.1329 -0.22995,0.2299 -0.0343,0.068 0.0343,0.1614 0,0.2299 -0.0485,0.097 -0.18145,0.133 -0.22991,0.23 -0.0725,0.145 0.0725,1.0046 0,1.1496 -0.0485,0.097 -0.18146,0.133 -0.22995,0.2299 -0.092,0.184 0.092,0.5059 0,0.6898 -0.0485,0.097 -0.18145,0.133 -0.22992,0.23 -0.092,0.1839 0.092,0.5058 0,0.6898 -0.0485,0.097 -0.18145,0.1329 -0.22992,0.2299 -0.0685,0.1371 0.0685,0.3228 0,0.4599 -0.0485,0.097 -0.18148,0.1329 -0.22994,0.2299 -0.0725,0.145 0.0725,1.0046 0,1.1496 -0.0485,0.097 -0.18146,0.133 -0.22992,0.23 -0.0698,0.1396 0.0698,1.24 0,1.3796 -0.0485,0.097 -0.18148,0.133 -0.22995,0.2299 -0.0686,0.1371 0.0686,0.3228 0,0.4599 -0.0485,0.097 -0.18145,0.1329 -0.22992,0.2299 -0.0686,0.1371 0.0686,0.3228 0,0.4599 -0.0485,0.097 -0.18148,0.1329 -0.22994,0.2299 -0.0686,0.1371 0.0685,0.3227 0,0.4599 -0.0485,0.097 -0.18146,0.1329 -0.22992,0.2299 -0.0686,0.1371 0.0686,0.3227 0,0.4598 -0.0485,0.097 -0.18145,0.133 -0.22995,0.23 -0.0343,0.068 0.0343,0.1614 0,0.2299 -0.0485,0.097 -0.18145,0.133 -0.22991,0.2299 -0.0343,0.069 0.0243,0.1573 0,0.23 -0.0542,0.1626 -0.17576,0.2973 -0.22995,0.4598 -0.0715,0.2145 0.0708,0.9372 0,1.1497 -0.0343,0.1028 -0.18145,0.133 -0.22992,0.2299 -0.0723,0.1445 0.0723,0.7752 0,0.9198 -0.0485,0.097 -0.18145,0.1329 -0.22994,0.2299 -0.0686,0.1371 0.0686,0.3227 0,0.4598 -0.0485,0.097 -0.15327,0.1533 -0.22992,0.23 0,0.1533 0.0485,0.3144 0,0.4598 -0.0343,0.1029 -0.18146,0.133 -0.22995,0.23 -0.0678,0.1356 0.0527,0.5316 0,0.6898 -0.0542,0.1626 -0.17573,0.2972 -0.22992,0.4598 -0.0243,0.073 0.0343,0.1614 0,0.23 -0.0485,0.097 -0.18145,0.1329 -0.22994,0.2299 -0.0343,0.069 0.0343,0.1614 0,0.2299 -0.0485,0.097 -0.18146,0.133 -0.22992,0.23 -0.0686,0.1371 0.0685,0.3227 0,0.4598 -0.0485,0.097 -0.18146,0.133 -0.22995,0.23 -0.0686,0.1371 0.10841,0.3514 0,0.4598 -0.0542,0.054 -0.17573,-0.054 -0.22992,0 -0.0807,0.081 0.0794,0.9909 0,1.1497 -0.0485,0.097 -0.18145,0.133 -0.22994,0.2299 -0.0722,0.1445 0.0723,0.7752 0,0.9197 -0.0485,0.097 -0.18146,0.133 -0.22992,0.23 -0.0686,0.1371 0.0686,0.3227 0,0.4598 -0.0485,0.097 -0.18146,0.133 -0.22992,0.23 -0.12244,0.2448 0.12241,0.215 0,0.4598 -0.0485,0.097 -0.18148,0.133 -0.22995,0.23 -0.0725,0.145 0.0725,1.0046 0,1.1496 -0.0485,0.097 -0.18145,0.133 -0.22991,0.2299 -0.0343,0.069 0.0343,0.1614 0,0.23 -0.0485,0.097 -0.18149,0.133 -0.22995,0.2299 -0.0343,0.069 0.0343,0.1614 0,0.2299 -0.0485,0.097 -0.18145,0.133 -0.22992,0.23 -0.0343,0.069 0,0.1533 0,0.2299 0,0.077 0,0.1533 0,0.2299 0,0.5393 0.0542,-0.1084 -0.22994,0.4599 -0.0343,0.069 0.0343,0.1614 0,0.2299 -0.0485,0.097 -0.18146,0.133 -0.22992,0.23 -0.0686,0.1371 0.0686,0.3227 0,0.4598 -0.0485,0.097 -0.18146,0.133 -0.22995,0.23 -0.0686,0.1371 0.1533,0.4598 0,0.4598 -0.0767,0 0,-0.1533 0,-0.2299"
         style="color:#000000;clip-rule:nonzero;display:inline;overflow:visible;visibility:visible;isolation:auto;mix-blend-mode:normal;color-interpolation:sRGB;color-interpolation-filters:linearRGB;solid-color:#000000;solid-opacity:1;fill:none;fill-opacity:1;fill-rule:evenodd;stroke:#000000;stroke-width:1.38269389;stroke-linecap:butt;stroke-linejoin:miter;stroke-miterlimit:4;stroke-dasharray:none;stroke-dashoffset:0;stroke-opacity:1;color-rendering:auto;image-rendering:auto;shape-rendering:auto;text-rendering:auto;enable-background:accumulate" />
      <path
         inkscape:connector-curvature="0"
         id="path4389"
         d="m 143.59813,1259.8647 c 0.30657,-0.1532 0.6015,-0.3325 0.91973,-0.4598 0.11939,-0.048 1.1705,0 1.3796,0 0.99637,0 1.99272,0 2.9891,0 1.2263,0 2.45262,0 3.67892,0 0.53648,0 1.07299,0 1.60951,0 0.10355,0 0.61981,-0.035 0.68978,0 0.097,0.048 0.13299,0.1814 0.22995,0.2299 0.1371,0.069 0.35146,-0.1084 0.45986,0 0.0542,0.054 0.0542,0.1757 0,0.2299 -0.0542,0.054 -0.17573,-0.054 -0.22995,0 -0.0542,0.054 0.0343,0.1614 0,0.23 -0.2841,0.5682 -0.22991,-0.079 -0.22991,0.4598 0,0.5393 0.0542,-0.1084 -0.22995,0.4599 -0.0343,0.069 0.0542,0.1757 0,0.2299 -0.0542,0.054 -0.17573,-0.054 -0.22992,0 -0.1084,0.1084 0.10841,0.3515 0,0.4599 -0.0542,0.054 -0.17573,-0.054 -0.22992,0 -0.0542,0.054 0.0343,0.1614 0,0.2299 -0.76259,0.7626 0.10838,-0.2168 -0.22994,0.4599 -0.13795,0.2759 -0.55183,0.4139 -0.68979,0.6898 -0.0343,0.068 0.0542,0.1757 0,0.2299 -0.0542,0.054 -0.17575,-0.054 -0.22994,0 -0.0542,0.054 0.0343,0.1614 0,0.2299 -0.76259,0.7626 0.1084,-0.2167 -0.22992,0.4599 -0.0485,0.097 -0.1533,0.1533 -0.22995,0.2299 -0.0766,0.077 -0.13299,0.1815 -0.22991,0.23 -0.0686,0.034 -0.17576,-0.054 -0.22995,0 -0.0542,0.054 0.0343,0.1614 0,0.2299 -0.0969,0.1939 -0.36291,0.266 -0.45986,0.4599 -0.0343,0.069 0.0343,0.1613 0,0.2299 -0.0485,0.097 -0.18146,0.133 -0.22992,0.2299 -0.0343,0.069 0.0343,0.1614 0,0.23 -0.0485,0.097 -0.18146,0.1329 -0.22995,0.2299 -0.0343,0.069 0.0343,0.1614 0,0.2299 -0.0485,0.097 -0.18145,0.133 -0.22992,0.23 -0.092,0.1839 0.092,0.5058 0,0.6898 -0.0485,0.097 -0.18145,0.1329 -0.22994,0.2299 -0.0686,0.1371 0.1084,0.3515 0,0.4598 -0.0542,0.054 -0.17573,-0.054 -0.22992,0 -0.10841,0.1084 0.0685,0.3228 0,0.4599 -0.0485,0.097 -0.18146,0.133 -0.22995,0.2299 -0.0343,0.069 0.0343,0.1614 0,0.23 -0.0485,0.097 -0.18145,0.133 -0.22992,0.2299 -0.0686,0.1371 0.0485,0.3144 0,0.4599 -0.0542,0.1626 -0.17573,0.2972 -0.22994,0.4598 -0.0485,0.1455 0.0686,0.3228 0,0.4599 -0.0485,0.097 -0.18146,0.133 -0.22992,0.2299 -0.0343,0.069 0.0343,0.1614 0,0.23 -0.0485,0.097 -0.18146,0.1329 -0.22992,0.2299 -0.092,0.1839 0.092,0.5058 0,0.6898 -0.0485,0.097 -0.18148,0.133 -0.22995,0.2299 -0.0343,0.069 0.0343,0.1614 0,0.2299 -0.0485,0.097 -0.18145,0.133 -0.22991,0.23 -0.0343,0.069 0.0343,0.1614 0,0.2299 -0.0485,0.097 -0.18149,0.133 -0.22995,0.2299 -0.092,0.184 0.092,0.5059 0,0.6898 -0.0485,0.097 -0.18145,0.133 -0.22992,0.23 -0.0686,0.1371 0.10838,0.3514 0,0.4598 -0.0542,0.054 -0.17576,-0.054 -0.22994,0 -0.0542,0.054 0.0343,0.1614 0,0.23 -0.0485,0.097 -0.18146,0.1329 -0.22992,0.2299 -0.0343,0.068 0.0343,0.1614 0,0.2299 -0.0485,0.097 -0.18146,0.133 -0.22995,0.23 -0.0343,0.069 0.0343,0.1613 0,0.2299 -0.0485,0.097 -0.18145,0.133 -0.22992,0.2299 -0.0343,0.069 0,0.1533 0,0.2299 -0.0767,0.077 -0.18145,0.133 -0.22994,0.23 -0.0343,0.068 0.0343,0.1614 0,0.2299 -0.0485,0.097 -0.18146,0.133 -0.22992,0.2299 -0.0343,0.069 0.0542,0.1758 0,0.23 -0.0542,0.054 -0.17573,-0.054 -0.22995,0 -0.10837,0.1084 0.0686,0.3227 0,0.4598 -0.0969,0.1939 -0.36291,0.266 -0.45986,0.4599 -0.0343,0.069 0.0542,0.1757 0,0.2299 -0.0542,0.054 -0.17573,-0.054 -0.22992,0 -0.1084,0.1084 0.10838,0.3515 0,0.4599 -0.0542,0.054 -0.17573,-0.054 -0.22995,0 -0.10837,0.1084 0.10841,0.3515 0,0.4599 -0.0542,0.054 -0.17573,-0.054 -0.22991,0 -0.0542,0.054 0.0343,0.1613 0,0.2299 -0.0485,0.097 -0.18146,0.133 -0.22995,0.2299 -0.0343,0.069 0.0542,0.1758 0,0.23 -0.0542,0.054 -0.17573,-0.054 -0.22992,0 -0.0542,0.054 0.0542,0.1757 0,0.2299 -0.0542,0.054 -0.17573,-0.054 -0.22994,0 -0.0542,0.054 -0.0542,0.1757 0,0.2299 0.0542,0.054 0.17575,-0.054 0.22994,0 0.0542,0.054 -0.0343,0.1614 0,0.2299 0.0485,0.097 0.18146,0.133 0.22992,0.23 0.0343,0.068 -0.0542,0.1757 0,0.2299 0.0542,0.054 0.17576,-0.054 0.22995,0 0.0542,0.054 -0.0343,0.1614 0,0.2299 0.76258,0.7626 -0.10841,-0.2167 0.22991,0.4599 0.0485,0.097 0.18146,0.133 0.22995,0.2299 0.0686,0.1371 -0.1084,0.3515 0,0.4599 0.0542,0.054 0.17573,-0.054 0.22992,0 0.0542,0.054 -0.0542,0.1757 0,0.2299 0.0542,0.054 0.17576,-0.054 0.22994,0 0.0542,0.054 -0.0343,0.1614 0,0.23 0.76259,0.7626 -0.1084,-0.2168 0.22992,0.4598 0.0485,0.097 0.18146,0.133 0.22995,0.23 0.0343,0.068 -0.0343,0.1613 0,0.2299 0.0485,0.097 0.18145,0.133 0.22992,0.2299 0.0686,0.1371 -0.0686,0.3228 0,0.4599 0.0485,0.097 0.18145,0.133 0.22994,0.2299 0.0343,0.069 0,0.1533 0,0.2299 0.0767,0.077 0.18146,0.133 0.22992,0.23 0.0686,0.1371 -0.10838,0.3515 0,0.4598 0.0542,0.054 0.17573,-0.054 0.22995,0 0.0542,0.054 -0.0343,0.1614 0,0.23 0.0485,0.097 0.18145,0.133 0.22992,0.2299 0.0343,0.069 -0.0343,0.1614 0,0.2299 0.0485,0.097 0.18145,0.133 0.22994,0.23 0.0343,0.068 -0.0343,0.1613 0,0.2299 0.0485,0.097 0.18146,0.133 0.22992,0.2299 0.0343,0.069 -0.0343,0.1614 0,0.23 0.0485,0.097 0.18145,0.1329 0.22995,0.2299 0.0685,0.1371 -0.0686,0.3228 0,0.4599 0.0485,0.097 0.18145,0.1329 0.22991,0.2299 0.0686,0.1371 -0.10837,0.3515 0,0.4599 0.0542,0.054 0.19566,-0.069 0.22995,0 0.0685,0.1371 -0.0485,0.3144 0,0.4598 0.0343,0.1028 0.18145,0.133 0.22992,0.2299 0.0686,0.1372 -0.0686,0.3228 0,0.4599 0.0485,0.097 0.18145,0.133 0.22992,0.2299 0.0686,0.1371 -0.0686,0.3228 0,0.4599 0.0485,0.097 0.18148,0.133 0.22994,0.2299 0.092,0.184 -0.092,0.5059 0,0.6898 0.0485,0.097 0.18146,0.133 0.22992,0.23 0.0343,0.069 0.0767,0.2299 0,0.2299 -0.0766,0 0,-0.1533 0,-0.2299 0,-0.077 -0.0343,-0.1614 0,-0.23 0.28414,-0.5682 0.22995,0.079 0.22995,-0.4598"
         style="color:#000000;clip-rule:nonzero;display:inline;overflow:visible;visibility:visible;isolation:auto;mix-blend-mode:normal;color-interpolation:sRGB;color-interpolation-filters:linearRGB;solid-color:#000000;solid-opacity:1;fill:none;fill-opacity:1;fill-rule:evenodd;stroke:#000000;stroke-width:1.38269389;stroke-linecap:butt;stroke-linejoin:miter;stroke-miterlimit:4;stroke-dasharray:none;stroke-dashoffset:0;stroke-opacity:1;color-rendering:auto;image-rendering:auto;shape-rendering:auto;text-rendering:auto;enable-background:accumulate" />
      <path
         inkscape:connector-curvature="0"
         id="path4391"
         d="m 153.02534,1256.4158 c 0.22139,0.6855 0.80688,-0.1714 1.14965,0 0.097,0.048 0.13299,0.1814 0.22994,0.2299 0.1445,0.072 0.77521,-0.072 0.9197,0 0.097,0.048 0.13299,0.1815 0.22995,0.2299 0.0831,0.042 0.98973,0 1.14965,0 0.0767,0 0.17576,-0.054 0.22994,0 0.0542,0.054 -0.0542,0.1758 0,0.23 0.047,0.047 0.59864,-0.046 0.68979,0 0.097,0.048 0.13299,0.1814 0.22994,0.2299 0.0594,0.03 1.21659,0 1.3796,0 0.53921,0 -0.10841,-0.054 0.45983,0.2299 0.13964,0.07 1.23998,-0.07 1.3796,0 0.097,0.049 0.13299,0.1815 0.22994,0.23 0.07,0.035 0.58623,0 0.68978,0 0.53924,0 -0.10837,-0.054 0.45987,0.2299 0.13961,0.07 1.23998,-0.07 1.37959,0 0.097,0.048 0.13299,0.1814 0.22995,0.2299 0.0911,0.046 0.64276,-0.047 0.68978,0 0.0542,0.054 -0.0542,0.1758 0,0.23 0.0807,0.081 0.99084,-0.08 1.14965,0 0.0969,0.048 0.13299,0.1814 0.22994,0.2299 0.14507,0.073 1.00461,-0.072 1.14965,0 0.097,0.049 0.13299,0.1814 0.22995,0.2299 0.0605,0.03 0.79949,0 0.91973,0 1.04669,0 0.0131,-0.1084 0.68978,0.2299 0.0685,0.034 0.1533,0 0.22992,0 0.0767,0 0.15329,0 0.22994,0 0.38322,0 0.76643,0 1.14965,0 0.0767,0 0.16139,-0.034 0.22995,0 0.0969,0.049 0.13299,0.1815 0.22991,0.23 0.12474,0.062 0.85682,-0.063 0.91973,0 0.10841,0.1084 -0.10837,0.3514 0,0.4598 0.0542,0.054 0.22995,-0.077 0.22995,0 0,0.1084 -0.18146,0.133 -0.22995,0.23 -0.0343,0.068 0.0542,0.1757 0,0.2299 -0.0542,0.054 -0.17573,-0.054 -0.22992,0 -0.1084,0.1084 0.0686,0.3228 0,0.4599 -0.0485,0.097 -0.18145,0.1329 -0.22994,0.2299 -0.0343,0.069 0.0542,0.1757 0,0.2299 -0.0542,0.054 -0.17573,-0.054 -0.22992,0 -0.1084,0.1084 0.0685,0.3228 0,0.4599 -0.0969,0.1939 -0.36291,0.266 -0.45986,0.4599 -0.0343,0.069 0.0343,0.1613 0,0.2299 -0.52616,1.0523 0.0953,-0.9757 -0.45987,0.6898 -0.0243,0.073 0.0343,0.1614 0,0.2299 -0.13795,0.2759 -0.55183,0.4139 -0.68981,0.6898 -0.0343,0.069 0.0343,0.1614 0,0.2299 -0.0485,0.097 -0.18145,0.133 -0.22992,0.23 -0.0343,0.068 0.0343,0.1614 0,0.2299 -0.0485,0.097 -0.19565,0.1271 -0.22994,0.2299 -0.0485,0.1455 0.0485,0.3145 0,0.4599 -0.0343,0.1028 -0.18146,0.133 -0.22992,0.2299 -0.0343,0.069 0.0343,0.1614 0,0.23 -0.0485,0.097 -0.19566,0.1271 -0.22992,0.2299 -0.0485,0.1454 0.0485,0.3144 0,0.4599 -0.0686,0.2056 -0.36294,0.2659 -0.45986,0.4598 -0.0686,0.1371 0.0686,0.3228 0,0.4599 -0.0485,0.097 -0.18149,0.133 -0.22995,0.2299 -0.0343,0.069 0,0.1533 0,0.2299 -0.0767,0.077 -0.18145,0.133 -0.22992,0.23 -0.0343,0.069 0.0542,0.1757 0,0.2299 -0.0542,0.054 -0.17576,-0.054 -0.22994,0 -0.0542,0.054 0.0343,0.1614 0,0.2299 -0.097,0.1939 -0.36291,0.266 -0.45987,0.4599 -0.0686,0.1371 0.0685,0.3228 0,0.4599 -0.0485,0.097 -0.15327,0.1533 -0.22992,0.2299 0,0.1533 0.0485,0.3144 0,0.4599 -0.0343,0.1028 -0.18145,0.1329 -0.22994,0.2299 -0.0343,0.068 0.0542,0.1757 0,0.2299 -0.47573,0.4758 0.0185,-0.727 -0.45987,0.23 -0.0343,0.069 0.0343,0.1613 0,0.2299 -0.52335,0.5233 -0.0608,-0.048 -0.22992,0.4598 -0.55515,1.6655 0.0663,-0.3625 -0.45986,0.6898 -0.0343,0.069 0.0343,0.1614 0,0.23 -0.0485,0.097 -0.18146,0.133 -0.22995,0.2299 -0.0685,0.1371 0.10841,0.3515 0,0.4599 -0.0542,0.054 -0.17573,-0.054 -0.22991,0 -0.0542,0.054 0.0343,0.1614 0,0.2299 -0.0485,0.097 -0.18146,0.133 -0.22995,0.2299 -0.0343,0.069 0.0343,0.1614 0,0.23 -0.0485,0.097 -0.18146,0.1329 -0.22992,0.2299 -0.0685,0.1371 0.0686,0.3228 0,0.4599 -0.0485,0.097 -0.18145,0.1329 -0.22995,0.2299 -0.0343,0.068 0.0343,0.1614 0,0.2299 -0.0485,0.097 -0.18145,0.133 -0.22991,0.23 -0.0343,0.069 0.0343,0.1613 0,0.2299 -0.0485,0.097 -0.18146,0.133 -0.22992,0.2299 -0.0686,0.1371 0.0685,0.3228 0,0.4599 -0.0485,0.097 -0.18148,0.133 -0.22995,0.2299 -0.0343,0.069 0.0542,0.1757 0,0.2299 -0.0542,0.054 -0.17573,-0.054 -0.22992,0 -0.0542,0.054 0.0542,0.1758 0,0.23 -0.0542,0.054 -0.22994,-0.077 -0.22994,0 0,0.1084 0.18145,0.133 0.22994,0.2299 0.0343,0.069 -0.0542,0.1757 0,0.2299 0.0542,0.054 0.16137,-0.034 0.22992,0 0.097,0.048 0.1533,0.1533 0.22995,0.23 0.0766,0.077 0.18145,0.133 0.22992,0.2299 0.0343,0.069 -0.0542,0.1757 0,0.2299 0.0542,0.054 0.17573,-0.054 0.22991,0 0.0542,0.054 -0.0542,0.1758 0,0.23 0.0542,0.054 0.17576,-0.054 0.22995,0 0.0542,0.054 -0.0343,0.1613 0,0.2299 0.0485,0.097 0.18146,0.133 0.22992,0.2299 0.0343,0.069 -0.0542,0.1758 0,0.23 0.0542,0.054 0.17576,-0.054 0.22995,0 0.0542,0.054 -0.0542,0.1757 0,0.2299 0.0542,0.054 0.15329,0 0.22991,0 0,0.077 -0.0542,0.1757 0,0.2299 0.0542,0.054 0.17576,-0.054 0.22995,0 0.10838,0.1084 -0.1084,0.3515 0,0.4599 0.0542,0.054 0.17573,-0.054 0.22992,0 0.0542,0.054 -0.0343,0.1614 0,0.2299 0.0485,0.097 0.18145,0.133 0.22994,0.2299 0.0343,0.069 -0.0343,0.1614 0,0.23 0.47846,0.9569 -0.0158,-0.2458 0.45987,0.2299 0.0542,0.054 -0.0542,0.1757 0,0.2299 0.0542,0.054 0.17573,-0.054 0.22992,0 0.0542,0.054 -0.0343,0.1614 0,0.23 0.47845,0.9569 -0.0158,-0.2458 0.45986,0.2299 0.0542,0.054 -0.0542,0.1757 0,0.2299 0.0542,0.054 0.17573,-0.054 0.22995,0 0.0542,0.054 -0.0542,0.1758 0,0.23 0.0542,0.054 0.17573,-0.054 0.22992,0 0.0542,0.054 -0.0343,0.1613 0,0.2299 0.0969,0.1939 0.3629,0.266 0.45986,0.4599 0.0343,0.069 -0.0343,0.1613 0,0.2299 0.0485,0.097 0.18145,0.133 0.22995,0.2299 0.0343,0.069 -0.0542,0.1758 0,0.23 0.0542,0.054 0.17573,-0.054 0.22991,0 0.0542,0.054 -0.0542,0.1757 0,0.2299 0.0542,0.054 0.17573,-0.054 0.22995,0 0.0542,0.054 -0.0542,0.1757 0,0.2299 0.0542,0.054 0.17573,-0.054 0.22992,0 0.0542,0.054 -0.0343,0.1614 0,0.23 0.0485,0.097 0.18145,0.1329 0.22992,0.2299 0.0685,0.1371 -0.10838,0.3515 0,0.4598 0.30659,0.3066 0.22994,-0.3832 0.22994,0.23"
         style="color:#000000;clip-rule:nonzero;display:inline;overflow:visible;visibility:visible;isolation:auto;mix-blend-mode:normal;color-interpolation:sRGB;color-interpolation-filters:linearRGB;solid-color:#000000;solid-opacity:1;fill:none;fill-opacity:1;fill-rule:evenodd;stroke:#000000;stroke-width:1.38269389;stroke-linecap:butt;stroke-linejoin:miter;stroke-miterlimit:4;stroke-dasharray:none;stroke-dashoffset:0;stroke-opacity:1;color-rendering:auto;image-rendering:auto;shape-rendering:auto;text-rendering:auto;enable-background:accumulate" />
      <path
         inkscape:connector-curvature="0"
         id="path4393"
         d="m 160.84301,1232.9627 c -0.30657,-0.077 -0.60987,-0.1679 -0.91973,-0.2299 -0.25565,-0.051 -0.651,0 -0.91973,0 -0.68978,0 -1.37959,0 -2.06938,0 -0.0909,0 -1.05146,-0.049 -1.14967,0 -0.0969,0.049 -0.13296,0.1815 -0.22992,0.2299 -0.0686,0.034 -0.1533,0 -0.22995,0 -0.15327,0 -0.30656,0 -0.45986,0 -0.76643,0 -1.53286,0 -2.29929,0 -0.0767,0 -0.1533,0 -0.22995,0 -0.0767,0 -0.17573,-0.054 -0.22992,0 -0.0542,0.054 0.0542,0.1758 0,0.23 -0.0542,0.054 -0.1533,0 -0.22994,0 -0.0767,0 -0.15327,0 -0.22992,0 -1.14968,0 -2.29933,0 -3.44897,0 -0.53924,0 0.10837,-0.054 -0.45987,0.2299 -0.0685,0.034 -0.15329,0 -0.22994,0 -0.0767,0 -0.15327,0 -0.22992,0 -0.45987,0 -0.91973,0 -1.37959,0 -0.0767,0 -0.1533,0 -0.22995,0 -0.0766,0 -0.16137,-0.034 -0.22992,0 -0.28413,0.1421 -0.22994,0.222 -0.22994,0.4599"
         style="color:#000000;clip-rule:nonzero;display:inline;overflow:visible;visibility:visible;isolation:auto;mix-blend-mode:normal;color-interpolation:sRGB;color-interpolation-filters:linearRGB;solid-color:#000000;solid-opacity:1;fill:none;fill-opacity:1;fill-rule:evenodd;stroke:#000000;stroke-width:1.38269389;stroke-linecap:butt;stroke-linejoin:miter;stroke-miterlimit:4;stroke-dasharray:none;stroke-dashoffset:0;stroke-opacity:1;color-rendering:auto;image-rendering:auto;shape-rendering:auto;text-rendering:auto;enable-background:accumulate" />
      <path
         inkscape:connector-curvature="0"
         id="path4395"
         d="m 143.59813,1232.9627 c 1.31963,0.078 0.27528,0.7805 0.45987,1.1497 0.0485,0.097 0.18145,0.133 0.22994,0.2299 0.0343,0.069 -0.0343,0.1614 0,0.23 0.0485,0.097 0.18146,0.133 0.22992,0.2299 0.0686,0.1371 -0.0686,0.3228 0,0.4599 0.0485,0.097 0.18146,0.1329 0.22995,0.2299 0.0685,0.1371 -0.0485,0.3144 0,0.4599 0.0542,0.1625 0.17573,0.2972 0.22992,0.4598 0.0243,0.073 -0.0343,0.1614 0,0.23 0.0485,0.097 0.18145,0.1329 0.22992,0.2299 0.0343,0.069 0,0.1533 0,0.2299 0,0.1533 -0.0485,0.3145 0,0.4599 0.0686,0.2056 0.39131,0.2542 0.45986,0.4598 0.0485,0.1455 -0.0485,0.3145 0,0.4599 0.0343,0.1028 0.18148,0.133 0.22995,0.2299 0.0686,0.1371 -0.0686,0.3228 0,0.4599 0.0485,0.097 0.18145,0.133 0.22991,0.2299 0.0794,0.1589 -0.0807,1.069 0,1.1497 0.17977,0.1797 0.40001,-0.2 0.45987,-0.2299 0.0686,-0.034 0.16139,0.034 0.22994,0 0.097,-0.049 0.13299,-0.1815 0.22992,-0.23 0.42912,-0.2145 0.0308,0.2146 0.45987,0 0.097,-0.048 0.13299,-0.1814 0.22994,-0.2299 0.18394,-0.092 0.50585,0.092 0.68979,0 0.097,-0.048 0.13299,-0.1815 0.22994,-0.2299 0.13711,-0.069 0.32276,0.069 0.45987,0 0.0969,-0.048 0.13296,-0.1815 0.22991,-0.23 0.13711,-0.068 0.32276,0.069 0.45987,0 0.0969,-0.048 0.13299,-0.1814 0.22992,-0.2299 0.1371,-0.069 0.32276,0.069 0.45986,0 0.097,-0.049 0.13299,-0.1815 0.22995,-0.2299 0.18393,-0.092 0.50585,0.092 0.68978,0 0.097,-0.049 0.13299,-0.1815 0.22995,-0.23 0.24537,-0.1227 0.21449,0.1227 0.45986,0 0.0969,-0.048 0.13299,-0.1814 0.22992,-0.2299 0.18396,-0.092 0.50585,0.092 0.68981,0 0.0969,-0.048 0.13296,-0.1815 0.22992,-0.2299 0.1371,-0.069 0.32276,0.069 0.45986,0 0.097,-0.048 0.13299,-0.1815 0.22995,-0.23 0.1371,-0.068 0.32276,0.069 0.45986,0 0.0969,-0.048 0.13297,-0.1814 0.22992,-0.2299 0.0686,-0.034 0.16139,0.034 0.22992,0 0.097,-0.049 0.13299,-0.1814 0.22995,-0.2299 0.0912,-0.046 0.64279,0.047 0.68978,0 0.0542,-0.054 -0.0542,-0.1758 0,-0.23 0.0542,-0.054 0.16139,0.034 0.22994,0 0.097,-0.048 0.13299,-0.1814 0.22992,-0.2299 0.0686,-0.034 0.1614,0.034 0.22995,0 0.0969,-0.048 0.13299,-0.1814 0.22992,-0.2299 0.18396,-0.092 0.50585,0.092 0.68981,0 0.0969,-0.048 0.13296,-0.1815 0.22992,-0.2299 0.0912,-0.046 0.64279,0.047 0.68981,0 0.0542,-0.054 -0.0542,-0.1758 0,-0.23 0.047,-0.047 0.5986,0.046 0.68978,0 0.0969,-0.049 0.13299,-0.1814 0.22995,-0.2299 0.0685,-0.034 0.16136,0.034 0.22991,0 0.097,-0.049 0.13299,-0.1815 0.22992,-0.2299 0.13711,-0.069 0.35149,0.1083 0.45987,0 0.0542,-0.054 -0.0542,-0.1758 0,-0.23 0.1084,-0.1084 0.35148,0.1084 0.45986,0 0.0542,-0.054 -0.0542,-0.1757 0,-0.2299 0.1084,-0.1084 0.35149,0.1084 0.45987,0 0.0542,-0.054 -0.0542,-0.1757 0,-0.2299 0.0542,-0.054 0.16139,0.034 0.22994,0 0.097,-0.048 0.13299,-0.1815 0.22992,-0.23 0.0685,-0.034 0.16139,0.034 0.22995,0 0.0969,-0.048 0.13299,-0.1814 0.22991,-0.2299 0.0686,-0.034 0.1614,0.034 0.22995,0 0.0969,-0.049 0.13296,-0.1815 0.22992,-0.2299 0.0685,-0.034 0.17573,0.054 0.22994,0 0.0542,-0.054 -0.0542,-0.1758 0,-0.23 0.0542,-0.054 0.16137,0.034 0.22992,0 0.097,-0.048 0.13299,-0.1814 0.22995,-0.2299 0.0686,-0.034 0.16136,0.034 0.22992,0 0.097,-0.048 0.13299,-0.1815 0.22994,-0.2299 0.18394,-0.092 0.50585,0.092 0.68979,0 0.0969,-0.048 0.13299,-0.1815 0.22991,-0.23 0.0686,-0.034 0.1533,0 0.22995,0 0.0767,0 0.1533,0 0.22992,0 0.45986,0 0.91973,0 1.37959,0 0.53652,0 1.07303,0 1.60954,0 0.10355,0 0.61981,-0.035 0.68978,0 0.097,0.049 0.13299,0.1815 0.22995,0.23 0.12473,0.062 0.85679,-0.063 0.9197,0 0.0542,0.054 -0.0542,0.1757 0,0.2299 0.0542,0.054 0.22995,-0.077 0.22995,0 0,0.077 -0.1533,0 -0.22995,0"
         style="color:#000000;clip-rule:nonzero;display:inline;overflow:visible;visibility:visible;isolation:auto;mix-blend-mode:normal;color-interpolation:sRGB;color-interpolation-filters:linearRGB;solid-color:#000000;solid-opacity:1;fill:none;fill-opacity:1;fill-rule:evenodd;stroke:#000000;stroke-width:1.38269389;stroke-linecap:butt;stroke-linejoin:miter;stroke-miterlimit:4;stroke-dasharray:none;stroke-dashoffset:0;stroke-opacity:1;color-rendering:auto;image-rendering:auto;shape-rendering:auto;text-rendering:auto;enable-background:accumulate" />
      <path
         inkscape:connector-curvature="0"
         id="path4397"
         d="m 162.2226,1232.043 c 0.38322,0 0.76643,0 1.14965,0 0.0767,0 0.17573,0.054 0.22994,0 0.0542,-0.054 -0.0542,-0.1757 0,-0.2299 0.0553,-0.055 0.8644,0.055 0.9197,0 0.0542,-0.054 -0.0542,-0.1757 0,-0.2299 0.0542,-0.054 0.1533,0 0.22995,0 0.38322,0 0.76643,0 1.14965,0 0.12023,0 0.85927,-0.03 0.91973,0 0.0969,0.048 0.13299,0.1814 0.22994,0.2299 0.14452,0.072 0.77521,-0.072 0.91973,0 0.0969,0.048 0.13296,0.1814 0.22992,0.2299 0.15883,0.079 1.06894,-0.081 1.14965,0 0.30659,0.3066 -0.38322,0.23 0.22994,0.23 0.0558,0 0.6824,-0.01 0.68979,0 0.0542,0.054 -0.0542,0.1757 0,0.2299 0.0542,0.054 0.15329,0 0.22994,0 0.0767,0 0.1533,0 0.22992,0 0.16297,0 1.32014,-0.03 1.37959,0 0.097,0.049 0.13299,0.1814 0.22995,0.2299 0.0595,0.03 1.21659,0 1.37959,0 0.0766,0 0.15327,0 0.22992,0 0.0767,0 0.16139,-0.034 0.22992,0 0.097,0.049 0.13299,0.1815 0.22995,0.2299 0.0685,0.034 0.15329,0 0.22991,0 0.0767,0 0.1533,0 0.22995,0 0.45986,0 0.91973,0 1.37959,0 0.0767,0 0.15327,0 0.22992,0 0.0767,0 0.16139,-0.034 0.22995,0 0.0969,0.048 0.13299,0.1815 0.22992,0.23 0.07,0.035 0.58625,0 0.68981,0 0.61313,0 1.22629,0 1.83943,0 0.0558,0 0.68242,-0.01 0.68981,0 0.0542,0.054 -0.0542,0.1757 0,0.2299 0.10838,0.1084 0.32276,-0.069 0.45987,0 0.0969,0.048 0.13299,0.1815 0.22992,0.2299 0.0686,0.034 0.22994,-0.077 0.22994,0 0,0.027 -0.65598,-0.034 -0.68981,0 -0.0542,0.054 0.0542,0.1758 0,0.23 -0.0542,0.054 -0.16137,-0.034 -0.22992,0 -0.097,0.048 -0.13299,0.1814 -0.22995,0.2299 -0.0686,0.034 -0.16137,-0.034 -0.22992,0 -0.097,0.049 -0.13299,0.1815 -0.22994,0.2299 -0.14504,0.073 -1.00459,-0.072 -1.14965,0 -0.097,0.048 -0.13299,0.1815 -0.22992,0.23 -0.14937,0.075 -1.00382,-0.073 -1.14967,0 -0.0969,0.048 -0.13299,0.1814 -0.22992,0.2299 -0.0912,0.046 -0.64279,-0.047 -0.68981,0 -0.0542,0.054 0.0542,0.1757 0,0.2299 -0.0542,0.054 -0.15327,0 -0.22992,0 -0.0767,0 -0.1533,0 -0.22995,0 -0.84308,0 -1.68616,0 -2.52924,0 -0.38321,0 -0.76643,0 -1.14965,0 -0.0766,0 -0.15329,0 -0.22994,0 -0.0767,0 -0.16137,0.034 -0.22992,0 -0.0969,-0.048 -0.13299,-0.1814 -0.22995,-0.2299 -0.0685,-0.034 -0.16136,0.034 -0.22991,0 -0.097,-0.049 -0.13299,-0.1815 -0.22995,-0.2299 -0.0686,-0.034 -0.15327,0 -0.22992,0 -0.0767,0 -0.1533,0 -0.22994,0 -0.38322,0 -0.76644,0 -1.14965,0 -0.0767,0 -0.1533,0 -0.22992,0 -0.0767,0 -0.17576,0.054 -0.22995,0 -0.0542,-0.054 0.0542,-0.1758 0,-0.23 -0.0807,-0.081 -0.99084,0.079 -1.14964,0 -0.097,-0.048 -0.13299,-0.1814 -0.22995,-0.2299 -0.0605,-0.03 -0.79949,0 -0.91973,0 -0.0767,0 -0.17573,-0.054 -0.22992,0 -0.0542,0.054 0.0542,0.1757 0,0.2299 -0.009,0.01 -0.83528,0 -0.91972,0"
         style="color:#000000;clip-rule:nonzero;display:inline;overflow:visible;visibility:visible;isolation:auto;mix-blend-mode:normal;color-interpolation:sRGB;color-interpolation-filters:linearRGB;solid-color:#000000;solid-opacity:1;fill:none;fill-opacity:1;fill-rule:evenodd;stroke:#000000;stroke-width:1.38269389;stroke-linecap:butt;stroke-linejoin:miter;stroke-miterlimit:4;stroke-dasharray:none;stroke-dashoffset:0;stroke-opacity:1;color-rendering:auto;image-rendering:auto;shape-rendering:auto;text-rendering:auto;enable-background:accumulate" />
      <path
         inkscape:connector-curvature="0"
         id="path4401"
         d="m 71.163384,1232.3124 c -0.536507,0 -1.073015,0 -1.609523,0 -0.07664,0 -0.161379,0.034 -0.229929,0 -0.09695,-0.049 -0.132985,-0.1815 -0.229932,-0.2299 -0.06855,-0.034 -0.153289,0 -0.229932,0 -0.07664,0 -0.153287,0 -0.229933,0 -0.159926,0 -1.066506,0.042 -1.149655,0 -0.09695,-0.048 -0.132985,-0.1815 -0.229932,-0.23 -0.06855,-0.034 -0.153289,0 -0.229932,0 -0.07664,0 -0.153287,0 -0.229933,0 -0.61315,0 -1.226301,0 -1.839452,0 -0.103552,0 -0.619818,0.035 -0.689794,0 -0.09695,-0.048 -0.132984,-0.1814 -0.229932,-0.2299 -0.06046,-0.03 -0.79949,0 -0.919726,0 -0.459862,0 -0.919726,0 -1.37959,0 -0.07664,0 -0.153287,0 -0.22993,0 -0.07665,0 -0.161379,-0.034 -0.229932,0 -0.09695,0.049 -0.132985,0.1815 -0.229932,0.2299 -0.06855,0.034 -0.153286,0 -0.229932,0 -0.07664,0 -0.153287,0 -0.22993,0 -0.843083,0 -1.686166,0 -2.529249,0 -0.120236,0 -0.859265,-0.03 -0.919726,0 -0.09695,0.049 -0.132984,0.1815 -0.229932,0.23 -0.06998,0.035 -0.586242,0 -0.689794,0 -0.459861,0 -0.919726,0 -1.379587,0 -0.07665,0 -0.153289,0 -0.229933,0 -0.07664,0 -0.161379,-0.034 -0.229932,0 -0.09695,0.048 -0.132984,0.1814 -0.229932,0.2299 -0.137103,0.069 -0.322758,-0.069 -0.459862,0 -0.09695,0.048 -0.153289,0.1533 -0.229932,0.2299"
         style="color:#000000;clip-rule:nonzero;display:inline;overflow:visible;visibility:visible;isolation:auto;mix-blend-mode:normal;color-interpolation:sRGB;color-interpolation-filters:linearRGB;solid-color:#000000;solid-opacity:1;fill:none;fill-opacity:1;fill-rule:evenodd;stroke:#000000;stroke-width:1.38269389;stroke-linecap:butt;stroke-linejoin:miter;stroke-miterlimit:4;stroke-dasharray:none;stroke-dashoffset:0;stroke-opacity:1;color-rendering:auto;image-rendering:auto;shape-rendering:auto;text-rendering:auto;enable-background:accumulate" />
      <path
         inkscape:connector-curvature="0"
         id="path4403"
         d="m 50.00968,1234.1519 c 2.315834,-0.5047 0.373784,0.8336 0.689796,1.1496 0.05419,0.054 0.175736,-0.054 0.229932,0 0.05419,0.054 -0.0542,0.1758 0,0.2299 0.05419,0.054 0.175736,-0.054 0.22993,0 0.475736,0.4758 -0.726987,-0.019 0.229932,0.4599 0.06855,0.034 0.175736,-0.054 0.229932,0 0.05419,0.054 -0.03428,0.1614 0,0.2299 0.04847,0.097 0.181457,0.133 0.229932,0.23 0.03427,0.069 -0.03428,0.1614 0,0.2299 0.09695,0.1939 0.362915,0.266 0.459862,0.4599 0.03428,0.068 -0.03428,0.1613 0,0.2299 0.09695,0.1939 0.362917,0.266 0.459864,0.4599 0.03428,0.069 -0.03428,0.1613 0,0.2299 0.04847,0.097 0.181458,0.133 0.22993,0.2299 0.03428,0.069 -0.05419,0.1758 0,0.23 0.0542,0.054 0.175738,-0.054 0.229932,0 0.0542,0.054 -0.05419,0.1757 0,0.2299 0.0542,0.054 0.175736,-0.054 0.229932,0 0.475737,0.4757 -0.726989,-0.019 0.229932,0.4599 0.06855,0.034 0.175736,-0.054 0.22993,0 0.0542,0.054 -0.03427,0.1613 0,0.2299 0.04848,0.097 0.153289,0.1533 0.229932,0.2299 0.07664,0.077 0.132985,0.1815 0.229932,0.2299 0.06855,0.034 0.175736,-0.054 0.229932,0 0.05419,0.054 -0.0542,0.1758 0,0.23 0.05419,0.054 0.175736,-0.054 0.229933,0 0.05419,0.054 -0.0542,0.1757 0,0.2299 0.05419,0.054 0.161379,-0.034 0.229929,0 0.09695,0.049 0.132985,0.1815 0.229932,0.2299 0.06855,0.034 0.153289,0 0.229933,0 0.07664,0 0.161379,0.034 0.229932,0 0.09695,-0.048 0.132982,-0.1814 0.229929,-0.2299 0.183946,-0.092 0.505851,0.092 0.689797,0 0.09695,-0.048 0.132982,-0.1814 0.229929,-0.2299 0.05945,-0.03 1.216614,0 1.379591,0 0.07664,0 0.161379,0.034 0.229932,0 0.09695,-0.049 0.132982,-0.1815 0.229932,-0.23 0.06855,-0.034 0.153286,0 0.22993,0 0.07664,0 0.153289,0 0.229932,0 0.383218,0 0.766439,0 1.149658,0 0.07664,0 0.153286,0 0.229932,0 0.07664,0 0.161379,0.034 0.22993,0 0.09695,-0.048 0.132984,-0.1814 0.229932,-0.2299 0.144517,-0.072 0.775208,0.072 0.919726,0 0.09695,-0.049 0.132985,-0.1814 0.229932,-0.2299 0.144518,-0.072 0.775209,0.072 0.919726,0 0.09695,-0.048 0.132985,-0.1815 0.229932,-0.2299 0.144518,-0.072 0.775209,0.072 0.919726,0 0.09695,-0.048 0.132985,-0.1815 0.229933,-0.23 0.06128,-0.031 1.275569,0 1.379587,0 0.07664,0 0.175736,0.054 0.229932,0 0.0542,-0.054 -0.0542,-0.1757 0,-0.2299 0.0542,-0.054 0.153287,0 0.229933,0 0.07664,0 0.153286,0 0.229929,0 0.162977,0 1.320142,0.03 1.379591,0 0.09695,-0.049 0.132984,-0.1815 0.229932,-0.2299 0.144517,-0.072 0.775208,0.072 0.919726,0 0.09695,-0.049 0.132985,-0.1815 0.229932,-0.23 0.139619,-0.07 1.239968,0.07 1.379588,0 0.09695,-0.048 0.132984,-0.1814 0.229932,-0.2299 0.06855,-0.034 0.153289,0 0.229932,0 0.07664,0 0.153286,0 0.229932,0 0.383219,0 0.766437,0 1.149656,0 0.07665,0 0.153289,0 0.229932,0 0.07664,0 0.175736,0.054 0.229932,0 0.05419,-0.054 -0.0542,-0.1757 0,-0.2299 0.05419,-0.054 0.153286,0 0.229932,0 0.07664,0 0.153287,0 0.22993,0 0.613151,0 1.226301,0 1.839455,0 0.07664,0 0.153286,0 0.229929,0 0.07665,0 0.161379,0.034 0.229932,0 0.186961,-0.093 0.190248,-0.3648 0.459865,-0.23 0.09695,0.049 0.132982,0.1815 0.229929,0.23 0.05945,0.03 1.216614,0 1.379591,0 0.07664,0 0.153286,0 0.229932,0 0.07664,0 0.175736,-0.054 0.229929,0 0.0542,0.054 -0.05419,0.1757 0,0.2299 0.05533,0.055 0.864399,-0.055 0.919729,0 0.05419,0.054 -0.0542,0.1757 0,0.2299 0.04701,0.047 0.598628,-0.046 0.689794,0 0.09695,0.048 0.132982,0.1815 0.229932,0.23 0.06855,0.034 0.175736,-0.054 0.22993,0 0.0542,0.054 -0.05419,0.1757 0,0.2299 0.0542,0.054 0.175735,-0.054 0.229932,0 0.0542,0.054 -0.0542,0.1757 0,0.2299 0.0542,0.054 0.175735,-0.054 0.229932,0 0.05419,0.054 -0.0542,0.1758 0,0.23 0.05419,0.054 0.161379,-0.034 0.229932,0 0.193895,0.097 0.265967,0.3629 0.459862,0.4598 0.06855,0.034 0.175736,-0.054 0.229932,0 0.0542,0.054 -0.0542,0.1758 0,0.2299 0.0542,0.054 0.161379,-0.034 0.229932,0 0.09695,0.048 0.132982,0.1815 0.22993,0.23 0.06855,0.034 0.175738,-0.054 0.229932,0 0.226822,0.2268 -0.471146,0.4598 0.229932,0.4598"
         style="color:#000000;clip-rule:nonzero;display:inline;overflow:visible;visibility:visible;isolation:auto;mix-blend-mode:normal;color-interpolation:sRGB;color-interpolation-filters:linearRGB;solid-color:#000000;solid-opacity:1;fill:none;fill-opacity:1;fill-rule:evenodd;stroke:#000000;stroke-width:1.38269389;stroke-linecap:butt;stroke-linejoin:miter;stroke-miterlimit:4;stroke-dasharray:none;stroke-dashoffset:0;stroke-opacity:1;color-rendering:auto;image-rendering:auto;shape-rendering:auto;text-rendering:auto;enable-background:accumulate" />
      <path
         inkscape:connector-curvature="0"
         id="path4405"
         d="m 70.243658,1232.0825 c 0.383219,0 0.766437,0 1.149658,0 0.07664,0 0.161379,-0.034 0.22993,0 0.09695,0.048 0.132985,0.1814 0.229932,0.2299 0.09117,0.046 0.642788,-0.047 0.689794,0 0.0542,0.054 -0.05419,0.1757 0,0.2299 0.108393,0.1084 0.322758,-0.069 0.459864,0 0.09695,0.048 0.132985,0.1815 0.229932,0.23 0.137104,0.068 0.351472,-0.1084 0.459862,0 0.0542,0.054 -0.05419,0.1757 0,0.2299 0.0542,0.054 0.161379,-0.034 0.229932,0 0.09695,0.049 0.132985,0.1815 0.229932,0.2299 0.06855,0.034 0.16138,-0.034 0.22993,0 0.09695,0.049 0.132985,0.1815 0.229932,0.23 0.06855,0.034 0.175736,-0.054 0.229932,0 0.0542,0.054 -0.0542,0.1757 0,0.2299 0.10839,0.1084 0.351472,-0.1084 0.459865,0 0.05419,0.054 -0.0542,0.1757 0,0.2299 0.05419,0.054 0.161379,-0.034 0.229929,0 0.193895,0.097 0.26597,0.3629 0.459865,0.4599 0.06855,0.034 0.161379,-0.034 0.229932,0 0.09695,0.048 0.132982,0.1814 0.229929,0.2299 0.06855,0.034 0.161379,-0.034 0.229932,0 0.09695,0.049 0.132985,0.1815 0.229933,0.23 0.06855,0.034 0.161379,-0.034 0.229932,0 0.09695,0.048 0.132982,0.1814 0.229929,0.2299 0.183946,0.092 0.505851,-0.092 0.689797,0 0.09695,0.049 0.132982,0.1814 0.229929,0.2299 0.06855,0.034 0.161379,-0.034 0.229932,0 0.09695,0.048 0.132985,0.1815 0.229933,0.2299 0.06855,0.034 0.161379,-0.034 0.229932,0 0.09695,0.048 0.132982,0.1815 0.229932,0.23 0.06855,0.034 0.161379,-0.034 0.22993,0 0.09695,0.048 0.132984,0.1814 0.229932,0.2299 0.06855,0.034 0.161379,-0.034 0.229932,0 0.09695,0.049 0.132982,0.1815 0.229932,0.2299 0.137104,0.069 0.322758,-0.068 0.459862,0 0.09695,0.049 0.132985,0.1815 0.229932,0.23 0.137103,0.069 0.351471,-0.1084 0.459862,0 0.0542,0.054 -0.05419,0.1757 0,0.2299 0.04701,0.047 0.59863,-0.046 0.689796,0 0.09695,0.048 0.132982,0.1815 0.22993,0.2299 0.06855,0.034 0.161379,-0.034 0.229932,0 0.09695,0.048 0.132985,0.1815 0.229932,0.23 0.137103,0.068 0.322758,-0.069 0.459864,0 0.09695,0.048 0.132982,0.1814 0.22993,0.2299 0.06855,0.034 0.175736,-0.054 0.229932,0 0.0542,0.054 -0.0542,0.1757 0,0.2299 0.10839,0.1084 0.322758,-0.068 0.459864,0 0.09695,0.049 0.132983,0.1815 0.22993,0.23 0.06855,0.034 0.161379,-0.034 0.229932,0 0.09695,0.048 0.132985,0.1814 0.229932,0.2299 0.137104,0.069 0.322759,-0.069 0.459862,0 0.09695,0.049 0.132985,0.1815 0.229932,0.2299 0.06855,0.034 0.161379,-0.034 0.229932,0 0.193895,0.097 0.265967,0.3629 0.459862,0.4599 0.06855,0.034 0.161379,-0.034 0.229932,0 0.09695,0.048 0.132985,0.1814 0.229932,0.2299 0.06855,0.034 0.175736,-0.054 0.229933,0 0.05419,0.054 -0.0542,0.1758 0,0.23 0.05419,0.054 0.175735,-0.054 0.229929,0 0.0542,0.054 0,0.1532 0,0.2299 0,0.077 0.0542,0.1757 0,0.2299 -0.05419,0.054 -0.175736,-0.054 -0.229929,0 -0.0542,0.054 0.05419,0.1758 0,0.2299 -0.0093,0.01 -0.835288,0 -0.919726,0 -0.162977,0 -1.320142,-0.03 -1.379591,0 -0.18696,0.093 -0.190248,0.3648 -0.459862,0.23 -0.09695,-0.049 -0.132984,-0.1815 -0.229932,-0.23 -0.06046,-0.03 -0.799489,0 -0.919726,0 -0.05577,0 -0.682401,-0.01 -0.689796,0 -0.05419,0.054 0,0.1533 0,0.23"
         style="color:#000000;clip-rule:nonzero;display:inline;overflow:visible;visibility:visible;isolation:auto;mix-blend-mode:normal;color-interpolation:sRGB;color-interpolation-filters:linearRGB;solid-color:#000000;solid-opacity:1;fill:none;fill-opacity:1;fill-rule:evenodd;stroke:#000000;stroke-width:1.38269389;stroke-linecap:butt;stroke-linejoin:miter;stroke-miterlimit:4;stroke-dasharray:none;stroke-dashoffset:0;stroke-opacity:1;color-rendering:auto;image-rendering:auto;shape-rendering:auto;text-rendering:auto;enable-background:accumulate" />
      <path
         inkscape:connector-curvature="0"
         id="path4407"
         d="m 60.126669,1225.6444 c 0.504659,-2.3158 -0.833646,-0.3738 -1.149658,-0.6898 -0.05419,-0.054 0.0542,-0.1757 0,-0.2299 -0.05419,-0.054 -0.175736,0.054 -0.22993,0 -0.0542,-0.054 0.05419,-0.1758 0,-0.23 -0.0542,-0.054 -0.175738,0.054 -0.229932,0 -0.0542,-0.054 0.05419,-0.1757 0,-0.2299 -0.0542,-0.054 -0.175736,0.054 -0.229932,0 -0.0542,-0.054 0.03428,-0.1614 0,-0.2299 -0.09695,-0.1939 -0.362915,-0.266 -0.459865,-0.4599 -0.04558,-0.091 0.04701,-0.6428 0,-0.6898 -0.05419,-0.054 -0.175735,0.054 -0.229929,0 -0.0542,-0.054 0,-0.1533 0,-0.2299 0,-0.4599 0,-0.9197 0,-1.3796 0,-0.077 0.05419,-0.1757 0,-0.2299 -0.0542,-0.054 -0.175736,0.054 -0.229932,0 -0.0542,-0.054 0,-0.1533 0,-0.23 0,-0.1202 -0.03023,-0.8592 0,-0.9197 0.04847,-0.097 0.181457,-0.133 0.229932,-0.2299 0.04157,-0.083 0,-0.9898 0,-1.1497 0,-0.077 -0.0542,-0.1757 0,-0.2299 0.05419,-0.054 0.175736,0.054 0.229929,0 0.108393,-0.1084 -0.06855,-0.3228 0,-0.4599 0.04848,-0.097 0.18146,-0.133 0.229932,-0.2299 0.06855,-0.1371 -0.10839,-0.3515 0,-0.4599 0.0542,-0.054 0.175736,0.054 0.229933,0 0.10839,-0.1084 -0.10839,-0.3515 0,-0.4598 0.0542,-0.054 0.175735,0.054 0.229932,0 0.05419,-0.054 -0.0542,-0.1758 0,-0.23 0.05419,-0.054 0.161379,0.034 0.229932,0 0.09695,-0.048 0.153286,-0.1533 0.22993,-0.2299 0.07664,-0.077 0.181459,-0.133 0.229932,-0.2299 0,-0.6132 -0.07664,0.077 0.229932,-0.23 0.05419,-0.054 -0.0542,-0.1757 0,-0.2299 0.05419,-0.054 0.175736,0.054 0.229932,0 0.05419,-0.054 -0.0542,-0.1757 0,-0.2299 0.05419,-0.054 0.175736,0.054 0.22993,0 0.475736,-0.4758 -0.726987,0.019 0.229932,-0.4599 0.06855,-0.034 0.175736,0.054 0.229932,0 0.05419,-0.054 -0.0542,-0.1757 0,-0.2299 0.05419,-0.054 0.175736,0.054 0.229932,0 0.05419,-0.054 -0.0542,-0.1758 0,-0.23 0.153025,-0.153 0.306837,0.1531 0.459862,0 0.0542,-0.054 -0.05419,-0.1757 0,-0.2299 0.114967,-0.115 0.574829,0.115 0.689794,0 0.0542,-0.054 -0.05419,-0.1757 0,-0.2299 0.0542,-0.054 0.153289,0 0.229932,0 0.613151,0 1.226301,0 1.839452,0 0.162976,0 1.320141,-0.03 1.37959,0 0.09695,0.049 0.132985,0.1814 0.229933,0.2299 0.09117,0.046 0.642788,-0.047 0.689793,0 0.0542,0.054 -0.0542,0.1757 0,0.2299 0.114965,0.115 0.57483,-0.1149 0.689794,0 0.0542,0.054 -0.05419,0.1758 0,0.23 0.10839,0.1084 0.351475,-0.1084 0.459865,0 0.05419,0.054 -0.0542,0.1757 0,0.2299 0.05419,0.054 0.161379,-0.034 0.229932,0 0.09695,0.048 0.153286,0.1533 0.229929,0.2299 0.07665,0.077 0.18146,0.133 0.229933,0.23 0.03428,0.069 -0.0542,0.1757 0,0.2299 0.0542,0.054 0.153289,0 0.229932,0 0,0.077 -0.03428,0.1614 0,0.2299 0.478459,0.957 -0.01586,-0.2458 0.459861,0.23 0.108393,0.1084 -0.10839,0.3514 0,0.4598 0.0542,0.054 0.175739,-0.054 0.229933,0 0.0542,0.054 -0.05419,0.1758 0,0.23 0.61315,0 -0.07664,-0.077 0.229932,0.2299 0.0542,0.054 0.175736,-0.054 0.229932,0 0.10839,0.1084 -0.108393,0.3515 0,0.4599 0.05419,0.054 0.175736,-0.054 0.229929,0 0.0712,0.071 -0.0712,1.0784 0,1.1496 0.0542,0.054 0.175739,-0.054 0.229933,0 0.04701,0.047 -0.04558,0.5986 0,0.6898 0.04847,0.097 0.181457,0.133 0.229932,0.2299 0.03428,0.069 0,0.1533 0,0.23 0,0.077 0.0542,0.1757 0,0.2299 -0.0542,0.054 -0.175736,-0.054 -0.229932,0 -0.05419,0.054 -0.05419,0.1757 0,0.2299 0.0542,0.054 0.175735,-0.054 0.229932,0 0.0074,0.01 0,0.6341 0,0.6898 0,0.077 0.0542,0.1758 0,0.23 -0.0542,0.054 -0.175736,-0.054 -0.229932,0 -0.08071,0.081 0.07941,0.9908 0,1.1496 -0.04847,0.097 -0.181457,0.133 -0.229933,0.2299 -0.03427,0.069 0,0.1533 0,0.23 0,0.077 0,0.1533 0,0.2299 0,0.6132 0,1.2263 0,1.8395 0,0.1035 0.03499,0.6198 0,0.6898 -0.04847,0.097 -0.181457,0.1329 -0.229929,0.2299 -0.07941,0.1588 0.08071,1.0689 0,1.1496 -0.0542,0.054 -0.175736,-0.054 -0.229932,0 -0.04701,0.047 0.04558,0.5987 0,0.6898 -0.04847,0.097 -0.181457,0.133 -0.229932,0.23 -0.03428,0.069 0.03428,0.1614 0,0.2299 -0.04847,0.097 -0.181458,0.133 -0.229933,0.2299 -0.06855,0.1371 0.06855,0.3228 0,0.4599 -0.04847,0.097 -0.181457,0.133 -0.229929,0.2299 -0.06855,0.1371 0.10839,0.3515 0,0.4599 -0.0542,0.054 -0.175739,-0.054 -0.229932,0 -0.0542,0.054 0.05419,0.1757 0,0.2299 -0.0542,0.054 -0.175736,-0.054 -0.229932,0 -0.0542,0.054 0.0542,0.1758 0,0.23 -0.0542,0.054 -0.153287,0 -0.229933,0 -0.07664,0 -0.153286,0 -0.229929,0 -0.120236,0 -0.859269,0.03 -0.919729,0 -0.09695,-0.049 -0.132982,-0.1815 -0.229929,-0.23 -0.06855,-0.034 -0.161379,0.034 -0.229933,0 -0.09695,-0.048 -0.132984,-0.1814 -0.229932,-0.2299 -0.06855,-0.034 -0.175735,0.054 -0.229932,0 -0.05419,-0.054 0.0542,-0.1757 0,-0.2299 -0.10839,-0.1084 -0.322758,0.069 -0.459862,0 -0.193894,-0.097 -0.265966,-0.363 -0.459864,-0.4599 -0.06855,-0.034 -0.175736,0.054 -0.229929,0 -0.0542,-0.054 0.05419,-0.1757 0,-0.2299 -0.0542,-0.054 -0.16138,0.034 -0.229933,0 -0.09695,-0.049 -0.132984,-0.1815 -0.229932,-0.23 -0.06855,-0.034 -0.161379,0.034 -0.229932,0 -0.09695,-0.048 -0.132982,-0.1814 -0.229929,-0.2299 -0.06855,-0.034 -0.175739,0.054 -0.229933,0 -0.0542,-0.054 0.05419,-0.1757 0,-0.2299 -0.0542,-0.054 -0.175735,0.054 -0.229932,0 -0.0542,-0.054 0.0542,-0.1758 0,-0.23 -0.10839,-0.1083 -0.351471,0.1084 -0.459862,0 -0.0542,-0.054 0.05419,-0.1757 0,-0.2299 -0.0542,-0.054 -0.175738,0.054 -0.229932,0 -0.0542,-0.054 0.05419,-0.1757 0,-0.2299 -0.10839,-0.1084 -0.351474,0.1084 -0.459864,0 -0.05419,-0.054 0.0542,-0.1758 0,-0.23 -0.10839,-0.1083 -0.351472,0.1084 -0.459862,0 -0.0542,-0.054 0.05419,-0.1757 0,-0.2299 -0.108393,-0.1084 -0.351474,0.1084 -0.459864,0 -0.05419,-0.054 0,-0.1533 0,-0.2299 -0.306576,-0.2299 -0.613151,-0.4599 -0.919726,-0.6898 z"
         style="color:#000000;clip-rule:nonzero;display:inline;overflow:visible;visibility:visible;isolation:auto;mix-blend-mode:normal;color-interpolation:sRGB;color-interpolation-filters:linearRGB;solid-color:#000000;solid-opacity:1;fill:#000000;fill-opacity:1;fill-rule:evenodd;stroke:#000000;stroke-width:1.38269389;stroke-linecap:butt;stroke-linejoin:miter;stroke-miterlimit:4;stroke-dasharray:none;stroke-dashoffset:0;stroke-opacity:1;color-rendering:auto;image-rendering:auto;shape-rendering:auto;text-rendering:auto;enable-background:accumulate" />
      <path
         inkscape:connector-curvature="0"
         id="path4409"
         d="m 61.966121,1227.4838 c 0,0.3833 0,0.7665 0,1.1497 0,0.077 0.03428,0.1614 0,0.2299 -0.04847,0.097 -0.181457,0.133 -0.229932,0.23 -0.03427,0.069 0,0.1533 0,0.2299 0,0.077 0,0.1533 0,0.2299 0,0.4599 0,0.9198 0,1.3796 0,0.077 0,0.1533 0,0.2299 0,0.077 0.03428,0.1614 0,0.23 -0.04847,0.097 -0.181457,0.133 -0.22993,0.2299 -0.03023,0.061 0,0.7995 0,0.9197 0,0.8431 0,1.6862 0,2.5293 0,0.1035 0.03499,0.6198 0,0.6898 -0.04848,0.097 -0.18146,0.133 -0.229932,0.2299 -0.03428,0.069 0.02423,0.1572 0,0.2299 -0.0542,0.1626 -0.175736,0.2973 -0.229932,0.4599 -0.04847,0.1454 0,0.3066 0,0.4599 0,0.3832 0,0.7664 0,1.1496 0,0.077 0,0.1533 0,0.23 0,0.077 0.03428,0.1613 0,0.2299 -0.04847,0.097 -0.181457,0.133 -0.229932,0.2299 -0.03427,0.069 0,0.1533 0,0.23 0,0.077 0,0.1532 0,0.2299 0,0.3832 0,0.7664 0,1.1496 0,0.077 0.03428,0.1614 0,0.23 -0.04847,0.097 -0.181457,0.133 -0.22993,0.2299 -0.03428,0.069 0,0.1533 0,0.2299 0,0.077 0,0.1533 0,0.23 0,0.3832 0,0.7664 0,1.1496 0,0.1533 0.04847,0.3145 0,0.4599 -0.0542,0.1626 -0.175738,0.2973 -0.229932,0.4598 -0.08144,0.2444 0.08144,0.6754 0,0.9198 -0.0542,0.1626 -0.175736,0.2973 -0.229932,0.4598 -0.04966,0.149 0,0.9615 0,1.1497 0,0.7664 0,1.5329 0,2.2993 0,1.1497 0,2.2993 0,3.449 0,0.1758 -0.03234,1.5448 0,1.6095 0.04848,0.097 0.195655,0.1271 0.229932,0.2299 0.04239,0.1272 0,1.1481 0,1.3796 0,0.9964 0,1.9928 0,2.9891 0,0.16 -0.04158,1.0665 0,1.1497 0.04847,0.097 0.181457,0.133 0.229932,0.2299 0.03427,0.069 0,0.1533 0,0.23 0,0.077 0,0.1532 0,0.2299 0,0.3832 0,0.7664 0,1.1496 0,0.077 0,0.1533 0,0.23 0,0.077 -0.03428,0.1614 0,0.2299 0.04847,0.097 0.181457,0.133 0.22993,0.2299 0.07226,0.1446 -0.07226,0.7753 0,0.9198 0.04848,0.097 0.181459,0.133 0.229932,0.2299 0.06981,0.1396 -0.06981,1.24 0,1.3796 0.04848,0.097 0.181457,0.133 0.229932,0.2299 0.06981,0.1396 -0.06981,1.24 0,1.3796 0.04847,0.097 0.181457,0.133 0.229932,0.2299 0.07941,0.1589 -0.08071,1.069 0,1.1497 0.05419,0.054 0.153287,0 0.22993,0"
         style="color:#000000;clip-rule:nonzero;display:inline;overflow:visible;visibility:visible;isolation:auto;mix-blend-mode:normal;color-interpolation:sRGB;color-interpolation-filters:linearRGB;solid-color:#000000;solid-opacity:1;fill:none;fill-opacity:1;fill-rule:evenodd;stroke:#000000;stroke-width:1.38269389;stroke-linecap:butt;stroke-linejoin:miter;stroke-miterlimit:4;stroke-dasharray:none;stroke-dashoffset:0;stroke-opacity:1;color-rendering:auto;image-rendering:auto;shape-rendering:auto;text-rendering:auto;enable-background:accumulate" />
      <path
         inkscape:connector-curvature="0"
         id="path4411"
         d="m 55.9879,1266.8021 c -0.969136,0.1844 -0.05516,0.8001 -0.229929,1.1497 -0.04847,0.097 -0.18146,0.133 -0.229932,0.2299 -0.06327,0.1266 0.05992,1.1999 0,1.3796 -0.03428,0.1028 -0.181458,0.133 -0.229933,0.2299 -0.05116,0.1024 0.03506,0.8146 0,0.9198 -0.03428,0.1028 -0.181457,0.133 -0.229932,0.2299 -0.07468,0.1494 0.07292,1.0038 0,1.1497 -0.04847,0.097 -0.195655,0.1271 -0.229929,0.2299 -0.03885,0.1165 0,1.4215 0,1.6095 0,0.9964 0,1.9928 0,2.9891 0,0.7665 0,1.5329 0,2.2993 0,0.1203 0.03023,0.8593 0,0.9198 -0.04848,0.097 -0.18146,0.133 -0.229933,0.2299 -0.03499,0.07 0,0.5862 0,0.6898 0,0.4599 0,0.9197 0,1.3796 0,0.1588 0.03495,0.8498 0,0.9197 -0.04847,0.097 -0.181457,0.133 -0.229932,0.2299 -0.04158,0.083 0,0.9898 0,1.1497 0,0.8431 0,1.6862 0,2.5292 0,0.1036 0.03499,0.6199 0,0.6898 -0.284126,0.5683 -0.229932,-0.079 -0.229932,0.4599 0,1.1497 0,2.2993 0,3.449 0,0.077 0,0.1533 0,0.2299 0,0.077 0.0542,0.1757 0,0.2299 -0.05419,0.054 -0.175736,-0.054 -0.229932,0 -0.04701,0.047 0.04558,0.5987 0,0.6898 -0.04847,0.097 -0.181457,0.133 -0.22993,0.23 -0.03428,0.068 0,0.1533 0,0.2299 0,0.077 0,0.1533 0,0.2299 0,0.4599 0,0.9198 0,1.3796 0,0.077 0,0.1533 0,0.2299 0,0.077 0.05419,0.1758 0,0.23 -0.0542,0.054 -0.175735,-0.054 -0.229932,0 -0.0542,0.054 0,0.1533 0,0.2299 0,0.1202 -0.03023,0.8593 0,0.9197 0.04847,0.097 0.181457,0.133 0.229932,0.23 0.02972,0.059 0,1.2166 0,1.3796 0,0.077 -0.03428,0.1613 0,0.2299 0.04847,0.097 0.181458,0.133 0.22993,0.2299 0.03023,0.061 0,0.7995 0,0.9197 0,0.1203 0.03023,0.8593 0,0.9198 -0.04847,0.097 -0.181457,0.133 -0.22993,0.2299 -0.04158,0.083 0,0.9897 0,1.1497 0,0.077 0.05419,0.1757 0,0.2299 -0.0542,0.054 -0.175735,-0.054 -0.229932,0 -0.0542,0.054 0,0.1533 0,0.2299 0,0.16 0.04158,1.0665 0,1.1497 -0.04848,0.097 -0.181457,0.133 -0.229932,0.2299 -0.03023,0.061 0,0.7995 0,0.9197 0,0.7665 0,1.5329 0,2.2994 0,0.056 -0.0074,0.6824 0,0.6898 0.0542,0.054 0.175736,-0.054 0.229932,0 0.0542,0.054 0,0.1532 0,0.2299 0,0.4598 0,0.9197 0,1.3796 0,1.3029 0,2.6059 0,3.9088 0,0.056 -0.0074,0.6824 0,0.6898 0.0542,0.054 0.175736,-0.054 0.229932,0 0.06291,0.063 -0.06237,0.795 0,0.9197 0.04847,0.097 0.181458,0.133 0.22993,0.23 0.06855,0.1371 -0.10839,0.3514 0,0.4598 0.0542,0.054 0.175738,-0.054 0.229932,0 0.0542,0.054 -0.03428,0.1614 0,0.23 0.04847,0.097 0.153289,0.1532 0.229932,0.2299 0.07664,0.077 0.132985,0.1814 0.229932,0.2299 0.06855,0.034 0.175736,-0.054 0.229933,0 0.05419,0.054 -0.03428,0.1614 0,0.23 0.03052,0.061 0.628745,0.6592 0.689794,0.6897 0.06855,0.034 0.175735,-0.054 0.229932,0 0.05419,0.054 -0.0542,0.1758 0,0.23 0.05419,0.054 0.175735,-0.054 0.229929,0 0.0542,0.054 -0.05419,0.1757 0,0.2299 0.0542,0.054 0.175739,-0.054 0.229932,0 0.0542,0.054 -0.05419,0.1757 0,0.2299 0.0542,0.054 0.175736,-0.054 0.229933,0 0.05419,0.054 -0.0542,0.1758 0,0.23 0.05419,0.054 0.175735,-0.054 0.229932,0 0.05419,0.054 -0.0542,0.1757 0,0.2299 0.05419,0.054 0.161379,-0.034 0.229929,0 0.193898,0.097 0.26597,0.3629 0.459865,0.4599 0.06855,0.034 0.161379,-0.034 0.229932,0 0.226258,0.1131 0.693465,0.8066 0.919726,0.9197 0.06855,0.034 0.161379,-0.034 0.229932,0 0.568252,0.2841 -0.07937,0.2299 0.459862,0.2299"
         style="color:#000000;clip-rule:nonzero;display:inline;overflow:visible;visibility:visible;isolation:auto;mix-blend-mode:normal;color-interpolation:sRGB;color-interpolation-filters:linearRGB;solid-color:#000000;solid-opacity:1;fill:none;fill-opacity:1;fill-rule:evenodd;stroke:#000000;stroke-width:1.38269389;stroke-linecap:butt;stroke-linejoin:miter;stroke-miterlimit:4;stroke-dasharray:none;stroke-dashoffset:0;stroke-opacity:1;color-rendering:auto;image-rendering:auto;shape-rendering:auto;text-rendering:auto;enable-background:accumulate" />
      <path
         inkscape:connector-curvature="0"
         id="path4413"
         d="m 67.48448,1266.3423 c 0,0.3832 0,0.7664 0,1.1496 0,0.077 -0.03428,0.1614 0,0.23 0.04847,0.097 0.181457,0.1329 0.229929,0.2299 0.03428,0.068 0,0.1533 0,0.2299 0,0.1533 0,0.3066 0,0.4599 0,0.4599 0,0.9197 0,1.3796 0,0.9197 0,1.8394 0,2.7592 0,0.2055 0.03664,1.0763 0,1.1496 -0.04847,0.097 -0.195655,0.1271 -0.229929,0.2299 -0.07271,0.2182 0,0.4599 0,0.6898 0,0.4599 0,0.9198 0,1.3796 0,0.1533 0.04847,0.3145 0,0.4599 -0.03428,0.1028 -0.18146,0.133 -0.229932,0.2299 -0.04008,0.08 0,1.2108 0,1.3796 0,0.7665 0,1.5329 0,2.2993 0,0.1835 0.04598,1.0117 0,1.1497 -0.0542,0.1626 -0.175736,0.2973 -0.229932,0.4599 -0.02423,0.073 0,0.1532 0,0.2299 0,0.1533 0,0.3066 0,0.4598 0,0.5366 0,1.0731 0,1.6096 0,1.1496 0,2.2993 0,3.4489 0,0.3833 0,0.7665 0,1.1497 0,0.077 0,0.1533 0,0.2299 0,0.077 -0.03428,0.1614 0,0.23 0.04848,0.097 0.181457,0.1329 0.229932,0.2299 0.0491,0.098 0,1.0588 0,1.1497 0,0.4598 0,0.9197 0,1.3795 0,0.077 0,0.1533 0,0.23 0,0.077 0.03428,0.1613 0,0.2299 -0.04847,0.097 -0.181457,0.133 -0.229932,0.2299 -0.0342,0.068 0,1.2829 0,1.3796 0,0.077 -0.0542,0.1758 0,0.23 0.0542,0.054 0.175735,-0.054 0.229932,0 0.05419,0.054 0,0.1532 0,0.2299 0,0.2716 -0.04558,1.2428 0,1.3796 0.03428,0.1028 0.181457,0.133 0.229932,0.2299 0.09197,0.184 -0.09197,0.5059 0,0.6898 0.04847,0.097 0.181457,0.133 0.229929,0.2299 0.06855,0.1371 -0.06855,0.3228 0,0.4599 0.04847,0.097 0.18146,0.133 0.229933,0.2299 0.09197,0.184 -0.09197,0.5059 0,0.6898 0.04847,0.097 0.181457,0.133 0.229932,0.23 0.07226,0.1445 -0.07226,0.7752 0,0.9197 0.04847,0.097 0.195655,0.1271 0.229932,0.2299 0.05214,0.1564 -0.06096,1.0278 0,1.1497 0.04847,0.097 0.181457,0.133 0.229929,0.2299 0.09197,0.1839 -0.09197,0.5058 0,0.6898 0.04847,0.097 0.18146,0.133 0.229933,0.2299 0.03428,0.069 0,0.1533 0,0.23 0,0.077 0,0.1532 0,0.2299 0,0.3832 0,0.7664 0,1.1496 0,0.077 -0.03428,0.1614 0,0.23 0.04847,0.097 0.181457,0.133 0.229932,0.2299 0.07253,0.1451 -0.07253,1.0046 0,1.1497 0.04847,0.097 0.181457,0.133 0.229932,0.2299 0.07226,0.1445 -0.07226,0.7752 0,0.9197 0.04847,0.097 0.181457,0.133 0.229929,0.23 0.09197,0.1839 -0.09197,0.5058 0,0.6898 0.04848,0.097 0.18146,0.1329 0.229933,0.2299 0.06855,0.1371 -0.06855,0.3227 0,0.4598 0.04847,0.097 0.181457,0.133 0.229932,0.23 0.04558,0.091 -0.04701,0.6428 0,0.6898 0.0542,0.054 0.175736,-0.054 0.229932,0 0.05419,0.054 -0.03428,0.1614 0,0.2299 0.04847,0.097 0.181457,0.133 0.22993,0.2299 0.03428,0.069 -0.03427,0.1614 0,0.23 0.04847,0.097 0.153289,0.1533 0.229932,0.2299 0.07665,0.077 0.132984,0.1815 0.229932,0.2299 0.137103,0.069 0.351471,-0.1084 0.459864,0 0.05419,0.054 -0.0542,0.1758 0,0.23 0.10839,0.1084 0.351472,-0.1084 0.459862,0 0.0542,0.054 -0.0542,0.1757 0,0.2299 0.690636,0.6906 -0.230772,-0.6906 0.459864,0 0.05419,0.054 -0.0542,0.1757 0,0.2299 0.108391,0.1084 0.322759,-0.069 0.459862,0 0.09695,0.048 0.132985,0.1815 0.229932,0.23 0.06855,0.034 0.153286,0 0.229932,0 0.07664,0.077 0.132982,0.1814 0.22993,0.2299 0.06855,0.034 0.175738,-0.054 0.229932,0 0.0542,0.054 -0.05419,0.1757 0,0.2299 0.0542,0.054 0.161379,-0.034 0.229932,0 0.09695,0.049 0.132985,0.1815 0.229932,0.23 0.137104,0.069 0.351472,-0.1084 0.459862,0 0.0542,0.054 -0.05419,0.1757 0,0.2299 0.0542,0.054 0.161379,-0.034 0.229932,0 0.09695,0.048 0.132985,0.1814 0.229932,0.2299 0.06855,0.034 0.16138,-0.034 0.229933,0 0.09695,0.048 0.132982,0.1815 0.229929,0.2299 0.06855,0.034 0.175736,-0.054 0.229932,0 0.0542,0.054 -0.0542,0.1758 0,0.23 0.0542,0.054 0.161379,-0.034 0.229933,0 0.09695,0.049 0.132982,0.1814 0.229932,0.2299 0.06855,0.034 0.175735,-0.054 0.229929,0 0.0542,0.054 -0.05419,0.1757 0,0.2299 0.0542,0.054 0.153289,0 0.229932,0 0.07664,0 0.153289,0 0.229933,0"
         style="color:#000000;clip-rule:nonzero;display:inline;overflow:visible;visibility:visible;isolation:auto;mix-blend-mode:normal;color-interpolation:sRGB;color-interpolation-filters:linearRGB;solid-color:#000000;solid-opacity:1;fill:none;fill-opacity:1;fill-rule:evenodd;stroke:#000000;stroke-width:1.38269389;stroke-linecap:butt;stroke-linejoin:miter;stroke-miterlimit:4;stroke-dasharray:none;stroke-dashoffset:0;stroke-opacity:1;color-rendering:auto;image-rendering:auto;shape-rendering:auto;text-rendering:auto;enable-background:accumulate" />
    </g>
  </g>
</svg>
