<?xml version="1.0" encoding="UTF-8" standalone="no"?>
<!-- Created with Inkscape (http://www.inkscape.org/) -->

<svg
   xmlns:dc="http://purl.org/dc/elements/1.1/"
   xmlns:cc="http://creativecommons.org/ns#"
   xmlns:rdf="http://www.w3.org/1999/02/22-rdf-syntax-ns#"
   xmlns:svg="http://www.w3.org/2000/svg"
   xmlns="http://www.w3.org/2000/svg"
   xmlns:sodipodi="http://sodipodi.sourceforge.net/DTD/sodipodi-0.dtd"
   xmlns:inkscape="http://www.inkscape.org/namespaces/inkscape"
   width="177.16534"
   height="106.29497"
   id="svg2"
   version="1.1"
   inkscape:version="0.91 r13725"
   sodipodi:docname="wall_sit.svg">
  <defs
     id="defs4" />
  <sodipodi:namedview
     id="base"
     pagecolor="#ffffff"
     bordercolor="#666666"
     borderopacity="1.0"
     inkscape:pageopacity="0.0"
     inkscape:pageshadow="2"
     inkscape:zoom="2.7026234"
     inkscape:cx="69.780113"
     inkscape:cy="101.57332"
     inkscape:document-units="cm"
     inkscape:current-layer="layer1"
     showgrid="false"
     fit-margin-top="0"
     fit-margin-left="0"
     fit-margin-right="0"
     fit-margin-bottom="0"
     inkscape:window-width="1330"
     inkscape:window-height="747"
     inkscape:window-x="36"
     inkscape:window-y="21"
     inkscape:window-maximized="1"
     units="cm" />
  <metadata
     id="metadata7">
    <rdf:RDF>
      <cc:Work
         rdf:about="">
        <dc:format>image/svg+xml</dc:format>
        <dc:type
           rdf:resource="http://purl.org/dc/dcmitype/StillImage" />
        <dc:title></dc:title>
      </cc:Work>
    </rdf:RDF>
  </metadata>
  <g
     inkscape:label="Layer 1"
     inkscape:groupmode="layer"
     id="layer1"
     transform="translate(-32.228633,-1064.9324)">
    <path
       inkscape:connector-curvature="0"
       id="path5115"
       d="m 111.85688,962.12555 c 0.96825,7.95603 -3.43,15.02874 -5.30527,22.43173 0.55562,2.86645 -2.78231,10.36958 2.92738,7.9522"
       style="color:#000000;clip-rule:nonzero;display:inline;overflow:visible;visibility:visible;opacity:1;isolation:auto;mix-blend-mode:normal;color-interpolation:sRGB;color-interpolation-filters:linearRGB;solid-color:#000000;solid-opacity:1;fill:none;fill-opacity:1;fill-rule:evenodd;stroke:#000000;stroke-width:1.38269389;stroke-linecap:butt;stroke-linejoin:miter;stroke-miterlimit:4;stroke-dasharray:none;stroke-dashoffset:0;stroke-opacity:1;color-rendering:auto;image-rendering:auto;shape-rendering:auto;text-rendering:auto;enable-background:accumulate" />
    <g
       id="g5852"
       transform="matrix(0.97266298,0,0,0.97266298,3.401293,30.564901)">
      <path
         inkscape:connector-curvature="0"
         id="path5804"
         d="m 111.34722,1103.4574 c -1.03044,-0.1085 -2.08709,-1.2372 -2.68306,-1.7887 -0.40244,-0.4373 -0.88434,-1.1715 -1.34154,-1.6396 -0.231,-1.464 -0.93906,-3.2732 -0.29811,-4.7699 0.25744,-1.1064 0.74918,-2.1647 1.34153,-2.9812 1.16863,-0.8166 2.9942,-1.5639 4.47178,-1.3415 1.17643,0.084 2.19488,0.7621 2.98118,1.4906 0.62782,1.0844 1.2319,2.192 1.34153,3.7264 0.48643,1.7966 0.91357,3.7405 1.04342,5.8133 -0.18047,1.1545 -0.45311,2.7936 -1.63965,3.2793 -1.37871,0.4214 -2.9874,-0.064 -4.0246,-0.7452 -0.27492,-0.417 -0.53467,-0.6943 -1.19248,-1.0435 z"
         style="color:#000000;clip-rule:nonzero;display:inline;overflow:visible;visibility:visible;isolation:auto;mix-blend-mode:normal;color-interpolation:sRGB;color-interpolation-filters:linearRGB;solid-color:#000000;solid-opacity:1;fill:#000000;fill-opacity:1;fill-rule:evenodd;stroke:#000000;stroke-width:1.38269389;stroke-linecap:butt;stroke-linejoin:miter;stroke-miterlimit:4;stroke-dasharray:none;stroke-dashoffset:0;stroke-opacity:1;color-rendering:auto;image-rendering:auto;shape-rendering:auto;text-rendering:auto;enable-background:accumulate" />
      <path
         inkscape:connector-curvature="0"
         id="path5808"
         d="m 109.26039,1137.2939 c 2.88755,-0.084 5.60209,0.2495 8.49638,0.149 2.15466,0.2323 4.34494,-0.026 6.64775,0 1.64669,0.1306 3.2246,0.4273 4.97887,0.2982 2.48598,-0.4927 4.87952,0.3578 7.45297,0.149 1.48914,-0.01 2.54576,0.039 1.78871,2.0869 -0.32391,1.5726 -0.8797,3.0671 -1.19248,4.6208 -0.71123,1.8581 -0.87245,3.944 -1.34153,5.9024 -0.0951,1.6117 -0.38274,3.1437 -0.29812,4.8299 -0.29624,1.8138 -0.56035,3.6493 -0.7453,5.5152 -0.11448,0.8536 -1.34431,2.7557 -0.59623,2.9811 1.88233,0.4723 4.29595,0.3725 6.40955,0.5963 0.7726,-0.1649 3.29939,-0.3159 3.42836,0"
         style="color:#000000;clip-rule:nonzero;display:inline;overflow:visible;visibility:visible;isolation:auto;mix-blend-mode:normal;color-interpolation:sRGB;color-interpolation-filters:linearRGB;solid-color:#000000;solid-opacity:1;fill:none;fill-opacity:1;fill-rule:evenodd;stroke:#000000;stroke-width:1.38269389;stroke-linecap:butt;stroke-linejoin:miter;stroke-miterlimit:4;stroke-dasharray:none;stroke-dashoffset:0;stroke-opacity:1;color-rendering:auto;image-rendering:auto;shape-rendering:auto;text-rendering:auto;enable-background:accumulate" />
      <path
         inkscape:connector-curvature="0"
         id="path5810"
         d="m 112.5397,1134.9089 c 2.4802,-0.5809 4.66444,0.4541 7.05529,0.4396 0.92801,0.3337 2.8717,0.073 4.21037,0.1567 2.45093,0.1293 4.65538,-0.3364 7.06863,-0.2981 1.37522,0.1321 5.18824,-1.4521 4.47177,1.3415 -0.15,1.9288 -0.59563,3.7352 -0.74529,5.6642 -0.72949,2.329 -0.90087,4.8241 -1.48514,7.1621 -0.35713,1.8745 -0.68872,3.6082 -0.75075,5.657 -1.34377,2.2812 0.35073,3.0832 2.7123,2.8322 2.49989,0.062 5.06544,0.3182 7.5421,0 0.0932,0.066 0.45809,-0.1396 0.3288,0.149"
         style="color:#000000;clip-rule:nonzero;display:inline;overflow:visible;visibility:visible;isolation:auto;mix-blend-mode:normal;color-interpolation:sRGB;color-interpolation-filters:linearRGB;solid-color:#000000;solid-opacity:1;fill:none;fill-opacity:1;fill-rule:evenodd;stroke:#000000;stroke-width:1.38269389;stroke-linecap:butt;stroke-linejoin:miter;stroke-miterlimit:4;stroke-dasharray:none;stroke-dashoffset:0;stroke-opacity:1;color-rendering:auto;image-rendering:auto;shape-rendering:auto;text-rendering:auto;enable-background:accumulate" />
      <path
         inkscape:connector-curvature="0"
         id="path5812"
         d="m 111.04911,1135.6542 c -0.0644,-1.8034 0.0273,-3.4508 0.44717,-4.7699 0.10096,-1.4239 -0.31789,-2.5474 0,-3.7557 0.22612,-1.2675 0.20952,-2.009 0.14906,-3.3991 0.3544,-1.5135 0.048,-3.3006 0.14906,-4.919 -0.19265,-0.9634 0.46955,-2.8078 0,-4.0246 -0.31238,-1.3662 -0.33803,-3.0192 -0.29812,-4.7377 0,-2.1472 0,-4.2945 0,-6.4417 l 0,0.1491 0,0.149"
         style="color:#000000;clip-rule:nonzero;display:inline;overflow:visible;visibility:visible;isolation:auto;mix-blend-mode:normal;color-interpolation:sRGB;color-interpolation-filters:linearRGB;solid-color:#000000;solid-opacity:1;fill:none;fill-opacity:1;fill-rule:evenodd;stroke:#000000;stroke-width:1.38269389;stroke-linecap:butt;stroke-linejoin:miter;stroke-miterlimit:4;stroke-dasharray:none;stroke-dashoffset:0;stroke-opacity:1;color-rendering:auto;image-rendering:auto;shape-rendering:auto;text-rendering:auto;enable-background:accumulate" />
      <path
         inkscape:connector-curvature="0"
         id="path5814"
         d="m 111.04911,1109.7179 c -1.19248,13.8625 -2.38495,27.7251 -3.57743,41.5876"
         style="color:#000000;clip-rule:nonzero;display:inline;overflow:visible;visibility:visible;isolation:auto;mix-blend-mode:normal;color-interpolation:sRGB;color-interpolation-filters:linearRGB;solid-color:#000000;solid-opacity:1;fill:none;fill-opacity:1;fill-rule:evenodd;stroke:#000000;stroke-width:1.38269389;stroke-linecap:butt;stroke-linejoin:miter;stroke-miterlimit:4;stroke-dasharray:none;stroke-dashoffset:0;stroke-opacity:1;color-rendering:auto;image-rendering:auto;shape-rendering:auto;text-rendering:auto;enable-background:accumulate" />
      <path
         inkscape:connector-curvature="0"
         id="rect5816"
         d="m 97.181687,1088.7908 c 7.969623,-7.8986 15.939233,-15.7972 23.908853,-23.6957 0,27.4247 0,54.8493 0,82.274 -7.96962,7.8985 -15.93923,15.7971 -23.908853,23.6957 0,-27.4247 0,-54.8493 0,-82.274 z"
         style="color:#000000;clip-rule:nonzero;display:inline;overflow:visible;visibility:visible;opacity:1;isolation:auto;mix-blend-mode:normal;color-interpolation:sRGB;color-interpolation-filters:linearRGB;solid-color:#000000;solid-opacity:1;fill:none;fill-opacity:1;fill-rule:evenodd;stroke:#000000;stroke-width:1.38269389;stroke-linecap:butt;stroke-linejoin:miter;stroke-miterlimit:4;stroke-dasharray:none;stroke-dashoffset:0;stroke-opacity:1;marker:none;color-rendering:auto;image-rendering:auto;shape-rendering:auto;text-rendering:auto;enable-background:accumulate" />
    </g>
  </g>
</svg>
