<?xml version="1.0" encoding="UTF-8" standalone="no"?>
<!-- Created with Inkscape (http://www.inkscape.org/) -->

<svg
   xmlns:dc="http://purl.org/dc/elements/1.1/"
   xmlns:cc="http://creativecommons.org/ns#"
   xmlns:rdf="http://www.w3.org/1999/02/22-rdf-syntax-ns#"
   xmlns:svg="http://www.w3.org/2000/svg"
   xmlns="http://www.w3.org/2000/svg"
   xmlns:sodipodi="http://sodipodi.sourceforge.net/DTD/sodipodi-0.dtd"
   xmlns:inkscape="http://www.inkscape.org/namespaces/inkscape"
   id="svg2"
   version="1.1"
   inkscape:version="0.91 r13725"
   xml:space="preserve"
   width="177.16536"
   height="84.331284"
   viewBox="0 0 177.16536 84.331285"
   sodipodi:docname="camaleonte.svg"><title
     id="title4215">Camaleonte</title><metadata
     id="metadata8"><rdf:RDF><cc:Work
         rdf:about=""><dc:format>image/svg+xml</dc:format><dc:type
           rdf:resource="http://purl.org/dc/dcmitype/StillImage" /><dc:title>Camaleonte</dc:title></cc:Work></rdf:RDF></metadata><defs
     id="defs6"><clipPath
       clipPathUnits="userSpaceOnUse"
       id="clipPath18"><path
         d="M 0,0 595,0 595,842 0,842 0,0 Z"
         id="path20"
         inkscape:connector-curvature="0" /></clipPath></defs><sodipodi:namedview
     pagecolor="#ffffff"
     bordercolor="#666666"
     borderopacity="1"
     objecttolerance="10"
     gridtolerance="10"
     guidetolerance="10"
     inkscape:pageopacity="0"
     inkscape:pageshadow="2"
     inkscape:window-width="1366"
     inkscape:window-height="706"
     id="namedview4"
     showgrid="false"
     fit-margin-top="0"
     fit-margin-left="0"
     fit-margin-right="0"
     fit-margin-bottom="0"
     inkscape:zoom="0.63421264"
     inkscape:cx="449.68408"
     inkscape:cy="333.46593"
     inkscape:window-x="-8"
     inkscape:window-y="-8"
     inkscape:window-maximized="1"
     inkscape:current-layer="g10" /><g
     id="g10"
     inkscape:groupmode="layer"
     inkscape:label="IMAGE2~1"
     transform="matrix(1.25,0,0,-1.25,-356.98478,318.41402)"><g
       id="g12" /><rect
       style="color:#000000;clip-rule:nonzero;display:inline;overflow:visible;visibility:visible;opacity:0.7;isolation:auto;mix-blend-mode:normal;color-interpolation:sRGB;color-interpolation-filters:linearRGB;solid-color:#000000;solid-opacity:1;fill:#ffffff;fill-opacity:1;fill-rule:evenodd;stroke:#000000;stroke-width:1.89237571;stroke-linecap:butt;stroke-linejoin:miter;stroke-miterlimit:4;stroke-dasharray:7.56950318, 3.78475159;stroke-dashoffset:0;stroke-opacity:1;marker:none;color-rendering:auto;image-rendering:auto;shape-rendering:auto;text-rendering:auto;enable-background:accumulate"
       id="rect3355"
       width="539.88202"
       height="282.55508"
       x="-355.71664"
       y="-1099.9465"
       transform="scale(1,-1)" /><g
       id="g3379"
       transform="matrix(0.25863363,0,0,0.25863363,199.98049,71.626967)"><path
         style="fill:#c8c8c8"
         d="m 662.70219,448.12169 c -2.23803,1.68241 -1.48102,16.01996 1.00896,19.10901 1.28411,1.59309 4.39093,3.69307 6.90405,4.66663 4.25896,1.64988 4.51896,2.24166 3.82853,8.71362 -0.4074,3.81894 -0.0512,7.41553 0.79158,7.99242 1.29706,0.88788 2.27354,1.02094 6.36068,0.86671 4.7963,-0.18099 4.85243,-0.14105 8.4432,6.00744 1.98815,3.4043 4.48398,7.6379 5.5463,9.408 1.06232,1.7701 2.50572,4.59421 3.20758,6.2758 1.37049,3.28362 3.38551,7.5905 8.4322,18.02282 1.75541,3.6287 4.27632,9.34934 5.60205,12.71252 1.32572,3.36319 3.29232,7.63556 4.37018,9.49417 1.07789,1.8586 1.84615,4.17582 1.70727,5.14937 l -0.2525,1.7701 -1.86131,-1.7701 c -1.02371,-0.97355 -2.87238,-2.9287 -4.10818,-4.34478 -1.2358,-1.41608 -3.68431,-3.80571 -5.44118,-5.3103 -2.59742,-2.22444 -9.73309,-10.22249 -19.30946,-21.64311 -1.28612,-1.5338 -3.72161,-2.13978 -6.18824,-1.53973 -1.33993,0.32596 -3.2472,2.83298 -7.47579,9.82665 -1.28432,2.12411 -2.88329,4.65542 -3.55331,5.62511 l -1.21818,1.76308 -3.3672,-1.28032 c -4.31721,-1.64156 -4.27076,-3.76456 0.16247,-7.4251 11.09927,-9.16472 9.88709,-28.43813 -2.45751,-39.07319 -2.91314,-2.50971 -9.0842,-3.54565 -14.85818,-2.49423 -1.2151,0.22126 -4.66716,1.85055 -7.67125,3.62065 -3.0041,1.7701 -7.33498,4.2427 -9.6242,5.49467 -7.19408,3.93446 -9.93692,10.09042 -9.66876,21.70048 0.25411,11.00238 1.75547,13.76029 8.67657,15.93841 4.16666,1.31128 15.6342,2.51284 21.01784,2.20224 2.74349,-0.15828 3.24384,0.27168 3.28714,2.82471 0.0552,3.2591 2.43701,5.3815 6.45843,5.75517 1.80607,0.16782 2.71982,2.35822 3.16887,7.59653 0.34708,4.04838 1.68711,8.73655 2.97785,10.41814 1.29077,1.6816 3.27595,5.0126 4.41155,7.40223 2.18681,4.60169 7.19197,14.75951 10.70424,21.72394 2.21241,4.38694 10.04489,13.62598 13.30091,15.6895 1.0474,0.66379 2.81215,1.20689 3.92167,1.20689 4.2656,0 4.56336,-1.80952 1.28306,-7.79764 -1.86865,-3.41123 -5.7968,-10.83667 -8.7292,-16.50098 -5.91861,-11.4325 -6.2364,-11.997 -10.87138,-19.31017 -1.79499,-2.83215 -4.12901,-6.67005 -5.18675,-8.52865 -1.05772,-1.8586 -2.59186,-4.13409 -3.40921,-5.05663 -1.53456,-1.73208 2.85085,-9.02211 5.57992,-9.27569 0.8465,-0.0787 2.19002,0.6881 2.98562,1.7039 0.79558,1.0158 3.24928,2.93311 5.45265,4.26068 2.20338,1.32758 5.27434,3.28175 6.82438,4.3426 2.00287,1.37076 3.90213,1.95957 6.56434,2.03508 2.56176,0.0727 3.74607,-0.0987 3.74607,-0.54204 0,-0.35655 0.84099,-0.72642 1.86882,-0.82192 1.02786,-0.0955 2.52025,0.72869 3.31643,1.83156 0.79616,1.10287 3.72326,4.39485 6.50464,7.31551 2.78136,2.92066 5.73412,6.25166 6.56166,7.40223 1.69321,2.35414 4.56933,3.45622 7.76561,2.97567 2.83597,-0.42638 2.92598,-1.40037 0.89949,-9.73423 -0.96844,-3.98272 -1.26433,-7.1689 -0.65756,-7.08039 0.6068,0.0885 5.99674,2.11607 11.97763,4.5057 20.12446,8.04062 27.50242,10.51917 33.56432,11.27556 3.09224,0.38584 3.94919,0.37201 6.24894,-0.10084 3.2731,-0.673 8.7003,-4.41925 12.92513,-8.92187 12.25139,-13.05696 15.8036,-16.24009 18.26062,-16.36322 1.21379,-0.0608 4.70128,-0.8574 7.74998,-1.77015 3.04871,-0.91275 7.32676,-1.91481 9.50679,-2.2268 2.18004,-0.312 6.48487,-1.80999 9.56631,-3.32887 4.8113,-2.37155 6.18067,-2.73888 9.69524,-2.6007 2.6708,0.10501 5.54866,-0.11739 8.28372,-0.64016 5.61802,-1.0738 5.88971,-1.24269 9.74608,-6.05829 8.63654,-10.78477 9.08472,-12.5516 3.18395,-12.5516 -2.41241,0 -3.56592,0.56025 -4.63839,2.25285 -6.93432,10.94378 -8.14471,11.838 -16.25795,12.01124 -5.6026,0.11963 -9.21285,1.06236 -14.34763,3.74654 -2.01887,1.05535 -5.99254,2.33369 -8.83039,2.84076 -2.83785,0.50705 -5.15973,1.11401 -5.15973,1.34877 0,0.23476 -3.40204,0.83916 -7.56007,1.34311 -8.38088,1.01575 -7.96105,0.72086 -20.32034,14.27246 -4.42401,4.85081 -7.96452,7.38062 -8.34101,5.95997 -0.30076,-1.13483 12.55707,-17.3298 20.25367,-25.51039 4.02773,-4.28099 6.36937,-5.80666 13.70927,-8.93207 7.43634,-3.16647 14.39108,-4.98765 19.05968,-4.99098 1.94994,-10e-4 6.89354,-0.80274 11.02676,-1.78741 4.12068,-0.98169 9.5164,-2.17537 11.9905,-2.65263 9.24417,-1.7832 9.83729,-2.26824 11.64105,-9.51957 0.97383,-3.91497 2.85933,-8.92846 4.18995,-11.14108 1.33065,-2.21262 1.8328,-4.49363 1.11591,-5.06892 -1.31173,-1.05262 -4.71211,-1.39072 -6.4736,-0.64367 -0.52171,0.22126 -1.95858,4.31261 -3.19307,9.09187 -2.31379,8.95787 -4.38158,11.67371 -9.31151,12.22977 -1.56935,0.17701 -6.04535,1.21689 -9.9467,2.31086 -4.61673,1.29455 -8.77303,2.0524 -11.90414,2.17055 -5.62693,0.21233 -16.50394,2.92486 -20.21732,5.04185 -1.36916,0.78054 -3.83812,1.73586 -5.48661,2.12292 -1.64848,0.38707 -4.02565,1.39371 -5.28262,2.23699 -3.4374,2.30608 -17.12657,18.22761 -24.45094,28.43827 -6.82314,9.51189 -8.11435,10.94242 -9.87676,10.94242 -0.99156,0 -2.42983,-0.5431 -3.19617,-1.20688 -0.76634,-0.66379 -3.53332,-1.71378 -6.14881,-2.33331 -2.61548,-0.61954 -9.31335,-3.01441 -14.88413,-5.32193 -12.46419,-5.1629 -13.17575,-5.34736 -17.40971,-4.51302 -1.74363,0.3436 -3.26274,0.56084 -3.37581,0.48275 -0.43152,-0.29802 -8.21567,-16.81283 -10.45805,-22.18773 -1.29233,-3.09768 -4.70736,-10.48381 -7.58894,-16.41364 -2.88159,-5.92983 -6.24791,-13.02632 -7.48072,-15.76997 -1.2328,-2.74365 -3.6205,-7.16085 -5.30597,-9.816 -1.68548,-2.65514 -4.0719,-7.28958 -5.30318,-10.29875 -3.30849,-8.08582 -6.52752,-11.72876 -10.91379,-12.35102 -2.02538,-0.28733 -5.21149,-1.30193 -7.0802,-2.25467 -4.36863,-2.22726 -9.1259,-11.86635 -6.08234,-12.32395 2.83974,-0.42694 5.60637,1.52919 10.09376,7.13672 1.91227,2.38964 4.46444,4.7037 5.67149,5.14236 2.06511,0.75052 2.32777,0.76181 4.45111,0.19136 2.48555,-0.66776 0.9199,-5.68055 -2.62082,-8.39116 -1.15608,-0.88505 -4.10773,-3.27468 -6.55922,-5.31029 -5.60432,-4.65359 -8.39943,-6.11489 -11.69629,-6.11489 -1.43248,0 -3.20655,0.45258 -3.94239,1.00574 z m 25.25444,87.89426 c 1.95992,2.69366 13.69037,15.00141 15.26719,16.01855 0.9149,0.59017 0.69769,0.67594 -0.81512,0.32184 -2.73718,-0.64069 -15.35704,-8.32501 -15.35704,-9.351 0,-0.44249 -1.52386,-1.13163 -3.38634,-1.53142 -2.8352,-0.60858 -3.13923,-1.30014 -1.86794,-4.24914 0.83511,-1.93724 2.2321,-3.45593 3.10442,-3.37488 0.87232,0.0811 2.247,1.05578 3.05483,2.16605 z M 515.12478,486.91098 c -2.02581,0.30457 -1.76444,6.44859 0.60036,14.11251 1.09238,3.54019 2.27914,8.75394 2.63729,11.5861 l 0.65113,5.14937 -7.78258,1.7701 c -4.28042,0.97355 -11.40961,2.32853 -15.84264,3.01107 -9.86631,1.51906 -10.60951,1.38204 -13.83826,-2.55125 -3.05848,-3.72588 -4.12325,-4.32185 -7.72145,-4.32185 -2.39355,0 -2.97886,0.83063 -2.97886,4.22742 0,4.09585 -0.16656,4.25063 -5.35153,4.97309 -4.83129,0.67318 -5.34947,0.98964 -5.33026,3.25527 0.0118,1.38027 1.88705,6.13025 4.16746,10.55549 3.76944,7.31482 6.16522,11.15007 16.28448,26.06872 1.80097,2.65515 4.20726,6.56546 5.34731,8.68958 1.14004,2.12411 3.03914,5.57844 4.22022,7.67628 2.11554,3.75764 2.05946,3.84955 -3.77876,6.19292 -5.31953,2.13518 -6.6931,2.41675 -13.41831,2.75063 -7.24183,0.35952 -25.19634,2.87068 -34.36182,4.80591 -2.45341,0.51802 -5.87906,0.94186 -7.61257,0.94186 -1.73351,0 -6.00927,0.31762 -9.50169,0.70583 -3.86332,0.42943 -7.06063,0.58697 -8.16497,0.40229 -1.86768,-0.31232 -5.77182,-4.88833 -7.81,-9.15402 -0.63432,-1.32758 -3.5113,-6.61373 -6.39328,-11.74702 -6.04373,-10.76486 -8.82218,-16.30528 -11.73727,-23.40487 -1.35156,-3.29168 -3.27767,-5.48507 -5.51104,-6.2758 -3.52098,-1.24663 -20.11208,-17.56795 -20.2107,-19.88208 -0.0302,-0.70803 -1.48935,-1.99828 -3.24261,-2.86721 -1.90151,-0.9424 -3.18775,-2.86622 -3.18775,-4.76788 0,-2.53949 -0.94208,-3.52749 -4.63113,-4.85685 -5.67235,-2.04405 -6.45871,-2.19163 -9.94922,-1.86729 -5.18228,0.48153 -9.37438,6.02406 -9.64351,12.75005 -0.27866,6.96377 0.96285,7.99436 10.27149,8.52646 4.31903,0.24689 5.38992,0.52826 5.38992,1.41617 0,2.03251 4.20172,2.70573 9.75747,1.5634 2.51792,-0.51771 2.83247,-0.49837 3.9246,0.24138 0.65301,0.44231 3.60266,3.42111 6.55477,6.61955 2.95211,3.19845 6.82877,6.43805 8.6148,7.19914 1.96432,0.83706 4.49508,4.13427 6.40549,8.34543 3.44603,7.59619 7.72383,15.91037 12.91847,25.10786 1.83784,3.25404 2.91794,5.98013 2.40021,6.05796 -1.25662,0.18894 -11.00057,-6.23407 -16.45681,-10.84797 -2.40725,-2.03562 -5.6781,-4.76614 -7.26857,-6.06783 -6.42915,-5.26184 -13.45236,-3.39839 -14.99616,3.97889 -0.48189,2.30278 -2.49335,6.2855 -4.46992,8.8505 -4.55751,5.91429 -2.67348,10.86425 4.00766,10.52941 3.20342,-0.16054 11.19585,-4.74207 14.37597,-8.2408 1.45886,-1.60502 3.48244,-2.8411 4.49685,-2.74685 1.0144,0.0943 1.84436,0.47071 1.84436,0.83654 0,0.97117 10.48735,7.86398 14.9938,9.85468 3.76917,1.66501 3.75972,1.75235 -0.38141,3.52379 -8.62464,3.68932 -15.10495,22.74051 -12.45216,36.60756 1.78407,9.32592 3.00819,10.40184 10.32631,9.07611 9.06094,-1.64146 22.34911,-25.79039 22.15525,-40.26331 -0.0427,-3.18895 0.98283,-3.49543 14.81076,-4.42622 4.45079,-0.2996 10.31634,-0.94661 13.03455,-1.4378 14.49236,-2.61884 24.14729,-3.98388 28.24672,-3.99358 10.18699,-0.0241 19.93836,-2.40989 28.19895,-6.89918 3.46464,-1.88289 2.49785,-5.46445 -11.85984,-43.93604 -2.21217,-5.92754 -3.63098,-10.83616 -3.1529,-10.90803 1.48192,-0.22281 2.74025,0.65043 24.75604,17.17967 2.59341,1.9471 5.98862,4.40915 7.54492,5.47121 1.5563,1.06206 2.8497,2.39227 2.87423,2.95603 0.058,1.33046 3.94665,2.86862 6.28792,2.48713 2.85588,-0.46535 3.87909,-35.29414 1.04109,-35.43724 -3.45369,-0.17414 -5.11988,4.74804 -5.13272,15.1628 -0.006,4.94153 -0.58698,8.898 -1.29085,8.79218 -2.00636,-0.30165 -11.49959,-6.40873 -11.53348,-7.41958 -0.0167,-0.49889 -3.29486,-3.17818 -7.28473,-5.95397 -11.83464,-8.23345 -11.80825,-7.84665 -0.66246,-9.71048 5.21931,-0.87279 11.11739,-2.06327 13.10685,-2.64552 1.98945,-0.58224 5.97029,-1.55073 8.84631,-2.15219 4.9418,-1.03347 5.22556,-1.33411 5.16423,-5.47121 -0.11324,-7.64168 -5.91698,-29.38253 -7.92416,-29.68431 -1.061,-0.15951 -2.58734,-0.19107 -3.39186,-0.0701 z M 346.66145,522.2971 c 0.0312,4.01692 -2.55024,6.43915 -6.4739,6.07457 -3.72334,-0.34597 -4.68634,-3.25301 -2.26642,-6.84171 1.37512,-2.03928 3.06875,-3.84609 3.76362,-4.01513 3.1972,-0.77777 4.94654,0.90323 4.9767,4.78227 z m 127.14055,8.09393 c 1.76172,1.78981 4.17988,12.49872 2.77784,12.30167 -1.3495,-0.18966 -4.73861,-5.20042 -6.90551,-10.20974 -0.9378,-2.16795 -0.6785,-3.29882 0.75638,-3.29882 1.20085,0 2.71793,0.5431 3.37129,1.20689 z m -106.6413,54.37469 c -2.14181,0.83916 -3.67658,0.24455 -1.93848,-0.75102 1.18805,-0.6805 1.82543,-0.7701 2.42584,-0.34101 0.4479,0.32011 0.2286,0.81152 -0.48736,1.09203 z m 267.91847,69.431 c -6.80413,0.56695 -13.98533,1.3773 -15.95821,1.80078 -4.45795,0.9569 -4.3707,3.76661 0.27952,9.00145 11.61987,13.08065 19.03814,33.34637 13.25342,36.20655 l -1.95274,0.96551 -1.54006,-0.96551 c -0.84704,-0.53103 -1.65403,-1.79113 -1.79334,-2.80022 -0.28036,-2.031 -4.01594,-5.08887 -6.75436,-5.52898 -3.65315,-0.58711 -4.65301,2.2476 -2.18075,6.18256 3.65991,5.82525 6.32294,8.19504 9.8036,8.72404 5.88189,0.89396 9.31267,-1.40359 12.00438,-8.03915 1.91849,-4.72946 1.91519,-7.81219 -0.015,-13.14018 -2.4906,-6.87827 -3.58407,-8.94553 -9.89552,-18.7081 -1.77375,-2.74365 -3.2231,-5.73449 -3.22079,-6.64631 0.004,-1.56741 0.44211,-1.69881 8.03152,-2.40879 4.41501,-0.41302 10.43549,-0.82634 13.37883,-0.9185 4.71125,-0.14751 5.4315,-0.35733 6.02002,-1.75375 0.80967,-1.92109 -0.90385,-3.09013 -4.45534,-3.03966 -1.44924,0.0206 -8.20201,0.50131 -15.00614,1.06826 z m -272.69614,6.5379 c -0.71596,0.30977 -4.05719,1.52886 -7.42496,2.70909 -7.62516,2.67223 -8.43912,5.20828 -1.842,5.7391 3.99165,0.32119 4.28122,0.67387 4.28122,5.21434 0,2.67843 -0.38095,4.80951 -0.84656,4.73576 -0.46561,-0.0738 -1.9709,-1.72718 -3.34508,-3.67429 -1.37419,-1.94711 -3.34811,-3.66977 -4.38648,-3.82813 -4.70623,-0.71774 -4.42544,2.10494 1.01648,10.21836 3.22276,4.80483 6.76617,10.69121 7.87424,13.08085 2.46348,5.31264 4.48406,7.29164 7.22915,7.08039 2.59913,-0.20002 2.66235,-6.14037 0.23175,-21.77731 -1.67257,-10.76023 -1.48245,-12.28383 1.89338,-15.17328 3.64776,-3.12222 3.20977,-4.88809 -1.21239,-4.88809 -1.19186,0 -2.7528,0.25344 -3.46875,0.56321 z"
         id="path3387"
         inkscape:connector-curvature="0" /><path
         style="fill:#b2b2b2"
         d="m 664.85946,448.5689 c -2.37698,0.93131 -1.47047,2.08728 2.85196,3.63677 5.26794,1.88842 10.78229,5.51537 10.76364,7.07956 -0.023,1.9266 4.86309,6.17538 7.10161,6.17538 2.54168,0 0.41659,-4.0258 -3.90741,-7.40223 -1.70014,-1.32758 -5.04861,-4.00126 -7.44107,-5.94152 -4.40035,-3.56866 -6.8999,-4.51524 -9.36873,-3.54796 z m 1.89382,19.54685 c 0.84045,1.10632 3.67622,2.88044 6.30173,3.9425 2.62548,1.06205 5.39565,3.06062 6.15593,4.44126 0.76026,1.38064 2.39834,2.79568 3.6402,3.14455 1.24183,0.34887 1.57307,0.8009 0.73607,1.00452 -0.98128,0.23871 -2.34699,0.0935 -3.84506,-0.40895 -1.84289,-0.61805 -2.44685,0.10498 -2.92108,3.49691 -0.62857,4.49589 1.52864,6.16161 5.79484,4.4746 1.40768,-0.55666 3.23868,-0.816 4.76185,-0.67446 1.86009,0.17283 2.09654,-1.36103 0.952,-6.17598 -1.72617,-7.26185 -4.55662,-11.00683 -8.86398,-11.72798 -1.62451,-0.27199 -4.96209,-1.17715 -7.41682,-2.01148 -2.45472,-0.83433 -4.9943,-1.51696 -5.64347,-1.51696 -0.64918,0 -0.49268,0.90516 0.34779,2.01147 z m -150.42255,23.89633 c -0.0557,1.94711 0.6699,3.90226 1.61252,4.34479 2.23078,1.04726 2.29063,-3.27811 0.0824,-5.95397 -1.39856,-1.69471 -1.60597,-1.49778 -1.69491,1.60918 z m 175.54144,0.16092 c -0.0171,1.15056 0.70259,2.52641 1.60133,3.05744 1.47026,0.86871 1.64067,0.82031 1.69982,-0.48275 0.0362,-0.79655 -0.68444,-2.1724 -1.60133,-3.05745 l -1.66707,-1.60918 -0.0327,2.09194 z m -42.05486,-1.02058 c -0.68371,0.16632 -3.11742,1.44157 -5.40824,2.83388 -2.29082,1.39232 -6.59137,3.83492 -9.55681,5.42801 -6.79651,3.65123 -9.67488,7.85646 -11.2347,16.41364 -1.7089,9.37491 1.66798,18.81818 7.44539,20.82066 5.12356,1.77586 14.85645,2.76214 21.29334,2.15776 4.25755,-0.39976 6.27548,-1.59864 13.75819,-8.17397 4.38074,-3.84952 4.7455,-5.16118 4.56453,-16.41363 -0.19758,-12.29159 -2.39387,-17.10214 -9.84262,-21.55927 -2.55497,-1.52884 -7.91573,-2.26202 -11.01908,-1.50708 z m -310.34905,22.1813 c -0.60094,0.30976 -1.77425,1.28697 -2.60735,2.17158 -1.41189,1.49917 -1.26375,1.57705 2.18183,1.14712 4.45769,-0.55622 6.78725,-0.16255 8.92853,1.50884 1.65688,1.29328 4.36507,1.34685 6.15476,0.12176 1.54826,-1.05983 -0.0306,-2.19726 -5.75336,-4.14471 -4.28784,-1.45916 -7.13539,-1.71646 -8.90441,-0.80459 z m 519.48013,3.02485 c -4.71476,1.12424 -10.18546,2.51475 -12.15712,3.09003 -2.117,0.61769 -5.23161,1.04597 -7.60673,1.04597 -4.89089,0 -15.36718,2.65865 -20.2829,5.14735 -1.86962,0.94655 -4.70873,2.02215 -6.30912,2.39023 -3.59548,0.82693 -7.88878,4.41549 -7.57045,6.32773 l 0.23671,1.4219 2.8979,-1.60918 c 10.03399,-5.57177 23.93762,-10.13784 30.86961,-10.13784 2.48201,0 7.13113,-0.76768 12.7506,-2.10545 4.86435,-1.158 10.58728,-2.36751 12.71761,-2.6878 4.43002,-0.66605 7.75765,-3.65586 4.918,-4.41875 -1.50177,-0.40346 -3.65923,-0.0868 -10.46411,1.53581 z m -385.74093,4.21319 c 0.44748,3.71566 0.36074,3.79144 -5.23256,4.57079 -6.31976,0.88058 -6.65774,1.49056 -3.66594,6.61628 l 1.59673,2.73561 0.33143,-2.79708 c 0.18229,-1.53838 1.30536,-2.88757 2.49573,-2.99817 1.19036,-0.11061 5.09912,0.24013 8.68613,0.77943 5.64895,0.84931 7.03016,1.42289 10.31978,4.28552 2.08887,1.81774 6.78065,5.47738 10.42618,8.13252 3.64552,2.65515 8.20444,6.05857 10.13092,7.56315 15.26008,11.91814 15.72699,12.12548 15.92435,7.07155 0.1126,-2.88236 -0.60744,-3.87145 -3.22757,-4.43387 -3.96617,-0.85134 -15.87733,-7.7231 -15.92809,-9.18919 -0.0193,-0.5564 -3.40257,-3.32886 -7.51846,-6.16101 -4.11589,-2.83216 -7.99836,-5.94592 -8.62773,-6.91948 -1.12657,-1.74267 -0.99298,-1.79503 8.62145,-3.37928 5.37116,-0.88504 12.60424,-2.35756 16.07352,-3.27226 3.46927,-0.91469 7.30766,-1.75599 8.52976,-1.86955 1.2221,-0.11356 2.20057,-1.03067 2.17439,-2.03803 l -0.0475,-1.83156 -4.30644,0.80459 c -2.36855,0.44252 -6.15741,1.31148 -8.41972,1.93101 -2.26231,0.61954 -8.57677,1.83247 -14.03212,2.6954 -12.66615,2.00356 -14.70533,1.73471 -17.81403,-2.34866 -3.48211,-4.57383 -7.0438,-4.54514 -6.49013,0.0523 z m -125.44293,1.53199 c -0.77576,0.53103 -0.76724,1.40582 0.0188,1.94397 1.82775,1.25115 -0.61207,3.94978 -4.24661,4.69709 -2.37339,0.48799 -3.32692,0.51035 -6.24374,0.1464 -3.08345,-0.38475 -3.43914,-0.26598 -3.40978,1.13857 0.0416,1.98843 2.18976,2.52018 9.12401,2.25852 4.42001,-0.16679 5.5927,-0.45959 6.83698,-1.70709 1.87008,-1.87493 5.3314,-1.29469 5.37958,0.90181 0.0227,1.03477 -0.95464,1.55125 -3.17814,1.67954 -2.10849,0.12164 -3.21092,0.62419 -3.21092,1.4637 0,1.55071 3.35606,1.97384 6.75633,0.85183 2.08468,-0.68786 6.08744,-1.14355 6.08744,-0.693 0,0.0714 2.93164,3.34273 6.51476,7.26971 6.67477,7.31534 11.54698,10.22309 15.39675,9.18882 2.51546,-0.67579 0.008,-3.57786 -4.14453,-4.79634 -3.14626,-0.92327 -13.01773,-10.47315 -17.67813,-17.10222 -2.69994,-3.84048 -8.57923,-8.20682 -11.05049,-8.20682 -0.84803,0 -2.17658,0.43448 -2.95235,0.96551 z m 520.48694,1.85056 c -3.71779,5.88153 -3.83784,6.36771 -1.43153,5.79824 1.29685,-0.30692 3.24958,-2.04483 4.33938,-3.86204 2.49219,-4.15559 2.48881,-4.1086 0.29552,-4.1086 -1.00658,0 -2.44809,0.97758 -3.20337,2.1724 z m -186.4046,1.40219 c -0.56339,0.2466 -2.03926,2.25869 -3.27972,4.47131 -1.24046,2.21263 -3.66383,6.34017 -5.38523,9.17233 -1.72139,2.83216 -3.15802,5.47524 -3.19248,5.87351 -0.0345,0.39827 -1.02596,0.72413 -2.20329,0.72413 -1.26048,0 -2.14062,-1.13348 -2.14062,-2.75677 0,-2.6609 -2.17702,-4.00179 -6.49714,-4.00179 -2.85292,0 -2.65077,7.28007 0.22459,8.08784 1.82862,0.51371 2.90663,0.56634 5.35153,0.26127 2.55769,-0.31914 3.06164,-0.19325 3.06164,0.76482 0,0.63076 0.85765,1.22653 1.90589,1.32393 2.00498,0.1863 3.35732,-0.70309 5.72325,-3.76402 0.78852,-1.02014 2.21344,-1.92726 3.16646,-2.01582 0.95304,-0.0886 2.37529,0.6737 3.16057,1.6939 0.78526,1.02019 2.73192,2.79627 4.32584,3.94683 1.59394,1.15057 4.05224,2.9609 5.4629,4.02296 4.46815,3.364 6.3365,4.34478 8.27671,4.34478 4.01782,0 4.55115,-1.96648 1.06529,-3.92786 -1.98051,-1.11436 -4.33356,-2.533 -5.22902,-3.15253 -0.89546,-0.61954 -3.62721,-2.28504 -6.07054,-3.70112 -2.44332,-1.41607 -4.75561,-2.93675 -5.13842,-3.37927 -0.38278,-0.44253 -1.87721,-0.76839 -3.32092,-0.72413 -1.85977,0.057 -2.58989,-0.5059 -2.50465,-1.93102 0.18281,-3.05807 3.21739,-8.57453 4.85185,-8.82027 3.33989,-0.50215 3.7343,-0.18849 12.20434,9.70532 4.71986,5.51326 8.23787,8.91673 9.39699,9.09099 3.09526,0.46537 3.67342,-0.35141 1.46705,-2.07259 -4.34084,-3.38628 -12.07792,-11.85249 -18.09094,-19.79582 -2.53157,-3.34427 -4.48416,-4.36349 -6.59193,-3.44091 z m 177.27435,8.97702 c -2.60726,0.97969 -4.60313,1.28734 -8.35168,1.28734 -4.22461,0 -5.69707,0.34495 -10.34558,2.42362 -6.29388,2.81443 -14.46798,4.96798 -24.67994,6.50217 -6.69685,1.0061 -7.45169,1.33186 -10.1215,4.36798 -3.5348,4.01977 -3.45829,5.20004 0.1751,2.70224 1.49284,-1.02624 4.65292,-2.18485 7.02241,-2.57469 2.36948,-0.38984 5.91382,-1.18627 7.87632,-1.76985 1.96249,-0.58357 5.20582,-1.33741 7.2074,-1.67518 2.00156,-0.33777 6.52904,-1.88786 10.06105,-3.44465 5.83163,-2.57038 6.96467,-2.83991 12.32804,-2.93264 3.99651,-0.0691 6.96599,-0.41024 9.18379,-1.05504 3.36247,-0.97761 6.97692,-5.11865 4.46774,-5.11865 -0.76846,0 -2.93889,0.57931 -4.82321,1.28735 z m -390.13084,6.92426 c -0.64278,0.74657 6.51906,11.98055 8.20397,12.86865 1.59842,0.84252 1.85635,0.74067 2.02481,-0.79954 0.21743,-1.98789 -9.27019,-13.18248 -10.22878,-12.06911 z m 327.64985,2.5699 c 0.0437,0.53103 0.52338,0.70931 1.06611,0.39617 0.54273,-0.31314 0.50704,-0.74761 -0.0794,-0.96551 -0.58638,-0.21789 -1.03043,0.0383 -0.9868,0.56934 z m -129.82873,7.6929 c -2.22328,1.15749 -0.0741,9.09163 4.14956,15.31838 4.82047,7.10671 7.52169,11.89668 9.79416,17.36765 1.13703,2.73733 3.01349,5.48903 4.16994,6.11488 1.15644,0.62586 2.10801,2.94971 2.11456,5.16411 0.009,2.5333 1.96031,6.09799 5.2665,9.61368 5.12469,5.4494 6.2047,6.14664 8.89455,5.74223 1.30398,-0.19606 -4.10448,-9.79408 -7.74808,-13.74997 -1.05975,-1.15056 -2.90639,-4.44011 -4.10366,-7.3101 -1.19726,-2.87 -2.69306,-5.54928 -3.32399,-5.95397 -0.63092,-0.40469 -2.13085,-3.19784 -3.33319,-6.20701 -1.20234,-3.00916 -3.05808,-7.0643 -4.12387,-9.01141 -3.31317,-6.05294 -6.83187,-12.43402 -8.42977,-15.28721 -1.2492,-2.23055 -1.86338,-2.56311 -3.32671,-1.80126 z m 40.54079,2.28402 c 2.17775,2.76107 5.92126,3.44698 4.62719,0.84782 -0.56099,-1.12678 -2.1743,-2.21298 -3.58512,-2.41377 -1.98612,-0.28267 -2.22135,0.0708 -1.04207,1.56595 z m -227.94007,3.70772 c 0,1.2636 0.97106,3.69799 2.15791,5.40975 1.18685,1.71176 3.10252,4.48815 4.25705,6.16974 1.15453,1.68159 3.16138,5.37466 4.45967,8.20682 3.20793,6.99795 7.2223,7.46838 5.49274,0.64367 -3.04061,-11.99799 -9.5716,-22.09597 -14.59257,-22.56252 -0.97614,-0.0907 -1.7748,0.86895 -1.7748,2.13254 z m 252.64313,-0.0871 c 0.0291,0.87438 2.31546,2.35527 5.3416,3.45974 2.90995,1.06206 5.29527,2.05395 5.30073,2.20421 0.006,0.15026 1.3701,0.72957 3.03257,1.28735 1.66246,0.55778 4.6055,1.73828 6.54012,2.62332 4.88294,2.23386 23.08688,7.68537 26.0899,7.81311 3.22047,0.137 6.26065,-1.32108 10.44666,-5.01024 4.63199,-4.08218 3.36136,-6.02026 -1.55147,-2.3665 -3.61689,2.68995 -5.76356,3.45719 -7.55859,2.70154 -0.52559,-0.22127 -2.28637,-0.4023 -3.91285,-0.4023 -3.58448,0 -6.37104,-0.74718 -8.40186,-2.25285 -0.83561,-0.61954 -3.63596,-1.63332 -6.22302,-2.25285 -4.45427,-1.06669 -10.67243,-3.31208 -20.7219,-7.48269 -2.4525,-1.01781 -5.35316,-1.85056 -6.4459,-1.85056 -1.09274,0 -1.96395,0.68793 -1.93599,1.52872 z m 64.50554,2.01148 c 0,0.44252 0.48588,0.62356 1.07971,0.40229 0.59383,-0.22126 0.59383,-0.58333 0,-0.80459 -0.59383,-0.22126 -1.07971,-0.0402 -1.07971,0.4023 z m -81.65547,2.4503 c -0.015,0.37411 0.96638,1.46031 2.17906,2.41377 1.21266,0.95346 3.65283,3.68629 5.42258,6.07295 3.80261,5.12807 7.38387,6.22822 7.29885,2.24216 -0.10639,-4.99105 -3.27756,-8.37003 -9.34808,-9.96082 -4.03912,-1.05846 -5.53357,-1.26518 -5.55241,-0.76806 z m -327.32617,3.10137 c -0.11736,0.66379 0.7499,1.20688 1.92723,1.20688 2.45051,0 2.45051,-0.45876 0,-1.60918 -1.52954,-0.71806 -1.7368,-0.6748 -1.92723,0.4023 z m -23.68057,6.48572 c -2.87699,1.13769 -2.80449,1.99566 0.27688,3.27683 2.12029,0.88157 1.93824,1.12223 -1.20656,1.59504 -2.8841,0.43362 -3.59598,1.0279 -3.21725,2.68575 0.26749,1.17091 -1.17769,4.72014 -3.2115,7.88718 -3.663,5.70402 -3.1544,8.389 1.5445,8.15351 3.18809,-0.15977 9.71065,-4.01872 11.41823,-6.75539 1.34447,-2.15471 1.30613,-2.17599 -3.76824,-2.09193 -4.64173,0.0769 -5.06537,-0.0216 -4.47981,-1.0415 0.779,-1.35684 6.61316,-4.18387 8.63429,-4.18387 2.3957,0 6.75775,2.20534 12.09495,6.11489 5.14248,3.76691 11.10404,7.75254 13.11791,8.77003 0.61311,0.30977 2.49475,0.56321 4.18141,0.56321 4.2049,0 3.84349,0.76222 -1.04442,2.20271 -7.64871,2.25412 -11.79815,8.14138 -14.89306,21.1304 -2.25401,9.45986 -0.21036,24.43503 3.40891,24.97918 3.47254,0.52208 5.93176,-0.48104 10.12729,-4.13093 6.03997,-5.25447 13.38928,-22.9799 14.78231,-35.6527 0.17513,-1.59309 1.35957,-3.16061 2.63211,-3.48338 2.30163,-0.5838 7.92889,-1.15883 17.89108,-1.82823 2.87127,-0.19294 6.69063,-0.66984 8.48745,-1.05979 7.6412,-1.6583 22.14587,-3.70352 27.5513,-3.88485 9.45077,-0.31704 14.0869,-1.17366 21.33161,-3.94148 7.64956,-2.92249 10.66286,-5.09197 7.48289,-5.38745 -1.95131,-0.18132 -13.34751,3.15925 -13.34751,3.91256 0,0.46163 -10.51507,1.67275 -14.52303,1.67275 -3.41634,0 -18.80792,2.27892 -28.93332,4.28396 -3.29759,0.65299 -7.63233,1.19047 -9.63276,1.19441 -2.00042,0.004 -6.04532,0.29037 -8.98866,0.63651 -10.43427,1.22711 -11.03753,1.09315 -15.2184,-3.37927 -1.48923,-1.59309 -3.10256,-2.60688 -3.58518,-2.25286 -1.58119,1.15986 -4.24157,1.20527 -6.45031,0.11009 -5.49254,-2.72342 -17.20195,-11.5054 -24.39198,-18.29382 -2.62795,-2.48116 -5.00872,-3.01257 -8.07113,-1.80156 z m 28.05754,2.44523 c 0.004,0.61953 0.77952,1.77814 1.72223,2.57469 l 1.71401,1.44826 0.11747,-1.93102 c 0.0646,-1.06206 -0.71038,-2.22067 -1.72222,-2.57468 -1.49003,-0.52133 -1.83815,-0.42957 -1.83149,0.48275 z m 4.28122,7.08039 c 0.005,0.61954 0.77953,1.77815 1.72223,2.57469 l 1.71401,1.44826 0.11748,-1.93101 c 0.0646,-1.06206 -0.71039,-2.22067 -1.72223,-2.57469 -1.49002,-0.52133 -1.83814,-0.42957 -1.83149,0.48275 z m 244.6762,73.4986 c -4.77251,0.37653 -11.03381,0.82943 -13.91398,1.00644 -8.23216,0.50594 -11.08645,2.29825 -8.53396,5.35879 2.75204,3.29982 6.79112,6.7748 7.71338,6.63615 0.39879,-0.06 -0.043,-1.59978 -0.98173,-3.42184 -0.93875,-1.82205 -1.26697,-3.65873 -0.72941,-4.08152 1.04125,-0.81894 12.87865,-2.11349 21.91208,-2.39632 4.70284,-0.14725 5.4321,-0.35811 6.01617,-1.73952 0.36555,-0.86458 -0.11602,-1.6788 -1.07031,-1.80938 -0.95422,-0.13058 -5.63972,0.0707 -10.41224,0.4472 z m -282.99358,8.86862 c -4.76024,1.5091 -6.94461,2.67581 -6.94461,3.70927 0,1.3778 0.4133,1.49882 4.79751,1.40484 4.28462,-0.0919 5.24402,-0.45578 8.97412,-3.40414 5.24658,-4.14702 2.79626,-4.76075 -6.82702,-1.70997 z m 269.73426,7.90779 c 0.0238,0.70804 0.46214,0.95979 0.97415,0.55946 0.51202,-0.40034 0.49258,-0.97964 -0.0432,-1.28734 -0.53577,-0.30771 -0.95471,0.0199 -0.93095,0.72788 z m -269.34423,18.02282 c 2.37149,6.99113 3.72724,9.17232 5.7012,9.17232 2.47779,0 2.41617,-1.5553 -0.29944,-7.5582 -1.19991,-2.65243 -3.20095,-4.96965 -4.44674,-5.14938 -1.59077,-0.22949 -1.87508,0.82294 -0.95502,3.53526 z m 261.71106,6.39652 c -1.46238,0.57296 1.61323,4.63385 3.75323,4.95559 1.79993,0.27062 1.14799,-4.17601 -0.71724,-4.89186 -1.48049,-0.5682 -1.73479,-0.57354 -3.03599,-0.0637 z m 3.68438,7.7993 c 2.85184,3.75217 4.92772,4.39981 9.75551,3.04356 3.77387,-1.06018 2.69192,-2.71815 -2.06531,-3.16483 -2.35468,-0.22109 -4.28123,-0.60944 -4.28123,-0.86301 0,-0.25357 -1.09126,-0.56243 -2.42501,-0.68636 -1.76048,-0.16359 -2.03012,0.2942 -0.98396,1.67064 z"
         id="path3385"
         inkscape:connector-curvature="0" /><path
         style="fill:#939393"
         d="m 665.796,449.93202 c 0.0826,0.30977 0.9783,0.85286 1.99015,1.20688 1.47578,0.51635 1.86946,0.40494 1.99015,-0.56321 0.0828,-0.66379 -0.81282,-1.20689 -1.99015,-1.20689 -1.17734,0 -2.07291,0.25345 -1.99015,0.56322 z m 15.25114,10.86196 c 0.0437,0.53103 0.52338,0.70931 1.06611,0.39617 0.54273,-0.31313 0.50704,-0.74761 -0.0794,-0.9655 -0.58638,-0.2179 -1.03043,0.0383 -0.9868,0.56933 z m -11.3472,7.42752 c -0.73543,0.9615 1.21966,2.38658 5.76495,4.20214 2.84072,1.13469 5.17968,2.60286 5.19771,3.26261 0.0171,0.65974 1.05769,1.41677 2.31038,1.68229 1.63524,0.3466 1.90061,-0.51213 0.94086,-3.04472 -1.2103,-3.19376 -1.93515,-3.66329 -7.66193,-4.96317 -3.47882,-0.78964 -6.42722,-1.30226 -6.55197,-1.13915 z m 6.79912,14.8252 c 0.0826,0.68272 0.87757,1.52038 1.76629,1.86146 1.48781,0.571 1.7291,0.57576 3.04534,0.06 0.78622,-0.30804 2.29865,-0.47932 3.36093,-0.38061 1.0623,0.0987 2.51314,-0.0484 3.22413,-0.32701 1.54993,-0.60726 -0.59706,-2.06451 -3.04168,-2.06451 -0.95341,0 -3.25718,-0.0879 -5.11947,-0.19535 -2.74052,-0.15811 -3.35732,0.0413 -3.23554,1.04597 z m 2.02292,4.2183 c 0.0238,0.64412 0.55267,0.76157 1.94257,0.43148 1.05037,-0.24946 1.41421,-0.64774 0.80851,-0.88505 -1.73703,-0.68056 -2.78668,-0.50751 -2.75108,0.45357 z m -29.69094,4.98846 c -1.18924,0.57528 -4.21386,2.3494 -6.72137,3.94249 -2.50754,1.59309 -5.85511,3.40916 -7.43906,4.03572 -6.71825,2.6575 -8.62932,7.36824 -8.41616,20.74565 0.20186,12.67498 0.39092,13.26543 4.79215,14.97429 4.8682,1.89019 15.59778,3.29844 20.04118,2.63038 3.31296,-0.49809 10.09995,-4.36638 13.66537,-7.78867 8.30468,-7.97131 7.53706,-25.9221 -1.50701,-35.24104 -2.88214,-2.96976 -5.84882,-4.34479 -9.37398,-4.34479 -1.58339,0 -3.8519,0.47068 -5.04112,1.04597 z m -309.19259,22.04576 c -0.77675,0.60675 0.0945,1.05769 2.77056,1.43408 2.14698,0.30196 4.54763,0.98988 5.3348,1.52872 1.85235,1.26799 5.37226,1.26571 5.37226,-0.003 0,-1.07621 -7.56564,-3.84437 -10.50702,-3.84437 -1.01066,0 -2.34743,0.39827 -2.9706,0.88504 z m 515.12164,3.6386 c -5.51077,1.42595 -12.19935,2.76559 -14.8635,2.97699 -7.00286,0.55566 -14.87462,2.45301 -18.97486,4.57355 -1.96014,1.01375 -5.42943,2.36649 -7.70952,3.00609 -4.12466,1.15703 -5.81707,3.45768 -2.30339,3.13119 1.01324,-0.0942 3.49956,-1.08028 5.52518,-2.19139 4.4623,-2.4477 15.57833,-5.37104 21.79716,-5.73231 2.50113,-0.1453 7.31751,-0.9339 10.70306,-1.75244 3.38555,-0.81855 9.28619,-2.07377 13.11254,-2.78939 5.18403,-0.96954 6.95699,-1.62145 6.95699,-2.55802 0,-0.6913 -0.95041,-1.2569 -2.11204,-1.2569 -1.16162,0 -6.62085,1.16669 -12.13162,2.59263 z m -341.64024,2.32187 c -11.63814,2.60739 -24.1198,4.54677 -27.87003,4.33041 -2.14927,-0.124 -4.10206,-0.99038 -5.73428,-2.54408 -3.7148,-3.53609 -3.86805,-3.55228 -4.13623,-0.43711 -0.23142,2.68815 -0.62156,2.92918 -5.73337,3.54199 -3.82883,0.45902 -5.8666,1.08525 -6.74864,2.07395 -1.21671,1.36384 -1.07691,1.40905 3.76821,1.21856 2.76748,-0.10881 6.04519,-0.08 7.28379,0.064 1.2386,0.14404 4.34262,0.33864 6.89781,0.43245 3.57534,0.13127 4.93725,-0.004 5.91063,-0.5871 0.69565,-0.41672 5.11859,-1.37772 9.82874,-2.13556 7.41587,-1.19317 12.53003,-2.32101 25.07129,-5.52904 1.45431,-0.37201 2.65841,-0.92128 2.67577,-1.2206 0.0651,-1.12149 -3.93289,-0.83909 -11.21369,0.79209 z m -164.28501,4.53164 c 0,3.15782 -2.89657,4.71465 -8.77186,4.71465 -3.23332,0 -4.07182,0.23404 -4.07182,1.13652 0,0.73502 1.18517,1.20491 3.35481,1.33008 4.81264,0.27766 7.51505,-0.2659 8.86935,-1.78396 1.28467,-1.44003 5.73016,-1.7818 7.83277,-0.60218 0.70991,0.39827 1.3039,1.48446 1.31997,2.41377 0.0161,0.9293 0.99251,1.68964 2.16985,1.68964 2.52099,0 2.54297,-0.92232 0.13036,-5.47122 -1.75343,-3.30604 -5.98585,-6.11488 -9.21401,-6.11488 -0.89068,0 -1.61942,1.20941 -1.61942,2.68758 z m 333.25197,2.09973 c -2.47433,1.84463 -1.79602,3.97266 1.21878,3.82361 3.35243,-0.16575 4.58269,-2.40584 2.1054,-3.83364 l -1.86717,-1.07617 -1.45701,1.0862 z m -331.11136,7.78329 c 0,0.57438 0.89173,0.90164 2.14062,0.78559 1.17733,-0.1094 2.14061,-0.55242 2.14061,-0.9845 0,-0.43208 -0.96328,-0.78559 -2.14061,-0.78559 -1.17734,0 -2.14062,0.44302 -2.14062,0.9845 z m 139.21503,-0.1531 c 0.17626,0.69147 5.97728,4.36972 7.17571,4.5499 2.03274,0.30562 1.43598,-0.54038 -1.83211,-2.5973 -2.6805,-1.68709 -5.54249,-2.73289 -5.3436,-1.9526 z m 368.523,0.69732 c -1.48723,0.39827 -4.5628,0.72413 -6.83463,0.72413 -4.35303,0 -7.10472,0.58038 -9.2908,1.95959 -1.21606,0.76721 -0.74307,0.83642 5.97571,0.8744 6.72029,0.038 7.57628,-0.069 10.84238,-1.35478 1.95033,-0.7678 3.20075,-1.74059 2.77871,-2.16174 l -0.76735,-0.76573 -2.70402,0.72413 z m -181.82506,1.52872 c 0.0238,0.70804 0.46213,0.95979 0.97415,0.55946 0.51201,-0.40034 0.49257,-0.97964 -0.0432,-1.28735 -0.53578,-0.3077 -0.95472,0.0199 -0.93096,0.72789 z m -17.89392,4.10341 c -0.44657,2.03798 0.66196,5.87742 1.77542,6.14924 3.98707,0.97331 6.98613,-4.53011 3.52641,-6.47108 -1.90615,-1.06939 -5.03864,-0.87924 -5.30183,0.32184 z m 169.40651,1.77892 c -5.12844,1.18996 -11.6165,2.45322 -14.41795,2.80724 -3.67731,0.46471 -5.2177,1.01995 -5.54014,1.997 -0.24565,0.74433 0.51283,1.39604 1.6855,1.44826 1.17269,0.0522 4.55548,-0.57967 7.51734,-1.40418 2.96186,-0.82451 7.13528,-1.78986 9.27429,-2.14522 3.59126,-0.59663 13.07743,-4.52508 11.49967,-4.76229 -0.38186,-0.0574 -4.89029,0.86922 -10.01871,2.05919 z m -327.41367,-0.70614 c 0.10271,0.37493 0.60995,0.45118 1.29329,0.19445 0.61836,-0.23233 0.54231,-0.50991 -0.169,-0.61686 -0.71131,-0.10694 -1.21724,0.0831 -1.12429,0.42241 z m 171.66305,2.06512 c 0,0.79654 0.41746,1.1224 0.92768,0.72413 0.51023,-0.39827 0.51023,-1.04999 0,-1.44826 -0.51022,-0.39827 -0.92768,-0.0724 -0.92768,0.72413 z m -298.11626,2.91261 c 0.0154,1.43163 3.8811,3.52411 6.51052,3.52411 2.78367,0 2.56953,-1.59684 -0.39277,-2.92896 -3.60789,-1.62244 -6.13143,-1.86793 -6.11775,-0.59515 z m 311.37168,1.27126 c 0.78946,0.79654 2.72984,2.17239 4.31195,3.05744 1.5821,0.88505 3.51388,2.2609 4.29282,3.05744 1.98401,2.02881 3.20005,2.57469 5.7356,2.57469 3.37695,0 1.05323,-2.65957 -5.4833,-6.2758 -6.35546,-3.51607 -11.27958,-4.85801 -8.85707,-2.41377 z M 507.5411,547.68971 c 0,0.35402 0.82786,0.93333 1.8397,1.28735 1.8397,0.64367 1.8397,0.64367 1.8397,0 0,-0.35402 -0.82786,-0.93333 -1.8397,-1.28735 -1.8397,-0.64367 -1.8397,-0.64367 -1.8397,0 z m 4.11549,2.25285 c -0.61098,0.79404 9.60108,7.88499 11.35561,7.88499 2.60091,0 -0.0128,-3.68676 -3.26103,-4.59917 -1.38508,-0.3891 -3.71726,-1.36001 -5.18263,-2.15756 -1.46537,-0.79755 -2.77575,-1.30527 -2.91195,-1.12826 z m 157.61082,9.49417 c 0.6553,2.03561 1.55338,3.76146 1.99571,3.83521 1.56488,0.26092 0.2719,-5.61962 -1.44474,-6.57082 -1.00061,-0.55444 -1.23518,0.61025 -0.55097,2.73561 z m 63.8356,-2.50934 c -1.60364,0.59414 1.57696,2.35895 10.61266,5.88862 3.17194,1.23906 6.30013,2.5425 6.95154,2.89652 1.97009,1.07068 20.27524,7.34861 23.79522,8.16081 3.10845,0.71724 3.44101,0.72704 6.10222,0.17986 3.3023,-0.67899 3.87535,-2.84509 0.67397,-2.54762 -1.17733,0.1094 -2.14061,0.0455 -2.14061,-0.14192 0,-0.18746 -2.05032,-0.6491 -4.55625,-1.02586 -2.50595,-0.37676 -5.90809,-1.46332 -7.5603,-2.41457 -1.65221,-0.95126 -5.29059,-2.23614 -8.08529,-2.85531 -2.79468,-0.61916 -8.0687,-2.39292 -11.72005,-3.94168 -9.68561,-4.10828 -12.25134,-4.87379 -14.07311,-4.19885 z m -249.24057,3.66258 c 0.10271,0.37493 0.60995,0.45118 1.29329,0.19445 0.61836,-0.23233 0.54231,-0.50991 -0.169,-0.61686 -0.71131,-0.10694 -1.21724,0.0832 -1.12429,0.42241 z m 2.20342,5.12256 c -0.13049,1.23907 0.71388,3.41146 1.87639,4.82754 1.16251,1.41608 2.69344,3.56366 3.40206,4.77239 2.34918,4.00714 2.77401,2.06084 0.7615,-3.48872 -1.09053,-3.00714 -2.84225,-6.11926 -3.89272,-6.9158 -1.88526,-1.42953 -1.91302,-1.41913 -2.14723,0.80459 z m 186.00151,-0.21456 c 0,0.73754 1.00692,1.34099 2.23761,1.34099 1.41661,0 1.70512,-0.44282 0.78633,-1.20689 -2.00832,-1.67013 -3.02394,-1.71517 -3.02394,-0.1341 z m 52.46152,4.54439 c 0.58794,1.67337 1.90514,3.16821 2.92716,3.32187 2.29217,0.34462 0.60402,-4.05863 -2.06985,-5.39885 -1.31255,-0.65789 -1.5857,0.004 -0.85731,2.07698 z m -359.68393,1.68643 c -2.0071,0.78638 -0.33427,2.28314 2.72024,2.43393 3.19919,0.15795 3.67543,-1.76023 0.61753,-2.4872 -1.7214,-0.40925 -2.17579,-0.40199 -3.33777,0.0533 z m 3.75458,4.36646 c -1.3294,0.57335 -3.43047,1.04246 -4.66905,1.04246 -1.40464,0 -2.20046,0.99904 -2.11507,2.65515 l 0.13689,2.65514 3.46238,-1.04596 c 1.90431,-0.57529 4.12018,-1.04597 4.92416,-1.04597 0.80398,0 3.029,0.5431 4.94449,1.20688 l 3.48271,1.20689 -1.06844,-2.82452 c -0.58764,-1.55349 -2.33126,-3.28983 -3.87472,-3.85853 l -2.80627,-1.034 -2.41709,1.04246 z m 13.6161,9.4102 c 4.87534,4.58311 13.63032,10.29875 15.77521,10.29875 3.71807,0 3.86186,-1.40923 0.27369,-2.68223 -2.07847,-0.7374 -5.97063,-2.78898 -8.64924,-4.55908 -4.91132,-3.24554 -9.70807,-5.22749 -7.39966,-3.05744 z m 107.94315,1.91819 c -2.3786,0.70099 -4.32473,1.49167 -4.32473,1.75707 0,0.67674 -10.8596,2.11627 -16.03272,2.12527 -4.17439,0.007 -21.7563,2.70257 -29.86737,4.57868 -2.10451,0.48678 -5.27018,0.88505 -7.03481,0.88505 -1.76464,0 -6.96165,0.31714 -11.54892,0.70477 -6.4475,0.54481 -8.91856,0.61786 -10.88748,0.32184 -4.293,-0.64545 -6.01536,-0.44679 -11.329,1.3067 -10.68105,3.52472 -16.75388,17.00634 -14.96833,33.22957 1.13063,10.27282 2.36478,12.62361 6.31547,12.02963 0.57517,-0.0865 2.93632,-1.95957 5.247,-4.16241 5.71666,-5.4499 10.991,-16.05337 12.23778,-24.60269 0.56791,-3.89422 2.03894,-7.67916 3.26896,-8.41099 1.63193,-0.97095 1.52188,-1.81062 -0.40716,-3.1066 -2.45509,-1.64938 -2.31631,-1.84509 1.94665,-2.74519 2.52461,-0.53305 8.6774,-1.26993 13.67287,-1.6375 4.99546,-0.36757 15.16715,-1.68344 22.60376,-2.92415 7.4366,-1.24071 15.2338,-2.25583 17.32711,-2.25583 9.84803,0 24.80637,-3.69598 29.19592,-7.21386 1.87836,-1.50536 -0.0429,-1.46255 -5.415,0.12064 z m -127.19453,-0.0396 c -2.28074,0.55483 -6.12831,3.16937 -7.11108,4.83218 -1.45265,2.45785 2.42309,2.796 6.69921,0.58449 4.64664,-2.40314 6.86293,-5.68609 3.83863,-5.68609 -1.27557,0 -2.81761,0.12124 -3.42676,0.26942 z m 327.15486,13.56953 c 0.80063,1.32757 2.73135,3.35514 4.29049,4.5057 l 2.83479,2.09193 0.0745,-2.25285 c 0.10253,-3.09903 -2.44428,-5.87671 -5.82883,-6.35723 -2.3344,-0.33143 -2.57316,0.019 -1.371,2.01245 z m -44.81014,53.74679 c -0.72802,0.17711 -5.43664,0.47772 -10.46355,0.66803 -6.35201,0.24047 -10.23086,0.62369 -12.71663,1.25636 -3.91659,0.99685 -4.84395,3.39091 -1.43613,3.70756 1.17733,0.1094 2.14061,-0.0984 2.14061,-0.46174 0,-0.81004 15.65513,-2.5957 22.75683,-2.5957 3.4974,0 5.37964,-0.23367 6.29394,-0.78136 2.27198,-1.36099 -2.73658,-2.72693 -6.57507,-1.79315 z m -287.85716,9.36783 c -6.74193,2.14264 -8.22351,3.62694 -4.01101,4.01836 1.35594,0.126 3.62737,-0.01 5.04761,-0.30186 3.04334,-0.62575 8.69605,-5.28358 6.76454,-5.57398 -0.73048,-0.10983 -4.241,0.72604 -7.80114,1.85748 z m 269.66268,41.11444 c 0,1.48998 3.52123,2.0614 5.47835,0.88902 1.72002,-1.03035 0.5557,-1.88213 -2.80258,-2.05025 -1.84493,-0.0923 -2.67577,0.26821 -2.67577,1.16123 z"
         id="path3383"
         inkscape:connector-curvature="0" /><path
         style="fill:#656565"
         d="m 676.49906,471.1542 c -0.0828,0.38783 0.81281,0.79465 1.99015,0.90405 2.53187,0.23526 2.53187,-0.0797 0,-0.96551 -1.77369,-0.62058 -1.8451,-0.61837 -1.99015,0.0615 z m -25.47781,21.04685 c -2.82334,1.1303 -9.53885,6.16468 -8.97801,6.7305 1.24426,1.25532 0.93344,3.51549 -0.51334,3.73301 -0.88878,0.13363 -2.90188,-0.0214 -4.47353,-0.3446 -2.63272,-0.54132 -2.96835,-0.5043 -4.26488,0.47035 -7.56404,5.68618 -6.10603,29.53901 1.78583,29.21588 2.65117,-0.10855 4.05141,0.90163 2.23583,1.61298 -1.15878,0.454 -1.65671,0.46479 -3.27557,0.071 -3.9441,-0.95948 -4.29276,-0.0225 -0.61086,1.64161 4.14604,1.87392 11.76637,2.83126 17.16977,2.15704 2.30272,-0.28733 2.19778,-0.45332 -0.5781,-0.91448 -2.35784,-0.39172 -3.18981,-1.03974 -2.72977,-2.12625 0.77578,-1.83222 3.55524,-2.01191 7.04137,-0.45522 3.14542,1.40455 4.19946,1.02676 8.59591,-3.08094 5.02357,-4.69364 7.86973,-13.74083 6.46645,-20.55518 -1.22747,-5.96065 -1.81479,-7.00386 -8.21323,-14.58834 -3.23085,-3.82974 -6.23276,-4.93855 -9.65787,-3.56734 z m 1.78061,5.94491 c 0,0.43208 -0.96328,0.78559 -2.14062,0.78559 -1.17733,0 -2.14061,-0.44302 -2.14061,-0.9845 0,-0.57438 0.89174,-0.90164 2.14061,-0.78559 1.17734,0.10939 2.14062,0.55242 2.14062,0.9845 z m 210.62437,18.51691 c -3.22507,0.61653 -5.15725,1.90068 -2.85984,1.90068 2.71471,0 6.67921,-1.23506 5.89694,-1.83708 -0.56749,-0.43673 -1.03408,-0.4465 -3.0371,-0.0636 z m -363.32886,7.04633 c -3.23225,0.57754 -5.32639,1.13282 -4.65366,1.23396 1.93151,0.2904 12.4075,-1.43739 11.41889,-1.8833 -0.54194,-0.24443 -3.18038,0.009 -6.76523,0.64934 z m -149.12192,2.35313 c 0,1.77524 0.61429,2.1563 3.476,2.1563 2.90727,0 3.31522,-0.29146 2.4934,-1.78142 -1.52182,-2.75906 -5.9694,-3.03837 -5.9694,-0.37488 z m 121.47872,-0.61704 c -6.82813,0.81858 -8.16757,2.29059 -2.13955,2.35131 2.06034,0.0208 5.67262,0.12351 8.02729,0.22834 3.34604,0.14897 5.54157,-0.10784 10.05098,-1.17566 l 5.76975,-1.36625 -5.9566,-0.19002 c -3.27614,-0.10452 -6.83628,-0.27176 -7.91143,-0.37166 -1.07515,-0.0999 -4.60335,0.13587 -7.84044,0.52394 z m -131.11147,5.02619 c -0.72764,0.17701 -0.30285,0.32184 0.94397,0.32184 1.24682,0 2.26695,-0.14483 2.26695,-0.32184 0,-0.177 -0.42479,-0.32183 -0.94398,-0.32183 -0.51918,0 -1.53931,0.14483 -2.26694,0.32183 z m 319.29481,11.18381 c -0.53871,0.13275 -0.24022,1.11033 0.66331,2.17239 l 1.64277,1.93102 0.28065,-2.1724 c 0.26527,-2.05304 -0.31968,-2.4897 -2.58673,-1.93101 z m 150.60247,5.47121 c 0.0255,0.68967 0.49086,0.77848 2.10784,0.40229 2.70661,-0.62968 2.70661,-1.28734 0,-1.28734 -1.17734,0 -2.12587,0.39827 -2.10784,0.88505 z m -114.1055,7.80452 c 0.61577,0.35402 1.48886,0.64368 1.94021,0.64368 0.45135,0 0.82065,-0.28966 0.82065,-0.64368 0,-0.35402 -0.87309,-0.64367 -1.94021,-0.64367 -1.06712,0 -1.43642,0.28965 -0.82065,0.64367 z m 57.06927,10.92227 c 1.7169,1.35579 11.67022,4.69033 13.2785,4.44853 2.20359,-0.33131 -5.05811,-3.75787 -9.86728,-4.65606 l -4.81214,-0.89874 1.40092,1.10627 z m 15.347,5.57183 c 0.79436,0.39827 2.8492,0.94137 4.56633,1.20689 2.74911,0.42509 2.94202,0.36742 1.61492,-0.48276 -1.89735,-1.21549 -2.77603,-1.44826 -5.46701,-1.44826 -1.23935,0 -1.54351,0.30836 -0.71424,0.72413 z m -403.42201,1.71646 c 0.10271,0.37492 0.60995,0.45118 1.29329,0.19444 0.61836,-0.23232 0.54231,-0.50991 -0.16901,-0.61685 -0.7113,-0.10695 -1.21724,0.0831 -1.12429,0.42241 z m 1.37874,4.36942 c -2.02859,0.53142 -3.68835,1.33428 -3.68835,1.78413 0,0.67961 0.52709,0.75215 3.11715,0.42897 1.71443,-0.21392 4.12262,-0.29552 5.35153,-0.18133 1.42567,0.13247 2.23438,-0.31657 2.23438,-1.24065 0,-1.79635 -2.22119,-2.04686 -7.01471,-0.79112 z m -8.68311,14.00205 c -0.78489,0.11801 -1.39779,0.44387 -1.36198,0.72413 0.0534,0.41849 0.47117,0.40458 2.33683,-0.0778 2.30495,-0.59594 1.63672,-1.039 -0.97485,-0.64636 z m 117.37693,0.10728 c -0.72763,0.17701 -3.12818,0.32184 -5.33455,0.32184 -2.20637,0 -7.44753,0.63043 -11.64704,1.40095 -11.84139,2.17265 -11.44656,2.16478 14.34085,-0.28585 3.79078,-0.36024 7.21045,-0.90334 7.59926,-1.20688 0.76125,-0.5943 -2.78489,-0.75883 -4.95852,-0.23006 z m -50.3044,6.26792 c -9.93767,0.86422 -11.26157,0.91487 -14.92423,0.57096 -4.38891,-0.41208 -6.55624,-0.21166 -10.66706,0.98642 -3.58669,1.04533 -3.82862,2.75502 -0.63463,4.48493 1.97464,1.06949 1.79267,1.20688 -1.59845,1.20688 -2.10473,0 -4.42974,0.23624 -5.1667,0.52499 -0.73696,0.28873 -2.76611,3.46897 -4.50923,7.06718 -2.87598,5.93673 -3.06054,10.92731 -1.11112,30.04656 0.14532,1.42536 3.79755,0.24603 6.42859,-2.07584 1.40405,-1.23907 3.39374,-3.84594 4.42153,-5.79305 1.02779,-1.94711 2.94314,-5.35053 4.25634,-7.56315 1.31319,-2.21262 3.31228,-7.71602 4.44241,-12.22977 2.46475,-9.84422 2.49409,-10.06512 1.58457,-11.93136 -0.94267,-1.93427 5.66074,-3.4111 19.83465,-4.43596 5.76785,-0.41706 10.48701,-0.88774 10.48701,-1.04597 0,-0.43555 -6.82685,-0.33606 -12.84368,0.18718 z m 196.54276,59.54891 c -3.4935,1.15278 -0.97355,1.30136 5.51812,0.32535 6.71324,-1.00932 6.84818,-1.1313 1.25144,-1.1313 -2.54024,0 -5.33571,0.33281 -6.76956,0.80595 z m -265.7904,7.63191 c -3.93087,1.33122 -4.62192,2.50456 -1.47509,2.50456 2.55446,0 7.07189,-2.42845 5.88223,-3.16213 -0.60713,-0.37443 -1.95263,-0.17367 -4.40714,0.65757 z"
         id="path3381"
         inkscape:connector-curvature="0" /></g></g></svg>