<?xml version="1.0" encoding="UTF-8" standalone="no"?>
<!-- Created with Inkscape (http://www.inkscape.org/) -->

<svg
   xmlns:dc="http://purl.org/dc/elements/1.1/"
   xmlns:cc="http://creativecommons.org/ns#"
   xmlns:rdf="http://www.w3.org/1999/02/22-rdf-syntax-ns#"
   xmlns:svg="http://www.w3.org/2000/svg"
   xmlns="http://www.w3.org/2000/svg"
   xmlns:sodipodi="http://sodipodi.sourceforge.net/DTD/sodipodi-0.dtd"
   xmlns:inkscape="http://www.inkscape.org/namespaces/inkscape"
   width="50mm"
   height="35.508846mm"
   viewBox="0 0 177.16535 125.81874"
   id="svg4251"
   version="1.1"
   inkscape:version="0.91 r13725"
   sodipodi:docname="addominale_basso.svg">
  <title
     id="title4287">Addominale Basso</title>
  <defs
     id="defs4253" />
  <sodipodi:namedview
     id="base"
     pagecolor="#ffffff"
     bordercolor="#666666"
     borderopacity="1.0"
     inkscape:pageopacity="0.0"
     inkscape:pageshadow="2"
     inkscape:zoom="0.98994949"
     inkscape:cx="123.79185"
     inkscape:cy="148.48551"
     inkscape:document-units="px"
     inkscape:current-layer="layer1"
     showgrid="false"
     fit-margin-top="0"
     fit-margin-left="0"
     fit-margin-right="0"
     fit-margin-bottom="0"
     inkscape:window-width="1366"
     inkscape:window-height="706"
     inkscape:window-x="-8"
     inkscape:window-y="-8"
     inkscape:window-maximized="1" />
  <metadata
     id="metadata4256">
    <rdf:RDF>
      <cc:Work
         rdf:about="">
        <dc:format>image/svg+xml</dc:format>
        <dc:type
           rdf:resource="http://purl.org/dc/dcmitype/StillImage" />
        <dc:title>Addominale Basso</dc:title>
      </cc:Work>
    </rdf:RDF>
  </metadata>
  <g
     inkscape:label="Livello 1"
     inkscape:groupmode="layer"
     id="layer1"
     transform="translate(-113.07084,-571.50918)">
    <g
       id="g4280"
       transform="matrix(0.48600372,0,0,0.48600372,58.117993,358.42396)">
      <g
         id="g4270">
        <path
           sodipodi:nodetypes="sssssssssssssscssssssssscsssssssssscsssssssscsssssscssssccsssssscssscsscssscssscsscsssssssssscssscsscsscsssssssscssssssssssssssssssssssssssss"
           inkscape:connector-curvature="0"
           id="path4278"
           d="m 381.61001,696.23333 c -11.97223,-2.86498 -11.00044,-10.02911 1.02709,-7.57177 7.80134,1.59388 12.69362,1.51387 18.93495,-0.3097 5.87229,-1.71574 9.17307,-4.54339 7.30119,-6.25465 -0.69622,-0.63648 -5.16045,-2.13061 -9.92052,-3.32029 -6.94893,-1.73675 -10.65135,-2.04514 -18.7857,-1.56477 -7.39071,0.43646 -10.66639,0.23384 -12.11018,-0.74908 -4.69331,-3.19516 4.27319,-6.60169 17.37239,-6.60007 7.97178,9.9e-4 27.07831,5.01702 30.92267,8.11812 12.11903,9.77592 -13.63096,23.30409 -34.74189,18.25221 z M 345.78504,684.8393 c -6.81408,-0.38474 -17.16795,-1.18723 -23.00859,-1.78331 -5.84064,-0.59608 -34.91111,-1.35605 -64.60104,-1.68882 -29.68993,-0.33277 -63.93733,-0.92002 -76.10533,-1.305 l -22.12364,-0.69996 -0.55265,-3.78162 c -0.39121,-2.6769 1.03063,-5.5718 4.8672,-9.90972 7.39198,-8.35795 7.16085,-9.35114 -1.58921,-6.82898 -10.12926,2.9197 -22.06611,2.69425 -29.61597,-0.55938 -10.88331,-4.69018 -19.9339,-14.50275 -19.98485,-21.66742 -0.039,-5.4893 9.70308,-11.37577 19.93305,-12.04411 4.11049,-0.26855 10.65942,-0.97036 14.55319,-1.55957 7.74374,-1.1718 18.00887,-0.15659 25.36501,2.50858 2.26947,0.82225 5.97184,3.74562 8.22748,6.4964 l 4.10118,5.00141 5.04669,-5.0969 c 5.04417,-5.09435 9.71404,-6.30098 10.90161,-2.81683 0.32224,0.94539 -2.25708,5.45874 -5.73182,10.02966 -3.47474,4.57092 -6.31771,8.81636 -6.31771,9.4343 0,1.91959 25.82159,2.67582 46.90213,1.37362 10.70784,-0.66145 32.21202,-1.58951 47.78707,-2.06236 15.57504,-0.47284 34.07398,-1.37815 41.10877,-2.0118 7.03477,-0.63365 13.60549,-0.8675 14.6016,-0.51967 2.81728,0.98377 2.13524,4.04105 -1.28621,5.76549 -5.62114,2.8331 -47.95245,5.05186 -121.33838,6.35984 l -35.05615,0.62482 -5.20887,6.22896 c -2.86488,3.42593 -5.20887,6.74789 -5.20887,7.38212 0,0.76963 4.56204,1.16109 13.71666,1.17702 7.54416,0.0131 16.90246,0.45556 20.79622,0.98321 3.89376,0.52764 25.97043,0.996 49.05929,1.04079 23.08885,0.0448 48.57529,0.52393 56.63652,1.06477 8.06124,0.54084 23.64305,1.24394 34.6262,1.56245 17.07922,0.49529 20.22616,0.85017 21.74345,2.45201 2.49227,2.63117 -0.92316,5.91794 -5.9348,5.71122 -2.15599,-0.0889 -9.49515,-0.47648 -16.30923,-0.86122 z m 24.6759,-23.7424 c -3.90847,-1.53353 -7.86193,-5.78633 -7.86193,-8.4572 0,-3.26849 2.2419,-3.49948 8.2121,-0.84611 3.64104,1.6182 5.26477,1.75962 10.01357,0.87215 9.50815,-1.77692 10.09259,-2.85234 10.09259,-18.57158 l 0,-14.3858 -5.44642,3.07727 c -9.01025,5.09084 -17.56217,5.32645 -17.56217,0.48384 0,-1.77471 1.77664,-3.06697 6.28092,-4.56853 8.13347,-2.71139 7.25728,-4.77777 -2.74114,-6.46464 -4.38048,-0.73905 -8.16362,-1.35056 -8.40698,-1.35891 -0.24336,-0.008 -0.44127,1.67232 -0.43978,3.73482 0.005,7.02537 -5.68992,33.74563 -7.45434,34.97512 -1.32979,0.92663 -3.00793,0.51899 -6.88766,-1.67307 -5.56668,-3.14522 -6.73424,-6.05205 -2.43086,-6.05205 1.48425,0 3.40954,-1.05645 4.27841,-2.34766 0.86888,-1.29122 2.50447,-14.45372 3.63465,-29.25 1.13019,-14.79629 2.62417,-32.48509 3.31995,-39.30846 l 1.26508,-12.40612 7.88818,-3.59238 c 4.33851,-1.97581 15.46352,-7.64305 24.72225,-12.59388 9.25874,-4.95082 27.35489,-14.34341 40.21368,-20.8724 12.8588,-6.529 23.84219,-12.69437 24.40757,-13.70083 0.56537,-1.00647 0.27012,-3.53956 -0.65612,-5.6291 -0.92622,-2.08955 -2.21031,-5.11096 -2.85354,-6.71427 l -1.16949,-2.9151 -3.16094,2.93677 c -1.73853,1.61522 -19.01317,12.09399 -38.3881,23.28614 -36.42502,21.04136 -48.12156,28.88873 -56.38254,37.82787 l -4.82453,5.22058 0.51367,36.52861 c 0.53363,37.94829 0.0857,40.56762 -6.41557,37.51907 -2.51976,-1.18155 -2.76954,-5.53956 -2.28737,-39.90762 l 0.54128,-38.58122 6.0044,-6 c 10.21301,-10.20554 20.79679,-17.27468 57.3552,-38.30885 l 35.29778,-20.30885 -1.12068,-4.69115 c -0.61638,-2.58013 -3.50035,-9.15192 -6.40883,-14.60396 -12.75539,-23.91049 -1.2606,-48.53862 12.27776,-26.30566 1.88961,3.10315 3.92937,7.79678 4.5328,10.43028 0.60344,2.63351 1.98026,7.82958 3.05961,11.54684 1.80513,6.21685 2.19898,6.63771 4.91293,5.25 4.40204,-2.25087 6.41101,-1.87139 10.66079,2.01376 5.8832,5.37843 8.84005,13.67437 10.01218,28.09099 1.01449,12.4775 0.88282,13.217 -2.71536,15.25 -4.72059,2.66716 -9.09698,2.70848 -14.87518,0.14046 l -4.49142,-1.99614 -13.00371,6.85301 c -7.15203,3.76916 -16.54608,8.60493 -20.87566,10.74615 -4.32959,2.14121 -17.86926,9.227 -30.08815,15.74618 l -22.21619,11.85306 -2.0574,9.14694 c -1.13156,5.03082 -2.62115,14.65944 -3.31019,21.39694 l -1.2528,12.25 6.1434,0 c 9.13576,0 16.48079,1.77617 19.19513,4.64177 l 2.41169,2.54607 3.8644,-2.73826 c 2.62278,-1.85846 4.83107,-2.52868 6.87302,-2.08596 2.72949,0.59179 2.93888,2.53015 2.25721,20.89434 -0.65695,17.69795 -1.20673,20.80762 -4.3743,24.74204 -3.1371,3.89657 -4.81321,4.73467 -12.49935,6.25 -9.69019,1.91043 -12.73391,2.10276 -15.5835,0.98469 z m 98.33155,-155.65722 c 0,-8.07015 -2.06583,-15.48998 -5.59,-20.07747 l -2.30463,-3 -0.5726,5.29369 c -0.33182,3.06777 0.94617,8.74433 3.03931,13.5 1.98653,4.51347 3.09859,9.28918 2.47121,10.61268 -0.79983,1.68732 -0.52849,2.19261 0.90803,1.69098 1.24912,-0.43618 2.04868,-3.56621 2.04868,-8.01988 z m -28.36424,-44.71842 c -4.2874,-13.14138 -8.034,-16.00314 -6.65076,-5.08001 1.0138,8.00561 9.00877,23.75672 9.93568,19.57454 0.32127,-1.44951 -1.15696,-7.97205 -3.28492,-14.49453 z M 195.66326,621.4713 c -1.93733,-2.85249 0.59679,-4.34624 9.08045,-5.35253 4.56471,-0.54144 15.0693,-1.93342 23.34355,-3.09329 25.97209,-3.64073 42.19677,-4.46807 73.084,-3.72674 15.77662,0.37865 30.00497,0.90247 31.61856,1.16403 3.55635,0.57649 5.30309,2.8348 3.84883,4.97604 -1.95642,2.8806 -8.312,3.31462 -25.54448,1.74441 -9.14979,-0.83371 -21.41469,-1.49643 -27.25533,-1.4727 -17.79768,0.0723 -47.18421,2.17635 -58.40642,4.18181 -16.3217,2.91676 -28.42458,3.5587 -29.76916,1.57897 z M 406.0068,610.91187 c -1.48515,-1.62269 -2.70029,-3.87269 -2.70029,-5 0,-2.38089 -1.06639,-2.47581 -6.9904,-0.62221 -9.03213,2.82612 -10.93099,-0.68041 -6.96787,-12.86725 2.88429,-8.8694 4.36994,-10.5602 9.27889,-10.5602 5.42953,0 7.3877,1.42967 9.58771,7 0.97751,2.475 4.00086,7.90763 6.71856,12.07251 4.92984,7.55495 4.93336,7.57865 1.52439,10.21858 -4.44745,3.44414 -7.1346,3.38206 -10.45099,-0.24143 z"
           style="fill:#c7c7c7" />
        <path
           sodipodi:nodetypes="ssssssssssssssscsssssssssscssssssssssscsssssssssssssssscssssssscssssssscscsscsssssssssssscsssscssscsccssssccssssscsssssccsssssssssssscssssssss"
           inkscape:connector-curvature="0"
           id="path4276"
           d="m 118.22603,696.67026 c -0.0532,-0.015 -0.0887,-0.036 -0.0935,-0.0553 -0.009,-0.0354 0.0124,-0.0377 0.14359,-0.0155 0.11857,0.0201 0.20753,0.007 0.2972,-0.0437 0.0608,-0.0343 0.0674,-0.0448 0.0441,-0.0694 -0.0476,-0.0503 -0.2347,-0.0861 -0.40973,-0.0785 -0.13845,0.006 -0.15308,0.004 -0.15308,-0.0198 0,-0.0298 0.0871,-0.0534 0.19727,-0.0534 0.10535,0 0.31456,0.0488 0.39439,0.092 0.14337,0.0776 0.0542,0.19678 -0.18667,0.2494 -0.10345,0.0226 -0.13547,0.0218 -0.23355,-0.006 z m -0.4286,-0.15126 c -0.0539,-0.003 -0.19716,-0.0137 -0.3184,-0.0247 -0.12539,-0.0113 -0.4897,-0.0231 -0.84497,-0.0273 -0.34349,-0.004 -0.81466,-0.0116 -1.04702,-0.0167 l -0.42249,-0.009 0,-0.0448 c 0,-0.0247 0.04,-0.0924 0.0889,-0.15056 0.0489,-0.0582 0.0817,-0.1098 0.0729,-0.11475 -0.009,-0.005 -0.0656,0.005 -0.12627,0.0213 -0.22231,0.061 -0.41145,0.0276 -0.56225,-0.0994 -0.0835,-0.0703 -0.13574,-0.1843 -0.10539,-0.23013 0.0455,-0.0687 0.14255,-0.1107 0.2556,-0.1107 0.0573,0 0.11008,-0.005 0.11729,-0.012 0.0225,-0.0206 0.17963,-0.0282 0.27658,-0.0135 0.15513,0.0237 0.24314,0.084 0.2893,0.19841 l 0.0167,0.0415 0.056,-0.0692 c 0.0308,-0.038 0.0729,-0.0816 0.0937,-0.0969 0.0328,-0.0241 0.0397,-0.0248 0.0529,-0.006 0.008,0.0121 -0.0296,0.0802 -0.0842,0.15141 -0.0546,0.0711 -0.0906,0.13428 -0.08,0.14029 0.0354,0.02 0.5039,0.0279 0.71584,0.0121 0.1145,-0.009 0.39004,-0.0209 0.6123,-0.0275 0.22226,-0.007 0.47423,-0.0192 0.55992,-0.028 0.0857,-0.009 0.17111,-0.0127 0.18981,-0.009 0.0485,0.0105 0.0421,0.0463 -0.0112,0.0625 -0.10377,0.0314 -0.745,0.0625 -1.68146,0.0816 l -0.46534,0.009 -0.0903,0.10304 c -0.0497,0.0567 -0.0849,0.10804 -0.0782,0.11416 0.007,0.006 0.0927,0.0111 0.19107,0.0111 0.0984,0 0.23746,0.006 0.30903,0.0139 0.0716,0.008 0.3734,0.0145 0.67074,0.0152 0.52036,10e-4 0.81534,0.0111 1.12843,0.0381 0.0808,0.007 0.20014,0.008 0.26514,0.002 0.12735,-0.011 0.20417,0.0111 0.17712,0.0509 -0.008,0.0111 -0.0136,0.0227 -0.0136,0.0259 0,0.006 -0.0239,0.005 -0.20818,-0.004 z m 0.23445,-0.35913 c -0.0479,-0.0344 -0.0704,-0.10192 -0.034,-0.10192 0.009,0 0.0417,0.0132 0.0722,0.0294 0.0524,0.0278 0.0606,0.0283 0.14853,0.009 0.14245,-0.0318 0.15354,-0.0556 0.15394,-0.33001 3.3e-4,-0.21827 0.005,-0.24586 0.0452,-0.26641 0.0247,-0.0126 0.0522,-0.0188 0.0612,-0.0137 0.009,0.005 0.0158,0.12498 0.0151,0.26641 -0.002,0.31652 -0.0245,0.36502 -0.19472,0.41227 -0.14535,0.0403 -0.20622,0.0393 -0.26751,-0.005 z m -0.26507,-0.16225 c -0.069,-0.0193 -0.0748,-0.0565 -0.007,-0.0465 0.0622,0.009 0.0672,-0.0132 0.0997,-0.44666 0.014,-0.18647 0.0319,-0.41999 0.0398,-0.51893 l 0.0144,-0.17989 0.13793,-0.0748 c 0.0759,-0.0411 0.37304,-0.1961 0.66042,-0.34439 0.28738,-0.14829 0.53356,-0.28332 0.54707,-0.30007 0.0178,-0.0221 0.0123,-0.0582 -0.0204,-0.13206 -0.0428,-0.0967 -0.10622,-0.14668 -0.10622,-0.0838 0,0.0184 -0.11111,0.0936 -0.30307,0.20527 -0.80088,0.46585 -0.84571,0.49453 -0.98925,0.63294 l -0.10045,0.0969 -0.004,0.27676 c -0.002,0.15222 -1.7e-4,0.38573 0.005,0.51893 0.007,0.20816 0.003,0.24216 -0.0283,0.24216 -0.0322,0 -0.036,-0.0684 -0.0305,-0.54643 l 0.006,-0.54643 0.0901,-0.0832 c 0.14987,-0.13841 0.23724,-0.19675 0.70832,-0.47293 0.24878,-0.14585 0.47525,-0.28166 0.50328,-0.30179 0.0612,-0.0439 0.0539,-0.0836 -0.054,-0.29305 -0.15172,-0.29469 -0.0528,-0.62127 0.11254,-0.37141 0.0303,0.0457 0.0676,0.14228 0.083,0.21449 0.0154,0.0722 0.0397,0.15606 0.0539,0.18631 0.024,0.0509 0.0284,0.0531 0.0594,0.0292 0.0184,-0.0142 0.0387,-0.0327 0.0451,-0.0412 0.0255,-0.0336 0.13708,0.0704 0.17629,0.16431 0.044,0.10534 0.0745,0.37105 0.0492,0.42807 -0.0224,0.0505 -0.11567,0.0602 -0.21068,0.022 l -0.0753,-0.0303 -0.25022,0.13089 c -0.13762,0.072 -0.32185,0.16784 -0.40941,0.21301 -0.0876,0.0452 -0.19777,0.10374 -0.24492,0.13017 -0.0472,0.0264 -0.13399,0.0703 -0.19299,0.0975 l -0.10727,0.0494 -0.0338,0.14395 c -0.0186,0.0792 -0.0446,0.29029 -0.0578,0.46915 -0.0132,0.17886 -0.0347,0.35322 -0.0477,0.38746 -0.013,0.0342 -0.0241,0.0919 -0.0247,0.12801 -0.001,0.0693 -0.005,0.0714 -0.0929,0.0469 z m 1.66953,-1.84586 c 0.007,-0.0133 0.008,-0.0904 0.002,-0.17129 -0.0117,-0.15015 -0.0804,-0.28705 -0.13453,-0.26814 -0.0409,0.0143 -0.0279,0.16158 0.0245,0.27723 0.027,0.0597 0.0429,0.11984 0.0352,0.13355 -0.0151,0.0269 0.003,0.0529 0.0379,0.0529 0.0118,0 0.0275,-0.0109 0.0349,-0.0242 z m -0.32851,-0.52242 c -0.0249,-0.15159 -0.0938,-0.36921 -0.12208,-0.38553 -0.0757,-0.0437 -0.10084,0.11024 -0.0381,0.23334 0.0194,0.0381 0.0559,0.11001 0.081,0.15989 0.0837,0.16589 0.10727,0.16359 0.0792,-0.008 z m -1.05324,2.04943 c 0,-0.0233 0.0256,-0.0418 0.0857,-0.0618 0.12707,-0.0424 0.11456,-0.0772 -0.038,-0.10586 -0.14832,-0.0278 -0.14738,-0.0557 0.002,-0.0537 0.0829,10e-4 0.11816,0.009 0.16284,0.0388 0.0836,0.0549 0.0747,0.11172 -0.0263,0.16876 -0.10023,0.0566 -0.18614,0.063 -0.18614,0.0138 z m -2.38893,-0.0368 c -0.0251,-0.023 0.002,-0.0312 0.21706,-0.0646 0.42141,-0.0656 0.80911,-0.0937 1.11146,-0.0805 0.13196,0.006 0.30694,0.009 0.38885,0.008 0.15656,-0.002 0.22078,0.0172 0.1927,0.0585 -0.021,0.0309 -0.10476,0.0393 -0.24365,0.0244 -0.3811,-0.0409 -0.40501,-0.0416 -0.7714,-0.0208 -0.20027,0.0113 -0.43376,0.0324 -0.51887,0.0467 -0.21031,0.0354 -0.35619,0.0463 -0.37615,0.0281 z m 2.90412,-0.15042 c -0.0139,-0.0147 -0.0253,-0.0369 -0.0253,-0.0493 0,-0.0124 -0.012,-0.0352 -0.0266,-0.0507 l -0.0266,-0.0281 -0.036,0.029 c -0.0198,0.016 -0.0574,0.029 -0.0836,0.029 -0.0686,0 -0.0653,-0.0577 0.0156,-0.27417 0.009,-0.0254 0.0257,-0.0311 0.078,-0.0277 0.0573,0.004 0.0698,0.0135 0.0942,0.0735 0.0155,0.0381 0.0575,0.11426 0.0933,0.16934 0.0511,0.0785 0.0594,0.10617 0.0388,0.12801 -0.0334,0.0353 -0.0889,0.0358 -0.12177,0.001 z"
           style="fill:#b0b0b0" />
        <path
           sodipodi:nodetypes="ssssssssssssssssssssssssscsssssssssscsssssssscsssssscssccsscccssscsssssssssssssssssssssscssssssssscccccccsssccssssssscsssscccssssscsssssscssssssssccscccsssssssssss"
           inkscape:connector-curvature="0"
           id="path4274"
           d="m 380.69174,694.30551 c -2.16348,-0.85619 -3.9336,-2.43119 -3.9336,-3.5 0,-2.34045 -0.29198,-2.328 8.10575,-0.34551 8.19736,1.93519 17.3001,0.7827 23.56161,-2.98311 6.39552,-3.8464 4.45573,-6.64658 -6.88888,-9.94452 -8.32065,-2.41885 -11.21232,-2.7594 -19.91059,-2.34486 -10.67091,0.50855 -14.45692,-0.49612 -8.5736,-2.27513 5.82958,-1.76276 18.22052,-1.17109 27.59924,1.31786 10.88379,2.88838 15.63404,5.77682 15.63404,9.50644 0,8.21005 -23.74127,15.25948 -35.59397,10.56883 z m -34.9067,-11.43595 c -5.84064,-0.37822 -16.19451,-1.19987 -23.00859,-1.82587 -6.81408,-0.62601 -37.07923,-1.38619 -67.25588,-1.68929 -30.17665,-0.30311 -63.62759,-0.87534 -74.33544,-1.27164 -18.1355,-0.6712 -19.50611,-0.86849 -20.01355,-2.88077 -0.29961,-1.18812 2.18443,-5.23812 5.52009,-9 8.34855,-9.4153 9.287,-11.33978 5.52971,-11.33978 -1.65422,0 -5.49103,0.86222 -8.52625,1.91604 -14.007,4.86319 -27.14107,3.17135 -37.51778,-4.8328 -6.28247,-4.84602 -11.36315,-11.89194 -11.36315,-15.7585 0,-1.27544 2.81232,-4.07779 6.2496,-6.22744 5.1188,-3.20127 7.7608,-4.009 14.6016,-4.46413 4.59361,-0.30562 11.65066,-0.84072 15.68235,-1.18912 15.65685,-1.35301 30.72233,5.80621 30.72233,14.59945 0,3.91781 3.70753,3.51415 6.19462,-0.67445 2.18027,-3.67188 7.92734,-8.72339 9.14306,-8.03649 0.49264,0.27834 -1.96035,4.46416 -5.45109,9.30181 -3.49075,4.83766 -6.34681,9.35358 -6.34681,10.03537 0,2.7582 28.16345,3.6249 55.19738,1.69864 11.98609,-0.85406 32.14676,-1.71182 44.80149,-1.90614 12.65472,-0.19433 27.29866,-0.82782 32.54209,-1.40778 13.37217,-1.47904 19.66971,-1.35529 19.66971,0.38652 0,0.79254 -0.85783,1.74054 -1.90632,2.10666 -3.40851,1.19023 -37.52437,3.38817 -53.09471,3.42068 -8.34815,0.0174 -23.87895,0.72795 -34.51288,1.57894 -11.80546,0.94474 -28.29412,1.43612 -42.34301,1.26187 -12.65472,-0.15696 -23.92948,0.0473 -25.05502,0.45382 -2.35919,0.85217 -12.99764,13.32788 -12.99764,15.24234 0,0.7044 1.08007,1.51491 2.40016,1.80112 1.32009,0.28621 28.59854,1.02647 60.61879,1.64501 32.02024,0.61854 67.3778,1.6559 78.57236,2.30525 11.19457,0.64935 28.31827,1.19575 38.05267,1.21422 16.98074,0.0322 17.72187,0.1248 18.26448,2.28135 0.62948,2.50174 -0.0887,2.54673 -20.03437,1.25511 z m 25.1332,-24.02836 c -4.31121,-1.91605 -7.07548,-5.34838 -5.17306,-6.42327 0.54522,-0.30804 2.41787,0.16936 4.16144,1.06089 3.93725,2.01321 14.3354,1.15495 19.18171,-1.58325 4.40748,-2.49025 6.16482,-12.42342 4.62709,-26.154 -1.18157,-10.5503 0.0822,-14.87936 4.34368,-14.87936 1.03661,0 1.70763,7.41824 1.70763,18.87788 0,15.05476 -0.57532,19.66205 -2.84086,22.75 -1.56246,2.12966 -2.95625,3.94694 -3.09731,4.0384 -0.14106,0.0915 -4.37611,1.08364 -9.41125,2.20486 -9.05724,2.01687 -9.20108,2.01802 -13.49907,0.10785 z m -28.73798,-26.09468 c -0.65365,-1.16363 -0.58234,-5.10113 0.15841,-8.75 1.25882,-6.20019 1.43676,-6.40529 2.71958,-3.13431 1.2625,3.21912 2.17088,9.74122 1.7758,12.75 -0.26428,2.01261 -3.36053,1.43666 -4.65386,-0.86569 z m 13.74693,-13.38431 c 0.0303,-5.5 0.61849,-13.375 1.30729,-17.5 1.04665,-6.26794 1.27041,-5.03588 1.36215,7.5 0.0603,8.25 -0.52793,16.125 -1.3073,17.5 -0.90409,1.59503 -1.39717,-1.11986 -1.36214,-7.5 z m 15.52127,5 c -2.58623,-1.76069 -0.12159,-4.02603 5.47139,-5.029 4.21295,-0.75549 7.25137,-3.81635 5.84457,-5.8877 -0.58332,-0.85887 -4.13087,-2.0287 -7.88343,-2.59962 -9.16901,-1.39497 -10.53829,-2.98368 -2.57158,-2.98368 8.52958,0 15.06808,3.62373 15.06808,8.35095 0,2.68801 -1.37027,4.12163 -6.25622,6.54546 -7.27713,3.61006 -6.83356,3.53652 -9.67281,1.60359 z M 197.9991,620.05412 c 0,-1.31922 33.87726,-6.27139 53.98169,-7.89104 13.15543,-1.05983 26.01581,-1.25307 50.09688,-0.75277 31.77864,0.66022 32.38766,0.71398 31.85805,2.81249 -0.46548,1.84447 -1.63791,2.12354 -8.50443,2.02429 -4.38049,-0.0633 -13.14145,-0.61677 -19.46881,-1.2299 -6.32736,-0.61312 -17.13009,-1.12381 -24.00606,-1.13487 -15.62951,-0.0251 -48.89157,2.41747 -58.29389,4.28083 -9.124,1.8082 -25.66343,3.02688 -25.66343,1.89097 z m 145.3405,-11.94191 c -0.12266,-4.24554 0.52406,-7.25 1.56049,-7.25 2.01826,0 2.01826,7.01857 0,11.5 -1.01661,2.25731 -1.40292,1.20516 -1.56049,-4.25 z m 63.46289,0.1849 c -0.94935,-1.4108 -1.73828,-3.3233 -1.75319,-4.25 -0.0142,-0.92669 -0.78891,-2.3599 -1.71999,-3.1849 -1.43708,-1.27334 -2.11678,-1.16001 -4.49799,0.75 -3.21821,2.58137 -9.68394,3.03512 -9.68394,0.6796 0,-0.86372 1.31119,-5.34084 2.91374,-9.94915 1.9444,-5.59132 3.84247,-8.5801 5.70545,-8.98402 3.03607,-0.65826 7.30983,1.91449 7.30983,4.40044 0,0.83304 2.50257,5.6558 5.56127,10.71724 3.05869,5.06145 5.07482,9.91886 4.48028,10.79426 -1.65975,2.44378 -6.38847,1.8902 -8.31546,-0.97347 z m -47.60353,-20.01823 c 0.0849,-1.16495 0.50431,-1.4019 1.06929,-0.60417 0.51127,0.72187 0.44841,1.58437 -0.13964,1.91667 -0.58814,0.33229 -1.00643,-0.25834 -0.92958,-1.3125 z m 0.96993,-15.91667 0.63838,-12 9.52144,-5 c 5.23679,-2.75 26.74037,-13.90922 47.7857,-24.79827 23.77097,-12.2993 38.68576,-20.74708 39.37703,-22.30324 0.61201,-1.37773 0.64595,-4.8435 0.0754,-7.70172 l -1.03729,-5.19677 2.79366,4 c 1.53653,2.2 2.97753,6.475 3.20223,9.5 0.35499,4.77907 0.90849,5.54189 4.22272,5.81955 3.71717,0.31142 3.81703,0.0189 3.92638,-11.5 0.0865,-9.11724 0.52974,-11.24797 1.93856,-9.31955 2.62179,3.58877 3.93622,17.87842 2.02366,22 -2.06591,4.45201 -9.27751,5.34465 -15.68823,1.94187 l -4.1656,-2.21108 -31.04236,16.3846 c -17.07329,9.01154 -36.42091,19.00524 -42.99468,22.20823 -6.57377,3.203 -12.83884,6.803 -13.92239,8 -1.08355,1.19701 -2.47826,5.32638 -3.09933,9.17638 -2.10847,13.06998 -4.22915,13.66646 -3.55532,1 z m -15.22944,-14.28984 c -0.0216,-0.70941 1.49317,-2.95941 3.36625,-5 7.62048,-8.30195 21.32178,-17.66767 52.83002,-36.11273 18.22914,-10.67142 34.9233,-20.7617 37.09815,-22.42284 4.26956,-3.2611 4.17887,-6.99203 -0.36887,-15.17459 -1.22273,-2.2 -2.73129,-5.35 -3.35238,-7 l -1.12923,-3 2.45086,2.5 c 1.34798,1.375 3.03934,4.075 3.75859,6 1.738,4.65164 5.95832,9.1993 7.90598,8.5192 0.86029,-0.30041 1.11318,-3.01513 0.56196,-6.0327 -1.06381,-5.82376 0.2518,-7.11929 3.0328,-2.9865 0.92525,1.375 2.48326,2.5 3.46226,2.5 0.97898,0 2.27971,-1.125 2.89052,-2.5 0.61079,-1.375 1.80228,-2.5 2.64775,-2.5 2.47245,0 7.15966,4.64523 8.77796,8.69935 1.83242,4.5905 0.71098,5.60569 -1.90232,1.72211 -5.3121,-7.8942 -10.5023,-6.22122 -10.70623,3.45098 -0.11628,5.51599 -0.42936,6.18076 -1.86663,3.96357 -2.43001,-3.74861 -6.84309,-4.51927 -6.84309,-1.19501 0,1.93518 -5.00653,5.48148 -20.07332,14.21861 -55.81839,32.36875 -66.19774,38.86355 -72.02785,45.0709 -4.43778,4.72491 -10.46381,8.89753 -10.51318,7.27965 z m 86.19057,-91.54195 c -1.97214,-2.83307 -1.65064,-4.28037 0.66073,-2.97443 1.06473,0.60158 1.63853,1.92908 1.27514,2.95 -0.6373,1.79033 -0.70601,1.79119 -1.93587,0.0244 z m 12.35359,-6.88739 c -0.55619,-1.80445 -1.58515,-4.81329 -2.28659,-6.68631 -0.88072,-2.35174 -0.68052,-3.19779 0.64695,-2.73424 1.05728,0.36919 2.47259,3.15974 3.14517,6.20122 1.32878,6.00895 0.13875,8.55373 -1.50553,3.21933 z M 429.85488,445.644 c 0,-2.63437 1.98708,-4.78179 4.42473,-4.78179 2.20737,0 4.42473,2.09911 4.42473,4.18878 0,0.56386 -1.09763,0.78722 -2.43916,0.49635 -1.34154,-0.29086 -3.33267,-0.024 -4.42473,0.59301 -1.4675,0.82914 -1.98557,0.69964 -1.98557,-0.49635 z"
           style="fill:#929292" />
        <path
           sodipodi:nodetypes="ssssssssssssscssssssssssssssssssssssssssscsssssssssssssssssscssscsssssssssscssscsscsscssssscscccsssscsscc"
           inkscape:connector-curvature="0"
           id="path4272"
           d="m 380.54259,693.24648 c -5.14387,-2.03566 -2.49431,-4.13489 3.08827,-2.44682 5.66853,1.71407 14.6119,1.55917 21.2053,-0.36726 3.26674,-0.95446 5.3996,-1.24178 4.73969,-0.6385 -2.02634,1.85248 -14.69355,5.06831 -19.96416,5.06831 -2.7425,0 -6.8236,-0.72708 -9.0691,-1.61573 z m -23.73295,-10.47614 c -4.04868,-1.33174 -2.29295,-2.90813 3.23899,-2.90813 3.14033,0 4.32027,0.54623 4.32027,2 0,2.18688 -2.68944,2.50998 -7.55926,0.90813 z m -194.20837,-8.06312 c 0,-2.00386 0.22121,-2.04188 3.15432,-0.54211 2.27957,1.1656 7.5559,1.70619 19.02633,1.94936 l 15.87202,0.33647 -19.02633,0.20563 c -18.41513,0.19903 -19.02634,0.13641 -19.02634,-1.94935 z m 211.00159,-15.60593 c -1.20722,-0.22736 -2.93258,-1.19211 -3.83411,-2.14388 -1.40365,-1.48186 -0.92822,-1.67154 3.30902,-1.32017 2.84838,0.23621 8.05202,-0.48433 12.26229,-1.69791 6.24968,-1.80144 7.47818,-2.68809 8.44174,-6.09268 1.31464,-4.6451 4.21504,-5.34585 4.21504,-1.01837 0,5.56835 -4.76625,9.38374 -13.87902,11.11017 -4.576,0.86693 -9.30773,1.39021 -10.51496,1.16284 z m -235.05891,-2.13236 c -7.05843,-2.43189 -17.34274,-9.65778 -19.93406,-14.00594 -3.34103,-5.60616 -2.47592,-8.74153 3.46723,-12.56598 4.70245,-3.02606 6.59787,-3.5348 13.16973,-3.5348 4.22219,0 8.16894,-0.45 8.77056,-1 1.68283,-1.53844 14.14848,-1.18627 22.16582,0.62621 8.3001,1.87641 14.11696,7.14414 14.11696,12.78426 0,2.27854 1.07523,3.83529 3.09731,4.48436 2.66514,0.85549 2.77444,1.29195 0.78333,3.12805 -3.36503,3.10308 -0.12403,4.72357 11.02065,5.51031 17.49484,1.23501 24.90914,1.18809 45.27502,-0.28654 11.19456,-0.81056 29.58842,-1.59855 40.87525,-1.7511 11.28683,-0.15254 27.83046,-0.84168 36.76364,-1.53143 14.71162,-1.13591 20.26559,-0.94744 17.53555,0.59505 -1.99488,1.12711 -36.34145,3.37831 -52.013,3.40912 -8.87146,0.0174 -20.42,0.52474 -25.66343,1.12734 -5.24343,0.60259 -25.6627,1.39009 -45.37616,1.75 -33.39767,0.60973 -35.84248,0.535 -35.8403,-1.09563 0.003,-2.35822 -1.39738,-2.23706 -14.44034,1.24921 -13.10819,3.50371 -16.37692,3.65599 -23.77376,1.10751 z m 14.32292,-2.10672 c -0.60162,-0.55 -1.8433,-1 -2.75929,-1 -0.91599,0 -1.66544,0.45 -1.66544,1 0,0.55 1.24168,1 2.75929,1 1.51761,0 2.26706,-0.45 1.66544,-1 z M 343.1302,629.19554 c 0,-4.28579 0.82102,-4.14062 2.35636,0.41667 0.62915,1.86745 0.36083,3.25 -0.63072,3.25 -0.9491,0 -1.72564,-1.65 -1.72564,-3.66667 z m 52.33874,-4.3996 c -1.71145,-3.56382 -0.5103,-12.48406 1.64295,-12.20138 2.44045,0.32038 3.19012,7.36446 1.21579,11.4238 -1.6149,3.32028 -1.63504,3.32576 -2.85874,0.77758 z m -24.02048,-1.40805 c 0,-0.81088 2.34976,-2.16087 5.22171,-2.99998 2.87194,-0.83911 6.03353,-2.31317 7.02575,-3.27568 1.62663,-1.57793 1.80932,-1.5375 1.85785,0.41109 0.0301,1.21193 -2.33786,3.29816 -5.39165,4.75 -6.16852,2.93264 -8.71366,3.25819 -8.71366,1.11457 z m -50.29589,-7.46097 c -2.84002,-0.31059 -5.47962,-1.1014 -5.86581,-1.75735 -0.88997,-1.51171 11.56182,-2.92279 14.99484,-1.69928 6.01086,2.14226 -0.0754,4.44676 -9.12903,3.45663 z m 87.81759,-7.26471 c -1.16813,-0.66 -2.12387,-1.94285 -2.12387,-2.85078 0,-2.60288 -3.71698,-7.94922 -5.52662,-7.94922 -0.90231,0 -2.39759,1.125 -3.32283,2.5 -0.92525,1.375 -2.98381,2.5 -4.57457,2.5 -2.35399,0 -2.69155,-0.69791 -1.81373,-3.75 0.59318,-2.0625 1.5767,-5.87926 2.18558,-8.48169 1.12771,-4.8199 4.33848,-7.45697 7.66498,-6.29538 1.01607,0.35481 1.83322,1.40605 1.81585,2.33609 -0.0177,0.93004 2.54323,6.07173 5.69019,11.42599 3.87082,6.58585 5.14061,10.06335 3.92531,10.75 -1.21529,0.68665 -2.48347,0.6268 -3.92029,-0.18501 z m -46.30843,-46.42756 c -0.0345,-1.17015 1.13195,-2.68775 2.59211,-3.37244 3.3134,-1.5537 3.3134,-0.27489 0,3 -2.38259,2.35489 -2.53305,2.37651 -2.59211,0.37244 z m 102.47348,-43.26083 c -1.52478,-0.33638 -4.96426,-1.60063 -7.6433,-2.80943 l -4.87099,-2.19781 3.99391,-3.05219 c 4.98953,-3.81306 5.69882,-3.81805 4.71564,-0.0332 -0.90751,3.49359 2.22375,5.46524 7.45259,4.69266 2.58126,-0.38138 3.54922,-0.0337 3.54922,1.27499 0,2.07192 -3.18073,3.01104 -7.19707,2.12498 z m 7.54211,-14.61161 c 0.0361,-1.65 0.43274,-2.20394 0.88147,-1.23097 0.44874,0.97297 0.41924,2.32297 -0.0657,3 -0.48483,0.67703 -0.85197,-0.11903 -0.8159,-1.76903 z M 440.68715,493.8559 c 4.04218,-4.38167 6.22223,-4.66343 4.40347,-0.56912 -0.61513,1.38473 -2.70443,2.99729 -4.6429,3.58345 -3.43611,1.03902 -3.43011,0.96342 0.23943,-3.01433 z m 11.16996,-5.07616 c -1.05358,-0.78967 -1.37273,-2.7463 -0.7205,-4.41753 0.91526,-2.34525 1.45341,-2.6365 2.46575,-1.33447 0.71224,0.91604 1.03647,2.90393 0.72051,4.41753 -0.45877,2.19785 -0.95528,2.46656 -2.46576,1.33447 z"
           style="fill:#656565" />
      </g>
    </g>
  </g>
</svg>
