<?xml version="1.0" encoding="UTF-8" standalone="no"?>
<!-- Created with Inkscape (http://www.inkscape.org/) -->

<svg
   xmlns:dc="http://purl.org/dc/elements/1.1/"
   xmlns:cc="http://creativecommons.org/ns#"
   xmlns:rdf="http://www.w3.org/1999/02/22-rdf-syntax-ns#"
   xmlns:svg="http://www.w3.org/2000/svg"
   xmlns="http://www.w3.org/2000/svg"
   xmlns:sodipodi="http://sodipodi.sourceforge.net/DTD/sodipodi-0.dtd"
   xmlns:inkscape="http://www.inkscape.org/namespaces/inkscape"
   width="43.050255mm"
   height="24.351301mm"
   viewBox="0 0 152.54027 86.284138"
   id="svg4210"
   version="1.1"
   inkscape:version="0.91 r13725"
   sodipodi:docname="addominali_obliqui.svg">
  <title
     id="title4249">Obliqui</title>
  <defs
     id="defs4212" />
  <sodipodi:namedview
     id="base"
     pagecolor="#ffffff"
     bordercolor="#666666"
     borderopacity="1.0"
     inkscape:pageopacity="0.0"
     inkscape:pageshadow="2"
     inkscape:zoom="0.35"
     inkscape:cx="586.7126"
     inkscape:cy="215.16154"
     inkscape:document-units="px"
     inkscape:current-layer="layer1"
     showgrid="false"
     fit-margin-top="0"
     fit-margin-left="0"
     fit-margin-right="0"
     fit-margin-bottom="0"
     inkscape:window-width="1366"
     inkscape:window-height="706"
     inkscape:window-x="-8"
     inkscape:window-y="-8"
     inkscape:window-maximized="1" />
  <metadata
     id="metadata4215">
    <rdf:RDF>
      <cc:Work
         rdf:about="">
        <dc:format>image/svg+xml</dc:format>
        <dc:type
           rdf:resource="http://purl.org/dc/dcmitype/StillImage" />
        <dc:title>Obliqui</dc:title>
      </cc:Work>
    </rdf:RDF>
  </metadata>
  <g
     inkscape:label="Livello 1"
     inkscape:groupmode="layer"
     id="layer1"
     transform="translate(211.7126,-661.2396)">
    <g
       id="g4239">
      <path
         style="fill:#c7c7c7"
         d="m -147.90026,747.35253 c -0.69122,-0.31903 -0.28682,-1.2056 0.65617,-1.43852 1.22138,-0.3017 1.23057,-0.49069 0.0564,-1.15993 -0.82059,-0.46771 -1.02564,-0.49139 -1.77372,-0.20485 -0.46522,0.1782 -1.0446,0.56526 -1.28751,0.86014 -0.31585,0.38342 -0.75683,0.51548 -1.54814,0.4636 -1.74258,-0.11423 -1.71762,-1.01204 0.0517,-1.85897 0.81814,-0.39162 1.94333,-1.20512 2.50041,-1.80776 1.28157,-1.38638 2.6145,-1.40331 2.98512,-0.0379 0.34775,1.28112 2.95276,2.91848 2.95276,1.85593 0,-0.1649 0.79235,-0.72706 1.76078,-1.24924 1.44653,-0.77997 2.06926,-0.94942 3.48908,-0.94942 1.70238,0 4.60119,-0.93266 4.58648,-1.47564 -0.0168,-0.61961 3.36287,-4.12714 4.53443,-4.70598 1.10004,-0.54351 1.66913,-0.64832 3.20297,-0.58991 1.60392,0.0611 1.88636,0.15527 2.01606,0.67226 0.23123,0.92172 -0.94533,1.96356 -4.31536,3.82127 -3.39329,1.87052 -3.95555,2.37709 -3.95555,3.56376 0,0.7767 1.37017,2.18632 2.00882,2.06665 0.17305,-0.0324 1.18633,-0.52667 2.25172,-1.09832 1.77264,-0.95115 1.9867,-1.21142 2.52182,-3.06633 1.1208,-3.88504 3.67809,-6.91036 5.8413,-6.91036 0.35258,0 1.00941,0.25947 1.45961,0.57659 0.65664,0.46254 0.76399,0.92305 0.54268,2.32813 -0.33233,2.11007 -1.27075,3.40009 -3.63063,4.99096 -1.53453,1.03447 -1.73646,1.32069 -1.5017,2.1285 0.40971,1.40982 1.12482,1.58702 2.84244,0.70437 1.27624,-0.65583 1.44347,-0.90885 1.44347,-2.18393 0,-1.72832 1.18041,-2.6391 3.42035,-2.6391 2.29011,0 2.83151,0.53153 1.84593,1.81229 -0.46043,0.59833 -0.83714,1.25537 -0.83714,1.4601 0,0.70009 2.26965,-0.25044 3.15616,-1.3218 2.25809,-2.72896 6.039,-2.07297 5.49853,0.954 -0.15896,0.8903 -0.076,1.37714 0.22035,1.29262 0.26144,-0.0746 0.47861,-0.35954 0.4826,-0.63324 0.004,-0.27371 0.2872,-0.75304 0.62936,-1.06518 0.56953,-0.51957 0.91124,-0.56938 4.043863,-0.58943 3.113612,-0.0199 3.544434,0.0347 4.78403,0.60684 0.749247,0.34581 1.362269,0.84103 1.362269,1.10049 0,0.75372 0.909961,0.54479 1.247859,-0.28652 0.195896,-0.48194 0.01688,-1.08008 -0.491304,-1.64141 -0.560344,-0.61896 -0.711801,-1.22448 -0.506299,-2.02415 0.16127,-0.62754 0.09788,-1.77636 -0.140861,-2.55292 -0.454759,-1.47921 -0.184646,-2.00588 0.940974,-1.83469 0.410103,0.0624 0.864744,0.71114 1.166363,1.66441 0.440665,1.39269 0.627274,1.57669 1.719858,1.69573 1.597869,0.17409 1.789207,0.73195 0.522313,1.52283 -0.925763,0.57792 -0.976841,0.78603 -0.56471,2.3009 0.441629,1.6233 1.027067,2.4367 1.027067,1.427 0,-1.77678 3.569631,-2.50496 5.419188,-1.10547 0.536575,0.406 1.109346,1.06482 1.272835,1.46404 0.26246,0.6409 0.507377,0.73393 2.092967,0.79497 1.633878,0.0629 1.795719,0.13054 1.795719,0.75053 0,0.62431 -0.206157,0.70776 -2.46063,0.99601 -2.165207,0.27684 -3.516614,0.33683 -5.78248,0.25672 -0.338337,-0.012 -1.206841,0.0439 -1.930005,0.12403 -1.120419,0.12423 -1.4322,0.041 -2.108445,-0.56252 -0.70849,-0.63234 -0.910537,-0.68023 -1.883972,-0.44655 -0.599705,0.14396 -1.48655,0.45231 -1.970768,0.68522 -0.484212,0.23291 -1.424016,0.42347 -2.088445,0.42347 -1.74653,0 -4.166986,-1.60302 -4.166986,-2.7597 0,-1.15064 -0.80537,-1.11606 -1.49392,0.0641 -0.76215,1.30634 -1.51428,1.78702 -2.79619,1.78702 -1.25214,0 -2.58692,-0.80655 -3.35662,-2.02826 l -0.5109,-0.81093 -0.92846,0.72249 c -1.00559,0.78251 -4.53643,1.56662 -6.16781,1.36972 -0.54254,-0.0655 -1.28749,0.0699 -1.78714,0.32468 -0.47124,0.24033 -1.5822,0.64388 -2.4688,0.89678 -1.9834,0.56576 -3.12495,0.35228 -4.31721,-0.80733 -0.45399,-0.44156 -0.95429,-0.80283 -1.11179,-0.80283 -0.1575,0 -1.12636,0.35026 -2.15303,0.77835 -2.80268,1.16864 -4.83457,0.69437 -6.6492,-1.55202 l -0.9002,-1.11438 -0.58256,1.19384 c -0.32041,0.65661 -1.01874,1.46471 -1.55184,1.79578 -1.23585,0.76749 -3.45709,0.89959 -4.87494,0.28993 -1.03646,-0.44566 -1.03951,-0.44534 -2.10015,0.21677 -0.99805,0.62305 -2.85359,0.88264 -3.65738,0.51166 z m 9.005,-2.33213 c 0.63305,-0.54595 0.66063,-1.15061 0.0525,-1.15061 -0.79303,0 -2.00365,0.69599 -2.00365,1.1519 0,0.56701 1.29319,0.56615 1.95119,-0.001 z m 31.4983,-2.51342 c 0,-0.30285 -0.053,-0.30285 -0.47705,0 -0.26238,0.18739 -0.47705,0.49402 -0.47705,0.68141 0,0.30284 0.053,0.30284 0.47705,0 0.26238,-0.18739 0.47705,-0.49402 0.47705,-0.68141 z m -12.82814,-4.29404 c 1.17937,-1.79207 1.19393,-1.83861 0.57499,-1.83861 -0.50881,0 -2.00343,2.18657 -2.00343,2.93093 0,0.80945 0.35607,0.53716 1.42844,-1.09232 z m -20.36105,0.52044 c -0.41384,-0.191 -0.75243,-0.43404 -0.75243,-0.54008 0,-0.10604 1.18588,-0.99308 2.63529,-1.97121 2.2249,-1.50146 2.60194,-1.90221 2.42114,-2.57344 -0.39564,-1.46877 3.41975,-2.49201 5.91467,-1.58623 1.53227,0.55628 1.64655,1.07936 0.55799,2.55387 -1.00124,1.35621 -1.89962,1.72062 -3.26886,1.32596 -1.13667,-0.32763 -0.82038,-0.46712 -3.64803,1.60893 -1.96879,1.44549 -2.76255,1.6886 -3.85977,1.1822 z m 11.62456,-8.87495 c -0.26006,-0.47629 -0.61425,-1.27483 -0.7871,-1.77453 -1.01993,-2.94857 -4.54296,-9.12551 -5.99812,-10.51655 -1.50297,-1.43672 -2.77236,-3.80858 -2.88787,-5.39596 -0.046,-0.63181 -0.70228,-2.29974 -1.45845,-3.70651 -1.06731,-1.98562 -1.24289,-2.6178 -0.7849,-2.82613 0.45486,-0.2069 0.75632,-0.16432 1.31639,0.18592 0.39954,0.24985 0.81994,0.65869 0.93421,0.90854 0.42268,0.92415 5.62512,10.50956 6.65694,12.26529 0.58732,0.9994 1.48223,2.68587 1.98868,3.74773 0.50644,1.06186 1.17041,2.3906 1.47546,2.95276 0.30505,0.56216 0.72087,1.32874 0.92402,1.70351 0.3687,0.68015 0.37203,0.67889 1.80853,-0.68141 1.64252,-1.55538 4.60291,-3.57053 10.73225,-7.30545 4.25019,-2.58986 8.64207,-4.84627 9.43278,-4.84627 0.90425,0 0.86938,-0.34215 -0.10478,-1.02835 -0.86149,-0.60682 -0.62712,-1.243 0.45793,-1.243 0.71784,0 2.52671,1.71667 5.385009,5.11054 4.825418,5.72958 6.144843,9.4261 3.364518,9.4261 -2.620586,0 -6.774777,-3.38866 -8.757297,-7.14351 -0.69583,-1.31789 -1.44823,-2.39616 -1.67199,-2.39616 -0.5688,0 -3.31123,1.41551 -6.38076,3.29346 -1.42934,0.87447 -3.40177,2.04989 -4.38318,2.61205 -2.66555,1.52685 -3.45328,2.12509 -6.41485,4.87167 -3.01958,2.80039 -4.08029,3.19126 -4.84742,1.78626 z m 31.91435,-5.06455 c 0,-0.92765 -5.43516,-8.3957 -6.5321,-8.97527 -0.626,-0.33075 0.0792,2.95207 0.95139,4.42913 0.89078,1.50847 3.022201,3.82544 4.022216,4.37235 0.800211,0.43765 1.558494,0.5222 1.558494,0.17379 z m -99.6573,3.81546 c -1.24839,-0.68475 -1.30943,-0.82877 -1.13115,-2.66884 0.16241,-1.67617 0.43833,-2.18293 1.99612,-3.66609 1.07851,-1.02683 2.80745,-2.18984 4.28622,-2.8832 1.3632,-0.63917 2.47855,-1.27009 2.47855,-1.40204 0,-0.30462 -1.31855,-0.3144 -1.72244,-0.0128 -0.45919,0.34292 -2.83982,0.2724 -4.05393,-0.12009 -1.41879,-0.45866 -1.89498,-1.73795 -1.14777,-3.08354 l 0.59963,-1.07983 -2.73568,-2.14538 c -1.50463,-1.17996 -3.70342,-2.64368 -4.8862,-3.25272 -2.35301,-1.21162 -3.77465,-2.33392 -3.76205,-2.96994 0.004,-0.22482 0.50273,-0.78307 1.10728,-1.24055 0.60455,-0.45748 2.02279,-1.53463 3.15163,-2.39366 1.12885,-0.85902 3.54601,-2.52187 5.37146,-3.69521 3.10114,-1.99331 5.12531,-3.84567 5.12531,-4.69029 0,-0.27722 -0.30153,-0.32796 -1.27728,-0.21493 -1.85696,0.21511 -4.83214,-0.53096 -8.95991,-2.24682 -1.94035,-0.80658 -3.97407,-1.57671 -4.51937,-1.71141 -0.54531,-0.13469 -0.99147,-0.35523 -0.99147,-0.49009 0,-0.13486 -0.88583,-1.16627 -1.9685,-2.29204 -1.92289,-1.99942 -1.96851,-2.10697 -1.96851,-4.6415 0,-1.81494 0.21312,-2.78486 0.70918,-3.22761 1.01114,-0.90245 3.61291,-1.74606 6.97072,-2.26021 2.40039,-0.36755 3.43126,-0.40961 5.97569,-0.24382 8.88459,0.57889 11.47122,2.23699 12.54691,8.04295 0.11735,0.63341 0.18902,0.60142 1.0176,-0.45427 2.35556,-3.0012 7.43745,-8.76448 8.6174,-9.77282 0.90069,-0.7697 1.63277,-1.12966 2.29747,-1.12966 1.56915,0 1.44596,0.71662 -0.40297,2.34412 -2.40725,2.11896 -6.26809,6.66296 -9.00855,10.60258 -1.15139,1.65522 -3.60546,4.77681 -4.64267,5.90551 -0.55175,0.60042 -2.71068,3.70689 -3.08191,4.43455 -0.16086,0.31529 -1.46346,1.3067 -2.89468,2.20313 -3.531,2.21159 -10.23124,7.05871 -10.22563,7.39747 0.003,0.1509 1.00504,0.78541 2.22787,1.41003 1.22284,0.62462 2.80128,1.59563 3.50765,2.15779 0.70638,0.56216 2.03871,1.5638 2.96074,2.22587 l 1.67642,1.20376 1.9661,-0.74949 c 3.15205,-1.20159 4.9165,-1.57026 6.84959,-1.43116 1.65631,0.11919 1.78857,0.0746 3.44488,-1.16247 0.94735,-0.70754 3.89064,-2.57516 6.54066,-4.15028 6.29938,-3.74423 11.14883,-6.96091 11.16609,-7.40655 0.005,-0.12493 -1.15364,-0.52718 -2.57437,-0.89389 -2.97444,-0.76775 -8.78968,-2.6475 -10.9493,-3.53933 -0.81201,-0.33532 -2.98297,-1.09768 -4.82436,-1.69414 -2.57616,-0.83448 -3.31359,-1.19518 -3.19882,-1.56467 0.26225,-0.84428 1.74091,-0.66172 5.60963,0.69256 10.2103,3.57421 16.55396,5.52309 17.97786,5.52309 0.20883,0 0.98255,-0.3648 1.71938,-0.81066 1.80658,-1.09318 2.24781,-0.32899 -8.38414,-14.52096 -2.05892,-2.74833 -3.6856,-5.20139 -3.61483,-5.45124 0.0789,-0.2787 0.49963,-0.45427 1.08853,-0.45427 0.72945,0 1.12965,0.27262 1.66715,1.13567 0.389,0.62463 2.10806,2.97547 3.82013,5.22411 4.34309,5.70424 9.54695,13.06188 9.54695,13.49826 0,0.2008 -0.57167,0.75338 -1.27037,1.22795 -1.44346,0.98042 -1.32947,1.32176 0.62876,1.88279 0.75889,0.21742 1.9708,0.64338 2.69315,0.94658 0.72235,0.30321 1.55281,0.48298 1.84547,0.3995 1.21811,-0.34746 0.22687,-11.01833 -1.42123,-15.29965 -1.43461,-3.72677 -3.86862,-7.57986 -6.74626,-10.67947 -1.25781,-1.35482 -1.6051,-1.961 -1.22422,-2.1368 1.595,-0.73615 4.62842,2.40014 7.85039,8.11662 2.91219,5.16689 3.42867,7.23855 3.86994,15.52288 l 0.2945,5.52893 2.52242,0.73193 c 1.38732,0.40256 3.55688,0.90958 4.82124,1.12672 2.5799,0.44307 3.51945,0.84847 3.27822,1.41452 -0.3988,0.9358 -1.60581,0.86744 -6.04327,-0.34226 -2.37783,-0.64822 -4.45701,-1.11688 -4.62041,-1.04146 -0.1634,0.0754 -0.5573,1.57322 -0.87533,3.32846 -0.3422,1.88856 -0.91871,3.57581 -1.41225,4.13314 -2.14912,2.4269 -3.83087,3.8237 -6.87683,5.71162 l -3.29812,2.04422 0.27424,1.29002 c 0.15083,0.70951 0.71296,1.82294 1.24919,2.47428 1.04511,1.26946 0.74292,2.02764 -0.80815,2.02764 -0.44284,0 -1.20122,0.16543 -1.6853,0.36762 -1.2514,0.5227 -3.17072,0.23689 -5.43875,-0.8099 -1.76951,-0.8167 -1.87869,-0.94826 -1.87869,-2.26391 0,-0.771 0.35048,-1.77518 0.78226,-2.24129 1.2161,-1.31282 2.15932,-2.82997 2.16517,-3.48267 0.006,-0.67271 1.80096,-1.85538 2.62378,-1.72879 0.29823,0.0459 0.77383,0.58728 1.0569,1.2031 0.28307,0.61582 0.76189,1.11968 1.06403,1.11968 0.79252,0 4.33269,-2.13558 6.35481,-3.83349 2.64999,-2.22511 3.68838,-4.15443 3.98799,-7.4097 l 0.26132,-2.83918 -1.64321,-0.5859 c -2.94716,-1.05084 -6.79201,-2.2535 -7.17457,-2.24419 -0.20578,0.005 -1.86071,1.05267 -3.67762,2.32813 -1.8169,1.27547 -5.43447,3.54557 -8.03903,5.04466 -2.60456,1.49909 -5.65786,3.46406 -6.78511,4.36661 -1.12726,0.90254 -2.38395,1.69378 -2.79265,1.7583 -0.40886,0.0645 -1.15275,0.7775 -1.65388,1.58512 -0.50094,0.80731 -1.57315,1.88351 -2.38269,2.39157 -1.40173,0.87972 -1.43432,0.95022 -0.68371,1.47895 1.27789,0.90014 0.95081,1.30662 -2.20164,2.73607 -1.64441,0.74563 -3.52635,1.77317 -4.1821,2.28342 -2.20384,1.71485 -3.32773,4.26103 -2.23285,5.05853 0.84957,0.61881 3.63725,-0.62619 7.55518,-3.3742 2.0282,-1.42256 2.76979,-2.22404 3.25751,-3.52059 0.26315,-0.69955 0.56503,-0.90854 1.31239,-0.90854 0.84972,0 0.96933,0.15563 0.96013,1.24924 -0.009,1.08971 -0.34616,1.51943 -2.63896,3.36502 -2.95724,2.38042 -8.09719,5.03898 -9.74216,5.03898 -0.58107,0 -1.64669,-0.32491 -2.37394,-0.72381 z m 5.16911,-12.32556 c 0,-0.37 -1.70879,-1.07716 -2.13147,-0.88208 -0.56431,0.26045 -0.3602,1.16903 0.286,1.27306 0.88131,0.14189 1.84547,-0.0624 1.84547,-0.39098 z m 4.73493,-1.94212 c 0.60562,-0.56184 1.24508,-1.35372 1.42102,-1.75972 0.4693,-1.08298 -0.79237,-0.96776 -3.73056,0.3407 l -2.42269,1.07889 1.04634,0.74921 c 1.35225,0.96824 2.31663,0.86121 3.68589,-0.40908 z m -6.70344,-35.88677 c 0,-0.12492 -0.23452,-0.22713 -0.52117,-0.22713 -0.28664,0 -0.3843,0.10221 -0.21701,0.22713 0.16728,0.12493 0.4018,0.22714 0.52116,0.22714 0.11937,0 0.21702,-0.10221 0.21702,-0.22714 z m 110.974417,39.07269 c -3.021166,-0.35848 -4.188061,-0.69398 -5.647215,-1.62365 -0.823361,-0.5246 -1.938041,-1.09638 -2.477072,-1.27063 -1.158248,-0.37444 -1.255659,-0.81128 -0.265472,-1.19056 1.107436,-0.4242 2.427062,-0.0967 4.198932,1.04204 0.892672,0.5737 2.359769,1.18517 3.260222,1.35881 1.657273,0.3196 6.84248,0.43108 8.272244,0.17785 1.691732,-0.29962 0.312756,-2.10599 -2.626565,-3.44063 -2.787603,-1.26576 -5.363017,-1.69753 -9.023711,-1.51285 -1.69029,0.0853 -3.698169,0.30113 -4.461949,0.47968 -1.702992,0.39812 -2.579838,0.13724 -3.065541,-0.91205 -0.32096,-0.69337 -1.666683,-2.82495 -3.610867,-5.71946 -0.503449,-0.74955 -1.361688,-2.02718 -1.90719,-2.83919 -0.545493,-0.81201 -1.489783,-2.24296 -2.098403,-3.17989 -0.60862,-0.93693 -1.39611,-2.11236 -1.74998,-2.61206 -0.35387,-0.49969 -0.78798,-1.31738 -0.96469,-1.81708 -0.17672,-0.49969 -0.62365,-1.40008 -0.99319,-2.00086 -0.36954,-0.60077 -0.82177,-1.85569 -1.00496,-2.78871 -0.18319,-0.93302 -0.49194,-1.74172 -0.68612,-1.7971 -0.19418,-0.0554 -0.48412,0.944 -0.64432,2.22087 -0.16019,1.27687 -0.6205,2.86863 -1.02291,3.53724 -0.5153,0.85617 -0.59168,1.38559 -0.25828,1.79031 0.37334,0.45322 0.147,0.97377 -1.07104,2.46327 -1.62196,1.98344 -2.85967,2.7387 -4.12178,2.51517 -0.52145,-0.0924 -0.75652,-0.44345 -0.75652,-1.1299 0,-0.54776 -0.14176,-1.62189 -0.31502,-2.38697 -0.27309,-1.20591 -0.19813,-1.41174 0.56329,-1.5466 0.55833,-0.0989 1.09661,-0.0178 1.47754,0.22268 0.51654,0.32603 0.70766,0.21357 1.38484,-0.81485 0.78935,-1.19878 2.30273,-5.83318 2.30273,-7.05162 0,-0.35897 -0.19758,-0.6186 -0.43908,-0.57696 -0.24149,0.0416 -1.83073,1.03835 -3.53165,2.21491 -1.70091,1.17655 -4.54836,2.85026 -6.32765,3.71935 -1.77929,0.86908 -4.01018,2.18019 -4.95752,2.91357 -3.41443,2.64327 -8.4414,5.87809 -9.13467,5.87809 -1.27506,0 -0.75318,-1.00036 1.24674,-2.38979 1.16623,-0.81023 1.96023,-1.63277 1.96857,-2.03934 0.0224,-1.09257 4.36735,-4.02302 6.93911,-4.68009 2.4897,-0.6361 7.47307,-3.53362 11.55878,-6.72069 1.47237,-1.14854 3.21683,-2.37507 3.87656,-2.72562 1.12166,-0.59601 1.25367,-0.61279 2.03385,-0.25848 0.56871,0.25827 0.9602,0.98141 1.22965,2.27135 1.09332,5.23392 2.9005,9.39008 6.205464,14.27131 1.226452,1.81141 2.998214,4.46889 3.937244,5.90551 0.939031,1.43663 2.057855,2.9964 2.48627,3.46616 l 0.778947,0.85411 3.84126,-0.14785 c 5.469508,-0.21053 7.878873,0.14775 11.160655,1.65959 3.810738,1.75553 6.358878,4.67707 4.888671,5.60505 -1.123858,0.70937 -6.803081,1.03907 -10.448204,0.60656 z m -25.591027,-31.99386 c -0.17933,-0.0828 -0.64604,0.0515 -1.03713,0.29832 -0.63305,0.39959 -0.61515,0.46462 0.16327,0.59286 0.62245,0.10254 0.92123,0.0166 1.03713,-0.29833 0.0895,-0.2433 0.016,-0.51008 -0.16327,-0.59285 z m -50.34811,31.28996 c 0.097,-0.13429 0.38672,-0.24417 0.64386,-0.24417 0.25713,0 0.54687,0.10988 0.64386,0.24417 0.097,0.1343 -0.19274,0.24417 -0.64386,0.24417 -0.45112,0 -0.74086,-0.10987 -0.64386,-0.24417 z m 68.795416,-28.26567 c -0.434247,-0.24149 -1.100265,-0.30355 -2.218469,-0.20674 -0.95348,0.0826 -1.733558,0.0371 -1.934223,-0.11278 -0.233336,-0.17425 -0.781525,-0.12975 -1.790595,0.14536 -2.696383,0.73513 -4.169188,-0.35022 -3.648677,-2.68883 0.256319,-1.15161 0.185665,-1.28933 -0.717362,-1.39833 -0.88735,-0.10709 -1.00168,-0.30268 -1.00168,-1.71353 0,-0.87594 0.13442,-1.7543 0.29872,-1.95191 0.50391,-0.60607 1.64264,-0.40096 2.527256,0.45522 0.527318,0.51037 1.516211,0.96494 2.648416,1.21741 1.756009,0.39157 1.830359,0.39025 2.641422,-0.0469 0.749336,-0.40392 0.911491,-0.41435 1.587997,-0.10212 0.676511,0.31224 0.671806,0.45833 -0.04606,1.43069 -0.439719,0.59563 -0.791643,1.49914 -0.782052,2.00781 0.01727,0.91495 0.0249,0.91878 0.715172,0.35703 0.38375,-0.31231 0.938263,-1.13 1.232245,-1.81708 0.293986,-0.68708 0.640748,-1.47922 0.770585,-1.7603 0.252431,-0.54648 1.469907,-0.69782 1.827171,-0.22713 0.118523,0.15615 0.132121,1.15271 0.03022,2.21456 -0.175172,1.82532 -0.145945,1.89348 0.535728,1.24925 0.396556,-0.37478 0.850148,-1.05433 1.007978,-1.51012 0.421028,-1.21585 1.958263,-2.01048 3.889341,-2.01048 0.873563,0 1.862505,0.12656 2.197647,0.28124 1.520847,0.70193 4.388293,-2.27313 4.477166,-4.64518 0.01737,-0.46384 0.479237,-1.3675 1.026353,-2.00814 0.547116,-0.64064 1.158809,-1.69092 1.359321,-2.33396 0.275822,-0.88458 0.5894,-1.18916 1.288248,-1.25127 0.858745,-0.0763 0.899478,0.0313 0.579306,1.53096 -0.333883,1.56387 -0.308007,1.61944 0.848691,1.82242 0.656191,0.11514 1.324597,0.36754 1.48535,0.56088 0.322431,0.38779 -0.845143,1.04608 -1.855355,1.04608 -1.192086,0 -1.768115,0.61855 -2.71749,2.91809 -0.52001,1.25955 -1.153381,2.47255 -1.407485,2.69555 -0.254105,0.22299 -0.619016,0.94205 -0.810911,1.5979 -0.669916,2.2896 2.096851,0.99374 2.936782,-1.37548 0.459232,-1.29537 1.780315,-1.78616 4.583563,-1.7028 2.223563,0.0661 2.309316,0.0947 2.249331,0.75015 -0.0343,0.37477 -0.304656,1.2837 -0.600793,2.01985 -0.296131,0.73614 -0.421594,1.42569 -0.278799,1.53232 0.358731,0.2679 2.592028,-0.29933 4.505389,-1.14431 3.515532,-1.55253 4.274001,-0.36537 0.846929,1.32563 -2.763263,1.36345 -4.672997,1.7771 -6.464857,1.40029 -1.046752,-0.22012 -1.427668,-0.20244 -2.151452,0.0999 -0.710409,0.29672 -1.085413,0.31649 -1.950527,0.1028 -0.589065,-0.1455 -1.588676,-0.20459 -2.221353,-0.1313 -1.278853,0.14814 -3.702776,-0.20318 -4.27687,-0.61989 -0.204365,-0.14834 -0.374966,-0.67344 -0.37911,-1.16689 -0.0098,-1.16795 -0.597952,-0.84999 -1.942859,1.05034 -1.234459,1.74427 -1.961757,2.11032 -3.848376,1.93689 -0.793907,-0.073 -1.746506,0.009 -2.307407,0.19885 -1.225398,0.41453 -1.969414,0.40858 -2.743558,-0.0219 z m -5.908022,-3.13393 c 0.330345,-0.47684 0.470734,-0.92693 0.311974,-1.0002 -0.354419,-0.16358 -1.777948,1.36192 -1.777948,1.9053 0,0.57903 0.765015,0.10671 1.465974,-0.9051 z m 13.060857,-0.43905 c 0.482845,-1.49392 -0.480541,-1.39714 -1.127608,0.11327 -0.512633,1.19662 -0.303135,1.8636 0.401644,1.2787 0.207495,-0.17219 0.534178,-0.79858 0.725964,-1.39197 z m 13.017151,-1.53317 c 0,-0.30284 -0.053,-0.30284 -0.477052,0 -0.262382,0.18739 -0.477052,0.49402 -0.477052,0.68141 0,0.30284 0.053,0.30284 0.477052,0 0.262382,-0.18739 0.477052,-0.49402 0.477052,-0.68141 z m -60.462882,0.93326 c -1.31636,-0.60756 -1.68871,-2.3168 -1.06611,-4.89384 0.55866,-2.31234 1.17176,-3.17125 2.15317,-3.01641 0.65374,0.10313 0.67162,0.72831 0.10601,3.70678 -0.25978,1.36801 -0.21579,2.21328 0.13004,2.49848 0.48904,0.40332 0.55441,0.39247 1.01676,-0.16878 0.62618,-0.76014 1.64319,-5.7166 1.26605,-6.1702 -0.15547,-0.18699 -0.70759,-0.39127 -1.22695,-0.45395 -1.29963,-0.15686 -1.94039,-1.06284 -1.94039,-2.74354 0,-1.40355 1.10511,-3.62105 2.07898,-4.17166 0.77991,-0.44094 2.25604,-0.33522 2.88429,0.20658 0.84162,0.72581 1.16972,7.61307 0.48519,10.18485 -1.21236,4.55486 -3.20877,6.25781 -5.88704,5.02169 z m 14.79696,-8.02528 c -0.31837,-0.14693 -0.57885,-0.45802 -0.57885,-0.6913 0,-0.31451 -0.24361,-0.38847 -0.94241,-0.2861 -0.63521,0.0931 -1.18146,-0.0195 -1.67571,-0.34514 l -0.73328,-0.48319 -0.32597,0.47402 c -0.41218,0.59938 -1.32805,0.60427 -2.48689,0.0133 -0.67807,-0.34582 -0.95764,-0.93754 -1.12079,-2.3722 -0.26548,-2.33455 0.0681,-3.07258 1.38892,-3.07258 0.79741,0 0.97487,0.15414 0.97487,0.84673 l 0,0.84672 1.51221,-0.84672 c 0.83171,-0.4657 1.75546,-0.84673 2.05278,-0.84673 0.29732,0 0.94141,-0.16742 1.43132,-0.37205 1.12783,-0.47107 2.17645,-0.13021 2.64804,0.86079 l 0.32573,0.68447 1.10934,-0.481 c 0.75995,-0.32951 1.71354,-0.47556 3.02775,-0.46374 1.05514,0.009 2.72075,-0.0477 3.70137,-0.12708 1.44614,-0.11708 1.97177,-0.0508 2.7826,0.35089 0.94553,0.46842 1.06584,0.47522 2.221668,0.12569 1.124158,-0.33996 1.285546,-0.34022 2.01562,-0.003 1.108396,0.51156 0.99122,0.90904 -0.410891,1.39378 -1.160896,0.40135 -1.495157,0.92966 -1.332652,2.10628 l 0.07654,0.55417 1.500753,-0.70846 c 2.145556,-1.01286 2.436255,-1.74141 2.436255,-6.1058 0,-4.10129 0.368017,-5.00391 2.383386,-5.84571 1.264449,-0.52814 2.581732,-0.4084 3.415448,0.31045 0.474631,0.40925 0.579729,1.13153 0.379773,2.61005 -0.246505,1.82277 -0.698946,2.70573 -2.978011,5.81175 -0.484454,0.66024 -0.471309,0.89465 0.06928,1.23587 0.366919,0.2316 0.675217,0.68263 0.685103,1.0023 0.01462,0.4723 0.233583,0.36841 1.168662,-0.55447 0.632879,-0.62462 1.289277,-1.32304 1.458666,-1.55205 0.429705,-0.58095 1.488588,-0.3506 1.783834,0.38805 0.244956,0.61283 0.249921,0.61351 1.102466,0.15161 0.587923,-0.31853 1.450743,-0.46399 2.752229,-0.46399 1.66189,0 2.010286,-0.0981 2.82342,-0.79497 1.040763,-0.89195 1.899681,-1.00698 2.655035,-0.35557 0.585054,0.50454 0.09215,1.26671 -1.443947,2.23272 -0.543415,0.34173 -1.214355,1.17751 -1.490984,1.85728 -0.547294,1.34488 -1.626885,2.28465 -2.624557,2.28465 -0.348032,0 -1.059513,-0.14401 -1.581073,-0.32003 -0.650192,-0.21943 -1.219051,-0.25315 -1.809636,-0.10727 -0.634439,0.15671 -1.072111,0.0992 -1.661398,-0.2185 -0.680994,-0.36708 -1.016142,-0.39361 -2.2522,-0.17827 -1.292086,0.22509 -1.550034,0.19309 -2.340098,-0.29033 -0.728243,-0.44559 -0.966117,-0.48426 -1.322579,-0.21498 -0.603184,0.45566 -3.980054,1.32938 -5.137958,1.32938 -0.525874,0 -1.392494,-0.2014 -1.925834,-0.44756 -0.92335,-0.42616 -1.03855,-0.42932 -2.40951,-0.0662 -1.72335,0.45649 -2.84515,0.16833 -3.1491,-0.80892 l -0.18911,-0.608 -0.62747,0.73956 c -0.70181,0.82718 -2.32934,1.14306 -3.89581,0.75613 -1.40087,-0.34602 -1.55457,-0.31699 -1.55457,0.29358 0,0.69957 -1.07931,1.14233 -1.88178,0.77195 z m 5.81879,-3.7269 c 0,-0.28106 -0.19628,-0.56701 -0.43618,-0.63544 -0.49854,-0.14221 -1.03101,0.62181 -1.01783,1.46042 0.009,0.54819 0.034,0.55258 0.73147,0.12694 0.3974,-0.24249 0.72254,-0.67086 0.72254,-0.95192 z m 26.326335,0.14178 c -0.16596,-0.12394 -0.510133,-0.22534 -0.764828,-0.22534 -0.535561,0 -0.62817,0.75663 -0.121245,0.9906 0.462057,0.21326 1.266284,-0.48132 0.886073,-0.76526 z m -19.305535,-0.81874 c 0.19613,-0.47354 0.0636,-0.55496 -0.80948,-0.49746 -0.8304,0.0547 -1.07658,0.25331 -1.20323,0.97084 -0.1561,0.88428 -0.14013,0.89409 0.80947,0.49746 0.5328,-0.22254 1.07426,-0.65942 1.20324,-0.97084 z m 11.017414,-7.57447 c 0.359203,-1.58616 -0.41154,-1.87163 -1.577106,-0.58413 -0.762466,0.84224 -0.892771,1.71844 -0.38562,2.59306 l 0.314011,0.54154 0.669025,-0.58934 c 0.367968,-0.32413 0.808829,-1.20664 0.97969,-1.96113 z m 4.802535,3.31452 c -0.495059,-0.59543 0.01083,-1.16573 1.034104,-1.16573 0.757042,0 0.97751,0.15298 0.97751,0.6783 0,0.74312 -1.497362,1.10595 -2.011614,0.48743 z m -34.126419,-2.28293 c -0.86383,-0.48039 -0.44836,-1.15415 0.7117,-1.15415 0.75183,0 0.97751,0.15295 0.97751,0.66248 0,0.75624 -0.79656,0.9881 -1.68921,0.49167 z"
         id="path4247"
         inkscape:connector-curvature="0" />
      <path
         style="fill:#b0b0b0"
         d="m -147.73622,746.80217 c 0,-0.26105 0.47712,-0.65296 1.06026,-0.87089 1.04951,-0.39224 1.05092,-0.40354 0.13995,-1.11531 -1.19531,-0.93392 -2.34038,-0.91017 -3.66084,0.0759 -0.58549,0.43723 -1.37865,0.79497 -1.76258,0.79497 -1.20189,0 -0.74394,-0.98894 0.77683,-1.67758 0.79614,-0.36051 1.81949,-1.10499 2.2741,-1.6544 0.99781,-1.20587 1.81277,-1.16439 2.18894,0.11141 0.15315,0.51945 0.73191,1.1755 1.28613,1.45789 0.55422,0.28239 1.23849,0.71348 1.52059,0.95798 0.45771,0.39669 0.56943,0.3478 1.03802,-0.45427 0.75273,-1.28841 3.18574,-2.45629 4.81723,-2.31235 0.96199,0.0849 1.73364,-0.081 3.17782,-0.68321 1.04903,-0.43741 1.90733,-0.92651 1.90733,-1.08687 0,-0.16036 0.79809,-1.1715 1.77354,-2.24698 1.91397,-2.11026 3.52851,-2.92422 5.58145,-2.81385 2.69511,0.14489 1.63621,1.74222 -2.67979,4.04245 -3.25329,1.73385 -4.18307,2.60955 -4.18307,3.93974 0,0.76605 0.30778,1.19608 1.19469,1.66919 l 1.19469,0.63728 1.79846,-0.79497 c 2.49048,-1.10087 2.74849,-1.3816 3.75744,-4.08843 1.48697,-3.98923 2.74283,-5.73372 4.42724,-6.14978 1.38309,-0.34164 2.39126,0.33804 2.39126,1.61212 0,2.21111 -1.30842,4.08769 -4.22356,6.05759 -1.06072,0.71678 -1.24206,1.05214 -1.05833,1.95725 0.28421,1.40014 0.90388,1.70549 2.60724,1.28474 1.84669,-0.45615 2.67465,-1.36425 2.67465,-2.93356 0,-1.47789 1.01975,-2.28263 2.8925,-2.28263 2.01269,0 2.23097,0.57161 0.8669,2.27011 -0.70285,0.87515 -1.05217,1.59119 -0.77628,1.59119 1.24831,0 3.62582,-1.12759 4.6753,-2.21738 1.38911,-1.44246 2.45256,-1.70688 3.79494,-0.94361 0.82048,0.46652 0.92162,0.77058 0.67373,2.02531 -0.2952,1.49421 0.2709,2.55921 0.93546,1.7599 0.17613,-0.21184 0.59002,-0.87325 0.91975,-1.46982 l 0.59951,-1.08466 3.210556,-0.0205 c 3.729035,-0.0239 5.272146,0.38699 5.782967,1.53975 0.460104,1.03829 1.37349,1.03491 2.050227,-0.008 0.458071,-0.70564 0.452195,-1.06697 -0.02702,-1.66117 -0.612136,-0.75904 -1.122549,-6.68519 -0.553533,-6.42675 0.164704,0.0748 0.52092,0.81737 0.791589,1.65014 0.402717,1.23904 0.67094,1.52886 1.476378,1.59526 1.626929,0.13414 1.925724,0.42787 1.057407,1.03951 -0.952594,0.671 -1.080611,2.71127 -0.27844,4.43761 0.673169,1.44871 1.4356,1.48149 1.4356,0.0617 0,-0.61453 0.332249,-1.30407 0.766093,-1.58995 1.552411,-1.02294 3.477721,-0.44003 4.903775,1.48469 0.526771,0.71097 0.883213,0.86147 2.183257,0.92183 0.854538,0.0397 1.676511,0.21986 1.826605,0.40038 0.386486,0.46485 -0.735123,1.00386 -2.088878,1.00386 -0.630797,0 -1.712855,0.11901 -2.404577,0.26448 -0.985153,0.20716 -1.525512,0.19831 -2.49373,-0.0408 -0.949617,-0.23457 -1.370601,-0.24322 -1.816664,-0.0373 -0.990462,0.45713 -1.852972,0.29954 -2.917328,-0.53306 l -1.024001,-0.80102 -2.118012,0.80102 c -1.164891,0.44057 -2.57623,0.80103 -3.136284,0.80103 -1.48472,0 -3.491265,-1.57348 -3.491265,-2.73776 0,-1.32321 -1.399082,-1.13972 -2.540882,0.33324 -0.47489,0.61261 -1.10011,1.22308 -1.38938,1.35659 -0.76214,0.35176 -2.04967,-0.0736 -3.06276,-1.01194 -0.70109,-0.64933 -0.75137,-0.9427 -0.30142,-1.75884 0.39248,-0.71189 0.39207,-1.0478 -0.001,-1.22944 -0.39392,-0.18181 -0.68061,-0.0811 -1.05192,0.36968 -0.28072,0.34079 -0.51151,0.74072 -0.51286,0.88875 -0.009,0.94271 -4.90299,2.36933 -7.0619,2.05839 -0.62773,-0.0904 -1.49292,0.12999 -2.77046,0.70575 -2.41249,1.08726 -3.8208,1.0264 -5.17503,-0.22366 -0.54134,-0.4997 -1.04368,-0.953 -1.11632,-1.00735 -0.0726,-0.0543 -0.9678,0.27784 -1.98925,0.73819 -1.83807,0.82838 -2.70587,0.97014 -4.25704,0.69542 -0.87456,-0.1549 -2.39301,-1.41829 -2.92036,-2.42983 -0.48387,-0.92815 -1.38346,-0.63666 -2.02155,0.65503 -0.30469,0.61677 -0.82296,1.35017 -1.15173,1.62978 -1.14462,0.97346 -4.53423,0.86525 -5.24437,-0.16743 -0.38726,-0.56311 -1.2305,-0.59791 -1.2305,-0.0508 0,0.66818 -1.44177,1.41335 -2.7346,1.41335 -0.89153,0 -1.20241,-0.12272 -1.20241,-0.47465 z m 9.60115,-1.95049 c 0.81557,-0.90089 0.45587,-1.30514 -1.04279,-1.17193 -1.14276,0.10157 -2.42193,1.1382 -2.01237,1.6308 0.57453,0.69102 2.24073,0.44076 3.05516,-0.45887 z m 53.883106,-0.85492 c 0,-0.18001 -0.221457,-0.39046 -0.492126,-0.46767 -0.270669,-0.0772 -0.492126,0.0701 -0.492126,0.3273 0,0.25722 0.221457,0.46767 0.492126,0.46767 0.270669,0 0.492126,-0.14728 0.492126,-0.3273 z m -35.630786,-5.47389 c 1.30106,-1.92598 1.38619,-2.60954 0.34492,-2.76954 -0.66319,-0.10191 -2.34336,2.31966 -2.86538,4.12977 -0.29209,1.01284 -0.24638,1.09408 0.46274,0.82245 0.43277,-0.16577 1.35874,-1.14797 2.05772,-2.18268 z m -7.20149,-1.22506 c 0.78423,-0.67632 0.60834,-0.80806 -0.47481,-0.35564 -1.0545,0.44045 -1.28169,0.79497 -0.50944,0.79497 0.26115,0 0.70406,-0.1977 0.98425,-0.43933 z m -13.21012,1.2847 c -0.8391,-0.38728 -0.75236,-0.48205 2.14976,-2.34883 2.43257,-1.56476 2.67257,-1.82247 2.40807,-2.58587 -0.24794,-0.71565 -0.11496,-0.9057 0.85254,-1.21847 1.43792,-0.46484 4.05513,-0.47987 4.86776,-0.028 0.7105,0.39513 0.44807,1.44456 -0.67014,2.67975 -0.84812,0.93685 -1.89998,1.08271 -2.59839,0.3603 -0.41415,-0.42838 -0.71912,-0.28627 -2.90493,1.35356 -2.56857,1.92699 -3.20344,2.20346 -4.10467,1.78751 z m 8.68552,-5.34548 c 0.10714,-0.14835 -0.15584,-0.26972 -0.5844,-0.26972 -0.42856,0 -0.7792,0.16183 -0.7792,0.35963 0,0.4011 1.05943,0.33125 1.3636,-0.0899 z m 2.82288,-3.8471 c -1.63914,-4.86033 -5.35564,-11.45958 -6.94049,-12.32397 -0.84216,-0.45932 -2.25881,-3.41827 -2.44584,-5.10865 -0.1357,-1.22645 -0.58474,-2.28904 -2.0882,-4.94139 -0.26592,-0.46914 -0.29621,-0.90639 -0.0673,-0.97169 0.61467,-0.17533 1.44983,0.67036 1.44983,1.46811 0,0.38249 0.44009,1.28356 0.97797,2.00237 0.53789,0.71881 1.17636,1.76688 1.41883,2.32904 0.24247,0.56216 1.04306,2.04421 1.77908,3.29346 0.73602,1.24924 1.62038,2.83351 1.96525,3.52059 0.34486,0.68708 0.98141,1.8114 1.41455,2.49848 0.43314,0.68709 0.76743,1.45367 0.74286,1.70352 -0.0246,0.24985 0.32309,0.96532 0.77258,1.58994 0.44948,0.62462 1.01608,1.73816 1.25912,2.47452 0.68098,2.06329 1.20943,2.06465 3.25072,0.008 0.98358,-0.99081 2.43909,-2.21032 3.23448,-2.71002 11.4919,-7.21976 15.66656,-9.53719 16.85756,-9.35796 0.29137,0.0439 0.70657,0.9919 0.92268,2.10679 0.45719,2.35863 2.24295,5.35174 4.16472,6.98047 1.444276,1.22405 3.027298,1.84862 3.420654,1.34959 0.422668,-0.5362 1.126034,-0.28346 1.126034,0.40462 0,1.06936 -1.355197,1.14109 -3.16373,0.16746 -2.675018,-1.4401 -5.165598,-4.11164 -6.472708,-6.94299 -0.47863,-1.03674 -1.06937,-1.9418 -1.31277,-2.01123 -0.66701,-0.19026 -2.50943,0.69333 -6.94022,3.32839 -7.16016,4.25826 -8.69396,5.30451 -10.92145,7.44983 -1.20618,1.16168 -2.19306,2.20934 -2.19306,2.32813 0,0.11879 -0.43288,0.21598 -0.96195,0.21598 -0.73244,0 -1.03049,-0.20322 -1.24921,-0.85176 z m -67.6794,-0.90843 c -0.94395,-0.55386 -1.04278,-0.84291 -0.87364,-2.55527 0.24151,-2.44501 2.14763,-4.39071 6.31631,-6.44748 2.06479,-1.01874 2.74356,-1.50281 2.43275,-1.73492 -0.35978,-0.26868 -0.71443,-0.27465 -2.14373,-0.0361 -3.93256,0.65633 -5.8922,-0.50757 -4.76581,-2.8306 l 0.58926,-1.21527 -2.55719,-2.045 c -1.40646,-1.12475 -3.38488,-2.47928 -4.39651,-3.01005 -2.76369,-1.45005 -4.43529,-2.672 -4.43529,-3.24221 0,-0.28065 0.85466,-1.10962 1.89926,-1.84217 1.04459,-0.73255 3.0825,-2.20071 4.52868,-3.26256 1.44619,-1.06186 3.37996,-2.36141 4.29728,-2.8879 1.64035,-0.94148 4.48056,-3.88012 4.51374,-4.67018 0.0158,-0.37657 -0.0826,-0.37956 -1.48403,-0.0451 -0.90439,0.21586 -1.9313,0.2954 -2.58366,0.20013 -1.71785,-0.25088 -5.33152,-1.45411 -8.80452,-2.93162 -2.73239,-1.16243 -3.50367,-1.67594 -5.2457,-3.49249 -2.00652,-2.09236 -2.04231,-2.17515 -2.04231,-4.72433 0,-2.96732 0.47316,-3.61169 3.22939,-4.39789 3.21449,-0.91693 6.79918,-1.29823 10.19173,-1.08409 5.76732,0.36403 9.45385,1.70484 10.75105,3.91022 0.42408,0.72099 0.91872,3.75729 0.92552,5.68122 0.002,0.49214 0.71052,-0.20877 2.20848,-2.18394 2.13403,-2.81386 6.88293,-8.36918 8.08035,-9.45247 0.52738,-0.47711 1.30462,-0.99991 1.7272,-1.16178 1.61269,-0.61773 1.32849,0.3925 -0.61128,2.17285 -2.31495,2.1247 -5.23124,5.52979 -8.72723,10.19 -1.40572,1.87387 -3.69036,4.91206 -5.07696,6.75154 -1.3866,1.83948 -2.52109,3.46935 -2.52109,3.62195 0,0.29708 -1.74172,1.55252 -4.20012,3.02748 -2.54166,1.52491 -9.08728,6.39139 -9.08728,6.75613 0,0.18864 1.29803,1.05826 2.88451,1.9325 1.58647,0.87424 3.82559,2.37637 4.97581,3.33807 1.15022,0.96171 2.41457,1.80581 2.80966,1.87578 0.41921,0.0743 1.47242,-0.20609 2.52911,-0.67317 2.57264,-1.13717 4.68639,-1.58042 6.70366,-1.40575 1.46217,0.1266 1.77293,0.065 2.53264,-0.50195 2.61786,-1.95368 4.38673,-3.13782 6.01251,-4.02498 5.23841,-2.85851 12.89069,-7.89206 12.89069,-8.47928 0,-0.15102 -1.05192,-0.55641 -2.3376,-0.90087 -2.92298,-0.78313 -9.53915,-2.93587 -12.32747,-4.01106 -1.15883,-0.44685 -3.20531,-1.14094 -4.54772,-1.54241 -2.27606,-0.68069 -3.31814,-1.56198 -1.84698,-1.56198 0.76145,0 6.02371,1.66682 8.26449,2.61778 2.01715,0.85605 7.98566,2.7151 11.72688,3.65264 l 2.62254,0.6572 1.68356,-0.8896 c 1.97642,-1.04435 1.99514,-1.13481 0.66298,-3.20375 -1.83512,-2.85008 -2.36735,-3.60789 -3.66557,-5.21919 -5.34667,-6.63604 -8.80342,-11.695 -8.18587,-11.98003 0.40028,-0.18474 0.74658,-0.0309 1.29576,0.57577 0.41222,0.45534 0.74948,1.04231 0.74948,1.30439 0,0.26207 0.25624,0.69747 0.56941,0.96755 1.24256,1.07157 12.21295,16.12244 12.22119,16.7669 0.002,0.20144 -0.65969,0.7521 -1.4717,1.22369 -0.81201,0.47159 -1.47638,0.92881 -1.47638,1.01605 0,0.0872 1.64347,0.72517 3.65215,1.41763 2.61268,0.90067 3.80326,1.18926 4.18308,1.01396 0.33938,-0.15663 0.55192,-1.84699 0.58914,-4.68553 0.0334,-2.5432 0.21874,-4.14934 0.4339,-3.75908 0.20662,0.37477 0.40188,2.59387 0.4339,4.93134 0.0533,3.89042 0.13874,4.2843 1.00998,4.65627 1.06391,0.45421 4.02002,1.18424 7.53742,1.8614 1.73084,0.33322 2.3376,0.57311 2.3376,0.92421 0,0.83719 -1.25605,0.73888 -5.56403,-0.43552 -5.14371,-1.40223 -5.73298,-1.4323 -5.82062,-0.29703 -0.0631,0.81769 -0.0787,0.80916 -0.38835,-0.2131 -0.17742,-0.58568 -0.75684,-1.28906 -1.28759,-1.56306 -1.31529,-0.67904 -7.6111,-2.70976 -8.40102,-2.70976 -0.35088,0 -2.06445,0.99656 -3.80794,2.21457 -1.7435,1.21801 -3.95738,2.67452 -4.91975,3.23667 -0.96237,0.56216 -3.29916,1.9224 -5.19287,3.02276 -1.8937,1.10036 -4.23687,2.65575 -5.20704,3.45644 -0.97016,0.80068 -2.10544,1.544 -2.52285,1.65181 -0.4174,0.10781 -1.28389,0.88943 -1.92552,1.73693 -0.64164,0.8475 -1.76051,1.93644 -2.48637,2.41987 -1.25611,0.83656 -1.28119,0.90613 -0.51995,1.44234 1.25812,0.88622 0.96247,1.37166 -1.37343,2.25509 -4.40737,1.66685 -7.91193,4.91056 -7.57246,7.00883 0.23561,1.45632 1.40543,1.61067 3.86166,0.50951 2.84552,-1.27567 6.70838,-4.08245 7.64991,-5.55848 0.43878,-0.68787 0.88376,-1.38491 0.98885,-1.54898 0.37306,-0.58243 1.18228,-0.002 1.18228,0.84758 0,2.00358 -9.25065,8.19543 -12.24399,8.19543 -0.53459,0 -1.45093,-0.28103 -2.03633,-0.62451 z m 4.64362,-11.55152 c 0.98985,-0.17531 0.99494,-0.75406 0.0123,-1.40153 -1.01494,-0.66879 -1.89758,-0.63761 -2.61832,0.0925 -0.49281,0.4992 -0.45285,0.66705 0.24334,1.02211 0.90496,0.46152 1.18495,0.49553 2.36263,0.28694 z m 4.33376,-1.62242 c 1.21432,-0.63921 2.20789,-1.68833 2.58131,-2.72562 0.29087,-0.80798 0.21616,-0.96533 -0.45837,-0.96533 -1.27321,0 -3.32193,0.57456 -5.10861,1.43269 -1.47358,0.70777 -1.58232,0.84581 -1.04404,1.32541 0.85331,0.76029 2.00552,1.33033 2.68895,1.33033 0.3221,0 0.92545,-0.17887 1.34076,-0.39748 z m -9.95296,-33.14561 c 0,-0.54152 -2.09722,-3.47992 -2.48371,-3.47992 -0.23084,0 0.91173,2.97355 1.46186,3.80451 0.16392,0.24759 1.02185,-0.0249 1.02185,-0.32459 z m 4.80994,-3.52048 c -0.26675,-0.36935 -1.73738,-0.77185 -2.14044,-0.58583 -0.18176,0.0839 -0.19933,0.31025 -0.039,0.50302 0.33713,0.40549 2.4711,0.48657 2.17949,0.0828 z m 25.44481,44.07583 c -2.09438,-0.89101 -2.20357,-0.99909 -2.20357,-2.18106 0,-0.77838 0.5523,-2.00444 1.47638,-3.27745 0.812,-1.11863 1.47637,-2.26083 1.47637,-2.53824 0,-0.53967 1.25694,-1.51399 1.95316,-1.51399 0.23153,0 0.57687,0.43439 0.76743,0.96532 0.43,1.19807 1.10718,1.81827 1.77677,1.62727 1.02565,-0.29256 6.1473,-3.66618 7.39772,-4.87287 0.70691,-0.68217 1.72892,-1.90469 2.27113,-2.71669 l 0.98583,-1.47638 0.0489,1.02211 c 0.0269,0.56215 -0.24771,1.28444 -0.61025,1.60508 -0.36254,0.32064 -0.80207,0.84578 -0.97674,1.16698 -0.46474,0.85462 -3.51508,3.28371 -5.96239,4.74805 -1.17097,0.70065 -2.39721,1.50517 -2.72498,1.78784 -0.74747,0.64462 -0.26578,2.63296 1.01526,4.19082 0.98432,1.19703 0.67431,1.71928 -1.02059,1.71928 -0.47505,0 -1.13942,0.15331 -1.47637,0.3407 -0.9609,0.53437 -1.82389,0.41158 -4.19407,-0.59677 z m 4.67866,-1.16353 c -0.0101,-0.37999 -0.85826,-0.98214 -1.1765,-0.83526 -0.38131,0.17599 0.25017,1.11918 0.7493,1.11918 0.2391,0 0.43134,-0.12776 0.4272,-0.28392 z m 64.802598,1.02987 c -0.728666,-1.13557 -0.547003,-1.77983 0.303972,-1.07801 0.7728,0.63735 1.280383,1.91162 0.814404,2.04454 -0.231604,0.0661 -0.734872,-0.36887 -1.118376,-0.96653 z m -1.732554,-2.74529 c -0.343607,-0.28762 -0.545689,-0.69646 -0.44907,-0.90854 0.146457,-0.32144 0.279601,-0.29859 0.800428,0.13738 0.343607,0.28763 0.545689,0.69647 0.44907,0.90854 -0.146457,0.32144 -0.279601,0.29859 -0.800428,-0.13738 z m -1.991474,-2.49386 c -0.36961,-0.41001 -0.54943,-0.80205 -0.39959,-0.87121 0.42225,-0.19488 1.41869,0.7983 1.23513,1.2311 -0.11306,0.26659 -0.37092,0.15553 -0.83554,-0.35989 z m 18.46145,-0.15136 c -4.027461,-0.49929 -10.562092,-4.04873 -6.845684,-3.7184 0.461663,0.041 1.588002,0.53409 2.502977,1.09568 2.248337,1.37997 4.259705,1.84521 8.079813,1.8689 4.133184,0.0256 5.313086,-0.16766 5.313086,-0.87044 0,-1.53893 -3.522288,-3.61855 -7.44942,-4.39828 -2.094266,-0.41581 -3.028769,-0.47437 -5.532303,-0.34667 -1.656806,0.0845 -3.662254,0.29902 -4.45655,0.47668 -0.794296,0.17766 -1.602264,0.24479 -1.795478,0.14917 -0.193218,-0.0956 -0.824409,-0.99155 -1.402652,-1.99094 -0.578243,-0.9994 -1.34876,-2.32814 -1.712254,-2.95276 -0.363499,-0.62462 -0.891521,-1.3912 -1.173391,-1.70351 -0.281865,-0.31231 -1.089478,-1.48773 -1.79469,-2.61205 -0.705217,-1.12432 -1.520844,-2.35085 -1.812514,-2.72562 -0.59401,-0.76327 -1.48656,-2.23214 -2.69131,-4.42914 -0.44528,-0.81201 -1.10481,-1.98743 -1.46563,-2.61205 -0.36082,-0.62462 -0.78984,-1.74894 -0.95338,-2.49849 -0.54549,-2.5001 -1.35978,-4.6679 -1.80066,-4.79366 -0.4375,-0.1248 -2.33002,0.77072 -2.36072,1.11706 -0.0439,0.49585 -7.74189,5.52418 -10.74723,7.02015 -1.8769,0.93426 -4.04087,2.19953 -4.80883,2.81172 -2.3804,1.89754 -7.63817,5.31505 -8.17709,5.31505 -0.79517,0 -0.35725,-0.50648 1.57111,-1.81708 1.20973,-0.82219 1.9685,-1.59927 1.9685,-2.016 0,-0.99607 4.24657,-4.00493 6.32851,-4.48398 2.4984,-0.57489 7.62612,-3.40534 11.08058,-6.11636 4.34366,-3.40886 4.84466,-3.73738 5.69955,-3.73738 1.04702,0 1.48156,0.60504 1.49094,2.07591 0.004,0.57959 0.32362,1.85722 0.71093,2.83918 0.38731,0.98197 0.85651,2.34755 1.04266,3.03464 0.39351,1.45245 2.28311,5.3329 3.31813,6.81405 0.39284,0.56216 1.203841,1.78869 1.802232,2.72562 0.598395,0.93693 1.383243,2.06125 1.744104,2.49848 1.001024,1.21287 3.20435,4.61862 3.20188,4.94924 -9.84e-4,0.16113 0.454596,0.70622 1.012889,1.2113 0.771333,0.69782 1.214478,0.88049 1.845472,0.76075 1.646167,-0.3124 7.343839,-0.38944 9.093313,-0.12296 3.979227,0.60613 7.673366,2.51657 9.211043,4.76354 1.313012,1.91867 0.764031,2.38747 -3.042884,2.59847 -3.450005,0.19123 -4.146442,0.17332 -6.995049,-0.17982 z m -20.63107,-2.17756 c -0.4568,-0.301 -0.83055,-0.69536 -0.83055,-0.87634 0,-0.18099 -0.37125,-0.5184 -0.82499,-0.7498 -0.61057,-0.31139 -0.68125,-0.48708 -0.27194,-0.67599 0.40931,-0.18891 0.88258,0.0887 1.82099,1.06799 1.37759,1.43768 1.4356,2.10994 0.10649,1.23414 z m -10.8416,-14.92606 c -0.12464,-0.0937 -0.3038,-1.09025 -0.39814,-2.21457 -0.19195,-2.28775 0.4821,-2.82114 1.38065,-1.09254 0.54798,1.0542 0.57033,1.06464 0.63676,0.29757 0.0378,-0.43724 0.40117,-1.20382 0.80736,-1.70352 0.81355,-1.00084 2.65994,-6.31808 2.66191,-7.6658 4.9e-4,-0.48362 0.24267,-0.85176 0.55982,-0.85176 0.8401,0 0.22277,5.27374 -0.79407,6.78364 -0.64217,0.95356 -0.70215,1.35107 -0.27557,1.82638 0.46031,0.5129 0.30181,0.88918 -1.01741,2.41533 -1.94265,2.24737 -2.79948,2.77794 -3.56131,2.20527 z m 24.578486,-11.90398 c -0.629621,-0.41488 -0.863951,-0.4446 -1.521063,-0.19289 -0.640477,0.24533 -0.988873,0.24515 -1.985531,-0.001 -1.043317,-0.25771 -1.339119,-0.24412 -2.161176,0.0992 -2.480281,1.03598 -3.775429,-0.41016 -2.919617,-3.25998 0.296718,-0.98806 0.26937,-1.53826 -0.08457,-1.70162 -0.369351,-0.17047 -0.649159,-0.14726 -0.952092,0.079 -0.29966,0.22378 -0.530297,0.009 -0.764917,-0.71342 -0.60118,-1.85031 0.334572,-2.49477 1.666452,-1.14771 0.372683,0.37693 1.424602,0.84974 2.337599,1.05068 1.868017,0.41114 2.100305,0.91302 0.743917,1.60731 -1.063351,0.54439 -2.036673,1.77065 -2.036673,2.56605 0,0.9741 1.184104,0.43649 2.254513,-1.0236 1.358361,-1.85288 2.72534,-3.23122 3.204572,-3.23122 0.802244,0 0.863676,0.39809 0.195083,1.26426 -0.893976,1.15815 -0.971259,3.12499 -0.117751,2.99668 0.892186,-0.13414 1.828057,-1.12891 2.506723,-2.66449 0.930866,-2.10622 1.3569,-1.89223 1.270748,0.63828 -0.04365,1.28162 0.03012,2.38073 0.163883,2.44247 0.414877,0.19148 2.333253,-1.7064 2.333253,-2.30833 0,-0.31344 0.447416,-0.97466 0.994252,-1.46938 0.780699,-0.70629 1.274469,-0.89949 2.298848,-0.89949 0.71753,0 1.729587,0.17751 2.249016,0.39447 0.899346,0.37564 0.97721,0.37293 1.631467,-0.0568 0.377874,-0.24818 1.132972,-0.68991 1.677992,-0.9816 0.54502,-0.29169 0.990945,-0.76434 0.990945,-1.05033 0,-0.28599 0.308814,-0.92396 0.686255,-1.41771 0.377441,-0.49374 0.57064,-1.17686 0.429331,-1.51803 -0.153544,-0.37071 0.205103,-1.15718 0.891328,-1.95456 1.11469,-1.29525 1.930094,-1.57609 1.930094,-0.66475 0,0.27063 0.498696,0.534 1.266122,0.66866 1.53034,0.26854 1.446147,0.9823 -0.12813,1.08625 -1.642126,0.10842 -2.093164,0.51721 -2.887141,2.61665 -0.403986,1.06822 -1.042234,2.34476 -1.418331,2.83674 -0.376098,0.49199 -0.839341,1.46906 -1.029439,2.17127 -0.319848,1.18154 -0.27162,1.27675 0.646722,1.27675 1.290586,0 2.813356,-1.19382 3.194154,-2.50415 0.181068,-0.62305 0.681712,-1.15668 1.303036,-1.38889 1.062013,-0.39691 4.280802,-0.51774 4.736024,-0.17779 0.146791,0.10963 -0.0741,0.96125 -0.490876,1.89251 -0.734523,1.64125 -0.6444,2.40546 0.283676,2.40546 0.700177,0 4.016979,-1.02327 5.058135,-1.56048 1.128494,-0.58229 1.769198,-0.61897 1.769198,-0.10128 0,0.52399 -4.582963,2.52246 -6.219247,2.712 -1.022249,0.11842 -1.526757,0.041 -2.187412,-0.33552 l -0.858705,-0.48945 -0.973682,0.61692 c -0.835034,0.52907 -1.08558,0.57405 -1.759562,0.31588 -0.523705,-0.2006 -1.375871,-0.24994 -2.554409,-0.14789 -2.74156,0.23738 -4.147771,-0.29939 -4.147771,-1.58325 0,-1.73984 -1.248716,-1.27728 -2.927623,1.08447 -0.861299,1.2116 -1.334055,1.56177 -2.252106,1.66811 -0.63908,0.074 -1.395626,0.068 -1.681201,-0.0135 -0.285576,-0.0815 -1.011811,0.0111 -1.613849,0.20575 -1.473957,0.47649 -2.156614,0.44583 -3.040463,-0.13657 z m 7.848736,-3.22273 c 0.31907,-1.22111 0.272534,-1.32167 -0.576875,-1.2466 -1.083927,0.0958 -2.337554,2.02055 -1.885999,2.89566 0.277982,0.53872 0.298164,0.54063 1.199272,0.11357 0.560718,-0.26575 1.051269,-0.95003 1.263602,-1.76263 z m 12.298549,-0.54561 c 1.043523,-1.41692 1.053838,-1.48155 0.256131,-1.60428 -0.698021,-0.10738 -1.99841,1.33823 -1.99841,2.2216 0,1.06248 0.683514,0.8203 1.742279,-0.61732 z m -82.168381,1.38159 c -0.17318,-0.20829 -0.43265,-1.00042 -0.5766,-1.7603 -0.21014,-1.10924 -0.1484,-1.29892 0.31318,-0.96224 0.3162,0.23064 0.69346,1.02277 0.83836,1.7603 0.26029,1.32486 0.0371,1.69838 -0.57494,0.96224 z m 22.10032,-1.67002 c -1.6381,-0.83543 -0.88586,-7.26381 0.85,-7.26381 0.33177,0 0.40489,0.34795 0.20286,0.96532 -0.81964,2.50466 -0.8966,4.82452 -0.1746,5.26349 0.70011,0.42566 0.73794,0.42274 1.47527,-0.11357 0.82473,-0.5999 2.09389,-6.22505 1.55165,-6.87723 -0.17088,-0.20553 -0.72212,-0.37369 -1.22498,-0.37369 -1.38355,0 -1.93316,-0.7101 -1.93316,-2.49766 0,-1.70232 1.08717,-3.65741 2.28997,-4.11814 0.56477,-0.21633 0.88352,-0.19372 1.53993,0.10924 0.69645,0.32144 0.85753,1.01225 1.01548,4.35502 0.19947,4.22148 -0.3161,6.68707 -1.92927,9.22624 -0.79334,1.24874 -1.58319,1.78357 -2.63402,1.78357 -0.0712,0 -0.53435,-0.20645 -1.02913,-0.45878 z m 3.6652,-11.50919 c 0.0537,-1.12431 -0.84755,-1.10735 -1.21477,0.0229 -0.36429,1.12117 0.17631,1.88508 0.80755,1.14112 0.20495,-0.24156 0.3882,-0.76535 0.40722,-1.16398 z m -27.85791,7.99311 c -0.93349,-1.55071 -1.06425,-1.93065 -0.66443,-1.93065 0.69945,0 1.56444,1.2942 1.38621,2.07406 l -0.17487,0.76513 -0.54691,-0.90854 z m -2.03448,-3.23668 c -0.28536,-0.34354 -0.66056,-0.88015 -0.83377,-1.19246 -0.46119,-0.83151 -2.79125,-3.43725 -3.61556,-4.04331 -0.81073,-0.59608 -0.1234,-1.19259 0.7828,-0.67937 0.75106,0.42536 3.0817,3.05562 3.0817,3.47787 0,0.19736 0.30056,0.63483 0.66791,0.97217 0.86555,0.79485 1.39589,2.08972 0.85587,2.08972 -0.23106,0 -0.65359,-0.28108 -0.93895,-0.62462 z m 40.92767,-1.53804 c -0.17121,-0.20591 -0.17338,-1.12732 -0.005,-2.04758 0.16855,-0.92026 0.1139,-1.72812 -0.12143,-1.79524 -0.57831,-0.16497 -1.01703,0.6693 -1.02518,1.94953 -0.005,0.73733 -0.23441,1.09492 -0.76354,1.18863 -0.99665,0.17652 -1.39813,-0.35049 -1.00459,-1.31867 0.46611,-1.14675 -0.56251,-1.21544 -1.19268,-0.0796 -0.29667,0.53469 -0.6308,1.09821 -0.74253,1.25226 -0.37032,0.51062 -1.69957,0.0264 -2.23658,-0.81464 -0.7026,-1.10049 -0.41905,-4.16832 0.39678,-4.29283 0.44296,-0.0676 0.61516,0.26111 0.61516,1.17429 0,0.6975 0.16609,1.26779 0.36909,1.26732 0.203,-4.7e-4 0.78329,-0.46567 1.28953,-1.03379 0.73838,-0.82862 1.35051,-1.12624 3.09472,-1.50464 1.19585,-0.25944 2.32271,-0.40321 2.50412,-0.31948 0.18141,0.0837 0.45674,0.63344 0.61183,1.22158 l 0.282,1.06935 0.87138,-0.74991 c 0.98378,-0.84664 2.6099,-1.22974 3.89769,-0.91827 0.54132,0.13093 1.61068,0.11591 2.86729,-0.0403 1.50198,-0.18666 2.17953,-0.18183 2.70464,0.0193 0.98103,0.37574 0.87365,0.89415 -0.18511,0.89415 -1.45868,0 -2.06693,0.48326 -2.06693,1.64218 l 0,1.09705 1.42591,-0.48657 c 0.81034,-0.27651 1.55702,-0.78911 1.7296,-1.18738 0.4262,-0.98353 1.61998,-1.74668 2.732309,-1.74668 1.555256,0 1.699287,0.46745 0.325212,1.0555 -1.090271,0.4666 -1.291771,0.74626 -1.291771,1.79288 0,0.68203 0.166097,1.2359 0.369098,1.23082 0.203002,-0.005 1.066649,-0.28616 1.919208,-0.62462 2.26317,-0.89847 2.757835,-2.05895 2.827997,-6.63447 0.05465,-3.56399 0.16503,-4.05704 1.067825,-4.76984 1.339981,-1.05798 3.257692,-1.11668 3.709725,-0.11357 0.497017,1.10295 -0.0564,3.98158 -1.047997,5.45125 -2.458376,3.64358 -2.440906,3.60212 -1.680906,3.98971 0.38999,0.19889 0.70907,0.62862 0.70907,0.95495 0,0.84609 0.897579,0.98971 1.477003,0.23633 0.27,-0.35106 0.718932,-0.79161 0.997618,-0.97899 0.278691,-0.18739 0.636836,-0.51958 0.795881,-0.73819 0.49282,-0.67741 1.158632,-0.43812 1.158632,0.41641 0,0.86629 1.074257,1.01096 1.406304,0.18939 0.300527,-0.7436 1.10285,-1.00329 3.099685,-1.00329 1.678165,0 2.055084,-0.10188 2.941108,-0.79497 1.167638,-0.91339 1.70154,-0.99191 2.164704,-0.31839 0.233824,0.34002 -0.179694,0.81662 -1.443218,1.66335 -1.077018,0.72175 -1.770945,1.45623 -1.770945,1.87444 0,0.95976 -0.90498,2.05563 -1.833332,2.22005 -0.449114,0.0795 -1.238676,-0.0606 -1.860256,-0.33006 -0.991688,-0.42999 -1.134552,-0.43789 -1.748125,-0.0967 -0.610881,0.33972 -0.745216,0.32768 -1.566422,-0.14038 -0.792722,-0.45184 -1.035354,-0.47811 -2.065448,-0.22367 -1.390477,0.34346 -2.131152,0.1747 -2.804877,-0.63909 -0.498711,-0.60239 -0.499011,-0.60242 -1.076929,-0.10801 -0.728238,0.623 -4.00999,1.66324 -5.247225,1.66324 -0.513968,0 -1.278478,-0.22667 -1.698898,-0.5037 -0.75172,-0.49534 -0.78935,-0.49691 -2.26531,-0.0945 -1.79905,0.49049 -2.92722,0.20812 -2.93914,-0.73563 -0.0141,-1.11405 -0.80715,-1.29685 -1.47538,-0.34007 -0.33762,0.48341 -0.84244,1.01163 -1.12182,1.17381 -0.87404,0.5074 -2.50851,0.20719 -3.3474,-0.61484 l -0.7901,-0.77424 -0.3341,1.16239 c -0.34987,1.21728 -1.07889,1.69903 -1.60802,1.06261 z m 5.76739,-2.30991 c 0.67696,-0.82179 0.39364,-1.77364 -0.52792,-1.77364 -0.43987,0 -0.91705,0.33406 -1.18079,0.82666 -0.74948,1.39981 0.68211,2.1932 1.70871,0.94698 z m 26.926681,-0.63632 c -0.205674,-0.6622 -2.356171,-0.76815 -2.356171,-0.11608 0,0.26675 0.25061,0.70112 0.556909,0.96527 0.545758,0.47066 0.570758,0.47153 1.248888,0.0435 0.380586,-0.24022 0.628258,-0.64193 0.550374,-0.89269 z m -9.304065,-6.37274 c 1.147608,-1.89272 1.246176,-3.74644 0.207589,-3.90398 -0.3238,-0.0491 -1.064981,0.34157 -1.647072,0.86818 -0.929474,0.84089 -1.025798,1.20916 -0.791019,3.0244 0.147028,1.13681 0.279208,2.11292 0.293725,2.16914 0.100621,0.38953 0.999484,-0.61188 1.936777,-2.15774 z m 5.658524,0.93073 c -0.339257,-0.40805 0.210654,-0.85961 0.83125,-0.68258 0.623602,0.17788 0.582839,1.0124 -0.04945,1.0124 -0.279168,0 -0.630974,-0.14842 -0.781801,-0.32982 z m -34.42755,-2.24577 c -0.31856,-0.38315 0.0871,-0.83143 0.75237,-0.83143 0.77505,0 0.94905,0.64831 0.24624,0.91751 -0.55452,0.21241 -0.76556,0.19421 -0.99861,-0.0861 z"
         id="path4245"
         inkscape:connector-curvature="0" />
      <path
         style="fill:#919191"
         d="m -147.12106,747.11363 c -0.93967,-0.15551 -0.73291,-0.70028 0.36909,-0.97249 1.20632,-0.29797 1.2454,-0.74798 0.13996,-1.61168 -1.12183,-0.87651 -2.34881,-0.83261 -3.70335,0.13249 -1.12955,0.80481 -2.34212,1.05497 -2.34212,0.48321 0,-0.17302 0.51956,-0.4717 1.15458,-0.66374 0.63501,-0.19204 1.78102,-0.94482 2.54667,-1.67285 l 1.3921,-1.3237 0.3185,0.82305 c 0.17517,0.45267 1.02228,1.31344 1.88246,1.9128 1.74821,1.21815 1.74649,1.215 1.09539,2.00539 -0.51192,0.62144 -1.88337,1.04803 -2.85328,0.88752 z m 50.010414,-0.34787 c -1.422628,-0.54314 -2.397224,-1.52269 -2.397224,-2.40941 0,-0.61446 -0.249232,-0.93637 -0.80057,-1.03401 -1.15451,-0.20448 -1.8234,0.14226 -2.59197,1.34364 -0.79697,1.24577 -1.71377,1.4907 -3.13118,0.83651 -1.07127,-0.49443 -1.30771,-1.41397 -0.68261,-2.65481 0.45324,-0.8997 -0.27847,-1.45395 -1.36837,-1.03647 -0.42663,0.16342 -0.77652,0.51458 -0.77753,0.78037 -0.005,1.3396 -4.03225,2.85005 -6.75721,2.53439 -0.95312,-0.11041 -1.65821,0.0527 -3.36399,0.77845 -1.18697,0.50497 -2.36846,0.91813 -2.62553,0.91813 -0.71903,0 -2.50734,-1.14628 -2.50734,-1.60717 0,-0.77545 -1.03196,-0.70174 -3.2224,0.23014 -2.14433,0.91226 -2.22718,0.92578 -3.62642,0.59183 -1.05685,-0.25224 -1.65235,-0.65528 -2.27332,-1.53858 -0.46275,-0.65825 -1.02622,-1.28959 -1.25214,-1.40297 -0.65406,-0.32824 -1.92769,0.31009 -1.93968,0.97215 -0.006,0.32825 -0.43803,1.03121 -0.96019,1.56214 -0.80247,0.81594 -1.17224,0.96532 -2.38956,0.96532 -1.90308,0 -2.79101,-0.54062 -2.79101,-1.69932 0,-0.68851 0.37739,-1.17646 1.37839,-1.78217 1.15703,-0.70013 1.6757,-0.83407 3.22977,-0.83407 1.40604,0 2.18463,-0.16054 3.23671,-0.66737 1.29972,-0.62613 3.22429,-2.43866 4.2396,-3.99277 0.63966,-0.97912 2.96055,-2.14493 4.40175,-2.21105 1.0096,-0.0463 1.25794,0.0542 1.38434,0.56011 0.16696,0.66829 -1.69525,2.32681 -3.41452,3.04103 -4.6546,1.93364 -5.98859,5.16921 -2.6573,6.44523 0.68103,0.26087 1.03307,0.19552 2.5362,-0.47081 2.4486,-1.08545 3.44891,-2.11434 3.8438,-3.95362 0.56315,-2.62292 3.10036,-6.15057 4.61689,-6.41916 0.37382,-0.0662 0.8754,0.0223 1.11461,0.19663 0.73598,0.53647 0.509,0.84945 -0.52549,0.72459 -1.09749,-0.13246 -1.59983,0.31825 -2.71016,2.43162 -1.19749,2.27926 -1.33777,3.17989 -0.49528,3.17989 0.41358,0 1.05462,-0.33218 1.42454,-0.73819 0.36992,-0.406 1.03719,-1.09593 1.48283,-1.53316 l 0.81025,-0.79497 -0.23574,0.70949 c -0.22487,0.67679 -1.11383,1.58272 -3.64205,3.71156 -1.22841,1.03436 -1.17084,2.27405 0.14414,3.10405 0.58247,0.36765 0.79167,0.37804 1.93358,0.096 2.05278,-0.50706 3.24762,-1.67022 3.24762,-3.16152 0,-1.52418 0.76555,-2.15166 2.48821,-2.03943 1.49838,0.0976 1.51059,0.70008 0.0494,2.44003 -0.56624,0.6743 -0.90883,1.31614 -0.76129,1.42632 0.56323,0.42061 4.38323,-1.19841 5.60552,-2.37577 0.85987,-0.82826 1.55848,-1.20663 2.32021,-1.25662 1.41095,-0.0926 1.85093,0.65716 1.41918,2.41844 -0.22965,0.93687 -0.13012,1.41775 0.35708,1.72527 0.8118,0.5124 1.80798,0.29541 1.81179,-0.39464 10e-4,-0.27371 0.23338,-0.88094 0.51526,-1.34941 l 0.51251,-0.85175 3.052655,0.007 c 1.678962,0.004 3.404036,0.13174 3.833495,0.28392 1.058774,0.37518 1.925856,1.16525 1.925856,1.75479 0,0.85117 1.58283,0.41939 2.348081,-0.64054 0.388961,-0.53873 0.824139,-0.92555 0.967057,-0.85958 0.142923,0.066 0.516471,0.71117 0.830108,1.43379 0.804306,1.85311 1.923076,1.79644 2.252668,-0.1141 0.159045,-0.92194 0.507834,-1.50425 0.984252,-1.64325 1.011132,-0.29501 1.255487,-0.27792 2.007756,0.14043 0.549921,0.30582 0.520792,0.39662 -0.185808,0.57912 -1.022957,0.26422 -1.064542,0.64661 -0.1337,1.22935 0.684542,0.42855 0.717697,0.42499 1.183509,-0.12694 0.478307,-0.56673 0.480807,-0.56615 1.284448,0.29895 0.628554,0.67663 1.043696,0.85257 1.892274,0.80198 1.429464,-0.0852 2.34312,0.19378 1.99718,0.60986 -0.167027,0.20089 -0.929419,0.33343 -1.917967,0.33343 -0.902412,0 -1.777614,0.10221 -1.944897,0.22713 -0.414537,0.30957 -2.023976,0.28592 -3.177968,-0.0467 -0.775984,-0.22367 -1.120777,-0.20252 -1.881949,0.11541 -0.880497,0.36777 -0.972898,0.36721 -1.675167,-0.0101 -0.408794,-0.21963 -0.880704,-0.57819 -1.048686,-0.79681 -0.446609,-0.58124 -1.304503,-0.48925 -3.727416,0.39969 -2.518618,0.92405 -2.144745,0.86208 -3.069937,0.50885 z m -41.041754,-1.52188 c 1.46651,-1.30889 0.5645,-2.16299 -1.69491,-1.6049 -1.39492,0.34456 -2.13473,1.26584 -1.47403,1.83563 0.75876,0.65434 2.30328,0.54189 3.16894,-0.23073 z m 42.581538,-0.56571 c 0,-0.30494 -0.221457,-0.6176 -0.492126,-0.69481 -0.287116,-0.0819 -0.492126,0.14906 -0.492126,0.55443 0,0.38215 0.221457,0.69481 0.492126,0.69481 0.270669,0 0.492126,-0.24949 0.492126,-0.55443 z m -19.268948,-2.95436 c 0.10876,-0.25894 -0.0686,-0.36815 -0.49213,-0.30306 -0.36418,0.056 -0.73867,0.28394 -0.83218,0.50659 -0.10876,0.25894 0.0686,0.36815 0.49213,0.30306 0.36418,-0.056 0.73867,-0.28394 0.83218,-0.50659 z m -11.93863,-4.32537 c 0.85143,-0.59975 0.57533,-1.07568 -0.5123,-0.88305 -0.60761,0.10761 -2.23682,1.40054 -2.23682,1.77513 0,0.28861 1.98942,-0.35696 2.74912,-0.89208 z m 34.494148,4.07544 c -0.501929,-0.4858 -0.715468,-1.04973 -0.537534,-1.41959 0.650816,-1.35284 0.773592,-1.46358 1.335285,-1.20433 0.297913,0.13749 0.940285,0.24999 1.42749,0.24999 1.076014,0 1.160601,0.52054 0.147638,0.90855 -0.450448,0.17254 -0.738189,0.67033 -0.738189,1.27705 0,1.20439 -0.522672,1.2646 -1.63469,0.18833 z m -48.070038,-3.1911 c 0,-0.19959 1.1934,-1.14504 2.65199,-2.101 2.20598,-1.44579 2.64049,-1.88948 2.58366,-2.63828 -0.0587,-0.77293 0.12413,-0.94351 1.29294,-1.20661 1.57966,-0.35557 3.11026,-0.19677 3.79498,0.39373 0.64708,0.55803 -0.99975,2.82057 -2.12696,2.92218 -1.0319,0.093 -1.0644,-0.52852 -0.0735,-1.40543 1.0313,-0.91265 0.94449,-1.5072 -0.22005,-1.5072 -1.27756,0 -1.66487,0.3426 -0.96886,0.85698 0.47628,0.35199 0.22546,0.68004 -1.52656,1.99667 -1.15307,0.86652 -2.53118,1.90767 -3.06248,2.31368 -1.01734,0.77742 -2.34516,0.9899 -2.34516,0.37528 z m 12.10865,-8.40168 c -0.60808,-0.73137 -0.34077,-1.26629 0.56639,-1.1334 0.69186,0.10134 1.282,-0.27407 2.96185,-1.88416 1.15381,-1.10589 2.65514,-2.35694 3.33627,-2.7801 12.80767,-7.95679 14.72598,-9.0598 15.7564,-9.0598 0.81144,0 1.18702,0.77511 1.15562,2.38492 -0.0279,1.42726 -0.0456,1.42372 -1.49377,-0.29822 l -0.44184,-0.52535 -1.44689,0.47552 c -2.3334,0.76685 -13.8947,7.67129 -15.60591,9.31988 -0.58351,0.56216 -1.66313,1.612 -2.39914,2.33298 -1.49635,1.4658 -1.95483,1.6899 -2.38898,1.16773 z m -67.97784,-1.54727 c -0.49353,-0.34764 -0.79659,-1.11293 -0.83677,-2.11304 -0.0975,-2.42796 2.43146,-4.96739 6.95583,-6.98447 1.10765,-0.49382 2.01391,-1.08473 2.01391,-1.31315 0,-0.53778 -1.35428,-0.77265 -2.51914,-0.43689 -1.58497,0.45684 -4.37062,0.26083 -4.37062,-0.30755 0,-0.21258 0.54645,-0.26096 1.95954,-0.17348 1.57865,0.0977 2.02511,0.0424 2.29684,-0.28437 0.38828,-0.467 -0.64853,-1.42304 -1.93945,-1.78837 -0.71841,-0.20331 -1.06577,-0.14432 -1.87385,0.31826 l -0.99197,0.56784 0.3686,-0.79497 c 0.59661,-1.28676 0.38,-1.74434 -1.42318,-3.00631 -0.93966,-0.65763 -2.07379,-1.52568 -2.52031,-1.92901 -0.44651,-0.40332 -2.01142,-1.3538 -3.47758,-2.11218 -3.6741,-1.90045 -4.00957,-2.86581 -1.53694,-4.42282 0.59517,-0.37478 1.91057,-1.31744 2.92313,-2.09481 1.01255,-0.77738 3.08499,-2.20833 4.60541,-3.17989 2.88589,-1.84412 5.21573,-4.08928 5.8254,-5.61367 l 0.35771,-0.89442 -1.36879,0.49694 c -1.8423,0.66884 -3.06107,0.62657 -5.90085,-0.20463 -2.5492,-0.74615 -9.58313,-3.60749 -9.59801,-3.90439 -0.005,-0.0972 -0.76276,-0.91493 -1.68419,-1.81708 -1.48863,-1.45747 -1.71403,-1.93357 -2.02251,-4.27218 -0.29172,-2.21155 -0.21846,-2.7468 0.45874,-3.35121 1.58457,-1.41425 7.90138,-2.70597 11.9732,-2.44838 5.59279,0.35381 8.59945,1.22027 10.53766,3.03677 1.05416,0.98797 1.15148,1.37095 1.15148,4.53162 0,1.94265 0.18617,3.36653 0.42572,3.25597 0.43813,-0.20222 3.01756,-3.45022 3.70543,-4.66586 0.21258,-0.37568 0.62063,-0.88674 0.90678,-1.13567 0.28614,-0.24894 1.59191,-1.73025 2.90171,-3.29181 2.37694,-2.83381 4.28509,-4.65047 5.14117,-4.89466 0.89007,-0.25389 0.42749,0.51987 -1.07751,1.80233 -0.84158,0.71715 -1.94886,1.80851 -2.46063,2.42525 -0.51176,0.61675 -1.39833,1.65796 -1.97016,2.31381 -0.57183,0.65585 -2.12512,2.67452 -3.45175,4.48592 -2.46062,3.35978 -4.46405,5.93524 -5.56562,7.15475 -0.58403,0.64657 -2.32914,3.2048 -3.02134,4.42914 -0.17657,0.31231 -1.46095,1.28331 -2.85416,2.15778 -1.39322,0.87447 -3.1001,1.99879 -3.79307,2.49849 -0.69298,0.49969 -2.51753,1.80188 -4.05456,2.89374 -1.53704,1.09186 -2.79461,2.10504 -2.79461,2.2515 0,0.14647 1.29413,0.99071 2.87585,1.8761 1.58173,0.88538 3.93706,2.46156 5.23408,3.5026 1.29702,1.04105 2.66538,1.94722 3.04079,2.01371 0.38527,0.0682 1.73096,-0.33171 3.08955,-0.91824 2.56052,-1.10541 4.19752,-1.42149 6.17546,-1.19237 1.43383,0.1661 1.87773,-0.0289 4.86508,-2.13661 1.15087,-0.81201 4.00921,-2.57973 6.35188,-3.92826 3.86634,-2.22562 8.63856,-5.37444 10.14667,-6.695 0.7792,-0.6823 0.5667,-0.80129 -3.29496,-1.84491 -1.81357,-0.49013 -4.79223,-1.41157 -6.61925,-2.04765 -8.09256,-2.81744 -9.61297,-3.34027 -10.73847,-3.69274 -1.01202,-0.31693 -1.07304,-0.3971 -0.39745,-0.52216 0.79837,-0.14779 4.02722,0.80204 7.76537,2.28434 2.5024,0.99228 9.17172,3.08802 12.22748,3.84231 2.51966,0.62196 2.60663,0.62728 3.58381,0.21913 0.55081,-0.23007 1.45001,-0.75327 1.99822,-1.16266 0.84866,-0.63377 0.91982,-0.87221 0.47898,-1.60489 -0.70442,-1.17076 -0.62398,-1.43384 0.21937,-0.71748 0.38676,0.32852 0.83613,0.99289 0.9986,1.47637 0.24163,0.71911 0.0653,1.02141 -0.96898,1.66138 -0.6954,0.43027 -1.26437,0.95432 -1.26437,1.16455 0,0.44364 6.49447,2.7094 7.7661,2.7094 0.47047,0 1.13613,0.20746 1.47922,0.46102 0.8511,0.62899 5.29904,1.89003 7.88208,2.23465 2.15384,0.28736 2.88235,0.6746 2.38789,1.26931 -0.22547,0.27119 -0.65625,0.22861 -2.39024,-0.23629 -3.13749,-0.8412 -3.95149,-1.07588 -5.25171,-1.51412 -0.64861,-0.21862 -1.60664,-0.39749 -2.12896,-0.39749 -0.5223,0 -1.48042,-0.29113 -2.12913,-0.64696 -1.26612,-0.69447 -8.18553,-2.9872 -9.01531,-2.9872 -0.27557,0 -2.16675,1.14987 -4.20263,2.55527 -2.03588,1.4054 -5.81634,3.77241 -8.40102,5.26003 -2.58469,1.48762 -5.4866,3.35442 -6.44869,4.14845 -0.9621,0.79402 -2.29031,1.6073 -2.95158,1.80727 -0.67025,0.2027 -1.20232,0.58411 -1.20232,0.8619 0,0.27407 -0.34727,0.69671 -0.77171,0.9392 -0.739,0.42221 -0.75987,0.41442 -0.49213,-0.18372 0.15378,-0.34354 0.40679,-0.8663 0.56226,-1.16167 0.61582,-1.17 -2.78509,-0.82962 -6.06515,0.60703 -0.87967,0.3853 -1.59941,0.90081 -1.59941,1.14559 0,0.55507 2.27864,1.96432 3.17613,1.96432 0.36598,0 1.34384,-0.38329 2.17302,-0.85176 1.02001,-0.57627 1.51295,-0.72883 1.52412,-0.4717 0.009,0.20904 -0.53715,0.68374 -1.21382,1.0549 -1.38414,0.75921 -1.59724,1.66233 -0.49212,2.08564 1.18233,0.45288 0.90196,0.73692 -2.02551,2.05197 -3.49783,1.57127 -5.73768,3.1595 -6.76517,4.79704 -1.00846,1.60722 -1.01926,2.44891 -0.0397,3.09439 1.01837,0.67105 1.35938,0.64338 3.60335,-0.29229 3.09888,-1.29215 6.87594,-4.01076 8.02664,-5.77733 1.0004,-1.53584 1.87557,-1.91537 1.87557,-0.81337 0,1.22246 -6.93599,6.40696 -10.02735,7.49521 -2.03706,0.71711 -3.02407,0.72424 -4.01113,0.029 z m -1.22467,-46.30156 c -0.008,-0.85957 -1.53667,-3.24513 -2.3065,-3.60044 -0.90064,-0.41568 -1.04122,0.0875 -0.35548,1.2723 0.3615,0.62463 0.66706,1.37237 0.679,1.66167 0.0262,0.63321 0.85843,1.40466 1.51541,1.40466 0.26115,0 0.47155,-0.33219 0.46757,-0.73819 z m 4.92851,-3.30482 c 0,-0.52329 -0.93314,-0.95396 -2.06693,-0.95396 -1.00339,0 -1.11882,0.2832 -0.37639,0.92347 0.65368,0.56373 2.44332,0.58607 2.44332,0.0305 z m -11.3189,-0.96737 c 0,-0.11755 -0.33219,-0.21373 -0.73819,-0.21373 -0.76103,0 -0.97771,0.26801 -0.42349,0.52381 0.39318,0.18146 1.16168,-0.0237 1.16168,-0.31008 z m 5.90551,-0.11357 c 0,-0.19476 -0.22146,-0.29093 -0.49213,-0.21373 -0.27067,0.0772 -0.49212,0.23656 -0.49212,0.35411 0,0.11755 0.22145,0.21373 0.49212,0.21373 0.27067,0 0.49213,-0.15935 0.49213,-0.35411 z m 100.229664,48.58246 c -0.623913,-0.28796 -0.324267,-0.52998 0.656166,-0.52998 0.546806,0 0.984252,0.15142 0.984252,0.3407 0,0.34579 -1.041043,0.46591 -1.640418,0.18928 z m -69.467534,-3.57863 c -0.87359,-0.42751 -1.7292,-1.10233 -1.90135,-1.49961 -0.37257,-0.85977 0.071,-2.38349 0.92405,-3.17434 0.33688,-0.31231 1.00438,-1.33441 1.48334,-2.27135 1.29837,-2.53988 2.29883,-2.89963 2.90192,-1.04347 0.63223,1.94584 1.92741,1.70689 6.40542,-1.18177 2.87776,-1.85637 2.60695,-1.23716 -0.32592,0.74523 -4.73975,3.2037 -4.84316,3.30501 -4.52435,4.43277 0.15892,0.56216 0.72576,1.60918 1.25965,2.32671 0.97778,1.31409 0.90402,1.76172 -0.29029,1.76172 -0.35689,0 -0.92457,0.15332 -1.26153,0.3407 -1.045,0.58115 -2.95633,0.4025 -4.67094,-0.43659 z m 4.79969,-0.86943 c 0.3714,-0.45054 -0.51457,-1.30603 -1.35258,-1.30603 -0.58316,0 -0.68704,0.14749 -0.43994,0.62462 0.52446,1.01271 1.28201,1.30069 1.79252,0.68141 z m 30.27582,-0.17749 c -0.23927,-0.75243 0.28912,-0.63852 0.82328,0.17749 0.184,0.28108 0.1233,0.51105 -0.13489,0.51105 -0.25819,0 -0.56796,-0.30984 -0.68839,-0.68854 z m 28.66786,-0.20507 c -0.52216,-0.45031 -0.71794,-1.32255 -0.24818,-1.10574 0.34739,0.16033 1.20062,1.54508 0.95202,1.54508 -0.10692,0 -0.42364,-0.1977 -0.70384,-0.43934 z m -31.37195,-3.81321 c -1.78165,-1.73474 -3.42924,-4.9962 -2.6951,-5.33503 0.29295,-0.13521 0.85313,0.3736 1.50973,1.37132 0.57417,0.87246 1.04395,1.68131 1.04395,1.79744 0,0.11613 0.45511,0.85099 1.01135,1.63302 1.4521,2.04154 0.97777,2.33229 -0.86993,0.53325 z m 51.303363,-0.61576 c -1.889754,-0.3252 -7.153445,-2.58533 -7.153445,-3.07155 0,-0.47787 1.432692,-0.21797 2.54623,0.46191 2.285404,1.39536 3.285296,1.7729 5.394248,2.03677 2.86245,0.35814 8.33528,0.12951 9.147357,-0.38215 0.559754,-0.35267 0.624365,-0.35169 0.928519,0.0141 0.598706,0.7201 -0.905482,1.07187 -5.034794,1.17746 -2.679675,0.0685 -4.479798,-0.005 -5.828115,-0.23657 z m 8.084848,-3.80015 c -0.563544,-0.50716 -0.550345,-0.51325 0.299926,-0.13843 0.489178,0.21564 0.754449,0.45437 0.589488,0.53051 -0.16496,0.0761 -0.565202,-0.1003 -0.889414,-0.39208 z m -2.472869,-1.22852 c -0.353371,-0.19651 -1.543135,-0.57483 -2.643918,-0.8407 -2.413774,-0.583 -8.258332,-0.61338 -10.59752,-0.0551 -0.793986,0.1895 -1.554931,0.34455 -1.690984,0.34455 -0.236289,0 -1.26941,-1.51821 -1.275138,-1.87387 -0.0062,-0.3859 0.862707,-0.13065 1.396732,0.4103 0.315266,0.31935 0.754543,0.52892 0.976172,0.4657 0.221629,-0.0632 1.771693,-0.21668 3.444581,-0.34102 4.052973,-0.30126 7.320882,0.13515 10.108775,1.34995 1.118475,0.48736 1.783888,0.88867 1.478691,0.8918 -0.305192,0.003 -0.84402,-0.15511 -1.197391,-0.35163 z m -76.734272,-0.48104 c 0.004,-0.10107 0.22221,-0.33708 0.48459,-0.52446 0.41113,-0.29362 0.4781,-0.28762 0.4846,0.0434 0.004,0.21125 -0.21393,0.44726 -0.4846,0.52446 -0.27067,0.0772 -0.48873,0.0577 -0.48459,-0.0434 z m 14.83395,-4.38576 c 0,-0.31231 0.1117,-0.44007 0.24822,-0.28392 0.13652,0.15616 0.13652,0.41168 0,0.56784 -0.13652,0.15615 -0.24822,0.0284 -0.24822,-0.28392 z m 44.213638,0 c 0,-0.24985 0.0849,-0.45427 0.188666,-0.45427 0.103765,0 0.304489,0.20442 0.446054,0.45427 0.141564,0.24985 0.05666,0.45427 -0.188667,0.45427 -0.24533,0 -0.446053,-0.20442 -0.446053,-0.45427 z m -2.161914,-2.85777 c -0.428701,-0.51561 -0.368106,-0.82299 0.134005,-0.67977 0.583928,0.16657 1.052569,1.03905 0.558111,1.03905 -0.216373,0 -0.527825,-0.16167 -0.692116,-0.35928 z m -16.702914,-4.33484 c -0.18045,-0.0833 -0.32809,-1.02021 -0.32809,-2.08207 0,-2.04886 0.2935,-2.29721 0.87528,-0.74064 0.4834,1.2933 1.31972,1.28188 1.42655,-0.0195 0.1393,-1.69681 1.74904,-2.66447 2.41012,-1.44879 0.29272,0.53829 -0.91122,2.34534 -2.51811,3.77951 -0.74037,0.6608 -1.24343,0.79871 -1.86575,0.51148 z m -17.5525,-0.16481 c 0,-0.099 0.44292,-0.43983 0.98426,-0.75746 0.54663,-0.32074 0.98425,-0.92144 0.98425,-1.35105 0,-0.42545 0.41462,-1.05048 0.92138,-1.38897 0.50676,-0.33848 1.51337,-1.10149 2.23691,-1.69557 0.85842,-0.70483 1.86833,-1.18676 2.90642,-1.38695 2.85794,-0.55113 7.15814,-3.08605 13.84705,-8.16268 1.28377,-0.97434 2.5884,-1.73277 2.89917,-1.68541 0.34131,0.052 0.59877,0.70851 0.6502,1.65794 0.078,1.44032 0.0431,1.50058 -0.41799,0.72009 -0.27671,-0.46847 -0.80354,-0.85176 -1.17072,-0.85176 -0.36717,0 -1.59662,0.74103 -2.7321,1.64673 -2.97905,2.3762 -7.08614,5.02697 -10.25861,6.62103 -2.87202,1.44311 -5.43683,2.95434 -5.43683,3.20349 0,0.13453 -4.09604,2.91191 -5.0065,3.39474 -0.22379,0.11868 -0.40689,0.1348 -0.40689,0.0358 z m 30.55067,-1.40621 c 0.0236,-0.2646 0.14023,-0.31842 0.29732,-0.13722 0.14216,0.16396 0.12468,0.35986 -0.0388,0.43534 -0.16353,0.0755 -0.27984,-0.0587 -0.25847,-0.29812 z m -2.22641,-3.46112 c -0.20171,-0.41494 -0.24571,-0.81029 -0.0978,-0.87856 0.37027,-0.1709 0.95694,0.9765 0.68479,1.33932 -0.12114,0.16152 -0.3853,-0.0458 -0.587,-0.46076 z m -6.40152,-2.65517 c 0.13488,-0.75096 0.44264,-1.67086 0.68391,-2.04422 0.395,-0.61123 0.43912,-0.56575 0.44316,0.45685 0.002,0.62462 -0.3053,1.54452 -0.68391,2.04421 l -0.6884,0.90854 0.24524,-1.36538 z m 4.71049,-0.89298 c -0.69283,-1.26992 -0.72504,-3.23789 -0.0401,-2.45097 0.52302,0.6009 1.22231,3.46009 0.84626,3.46009 -0.14058,0 -0.50335,-0.4541 -0.80615,-1.00912 z m -54.34126,-0.29691 c -0.11389,-0.0937 -0.35181,-0.47698 -0.52872,-0.85175 -0.3032,-0.64232 -0.27888,-0.65612 0.42409,-0.24051 0.41015,0.2425 0.74573,0.62579 0.74573,0.85176 0,0.42731 -0.28437,0.53399 -0.6411,0.2405 z m 70.196451,-2.91086 c -0.227382,-0.27349 -0.720168,-0.32249 -2.134085,-0.21224 -1.467274,0.11441 -1.903834,0.0647 -2.162377,-0.24627 -0.295197,-0.35505 -0.423863,-0.34629 -1.450099,0.0987 -0.619384,0.26857 -1.499434,0.4883 -1.955659,0.4883 -1.141703,0 -1.064695,-0.82717 0.08998,-0.96653 0.563563,-0.068 1.245364,-0.53987 1.761368,-1.21895 1.176206,-1.54797 3.226949,-3.56755 3.496339,-3.44322 0.123686,0.0571 -0.007,0.41075 -0.290335,0.78593 -0.283371,0.37517 -0.561191,1.28609 -0.617377,2.02426 -0.08048,1.05732 0.05308,1.34213 0.6294,1.34213 0.738642,0 1.642633,-0.70037 2.785118,-2.15778 0.606531,-0.77372 0.62377,-0.75131 0.644794,0.83835 0.01186,0.89833 0.234567,1.69407 0.494857,1.76832 0.63529,0.18121 2.37624,-1.43367 2.769611,-2.56906 0.392495,-1.13286 1.894395,-2.30896 2.948573,-2.30896 0.435886,0 1.467244,0.17887 2.291905,0.39748 1.260994,0.33429 1.538597,0.34582 1.746018,0.0725 0.13565,-0.17874 0.759774,-0.54448 1.386944,-0.81275 0.65938,-0.28204 1.278071,-0.88538 1.466954,-1.43054 0.179651,-0.51854 0.63627,-1.12381 1.0147,-1.34504 0.61065,-0.35698 0.654168,-0.30002 0.386836,0.5063 -0.165675,0.4997 -0.704503,1.62402 -1.197397,2.49849 -1.436265,2.54816 -1.634907,3.33435 -0.897003,3.55029 1.208425,0.35362 1.910084,0.20085 3.005138,-0.65432 l 1.090684,-0.85175 0.246063,0.79497 c 0.139897,0.45197 0.527751,0.79497 0.898932,0.79497 0.660325,0 2.54595,-2.1384 2.54595,-2.88725 0,-0.70166 -1.411245,-0.44259 -2.427121,0.44555 l -0.974262,0.85176 -0.02175,-0.80122 c -0.03315,-1.22129 1.111481,-1.81084 3.515837,-1.81084 l 2.005398,0 -0.337977,0.96533 c -0.862067,2.46223 -0.913243,3.17068 -0.242864,3.3619 0.746142,0.21283 3.308986,-0.41186 5.495536,-1.33955 1.046506,-0.444 1.353347,-0.49207 1.353347,-0.21203 0,0.54014 -4.8225,2.44846 -6.187485,2.44846 -0.656108,0 -1.388534,-0.19728 -1.686531,-0.45427 -0.709621,-0.61197 -1.403819,-0.57192 -1.968504,0.11357 -0.488873,0.59346 -1.199611,0.73114 -1.729921,0.33511 -0.187131,-0.13975 -1.239464,-0.17591 -2.634056,-0.0905 -2.810093,0.17205 -3.378213,-0.0644 -3.599237,-1.49828 -0.206988,-1.34282 -1.274956,-1.34109 -2.765467,0.004 l -1.13222,1.02211 0.243391,-1.17523 c 0.245472,-1.18526 -0.487643,-1.88763 -1.630113,-1.56174 -1.090689,0.31111 -2.044533,3.21236 -1.186349,3.60845 0.181398,0.0837 0.845768,-0.004 1.476378,-0.19452 1.286063,-0.38892 1.403543,-0.30459 0.580773,0.41686 -0.789621,0.69238 -1.446073,0.8421 -2.524415,0.57574 -0.689783,-0.17038 -1.149645,-0.13709 -1.787706,0.12942 -1.09817,0.45869 -2.450542,0.46022 -2.830517,0.003 z m -72.457561,-0.28222 c -0.33357,-0.28768 -0.51851,-0.64487 -0.41098,-0.79377 0.11084,-0.15346 0.45821,-0.0442 0.80202,0.25232 0.33358,0.28768 0.51852,0.64487 0.41098,0.79377 -0.11083,0.15346 -0.45821,0.0442 -0.80202,-0.25232 z m -1.93659,-2.47096 c -0.31602,-0.27254 -0.56571,-0.68111 -0.55488,-0.90794 0.0146,-0.3056 0.21388,-0.24711 0.76937,0.22582 0.41231,0.35103 0.66201,0.7596 0.55487,0.90794 -0.11208,0.1552 -0.4387,0.0593 -0.76936,-0.22582 z m 65.531065,-0.27175 c 0.156082,-0.3602 0.424739,-0.9141 0.597013,-1.23089 0.248676,-0.45731 0.05077,-0.65535 -0.960468,-0.96116 -0.954951,-0.28879 -1.273686,-0.57758 -1.273686,-1.15403 0,-0.95264 0.860571,-1.00039 1.551157,-0.0861 0.315418,0.41761 0.966569,0.735 1.676653,0.81726 2.130153,0.24675 2.431068,0.68466 1.007175,1.46567 -0.705384,0.38691 -1.41719,0.95112 -1.581786,1.2538 -0.428524,0.78803 -1.361255,0.69203 -1.016058,-0.10457 z m -31.010535,-0.98208 c -0.79373,-0.47232 -1.12926,-1.06444 -0.67637,-1.19363 0.23049,-0.0657 0.54605,0.0332 0.70125,0.21986 0.15521,0.18667 0.74829,0.3394 1.31797,0.3394 0.71895,0 0.98539,0.12079 0.87102,0.39488 -0.20414,0.48923 -1.54958,0.63477 -2.21387,0.23949 z m -36.20563,-0.95504 c -0.43713,-0.42309 -0.93003,-1.16283 -1.09532,-1.64388 -0.29983,-0.87258 -0.29879,-0.87324 0.44439,-0.27808 0.69945,0.56015 1.86104,2.49951 1.57592,2.63111 -0.0716,0.0331 -0.48785,-0.28607 -0.92499,-0.70915 z m 40.05713,-4.22203 c 0.0209,-3.47407 0.0639,-3.36981 -1.422,-3.44872 -1.34445,-0.0714 -1.3543,-0.0845 -1.49807,-1.99674 -0.20659,-2.74772 1.34387,-4.87992 2.9953,-4.11918 0.76097,0.35055 1.09649,8.82967 0.40094,10.13248 -0.46972,0.87982 -0.48477,0.86187 -0.47617,-0.56784 z m -0.46923,-5.46822 c 0.62791,-1.34607 -0.5174,-3.03304 -1.26067,-1.85688 -0.25844,0.40896 -0.44535,1.66703 -0.35712,2.40384 0.0815,0.68033 1.22575,0.29345 1.61779,-0.54696 z m -42.34401,6.19451 c -0.3436,-0.28763 -0.54569,-0.69647 -0.44907,-0.90854 0.14646,-0.32145 0.27961,-0.2986 0.80043,0.13737 0.34361,0.28763 0.54569,0.69647 0.44907,0.90854 -0.14645,0.32145 -0.2796,0.2986 -0.80043,-0.13737 z m 38.35757,-0.83986 c -0.0149,-0.37477 0.18762,-0.83472 0.45,-1.0221 0.37599,-0.26853 0.47133,-0.22041 0.45,0.22713 -0.0149,0.31231 -0.21737,0.77226 -0.45,1.02211 -0.36313,0.39002 -0.42677,0.3579 -0.45,-0.22714 z m 55.4516,-1.19245 c -0.225974,-0.47604 0.407244,-1.64463 1.052545,-1.94247 0.573435,-0.26466 3.493105,0.29507 3.493105,0.66967 0,0.14467 -0.643479,0.36656 -1.429951,0.4931 -0.786476,0.12654 -1.576496,0.44317 -1.755605,0.70363 -0.396821,0.57704 -1.103519,0.61657 -1.360094,0.0761 z m -95.51508,-0.45427 c -0.11947,-0.0937 -0.36444,-0.52809 -0.54435,-0.96533 -0.30709,-0.74628 -0.28049,-0.76797 0.43425,-0.35407 0.41876,0.24249 0.76138,0.67689 0.76138,0.96532 0,0.52961 -0.25243,0.66684 -0.65128,0.35408 z m 55.01912,-1.92879 c -0.15785,-0.29027 -0.10753,-0.93327 0.11183,-1.42888 0.45717,-1.03293 0.27642,-2.3775 -0.3196,-2.3775 -0.57294,0 -0.99466,0.85247 -1.01128,2.04422 -0.0156,1.1209 -0.5835,1.73084 -1.39573,1.49915 -0.32415,-0.0925 -0.40939,-0.58914 -0.22466,-1.30903 0.39111,-1.52413 -0.77371,-1.43281 -1.63657,0.12831 -0.74323,1.34467 -1.06667,1.50124 -1.94978,0.94383 -0.86648,-0.54692 -1.0223,-4.78861 -0.16695,-4.54463 0.32895,0.0938 0.41907,0.55269 0.23684,1.20587 -0.35369,1.26775 0.38812,2.04043 1.11391,1.16026 1.56656,-1.89977 2.02208,-2.2098 3.91638,-2.66551 1.08814,-0.26177 2.11109,-0.41472 2.27322,-0.33989 0.49977,0.23067 0.3282,5.92952 -0.18291,6.07531 -0.26274,0.0749 -0.60685,-0.10124 -0.7647,-0.39151 z m 13.8212,-0.44878 c -0.74189,-0.48886 -0.80658,-0.49221 -2.19537,-0.11357 -0.78703,0.21458 -1.65599,0.39014 -1.93102,0.39014 -0.27503,0 -0.65421,-0.66437 -0.84262,-1.47638 -0.18841,-0.81201 -0.49559,-1.47638 -0.6826,-1.47638 -0.18703,0 -0.7818,0.63882 -1.32171,1.41959 -0.75797,1.09612 -1.22053,1.43568 -2.02996,1.49017 -0.6784,0.0457 -1.25239,-0.10545 -1.62671,-0.42825 -0.53624,-0.46245 -0.48896,-0.48846 0.64858,-0.35668 1.49266,0.1729 2.26779,-0.1994 2.64424,-1.27006 0.19664,-0.5593 0.0341,-0.88587 -0.58273,-1.17055 -1.0558,-0.48729 -1.70967,-0.24001 -2.51161,0.94984 l -0.56771,0.84232 -0.0516,-1.20279 c -0.0426,-0.99274 0.15934,-1.30013 1.15635,-1.76029 1.31065,-0.60491 2.22901,-0.69745 3.06993,-0.30934 0.38887,0.17948 0.83153,0.1756 1.59914,-0.014 1.48255,-0.3662 3.67448,-0.20956 3.87435,0.27688 0.11226,0.2732 -0.1503,0.39749 -0.8397,0.39749 -0.55166,0 -1.23227,0.1977 -1.51246,0.43933 -0.60131,0.51857 -0.68281,2.21002 -0.11429,2.37219 0.75431,0.21516 3.41967,-1.19047 3.73681,-1.97068 0.39654,-0.97559 2.020012,-1.72649 2.877275,-1.33083 0.456373,0.21064 0.28818,0.4 -0.749818,0.84423 -1.137767,0.48692 -1.338157,0.75637 -1.338157,1.79933 0,0.67465 0.19221,1.28147 0.42714,1.34848 0.7362,0.21 3.9424,-1.08434 4.481761,-1.80927 0.283223,-0.38068 0.679257,-1.29922 0.880074,-2.04122 0.276191,-1.02049 0.574581,-1.3677 1.225078,-1.42552 1.08438,-0.0964 1.117909,0.43062 0.08599,1.35162 -0.703873,0.62821 -0.703873,0.72652 0,1.08549 0.42568,0.2171 0.773967,0.71886 0.773967,1.11503 0,0.57184 0.205399,0.7203 0.996555,0.7203 0.709744,0 1.080089,-0.19277 1.286801,-0.66979 0.159631,-0.36839 0.686772,-0.83542 1.171418,-1.03785 0.825935,-0.34499 0.901973,-0.32435 1.212933,0.32909 0.410241,0.86207 0.884114,0.88224 1.703804,0.0725 1.305527,-1.28963 1.350477,-1.30729 3.194784,-1.25477 1.584006,0.0451 1.920994,-0.0434 2.809129,-0.73818 1.138021,-0.89022 1.89623,-1.0179 1.89623,-0.31932 0,0.36795 -1.300861,1.44485 -3.214975,2.66148 -0.05649,0.0359 -0.690985,-0.0584 -1.409976,-0.20962 -1.661796,-0.34946 -2.234409,-0.0787 -1.904375,0.90056 0.303233,0.89971 1.479936,1.19181 2.417421,0.60008 0.569966,-0.35976 0.667023,-0.36729 0.667023,-0.0517 0,0.67035 -0.947451,1.53458 -1.682357,1.53458 -0.397353,0 -1.078165,-0.22997 -1.512909,-0.51105 -0.741329,-0.4793 -0.830536,-0.48636 -1.435507,-0.11357 -0.852121,0.52508 -1.627844,0.5032 -2.012928,-0.0568 -0.347347,-0.50511 -1.233829,-0.58893 -2.083061,-0.19698 -0.794582,0.36673 -1.995354,0.0867 -2.184872,-0.50953 -0.228101,-0.71763 -1.300394,-0.7965 -1.844744,-0.13569 -0.525798,0.63829 -3.354031,1.5236 -4.867309,1.5236 -0.561707,0 -1.365275,-0.22666 -1.785695,-0.5037 z m -57.11621,-0.85911 c -0.18476,-0.26868 -0.2252,-0.53961 -0.0899,-0.60207 0.13533,-0.0625 0.39723,0.10626 0.58199,0.37494 0.18476,0.26867 0.2252,0.53961 0.0899,0.60207 -0.13534,0.0625 -0.39723,-0.10626 -0.582,-0.37494 z m -1.9685,-2.04421 c -0.16728,-0.12493 -0.0696,-0.22714 0.21702,-0.22714 0.28664,0 0.52117,0.10221 0.52117,0.22714 0,0.12492 -0.0977,0.22713 -0.21702,0.22713 -0.11936,0 -0.35389,-0.10221 -0.52117,-0.22713 z m 74.595941,-4.6752 c 0.02362,-0.2646 0.140227,-0.31842 0.297323,-0.13723 0.142161,0.16396 0.12468,0.35987 -0.03883,0.43534 -0.163528,0.0755 -0.279842,-0.0587 -0.258474,-0.29811 z m -5.905512,-0.22714 c 0.02362,-0.2646 0.140227,-0.31842 0.297323,-0.13722 0.142161,0.16396 0.12468,0.35986 -0.03883,0.43534 -0.163528,0.0755 -0.279842,-0.0587 -0.258474,-0.29812 z m -28.582159,-2.01188 c 0,-0.19476 0.22145,-0.35411 0.49212,-0.35411 0.27067,0 0.49213,0.0962 0.49213,0.21373 0,0.11755 -0.22146,0.2769 -0.49213,0.35411 -0.27067,0.0772 -0.49212,-0.019 -0.49212,-0.21373 z m 25.816588,-1.66013 c 0.508662,-0.95486 1.659056,-1.64673 2.738062,-1.64673 0.536722,0 0.972908,0.15274 0.972908,0.3407 0,0.18739 -0.314124,0.3407 -0.698051,0.3407 -0.383927,0 -1.177087,0.35774 -1.762579,0.79498 -1.280477,0.95624 -1.699395,1.01331 -1.25034,0.17035 z"
         id="path4243"
         inkscape:connector-curvature="0" />
      <path
         style="fill:#666666"
         d="m -147.02151,746.80501 c -0.18111,-0.13525 0.15876,-0.40367 0.75525,-0.5965 0.80465,-0.26013 1.03092,-0.51922 0.87678,-1.00396 -0.24473,-0.76959 -0.10893,-0.81565 0.60061,-0.20374 0.28675,0.24728 0.37979,0.70992 0.20677,1.0281 -0.36154,0.66485 -1.92311,1.16166 -2.43941,0.7761 z m 58.129807,-0.18312 c -0.228898,-0.17094 -0.01865,-0.40581 0.528518,-0.59048 0.659247,-0.22248 0.976654,-0.70083 1.156565,-1.74301 0.198992,-1.15268 0.424051,-1.45183 1.139538,-1.51468 0.771772,-0.0678 0.810202,-0.0182 0.285994,0.36924 -0.927859,0.68573 0.304006,1.93966 1.741885,1.77309 0.711009,-0.0824 1.24655,0.0246 1.662736,0.33222 0.375689,0.27765 1.038017,0.42875 1.706811,0.38937 1.794843,-0.10566 1.622358,0.37823 -0.188784,0.52962 -0.919095,0.0768 -2.084188,0.22005 -2.589095,0.31828 -0.762141,0.14827 -0.8647,0.10107 -0.604045,-0.27797 0.194591,-0.28297 0.0249,-0.56728 -0.446275,-0.74777 -0.64436,-0.24681 -1.008204,-0.15881 -2.387008,0.57736 -1.150625,0.61435 -1.738007,0.78549 -2.00684,0.58473 z m -7.663411,-0.21828 c 0,-0.41776 2.306526,-1.39814 3.289375,-1.39814 0.729045,0 1.219936,-0.22244 1.629085,-0.73819 0.53002,-0.66811 0.624739,-0.69507 0.997805,-0.28392 0.594198,0.65485 0.564341,1.02211 -0.0831,1.02211 -0.310458,0 -1.510379,0.35773 -2.666482,0.79497 -2.05374,0.77672 -3.166683,0.9887 -3.166683,0.60317 z m -16.978346,-2.05165 c 1.08268,-0.39842 2.46568,-1.00208 3.07334,-1.34147 1.04246,-0.58224 1.10498,-0.58958 1.10728,-0.13004 0.003,0.57017 -2.51535,1.89788 -3.59963,1.89788 -0.4106,0 -1.15222,0.0671 -1.64802,0.14901 -0.49582,0.082 -0.0157,-0.17696 1.06703,-0.57538 z m 14.517716,-0.13348 c 0,-0.89502 -1.127776,-1.31617 -2.939076,-1.09756 -0.83147,0.10036 -1.06955,0.0523 -0.90183,-0.18201 0.13986,-0.1954 1.2582,-0.3719 2.895606,-0.45699 2.292101,-0.1191 2.816535,-0.0711 3.724478,0.34071 0.581201,0.26363 1.191378,0.73485 1.35594,1.04716 0.297431,0.56448 0.295788,0.56477 -0.276914,0.0504 -0.749577,-0.67326 -1.527175,-0.54012 -2.114503,0.36203 -0.639311,0.98201 -1.743701,0.94165 -1.743701,-0.0637 z m -18.225976,0.12051 c 0.28019,-0.24163 0.50944,-0.65048 0.50944,-0.90854 0,-0.27953 0.31969,-0.4692 0.79084,-0.4692 0.563,0 0.68655,0.11452 0.42884,0.39749 -0.1991,0.21861 -0.47006,0.62746 -0.60215,0.90854 -0.13208,0.28108 -0.55431,0.51105 -0.93828,0.51105 -0.53772,0 -0.58108,-0.10094 -0.18869,-0.43934 z m -8.34883,-0.1548 c 0,-0.53487 1.83338,-2.35861 2.37109,-2.35861 0.36503,0 0.54466,0.12776 0.39917,0.28391 -0.14548,0.15616 -0.54206,0.71832 -0.88127,1.24925 -0.33921,0.53093 -0.903,0.96532 -1.25287,0.96532 -0.34986,0 -0.63612,-0.0629 -0.63612,-0.13987 z m -23.12992,-0.9824 c 0,-0.57127 0.79439,-0.79651 1.17875,-0.33423 0.47145,0.56705 0.3532,0.7751 -0.44056,0.7751 -0.406,0 -0.73819,-0.19839 -0.73819,-0.44087 z m 8.40014,-0.26986 c 0.51337,-0.44273 0.87223,-0.49649 2.92153,-0.43772 1.60533,0.046 4.37667,-1.25863 5.40636,-2.54517 0.43019,-0.5375 1.14014,-0.99178 1.61607,-1.03408 1.2227,-0.10868 1.05398,0.24905 -0.67518,1.43157 -0.83819,0.57321 -1.68449,1.31937 -1.88065,1.65811 -0.2519,0.43499 -0.69609,0.62402 -1.51219,0.64353 -0.63554,0.0152 -1.39481,0.17191 -1.68726,0.34827 -0.2977,0.17953 -1.44497,0.32942 -2.60659,0.34055 -1.88014,0.018 -2.02861,-0.02 -1.58209,-0.40506 z m 48.292637,-1.71238 c -0.848691,-0.71822 -0.225182,-1.89246 1.004877,-1.89246 0.789331,0 0.91379,0.0995 0.639326,0.51105 -0.187441,0.28108 -0.503135,0.81769 -0.70154,1.19246 -0.352357,0.66558 -0.374257,0.66997 -0.942663,0.18895 z m -16.338447,-0.0754 c 0,-0.12492 0.33219,-0.22713 0.73819,-0.22713 0.406,0 0.73819,0.10221 0.73819,0.22713 0,0.12492 -0.33219,0.22714 -0.73819,0.22714 -0.406,0 -0.73819,-0.10222 -0.73819,-0.22714 z m -7.62795,-0.22713 c 0.16728,-0.12493 0.734,-0.22714 1.25936,-0.22714 0.52536,0 0.95521,0.10221 0.95521,0.22714 0,0.12492 -0.56672,0.22713 -1.25936,0.22713 -0.71426,0 -1.12771,-0.0983 -0.95521,-0.22713 z m -23.99628,-2.63335 c -0.16071,-0.0742 0.73876,-0.79631 1.99883,-1.60474 2.70055,-1.73261 3.37632,-1.59883 0.85375,0.16901 -0.95708,0.67074 -1.74016,1.29852 -1.74016,1.39506 0,0.20749 -0.69585,0.23293 -1.11242,0.0407 z m 13.41557,-2.137 -1.23032,-0.1409 1.14944,-0.2884 c 1.25665,-0.3153 1.7355,-0.23264 1.47773,0.25509 -0.11322,0.21423 -0.5604,0.27 -1.39685,0.17421 z m -5.88807,-0.96481 c 0.01,-0.15616 0.33393,-0.53945 0.72075,-0.85176 0.38682,-0.31231 0.71116,-0.81826 0.72075,-1.12432 0.0117,-0.37255 0.18078,-0.48109 0.51165,-0.32838 0.58613,0.27052 -0.75489,2.58837 -1.49753,2.58837 -0.26018,0 -0.46521,-0.12776 -0.45562,-0.28391 z m 4.65775,-5.6216 c -0.16728,-0.12492 -0.0696,-0.22713 0.21702,-0.22713 0.28665,0 0.52117,0.10221 0.52117,0.22713 0,0.12493 -0.0977,0.22714 -0.21701,0.22714 -0.11936,0 -0.35389,-0.10221 -0.52118,-0.22714 z m -38.03156,-6.58975 c -1.54594,-0.43391 -2.38469,-1.17335 -1.8142,-1.59939 0.17932,-0.13391 -0.0487,-0.4346 -0.50672,-0.66818 -0.95284,-0.48594 -0.81595,-0.96153 1.03832,-3.60731 0.64592,-0.92165 1.1744,-1.89867 1.1744,-2.17116 0,-0.27249 0.29153,-0.67945 0.64785,-0.90435 0.57809,-0.36489 0.71424,-0.272 1.2644,0.86265 0.33911,0.69936 0.97088,1.36308 1.40392,1.47493 0.65641,0.16954 0.69309,0.31162 0.22053,0.85423 -0.38149,0.43806 -0.42126,0.93838 -0.12162,1.53019 0.54519,1.07677 0.26993,1.45778 -1.11909,1.54911 -0.86719,0.057 -1.03532,0.19697 -0.90268,0.75147 0.0896,0.37477 0.49147,0.83472 0.89296,1.0221 0.6482,0.30254 0.83264,0.28295 1.64623,-0.17484 l 0.91625,-0.51555 0.33498,0.48712 c 0.33824,0.49186 -0.36269,0.87412 -1.61582,0.8812 -0.33833,0.002 -0.61515,0.0948 -0.61515,0.20631 0,0.41711 -1.39739,0.42766 -2.84456,0.0215 z m -27.18922,-1.86578 c 0.58401,-0.45684 1.91046,-1.18448 2.94768,-1.61697 1.03722,-0.43249 2.09957,-0.9626 2.36078,-1.17803 0.26122,-0.21543 0.60081,-0.29769 0.75465,-0.18281 0.15384,0.11489 -1.38634,1.01878 -3.42262,2.00866 -2.65366,1.28999 -3.40157,1.5645 -2.64049,0.96915 z m 3.13667,-4.3874 c -0.16028,-0.19277 -0.16288,-0.40982 -0.006,-0.48233 0.49658,-0.22918 1.80446,0.12234 1.80446,0.485 0,0.45337 -1.42127,0.45127 -1.79868,-0.003 z m 81.03097,0.15308 c 0,-0.44407 2.76439,-1.7002 3.36477,-1.52894 0.31473,0.0898 0.57223,0.46891 0.57223,0.84252 0,0.57139 -0.13225,0.64512 -0.83269,0.4642 -0.57607,-0.14879 -1.18275,-0.10921 -1.96851,0.12841 -0.70229,0.21238 -1.1358,0.24818 -1.1358,0.0938 z m -27.04106,-0.88147 c -0.6467,-1.07477 -0.68621,-1.92036 -0.0663,-1.41959 0.52172,0.42146 1.20994,2.27135 0.84502,2.27135 -0.1464,0 -0.49681,-0.38329 -0.7787,-0.85176 z m 47.08555,-1.23471 c -0.749641,-0.38828 -1.22908,-0.76759 -1.065419,-0.84291 0.33878,-0.15591 2.674469,1.02492 2.674469,1.3521 0,0.30567 -0.09207,0.27654 -1.60905,-0.50919 z m -105.18229,-0.50701 c 0,-0.17717 -0.13442,-0.4838 -0.29872,-0.6814 -0.21414,-0.25756 -0.005,-0.35928 0.73819,-0.35928 0.82403,0 1.03691,0.13989 1.03691,0.6814 0,0.45427 -0.24607,0.68141 -0.73819,0.68141 -0.40601,0 -0.73819,-0.14496 -0.73819,-0.32213 z m 5.8029,-2.90126 c 0.3225,-0.14884 1.64497,-0.28171 2.93884,-0.29525 2.92504,-0.0306 3.3201,-0.14353 4.63038,-1.32339 0.5802,-0.52246 1.14582,-0.82673 1.25694,-0.67617 0.26103,0.35366 -2.25521,2.34004 -3.16931,2.50194 -0.38466,0.0681 -1.23619,-0.009 -1.89229,-0.17079 -0.92813,-0.22926 -1.47207,-0.23596 -2.45059,-0.0302 -1.60766,0.33808 -2.05526,0.33599 -1.31397,-0.006 z m 11.42151,-4.13069 c 0,-0.0472 0.38755,-0.22604 0.86122,-0.39749 0.78054,-0.28252 0.79795,-0.27449 0.18581,0.0858 -0.64291,0.37835 -1.04703,0.49867 -1.04703,0.31173 z m 1.9685,-1.02311 c 0,-0.12493 0.22146,-0.2903 0.49213,-0.36751 0.27067,-0.0772 0.49212,-0.0382 0.49212,0.0868 0,0.12492 -0.22145,0.2903 -0.49212,0.36751 -0.27067,0.0772 -0.49213,0.0382 -0.49213,-0.0868 z m 2.28266,-1.50319 c 0.15581,-0.18738 0.47409,-0.3407 0.7073,-0.3407 0.23322,0 0.29656,0.15332 0.14077,0.3407 -0.15581,0.18739 -0.47409,0.3407 -0.7073,0.3407 -0.23322,0 -0.29656,-0.15331 -0.14077,-0.3407 z m -31.81022,-0.55443 c 0,-0.11755 0.21892,-0.27618 0.48649,-0.3525 0.27897,-0.0796 0.36147,0.0116 0.19341,0.21373 -0.32716,0.39349 -0.6799,0.46549 -0.6799,0.13877 z m 33.93908,-0.65748 c 0.32422,-0.29178 0.72446,-0.46821 0.88942,-0.39208 0.16496,0.0761 -0.10031,0.31486 -0.58949,0.53051 -0.85027,0.37482 -0.86347,0.36873 -0.29993,-0.13843 z m 28.43789,-0.0938 c -2.26895,-0.59886 -2.38838,-0.95897 -0.25265,-0.76183 1.90208,0.17558 3.25164,0.71767 2.56916,1.03199 -0.2994,0.13788 -1.14351,0.0394 -2.31651,-0.27016 z m -26.66619,-0.91865 c 0.1848,-0.22401 0.45998,-0.35007 0.6115,-0.28013 0.15152,0.0699 3.2e-4,0.2532 -0.33601,0.40728 -0.48604,0.22265 -0.54256,0.19656 -0.27549,-0.12715 z m 2.11396,-1.45393 c 0.62741,-0.55211 1.54534,-0.89206 1.54534,-0.57231 0,0.11293 -0.47514,0.40004 -1.05586,0.63802 -1.04853,0.42969 -1.05193,0.42923 -0.48948,-0.0657 z m 15.57366,-0.29518 c -0.75519,-0.38514 -0.77557,-0.45566 -0.13165,-0.45566 0.41899,0 0.90144,0.16794 1.07211,0.37321 0.46502,0.5593 0.0636,0.5945 -0.94046,0.0824 z m 36.99614,-1.05794 c -0.62501,-0.28847 -0.33992,-0.98767 0.40271,-0.98767 0.406,0 0.7348,0.12777 0.73065,0.28392 -0.0112,0.42293 -0.74909,0.8811 -1.13336,0.70375 z m -48.98511,-1.22654 c 0.54664,-0.48404 0.85886,-0.98092 0.69381,-1.10418 -0.16505,-0.12325 0.20439,-0.34699 0.82097,-0.49718 1.18444,-0.28852 2.69968,-0.99167 3.67579,-1.70577 0.32242,-0.23587 0.59924,-0.30894 0.61516,-0.16237 0.0159,0.14657 -0.5247,0.57017 -1.20138,0.94133 -0.67667,0.37116 -1.23031,0.83626 -1.23031,1.03356 0,0.19729 -0.98279,0.81231 -2.18397,1.3667 l -2.18397,1.00799 0.9939,-0.88008 z m -33.55303,0.0491 c 0.32422,-0.29178 0.72446,-0.46822 0.88942,-0.39208 0.16496,0.0761 -0.10031,0.31486 -0.58949,0.53051 -0.85027,0.37482 -0.86347,0.36873 -0.29993,-0.13843 z m 84.55012,-1.12108 c -0.35077,-0.61908 0.16941,-1.62694 0.85136,-1.64955 0.79133,-0.0262 0.84027,0.57681 0.11352,1.39884 -0.62782,0.71013 -0.69473,0.72751 -0.96488,0.25071 z m -81.07018,-0.97182 c 0.01,-0.18114 0.35441,-0.58488 0.76627,-0.89719 l 0.74883,-0.56784 -0.30897,0.68141 c -0.33894,0.7475 -1.23505,1.3297 -1.20613,0.78362 z m 65.94213,-0.98395 c -0.0232,-0.67566 1.927,-1.95745 2.97821,-1.95745 1.33043,0 1.17905,0.20138 -1.02439,1.36281 -1.45742,0.76819 -1.94278,0.91591 -1.95382,0.59464 z m -70.71791,-3.60418 c -1.37399,-0.40601 -3.93452,-1.35146 -5.69008,-2.101 -2.6315,-1.12353 -3.507,-1.69421 -4.98645,-3.2503 -1.17415,-1.23496 -1.78403,-2.21649 -1.76416,-2.83918 0.0167,-0.52344 -0.11885,-1.64266 -0.30122,-2.48716 -0.39798,-1.84296 0.26828,-2.76276 2.36347,-3.26282 1.36726,-0.32632 1.50092,-0.31868 2.17315,0.12428 0.94818,0.62479 1.2901,0.59967 3.21377,-0.23609 l 1.62978,-0.70808 -1.32319,0.14108 c -2.14497,0.22869 -2.02165,-0.21991 0.15145,-0.55092 1.57441,-0.23982 2.66837,-0.25052 5.19433,-0.0508 3.98407,0.31497 6.58083,1.08554 8.34784,2.47715 1.20796,0.95134 1.37474,1.33904 1.5655,3.63925 0.18476,2.22772 0.10966,2.57447 -0.55756,2.57447 -1.21719,0 -1.49539,0.44328 -0.57333,0.91352 0.79787,0.40691 0.79689,0.52003 -0.0178,2.05444 -0.70802,1.33346 -0.74539,1.65715 -0.20898,1.81015 0.93016,0.26533 -0.20289,1.35454 -1.40905,1.35454 -0.49996,0 -1.42914,0.25553 -2.06484,0.56784 -1.53104,0.75218 -2.74216,0.71625 -5.74259,-0.17035 z m 3.55453,-0.3777 c -0.38149,-0.28489 -1.74895,-0.33588 -1.74895,-0.0652 0,0.0999 0.26575,0.30436 0.59056,0.45427 0.68798,0.31754 1.66511,-0.0106 1.15839,-0.38905 z m -9.29611,-3.29798 c -0.35663,-0.42894 -1.80323,-0.47763 -1.80323,-0.0607 0,0.1624 0.26575,0.41792 0.59055,0.56783 0.74943,0.34589 1.61942,-0.0179 1.21268,-0.50714 z m 2.96208,-2.21564 c -0.1571,-0.18119 -0.27371,-0.12737 -0.29732,0.13723 -0.0214,0.23944 0.0949,0.37359 0.25847,0.29811 0.16353,-0.0755 0.18101,-0.27138 0.0388,-0.43534 z m 3.50193,-3.50868 c 0.081,-0.3724 -0.27193,-1.38321 -0.78417,-2.24624 l -0.93133,-1.56916 1.03023,-0.39044 c 0.99447,-0.37689 0.9993,-0.40475 0.13894,-0.80259 -0.8008,-0.37029 -0.95071,-0.37611 -1.47638,-0.0574 -0.3218,0.19513 -0.97263,0.4219 -1.4463,0.50393 -0.99067,0.17156 -1.03302,0.3871 -0.32219,1.63978 0.28355,0.4997 0.71107,1.4035 0.95005,2.00846 0.69368,1.75597 2.52974,2.34639 2.84115,0.91362 z m -10.42847,-2.22293 c 0.31187,-0.3751 -0.60394,-1.26699 -1.30097,-1.26699 -0.53314,0 -0.65589,1.20352 -0.14672,1.43852 0.53605,0.24741 1.16093,0.17338 1.44769,-0.17153 z m 15.3536,-1.41541 c 0.24728,-0.80081 -3.21907,-1.63619 -4.09011,-0.9857 -0.16843,0.12577 0.17451,0.54028 0.76208,0.92113 1.2535,0.81248 3.08611,0.84804 3.32803,0.0646 z m 102.398465,8.94579 c -0.6831,-0.42703 -0.910723,-0.45464 -1.593144,-0.19325 -0.82718,0.31685 -2.285089,0.20379 -2.285089,-0.17719 0,-0.12016 0.490669,-0.25113 1.090374,-0.29105 0.599705,-0.0399 1.582894,-0.41073 2.184867,-0.82402 l 1.094493,-0.75144 0.152732,0.96092 c 0.188843,1.18811 1.105748,1.37146 2.24372,0.44867 1.088731,-0.88286 1.599956,-0.88934 1.599956,-0.0203 0,0.46048 -0.244345,0.6814 -0.753632,0.6814 -0.414503,0 -0.881107,0.15332 -1.036904,0.34071 -0.408942,0.49185 -1.772599,0.40365 -2.697373,-0.17447 z m -7.112977,-0.0575 c 1.011358,-0.35314 1.576501,-0.29702 1.040413,0.10333 -0.178415,0.13323 -0.698868,0.23899 -1.156565,0.23502 -0.730635,-0.006 -0.716461,-0.0476 0.116152,-0.33835 z m 12.492864,-0.0367 c 0.355251,-0.0656 0.779715,-0.0575 0.943244,0.0179 0.163528,0.0755 -0.127136,0.12916 -0.645916,0.1193 -0.573302,-0.0109 -0.689911,-0.0647 -0.297328,-0.13723 z m -10.712303,-1.0373 c 0.0122,-0.15615 0.326407,-0.59055 0.698223,-0.96532 l 0.676019,-0.68141 0.03996,0.96533 c 0.02958,0.71484 -0.151575,0.96532 -0.698219,0.96532 -0.406004,0 -0.728199,-0.12776 -0.715994,-0.28392 z m 18.063435,-0.0729 c -0.852327,-0.39975 -0.272367,-0.59385 1.353706,-0.45306 1.534213,0.13284 1.788145,0.083 2.319735,-0.4555 l 0.596929,-0.60467 0.370689,0.63971 c 0.203878,0.35184 0.305142,0.66997 0.225034,0.70694 -0.381895,0.17626 -4.541821,0.31866 -4.866093,0.16658 z m 11.071418,-0.19856 c 0.743558,-0.17902 1.629385,-0.3906 1.968504,-0.47017 0.339114,-0.0796 0.09376,0.0675 -0.545226,0.32689 -0.638996,0.25937 -1.524823,0.47095 -1.968504,0.47018 -0.496634,-9.1e-4 -0.287067,-0.12651 0.545226,-0.3269 z m -3.549055,-1.0913 c 0.0096,-0.15616 0.333927,-0.53945 0.720748,-0.85176 0.673489,-0.54376 0.70405,-0.54695 0.720748,-0.0754 0.02254,0.6366 -0.461029,1.21104 -1.019464,1.21104 -0.241707,0 -0.431624,-0.12776 -0.422032,-0.28392 z m -38.895397,-0.83318 c 0,-0.39301 0.59735,-0.92712 1.03691,-0.92712 0.2417,0 0.43947,0.25553 0.43947,0.56784 0,0.35332 -0.27887,0.56784 -0.73819,0.56784 -0.406,0 -0.73819,-0.0938 -0.73819,-0.20856 z m 11.023624,-0.80875 c 0,-0.79363 0.457038,-0.96167 1.658411,-0.60975 0.47502,0.13916 0.351048,0.33019 -0.516732,0.7963 l -1.141679,0.61323 0,-0.79978 z m 16.141517,0.23111 c -0.347043,-0.35154 -0.973544,-0.57661 -1.605045,-0.57661 -1.306757,0 -1.001097,-0.54246 0.35813,-0.63558 0.543824,-0.0373 1.273327,0.0905 1.621122,0.28391 0.938864,0.52213 2.06437,0.42843 3.278962,-0.27295 0.594912,-0.34354 1.1966,-0.57222 1.337077,-0.50817 0.404956,0.18463 -0.689385,2.26846 -1.191299,2.26846 -0.24875,0 -0.452274,-0.11314 -0.452274,-0.25143 0,-0.13829 -0.332185,-0.1894 -0.738189,-0.11357 -0.406004,0.0758 -1.03093,0.19292 -1.388721,0.26021 -0.379217,0.0713 -0.887942,-0.11814 -1.219763,-0.45427 z m 12.988578,-1.17169 c -0.205187,-0.24679 -0.700999,-0.33029 -1.527948,-0.25733 -1.350615,0.11916 -1.67785,-0.15432 -0.445753,-0.37253 1.663243,-0.29458 3.158568,-0.15113 3.158568,0.30299 0,0.57559 -0.795591,0.79507 -1.184867,0.32687 z m -5.923893,-5.82149 c 0.586663,-0.88322 1.189198,-1.09834 2.304636,-0.82282 0.969208,0.2394 0.957047,0.26199 -0.420768,0.78203 -1.793317,0.67686 -2.313848,0.68813 -1.883868,0.0408 z m -53.586776,-1.68458 c -0.61571,-0.28417 -0.32951,-0.52998 0.61706,-0.52998 0.664,0 1.05281,-0.21959 1.30707,-0.73819 l 0.36193,-0.73819 0.40757,0.6814 c 0.5562,0.92988 0.0933,1.47638 -1.25042,1.47638 -0.61332,0 -1.26277,-0.0681 -1.44321,-0.15142 z m 28.304216,-0.0503 c -0.399651,-0.114 0.125413,-0.40969 1.588745,-0.89472 1.402569,-0.46488 2.388859,-1.00859 2.752766,-1.5175 0.311895,-0.43618 0.882097,-0.79305 1.267106,-0.79305 0.886802,0 0.918682,0.82568 0.04124,1.0676 -0.362338,0.0999 -0.860616,0.34477 -1.107284,0.54416 -0.847923,0.6854 -3.932613,1.7675 -4.542559,1.59351 z m 15.16691,-0.25252 c 0,-0.12492 0.345256,-0.22713 0.767234,-0.22713 0.421979,0 0.630364,0.10221 0.463081,0.22713 -0.167283,0.12493 -0.512539,0.22714 -0.767234,0.22714 -0.254695,0 -0.463081,-0.10221 -0.463081,-0.22714 z m -21.150916,-0.28392 c 0.01,-0.25844 3.44186,-1.53316 4.12817,-1.53316 0.15975,0 0.29046,0.20442 0.29046,0.45427 0,0.24985 -0.24189,0.45427 -0.53753,0.45427 -0.29565,0 -1.10061,0.20442 -1.78881,0.45427 -1.43751,0.52188 -2.10731,0.57642 -2.09229,0.17035 z m 17.236826,-0.2561 c -0.557396,-0.67664 -1.106698,-0.74697 -1.991422,-0.25495 -0.560487,0.3117 -1.968504,0.48154 -1.968504,0.23746 0,-0.0568 0.553642,-0.35877 1.230315,-0.67108 0.676673,-0.31231 1.230315,-0.77088 1.230315,-1.01903 0,-0.76743 0.924774,-0.76095 1.357343,0.01 0.48999,0.87275 1.386338,1.08289 1.835147,0.43024 0.177791,-0.25854 0.528765,-0.41145 0.779951,-0.33981 0.830167,0.23681 0.475207,0.97938 -0.762884,1.59596 l -1.219582,0.60736 -0.490679,-0.59566 z m -33.191456,-0.0496 c -0.33375,-0.40142 0.0111,-0.77317 0.71727,-0.77317 0.58974,0 0.60853,0.84024 0.0225,1.0074 -0.24231,0.0691 -0.57521,-0.0363 -0.73979,-0.23423 z m 3.64851,0.19215 c 0.004,-0.0937 0.22221,-0.32366 0.48459,-0.51105 0.38577,-0.2755 0.4785,-0.24291 0.4846,0.17035 0.004,0.28108 -0.21393,0.51106 -0.4846,0.51106 -0.27067,0 -0.48873,-0.0767 -0.48459,-0.17036 z m 0.46677,-1.87386 c -0.0525,-0.18739 -0.0561,-0.51957 -0.008,-0.73819 0.0499,-0.22625 -0.24373,-0.39749 -0.68151,-0.39749 -0.90466,0 -0.9442,-0.10601 -0.25969,-0.69633 0.2802,-0.24164 0.9315,-0.43934 1.44734,-0.43934 0.51584,0 1.07476,-0.10221 1.24204,-0.22714 0.5603,-0.41842 1.23032,-0.23287 1.23032,0.34071 0,0.33847 -0.2816,0.56783 -0.69718,0.56783 -0.38345,0 -1.03033,0.4344 -1.43752,0.96533 -0.40719,0.53093 -0.78334,0.81201 -0.83588,0.62462 z m 33.111452,-0.76352 c -1.592776,-0.364 -1.06718,-0.71286 1.074016,-0.71286 1.453204,0 2.090074,-0.14337 3.02687,-0.6814 1.63624,-0.93975 1.503647,-0.27641 -0.162033,0.81061 -1.402878,0.91553 -2.060359,1.01295 -3.938853,0.58365 z m -25.015902,-0.30097 c -0.50251,-0.16959 -1.19683,-0.25819 -1.54294,-0.19689 -0.76247,0.13504 -0.7894,0.007 -0.11984,-0.57063 0.57722,-0.49778 1.95148,-0.57549 2.84931,-0.16111 0.47569,0.21955 0.80641,0.21955 1.56812,0 0.53091,-0.15303 1.54536,-0.27823 2.25433,-0.27823 l 1.28904,0 -1.51664,0.65389 c -1.80312,0.77739 -3.52599,0.97665 -4.78138,0.55297 z m -16.38678,-0.16687 c -0.0314,-0.24001 -0.39461,-0.60852 -0.80714,-0.81891 -0.73316,-0.3739 -0.5403,-1.12962 0.28828,-1.12962 0.53458,0 1.11787,1.41401 0.81047,1.96475 -0.22085,0.39566 -0.23785,0.39472 -0.29161,-0.0162 z"
         id="path4241"
         inkscape:connector-curvature="0" />
    </g>
  </g>
</svg>
