<?xml version="1.0" encoding="UTF-8" standalone="no"?>
<!-- Created with Inkscape (http://www.inkscape.org/) -->

<svg
   xmlns:dc="http://purl.org/dc/elements/1.1/"
   xmlns:cc="http://creativecommons.org/ns#"
   xmlns:rdf="http://www.w3.org/1999/02/22-rdf-syntax-ns#"
   xmlns:svg="http://www.w3.org/2000/svg"
   xmlns="http://www.w3.org/2000/svg"
   xmlns:sodipodi="http://sodipodi.sourceforge.net/DTD/sodipodi-0.dtd"
   xmlns:inkscape="http://www.inkscape.org/namespaces/inkscape"
   width="50mm"
   height="25.086218mm"
   viewBox="0 0 177.16535 88.888173"
   id="svg4168"
   version="1.1"
   inkscape:version="0.91 r13725"
   sodipodi:docname="addominale_variante_completa.svg">
  <title
     id="title4208">Variante completa</title>
  <defs
     id="defs4170" />
  <sodipodi:namedview
     id="base"
     pagecolor="#ffffff"
     bordercolor="#666666"
     borderopacity="1.0"
     inkscape:pageopacity="0.0"
     inkscape:pageshadow="2"
     inkscape:zoom="0.35"
     inkscape:cx="839.21429"
     inkscape:cy="238.99997"
     inkscape:document-units="px"
     inkscape:current-layer="layer1"
     showgrid="false"
     fit-margin-top="0"
     fit-margin-left="0"
     fit-margin-right="0"
     fit-margin-bottom="0"
     inkscape:window-width="1366"
     inkscape:window-height="706"
     inkscape:window-x="-8"
     inkscape:window-y="-8"
     inkscape:window-maximized="1" />
  <metadata
     id="metadata4173">
    <rdf:RDF>
      <cc:Work
         rdf:about="">
        <dc:format>image/svg+xml</dc:format>
        <dc:type
           rdf:resource="http://purl.org/dc/dcmitype/StillImage" />
        <dc:title>Variante completa</dc:title>
      </cc:Work>
    </rdf:RDF>
  </metadata>
  <g
     inkscape:label="Livello 1"
     inkscape:groupmode="layer"
     id="layer1"
     transform="translate(464.21429,-682.474)">
    <g
       id="g4198">
      <path
         style="fill:#c7c7c7"
         d="m -454.59349,765.85963 c -0.80714,-0.50116 0.32787,-4.68531 1.98798,-7.32859 0.86717,-1.38074 2.48814,-4.76984 3.60215,-7.53132 2.98803,-7.40692 3.38663,-8.31511 4.8478,-11.04541 1.15031,-2.14941 1.53861,-2.5041 2.82946,-2.58453 1.31518,-0.082 1.43598,-0.20799 0.99858,-1.0419 -1.74345,-3.32392 -2.19486,-5.45646 -2.16897,-10.24661 0.03,-5.54067 0.92764,-8.97153 2.57248,-9.83168 2.69427,-1.40894 8.41555,0.38166 12.69758,3.97399 4.07263,3.41666 10.56653,11.26115 10.66992,12.88903 0.0943,1.48516 1.29927,0.11223 3.32445,-3.78795 1.08559,-2.0907 2.18026,-4.55439 2.4326,-5.47489 0.25233,-0.92049 0.80451,-2.59412 1.22706,-3.71917 0.42255,-1.12505 1.4838,-4.13758 2.35833,-6.69451 0.87453,-2.55692 2.09153,-6.0297 2.70444,-7.71727 1.52804,-4.20725 2.22931,-6.99173 1.73286,-6.88047 -1.20878,0.27089 -4.72926,4.07882 -6.79089,7.34536 -2.61919,4.14999 -8.39866,11.43015 -9.37184,11.80533 -0.34694,0.13376 -1.19306,0.19178 -1.88026,0.12895 -1.4402,-0.13168 -1.71538,-1.29738 -0.48786,-2.06666 1.40223,-0.87876 5.52707,-5.92178 8.22314,-10.05358 2.86765,-4.39475 10.14869,-11.76621 12.6162,-12.77288 1.78849,-0.72965 3.7792,-0.88507 4.37566,-0.34161 0.23271,0.21203 -0.42973,1.86879 -1.4721,3.68169 -2.33094,4.05401 -3.92454,7.92096 -4.57706,11.10643 -0.27235,1.3296 -1.00493,3.67268 -1.62795,5.20684 -0.62301,1.53416 -1.66195,4.463 -2.30874,6.50855 -0.64679,2.04554 -1.52596,4.55598 -1.95371,5.57875 -0.42775,1.02278 -1.12322,2.6964 -1.54549,3.71917 -1.17568,2.84758 -2.41603,4.94788 -3.2193,5.45128 -0.7167,0.44915 -0.74996,0.45062 -2.38313,0.10553 l -1.65628,-0.34997 0.52753,1.10024 c 0.62985,1.31363 -0.74988,6.40146 -2.02135,7.45386 -1.42403,1.17865 -4.37322,2.4787 -6.1317,2.70293 -2.1642,0.27597 -4.89643,-0.15249 -6.88005,-1.07893 -1.66285,-0.77661 -5.9838,-4.03535 -6.77662,-5.11073 -0.63161,-0.8567 -1.89597,-0.91806 -1.91601,-0.093 -0.008,0.3324 -0.69946,1.73407 -1.53641,3.11481 -0.83695,1.38074 -2.06485,3.93302 -2.72866,5.67173 -0.66381,1.73872 -1.7407,4.33284 -2.39308,5.76472 -0.65238,1.43188 -1.37244,3.02182 -1.60014,3.53321 -0.2277,0.51139 -0.94195,1.82359 -1.58723,2.91601 -0.64528,1.09242 -1.06019,2.26396 -0.92203,2.60342 0.23225,0.57066 0.5372,0.47697 4.044,-1.24238 4.5332,-2.22259 11.16793,-5.84459 12.60358,-6.88047 0.567,-0.40911 1.89467,-1.24592 2.95038,-1.85958 1.05572,-0.61367 2.87125,-1.72245 4.03452,-2.46395 1.6634,-1.06032 2.45055,-1.3482 3.68631,-1.3482 1.38542,0 1.52819,0.0935 1.20694,0.79032 -0.61156,1.32656 -9.8191,6.94831 -21.09148,12.87763 -6.16957,3.24521 -9.82052,4.38888 -11.22561,3.51644 z m 101.67168,-20.2992 c -1.36108,-3.4463 -1.34922,-3.43166 -2.69747,-3.32938 -0.70465,0.0535 -3.73965,0.32133 -6.74444,0.59527 -5.15573,0.47003 -6.16614,0.49676 -17.95067,0.47493 -14.47787,-0.0268 -17.90833,0.15199 -24.7027,1.28757 -5.07561,0.8483 -5.78158,0.88677 -6.37368,0.34729 -0.71353,-0.65012 0.73166,-1.21662 5.08536,-1.99343 6.72481,-1.19986 9.91141,-1.37342 25.99102,-1.41559 12.50655,-0.0328 14.4338,-0.0802 17.56044,-0.4319 1.93165,-0.21728 4.35592,-0.55625 5.38728,-0.75325 l 1.87518,-0.3582 -0.90351,-3.13908 c -0.49694,-1.7265 -1.44341,-5.48216 -2.10326,-8.34592 -0.65985,-2.86377 -1.86209,-6.67127 -2.67163,-8.46112 -0.80954,-1.78985 -1.64623,-4.35805 -1.8593,-5.7071 -0.44287,-2.80407 -0.015,-3.07481 4.20188,-2.65863 1.30191,0.12849 2.54055,0.1923 2.75252,0.14179 0.38713,-0.0922 -1.59725,-6.94008 -2.46906,-8.52039 -0.35216,-0.63836 -0.16937,-0.90356 0.74777,-1.08492 1.02283,-0.20226 1.74155,-0.14326 4.56683,0.37486 1.84412,0.33818 4.24497,0.80428 5.33521,1.03577 1.09024,0.23149 4.52956,0.63882 7.64293,0.90518 5.82817,0.49863 10.04804,0.53412 16.52037,0.13894 2.67447,-0.1633 2.73647,-0.18866 2.96361,-1.21265 0.35092,-1.58198 4.06056,-1.56341 4.06056,0.0203 0,0.40137 0.57872,0.65616 1.99124,0.87668 3.48371,0.54387 3.72661,0.24164 2.7323,-3.39972 -1.93929,-7.10206 -1.95252,-7.29584 -0.50702,-7.42801 2.45305,-0.22428 2.17692,-0.92551 3.89622,9.89458 0.50051,3.1499 0.1113,3.41245 -4.39385,2.96395 -2.6928,-0.26808 -2.93511,-0.26457 -3.64829,0.0529 -0.42015,0.18705 -0.9804,2.5928 -1.24501,5.34611 -0.2646,2.75331 -0.64211,5.1943 -0.83891,5.42442 -0.4511,0.5275 -2.151,0.5317 -5.20908,0.0129 -1.55438,-0.26371 -3.91662,-0.43162 -6.75444,-0.48011 -3.90998,-0.0668 -16.88704,-1.12064 -19.31851,-1.56881 -1.55691,-0.28696 -1.72216,0.0749 -1.03834,2.27343 1.49794,4.81608 4.24968,17.55745 4.27259,19.78338 0.009,0.84422 -0.31174,1.31151 -0.93356,1.36141 -1.43814,0.11542 -1.62457,-0.31921 -2.93005,-6.8309 -0.6664,-3.32401 -1.56326,-7.46623 -1.99302,-9.20494 -0.42976,-1.73872 -0.96706,-3.95627 -1.19399,-4.92791 -0.74758,-3.20082 -0.94416,-3.40253 -3.76476,-3.86303 -1.39473,-0.22771 -2.81846,-0.41401 -3.16384,-0.41401 -0.69086,0 -0.29255,1.10409 1.91195,5.29982 0.80607,1.53415 1.83111,4.42116 2.27787,6.41557 1.38343,6.17602 3.80607,13.62243 5.53419,17.01032 1.16597,2.28581 0.99828,4.74682 -0.32342,4.74682 -0.76378,0 -1.22485,-0.36733 -1.57551,-1.25522 z m 31.77521,-34.67764 c 0.24933,-2.51254 0.1381,-4.45704 -0.2583,-4.51541 -0.38291,-0.0564 -1.98379,0.0257 -3.5575,0.18233 -4.65035,0.46297 -9.60554,0.35984 -16.63078,-0.34612 -3.45349,-0.34703 -7.7565,-0.93229 -9.56225,-1.30056 -1.80574,-0.36828 -3.42687,-0.63536 -3.60249,-0.59351 -0.17563,0.0418 0.26268,1.90324 0.97403,4.13643 1.00078,3.14187 1.58903,4.15757 2.60048,4.49015 0.71891,0.23639 3.41437,0.64124 5.9899,0.89967 2.57553,0.25843 5.73641,0.58404 7.02418,0.72358 1.28776,0.13953 4.27304,0.30709 6.63394,0.37236 2.36091,0.0653 5.34618,0.22576 6.63395,0.35668 1.28776,0.13092 2.56089,0.18612 2.82917,0.12266 0.26827,-0.0634 0.68483,-2.10117 0.92567,-4.52826 z"
         id="path4206"
         inkscape:connector-curvature="0" />
      <path
         style="fill:#b3b3b3"
         d="m -453.84721,763.52443 c 0.42888,-2.16501 3.33668,-7.39446 4.22415,-7.59681 0.56116,-0.12795 -0.16568,2.21418 -1.587,5.11386 -0.68803,1.40367 -0.89538,2.48817 -0.49444,2.58607 1.46921,0.35875 16.13554,-7.5472 25.81323,-13.91475 0.60941,-0.40097 1.58406,-0.76684 2.16588,-0.81305 2.9293,-0.23265 -1.49025,2.86223 -15.19519,10.64074 -5.00142,2.83865 -12.40499,6.14946 -13.89886,6.21544 -1.41117,0.0623 -1.46082,-0.0455 -1.02777,-2.2315 z m 4.48547,-9.15946 c -0.0131,-0.19466 0.48509,-1.49172 1.10698,-2.88236 0.6219,-1.39064 1.70586,-4.0347 2.4088,-5.87569 0.70295,-1.84099 1.77457,-4.30611 2.38138,-5.47805 0.60681,-1.17194 1.10329,-2.19704 1.10329,-2.27799 0,-0.081 0.3512,-0.1472 0.78046,-0.1472 1.2615,0 0.89919,1.99468 -0.76118,4.19066 -0.8479,1.12142 -2.42835,4.3267 -3.51211,7.12285 -1.08376,2.79613 -2.31099,5.22289 -2.72718,5.39279 -0.67844,0.27696 -0.75916,0.2723 -0.78044,-0.045 z m 97.5959,-8.40163 c 0.0375,-0.21663 0.22239,-0.26069 0.47153,-0.11235 0.22545,0.13424 0.19773,0.29463 -0.0616,0.35642 -0.25935,0.0618 -0.4438,-0.048 -0.40991,-0.24407 z m 0.11945,-1.19323 c 0,-0.35797 0.16062,-0.50442 0.35693,-0.32543 0.19631,0.17898 0.19631,0.47187 0,0.65085 -0.19631,0.17899 -0.35693,0.0325 -0.35693,-0.32542 z m -77.41492,-0.22059 c -3.27629,-0.83791 -7.89139,-4.48683 -10.12397,-8.00449 -2.5225,-3.97449 -3.32151,-8.51972 -2.47688,-14.08995 0.70172,-4.62772 1.46974,-6.1603 3.21596,-6.41745 1.41301,-0.20807 3.90615,0.30107 5.73303,1.1708 6.03061,2.87101 14.62088,12.18631 15.74804,17.0772 0.66241,2.87433 -0.84463,7.42931 -2.89465,8.74893 -2.83243,1.82327 -5.97373,2.34046 -9.20153,1.51496 z m 18.31878,0.22443 c -0.75083,-0.28947 0.88851,-0.85559 4.54463,-1.56941 5.72674,-1.1181 12.1901,-1.49309 24.32258,-1.41115 3.43404,0.0232 7.64855,0.0488 9.36557,0.0569 4.71537,0.0223 11.7448,-0.55107 14.93286,-1.21801 l 2.84261,-0.59468 -0.42657,-2.98007 -0.42658,-2.98007 1.01859,2.41746 c 0.56022,1.32961 1.40773,2.97452 1.88336,3.65538 0.93797,1.34268 0.58044,1.8647 -1.16766,1.70487 -0.61383,-0.0561 -1.55059,-0.0187 -2.08169,0.0832 -0.5311,0.10186 -3.49612,0.40095 -6.58894,0.66465 -5.20663,0.44393 -6.53671,0.4777 -17.95067,0.45571 -14.15987,-0.0273 -18.31816,0.18347 -24.50028,1.24171 -4.03667,0.69098 -4.99886,0.76998 -5.76781,0.47353 z m 58.33143,-1.39853 c 0.009,-0.40911 0.16849,-0.55458 0.35517,-0.32326 0.18668,0.23131 0.1796,0.56604 -0.0158,0.74383 -0.19534,0.1778 -0.34809,-0.0115 -0.33943,-0.42057 z m 3.82873,-8.0892 c 0,-0.25569 0.17715,-0.36029 0.39366,-0.23245 0.21651,0.12785 0.21651,0.33705 0,0.4649 -0.21651,0.12785 -0.39366,0.0232 -0.39366,-0.23245 z m -65.89776,-1.42032 c -0.23736,-0.0915 -0.10047,-0.58342 0.30419,-1.09314 0.40465,-0.50973 1.07686,-1.59622 1.49379,-2.41444 0.41693,-0.81822 1.08101,-1.86423 1.47574,-2.32448 0.65013,-0.75804 0.6981,-0.70553 0.50963,0.55787 -0.25362,1.70007 -1.9085,4.82607 -2.74297,5.18134 -0.33485,0.14258 -0.80303,0.18435 -1.04038,0.0928 z m 57.96989,-0.80021 c 0,-0.31286 0.13466,-0.56885 0.29925,-0.56885 0.66229,0 1.00527,0.94561 0.37655,1.03819 -0.37169,0.0547 -0.6758,-0.15647 -0.6758,-0.46934 z m 5.52487,-8.30162 c 0.0375,-0.21663 0.22238,-0.2607 0.47152,-0.11235 0.22546,0.13424 0.19773,0.29463 -0.0616,0.35642 -0.25934,0.0618 -0.4438,-0.048 -0.40991,-0.24407 z m -58.17388,-2.33894 c 0.19628,-1.19266 0.68605,-2.3642 1.08838,-2.60342 1.1292,-0.67139 0.91768,1.07858 -0.37449,3.09827 l -1.07077,1.67363 0.35688,-2.16848 z m 50.76259,1.9145 c -0.3362,-0.12962 -0.4005,-0.28588 -0.14289,-0.34726 0.69849,-0.16643 1.46006,0.0783 1.0828,0.34801 -0.26436,0.18896 -0.44819,0.18882 -0.93991,-7.5e-4 z m -49.1723,-6.90543 c 0.23086,-0.97163 0.90302,-2.81262 1.49368,-4.09108 0.59066,-1.27847 1.31381,-3.35928 1.607,-4.62402 0.55744,-2.40463 1.71105,-3.99649 1.84357,-2.54395 0.0369,0.40439 -0.28825,1.61777 -0.72255,2.69639 -1.90672,4.73555 -3.13449,8.15268 -3.17676,8.8416 -0.0251,0.40911 -0.36492,0.9112 -0.75517,1.11575 -0.4536,0.23777 -0.55812,-0.26529 -0.28977,-1.39469 z m -13.22071,0.42885 c -0.91661,-0.2184 -0.51391,-1.25449 0.96719,-2.48851 1.76514,-1.47067 5.50624,-6.16666 8.35897,-10.49254 1.1466,-1.73871 3.27281,-4.24915 4.72491,-5.57875 1.45209,-1.32961 3.15728,-3.02507 3.7893,-3.7677 1.1622,-1.36558 3.75631,-2.83383 5.00682,-2.83383 1.46238,0 1.61802,0.67703 0.50842,2.21171 -0.63643,0.88024 -1.55883,2.33228 -2.04978,3.22675 -0.49095,0.89447 -1.14442,1.58924 -1.45215,1.54392 -0.30774,-0.0453 -0.16079,-0.84175 0.32654,-1.76985 0.59192,-1.12728 0.62185,-1.66648 0.0901,-1.62426 -0.43775,0.0348 -1.09178,0.35041 -1.4534,0.70142 -0.36161,0.35102 -1.85192,1.68423 -3.31179,2.96269 -1.45988,1.27847 -3.19258,3.1613 -3.85044,4.18407 -0.65787,1.02277 -1.91807,2.98928 -2.80044,4.37002 -2.41889,3.7851 -6.96674,9.26931 -7.78682,9.39008 -0.31262,0.046 -0.79298,0.0302 -1.06748,-0.0352 z m 97.45396,-0.83309 c -1.47919,-0.27723 -3.55794,-0.42833 -6.54917,-0.47604 -4.37144,-0.0697 -7.75583,-0.34174 -17.15667,-1.37892 -2.73345,-0.30158 -5.14858,-0.50575 -5.36697,-0.45371 -0.21839,0.052 -1.14282,-0.17401 -2.05428,-0.50232 -0.91147,-0.3283 -3.14984,-0.76211 -4.97418,-0.96402 -2.69957,-0.29878 -3.31697,-0.4603 -3.31697,-0.86781 0,-0.6186 1.29146,-0.746 4.11641,-0.40609 1.19089,0.1433 2.69129,0.23642 3.33423,0.20694 0.67039,-0.0307 1.91058,0.24985 2.90776,0.65788 1.34404,0.54995 2.80191,0.8179 6.42158,1.18026 2.57553,0.25783 5.91201,0.59517 7.41441,0.74965 1.50239,0.15447 5.00254,0.35779 7.77811,0.4518 2.77556,0.094 5.88618,0.30204 6.91249,0.46226 1.02631,0.16023 2.14045,0.22077 2.47587,0.13454 0.33543,-0.0862 0.85824,-2.2693 1.16181,-4.85126 0.62464,-5.31279 0.77707,-5.18002 -5.31103,-4.62604 -1.8225,0.16584 -4.59112,0.30153 -6.15249,0.30153 -3.95562,0 -14.34893,-1.08571 -19.27542,-2.01356 -2.26559,-0.4267 -4.60784,-0.77582 -5.205,-0.77582 -1.23639,0 -2.29016,-0.78871 -1.61438,-1.20831 0.69363,-0.43069 1.46086,-0.35363 7.05523,0.70863 7.0255,1.334 15.49766,2.05872 21.15014,1.80922 9.78177,-0.43176 9.33775,-0.35956 9.60117,-1.56114 0.28177,-1.28522 1.89872,-1.35977 2.49603,-0.11508 0.32079,0.66847 0.82725,0.87377 2.84619,1.15371 2.22085,0.30794 2.57205,0.31288 3.66862,0.0516 1.09657,-0.26127 1.26192,-0.22637 1.72723,0.36461 0.28302,0.35945 0.29711,0.78857 0.0313,0.95361 -0.4768,0.29605 -0.70509,0.29467 -5.67003,-0.0344 -3.1183,-0.20667 -3.50544,0.36856 -3.96801,5.89571 -0.4739,5.66273 -0.65453,5.87029 -4.484,5.15257 z m -31.49037,-6.47622 c 0,-0.2557 0.17715,-0.3603 0.39366,-0.23245 0.2165,0.12785 0.2165,0.33705 0,0.4649 -0.21651,0.12784 -0.39366,0.0232 -0.39366,-0.23245 z m 42.50962,-13.59822 c -0.91138,-1.08576 -0.58156,-3.17645 0.48779,-3.09198 0.66931,0.0529 1.04572,0.64154 1.19896,1.87508 0.21694,1.74619 -0.69202,2.40195 -1.68675,1.2169 z"
         id="path4204"
         inkscape:connector-curvature="0" />
      <path
         style="fill:#909090"
         d="m -454.0563,764.9931 c 0.0134,-0.67975 0.6011,-0.95464 2.372,-1.10953 1.86749,-0.16335 13.71795,-6.08729 18.70534,-9.35064 4.33914,-2.83919 8.35528,-5.31104 8.80206,-5.41749 1.17999,-0.28115 1.35621,0.51249 0.24001,1.08094 -0.66675,0.33956 -2.4196,1.41235 -3.89521,2.38398 -2.9479,1.94108 -10.92835,6.67913 -12.12992,7.20162 -0.41701,0.18134 -2.06267,1.041 -3.65702,1.91035 -6.33486,3.45423 -10.46614,4.76074 -10.43726,3.30077 z m 25.29693,-20.53395 c -2.48405,-0.63864 -7.56828,-4.45789 -9.7356,-7.31334 -2.20129,-2.9002 -2.71262,-5.35135 -2.59911,-12.45922 0.11673,-7.3098 1.06455,-8.9771 4.80286,-8.4487 4.38176,0.61936 10.922,5.81795 16.71184,13.28362 1.59855,2.06123 1.79723,2.87204 1.75435,7.1594 l -0.0484,4.83492 -2.21118,1.3421 c -2.1673,1.31547 -4.38856,2.09814 -5.95465,2.09814 -0.43303,0 -1.6571,-0.22362 -2.72015,-0.49692 z m 18.39711,0.0347 c 0,-0.40026 8.16927,-1.86673 11.87109,-2.13099 4.36692,-0.31174 8.41988,-0.40118 16.61585,-0.36667 12.46765,0.0525 13.97808,0.0214 18.47536,-0.38005 2.8233,-0.25203 5.41708,-0.65631 7.16008,-1.11599 2.96229,-0.78125 3.63196,-0.70156 3.63196,0.43221 0,0.65472 -0.0806,0.66659 -10.36281,1.52695 -4.75018,0.39746 -6.54155,0.44106 -17.56045,0.42743 -14.21882,-0.0176 -19.07098,0.22676 -24.64713,1.24123 -3.8394,0.6985 -5.18395,0.7934 -5.18395,0.36588 z m -33.01673,-3.76838 c 0.24481,-0.38354 0.71106,-1.03207 1.03612,-1.44118 l 0.59102,-0.74383 0.0855,0.86005 c 0.10233,1.02928 -0.64596,2.0223 -1.52391,2.0223 -0.34861,0 -0.43354,-0.3138 -0.18874,-0.69734 z m 22.39637,-23.18348 c -0.52058,-0.32324 1.5147,-2.40084 2.84181,-2.9009 1.11629,-0.42062 0.93212,0.63583 -0.33442,1.91834 -1.20312,1.2183 -1.76998,1.44043 -2.50739,0.98256 z m 97.62831,-0.70151 c -1.45988,-0.27361 -3.55285,-0.42506 -6.53057,-0.47256 -6.50659,-0.10379 -20.04491,-1.49653 -25.30035,-2.60276 -1.63214,-0.34355 -3.8272,-0.70252 -4.8779,-0.7977 -1.13263,-0.1026 -1.91036,-0.32187 -1.91036,-0.5386 0,-0.52189 1.28351,-0.64084 3.29415,-0.30529 0.95478,0.15934 2.32554,0.28971 3.04613,0.28971 0.7206,0 1.99645,0.27714 2.83523,0.61587 1.38175,0.55799 8.52637,1.61564 10.91401,1.61564 0.44691,0 2.34354,0.16552 4.21476,0.36783 1.87121,0.20231 4.81223,0.36967 6.53561,0.37192 1.72338,0.002 4.47623,0.17556 6.11745,0.38515 2.32936,0.29747 3.22578,0.33327 4.08588,0.16319 0.91376,-0.18069 1.10185,-0.10477 1.10185,0.44477 0,0.85026 -0.85787,0.96287 -3.52589,0.46283 z m -93.19005,-3.9778 c 0.0374,-0.21663 0.22238,-0.26069 0.47153,-0.11235 0.22545,0.13424 0.19772,0.29463 -0.0616,0.35642 -0.25934,0.0618 -0.4438,-0.048 -0.40991,-0.24407 z m 1.22228,-1.56515 c 0.61764,-0.802 1.06142,-0.95328 1.04554,-0.35642 -0.007,0.24717 -0.35729,0.57492 -0.77937,0.72834 -0.53992,0.19624 -0.61883,0.086 -0.26617,-0.37192 z m 79.76312,-4.9258 c -0.20977,-0.05 -2.70515,-0.2917 -5.54528,-0.53715 -2.84013,-0.24545 -6.85373,-0.78031 -8.91912,-1.18856 -2.06539,-0.40826 -4.54547,-0.83894 -5.5113,-0.95706 -1.72314,-0.21075 -2.57523,-1.13148 -1.04712,-1.13148 0.3899,0 2.58496,0.36383 4.8779,0.8085 4.86303,0.9431 7.33332,1.26656 13.61878,1.78324 4.66406,0.38341 6.0715,0.37415 14.74459,-0.097 3.66878,-0.19929 4.4146,-0.43309 4.18758,-1.31271 -0.11328,-0.43891 0.0396,-0.85652 0.33973,-0.92804 0.30014,-0.0715 0.55108,0.19774 0.55765,0.59832 0.006,0.40059 0.26998,0.82126 0.58535,0.93484 0.81157,0.29227 5.40479,0.82943 6.59843,0.77165 0.58536,-0.0283 1.10542,0.1733 1.25576,0.48686 0.23356,0.48714 0.0823,0.5248 -1.68354,0.4192 -1.06708,-0.0638 -2.47796,-0.16519 -3.13528,-0.22529 -0.68693,-0.0628 -1.77978,0.0534 -2.56999,0.27331 -1.2865,0.358 -1.46678,0.36276 -2.80595,0.074 -1.33349,-0.28754 -1.68218,-0.28714 -5.11205,0.006 -3.44893,0.29453 -9.5834,0.4248 -10.43614,0.22163 z m -70.90098,-6.66842 c 0,-0.29511 2.65623,-2.4596 3.20321,-2.61022 0.32872,-0.0905 -0.055,0.44003 -0.85281,1.179 -1.26208,1.16906 -2.3504,1.83177 -2.3504,1.43122 z m 94.17231,-4.15969 c -0.28848,-0.73606 -0.17455,-1.3242 0.27737,-1.43188 0.50228,-0.11967 0.76694,0.31139 0.76694,1.24915 0,0.78753 -0.12482,1.43188 -0.27738,1.43188 -0.15254,0 -0.49767,-0.56212 -0.76693,-1.24915 z m -89.88343,-0.23852 c 0.65266,-0.9401 3.14813,-2.2315 4.31208,-2.2315 1.0079,0 0.97801,0.95779 -0.05,1.60202 -0.44802,0.28077 -1.72098,0.72555 -2.82881,0.98839 l -2.01424,0.4779 0.58095,-0.83681 z"
         id="path4202"
         inkscape:connector-curvature="0" />
      <path
         style="fill:#5f5f5f"
         d="m -453.28779,765.07029 c 0,-0.39245 0.99131,-0.77454 2.00951,-0.77454 0.76617,0 0.88522,0.1139 0.42731,0.40883 -0.65958,0.42483 -2.43682,0.69156 -2.43682,0.36571 z m 25.08716,-20.7366 c -2.90916,-0.73783 -8.08794,-5.02308 -10.70923,-8.86151 -2.29036,-3.35383 -1.94581,-17.71479 0.45061,-18.78169 3.48344,-1.55084 10.99139,3.67086 17.64674,12.27314 1.06825,1.38074 2.14838,3.47399 2.4003,4.65165 0.39682,1.85504 0.28473,2.17548 -0.83871,2.39764 -1.20848,0.23896 -1.20806,0.27977 0.006,0.59947 1.16287,0.30616 1.22462,0.62028 0.57434,2.92155 -0.67804,2.39953 -0.9161,2.66707 -3.42955,3.8542 -1.48551,0.70162 -3.07238,1.3012 -3.52638,1.33239 -0.45399,0.0312 -1.61244,-0.14288 -2.57433,-0.38684 z m 5.20527,-1.391 c 0.17955,-0.43319 -0.0758,-0.59004 -0.96071,-0.59004 -1.32645,0 -2.47606,0.78774 -1.6272,1.11499 0.94588,0.36466 2.33607,0.0827 2.58791,-0.52495 z m 0.0533,-3.79783 c -0.15003,-0.98196 -1.00351,-1.6835 -2.1596,-1.77515 -1.0855,-0.0861 -1.03495,0.15639 0.38948,1.86813 0.59093,0.71011 1.88246,0.64227 1.77012,-0.093 z m 64.87086,2.41235 c 0,-0.37265 2.31097,-1.06415 3.55634,-1.06415 1.9986,0 1.3255,0.84849 -0.86143,1.0859 -2.49747,0.27113 -2.69491,0.26954 -2.69491,-0.0217 z m 36.29159,-24.86684 c -0.2653,-0.10228 -0.11042,-0.18596 0.34416,-0.18596 0.45459,0 0.82653,0.0837 0.82653,0.18596 0,0.10228 -0.15487,0.18596 -0.34417,0.18596 -0.18929,0 -0.56123,-0.0837 -0.82652,-0.18596 z m -33.9066,-3.42918 -1.87662,-0.47595 1.72147,0 c 1.72082,0 2.85191,0.36568 2.31598,0.74876 -0.15631,0.11173 -1.12868,-0.011 -2.16083,-0.27281 z m -5.50684,-0.84787 c 0,-0.10227 0.33048,-0.18596 0.7344,-0.18596 0.40392,0 0.95146,0.0837 1.21676,0.18596 0.26529,0.10228 -0.0652,0.18596 -0.7344,0.18596 -0.66922,0 -1.21676,-0.0837 -1.21676,-0.18596 z m 40.68245,-6.75926 c -0.66504,-0.19092 -0.51719,-0.32749 0.61997,-0.57269 1.21518,-0.26203 1.80808,-0.28184 3.18386,-0.10641 1.61384,0.20579 1.62901,0.23179 0.3342,0.5727 -1.59435,0.41976 -2.92717,0.45403 -4.13803,0.1064 z m -80.48612,-10.81979 c 0,-0.0544 0.57968,-0.41007 1.28819,-0.79032 1.45266,-0.77964 2.42357,-0.43442 1.10401,0.39253 -0.67225,0.42129 -2.3922,0.70729 -2.3922,0.39779 z"
         id="path4200"
         inkscape:connector-curvature="0" />
    </g>
  </g>
</svg>
