<?xml version="1.0" encoding="UTF-8" standalone="no"?>
<!-- Created with Inkscape (http://www.inkscape.org/) -->

<svg
   xmlns:dc="http://purl.org/dc/elements/1.1/"
   xmlns:cc="http://creativecommons.org/ns#"
   xmlns:rdf="http://www.w3.org/1999/02/22-rdf-syntax-ns#"
   xmlns:svg="http://www.w3.org/2000/svg"
   xmlns="http://www.w3.org/2000/svg"
   xmlns:sodipodi="http://sodipodi.sourceforge.net/DTD/sodipodi-0.dtd"
   xmlns:inkscape="http://www.inkscape.org/namespaces/inkscape"
   width="5cm"
   height="2.9999998cm"
   viewBox="0 0 177.16536 106.2992"
   id="svg2"
   version="1.1"
   inkscape:version="0.91 r13725"
   sodipodi:docname="air_squat.svg">
  <defs
     id="defs4" />
  <sodipodi:namedview
     id="base"
     pagecolor="#ffffff"
     bordercolor="#666666"
     borderopacity="1.0"
     inkscape:pageopacity="0.0"
     inkscape:pageshadow="2"
     inkscape:zoom="0.35"
     inkscape:cx="-309.24205"
     inkscape:cy="93.682337"
     inkscape:document-units="cm"
     inkscape:current-layer="layer1"
     showgrid="false"
     fit-margin-top="0"
     fit-margin-left="0"
     fit-margin-right="0"
     fit-margin-bottom="0"
     inkscape:window-width="1366"
     inkscape:window-height="706"
     inkscape:window-x="-8"
     inkscape:window-y="-8"
     inkscape:window-maximized="1"
     units="cm" />
  <metadata
     id="metadata7">
    <rdf:RDF>
      <cc:Work
         rdf:about="">
        <dc:format>image/svg+xml</dc:format>
        <dc:type
           rdf:resource="http://purl.org/dc/dcmitype/StillImage" />
        <dc:title></dc:title>
      </cc:Work>
    </rdf:RDF>
  </metadata>
  <g
     inkscape:label="Livello 1"
     inkscape:groupmode="layer"
     id="layer1"
     transform="translate(-54.242051,-519.74534)">
    <path
       inkscape:connector-curvature="0"
       id="path4153"
       d="m 106.15067,625.71494 c -0.8535,-0.61975 -0.84808,-2.37031 0.009,-2.93193 0.86142,-0.56443 3.80687,-0.93714 7.45479,-0.94334 3.84208,-0.006 3.96682,-0.0896 3.94729,-2.63005 -0.008,-0.98166 -0.12381,-2.62668 -0.25836,-3.65559 -0.13455,-1.02891 -0.42655,-3.55441 -0.64888,-5.61222 -0.22234,-2.05782 -0.77647,-5.18463 -1.23141,-6.94847 -1.469,-5.69553 -1.84251,-7.4588 -1.8495,-8.7313 -0.007,-1.24281 -0.68417,-4.58576 -1.51868,-7.49529 -0.36689,-1.27916 -0.41159,-2.34512 -0.27455,-6.54759 0.09,-2.76084 0.2756,-5.47068 0.41238,-6.02188 0.43221,-1.74163 -0.14681,-1.09658 -1.70138,1.89544 -1.31328,2.52762 -3.46404,5.465 -6.23635,8.51722 -0.75809,0.83464 -1.77314,1.03154 -2.5828,0.50103 -1.41373,-0.92631 -0.60021,-3.14231 2.29173,-6.24256 1.32755,-1.42319 2.22337,-2.74644 3.34703,-4.94411 0.84388,-1.65045 2.10177,-4.04571 2.79532,-5.32279 1.81542,-3.3429 2.13294,-4.45289 2.39373,-8.36798 0.12728,-1.91083 0.41758,-4.25593 0.64512,-5.21135 0.50213,-2.10848 0.54066,-6.30416 0.0903,-9.83192 -0.38809,-3.03982 -0.43224,-6.39425 -0.0935,-7.1025 0.22311,-0.46649 0.13683,-0.48739 -1.33866,-0.3243 -2.04746,0.2263 -3.14411,-0.31356 -4.02013,-1.97906 -0.59659,-1.13424 -0.63038,-1.46413 -0.63038,-6.15407 0,-6.15335 -0.0504,-6.04438 3.63204,-7.85749 2.03547,-1.00221 5.3721,-2.0275 6.59812,-2.0275 1.06398,0 2.2575,0.68388 2.68974,1.54121 0.46938,0.931 0.80795,8.36992 0.44137,9.69759 -0.55411,2.0068 -2.57642,4.34924 -4.9725,5.75965 -0.5589,0.32899 -0.69271,0.10397 1.48089,2.49043 0.93209,1.02337 1.21351,1.82526 1.01147,2.88213 -0.0751,0.39269 0.0917,1.42836 0.37067,2.30149 0.55637,1.74159 0.65277,3.81976 0.2434,5.24714 -0.14506,0.50579 -0.34049,2.91023 -0.4343,5.34321 -0.14647,3.79877 -0.27656,4.76333 -0.921,6.82884 -0.68074,2.18184 -0.76258,2.87684 -0.88107,7.48296 -0.0718,2.79275 -0.2657,5.49864 -0.43078,6.0131 -0.16509,0.51445 -0.36914,2.67917 -0.45345,4.81048 -0.1493,3.77423 -0.12885,3.97599 0.78547,7.75021 0.51632,2.13131 1.00389,4.77707 1.08349,5.87948 0.0796,1.1024 0.46301,3.20698 0.85201,4.67685 1.39218,5.26041 1.74512,6.99734 2.11792,10.4227 0.20796,1.91083 0.51777,4.54042 0.68848,5.84353 0.46455,3.54623 0.26759,7.23747 -0.46536,8.72153 -0.92736,1.87767 -1.22349,1.98133 -6.2209,2.17725 -2.42528,0.0951 -5.13117,0.25469 -6.01309,0.35467 -1.26988,0.14396 -1.7286,0.0909 -2.20481,-0.25485 z m 46.98837,-0.84325 c -0.73901,-0.93949 -0.69977,-1.32906 0.22729,-2.25612 l 0.78119,-0.78119 6.68601,0 c 4.58229,0 6.74328,-0.0927 6.86805,-0.29456 0.32967,-0.53343 0.15208,-4.35183 -0.27706,-5.95708 -0.23155,-0.86613 -1.10956,-2.83864 -1.95115,-4.3834 -1.18883,-2.18213 -1.88068,-3.11254 -3.10158,-4.17107 -5.57517,-4.83374 -6.11657,-5.74176 -4.4294,-7.42892 0.7654,-0.7654 0.89707,-0.80288 2.2048,-0.62758 0.76494,0.10254 3.79603,0.27237 6.73576,0.3774 3.66925,0.13108 6.07404,0.35232 7.67041,0.70567 1.27899,0.28309 2.41181,0.42834 2.51737,0.32277 0.10557,-0.10557 -0.0618,-0.76284 -0.37188,-1.46059 -1.20894,-2.72028 -2.09566,-6.4996 -2.47718,-10.55818 -0.16249,-1.72855 -0.40697,-3.53168 -0.54328,-4.00697 -0.13631,-0.47529 -0.24784,-1.61816 -0.24784,-2.53972 l 0,-1.67555 -4.10184,0.17686 c -2.66911,0.11508 -5.02613,0.0634 -6.74803,-0.14782 -2.59611,-0.31855 -8.03736,-1.84989 -11.12912,-3.1321 -0.84395,-0.35 -3.00689,-1.01163 -4.80654,-1.47029 -1.79965,-0.45867 -4.35622,-1.25264 -5.68126,-1.76439 -1.32505,-0.51175 -3.1155,-1.0303 -3.9788,-1.15233 -2.51344,-0.35531 -3.52347,-1.75663 -2.32818,-3.23012 0.46262,-0.5703 0.69355,-0.62413 2.40366,-0.56026 1.249,0.0466 2.50539,0.30556 3.69737,0.76195 0.99303,0.38022 3.18852,1.10414 4.87887,1.60871 1.69035,0.50458 5.65715,1.76803 8.81511,2.80768 5.96012,1.96215 9.14235,2.61814 12.69842,2.61762 2.06281,-2.6e-4 5.42711,-0.37671 5.68665,-0.63625 0.091,-0.091 0.006,-1.15379 -0.18952,-2.36169 -0.19526,-1.20791 -0.42964,-2.83583 -0.52084,-3.61761 l -0.16582,-1.42142 -3.20698,-0.0634 c -3.52988,-0.0698 -4.4895,-0.35808 -4.89722,-1.47122 -0.14108,-0.38514 -0.2394,-3.42322 -0.21851,-6.75127 0.035,-5.57171 0.0789,-6.09621 0.55371,-6.6217 0.28363,-0.31388 2.14769,-1.35975 4.14235,-2.32415 5.28455,-2.55504 7.05716,-2.64344 9.38293,-0.46796 1.8882,1.76619 2.22084,2.8404 2.07605,6.70435 -0.1404,3.74715 -0.52453,4.78208 -2.64635,7.13005 l -1.42473,1.57657 0.0735,1.80069 c 0.0404,0.99038 0.28858,2.86655 0.55144,4.16928 0.46208,2.29012 0.50359,2.37116 1.25285,2.4462 1.26892,0.12709 2.15682,0.58572 2.47164,1.2767 0.46179,1.01352 -0.0776,1.853 -1.59598,2.48402 l -1.30335,0.54165 4e-5,1.55149 c 3e-5,0.85332 0.16984,2.45346 0.37737,3.55586 0.20752,1.1024 0.45903,3.08672 0.55892,4.4096 0.33954,4.49721 2.46164,10.60176 4.52295,13.011 1.05417,1.23212 2.02368,3.14648 2.02368,3.99592 0,1.75433 -1.89617,2.4233 -3.54363,1.25021 -1.61307,-1.14861 -4.55236,-2.36168 -7.0975,-2.92921 -2.52116,-0.56218 -9.40253,-1.0194 -9.40253,-0.62473 0,0.0993 0.64845,0.92066 1.441,1.82517 0.90569,1.03364 2.09651,2.93516 3.20562,5.1188 2.14835,4.22969 2.70568,6.72881 2.41374,10.82357 -0.33782,4.7384 0.0961,4.54323 -10.10105,4.54323 l -7.87771,0 -0.5539,-0.70417 z"
       style="fill:#000000;fill-opacity:1" />
  </g>
</svg>
