<?xml version="1.0" encoding="UTF-8" standalone="no"?>
<!-- Created with Inkscape (http://www.inkscape.org/) -->

<svg
   xmlns:dc="http://purl.org/dc/elements/1.1/"
   xmlns:cc="http://creativecommons.org/ns#"
   xmlns:rdf="http://www.w3.org/1999/02/22-rdf-syntax-ns#"
   xmlns:svg="http://www.w3.org/2000/svg"
   xmlns="http://www.w3.org/2000/svg"
   xmlns:sodipodi="http://sodipodi.sourceforge.net/DTD/sodipodi-0.dtd"
   xmlns:inkscape="http://www.inkscape.org/namespaces/inkscape"
   width="177.16534"
   height="106.29497"
   id="svg2"
   version="1.1"
   inkscape:version="0.91 r13725"
   sodipodi:docname="hip_escape.svg">
  <defs
     id="defs4" />
  <sodipodi:namedview
     id="base"
     pagecolor="#ffffff"
     bordercolor="#666666"
     borderopacity="1.0"
     inkscape:pageopacity="0.0"
     inkscape:pageshadow="2"
     inkscape:zoom="1.2997076"
     inkscape:cx="288.94141"
     inkscape:cy="105.64983"
     inkscape:document-units="cm"
     inkscape:current-layer="layer1"
     showgrid="false"
     fit-margin-top="0"
     fit-margin-left="0"
     fit-margin-right="0"
     fit-margin-bottom="0"
     inkscape:window-width="1330"
     inkscape:window-height="747"
     inkscape:window-x="36"
     inkscape:window-y="21"
     inkscape:window-maximized="1"
     units="cm" />
  <metadata
     id="metadata7">
    <rdf:RDF>
      <cc:Work
         rdf:about="">
        <dc:format>image/svg+xml</dc:format>
        <dc:type
           rdf:resource="http://purl.org/dc/dcmitype/StillImage" />
        <dc:title></dc:title>
      </cc:Work>
    </rdf:RDF>
  </metadata>
  <g
     inkscape:label="Layer 1"
     inkscape:groupmode="layer"
     id="layer1"
     transform="translate(-32.228633,-1064.9324)">
    <path
       inkscape:connector-curvature="0"
       id="path5115-6"
       d="m 123.1032,946.21546 c 0.96825,7.9561 -3.43,15.0288 -5.30527,22.4318 0.55562,2.8664 -2.78231,10.3696 2.92738,7.9522"
       style="color:#000000;clip-rule:nonzero;display:inline;overflow:visible;visibility:visible;opacity:1;isolation:auto;mix-blend-mode:normal;color-interpolation:sRGB;color-interpolation-filters:linearRGB;solid-color:#000000;solid-opacity:1;fill:none;fill-opacity:1;fill-rule:evenodd;stroke:#000000;stroke-width:1.38269389;stroke-linecap:butt;stroke-linejoin:miter;stroke-miterlimit:4;stroke-dasharray:none;stroke-dashoffset:0;stroke-opacity:1;color-rendering:auto;image-rendering:auto;shape-rendering:auto;text-rendering:auto;enable-background:accumulate" />
    <path
       style="color:#000000;clip-rule:nonzero;display:inline;overflow:visible;visibility:visible;isolation:auto;mix-blend-mode:normal;color-interpolation:sRGB;color-interpolation-filters:linearRGB;solid-color:#000000;solid-opacity:1;fill:none;fill-opacity:1;fill-rule:evenodd;stroke:#000000;stroke-width:1.38269389;stroke-linecap:butt;stroke-linejoin:miter;stroke-miterlimit:4;stroke-dasharray:none;stroke-dashoffset:0;stroke-opacity:1;color-rendering:auto;image-rendering:auto;shape-rendering:auto;text-rendering:auto;enable-background:accumulate"
       d="m 89.685581,1076.2515 c -3.806355,-0.8801 -8.047518,-0.1719 -11.958738,-0.8989 -3.716667,-0.3313 -7.659874,-0.5512 -11.076547,0.4494 -3.340441,0.6466 -6.897002,0.7125 -10.450153,0.7866 -0.171915,0.2739 -0.539487,0.068 -0.674203,0.2247"
       id="path5476"
       inkscape:connector-curvature="0" />
    <path
       style="color:#000000;clip-rule:nonzero;display:inline;overflow:visible;visibility:visible;isolation:auto;mix-blend-mode:normal;color-interpolation:sRGB;color-interpolation-filters:linearRGB;solid-color:#000000;solid-opacity:1;fill:#000000;fill-opacity:1;fill-rule:evenodd;stroke:#000000;stroke-width:1.38269389;stroke-linecap:butt;stroke-linejoin:miter;stroke-miterlimit:4;stroke-dasharray:none;stroke-dashoffset:0;stroke-opacity:1;color-rendering:auto;image-rendering:auto;shape-rendering:auto;text-rendering:auto;enable-background:accumulate"
       d="m 42.154238,1077.5999 c 1.116725,-1.5263 2.565066,-2.4166 4.831792,-2.5844 2.877624,-0.5573 5.630836,0.4681 6.854401,2.472 1.163353,1.4034 1.684025,3.8375 2.47208,5.506 0.845774,2.1041 -0.768022,3.1852 -2.921548,3.034 -2.810438,0.8243 -7.078622,1.0652 -8.977327,-0.9489 -1.419534,-1.059 -2.304386,-2.7791 -2.484133,-5.119 -0.345951,-0.6604 -0.290874,-1.7338 0.224735,-2.3597 z"
       id="path5478"
       inkscape:connector-curvature="0" />
    <path
       style="color:#000000;clip-rule:nonzero;display:inline;overflow:visible;visibility:visible;isolation:auto;mix-blend-mode:normal;color-interpolation:sRGB;color-interpolation-filters:linearRGB;solid-color:#000000;solid-opacity:1;fill:none;fill-opacity:1;fill-rule:evenodd;stroke:#000000;stroke-width:1.38269389;stroke-linecap:butt;stroke-linejoin:miter;stroke-miterlimit:4;stroke-dasharray:none;stroke-dashoffset:0;stroke-opacity:1;color-rendering:auto;image-rendering:auto;shape-rendering:auto;text-rendering:auto;enable-background:accumulate"
       d="m 57.998019,1073.7794 c 0.53287,2.2589 1.257586,4.6842 2.02261,6.5173"
       id="path5480"
       inkscape:connector-curvature="0" />
    <path
       style="color:#000000;clip-rule:nonzero;display:inline;overflow:visible;visibility:visible;isolation:auto;mix-blend-mode:normal;color-interpolation:sRGB;color-interpolation-filters:linearRGB;solid-color:#000000;solid-opacity:1;fill:none;fill-opacity:1;fill-rule:evenodd;stroke:#000000;stroke-width:1.38269389;stroke-linecap:butt;stroke-linejoin:miter;stroke-miterlimit:4;stroke-dasharray:none;stroke-dashoffset:0;stroke-opacity:1;color-rendering:auto;image-rendering:auto;shape-rendering:auto;text-rendering:auto;enable-background:accumulate"
       d="m 60.132997,1080.8586 c -0.179632,3.2212 -1.018833,6.4886 -1.123673,9.8883 0.90096,3.594 1.499653,7.5351 0.898938,11.3491 -0.250249,3.7701 -1.154906,7.4021 -2.134978,10.4501 -0.71542,1.9835 -3.676937,0.6815 -5.618362,1.0113 -1.352412,0.1268 -2.984461,0.1762 -4.045221,0.5619"
       id="path5482"
       inkscape:connector-curvature="0" />
    <path
       style="color:#000000;clip-rule:nonzero;display:inline;overflow:visible;visibility:visible;isolation:auto;mix-blend-mode:normal;color-interpolation:sRGB;color-interpolation-filters:linearRGB;solid-color:#000000;solid-opacity:1;fill:none;fill-opacity:1;fill-rule:evenodd;stroke:#000000;stroke-width:1.38269389;stroke-linecap:butt;stroke-linejoin:miter;stroke-miterlimit:4;stroke-dasharray:none;stroke-dashoffset:0;stroke-opacity:1;color-rendering:auto;image-rendering:auto;shape-rendering:auto;text-rendering:auto;enable-background:accumulate"
       d="m 58.447488,1073.2176 c 0.304355,2.9969 0.03964,6.4091 -0.112368,9.3265 -0.440335,3.8202 -0.380949,7.9132 0.44947,11.4614 0.178446,2.4226 0.194647,5.253 -0.337102,7.4163 -1.78416,0.6008 -4.582115,0.6328 -6.228007,0.4494 -0.11734,0 -1.110243,0 -0.851129,0"
       id="path5484"
       inkscape:connector-curvature="0" />
    <path
       style="color:#000000;clip-rule:nonzero;display:inline;overflow:visible;visibility:visible;isolation:auto;mix-blend-mode:normal;color-interpolation:sRGB;color-interpolation-filters:linearRGB;solid-color:#000000;solid-opacity:1;fill:none;fill-opacity:1;fill-rule:evenodd;stroke:#000000;stroke-width:1.38269389;stroke-linecap:butt;stroke-linejoin:miter;stroke-miterlimit:4;stroke-dasharray:none;stroke-dashoffset:0;stroke-opacity:1;color-rendering:auto;image-rendering:auto;shape-rendering:auto;text-rendering:auto;enable-background:accumulate"
       d="m 88.899009,1077.5999 0.112367,0.1124"
       id="path5486"
       inkscape:connector-curvature="0" />
    <path
       style="color:#000000;clip-rule:nonzero;display:inline;overflow:visible;visibility:visible;isolation:auto;mix-blend-mode:normal;color-interpolation:sRGB;color-interpolation-filters:linearRGB;solid-color:#000000;solid-opacity:1;fill:none;fill-opacity:1;fill-rule:evenodd;stroke:#000000;stroke-width:1.38269389;stroke-linecap:butt;stroke-linejoin:miter;stroke-miterlimit:4;stroke-dasharray:none;stroke-dashoffset:0;stroke-opacity:1;color-rendering:auto;image-rendering:auto;shape-rendering:auto;text-rendering:auto;enable-background:accumulate"
       d="m 89.573212,1077.0381 c -0.559922,-1.0499 -0.564807,1.9126 -1.011304,3.1463 -1.252975,4.4943 -0.350232,9.6166 -1.685509,14.1582 -0.230315,2.0618 -0.869495,4.0218 -1.011304,6.0679 4.604396,0.2592 9.017798,1.446 13.596435,1.9102 4.47741,1.0967 9.2004,1.3218 13.82117,1.5731 0.57887,0.896 0.37701,3.3352 -0.22473,4.6071 0.0717,1.7541 -2.78262,1.0356 -3.93286,1.1237"
       id="path5490"
       inkscape:connector-curvature="0" />
    <path
       style="color:#000000;clip-rule:nonzero;display:inline;overflow:visible;visibility:visible;isolation:auto;mix-blend-mode:normal;color-interpolation:sRGB;color-interpolation-filters:linearRGB;solid-color:#000000;solid-opacity:1;fill:none;fill-opacity:1;fill-rule:evenodd;stroke:#000000;stroke-width:1.38269389;stroke-linecap:butt;stroke-linejoin:miter;stroke-miterlimit:4;stroke-dasharray:none;stroke-dashoffset:0;stroke-opacity:1;color-rendering:auto;image-rendering:auto;shape-rendering:auto;text-rendering:auto;enable-background:accumulate"
       d="m 86.988766,1074.566 c -1.490398,2.8218 -1.020855,6.1757 -2.134977,9.1017 -0.971108,3.9648 -1.329826,7.8695 -2.359712,11.7986 2.397717,-0.7624 5.868727,-0.4595 8.700087,-0.8989 3.247235,-0.3721 6.385507,-0.3695 9.728136,-0.6742 1.47826,0.3914 5.02206,-1.4358 4.38233,1.1714 0.0998,1.8712 0.6673,5.5459 -1.79788,4.8964 -0.25657,0.2057 -0.85731,-0.294 -0.44947,0.1124"
       id="path5492"
       inkscape:connector-curvature="0" />
    <path
       style="color:#000000;clip-rule:nonzero;display:inline;overflow:visible;visibility:visible;isolation:auto;mix-blend-mode:normal;color-interpolation:sRGB;color-interpolation-filters:linearRGB;solid-color:#000000;solid-opacity:1;fill:none;fill-opacity:1;fill-rule:evenodd;stroke:#000000;stroke-width:1.38269389;stroke-linecap:butt;stroke-linejoin:miter;stroke-miterlimit:4;stroke-dasharray:none;stroke-dashoffset:0;stroke-opacity:1;color-rendering:auto;image-rendering:auto;shape-rendering:auto;text-rendering:auto;enable-background:accumulate"
       d="m 143.84659,1078.836 c -3.14,-1.7429 -6.73738,-2.053 -10.45016,-2.2474 -0.85763,-0.3262 -2.06757,-0.3819 -3.25865,-0.4495"
       id="path5494"
       inkscape:connector-curvature="0" />
    <path
       style="color:#000000;clip-rule:nonzero;display:inline;overflow:visible;visibility:visible;isolation:auto;mix-blend-mode:normal;color-interpolation:sRGB;color-interpolation-filters:linearRGB;solid-color:#000000;solid-opacity:1;fill:none;fill-opacity:1;fill-rule:evenodd;stroke:#000000;stroke-width:1.38269389;stroke-linecap:butt;stroke-linejoin:miter;stroke-miterlimit:4;stroke-dasharray:none;stroke-dashoffset:0;stroke-opacity:1;color-rendering:auto;image-rendering:auto;shape-rendering:auto;text-rendering:auto;enable-background:accumulate"
       d="m 129.68832,1076.5886 c 1.43505,1.5425 1.86477,2.9915 2.92155,4.7194 0.67098,1.5046 1.55924,3.0747 0.89893,5.1044 -0.20395,2.624 -0.50517,5.2092 -1.12367,7.5931 -0.39688,1.476 -3.39244,1.1438 -4.83179,0.6742 -0.90078,0.082 -1.21272,-0.3173 -2.02262,-0.3371"
       id="path5496"
       inkscape:connector-curvature="0" />
    <path
       style="color:#000000;clip-rule:nonzero;display:inline;overflow:visible;visibility:visible;isolation:auto;mix-blend-mode:normal;color-interpolation:sRGB;color-interpolation-filters:linearRGB;solid-color:#000000;solid-opacity:1;fill:none;fill-opacity:1;fill-rule:evenodd;stroke:#000000;stroke-width:1.38269389;stroke-linecap:butt;stroke-linejoin:miter;stroke-miterlimit:4;stroke-dasharray:none;stroke-dashoffset:0;stroke-opacity:1;color-rendering:auto;image-rendering:auto;shape-rendering:auto;text-rendering:auto;enable-background:accumulate"
       d="m 144.52079,1079.0607 c 0.365,3.4822 -1.82343,6.0932 -2.13498,9.4388 -0.25689,2.9409 -1.54861,5.1814 -2.58445,7.641 -0.60601,2.5024 -3.02816,4.504 -4.04521,6.0678 -0.56393,0.6097 -1.77936,1.8812 -2.35972,2.6969 -2.2526,2.8247 -6.42884,3.0095 -10.11306,2.8091 l 0.11238,-0.1123"
       id="path5498"
       inkscape:connector-curvature="0" />
    <path
       style="color:#000000;clip-rule:nonzero;display:inline;overflow:visible;visibility:visible;isolation:auto;mix-blend-mode:normal;color-interpolation:sRGB;color-interpolation-filters:linearRGB;solid-color:#000000;solid-opacity:1;fill:#000000;fill-opacity:1;fill-rule:evenodd;stroke:#000000;stroke-width:1.38269389;stroke-linecap:butt;stroke-linejoin:miter;stroke-miterlimit:4;stroke-dasharray:none;stroke-dashoffset:0;stroke-opacity:1;color-rendering:auto;image-rendering:auto;shape-rendering:auto;text-rendering:auto;enable-background:accumulate"
       d="m 128.677,1074.1165 c -1.8254,-1.3245 -2.0508,-3.3835 -1.6855,-5.9554 0.54039,-1.3036 1.92127,-1.661 3.14628,-2.6968 2.10367,-0.9156 4.50708,-0.082 5.60633,1.623 0.7918,1.2029 1.95975,2.7767 2.25939,4.3324 0.90432,2.0706 1.21213,4.8539 0.22473,7.0792 -0.55607,1.1155 -1.44922,2.2666 -3.14628,1.7978 -1.74441,-0.4121 -2.68683,-1.5953 -3.4514,-2.4712 -1.11218,-1.2094 -1.76759,-2.2859 -2.95355,-3.709 z"
       id="path5500"
       inkscape:connector-curvature="0" />
    <path
       style="color:#000000;clip-rule:nonzero;display:inline;overflow:visible;visibility:visible;isolation:auto;mix-blend-mode:normal;color-interpolation:sRGB;color-interpolation-filters:linearRGB;solid-color:#000000;solid-opacity:1;fill:none;fill-opacity:1;fill-rule:evenodd;stroke:#000000;stroke-width:1.38269389;stroke-linecap:butt;stroke-linejoin:miter;stroke-miterlimit:4;stroke-dasharray:none;stroke-dashoffset:0;stroke-opacity:1;color-rendering:auto;image-rendering:auto;shape-rendering:auto;text-rendering:auto;enable-background:accumulate"
       d="m 138.0035,1076.9257 c 1.5766,1.2159 1.92762,2.0363 3.93284,3.2587 1.87553,1.6811 3.95728,3.3066 5.61837,4.8318 2.01155,1.7623 4.09583,3.5287 5.95546,4.7194 1.02957,1.0486 1.79027,1.6309 2.80918,2.3597 l -0.11236,-0.1124"
       id="path5502"
       inkscape:connector-curvature="0" />
    <path
       style="color:#000000;clip-rule:nonzero;display:inline;overflow:visible;visibility:visible;isolation:auto;mix-blend-mode:normal;color-interpolation:sRGB;color-interpolation-filters:linearRGB;solid-color:#000000;solid-opacity:1;fill:none;fill-opacity:1;fill-rule:evenodd;stroke:#000000;stroke-width:1.38269389;stroke-linecap:butt;stroke-linejoin:miter;stroke-miterlimit:4;stroke-dasharray:none;stroke-dashoffset:0;stroke-opacity:1;color-rendering:auto;image-rendering:auto;shape-rendering:auto;text-rendering:auto;enable-background:accumulate"
       d="m 159.12853,1086.7017 c 1.10733,0.8151 1.31655,2.4461 2.47208,3.2586 1.58822,1.344 2.90863,2.6894 4.38232,4.3823 1.63991,1.5693 4.59754,1.7807 7.19151,2.0226 3.04753,0.059 5.67591,1.0724 8.76465,0.5619 1.73594,0.8075 3.12186,3.2199 4.71941,4.8318 0.23017,0.3869 0.77707,1.0192 0.78657,1.0113"
       id="path5504"
       inkscape:connector-curvature="0" />
    <path
       style="color:#000000;clip-rule:nonzero;display:inline;overflow:visible;visibility:visible;isolation:auto;mix-blend-mode:normal;color-interpolation:sRGB;color-interpolation-filters:linearRGB;solid-color:#000000;solid-opacity:1;fill:none;fill-opacity:1;fill-rule:evenodd;stroke:#000000;stroke-width:1.38269389;stroke-linecap:butt;stroke-linejoin:miter;stroke-miterlimit:4;stroke-dasharray:none;stroke-dashoffset:0;stroke-opacity:1;color-rendering:auto;image-rendering:auto;shape-rendering:auto;text-rendering:auto;enable-background:accumulate"
       d="m 152.38649,1097.4889 c 2.48962,1.6306 3.71821,4.5305 5.28126,6.9668 1.83693,3.6153 5.09449,6.2631 7.07915,9.7759 2.73669,3.4955 5.14442,7.1833 8.53991,10.3378 0.70339,0.81 1.49137,1.8848 0.44946,0.7866 -2.35099,-2.2162 -4.25592,-4.6607 -6.40493,-6.742 0.14714,-0.1912 -0.65108,-0.5579 -0.33711,-0.4495"
       id="path5506"
       inkscape:connector-curvature="0" />
    <path
       style="color:#000000;clip-rule:nonzero;display:inline;overflow:visible;visibility:visible;isolation:auto;mix-blend-mode:normal;color-interpolation:sRGB;color-interpolation-filters:linearRGB;solid-color:#000000;solid-opacity:1;fill:#000000;fill-opacity:1;fill-rule:evenodd;stroke:#000000;stroke-width:1.38269389;stroke-linecap:butt;stroke-linejoin:miter;stroke-miterlimit:4;stroke-dasharray:none;stroke-dashoffset:0;stroke-opacity:1;color-rendering:auto;image-rendering:auto;shape-rendering:auto;text-rendering:auto;enable-background:accumulate"
       d="m 67.246357,1135.0756 c -0.644017,-1.7826 -2.423693,-3.19 -3.813868,-4.2873 -1.29457,-0.6882 -2.967811,-1.7027 -4.528944,-0.7149 -1.631186,0.7284 -3.122142,1.9037 -3.893307,3.5736 0.531944,2.907 2.194136,5.3128 3.972762,7.4665 1.147839,1.2649 2.361507,3.0296 4.449504,2.3055 2.469498,-0.9244 2.090206,-4.1304 3.019304,-6.0399 0.149396,-0.8749 0.758494,-1.3745 0.794549,-2.3035 z"
       id="path5510"
       inkscape:connector-curvature="0" />
    <path
       style="color:#000000;clip-rule:nonzero;display:inline;overflow:visible;visibility:visible;isolation:auto;mix-blend-mode:normal;color-interpolation:sRGB;color-interpolation-filters:linearRGB;solid-color:#000000;solid-opacity:1;fill:none;fill-opacity:1;fill-rule:evenodd;stroke:#000000;stroke-width:1.38269389;stroke-linecap:butt;stroke-linejoin:miter;stroke-miterlimit:4;stroke-dasharray:none;stroke-dashoffset:0;stroke-opacity:1;color-rendering:auto;image-rendering:auto;shape-rendering:auto;text-rendering:auto;enable-background:accumulate"
       d="m 65.975068,1137.936 c 2.510916,1.8948 4.666198,4.751 7.707189,6.4361 3.436496,3.0988 7.170721,5.7277 10.964869,8.2602 2.210901,1.0446 4.992328,2.4617 6.753714,3.8141 -0.03925,0.2815 0.402059,0.2394 0.31782,0.5559"
       id="path5512"
       inkscape:connector-curvature="0" />
    <path
       style="color:#000000;clip-rule:nonzero;display:inline;overflow:visible;visibility:visible;isolation:auto;mix-blend-mode:normal;color-interpolation:sRGB;color-interpolation-filters:linearRGB;solid-color:#000000;solid-opacity:1;fill:none;fill-opacity:1;fill-rule:evenodd;stroke:#000000;stroke-width:1.38269389;stroke-linecap:butt;stroke-linejoin:miter;stroke-miterlimit:4;stroke-dasharray:none;stroke-dashoffset:0;stroke-opacity:1;color-rendering:auto;image-rendering:auto;shape-rendering:auto;text-rendering:auto;enable-background:accumulate"
       d="m 89.610392,1159.6273 c -0.06368,-3.2975 -0.203436,-6.8105 -1.827464,-9.5375 -0.634589,-1.9536 -0.993186,-3.7858 -1.668561,-5.6405 -0.114143,-1.5782 -0.220147,-3.6802 -1.430193,-4.4483 -1.287304,-0.4055 -3.010806,-1.8337 -3.972775,-2.1453"
       id="path5514"
       inkscape:connector-curvature="0" />
    <path
       style="color:#000000;clip-rule:nonzero;display:inline;overflow:visible;visibility:visible;isolation:auto;mix-blend-mode:normal;color-interpolation:sRGB;color-interpolation-filters:linearRGB;solid-color:#000000;solid-opacity:1;fill:none;fill-opacity:1;fill-rule:evenodd;stroke:#000000;stroke-width:1.38269389;stroke-linecap:butt;stroke-linejoin:miter;stroke-miterlimit:4;stroke-dasharray:none;stroke-dashoffset:0;stroke-opacity:1;color-rendering:auto;image-rendering:auto;shape-rendering:auto;text-rendering:auto;enable-background:accumulate"
       d="m 93.466713,1154.7011 c -0.06375,-2.8941 0.975254,-6.0468 1.35074,-9.1381 0.453102,-1.2992 -0.130064,-2.6532 -0.158911,-3.9725 2.226975,2.2893 4.39214,4.6296 6.833278,6.5921 2.35177,2.7229 4.73327,4.3526 7.07173,7.074 0.58263,1.8629 2.3638,0.4402 3.81395,0.6342 0.24362,-0.093 1.03167,-0.5281 0.87405,-0.317"
       id="path5516"
       inkscape:connector-curvature="0" />
    <path
       style="color:#000000;clip-rule:nonzero;display:inline;overflow:visible;visibility:visible;isolation:auto;mix-blend-mode:normal;color-interpolation:sRGB;color-interpolation-filters:linearRGB;solid-color:#000000;solid-opacity:1;fill:none;fill-opacity:1;fill-rule:evenodd;stroke:#000000;stroke-width:1.38269389;stroke-linecap:butt;stroke-linejoin:miter;stroke-miterlimit:4;stroke-dasharray:none;stroke-dashoffset:0;stroke-opacity:1;color-rendering:auto;image-rendering:auto;shape-rendering:auto;text-rendering:auto;enable-background:accumulate"
       d="m 72.410974,1135.3934 c -2.138618,1.5697 -4.805391,3.4132 -6.435897,5.3232 -0.787984,0.675 -2.222742,1.6961 -2.383668,2.4629 0.803846,1.1107 0.364013,3.3765 0.635641,4.9238 -0.18465,4.32 -1.225489,8.4342 -1.50964,12.7129 -0.94812,3.3077 -0.749584,7.0799 -1.35074,10.3289 -2.499679,-0.6224 -5.743034,-0.5723 -8.183925,-0.556"
       id="path5518"
       inkscape:connector-curvature="0" />
    <path
       style="color:#000000;clip-rule:nonzero;display:inline;overflow:visible;visibility:visible;isolation:auto;mix-blend-mode:normal;color-interpolation:sRGB;color-interpolation-filters:linearRGB;solid-color:#000000;solid-opacity:1;fill:none;fill-opacity:1;fill-rule:evenodd;stroke:#000000;stroke-width:1.38269389;stroke-linecap:butt;stroke-linejoin:miter;stroke-miterlimit:4;stroke-dasharray:none;stroke-dashoffset:0;stroke-opacity:1;color-rendering:auto;image-rendering:auto;shape-rendering:auto;text-rendering:auto;enable-background:accumulate"
       d="m 72.649333,1135.7112 c -0.832789,2.6999 -1.961885,5.1669 -3.098752,7.8662 -1.621023,3.0857 -2.590481,6.6609 -4.528942,9.6912 -0.714126,1.2019 -0.945537,2.6762 -1.986383,3.0983 -2.533248,0.2643 -5.290268,0.7805 -7.75509,1.0334 l 0.12736,-0"
       id="path5520"
       inkscape:connector-curvature="0" />
    <path
       style="color:#000000;clip-rule:nonzero;display:inline;overflow:visible;visibility:visible;isolation:auto;mix-blend-mode:normal;color-interpolation:sRGB;color-interpolation-filters:linearRGB;solid-color:#000000;solid-opacity:1;fill:#000000;fill-opacity:1;fill-rule:evenodd;stroke:#000000;stroke-width:1.38269389;stroke-linecap:butt;stroke-linejoin:miter;stroke-miterlimit:4;stroke-dasharray:none;stroke-dashoffset:0;stroke-opacity:1;color-rendering:auto;image-rendering:auto;shape-rendering:auto;text-rendering:auto;enable-background:accumulate"
       d="m 125.6431,1127.3786 c 1.79283,-0.5064 4.46906,-0.7525 6.06783,0.4495 2.13876,0.8802 2.57641,4.1593 3.59575,6.4049 0.70667,1.3258 1.47344,3.4007 0.89894,4.7194 -1.50132,0.8166 -4.183,0.9909 -5.506,-0.1123 -2.30922,-0.5589 -4.27236,-1.5157 -6.29256,-2.5845 -1.32916,-0.9923 -2.67952,-3.1615 -2.58445,-5.7307 0.53649,-1.7674 1.86251,-3.1672 3.82049,-3.1463 z"
       id="path5522"
       inkscape:connector-curvature="0" />
    <path
       style="color:#000000;clip-rule:nonzero;display:inline;overflow:visible;visibility:visible;isolation:auto;mix-blend-mode:normal;color-interpolation:sRGB;color-interpolation-filters:linearRGB;solid-color:#000000;solid-opacity:1;fill:none;fill-opacity:1;fill-rule:evenodd;stroke:#000000;stroke-width:1.38269389;stroke-linecap:butt;stroke-linejoin:miter;stroke-miterlimit:4;stroke-dasharray:none;stroke-dashoffset:0;stroke-opacity:1;color-rendering:auto;image-rendering:auto;shape-rendering:auto;text-rendering:auto;enable-background:accumulate"
       d="m 134.74484,1132.098 c 3.49007,1.0716 8.3591,-0.082 12.3604,0.5619 5.20178,0.6028 10.53067,0.6744 15.84378,0.4494 2.89431,0.458 5.85137,0.6103 8.53991,1.2361 -0.54006,3.2274 0.26808,6.5332 0,9.8883 0.65501,4.0208 1.50721,8.0104 1.68551,12.1357 0.66785,0.9515 -0.13149,4.2673 1.46077,3.4833 4.32661,-0.3491 8.75258,-1.0689 12.58513,-1.9102 3.97364,-0.023 7.50122,-1.2007 11.57383,-1.0113 1.34498,-0.3736 0.47591,3.2914 0.89894,4.4947 0.79583,1.8046 -1.8778,4.0225 -3.82049,3.0339 -0.41936,0.053 -1.05125,-0.3859 -1.23604,-0.1124"
       id="path5524"
       inkscape:connector-curvature="0" />
    <path
       style="color:#000000;clip-rule:nonzero;display:inline;overflow:visible;visibility:visible;isolation:auto;mix-blend-mode:normal;color-interpolation:sRGB;color-interpolation-filters:linearRGB;solid-color:#000000;solid-opacity:1;fill:none;fill-opacity:1;fill-rule:evenodd;stroke:#000000;stroke-width:1.38269389;stroke-linecap:butt;stroke-linejoin:miter;stroke-miterlimit:4;stroke-dasharray:none;stroke-dashoffset:0;stroke-opacity:1;color-rendering:auto;image-rendering:auto;shape-rendering:auto;text-rendering:auto;enable-background:accumulate"
       d="m 170.36526,1131.9857 c -0.91182,2.1723 -1.25309,5.0067 -1.79788,7.5286 -0.17913,3.7662 -1.09335,7.7076 -1.79787,11.012 3.795,-0.7196 7.79621,-0.4161 11.57382,-1.2361 2.48689,-0.4221 5.02806,-1.1039 6.96677,-2.0226 2.28913,-0.4351 5.03759,-0.9158 7.30387,-0.5618 -0.57583,2.079 -0.80732,4.3003 -2.13498,6.0678 -0.95254,0.6804 -2.26516,0.3287 -3.03391,0.1124"
       id="path5526"
       inkscape:connector-curvature="0" />
    <path
       style="color:#000000;clip-rule:nonzero;display:inline;overflow:visible;visibility:visible;isolation:auto;mix-blend-mode:normal;color-interpolation:sRGB;color-interpolation-filters:linearRGB;solid-color:#000000;solid-opacity:1;fill:none;fill-opacity:1;fill-rule:evenodd;stroke:#000000;stroke-width:1.38269389;stroke-linecap:butt;stroke-linejoin:miter;stroke-miterlimit:4;stroke-dasharray:none;stroke-dashoffset:0;stroke-opacity:1;color-rendering:auto;image-rendering:auto;shape-rendering:auto;text-rendering:auto;enable-background:accumulate"
       d="m 138.90243,1128.727 c 0.71139,2.235 0.77851,4.5629 0.89894,6.9668"
       id="path5528"
       inkscape:connector-curvature="0" />
    <path
       style="color:#000000;clip-rule:nonzero;display:inline;overflow:visible;visibility:visible;isolation:auto;mix-blend-mode:normal;color-interpolation:sRGB;color-interpolation-filters:linearRGB;solid-color:#000000;solid-opacity:1;fill:none;fill-opacity:1;fill-rule:evenodd;stroke:#000000;stroke-width:1.38269389;stroke-linecap:butt;stroke-linejoin:miter;stroke-miterlimit:4;stroke-dasharray:none;stroke-dashoffset:0;stroke-opacity:1;color-rendering:auto;image-rendering:auto;shape-rendering:auto;text-rendering:auto;enable-background:accumulate"
       d="m 140.13847,1136.7051 c 0.80242,3.8789 1.31364,7.9051 2.35971,11.7985 0.74866,4.6277 0.0753,9.2828 -0.22473,13.869 -0.19017,1.7729 0.0624,3.9316 -1.34841,5.0087 -2.67848,0.2593 -5.39132,0.1381 -8.09044,0"
       id="path5530"
       inkscape:connector-curvature="0" />
    <path
       style="color:#000000;clip-rule:nonzero;display:inline;overflow:visible;visibility:visible;isolation:auto;mix-blend-mode:normal;color-interpolation:sRGB;color-interpolation-filters:linearRGB;solid-color:#000000;solid-opacity:1;fill:none;fill-opacity:1;fill-rule:evenodd;stroke:#000000;stroke-width:1.38269389;stroke-linecap:butt;stroke-linejoin:miter;stroke-miterlimit:4;stroke-dasharray:none;stroke-dashoffset:0;stroke-opacity:1;color-rendering:auto;image-rendering:auto;shape-rendering:auto;text-rendering:auto;enable-background:accumulate"
       d="m 140.58794,1129.8507 c 0.58412,5.8667 1.57725,11.7529 2.24734,17.5771 -0.0335,1.9782 0.73944,5.031 -0.22473,6.5818 -1.80613,1.1862 -4.84666,0.2911 -6.96677,0.6742 l -0.22473,0"
       id="path5532"
       inkscape:connector-curvature="0" />
    <path
       style="color:#000000;clip-rule:nonzero;display:inline;overflow:visible;visibility:visible;isolation:auto;mix-blend-mode:normal;color-interpolation:sRGB;color-interpolation-filters:linearRGB;solid-color:#000000;solid-opacity:1;fill:none;fill-opacity:1;fill-rule:evenodd;stroke:#000000;stroke-width:1.38269389;stroke-linecap:butt;stroke-linejoin:miter;stroke-miterlimit:4;stroke-dasharray:none;stroke-dashoffset:0;stroke-opacity:1;color-rendering:auto;image-rendering:auto;shape-rendering:auto;text-rendering:auto;enable-background:accumulate"
       d="m 110.58589,1117.8274 c 0.59886,-1.7311 1.55984,-2.7593 2.47208,-3.8205 2.43954,-1.1738 6.16974,-2.3566 8.53991,-0.2247 1.30749,0.8684 2.25447,2.3539 2.69681,4.0452 1.05606,2.4704 -0.82778,4.1708 -2.69681,5.1689 -1.83512,0.3637 -3.76638,3.1002 -6.06784,3.5957 -1.87,1.0903 -4.29637,1.4467 -6.06783,2.2474 l 0,-0.2248"
       id="path5569"
       inkscape:connector-curvature="0" />
    <path
       style="color:#000000;clip-rule:nonzero;display:inline;overflow:visible;visibility:visible;isolation:auto;mix-blend-mode:normal;color-interpolation:sRGB;color-interpolation-filters:linearRGB;solid-color:#000000;solid-opacity:1;fill:none;fill-opacity:1;fill-rule:evenodd;stroke:#000000;stroke-width:1.38269389;stroke-linecap:butt;stroke-linejoin:miter;stroke-miterlimit:4;stroke-dasharray:none;stroke-dashoffset:0;stroke-opacity:1;color-rendering:auto;image-rendering:auto;shape-rendering:auto;text-rendering:auto;enable-background:accumulate"
       d="m 111.48482,1124.5694 c -1.69976,0.9136 -3.11718,2.5633 -3.81948,3.307 -2.82888,1.842 2.29847,1.5197 3.30751,2.673 0.37811,0.2736 1.13747,0.6326 1.18618,0.9868"
       id="path5571"
       inkscape:connector-curvature="0" />
  </g>
</svg>
