<?xml version="1.0" encoding="UTF-8" standalone="no"?>
<!-- Created with Inkscape (http://www.inkscape.org/) -->

<svg
   xmlns:dc="http://purl.org/dc/elements/1.1/"
   xmlns:cc="http://creativecommons.org/ns#"
   xmlns:rdf="http://www.w3.org/1999/02/22-rdf-syntax-ns#"
   xmlns:svg="http://www.w3.org/2000/svg"
   xmlns="http://www.w3.org/2000/svg"
   xmlns:sodipodi="http://sodipodi.sourceforge.net/DTD/sodipodi-0.dtd"
   xmlns:inkscape="http://www.inkscape.org/namespaces/inkscape"
   width="177.16534"
   height="106.29497"
   id="svg2"
   version="1.1"
   inkscape:version="0.91 r13725"
   sodipodi:docname="plank_to_teaser.svg">
  <defs
     id="defs4" />
  <sodipodi:namedview
     id="base"
     pagecolor="#ffffff"
     bordercolor="#666666"
     borderopacity="1.0"
     inkscape:pageopacity="0.0"
     inkscape:pageshadow="2"
     inkscape:zoom="1.3513117"
     inkscape:cx="303.97387"
     inkscape:cy="121.75598"
     inkscape:document-units="cm"
     inkscape:current-layer="layer1"
     showgrid="false"
     fit-margin-top="0"
     fit-margin-left="0"
     fit-margin-right="0"
     fit-margin-bottom="0"
     inkscape:window-width="1330"
     inkscape:window-height="747"
     inkscape:window-x="36"
     inkscape:window-y="21"
     inkscape:window-maximized="1"
     units="cm" />
  <metadata
     id="metadata7">
    <rdf:RDF>
      <cc:Work
         rdf:about="">
        <dc:format>image/svg+xml</dc:format>
        <dc:type
           rdf:resource="http://purl.org/dc/dcmitype/StillImage" />
        <dc:title></dc:title>
      </cc:Work>
    </rdf:RDF>
  </metadata>
  <g
     inkscape:label="Layer 1"
     inkscape:groupmode="layer"
     id="layer1"
     transform="translate(-32.228633,-1064.9324)">
    <path
       inkscape:connector-curvature="0"
       id="path5115"
       d="m 111.85688,962.12555 c 0.96825,7.95603 -3.43,15.02874 -5.30527,22.43173 0.55562,2.86645 -2.78231,10.36958 2.92738,7.9522"
       style="color:#000000;clip-rule:nonzero;display:inline;overflow:visible;visibility:visible;opacity:1;isolation:auto;mix-blend-mode:normal;color-interpolation:sRGB;color-interpolation-filters:linearRGB;solid-color:#000000;solid-opacity:1;fill:none;fill-opacity:1;fill-rule:evenodd;stroke:#000000;stroke-width:1.38269389;stroke-linecap:butt;stroke-linejoin:miter;stroke-miterlimit:4;stroke-dasharray:none;stroke-dashoffset:0;stroke-opacity:1;color-rendering:auto;image-rendering:auto;shape-rendering:auto;text-rendering:auto;enable-background:accumulate" />
    <path
       style="fill:none;fill-rule:evenodd;stroke:#000000;stroke-width:1px;stroke-linecap:butt;stroke-linejoin:miter;stroke-opacity:1"
       d="m 714.52866,580.69003 c 0,1.97339 -0.38701,3.9851 0,5.92017 0.25698,1.28491 4.0232,2.70993 4.44013,2.96009 1.5253,0.91518 2.84913,2.16459 4.44013,2.96009 1.3954,0.6977 3.00617,0.86549 4.44013,1.48004 6.80257,2.91539 5.67054,3.62522 13.32039,5.92018 2.4095,0.72284 4.93348,0.98669 7.40022,1.48004 2.96009,0.98669 5.89803,2.04248 8.88026,2.96009 3.4328,1.05624 6.90687,1.97339 10.36031,2.96008 3.45343,0.9867 6.8484,2.20754 10.3603,2.96009 3.41106,0.73094 6.91237,0.94959 10.3603,1.48004 0.0515,0.008 17.75258,2.95943 17.76053,2.96009 25.9438,0 -6.38573,-0.58052 16.28047,1.48004 2.94793,0.268 5.9304,-0.24582 8.88026,0 2.99056,0.24922 5.89167,1.20836 8.88026,1.48005 2.45661,0.22332 4.94572,-0.24545 7.40022,0 2.50311,0.25031 4.90002,1.20224 7.40022,1.48004 1.96132,0.21792 3.94678,0 5.92017,0 7.40022,0 14.80044,0 22.20065,0 4.44014,0 8.88027,0 13.3204,0 1.97339,0 3.96202,0.24477 5.92017,0 4.03683,-0.5046 7.80351,-2.45548 11.84035,-2.96009 1.95815,-0.24477 3.96202,0.24477 5.92017,0 2.97348,-0.37168 7.41127,-1.97707 10.36031,-2.96008 1.48004,-0.49335 2.90125,-1.22357 4.44013,-1.48005 1.4599,-0.24331 2.98022,0.24332 4.44013,0 3.07775,-0.51296 5.82064,-2.34816 8.88026,-2.96008 1.4513,-0.29026 2.96008,0 4.44013,0"
       id="path4352"
       inkscape:connector-curvature="0" />
    <g
       id="g5689"
       transform="matrix(1.1149468,0,0,1.1149468,-216.86181,-117.893)">
      <path
         inkscape:connector-curvature="0"
         id="path5505"
         d="m 237.4715,1096.5489 c -0.29562,0.1478 -0.59124,0.2956 -0.88685,0.4435 0,0.074 0.0523,0.1694 0,0.2216 -0.10452,0.1046 -0.33891,-0.1044 -0.44343,0 -0.0523,0.052 0.0523,0.1695 0,0.2218 -0.10452,0.1045 -0.33891,-0.1046 -0.44342,0 -0.0523,0.052 0.0522,0.1694 0,0.2217 -0.10452,0.1045 -0.31123,-0.066 -0.44343,0 -0.0935,0.047 -0.12823,0.1749 -0.22172,0.2217 -0.0661,0.033 -0.15561,-0.033 -0.22171,0 -0.0935,0.047 -0.12823,0.175 -0.22171,0.2217 -0.0661,0.033 -0.15561,-0.033 -0.22171,0 -0.0935,0.047 -0.12823,0.175 -0.22172,0.2217 -0.1322,0.066 -0.33891,-0.1045 -0.44342,0 -0.0523,0.052 0.0523,0.1695 0,0.2217 -0.10452,0.1046 -0.31123,-0.066 -0.44343,0 -0.0935,0.047 -0.12823,0.175 -0.22172,0.2218 -0.0661,0.033 -0.1556,-0.033 -0.22171,0 -0.0935,0.047 -0.12823,0.1749 -0.22171,0.2216 -0.0661,0.033 -0.15561,-0.033 -0.22171,0 -0.0935,0.047 -0.12823,0.175 -0.22171,0.2218 -0.0661,0.033 -0.16946,-0.052 -0.22172,0 -0.0523,0.052 0.0523,0.1694 0,0.2217 -0.0523,0.052 -0.14781,0 -0.22171,0 -0.0739,0 -0.14781,0 -0.22172,0 -0.73904,0 -1.47808,0 -2.21713,0 -0.44342,0 -0.88685,0 -1.33028,0 -0.0739,0 -0.16945,0.052 -0.22171,0 -0.0523,-0.052 0.0523,-0.1695 0,-0.2217 -0.10451,-0.1046 -0.31122,0.066 -0.44343,0 -0.0935,-0.047 -0.12823,-0.175 -0.22171,-0.2218 -0.0661,-0.033 -0.16945,0.052 -0.22171,0 -0.0523,-0.052 0.0331,-0.1555 0,-0.2216 -0.0467,-0.093 -0.17498,-0.1283 -0.22171,-0.2218 -0.0331,-0.066 0.0522,-0.1694 0,-0.2217 -0.0523,-0.052 -0.16946,0.052 -0.22172,0 -0.0523,-0.052 0.0523,-0.1694 0,-0.2217 -0.0523,-0.052 -0.16945,0.052 -0.22171,0 -0.0523,-0.052 0.0523,-0.1694 0,-0.2217 -0.0523,-0.052 -0.16946,0.052 -0.22172,0 -0.10451,-0.1045 0.10452,-0.3389 0,-0.4434 -0.0522,-0.052 -0.16945,0.052 -0.22171,0 -0.0523,-0.052 0.0523,-0.1695 0,-0.2218 -0.0523,-0.052 -0.16945,0.052 -0.22171,0 -0.0523,-0.052 0.0523,-0.1694 0,-0.2216 -0.0523,-0.052 -0.16946,0.052 -0.22171,0 -0.0523,-0.052 0.0523,-0.1695 0,-0.2218 -0.0523,-0.052 -0.16946,0.052 -0.22172,0 -0.0523,-0.052 0.0523,-0.1695 0,-0.2217 -0.0523,-0.052 -0.16945,0.052 -0.22171,0 -0.10452,-0.1045 0.10452,-0.3389 0,-0.4434 -0.0523,-0.052 -0.16945,0.052 -0.22171,0 -0.10452,-0.1045 0.10451,-0.3389 0,-0.4434 -0.0523,-0.052 -0.16946,0.052 -0.22172,0 -0.0523,-0.052 0.0331,-0.1556 0,-0.2218 -0.0467,-0.093 -0.17497,-0.1282 -0.22171,-0.2217 -0.0331,-0.066 0.0523,-0.1694 0,-0.2217 -0.0523,-0.052 -0.16946,0.052 -0.22171,0 -0.11086,-0.1108 0.11085,-0.5543 0,-0.6651 -0.0523,-0.052 -0.16946,0.052 -0.22172,0 -0.0523,-0.052 0,-0.1478 0,-0.2217 0,-0.5913 0,-1.1825 0,-1.7737 0,-0.082 -0.009,-0.878 0,-0.8869 0.0523,-0.052 0.16946,0.052 0.22172,0 0.0522,-0.052 -0.0331,-0.1556 0,-0.2217 0.46136,-0.9227 -0.0153,0.237 0.44342,-0.2217 0.0523,-0.052 -0.0523,-0.1695 0,-0.2217 0.0523,-0.052 0.16946,0.052 0.22172,0 0.0523,-0.052 -0.0523,-0.1695 0,-0.2217 0.0523,-0.052 0.15561,0.033 0.22171,0 0.0935,-0.047 0.12823,-0.175 0.22171,-0.2218 0.0661,-0.033 0.16946,0.052 0.22172,0 0.0523,-0.052 -0.0523,-0.1694 0,-0.2217 0.0523,-0.052 0.16945,0.052 0.22171,0 0.0523,-0.052 -0.0523,-0.1694 0,-0.2217 0.10452,-0.1045 0.33891,0.1046 0.44342,0 0.0523,-0.052 -0.0522,-0.1695 0,-0.2217 0.0523,-0.052 0.15562,0.033 0.22172,0 0.18696,-0.093 0.25646,-0.3499 0.44343,-0.4434 0.0661,-0.033 0.16945,0.052 0.22171,0 0.0523,-0.052 -0.0523,-0.1695 0,-0.2217 0.10452,-0.1046 0.31122,0.066 0.44342,0 0.0935,-0.047 0.12823,-0.175 0.22172,-0.2218 0.0573,-0.029 1.17312,0 1.33028,0 0.44342,0 0.88685,0 1.33028,0 0.0999,0 0.59766,-0.034 0.66513,0 0.0935,0.047 0.12823,0.175 0.22172,0.2218 0.0661,0.033 0.16945,-0.052 0.22171,0 0.0523,0.052 -0.0523,0.1694 0,0.2217 0.10452,0.1045 0.31122,-0.066 0.44343,0 0.0935,0.047 0.12823,0.1749 0.22171,0.2217 0.0661,0.033 0.15561,-0.033 0.22172,0 0.0935,0.047 0.12822,0.175 0.22171,0.2217 0.0661,0.033 0.16945,-0.052 0.22171,0 0.0523,0.052 -0.0523,0.1694 0,0.2217 0.0523,0.052 0.15561,-0.033 0.22171,0 0.0935,0.047 0.12823,0.175 0.22171,0.2217 0.0661,0.033 0.15562,-0.033 0.22172,0 0.92272,0.4614 -0.23702,-0.015 0.22171,0.4435 0.0523,0.052 0.16946,-0.052 0.22172,0 0.0523,0.052 -0.0523,0.1694 0,0.2217 0.0523,0.052 0.16945,-0.052 0.22171,0 0.0523,0.052 -0.0523,0.1694 0,0.2217 0.0523,0.052 0.16945,-0.052 0.22171,0 0.0523,0.052 -0.0523,0.1694 0,0.2217 0.0523,0.052 0.16946,-0.052 0.22172,0 0.0523,0.052 -0.0523,0.1695 0,0.2217 0.0523,0.052 0.16945,-0.052 0.22171,0 0.0523,0.052 -0.0523,0.1694 0,0.2217 0.0523,0.052 0.15561,-0.033 0.22171,0 0.0935,0.047 0.14781,0.1478 0.22171,0.2218 0.0739,0.074 0.17498,0.1282 0.22172,0.2216 0.0331,0.066 -0.0331,0.1557 0,0.2218 0.13303,0.266 0.53211,0.399 0.66514,0.6651 0.0331,0.066 -0.0523,0.1695 0,0.2217 0.0523,0.052 0.16945,-0.052 0.22171,0 0.0523,0.052 -0.0523,0.1695 0,0.2217 0.0523,0.052 0.16945,-0.052 0.22171,0 0.0523,0.052 -0.0523,0.1695 0,0.2217 0.0523,0.052 0.16946,-0.052 0.22172,0 0.0523,0.052 -0.0523,0.1695 0,0.2217 0.0523,0.052 0.16945,-0.052 0.22171,0 0.0523,0.052 -0.0523,0.1695 0,0.2218 0.0523,0.052 0.16946,-0.052 0.22171,0 0.0523,0.052 -0.0331,0.1556 0,0.2217 0.0935,0.1869 0.34995,0.2565 0.44343,0.4434 0.0661,0.1322 -0.10452,0.3389 0,0.4434 0.0523,0.052 0.16946,-0.052 0.22171,0 0.0523,0.052 -0.033,0.1556 0,0.2217 0.0467,0.093 0.17498,0.1283 0.22172,0.2218 0.14781,0.2956 -0.26009,0.6118 -0.44343,0.8868 z"
         style="color:#000000;clip-rule:nonzero;display:inline;overflow:visible;visibility:visible;isolation:auto;mix-blend-mode:normal;color-interpolation:sRGB;color-interpolation-filters:linearRGB;solid-color:#000000;solid-opacity:1;fill:#000000;fill-opacity:1;fill-rule:evenodd;stroke:#000000;stroke-width:0.58585221;stroke-linecap:butt;stroke-linejoin:miter;stroke-miterlimit:4;stroke-dasharray:none;stroke-dashoffset:0;stroke-opacity:1;color-rendering:auto;image-rendering:auto;shape-rendering:auto;text-rendering:auto;enable-background:accumulate" />
      <path
         inkscape:connector-curvature="0"
         id="path5507"
         d="m 233.92409,1099.2095 c 0.22171,0.2956 0.40385,0.6255 0.66514,0.8868 0.0523,0.052 0.15561,-0.033 0.22171,0 0.0935,0.047 0.14781,0.1479 0.22171,0.2217 0.0739,0.074 0.17498,0.1283 0.22172,0.2218 0.0331,0.066 -0.0523,0.1694 0,0.2217 0.0523,0.052 0.16946,-0.052 0.22171,0 0.0523,0.052 -0.0331,0.1556 0,0.2217 0.0935,0.187 0.34995,0.2564 0.44343,0.4434 0.0331,0.066 -0.0523,0.1695 0,0.2217 0.0523,0.052 0.16945,-0.052 0.22171,0 0.0523,0.052 -0.0331,0.1556 0,0.2217 0.0467,0.094 0.17497,0.1282 0.22171,0.2218 0.0661,0.1321 -0.10451,0.3388 0,0.4434 0.0523,0.052 0.16946,-0.052 0.22172,0 0.0523,0.052 -0.0331,0.1556 0,0.2217 0.0467,0.093 0.17497,0.1282 0.22171,0.2217 0.033,0.066 -0.0331,0.1556 0,0.2217 0.0467,0.093 0.17497,0.1282 0.22171,0.2217 0.033,0.066 -0.0523,0.1695 0,0.2217 0.0523,0.052 0.16946,-0.052 0.22172,0 0.0523,0.052 -0.0331,0.1557 0,0.2218 0.13302,0.266 0.53211,0.399 0.66514,0.6651 0.033,0.066 -0.0331,0.1556 0,0.2217 0.0467,0.093 0.17497,0.1282 0.22171,0.2217 0.0331,0.066 -0.0523,0.1695 0,0.2217 0.0523,0.052 0.15561,-0.033 0.22171,0 0.92272,0.4614 -0.23702,-0.015 0.22171,0.4435 0.0523,0.052 0.16946,-0.052 0.22172,0 0.0523,0.052 -0.0331,0.1556 0,0.2216 0.0935,0.187 0.34995,0.2565 0.44343,0.4435 0.0331,0.066 -0.0523,0.1694 0,0.2217 0.0523,0.052 0.16945,-0.052 0.22171,0 0.0523,0.052 -0.0523,0.1695 0,0.2217 0.0523,0.052 0.16945,-0.052 0.22171,0 0.0523,0.052 -0.0331,0.1556 0,0.2217 0.0467,0.093 0.17497,0.1283 0.22171,0.2218 0.0331,0.066 -0.033,0.1555 0,0.2217 0.13304,0.266 0.53212,0.3991 0.66514,0.6651 0.0331,0.066 -0.0331,0.1556 0,0.2217 0.13303,0.2661 0.53212,0.3991 0.66515,0.6652 0.033,0.066 -0.0331,0.1555 0,0.2217 0.0706,0.1412 0.93435,0.9343 1.10856,1.1085 0.0739,0.074 0.17497,0.1283 0.22171,0.2217 0.0331,0.066 -0.0331,0.1557 0,0.2218 0.0467,0.093 0.14781,0.1478 0.22172,0.2216 0.0739,0.074 0.14781,0.1479 0.22171,0.2218 0.29562,0.2956 0.59123,0.5912 0.88685,0.8868 0.1304,0.1304 0.78418,0.8356 0.88686,0.8869 0.0661,0.033 0.16945,-0.052 0.22171,0 0.0523,0.052 -0.0331,0.1556 0,0.2217 0.13303,0.266 0.53211,0.3991 0.66514,0.6651 0.033,0.066 -0.0523,0.1695 0,0.2218 0.0523,0.052 0.15561,-0.033 0.22171,0 0.92272,0.4613 -0.23702,-0.015 0.22171,0.4434 0.0523,0.052 0.16946,-0.052 0.22172,0 0.0522,0.052 -0.0523,0.1694 0,0.2217 0.0522,0.052 0.16945,-0.052 0.22171,0 0.0523,0.052 -0.033,0.1556 0,0.2217 0.0467,0.093 0.17497,0.1282 0.22171,0.2217 0.0331,0.066 -0.0522,0.1695 0,0.2217 0.0523,0.052 0.16946,-0.052 0.22172,0 0.0523,0.052 -0.0331,0.1556 0,0.2217 0.13303,0.2661 0.53211,0.3991 0.66513,0.6652 0.0331,0.066 -0.0522,0.1695 0,0.2217 0.0523,0.052 0.16946,-0.052 0.22172,0 0.0523,0.052 -0.0331,0.1556 0,0.2217 0.0467,0.093 0.17497,0.1282 0.22171,0.2217 0.0331,0.066 -0.0331,0.1556 0,0.2217 0.0467,0.093 0.17497,0.1283 0.22172,0.2217 0.0331,0.066 -0.0523,0.1695 0,0.2218 0.0522,0.052 0.16945,-0.052 0.22171,0 0.0523,0.052 -0.0331,0.1556 0,0.2217 0.13303,0.266 0.53211,0.399 0.66514,0.6651 0.0331,0.066 -0.0523,0.1695 0,0.2217 0.0523,0.052 0.16945,-0.052 0.22171,0 0.0523,0.052 -0.0331,0.1556 0,0.2217 0.0592,0.1185 0.54842,0.5485 0.66514,0.6652 0.0739,0.074 0.17497,0.1282 0.22172,0.2217 0.033,0.066 -0.0523,0.1695 0,0.2217 0.0522,0.052 0.1478,0 0.22171,0 0,0.074 -0.0331,0.1556 0,0.2217 0.46135,0.9227 -0.0153,-0.237 0.44342,0.2217 0.0523,0.052 -0.0523,0.1695 0,0.2217 0.0523,0.052 0.16946,-0.052 0.22172,0 0.0522,0.052 -0.0523,0.1695 0,0.2218 0.0522,0.052 0.16945,-0.052 0.22171,0 0.0523,0.052 -0.033,0.1556 0,0.2217 0.0467,0.093 0.14781,0.1478 0.22171,0.2217 0.0739,0.074 0.14781,0.1478 0.22172,0.2217 0.29562,0.2956 0.59123,0.5912 0.88685,0.8868 0.0739,0.074 0.14781,0.1479 0.22171,0.2218 0.0739,0.074 0.17498,0.1282 0.22171,0.2217 0.0331,0.066 -0.0523,0.1694 0,0.2217 0.0523,0.052 0.16946,-0.052 0.22172,0 0.0522,0.052 -0.0523,0.1695 0,0.2217 0.0522,0.052 0.16946,-0.052 0.22171,0 0.0523,0.052 -0.0523,0.1694 0,0.2217 0.0523,0.052 0.16946,-0.052 0.22172,0 0.0523,0.052 -0.0523,0.1695 0,0.2217 0.0523,0.052 0.16945,-0.052 0.22171,0 0.0523,0.052 0,0.1478 0,0.2217 0.0739,0 0.15561,-0.033 0.22171,0 0.92272,0.4614 -0.23702,-0.015 0.22171,0.4435 0.0523,0.052 0.16946,-0.052 0.22172,0 0.0523,0.052 -0.0523,0.1694 0,0.2217 0.0523,0.052 0.16945,-0.052 0.22171,0 0.0523,0.052 -0.0523,0.1694 0,0.2217 0.0523,0.052 0.16946,-0.052 0.22171,0 0.0523,0.052 -0.0523,0.1695 0,0.2217 0.0523,0.052 0.22172,-0.074 0.22172,0 0,0.074 -0.14781,0 -0.22172,0 -0.48662,-2.233 0.80386,-0.3604 1.10857,-0.6651 0.10452,-0.1045 -0.10452,-0.3389 0,-0.4435 0.0523,-0.052 0.16946,0.052 0.22171,0 0.0523,-0.052 -0.0523,-0.1694 0,-0.2217 0.0523,-0.052 0.16946,0.052 0.22172,0 0.0522,-0.052 -0.0523,-0.1694 0,-0.2217 0.0522,-0.052 0.16945,0.052 0.22171,0 0.0523,-0.052 -0.0523,-0.1695 0,-0.2217 0.0523,-0.052 0.16946,0.052 0.22172,0 0.0523,-0.052 -0.0523,-0.1694 0,-0.2217 0.0523,-0.052 0.16945,0.052 0.22171,0 0.0523,-0.052 -0.0331,-0.1556 0,-0.2217 0.0467,-0.093 0.17497,-0.1283 0.22171,-0.2217 0.0331,-0.066 -0.0523,-0.1695 0,-0.2218 0.0523,-0.052 0.15561,0.033 0.22171,0 0.0935,-0.047 0.14781,-0.1477 0.22172,-0.2217 0.0739,-0.074 0.17497,-0.1282 0.22171,-0.2217 0.0331,-0.066 -0.0523,-0.1694 0,-0.2217 0.0523,-0.052 0.16945,0.052 0.22171,0 0.0523,-0.052 -0.0523,-0.1694 0,-0.2217 0.0523,-0.052 0.15562,0.033 0.22172,0 0.0935,-0.047 0.12823,-0.175 0.22171,-0.2217 0.0661,-0.033 0.16945,0.052 0.22171,0 0.0523,-0.052 -0.0523,-0.1695 0,-0.2217 0.0523,-0.052 0.16946,0.052 0.22172,0 0.0523,-0.052 -0.0523,-0.1695 0,-0.2217 0.0523,-0.052 0.16945,0.052 0.22171,0 0.0523,-0.052 -0.0523,-0.1695 0,-0.2218 0.10452,-0.1045 0.33891,0.1046 0.44342,0 0.0523,-0.052 -0.0522,-0.1694 0,-0.2217 0.0523,-0.052 0.16946,0.052 0.22172,0 0.0523,-0.052 -0.0523,-0.1694 0,-0.2217 0.0523,-0.052 0.15561,0.033 0.22171,0 0.18696,-0.094 0.25646,-0.3499 0.44343,-0.4434 0.0661,-0.033 0.15561,0.033 0.22171,0 0.0935,-0.047 0.12823,-0.175 0.22171,-0.2217 0.0661,-0.033 0.16946,0.052 0.22172,0 0.0523,-0.052 -0.0523,-0.1695 0,-0.2217 0.0523,-0.052 0.15561,0.033 0.22171,0 0.0935,-0.047 0.12823,-0.175 0.22171,-0.2217 0.0661,-0.033 0.16946,0.052 0.22172,0 0.0523,-0.052 -0.0523,-0.1695 0,-0.2218 0.0523,-0.052 0.15561,0.033 0.22171,0 0.0935,-0.047 0.12823,-0.1749 0.22172,-0.2217 0.0661,-0.033 0.16945,0.052 0.22171,0 0.0523,-0.052 -0.0523,-0.1694 0,-0.2217 0.0523,-0.052 0.16945,0.052 0.22171,0 0.0523,-0.052 -0.0523,-0.1695 0,-0.2217 0.10452,-0.1045 0.33891,0.1045 0.44342,0 0.0523,-0.052 -0.0523,-0.1694 0,-0.2217 0.0523,-0.052 0.15562,0.033 0.22172,0 0.0935,-0.047 0.12823,-0.175 0.22171,-0.2217 0.0661,-0.033 0.16946,0.052 0.22172,0 0.0522,-0.052 -0.0523,-0.1695 0,-0.2217 0.0522,-0.052 0.15561,0.033 0.22171,0 0.0935,-0.047 0.12823,-0.175 0.22171,-0.2218 0.0661,-0.033 0.16946,0.052 0.22172,0 0.0523,-0.052 -0.0523,-0.1694 0,-0.2217 0.0523,-0.052 0.1556,0.033 0.22171,0 0.0935,-0.047 0.12823,-0.1749 0.22171,-0.2217 0.0661,-0.033 0.16946,0.052 0.22171,0 0.0523,-0.052 -0.0523,-0.1694 0,-0.2217 0.0523,-0.052 0.16946,0.052 0.22172,0 0.0522,-0.052 -0.0523,-0.1695 0,-0.2217 0.0522,-0.052 0.15561,0.033 0.22171,0 0.0935,-0.047 0.12823,-0.175 0.22172,-0.2217 0.1322,-0.066 0.3389,0.1045 0.44342,0 0.0523,-0.052 -0.0523,-0.1695 0,-0.2217 0.10452,-0.1045 0.33891,0.1045 0.44343,0 0.0523,-0.052 -0.0523,-0.1695 0,-0.2217 0.0523,-0.052 0.15561,0.033 0.22171,0 0.73533,-0.7354 -0.20903,0.1045 0.44343,-0.2218 0.0935,-0.047 0.12823,-0.1749 0.22171,-0.2217 0.0661,-0.033 0.15561,0.033 0.22171,0 0.0935,-0.047 0.12823,-0.1749 0.22172,-0.2217 0.1322,-0.066 0.3389,0.1045 0.44342,0 0.0523,-0.052 -0.0523,-0.1694 0,-0.2217 0.0523,-0.052 0.15561,0.033 0.22171,0 0.0935,-0.047 0.12823,-0.175 0.22172,-0.2217 0.1322,-0.066 0.31122,0.066 0.44343,0 0.0935,-0.047 0.12823,-0.175 0.22171,-0.2217 0.0661,-0.033 0.16945,0.052 0.22171,0 0.0523,-0.052 -0.0523,-0.1695 0,-0.2217 0.0523,-0.052 0.15561,0.033 0.22171,0 0.73533,-0.7354 -0.20903,0.1045 0.44343,-0.2217 0.0935,-0.047 0.12823,-0.175 0.22171,-0.2218 0.0661,-0.033 0.16946,0.052 0.22172,0 0.0523,-0.052 -0.0523,-0.1694 0,-0.2217 0.10451,-0.1045 0.33891,0.1045 0.44342,0 0.0523,-0.052 -0.0523,-0.1694 0,-0.2217 0.10452,-0.1045 0.33891,0.1045 0.44343,0 0.0523,-0.052 -0.0523,-0.1695 0,-0.2217 0.14778,-0.1478 0.29565,0.1478 0.44342,0 0.0523,-0.052 -0.0522,-0.1694 0,-0.2217 0.0453,-0.045 0.57724,0.044 0.66515,0 0.0935,-0.047 0.12823,-0.175 0.22171,-0.2217 0.0661,-0.033 0.16945,0.052 0.22171,0 0.0523,-0.052 -0.0523,-0.1695 0,-0.2217 0.10452,-0.1046 0.33891,0.1045 0.44343,0 0.0523,-0.052 -0.0523,-0.1695 0,-0.2218 0.10452,-0.1045 0.31122,0.066 0.44342,0 0.0935,-0.047 0.12823,-0.1749 0.22172,-0.2217 0.1322,-0.066 0.31122,0.066 0.44342,0 0.18697,-0.093 0.25647,-0.3499 0.44343,-0.4434 0.0661,-0.033 0.14781,0 0.22171,0 0.0739,-0.074 0.12823,-0.175 0.22172,-0.2217 0.0661,-0.033 0.16945,0.052 0.22171,0 0.0523,-0.052 -0.0523,-0.1694 0,-0.2217 0.0523,-0.052 0.15561,0.033 0.22171,0 0.0935,-0.047 0.14781,-0.1478 0.22172,-0.2218 0.1304,-0.1303 0.78418,-0.8355 0.88685,-0.8868 0.0661,-0.033 0.16945,0.052 0.22171,0 0.10452,-0.1045 -0.10452,-0.3389 0,-0.4434 0.0523,-0.052 0.15561,0.033 0.22171,0 0.92272,-0.4614 -0.23702,0.015 0.22172,-0.4434 0.0523,-0.052 0.16945,0.052 0.22171,0 0.0523,-0.052 -0.0523,-0.1695 0,-0.2217 0.0523,-0.052 0.16946,0.052 0.22171,0 0.0523,-0.052 -0.0522,-0.1695 0,-0.2218 0.0523,-0.052 0.15562,0.033 0.22172,0 0.18696,-0.093 0.25646,-0.3499 0.44342,-0.4434 0.0661,-0.033 0.16946,0.052 0.22172,0 0.0523,-0.052 -0.0523,-0.1695 0,-0.2217 0.0523,-0.052 0.15561,0.033 0.22171,0 0.18697,-0.093 0.25646,-0.3499 0.44343,-0.4434 0.0661,-0.033 0.16945,0.052 0.22171,0 0.0523,-0.052 -0.0523,-0.1695 0,-0.2217 0.0523,-0.052 0.15561,0.033 0.22171,0 0.0935,-0.047 0.12824,-0.175 0.22172,-0.2217 0.0661,-0.033 0.16945,0.052 0.22171,0 0.0523,-0.052 -0.0523,-0.1695 0,-0.2218 0.10452,-0.1045 0.33891,0.1046 0.44343,0 0.0523,-0.052 -0.0523,-0.1694 0,-0.2217 0.10451,-0.1045 0.33891,0.1045 0.44342,0 0.0523,-0.052 -0.0523,-0.1694 0,-0.2217 0.10452,-0.1045 0.33891,0.1045 0.44343,0 0.0523,-0.052 -0.0331,-0.1556 0,-0.2217 0.46136,-0.9227 -0.0153,0.237 0.44343,-0.2217 0.0523,-0.052 -0.0523,-0.1695 0,-0.2218 0.0523,-0.052 0.16945,0.052 0.22171,0 0.0523,-0.052 -0.0523,-0.1694 0,-0.2216 0.0523,-0.052 0.16945,0.052 0.22171,0 0.0523,-0.052 -0.0523,-0.1695 0,-0.2218 0.10452,-0.1045 0.33891,0.1046 0.44343,0 0.0523,-0.052 -0.0523,-0.1694 0,-0.2217 0.0523,-0.052 0.16945,0.052 0.22171,0 0.0523,-0.052 -0.0523,-0.1694 0,-0.2217 0.0523,-0.052 0.16946,0.052 0.22171,0 0.0523,-0.052 -0.0331,-0.1556 0,-0.2217 0.0467,-0.094 0.14781,-0.1478 0.22172,-0.2217 0.0739,-0.074 0.12823,-0.175 0.22171,-0.2217 0.0661,-0.033 0.16945,0.052 0.22171,0 0.0523,-0.052 -0.0523,-0.1695 0,-0.2218 0.0523,-0.052 0.16946,0.052 0.22172,0 0.0523,-0.052 -0.0331,-0.1555 0,-0.2216 0.0467,-0.094 0.17497,-0.1283 0.22171,-0.2218 0.0331,-0.066 -0.0523,-0.1694 0,-0.2217 0.45873,-0.4587 -0.0179,0.701 0.44343,-0.2217 0.0331,-0.066 -0.0523,-0.1695 0,-0.2217 0.0523,-0.052 0.15561,0.033 0.22171,0 0.0935,-0.047 0.12823,-0.175 0.22171,-0.2217 0.0661,-0.033 0.16946,0.052 0.22172,0 0.0523,-0.052 -0.0523,-0.1695 0,-0.2217 0.0523,-0.052 0.16945,0.052 0.22171,0 0.0523,-0.052 -0.0523,-0.1695 0,-0.2218 0.10452,-0.1045 0.33891,0.1046 0.44342,0 0.0523,-0.052 -0.0523,-0.1694 0,-0.2216 0.10452,-0.1046 0.33892,0.1044 0.44343,0 0.0523,-0.052 -0.0523,-0.1695 0,-0.2218 0.11086,-0.1108 0.55429,0.1109 0.66514,0 0.0453,-0.045 -0.0439,-0.5772 0,-0.6651 0.0467,-0.093 0.17497,-0.1283 0.22172,-0.2217 0.0887,-0.1774 -0.0887,-0.4878 0,-0.6652 0.0467,-0.093 0.17497,-0.1282 0.22171,-0.2217 0.0661,-0.1322 -0.10452,-0.3389 0,-0.4434 0.0523,-0.052 0.16945,0.052 0.22171,0 0.10452,-0.1045 -0.0661,-0.3112 0,-0.4434 0.0467,-0.093 0.17497,-0.1282 0.22171,-0.2218 0.0887,-0.1773 -0.0887,-0.4877 0,-0.6651 0.0468,-0.093 0.17498,-0.1282 0.22172,-0.2217 0.0601,-0.1203 -0.0607,-0.8262 0,-0.8869 0.0523,-0.052 0.16945,0.052 0.22171,0 0.007,-0.01 0,-0.6113 0,-0.6651 0,-0.1542 0.0401,-1.0284 0,-1.1086 -0.0467,-0.093 -0.17497,-0.1282 -0.22171,-0.2217 -0.0292,-0.058 0,-0.7709 0,-0.8868 0,-0.6652 0,-1.3303 0,-1.9954"
         style="color:#000000;clip-rule:nonzero;display:inline;overflow:visible;visibility:visible;opacity:1;isolation:auto;mix-blend-mode:normal;color-interpolation:sRGB;color-interpolation-filters:linearRGB;solid-color:#000000;solid-opacity:1;fill:none;fill-opacity:1;fill-rule:evenodd;stroke:#000000;stroke-width:0.95133984;stroke-linecap:butt;stroke-linejoin:miter;stroke-miterlimit:4;stroke-dasharray:none;stroke-dashoffset:0;stroke-opacity:1;color-rendering:auto;image-rendering:auto;shape-rendering:auto;text-rendering:auto;enable-background:accumulate" />
      <path
         inkscape:connector-curvature="0"
         id="path5509"
         d="m 238.35835,1105.6392 c 0.94424,-0.5492 0.89816,-0.4435 1.77371,-0.4435 0.0739,0 0.14781,0 0.22171,0 0.0739,0 0.15561,0.033 0.22171,0 0.0935,-0.047 0.12824,-0.1749 0.22172,-0.2217 0.0879,-0.044 0.61981,0.045 0.66514,0 0.0523,-0.052 -0.0523,-0.1694 0,-0.2217 0.007,-0.01 0.61137,0 0.66513,0 0.36953,0 0.73905,0 1.10857,0 0.0739,0 0.16946,0.052 0.22172,0 0.0523,-0.052 -0.0523,-0.1695 0,-0.2217 0.0523,-0.052 0.1478,0 0.22171,0 0.0739,0 0.14781,0 0.22171,0 0.44343,0 0.88686,0 1.33028,0 0.0739,0 0.14781,0 0.22171,0 0.0739,0 0.15561,0.033 0.22172,0 0.0935,-0.047 0.12823,-0.175 0.22171,-0.2217 0.0675,-0.034 0.56529,0 0.66514,0 0.11594,0 0.82856,0.029 0.88685,0 0.0935,-0.047 0.12823,-0.175 0.22171,-0.2218 0.13936,-0.07 0.74751,0.07 0.88686,0 0.0935,-0.047 0.12823,-0.1749 0.22171,-0.2216 0.12028,-0.06 0.82619,0.061 0.88685,0 0.0523,-0.052 -0.0522,-0.1695 0,-0.2218 0.0607,-0.061 0.76658,0.06 0.88686,0 0.0935,-0.047 0.12823,-0.175 0.22171,-0.2217 0.0675,-0.034 0.56529,0 0.66514,0 0.44343,0 0.88685,0 1.33028,0 0.0739,0 0.14781,0 0.22171,0 0.0739,0 0.16946,0.052 0.22171,0 0.0523,-0.052 -0.0523,-0.1694 0,-0.2217 0.10452,-0.1045 0.33892,0.1045 0.44343,0 0.0523,-0.052 -0.0523,-0.1695 0,-0.2217 0.10452,-0.1045 0.31122,0.066 0.44343,0 0.0935,-0.047 0.12823,-0.175 0.22171,-0.2217 0.0661,-0.033 0.16945,0.052 0.22171,0 0.0523,-0.052 -0.0523,-0.1695 0,-0.2217 0.0523,-0.052 0.15561,0.033 0.22172,0 0.0935,-0.047 0.12823,-0.175 0.22171,-0.2218 0.0661,-0.033 0.15561,0.033 0.22171,0 0.0935,-0.047 0.12824,-0.1749 0.22172,-0.2216 0.1322,-0.066 0.33891,0.1044 0.44343,0 0.0522,-0.052 -0.0523,-0.1695 0,-0.2218 0.10451,-0.1045 0.3389,0.1046 0.44342,0 0.0523,-0.052 -0.0523,-0.1694 0,-0.2217 0.0523,-0.052 0.16945,0.052 0.22171,0 0.0523,-0.052 -0.0523,-0.1694 0,-0.2217 0.10452,-0.1045 0.31123,0.066 0.44343,0 0.0935,-0.047 0.12823,-0.175 0.22171,-0.2217 0.0661,-0.033 0.16946,0.052 0.22172,0 0.0523,-0.052 -0.0523,-0.1695 0,-0.2217 0.10451,-0.1046 0.3389,0.1045 0.44342,0 0.0523,-0.052 -0.0523,-0.1695 0,-0.2217 0.0523,-0.052 0.16946,0.052 0.22172,0 0.0523,-0.052 -0.0523,-0.1695 0,-0.2217 0.0523,-0.052 0.16945,0.052 0.22171,0 0.0523,-0.052 -0.0523,-0.1695 0,-0.2218 0.0523,-0.052 0.15561,0.033 0.22171,0 0.0935,-0.047 0.12823,-0.1749 0.22171,-0.2217 0.0661,-0.033 0.15562,0.033 0.22172,0 0.0935,-0.047 0.12823,-0.175 0.22171,-0.2217 0.0661,-0.033 0.16946,0.052 0.22172,0 0.0523,-0.052 -0.0523,-0.1694 0,-0.2217 0.0523,-0.052 0.16945,0.052 0.22171,0 0.0523,-0.052 -0.0523,-0.1695 0,-0.2217 0.45873,-0.4588 -0.0179,0.701 0.44342,-0.2217 0.0331,-0.066 -0.0523,-0.1695 0,-0.2218 0.0523,-0.052 0.15561,0.033 0.22172,0 0.0935,-0.047 0.12823,-0.1749 0.22171,-0.2216 0.0661,-0.033 0.16946,0.052 0.22171,0 0,-0.5913 -0.0739,0.074 0.22172,-0.2218 0.0523,-0.052 -0.0523,-0.1694 0,-0.2217 0.10451,-0.1045 0.31122,0.066 0.44342,0 0.18697,-0.093 0.25646,-0.3499 0.44343,-0.4434 0.0661,-0.033 0.16945,0.052 0.22171,0 0.0523,-0.052 -0.0523,-0.1695 0,-0.2217 0.0523,-0.052 0.15561,0.033 0.22171,0 0.0935,-0.047 0.12824,-0.175 0.22172,-0.2217 0.0661,-0.033 0.16946,0.052 0.22171,0 0.0523,-0.052 -0.0523,-0.1695 0,-0.2218 0.0523,-0.052 0.15561,0.033 0.22172,0 0.0935,-0.047 0.12823,-0.1749 0.22171,-0.2216 0.0661,-0.033 0.15561,0.033 0.22171,0 0.0935,-0.047 0.12823,-0.175 0.22171,-0.2218 0.0661,-0.033 0.16946,0.052 0.22172,0 0.0523,-0.052 -0.0523,-0.1695 0,-0.2217 0.0523,-0.052 0.16945,0.052 0.22171,0 0.0523,-0.052 -0.0523,-0.1694 0,-0.2217 0.0523,-0.052 0.15561,0.033 0.22171,0 0.0935,-0.047 0.12824,-0.175 0.22172,-0.2217 0.0661,-0.033 0.16945,0.052 0.22171,0 0.0523,-0.052 -0.0523,-0.1695 0,-0.2217 0.0523,-0.052 0.16946,0.052 0.22172,0 0.0523,-0.052 -0.0523,-0.1695 0,-0.2217 0.0523,-0.052 0.1556,0.033 0.22171,0 0.0935,-0.047 0.12823,-0.175 0.22171,-0.2218 0.0661,-0.033 0.16945,0.052 0.22171,0 0.0523,-0.052 -0.0523,-0.1694 0,-0.2217 0.10452,-0.1045 0.33891,0.1045 0.44343,0 0.0523,-0.052 -0.0523,-0.1694 0,-0.2217 0.0523,-0.052 0.16946,0.052 0.22171,0 0.0523,-0.052 -0.0523,-0.1694 0,-0.2217 0.10452,-0.1045 0.33891,0.1045 0.44343,0 0.0523,-0.052 -0.0523,-0.1694 0,-0.2217 0.10451,-0.1045 0.33891,0.1045 0.44343,0 0.0523,-0.052 -0.0523,-0.1695 0,-0.2217 0.10451,-0.1045 0.3389,0.1045 0.44342,0 0.0523,-0.052 -0.0523,-0.1695 0,-0.2217 0.10452,-0.1046 0.33891,0.1045 0.44343,0 0.0522,-0.052 -0.0523,-0.1695 0,-0.2218 0.10451,-0.1045 0.33891,0.1046 0.44343,0 0.0523,-0.052 -0.0523,-0.1694 0,-0.2217 0.11085,-0.1108 0.55428,0.1109 0.66513,0 0.0523,-0.052 -0.0523,-0.1694 0,-0.2217 0.10452,-0.1045 0.44343,0.1478 0.44343,0 0,-0.2739 -0.31093,-0.2217 -0.44343,-0.2217"
         style="color:#000000;clip-rule:nonzero;display:inline;overflow:visible;visibility:visible;opacity:1;isolation:auto;mix-blend-mode:normal;color-interpolation:sRGB;color-interpolation-filters:linearRGB;solid-color:#000000;solid-opacity:1;fill:none;fill-opacity:1;fill-rule:evenodd;stroke:#000000;stroke-width:0.95133984;stroke-linecap:butt;stroke-linejoin:miter;stroke-miterlimit:4;stroke-dasharray:none;stroke-dashoffset:0;stroke-opacity:1;color-rendering:auto;image-rendering:auto;shape-rendering:auto;text-rendering:auto;enable-background:accumulate" />
      <g
         transform="translate(-42,0)"
         id="g5672">
        <path
           inkscape:connector-curvature="0"
           id="path4792"
           d="m 341.70038,1095.2445 c -1.5633,-5.7284 7.72321,-9.6528 10.84578,-4.7201 1.965,3.6257 2.14295,8.7306 -1.01347,11.7637 -2.96262,2.5965 -6.62983,-0.523 -7.81694,-3.4331 -0.67421,-1.2021 -1.26798,-2.4504 -2.01537,-3.6105 z"
           style="fill:#000000" />
        <path
           inkscape:connector-curvature="0"
           id="path4796"
           d="m 356.05236,1095.6069 c 8.65876,1.1253 17.24196,3.0114 25.99521,3.2721 1.3031,0.3979 2.69479,0.3358 3.99926,0.7271"
           style="color:#000000;clip-rule:nonzero;display:inline;overflow:visible;visibility:visible;opacity:1;isolation:auto;mix-blend-mode:normal;color-interpolation:sRGB;color-interpolation-filters:linearRGB;solid-color:#000000;solid-opacity:1;fill:none;fill-opacity:1;fill-rule:evenodd;stroke:#000000;stroke-width:0.95133984;stroke-linecap:butt;stroke-linejoin:miter;stroke-miterlimit:4;stroke-dasharray:none;stroke-dashoffset:0;stroke-opacity:1;color-rendering:auto;image-rendering:auto;shape-rendering:auto;text-rendering:auto;enable-background:accumulate" />
        <path
           inkscape:connector-curvature="0"
           id="path4798"
           d="m 385.68326,1096.8794 c 4.94273,0.4053 9.31598,3.3172 14.32245,3.4282 5.40126,0.9714 10.75124,2.2931 16.06269,3.6281 3.96354,0.3576 3.0395,4.6521 2.03132,7.2159 -0.7844,1.1379 -2.06063,1.8136 -3.3309,2.2702"
           style="color:#000000;clip-rule:nonzero;display:inline;overflow:visible;visibility:visible;opacity:1;isolation:auto;mix-blend-mode:normal;color-interpolation:sRGB;color-interpolation-filters:linearRGB;solid-color:#000000;solid-opacity:1;fill:none;fill-opacity:1;fill-rule:evenodd;stroke:#000000;stroke-width:0.95133984;stroke-linecap:butt;stroke-linejoin:miter;stroke-miterlimit:4;stroke-dasharray:none;stroke-dashoffset:0;stroke-opacity:1;color-rendering:auto;image-rendering:auto;shape-rendering:auto;text-rendering:auto;enable-background:accumulate" />
        <path
           inkscape:connector-curvature="0"
           id="path4800"
           d="m 386.77397,1103.6054 c 6.51474,2.0618 13.39412,2.5935 20.17427,2.6494 5.60365,1.0551 11.36451,1.3628 16.82938,3.0871 -0.35415,2.6704 1.26369,6.5772 -2.46456,7.5338"
           style="color:#000000;clip-rule:nonzero;display:inline;overflow:visible;visibility:visible;opacity:1;isolation:auto;mix-blend-mode:normal;color-interpolation:sRGB;color-interpolation-filters:linearRGB;solid-color:#000000;solid-opacity:1;fill:none;fill-opacity:1;fill-rule:evenodd;stroke:#000000;stroke-width:0.95133984;stroke-linecap:butt;stroke-linejoin:miter;stroke-miterlimit:4;stroke-dasharray:none;stroke-dashoffset:0;stroke-opacity:1;color-rendering:auto;image-rendering:auto;shape-rendering:auto;text-rendering:auto;enable-background:accumulate" />
        <path
           inkscape:connector-curvature="0"
           id="path4802"
           d="m 358.57663,1094.9512 c 2.05253,3.8179 3.40541,8.9306 5.05563,13.4637 0.98147,4.0669 -0.25757,8.3448 -0.75076,12.3105 -0.36764,3.0684 -1.33454,6.9025 -3.10638,6.2087 -1.1025,0.3685 -2.28797,0.7055 -3.36453,1.5023"
           style="color:#000000;clip-rule:nonzero;display:inline;overflow:visible;visibility:visible;opacity:1;isolation:auto;mix-blend-mode:normal;color-interpolation:sRGB;color-interpolation-filters:linearRGB;solid-color:#000000;solid-opacity:1;fill:none;fill-opacity:1;fill-rule:evenodd;stroke:#000000;stroke-width:0.95133984;stroke-linecap:butt;stroke-linejoin:miter;stroke-miterlimit:4;stroke-dasharray:none;stroke-dashoffset:0;stroke-opacity:1;color-rendering:auto;image-rendering:auto;shape-rendering:auto;text-rendering:auto;enable-background:accumulate" />
        <path
           inkscape:connector-curvature="0"
           id="path4804"
           d="m 355.57011,1094.4594 c 0.60379,5.423 3.72066,10.3101 2.50107,16.0628 -0.45427,3.7065 0.2248,8.3747 -1.85635,11.1298 -1.50092,1.1558 -3.16327,1.7136 -4.57496,3.2778"
           style="color:#000000;clip-rule:nonzero;display:inline;overflow:visible;visibility:visible;opacity:1;isolation:auto;mix-blend-mode:normal;color-interpolation:sRGB;color-interpolation-filters:linearRGB;solid-color:#000000;solid-opacity:1;fill:none;fill-opacity:1;fill-rule:evenodd;stroke:#000000;stroke-width:0.95133984;stroke-linecap:butt;stroke-linejoin:miter;stroke-miterlimit:4;stroke-dasharray:none;stroke-dashoffset:0;stroke-opacity:1;color-rendering:auto;image-rendering:auto;shape-rendering:auto;text-rendering:auto;enable-background:accumulate" />
        <path
           inkscape:connector-curvature="0"
           id="path4806"
           d="m 361.32412,1099.2426 c -1.96724,-1.3314 -3.47274,-3.2341 -5.45354,-4.5447"
           style="color:#000000;clip-rule:nonzero;display:inline;overflow:visible;visibility:visible;opacity:1;isolation:auto;mix-blend-mode:normal;color-interpolation:sRGB;color-interpolation-filters:linearRGB;solid-color:#000000;solid-opacity:1;fill:none;fill-opacity:1;fill-rule:evenodd;stroke:#000000;stroke-width:0.95133984;stroke-linecap:butt;stroke-linejoin:miter;stroke-miterlimit:4;stroke-dasharray:none;stroke-dashoffset:0;stroke-opacity:1;color-rendering:auto;image-rendering:auto;shape-rendering:auto;text-rendering:auto;enable-background:accumulate" />
      </g>
    </g>
  </g>
</svg>
