<?xml version="1.0" encoding="UTF-8" standalone="no"?>
<!-- Created with Inkscape (http://www.inkscape.org/) -->

<svg
   xmlns:dc="http://purl.org/dc/elements/1.1/"
   xmlns:cc="http://creativecommons.org/ns#"
   xmlns:rdf="http://www.w3.org/1999/02/22-rdf-syntax-ns#"
   xmlns:svg="http://www.w3.org/2000/svg"
   xmlns="http://www.w3.org/2000/svg"
   xmlns:sodipodi="http://sodipodi.sourceforge.net/DTD/sodipodi-0.dtd"
   xmlns:inkscape="http://www.inkscape.org/namespaces/inkscape"
   width="50mm"
   height="26.60183mm"
   viewBox="0 0 177.16535 94.258452"
   id="svg2"
   version="1.1"
   inkscape:version="0.91 r13725"
   sodipodi:docname="ponte.svg">
  <title
     id="title4147">Ponte</title>
  <defs
     id="defs4" />
  <sodipodi:namedview
     id="base"
     pagecolor="#ffffff"
     bordercolor="#666666"
     borderopacity="1.0"
     inkscape:pageopacity="0.0"
     inkscape:pageshadow="2"
     inkscape:zoom="1.979899"
     inkscape:cx="86.110515"
     inkscape:cy="129.66585"
     inkscape:document-units="px"
     inkscape:current-layer="layer1"
     showgrid="false"
     fit-margin-top="0"
     fit-margin-left="0"
     fit-margin-right="0"
     fit-margin-bottom="0"
     inkscape:window-width="1366"
     inkscape:window-height="706"
     inkscape:window-x="-8"
     inkscape:window-y="-8"
     inkscape:window-maximized="1" />
  <metadata
     id="metadata7">
    <rdf:RDF>
      <cc:Work
         rdf:about="">
        <dc:format>image/svg+xml</dc:format>
        <dc:type
           rdf:resource="http://purl.org/dc/dcmitype/StillImage" />
        <dc:title>Ponte</dc:title>
      </cc:Work>
    </rdf:RDF>
  </metadata>
  <g
     inkscape:label="Livello 1"
     inkscape:groupmode="layer"
     id="layer1"
     transform="translate(319.85715,-1059.1752)">
    <g
       id="g4176">
      <path
         style="fill:#c8c8c8"
         d="m -233.55753,1145.1227 c -0.31042,-0.1115 -1.41476,-0.2027 -2.4541,-0.2027 -1.84536,0 -10.76071,-1.0154 -13.56659,-1.5452 -0.77501,-0.1463 -4.06261,-0.4067 -7.30578,-0.5785 -3.24318,-0.1719 -7.24737,-0.41 -8.89822,-0.5292 -2.59691,-0.1874 -3.92678,-0.1311 -9.86501,0.4176 -7.06739,0.6531 -9.77178,0.6633 -11.2157,0.043 -0.43621,-0.1876 -1.05575,-1.2532 -1.37675,-2.3681 -0.32101,-1.1149 -1.04991,-3.3677 -1.61979,-5.0063 -1.24867,-3.5902 -0.69966,-4.0965 4.79854,-4.4252 1.94153,-0.116 4.53479,-0.4131 5.76281,-0.6601 6.13831,-1.2348 18.1938,-6.1464 21.99915,-8.9628 12.47104,-9.2301 27.28948,-18.0862 29.925,-17.8846 2.17154,0.1662 1.22807,1.9948 -1.85537,3.5961 -5.32403,2.7648 -11.01159,6.193 -14.32639,8.6352 -1.79912,1.3255 -3.91978,2.7749 -4.71256,3.2208 -0.79279,0.446 -2.84565,1.9055 -4.56192,3.2433 -3.76326,2.9336 -12.70575,7.061 -19.96137,9.2132 -3.97519,1.1792 -6.09784,1.613 -9.68024,1.9785 -4.35141,0.4439 -4.56486,0.502 -4.12987,1.1248 0.25229,0.3612 0.7115,1.797 1.02047,3.1906 0.30897,1.3936 0.78137,2.739 1.04977,2.9899 0.63699,0.5953 2.64528,0.5801 9.16791,-0.069 4.68533,-0.4665 5.73789,-0.5017 9.38658,-0.3138 2.26022,0.1164 6.4475,0.3126 9.30505,0.4359 2.85755,0.1234 6.14515,0.3889 7.30579,0.59 4.47076,0.7749 15.02911,1.8312 18.36531,1.8374 3.0627,0.01 6.93453,-0.6019 9.86937,-1.5487 1.60784,-0.5188 3.73886,-1.1242 4.7356,-1.3454 1.0049,-0.2231 2.00498,-0.7818 2.24488,-1.2543 0.40178,-0.7912 0.27878,-0.8506 -1.72457,-0.8334 -2.12417,0.018 -2.15669,-0.011 -2.12368,-1.9072 0.038,-2.1824 0.7893,-3.0406 2.66201,-3.0406 0.70999,0 1.57176,-0.2052 1.91504,-0.4561 1.14748,-0.8385 4.95772,-1.7737 7.22663,-1.7737 4.91875,0 9.64821,2.2412 9.59535,4.5471 -0.0771,3.3619 -3.62343,6.3467 -9.36151,7.8792 -4.51443,1.2056 -7.0792,1.2336 -8.3509,0.091 -0.46529,-0.4181 -1.14992,-0.7602 -1.52141,-0.7602 -0.37148,0 -2.0037,0.3723 -3.62715,0.8273 -4.80943,1.3478 -12.40472,2.2128 -14.09638,1.6052 z m 25.76086,-3.6994 c 1.03335,-0.2508 2.49323,-0.7297 3.24419,-1.0642 1.97398,-0.8792 4.32761,-3.3583 4.32761,-4.5583 0,-1.1892 -2.86384,-2.6378 -5.21483,-2.6378 -0.83864,0 -3.09052,0.384 -5.00416,0.8534 -3.36374,0.825 -4.45291,1.6243 -2.56614,1.8832 0.50227,0.069 0.91322,0.3524 0.91322,0.6301 0,0.2777 0.62578,0.7735 1.39061,1.1018 1.13503,0.4872 1.22023,0.8299 0.46351,1.8649 -1.12773,1.5425 -1.19364,2.383 -0.18685,2.383 0.41471,0 1.5995,-0.2052 2.63284,-0.4561 z m -97.17248,-6.5374 c -2.07726,-0.3229 -4.07221,-1.4959 -5.74536,-3.3779 -1.06669,-1.1999 0.0489,-5.3451 1.95494,-7.2641 0.49832,-0.5017 1.27191,-1.9684 1.71908,-3.2594 0.90978,-2.6265 3.73717,-4.9069 8.22343,-6.6327 3.2348,-1.2443 4.62343,-1.4226 7.65071,-0.9823 4.2172,0.6133 5.10034,3.2555 3.26215,9.7596 -1.7212,6.0901 -7.16285,11.1916 -12.63077,11.8411 -2.31126,0.2746 -2.10016,0.2786 -4.43418,-0.084 z m 142.8007,-1.1087 c -1.92239,-0.082 -4.3881,-0.3489 -5.47935,-0.5919 -1.88711,-0.4203 -1.98283,-0.6149 -1.95845,-3.9821 l 0.0256,-3.5403 -2.39546,0 c -1.31751,0 -3.03505,-0.1596 -3.81676,-0.3548 -3.6333,-0.9068 -3.74572,-1.52 -2.63705,-14.3854 0.58398,-6.7766 1.0559,-14.5502 1.04869,-17.2747 l -0.0131,-4.9535 -2.82984,0.5953 c -1.5564,0.3275 -3.74478,1.0059 -4.86305,1.5076 -1.11827,0.5017 -4.61874,1.8671 -7.7788,3.0343 -6.93417,2.5612 -17.32446,7.7907 -21.96196,11.0538 -3.74499,2.635 -8.22679,3.7162 -9.61003,2.3183 -0.48318,-0.4883 0.1667,-0.9753 3.04309,-2.2804 2.01162,-0.9128 4.05481,-1.9788 4.54043,-2.369 3.45849,-2.7791 15.1006,-8.6151 21.38397,-10.7195 1.45859,-0.4885 4.2934,-1.6129 6.29958,-2.4985 2.00617,-0.8857 5.37388,-2.0257 7.48379,-2.5334 l 3.83621,-0.9231 0.45661,-3.9772 c 0.25113,-2.1874 0.24286,-4.3876 -0.0184,-4.8893 l -0.47499,-0.9122 -3.0674,1.3176 c -1.68707,0.7246 -4.17721,1.6368 -5.53364,2.027 -5.75109,1.6545 -9.49404,3.5033 -20.7238,10.2363 -2.23102,1.3377 -6.55172,3.4813 -9.60156,4.7636 -3.04984,1.2824 -6.25471,2.7876 -7.12195,3.3451 -0.88529,0.569 -2.1393,1.0135 -2.85948,1.0135 -3.65376,0 -0.0849,-3.1942 6.03231,-5.399 3.22745,-1.1633 8.66641,-3.7067 8.66641,-4.0527 0,-0.105 1.81429,-1.2139 4.03175,-2.4643 2.21747,-1.2504 5.48237,-3.0944 7.25535,-4.0978 3.7721,-2.1348 8.96672,-4.364 12.54862,-5.3852 1.39474,-0.3977 4.8287,-1.76 7.63102,-3.0274 2.80231,-1.2674 5.31554,-2.3533 5.58493,-2.4131 1.70807,-0.3791 2.07714,1.0775 1.57375,6.2115 -0.36576,3.7303 -0.24627,5.7291 0.34251,5.7291 0.49734,0 2.49182,-0.6026 4.43217,-1.339 1.94035,-0.7365 4.10626,-1.3883 4.81311,-1.4485 1.96085,-0.167 3.03339,0.3668 2.54608,1.2672 -0.65178,1.2043 -2.70845,20.5694 -3.7244,35.0682 -0.26561,3.7906 -0.72247,8.4121 -1.01524,10.27 l -0.53231,3.378 2.43981,0.3549 c 1.46257,0.2127 4.31674,0.3617 7.12583,0.372 4.47506,0.017 4.71192,0.045 5.26113,0.6402 0.31631,0.3426 0.24416,0.8215 -0.16031,1.0642 -0.79446,0.4767 -3.37857,0.5385 -10.22547,0.2446 z m -6.68643,-15.1584 c 0.33446,-2.5363 0.99601,-8.8076 1.4701,-13.936 0.4741,-5.1285 1.14535,-11.6734 1.49168,-14.5442 0.36522,-3.0275 0.28765,-5.2182 -0.18472,-5.2162 -0.44792,0 -2.35546,0.5783 -4.23898,1.2808 l -3.42459,1.2771 0.0189,6.3715 c 0.0104,3.5043 -0.47693,11.3925 -1.08293,17.5293 -0.60601,6.1368 -0.83288,11.3134 -0.50417,11.5036 0.37142,0.2148 1.59118,0.3457 3.22215,0.3457 l 2.62448,0 0.6081,-4.6116 z m -118.12622,7.5163 c 0,-1.5226 13.26529,-6.7521 20.78626,-8.1944 1.97932,-0.3796 4.08537,-0.8954 4.68012,-1.1462 1.49731,-0.6315 5.30435,-0.611 6.63192,0.036 1.26075,0.6142 0.32038,1.5113 -1.76084,1.6798 -2.85641,0.2313 -11.26307,2.1638 -15.69109,3.6071 -2.39704,0.7813 -6.06123,2.1724 -8.14267,3.0913 -4.15939,1.8363 -6.5037,2.1703 -6.5037,0.9267 z m 61.22118,-1.9831 c -2.16276,-0.5784 -3.6881,-2.2305 -3.6881,-3.9944 0,-1.1333 -0.35779,-1.7921 -0.97326,-1.7921 -1.98811,0 -4.25328,0.404 -6.75132,1.2041 -2.80107,0.8972 -5.47327,1.0669 -6.2616,0.3978 -1.05257,-0.8934 5.31518,-3.0407 10.74846,-3.6246 4.25422,-0.4571 5.06416,-0.7169 5.06416,-1.6244 0,-0.3154 1.23253,-1.1517 2.73895,-1.8585 1.50643,-0.7068 2.73928,-1.3839 2.73967,-1.5046 4e-4,-0.1207 1.70751,-0.5239 3.79358,-0.896 l 3.79285,-0.6765 2.69063,0.6684 c 2.12511,0.5279 2.57862,0.7927 2.15767,1.2599 -0.29314,0.3253 -0.0562,0.9872 0.52663,1.4709 1.64004,1.3611 -0.21733,5.4889 -3.03564,6.7464 -1.49461,0.6669 -2.86779,1 -4.44565,1.0784 -2.02031,0.1003 -2.35938,0.2523 -2.94619,1.3205 -1.06832,1.9448 -3.26519,2.5965 -6.15084,1.8247 z m 1.75132,-3.1955 c -1.2002,-0.827 -1.27564,-0.8405 -1.59448,-0.2861 -0.4945,0.8599 0.57242,1.6606 1.83828,1.3796 0.74586,-0.1656 0.68104,-0.4563 -0.2438,-1.0935 z m 8.4925,-2.3377 c 0.78644,-0.1951 1.93198,-0.9259 2.54566,-1.6241 1.10128,-1.253 1.08455,-1.2759 -1.28834,-1.764 -2.9334,-0.6035 -2.99243,-0.9162 -0.36426,-1.9298 2.35879,-0.9098 1.64468,-1.2378 -1.71076,-0.7859 -1.44984,0.1953 -3.36296,0.846 -5.04051,1.7143 -2.2688,1.1745 -2.65003,1.6078 -2.36972,2.6936 0.27208,1.0539 0.72463,1.3642 2.43894,1.6723 2.62106,0.4712 3.9631,0.4766 5.78899,0.024 z"
         id="path4184"
         inkscape:connector-curvature="0" />
      <path
         style="fill:#b1b1b1"
         d="m -232.60088,1144.9356 c -0.28654,-0.1029 -1.85186,-0.2515 -3.47849,-0.3302 -1.62662,-0.079 -6.17971,-0.5483 -10.11796,-1.0436 -6.22899,-0.7833 -11.52365,-1.1786 -21.63886,-1.6156 -1.3747,-0.059 -4.4827,0.1126 -7.64773,0.4233 -8.77136,0.8611 -11.49718,0.6225 -11.49718,-1.006 l 0,-0.7453 1.70556,0.4676 1.70556,0.4675 6.95808,-0.6115 6.95809,-0.6114 8.45929,0.3718 c 4.65261,0.2045 9.49928,0.5409 10.77038,0.7477 3.32545,0.5409 9.76305,1.2652 15.04016,1.6922 4.25757,0.3445 4.7891,0.3473 7.86591,0.042 1.88895,-0.1875 4.79454,-0.7748 6.79584,-1.3735 1.92283,-0.5752 4.26121,-1.1868 5.19642,-1.359 0.97423,-0.1794 1.97196,-0.7237 2.33639,-1.2747 0.76673,-1.1592 2.64294,-1.1903 2.03912,-0.034 -0.78188,1.4974 -0.51659,3.0024 0.54327,3.082 0.56822,0.043 2.38107,-0.3001 4.02855,-0.7618 3.29642,-0.9239 6.00085,-2.7481 7.32301,-4.9397 0.76989,-1.2762 0.6486,-1.4993 -1.33917,-2.4631 -2.75794,-1.3371 -5.17279,-1.5593 -8.7288,-0.8031 -2.15837,0.459 -2.61873,0.4903 -3.10149,0.2111 -0.83697,-0.4842 1.6523,-1.6418 4.38478,-2.0392 2.26482,-0.3294 2.47678,-0.3277 4.28296,0.035 2.58057,0.518 5.19624,1.6998 5.85016,2.6433 0.85918,1.2395 -1.06495,5.3114 -3.23199,6.8396 -1.44059,1.0158 -3.04728,1.6485 -5.87124,2.312 -2.22649,0.523 -4.32852,0.8529 -4.919,0.7719 -0.56711,-0.078 -1.46906,-0.5025 -2.00435,-0.9437 -0.53527,-0.4413 -1.34952,-0.8023 -1.80943,-0.8023 -0.4599,0 -2.30451,0.4268 -4.09912,0.9485 -4.52185,1.3146 -11.31482,2.2209 -12.75872,1.7023 z m 15.42103,-7.132 c -0.84873,-0.3048 0.51023,-4.0076 1.52176,-4.1464 1.47546,-0.2024 1.97852,0.5075 0.8052,1.1363 -0.95449,0.5115 -0.91137,0.6659 0.26773,0.9592 1.35145,0.3361 1.90326,0.8177 1.68032,1.4664 -0.14322,0.4167 -3.47414,0.8721 -4.27501,0.5845 z m -71.44967,-3.323 c 0.0186,-0.3345 0.22328,-0.4467 0.45482,-0.2495 0.23155,0.1972 0.21632,0.4709 -0.0338,0.6081 -0.25016,0.1372 -0.4396,-0.024 -0.42099,-0.3586 z m -16.92051,-0.064 c -0.82541,-0.2025 -2.36273,-1.1369 -3.41626,-2.0765 -1.78851,-1.595 -1.84498,-1.8898 -0.8518,-4.4461 0.58504,-1.5059 1.64765,-3.422 2.36135,-4.2582 0.71369,-0.8361 1.2977,-1.9233 1.29779,-2.4159 4e-4,-2.3181 5.00263,-6.0074 9.917,-7.3141 l 2.5892,-0.6884 2.34945,0.5215 c 3.28412,0.729 3.78655,1.7929 3.09394,6.5517 -0.65479,4.4988 -1.55376,6.4761 -4.37793,9.6291 -3.66337,4.09 -8.20215,5.6645 -12.96274,4.4969 z m 144.67317,-0.8409 c -5.04363,-0.181 -8.29841,-0.9436 -8.29841,-1.9443 0,-0.384 0.41095,-0.6982 0.91322,-0.6982 0.50227,0 0.91323,0.093 0.91323,0.2057 0,0.1132 1.33558,0.3904 2.96797,0.6162 2.26993,0.314 3.86729,0.3823 6.79171,0.2906 3.28061,-0.1029 3.97265,-0.058 4.87208,0.3149 0.57658,0.2391 0.80009,0.6543 0.49668,0.9227 -0.59413,0.5254 -1.40427,0.5528 -8.65648,0.2924 z m -128.31856,-0.1609 c -0.28895,-0.064 -0.52535,-0.4207 -0.52535,-0.7923 0,-0.7179 2.61387,-1.4865 5.05485,-1.4865 1.63791,0 5.86077,-0.5692 7.49869,-1.0108 6.74237,-1.8176 17.42473,-6.3556 20.79579,-8.8343 11.68571,-8.5923 26.34223,-17.5203 28.76212,-17.5203 2.17646,0 0.43581,1.4873 -5.94274,5.0779 -3.76404,2.1188 -8.49846,5.0585 -10.52093,6.5326 -2.02248,1.4742 -4.45992,3.1364 -5.41655,3.6938 -0.95663,0.5575 -3.08233,2.0626 -4.72378,3.3447 -5.13115,4.0079 -19.49482,9.6496 -26.66217,10.4723 -3.64351,0.4182 -7.6555,0.6704 -8.31993,0.5229 z m 121.07756,-3.9005 c 0,-0.2787 0.20728,-0.3927 0.46062,-0.2534 0.25334,0.1394 0.25334,0.3674 0,0.5068 -0.25334,0.1393 -0.46062,0.025 -0.46062,-0.2534 z m 0.0123,-2.4923 -0.15656,-1.7829 -3.1955,0.1331 c -3.07931,0.1282 -3.2612,0.1009 -5.00268,-0.751 -1.96393,-0.9607 -2.38236,-1.9016 -0.93401,-2.1003 0.50227,-0.069 0.91322,0.011 0.91322,0.1763 0,0.486 2.28265,0.855 5.12369,0.8283 l 2.63871,-0.025 0.45661,-1.8422 c 0.25114,-1.0131 0.76483,-1.9101 1.14153,-1.9932 0.80706,-0.178 0.73009,2.5659 -0.17962,6.4031 -0.58286,2.4585 -0.66468,2.5554 -0.80535,0.9537 z m -117.61953,-1.3482 c 1.25001,-1.7352 11.94639,-5.6805 21.14892,-7.8007 4.96573,-1.1441 6.37476,-1.3658 7.59869,-1.1958 2.50223,0.3476 2.39983,1.2093 -0.18845,1.5857 -8.15334,1.1859 -17.75463,3.895 -24.36235,6.8743 -3.36932,1.5192 -5.06048,1.7354 -4.19681,0.5365 z m 59.64246,-2.1462 c -0.84643,-0.394 -1.53898,-0.997 -1.53898,-1.3401 l 0,-0.6237 1.67855,0.4602 c 1.97877,0.5424 3.8008,0.3823 3.8008,-0.3339 0,-0.6448 -3.15158,-2.0223 -4.98383,-2.1784 -0.84081,-0.072 -1.40874,-0.3677 -1.40874,-0.7345 0,-0.5131 -0.36076,-0.6145 -2.18721,-0.6145 -2.10938,0 -3.23581,0.2078 -8.24451,1.5203 -1.94988,0.511 -2.46679,0.5596 -3.23621,0.3041 -1.28442,-0.4265 -1.33249,-0.3947 2.65187,-1.7557 2.70338,-0.9235 4.62487,-1.3357 7.74401,-1.6611 4.15078,-0.4331 4.43808,-0.5367 5.42091,-1.9549 0.87858,-1.2678 5.55603,-3.3916 8.6074,-3.9082 l 3.00178,-0.5082 2.2912,0.4778 c 3.03755,0.6334 2.64824,1.2962 -0.77763,1.3239 -3.24016,0.026 -6.70113,0.7475 -8.06926,1.6816 -0.58832,0.4017 -1.62762,0.9103 -2.30956,1.1302 -1.46918,0.4738 -1.61513,2.13 -0.28162,3.1958 1.64156,1.3121 7.0495,1.5871 10.01042,0.5092 0.99528,-0.3624 1.81115,-0.8184 1.81302,-1.0135 0.002,-0.1952 0.43954,-0.3548 0.97259,-0.3548 0.63681,0 0.75072,0.3302 0.33215,0.9629 -1.13144,1.7101 -3.62662,2.6858 -6.86831,2.6858 -2.29886,0 -2.81389,0.271 -3.13225,1.6477 -0.25427,1.0997 -1.46459,1.7983 -3.11535,1.7983 -0.34775,0 -1.3248,-0.3223 -2.17124,-0.7163 z m 48.77895,-10.9562 c 0.0499,-3.4468 0.42079,-7.0423 0.82431,-7.99 0.41877,-0.9835 0.5299,1.6701 0.25893,6.1826 -0.26111,4.348 -0.63204,7.9435 -0.82431,7.99 -0.19226,0.046 -0.30878,-2.7357 -0.25893,-6.1826 z m 10.23781,4.4765 c 0.005,-0.669 0.17561,-0.9182 0.37886,-0.5538 0.20324,0.3643 0.19905,0.9116 -0.009,1.2162 -0.20838,0.3046 -0.37467,0.01 -0.36954,-0.6624 z m -44.02668,-1.576 c -0.0501,-0.1979 -1.11841,-0.4465 -2.37409,-0.5525 -2.93381,-0.2475 -2.93991,-0.8261 -0.0164,-1.5596 1.91469,-0.4805 2.40879,-0.5216 3.1823,-0.2647 0.50363,0.1672 0.88101,0.6233 0.83863,1.0135 -0.0865,0.7962 -1.47922,1.9608 -1.6304,1.3633 z m -12.48461,-8.342 c -0.69431,-0.6141 0.15683,-1.2308 2.95775,-2.1431 1.19801,-0.3902 2.94784,-1.2567 3.8885,-1.9257 4.89563,-3.4814 15.27907,-8.7794 21.25455,-10.8448 1.77405,-0.6132 4.77481,-1.799 6.66836,-2.6351 1.89355,-0.8362 5.23074,-1.9621 7.41597,-2.5021 2.18523,-0.54 4.3988,-1.3326 4.91903,-1.7614 0.53083,-0.4376 1.65552,-0.8298 2.56315,-0.8937 0.8895,-0.063 3.22336,-0.7295 5.18637,-1.4818 1.96299,-0.7524 3.99653,-1.4326 4.51897,-1.5115 1.95985,-0.2963 2.55138,0.2393 1.76529,1.5982 -0.63157,1.0918 -1.12441,1.3832 -2.33939,1.3832 -1.83965,0 -8.80632,2.3095 -9.58985,3.1791 -0.31729,0.3521 -1.34392,0.6719 -2.46937,0.7692 -3.08874,0.2669 -6.36478,1.1946 -11.0516,3.1295 -2.40785,0.9941 -5.38042,2.1344 -6.60571,2.5339 -4.94671,1.6129 -13.2723,5.842 -20.78402,10.5576 -4.73549,2.9728 -7.02363,3.6755 -8.298,2.5485 z m 47.38837,-5.9945 c 0,-0.7247 0.16575,-1.0211 0.36833,-0.6588 0.20257,0.3624 0.20257,0.9553 0,1.3176 -0.20258,0.3623 -0.36833,0.066 -0.36833,-0.6588 z m -51.43282,-3.1206 c 0,-0.7249 4.16872,-3.1829 7.25587,-4.2782 4.1264,-1.464 6.38035,-2.5631 11.0158,-5.3717 10.61095,-6.429 15.5098,-8.8185 22.47603,-10.9628 1.65961,-0.5108 4.93445,-1.8089 7.27741,-2.8846 2.34296,-1.0757 4.61884,-1.9066 5.05751,-1.8465 0.90545,0.1243 0.92047,1.8031 0.0216,2.4166 -0.32664,0.223 -1.14265,0.4055 -1.81336,0.4055 -0.67071,0 -2.74645,0.6385 -4.61277,1.4189 -1.86632,0.7804 -4.8658,1.875 -6.6655,2.4325 -5.58918,1.7312 -9.46051,3.6593 -20.96008,10.4394 -3.96755,2.3392 -9.23892,4.8772 -11.82636,5.694 -0.91472,0.2887 -2.5334,1.0413 -3.59704,1.6723 -1.80942,1.0735 -3.62915,1.507 -3.62915,0.8646 z"
         id="path4182"
         inkscape:connector-curvature="0" />
      <path
         style="fill:#909090"
         d="m -232.57141,1144.7435 c -0.27032,-0.097 -1.72436,-0.2313 -3.2312,-0.2982 -1.50683,-0.067 -5.52215,-0.47 -8.92293,-0.8959 -7.47793,-0.9363 -9.71456,-1.1272 -18.3764,-1.5679 l -6.71382,-0.3417 -5.40372,0.5383 c -6.76453,0.6739 -10.27774,0.6299 -10.67501,-0.1335 -0.24913,-0.4787 0.0257,-0.5426 2.28306,-0.5313 1.41145,0.01 5.19887,-0.2263 8.41648,-0.5187 4.82774,-0.4386 6.42381,-0.4987 9.13223,-0.344 1.80512,0.1031 5.54227,0.2881 8.30477,0.4112 2.7625,0.1231 7.24803,0.5376 9.96784,0.9212 2.71982,0.3835 7.70689,0.9316 11.08238,1.2179 l 6.13727,0.5205 3.76878,-0.436 c 2.07283,-0.2398 4.89381,-0.8016 6.26886,-1.2483 5.60021,-1.8196 7.52282,-1.9949 7.52282,-0.6862 0,0.6603 0.41311,0.9262 1.59814,1.0287 2.12987,0.1842 7.80417,-1.2627 9.40872,-2.3992 1.3243,-0.9379 2.86573,-1.4662 2.08538,-0.7147 -2.33648,2.25 -4.10565,3.1711 -7.50717,3.9084 -1.97656,0.4284 -4.04072,0.7176 -4.587,0.6426 -0.54629,-0.075 -1.25543,-0.5002 -1.57588,-0.945 -0.74992,-1.0409 -2.42091,-0.9845 -6.56643,0.222 -4.33913,1.2627 -11.02239,2.1507 -12.41717,1.6498 z m 15.55042,-7.4411 c -0.80753,-0.4671 0.35253,-1.3015 1.80954,-1.3015 1.74341,0 2.66318,0.9499 1.27838,1.3202 -1.44912,0.3876 -2.39541,0.3819 -3.08792,-0.019 z m -88.10609,-2.9416 c -0.9785,-0.2331 -2.31315,-0.9857 -2.96588,-1.6723 -1.33428,-1.4036 -1.73846,-4.6805 -0.72904,-5.9107 0.36591,-0.446 1.10957,-1.6774 1.65257,-2.7366 0.543,-1.0591 1.44624,-2.7922 2.00719,-3.8514 1.42496,-2.6905 6.91485,-6.0446 10.75593,-6.5716 1.65857,-0.2275 3.69003,0.1249 4.72244,0.8193 1.29699,0.8723 1.23454,7.4238 -0.10025,10.5159 -1.88228,4.3604 -6.46936,8.4523 -10.61514,9.4691 -1.89301,0.4643 -2.55629,0.4557 -4.72782,-0.062 z m 103.71047,-0.9827 c -2.16438,-0.8133 -4.83121,-0.9709 -7.39213,-0.4369 -2.75128,0.5737 -3.60835,0.5339 -2.86273,-0.1329 0.7126,-0.6373 3.89741,-1.4696 5.62336,-1.4696 1.58448,0 5.71202,1.2341 6.70956,2.0062 1.02589,0.794 -0.009,0.8105 -2.07806,0.033 z m 40.72151,4e-4 c -4.78017,-0.1732 -7.56695,-0.7097 -7.56695,-1.457 l 0,-0.5706 3.36498,0.5069 c 2.60008,0.3916 4.31268,0.4939 7.5341,0.4499 4.09733,-0.056 4.17403,-0.046 4.45528,0.6019 0.31715,0.7302 -0.0147,0.7502 -7.78741,0.4688 z m -128.11245,-0.9001 c 0,-0.7582 1.03,-1.0173 4.84974,-1.2201 7.28268,-0.3866 21.5802,-5.3915 27.69956,-9.6964 10.58761,-7.4483 16.40095,-11.2767 20.85957,-13.7372 6.05038,-3.3389 7.11996,-3.8402 7.95062,-3.7262 1.16349,0.1596 0.36778,0.8752 -2.90377,2.6113 -7.80076,4.1398 -14.64567,8.5462 -22.82945,14.6962 -5.49222,4.1274 -12.14774,7.1887 -21.70785,9.9849 -4.21202,1.2319 -7.74508,1.7721 -11.59001,1.7721 -2.03615,0 -2.32841,-0.086 -2.32841,-0.6846 z m 3.65289,-6.8203 c 0,-0.48 5.88367,-3.1924 9.93874,-4.5818 5.02948,-1.7232 16.53275,-4.5024 18.14289,-4.3832 1.74738,0.1293 1.39592,1.2225 -0.46408,1.4434 -6.34814,0.7541 -17.35002,3.7887 -23.3769,6.4478 -2.36179,1.0421 -4.24065,1.5179 -4.24065,1.0738 z m 109.08361,-1.1036 c -1.91758,-1.0187 -1.72381,-1.1092 2.10135,-0.9819 4.81646,0.1604 6.32241,0.5147 4.97596,1.1706 -1.64888,0.8033 -5.39819,0.7033 -7.07731,-0.1887 z m -49.16178,-0.9467 c -2.41149,-0.7642 -1.93216,-1.1329 1.33454,-1.0265 2.51446,0.082 2.74782,0.1476 2.21844,0.6237 -0.89328,0.8035 -1.92095,0.92 -3.55298,0.4028 z m 0.8262,-3.577 c -1.49655,-0.5257 -3.04937,-1.2067 -3.45069,-1.5133 -1.35673,-1.0365 -6.0264,-0.6348 -11.31887,0.9736 -1.6485,0.5009 -2.06438,0.5431 -2.57671,0.2613 -1.04255,-0.5734 5.47059,-2.5124 10.04081,-2.9893 2.17071,-0.2265 4.25545,-0.5227 4.63277,-0.6582 0.91255,-0.3277 2.04761,0.3142 2.13322,1.2064 0.16744,1.7448 5.96062,2.6227 10.73571,1.6269 1.84177,-0.384 2.11361,-0.3958 2.11361,-0.091 0,0.6652 -2.69697,1.5027 -5.6799,1.7637 -1.64765,0.1442 -3.20119,0.2878 -3.45233,0.3191 -0.25114,0.031 -1.68106,-0.3732 -3.17762,-0.899 z m -1.08689,-5.5168 c 0.6548,-1.1746 4.8445,-3.1037 7.87612,-3.6265 2.71489,-0.4681 2.87163,-0.4722 4.62202,-0.1206 2.49337,0.5009 2.45023,1.1963 -0.0652,1.0503 -2.6378,-0.1531 -7.59811,0.8668 -8.89751,1.8295 -0.57443,0.4256 -1.6939,0.9544 -2.48769,1.1753 -1.37538,0.3826 -1.42466,0.3681 -1.04778,-0.308 z m 12.25521,0.2536 c -2.11462,-0.1066 -2.07028,-0.9067 0.0741,-1.3375 2.088,-0.4194 2.89386,-0.2526 2.89386,0.599 0,0.7251 -0.54455,0.8606 -2.96797,0.7385 z m -9.81715,-7.9468 c 0,-0.3291 1.6438,-1.2913 3.6529,-2.138 2.00909,-0.8468 3.65289,-1.6713 3.65289,-1.8322 0,-0.3684 8.79658,-5.3549 13.11584,-7.4348 1.78648,-0.8603 5.69392,-2.4629 8.68322,-3.5614 2.9893,-1.0985 6.07973,-2.3397 6.86763,-2.7582 0.78789,-0.4186 3.13568,-1.1876 5.21731,-1.709 2.08162,-0.5214 4.54107,-1.3357 5.46546,-1.8095 0.92438,-0.4738 2.10076,-0.8615 2.61417,-0.8615 0.51343,0 2.84372,-0.7297 5.17845,-1.6217 2.33472,-0.8919 4.57274,-1.6216 4.97338,-1.6216 2.32703,0 1.21673,2.1562 -1.26933,2.465 -1.52619,0.1896 -9.75107,3.0502 -9.75107,3.3914 0,0.1247 -2.01073,0.6638 -4.46829,1.198 -2.45987,0.5346 -6.20673,1.6958 -8.33594,2.5835 -2.12721,0.8867 -4.99326,1.9772 -6.36899,2.4231 -5.64852,1.831 -17.61343,7.8611 -22.52391,11.3516 -1.82546,1.2976 -4.65968,2.5338 -5.80905,2.5338 -0.49207,0 -0.89467,-0.2693 -0.89467,-0.5985 z m -2.71111,-9.607 c -0.0857,-0.5142 3.13123,-2.4423 5.189,-3.11 1.30942,-0.4249 3.75891,-1.3883 5.4433,-2.1408 1.68439,-0.7526 3.2702,-1.3683 3.52402,-1.3683 1.09767,0 -1.08719,1.2532 -5.30104,3.0406 -2.49697,1.0591 -5.50446,2.3362 -6.68333,2.8379 -1.17887,0.5017 -2.15625,0.835 -2.17195,0.7406 z m 15.08296,-7.4806 c 0.56144,-0.5734 8.06779,-4.9882 11.9769,-7.0441 3.85049,-2.025 8.0755,-3.8025 12.52855,-5.2706 2.72634,-0.8989 6.11494,-2.2243 7.53025,-2.9454 1.4153,-0.7212 2.89278,-1.3112 3.28328,-1.3112 1.41998,0 0.76133,1.63 -0.70925,1.7553 -0.7806,0.066 -3.26857,0.9074 -5.52883,1.8687 -2.26026,0.9613 -5.62836,2.2265 -7.48466,2.8116 -4.61273,1.4539 -7.37465,2.722 -12.91475,5.9295 -7.52345,4.3558 -8.45528,4.865 -8.90345,4.865 -0.23271,0 -0.13283,-0.2965 0.22196,-0.6588 z"
         id="path4180"
         inkscape:connector-curvature="0" />
      <path
         style="fill:#636363"
         d="m -231.73108,1144.3119 c -0.31042,-0.1115 0.11557,-0.2027 0.94666,-0.2027 0.83108,0 2.72827,-0.1924 4.21597,-0.4276 1.48771,-0.2351 2.92557,-0.3785 3.19524,-0.3187 0.43561,0.097 -6.31799,1.1517 -7.3726,1.1517 -0.23148,0 -0.67485,-0.091 -0.98527,-0.2027 z m -10.46023,-0.838 c -2.73949,-0.33 -5.41067,-0.6713 -5.93595,-0.7583 -1.42006,-0.2353 -8.71812,-0.7868 -12.37036,-0.9348 -1.75796,-0.071 -4.35499,-0.2287 -5.77119,-0.3499 -2.199,-0.1883 -3.56418,-0.124 -9.35133,0.4405 -6.38521,0.6229 -9.53452,0.6946 -9.53452,0.2171 0,-0.115 0.81758,-0.2091 1.81684,-0.2091 0.99926,0 4.49365,-0.2379 7.7653,-0.5286 4.36114,-0.3875 6.61783,-0.4859 8.45693,-0.3685 1.37965,0.088 4.08498,0.1812 6.01184,0.2072 4.24355,0.057 8.32432,0.4049 12.10762,1.0322 1.55423,0.2577 3.25045,0.4685 3.76938,0.4685 0.51893,0 1.44607,0.1344 2.06032,0.2987 0.61424,0.1643 2.4992,0.3563 4.18879,0.4266 1.68959,0.07 3.54789,0.2552 4.12956,0.4108 1.81325,0.485 -1.85215,0.3091 -7.34323,-0.3524 z m 30.09453,-0.3902 c 0,-0.2476 0.40179,-0.3623 0.98744,-0.282 0.54308,0.075 2.18688,-0.1196 3.65289,-0.4313 1.46601,-0.3118 2.66546,-0.4765 2.66546,-0.366 0,0.2248 -5.66335,1.4966 -6.66435,1.4966 -0.35278,0 -0.64144,-0.1878 -0.64144,-0.4173 z m -5.47934,-1.4835 c 0,-0.3438 2.22895,-0.7801 3.052,-0.5974 1.35599,0.3009 0.55122,0.8766 -1.22555,0.8766 -1.00455,0 -1.82645,-0.1257 -1.82645,-0.2792 z m 1.37399,-4.3816 c -0.80462,-0.2889 0.39462,-1.0468 1.43144,-0.9046 1.0986,0.1507 1.09676,0.845 -0.003,0.9958 -0.46757,0.064 -1.11052,0.023 -1.42879,-0.091 z m -88.72934,-3.0771 c -1.24679,-0.3058 -1.63182,-0.6814 -1.48319,-1.4467 0.13557,-0.698 -0.25596,-1.1457 -1.20579,-1.3787 -1.13381,-0.2781 -1.32792,-0.7415 -1.001,-2.39 0.23817,-1.201 0.87334,-2.1702 1.53898,-2.3482 0.62338,-0.1668 0.94405,-0.5896 0.71259,-0.9396 -0.65433,-0.9896 1.93399,-5.4485 3.43976,-5.9257 0.73559,-0.2331 1.33744,-0.8453 1.33744,-1.3605 0,-1.6467 5.26506,-4.4462 8.36201,-4.4462 3.73695,0 4.40368,1.3699 3.45297,7.0947 -0.94592,5.6961 -4.30859,10.5869 -7.06638,10.2778 -0.3515,-0.039 -2.18408,0.311 -4.0724,0.7787 -2.70617,0.6703 -3.18321,0.8964 -2.25243,1.0679 1.59712,0.2942 2.79699,0.087 5.06321,-0.8742 2.73311,-1.1592 2.56917,-0.2834 -0.19347,1.0335 -2.53078,1.2064 -4.28468,1.4331 -6.6323,0.8572 z m 147.97513,-1.0701 c -0.65041,-0.3763 0.29852,-0.7192 1.98993,-0.7192 0.79485,0 1.31594,0.2007 1.31594,0.5068 0,0.5569 -2.43924,0.7137 -3.30587,0.2124 z m -130.93799,-0.7256 c 0,-0.4089 0.5346,-0.6506 1.59814,-0.7225 4.50211,-0.3043 9.2239,-1.0323 11.95495,-1.8431 4.03513,-1.1981 10.92517,-3.8614 14.72215,-5.6909 1.68051,-0.8097 3.24743,-1.4296 3.48204,-1.3775 0.83865,0.1862 -6.25468,3.9065 -10.81195,5.6707 -8.45399,3.2726 -13.89202,4.5778 -19.07353,4.5778 -1.47527,0 -1.8718,-0.1302 -1.8718,-0.6145 z m 121.15432,0.074 c -0.33485,-0.074 -0.60881,-0.2294 -0.60881,-0.3446 0,-0.1271 0.42535,-0.1151 1.08064,0.03 0.59436,0.1319 0.86833,0.287 0.60882,0.3446 -0.25951,0.058 -0.7458,0.044 -1.08065,-0.03 z m -39.74662,-0.2481 c -0.86373,-0.1215 -0.93288,-0.2162 -0.2283,-0.3129 1.15835,-0.1589 2.83717,0.02 2.83717,0.3026 0,0.2357 -0.97868,0.2396 -2.60887,0.01 z m 32.42725,-7.2856 c -2.4365,-0.5976 -1.9519,-1.0858 1.00291,-1.0104 2.84998,0.073 3.90828,0.7535 1.78083,1.1454 -0.99281,0.1829 -1.60941,0.153 -2.78374,-0.135 z m -50.29016,-1.4258 c -0.39339,-0.1413 -0.46863,-0.3116 -0.1672,-0.3785 0.8173,-0.1814 1.70843,0.085 1.26699,0.3793 -0.30932,0.206 -0.52443,0.2059 -1.09979,-8e-4 z m -54.41255,-0.6233 c 0,-0.105 0.40624,-0.2465 0.90276,-0.3146 0.51767,-0.071 0.67077,0.01 0.35891,0.1907 -0.6071,0.3512 -1.26167,0.4154 -1.26167,0.1239 z m 3.41011,-1.1776 c 1.17267,-0.6785 5.61155,-1.982 9.83653,-2.8885 2.3381,-0.5017 4.87153,-1.1744 5.62985,-1.4949 1.20301,-0.5083 1.54715,-0.5452 2.69998,-0.2893 1.53404,0.3405 0.7647,0.9733 -1.18328,0.9733 -1.72595,0 -13.45866,2.6254 -15.33829,3.4322 -1.56241,0.6707 -2.64649,0.8468 -1.64479,0.2672 z m 51.16212,-1.9796 c -1.37,-0.5034 -2.75548,-1.1493 -3.07883,-1.4353 -0.78744,-0.6964 -2.62008,-0.815 -6.40437,-0.4144 -3.07821,0.3258 -3.12479,0.3243 -2.16792,-0.073 0.53783,-0.2231 1.31702,-0.4056 1.73153,-0.4056 0.41451,0 2.26333,-0.2274 4.1085,-0.5053 3.65117,-0.55 3.70908,-0.5398 4.56074,0.8046 0.65811,1.0389 3.06354,1.7413 6.96063,2.0326 l 3.10525,0.232 -3.06764,0.3397 c -1.68721,0.1869 -3.11025,0.3397 -3.1623,0.3397 -0.0521,0 -1.21557,-0.4119 -2.58559,-0.9154 z m -27.51118,-0.7062 c 0.86424,-0.7801 2.92018,-1.7601 2.97688,-1.419 0.0278,0.1673 -0.75695,0.669 -1.7439,1.1149 -1.0027,0.4531 -1.54671,0.5872 -1.23298,0.3041 z m 37.39664,-4.6352 c -0.26894,-0.097 0.32323,-0.3388 1.31593,-0.5382 1.75468,-0.3524 1.80492,-0.3476 1.80492,0.1757 0,0.5207 -2.02532,0.756 -3.12085,0.3625 z m -6.01139,-2.4448 c 0,-0.2992 4.76443,-1.0496 6.2559,-0.9853 2.21076,0.095 2.33343,0.5651 0.14753,0.5651 -1.08227,0 -2.5842,0.1369 -3.33761,0.3041 -1.54038,0.3419 -3.06582,0.3997 -3.06582,0.1161 z m -18.18752,-1.5922 c -0.11283,-0.3811 2.59835,-1.7477 3.2016,-1.6138 0.2832,0.063 -0.30399,0.5101 -1.30487,0.994 -1.00088,0.4838 -1.85441,0.7627 -1.89673,0.6198 z m 16.25592,-3.4395 c -0.3358,-0.4855 0.57525,-1.0067 3.05564,-1.7483 1.53843,-0.4599 2.59116,-0.6994 2.3394,-0.5322 -0.25175,0.1673 -1.16705,0.783 -2.03398,1.3683 -1.37347,0.9273 -3.0381,1.3791 -3.36106,0.9122 z m -9.86546,-0.2534 c 9.1e-4,-0.1672 0.82051,-0.6233 1.82126,-1.0135 1.36776,-0.5334 1.67012,-0.5837 1.21773,-0.2028 -0.83646,0.7044 -3.04108,1.5867 -3.03899,1.2163 z m 17.30438,-3.8514 c 0,-0.1673 0.39835,-0.4409 0.88525,-0.6082 0.78689,-0.2702 0.88525,-0.2702 0.88525,0 0,0.1673 -0.39836,0.4409 -0.88525,0.6082 -0.7869,0.2702 -0.88525,0.2702 -0.88525,0 z m 3.73769,-2.1285 c -0.0199,-0.2229 0.78258,-0.7246 1.78333,-1.1148 1.3687,-0.5337 1.67066,-0.5839 1.21866,-0.2027 -0.33049,0.2787 -1.13299,0.7804 -1.78333,1.1148 -0.89718,0.4615 -1.19118,0.5104 -1.21866,0.2027 z m 3.54012,-2.1409 c 0,-0.1184 0.97453,-0.6885 2.16561,-1.2669 1.19108,-0.5784 3.42579,-1.6655 4.96601,-2.4158 1.54022,-0.7503 4.02752,-1.76 5.52734,-2.2439 1.49981,-0.4839 4.47598,-1.6488 6.61371,-2.5887 2.13772,-0.9398 5.48792,-2.102 7.44488,-2.5826 1.95696,-0.4805 4.11945,-1.1719 4.80554,-1.5364 0.68608,-0.3645 1.91037,-0.7848 2.72063,-0.9341 0.81025,-0.1493 3.14106,-0.8945 5.17956,-1.6562 3.55345,-1.3276 5.32467,-1.6972 5.32467,-1.111 0,0.4444 -1.94399,1.5506 -2.72493,1.5506 -0.72498,0 -7.79277,2.5039 -9.72691,3.446 -0.57223,0.2787 -2.96016,0.9172 -5.30648,1.4189 -2.34633,0.5017 -5.44809,1.4595 -6.89281,2.1284 -1.44472,0.669 -4.36378,1.8092 -6.48679,2.5339 -2.12302,0.7246 -5.88,2.2525 -8.34886,3.3953 -4.31055,1.9952 -5.26117,2.3317 -5.26117,1.8625 z"
         id="path4178"
         inkscape:connector-curvature="0" />
    </g>
  </g>
</svg>
