<?xml version="1.0" encoding="UTF-8" standalone="no"?>
<!-- Created with Inkscape (http://www.inkscape.org/) -->

<svg
   xmlns:dc="http://purl.org/dc/elements/1.1/"
   xmlns:cc="http://creativecommons.org/ns#"
   xmlns:rdf="http://www.w3.org/1999/02/22-rdf-syntax-ns#"
   xmlns:svg="http://www.w3.org/2000/svg"
   xmlns="http://www.w3.org/2000/svg"
   xmlns:sodipodi="http://sodipodi.sourceforge.net/DTD/sodipodi-0.dtd"
   xmlns:inkscape="http://www.inkscape.org/namespaces/inkscape"
   width="177.16534"
   height="106.29921"
   id="svg2983"
   version="1.1"
   inkscape:version="0.48.4 r9939"
   sodipodi:docname="adhomuka.svg">
  <defs
     id="defs2985" />
  <sodipodi:namedview
     id="base"
     pagecolor="#ffffff"
     bordercolor="#666666"
     borderopacity="1.0"
     inkscape:pageopacity="0.0"
     inkscape:pageshadow="2"
     inkscape:zoom="0.35"
     inkscape:cx="-381.52824"
     inkscape:cy="133.62014"
     inkscape:document-units="cm"
     inkscape:current-layer="layer1"
     showgrid="false"
     fit-margin-top="0"
     fit-margin-left="0"
     fit-margin-right="0"
     fit-margin-bottom="0"
     inkscape:window-width="1330"
     inkscape:window-height="747"
     inkscape:window-x="36"
     inkscape:window-y="21"
     inkscape:window-maximized="1"
     units="cm" />
  <metadata
     id="metadata2988">
    <rdf:RDF>
      <cc:Work
         rdf:about="">
        <dc:format>image/svg+xml</dc:format>
        <dc:type
           rdf:resource="http://purl.org/dc/dcmitype/StillImage" />
        <dc:title />
      </cc:Work>
    </rdf:RDF>
  </metadata>
  <g
     inkscape:label="Layer 1"
     inkscape:groupmode="layer"
     id="layer1"
     transform="translate(-423.6711,-559.68313)">
    <path
       style="fill:#000000"
       d="m 585.54542,665.45567 c -0.84104,-0.26793 -2.59957,-1.24878 -3.90785,-2.17967 -4.03412,-2.87041 -10.28718,-6.83646 -15.29157,-9.69878 -4.06661,-2.32596 -9.75728,-6.06388 -11.32063,-7.43595 -0.61994,-0.5441 -2.65648,-3.03891 -4.52566,-5.54403 l -3.39849,-4.55476 -1.30074,1.47774 c -1.5682,1.78154 -3.78238,3.03288 -7.72432,4.36534 -4.31521,1.45863 -6.72801,1.39386 -10.00914,-0.26869 -3.10579,-1.5737 -6.10817,-4.51755 -8.6915,-8.52202 -4.04679,-6.27305 -4.76583,-9.11544 -2.77613,-10.97411 0.58044,-0.54222 1.26855,-0.98586 1.52916,-0.98586 0.26057,0 0.47377,-0.22405 0.47377,-0.4979 0,-0.27384 0.46567,-1.02825 1.03479,-1.67647 0.99875,-1.13748 3.84978,-2.37558 6.10128,-2.64954 0.78485,-0.0955 0.84123,-0.22045 0.74044,-1.64098 -0.0812,-1.14356 0.0659,-1.76013 0.57395,-2.40593 l 0.68302,-0.86833 -1.33084,-2.00404 c -0.73196,-1.10222 -2.06066,-2.52958 -2.95264,-3.17191 -0.89197,-0.64233 -2.99802,-2.41484 -4.6801,-3.93893 -1.68207,-1.52408 -4.24021,-3.65089 -5.6848,-4.72625 -2.7326,-2.03422 -4.81792,-4.17261 -6.332,-6.49314 -3.86091,-5.91734 -11.55108,-14.85508 -16.51951,-19.19942 -3.88045,-3.39305 -4.25561,-3.6454 -4.25561,-2.86247 0,1.50495 -5.42253,13.37491 -7.84288,17.16814 -0.54842,0.85949 -1.46972,3.0003 -2.04734,4.75738 -1.21507,3.69609 -3.48824,8.51894 -5.43496,11.53087 -2.28198,3.53068 -4.21476,7.16368 -7.04482,13.24192 -1.08775,2.33621 -3.40625,6.46494 -5.15228,9.17494 -3.50951,5.44712 -4.45766,7.34235 -6.80016,13.59251 l -1.59196,4.24765 3.77002,0.40083 c 4.47543,0.47583 12.27784,1.45216 13.39898,1.67665 2.31233,0.46298 3.2878,3.72637 1.61411,5.40003 -1.14305,1.14307 -2.1278,1.30833 -5.36853,0.90096 -1.54893,-0.19471 -5.10996,-0.592 -7.91342,-0.88286 -11.28436,-1.17076 -11.991,-1.33523 -13.39259,-3.11708 -0.97921,-1.24484 -0.92477,-3.11711 0.13602,-4.68029 0.46511,-0.68539 1.07677,-1.69306 1.35922,-2.2393 0.71503,-1.38269 2.99076,-7.72632 2.62315,-7.31207 -1.16131,1.30869 -3.902,6.11409 -6.8301,11.97562 l -3.43683,6.87986 4.16366,1.98388 c 2.28999,1.09112 5.84573,2.63991 7.90159,3.44176 6.06056,2.36376 5.94163,2.29753 6.49195,3.61469 0.39956,0.95624 0.4281,1.4562 0.13396,2.34739 -0.69342,2.10113 -2.65043,2.68817 -5.77638,1.73274 -1.77935,-0.54385 -10.38457,-4.1899 -11.38372,-4.82332 -0.37379,-0.23696 -1.97941,-0.99932 -3.56804,-1.69412 -4.32873,-1.89322 -5.33845,-2.62448 -5.81358,-4.21034 -0.37573,-1.25408 -0.32978,-1.50951 0.59689,-3.31853 0.55216,-1.07793 2.7677,-5.40047 4.92343,-9.60565 2.15571,-4.20519 4.70237,-8.81705 5.65925,-10.24858 2.09889,-3.14007 4.2896,-6.71544 4.56053,-7.44305 0.4374,-1.17477 4.38347,-6.75528 5.26835,-7.45047 1.29567,-1.01797 4.0894,-5.46931 6.51346,-10.37813 1.79322,-3.63141 2.4052,-4.49775 5.48389,-7.76353 3.65181,-3.87366 5.30941,-6.65787 6.11571,-10.2724 0.57297,-2.5684 3.3648,-10.52962 4.75521,-13.55998 0.68683,-1.49689 1.93458,-3.86709 2.7728,-5.26709 0.83822,-1.40001 1.72428,-3.04854 1.96901,-3.6634 0.55611,-1.39728 1.54751,-2.11029 2.93425,-2.11029 0.87397,0 1.15156,-0.19085 1.49953,-1.03095 0.93622,-2.26023 3.00917,-2.92589 5.36081,-1.72148 2.21575,1.13482 11.34767,8.95769 13.44489,11.51758 0.72055,0.87953 2.81624,3.2812 4.65704,5.33708 1.8408,2.05586 3.81708,4.42606 4.3917,5.26709 0.57466,0.84104 1.88539,2.77559 2.91278,4.299 1.75693,2.6052 3.86428,4.70213 6.60742,6.57482 0.65414,0.44657 2.65846,2.12022 4.45402,3.71923 1.79557,1.59902 4.10644,3.54006 5.13522,4.31343 1.22374,0.91988 2.53337,2.40227 3.78732,4.28682 l 1.91674,2.8807 1.44335,-0.27144 c 2.04843,-0.38525 2.93225,-0.0917 4.67155,1.55153 1.72719,1.63184 5.29475,4.0772 9.40998,6.45007 1.531,0.88279 4.11279,2.74379 5.7373,4.13558 1.62448,1.39177 3.50663,2.81851 4.18248,3.17053 2.25714,1.17555 6.69459,4.55152 11.97225,9.10835 2.87532,2.48259 6.71436,5.50268 8.53117,6.71129 l 3.30332,2.1975 4.68228,0.0191 c 5.56185,0.0227 6.80338,0.35137 7.7082,2.04008 0.76907,1.43534 0.56437,2.70677 -0.62779,3.89893 -0.79575,0.79572 -0.8581,0.80166 -7.41934,0.70659 -7.45869,-0.10807 -6.29068,0.24764 -12.03709,-3.66584 -1.83176,-1.24749 -5.72736,-4.33252 -8.65693,-6.85564 -5.14357,-4.42994 -8.97363,-7.30417 -12.17389,-9.13576 -0.84104,-0.48135 -1.89986,-1.27201 -2.35297,-1.75705 -1.02045,-1.09235 -1.38497,-1.1142 -1.38497,-0.0831 0,0.43935 -0.16532,1.27307 -0.36737,1.85271 -0.33815,0.96994 -0.27487,1.14643 0.79408,2.21539 0.63881,0.6388 2.70714,3.20746 4.59631,5.70811 3.86417,5.11501 5.69834,6.61645 13.2272,10.82768 2.20412,1.23288 4.77209,2.78731 5.70658,3.45426 0.93448,0.66696 2.84593,1.8741 4.24765,2.68253 1.40174,0.80843 3.65102,2.28413 4.99841,3.27934 3.06076,2.2607 3.35079,2.36742 7.26315,2.67214 1.7982,0.14006 3.52733,0.46308 3.94734,0.7374 1.70964,1.11665 1.66277,4.19463 -0.0813,5.33737 -1.06911,0.70049 -7.46983,0.69895 -9.6712,-0.003 z m -48.93303,-49.56783 c 0,-0.0824 -0.15291,-0.24437 -0.33982,-0.35987 -0.18689,-0.11551 -0.33981,-0.048 -0.33981,0.14985 0,0.19793 0.15292,0.35987 0.33981,0.35987 0.18691,0 0.33982,-0.0675 0.33982,-0.14985 z"
       id="path3002"
       inkscape:connector-curvature="0" />
  </g>
</svg>
