<?xml version="1.0" encoding="UTF-8" standalone="no"?>
<!-- Created with Inkscape (http://www.inkscape.org/) -->

<svg
   xmlns:dc="http://purl.org/dc/elements/1.1/"
   xmlns:cc="http://creativecommons.org/ns#"
   xmlns:rdf="http://www.w3.org/1999/02/22-rdf-syntax-ns#"
   xmlns:svg="http://www.w3.org/2000/svg"
   xmlns="http://www.w3.org/2000/svg"
   xmlns:sodipodi="http://sodipodi.sourceforge.net/DTD/sodipodi-0.dtd"
   xmlns:inkscape="http://www.inkscape.org/namespaces/inkscape"
   width="177.16536"
   height="106.29921"
   id="svg2"
   version="1.1"
   inkscape:version="0.48.4 r9939"
   sodipodi:docname="ashtanga_namaskara.svg">
  <defs
     id="defs4" />
  <sodipodi:namedview
     id="base"
     pagecolor="#ffffff"
     bordercolor="#666666"
     borderopacity="1.0"
     inkscape:pageopacity="0.0"
     inkscape:pageshadow="2"
     inkscape:zoom="0.7"
     inkscape:cx="211.61235"
     inkscape:cy="16.011366"
     inkscape:document-units="cm"
     inkscape:current-layer="layer1"
     showgrid="false"
     fit-margin-top="0"
     fit-margin-left="0"
     fit-margin-right="0"
     fit-margin-bottom="0"
     inkscape:window-width="1330"
     inkscape:window-height="747"
     inkscape:window-x="36"
     inkscape:window-y="21"
     inkscape:window-maximized="1"
     units="cm" />
  <metadata
     id="metadata7">
    <rdf:RDF>
      <cc:Work
         rdf:about="">
        <dc:format>image/svg+xml</dc:format>
        <dc:type
           rdf:resource="http://purl.org/dc/dcmitype/StillImage" />
        <dc:title />
      </cc:Work>
    </rdf:RDF>
  </metadata>
  <g
     inkscape:label="Layer 1"
     inkscape:groupmode="layer"
     id="layer1"
     transform="translate(-160.35714,-618.04815)">
    <path
       inkscape:connector-curvature="0"
       id="path2998"
       d="m 169.33031,690.13397 c -0.98789,-0.35946 -2.94711,-2.2904 -4.29512,-4.2331 -1.88031,-2.70983 -4.67805,-10.02248 -4.67805,-12.22735 0,-2.00373 0.98034,-3.36581 2.82356,-3.92301 0.8644,-0.26132 7.68928,0.57932 11.70443,1.44165 8.93903,1.91984 12.11941,2.67164 13.72938,3.24545 1.02676,0.36595 3.59738,1.03073 5.71249,1.4773 2.1151,0.44655 5.76846,1.32792 8.11858,1.95858 3.90287,1.04737 4.99453,1.15062 12.60516,1.19229 7.60084,0.0416 8.61352,-0.0419 11.53693,-0.95066 4.30441,-1.33813 7.29136,-3.0592 13.88926,-8.00294 3.05393,-2.28827 6.97132,-5.09328 8.70531,-6.23335 2.84222,-1.8687 3.39294,-2.07284 5.59207,-2.07284 2.15016,0 2.71361,0.19634 4.75224,1.65596 4.76589,3.41229 10.21778,5.73951 10.21778,4.36159 0,-0.21552 -0.67298,-2.40303 -1.49552,-4.86117 -1.84608,-5.51693 -2.00385,-8.64845 -0.50658,-10.05506 1.3668,-1.28405 3.14626,-1.16229 5.42045,0.37085 1.05757,0.71295 3.55723,2.28803 5.55482,3.50017 1.99761,1.21215 4.97798,3.16801 6.62306,4.34635 2.90309,2.07945 4.00285,2.93166 9.40047,7.28439 1.41007,1.13711 3.94748,2.70284 5.6387,3.47942 1.69122,0.77658 3.83303,1.91363 4.75956,2.52678 1.33837,0.8857 2.10092,1.08766 3.71015,0.98265 l 2.02554,-0.13218 0.93336,-2.77741 c 2.35641,-7.01194 6.41328,-12.39151 9.34477,-12.39151 1.73825,0 6.41044,1.47716 8.26667,2.6136 2.03983,1.24884 6.30554,6.00154 7.38152,8.22422 0.83212,1.71893 0.88931,2.1619 0.4507,3.49091 -0.55974,1.69601 -9.6073,11.38173 -11.58919,12.40661 -2.82776,1.46228 -8.65223,0.31341 -11.06428,-2.18244 -2.69132,-2.78481 -3.68132,-3.16301 -9.4494,-3.60983 -5.80365,-0.4496 -12.81862,-1.62255 -19.3381,-3.23347 -4.87999,-1.20581 -5.81165,-1.27629 -5.81165,-0.43963 0,1.15697 1.65772,4.4644 2.45016,4.8885 0.43842,0.23464 3.19107,0.55478 6.11701,0.71144 2.92594,0.15666 6.04949,0.46863 6.94123,0.69328 1.97812,0.4983 2.83087,1.94041 2.09823,3.54837 -0.77178,1.69388 -2.99299,2.0381 -9.95991,1.54348 -9.18835,-0.65235 -10.01825,-1.22811 -13.01193,-9.02747 -0.85106,-2.21724 -1.70436,-4.1958 -1.89624,-4.39679 -0.19187,-0.20099 -1.95341,-0.73778 -3.91452,-1.19286 -3.55229,-0.82431 -8.32288,-2.96803 -10.90728,-4.9013 -2.26027,-1.69082 -3.28742,-1.91661 -4.92376,-1.08235 -0.79702,0.40635 -4.42026,2.95748 -8.05163,5.6692 -8.3272,6.21828 -10.83421,7.7131 -15.63161,9.32037 -6.49883,2.17731 -14.01427,2.59613 -22.80426,1.27083 -3.34862,-0.50488 -14.43693,-3.08616 -18.58729,-4.32698 -3.36323,-1.0055 -5.7597,-1.55796 -13.45975,-3.10288 -5.95935,-1.19567 -7.26399,-1.30068 -7.26399,-0.5847 0,1.47355 2.05067,5.72939 3.68108,7.63944 2.49962,2.92839 2.77799,4.10933 1.27367,5.40329 -1.16608,1.00301 -1.64539,1.12111 -2.81828,0.69431 z m 120.69224,-18.10245 c -0.68249,-1.1043 -14.75786,-11.08011 -15.63348,-11.08011 -0.89394,0 -0.2137,2.37064 2.04765,7.13608 0.73238,1.5434 1.12864,1.71114 8.33043,3.52638 4.6715,1.17748 5.77941,1.26552 5.2554,0.41765 z"
       style="fill:#000000" />
  </g>
</svg>
