<?xml version="1.0" encoding="UTF-8" standalone="no"?>
<!-- Created with Inkscape (http://www.inkscape.org/) -->

<svg
   xmlns:dc="http://purl.org/dc/elements/1.1/"
   xmlns:cc="http://creativecommons.org/ns#"
   xmlns:rdf="http://www.w3.org/1999/02/22-rdf-syntax-ns#"
   xmlns:svg="http://www.w3.org/2000/svg"
   xmlns="http://www.w3.org/2000/svg"
   xmlns:sodipodi="http://sodipodi.sourceforge.net/DTD/sodipodi-0.dtd"
   xmlns:inkscape="http://www.inkscape.org/namespaces/inkscape"
   width="177.16534"
   height="106.29497"
   id="svg2"
   version="1.1"
   inkscape:version="0.48.4 r9939"
   sodipodi:docname="baddha_konasana.svg">
  <defs
     id="defs4" />
  <sodipodi:namedview
     id="base"
     pagecolor="#ffffff"
     bordercolor="#666666"
     borderopacity="1.0"
     inkscape:pageopacity="0.0"
     inkscape:pageshadow="2"
     inkscape:zoom="0.83185002"
     inkscape:cx="40.021776"
     inkscape:cy="345.90079"
     inkscape:document-units="cm"
     inkscape:current-layer="layer1"
     showgrid="false"
     fit-margin-top="0"
     fit-margin-left="0"
     fit-margin-right="0"
     fit-margin-bottom="0"
     inkscape:window-width="1330"
     inkscape:window-height="747"
     inkscape:window-x="36"
     inkscape:window-y="21"
     inkscape:window-maximized="1"
     units="cm" />
  <metadata
     id="metadata7">
    <rdf:RDF>
      <cc:Work
         rdf:about="">
        <dc:format>image/svg+xml</dc:format>
        <dc:type
           rdf:resource="http://purl.org/dc/dcmitype/StillImage" />
        <dc:title />
      </cc:Work>
    </rdf:RDF>
  </metadata>
  <g
     inkscape:label="Layer 1"
     inkscape:groupmode="layer"
     id="layer1"
     transform="translate(-32.228633,-1064.9324)">
    <path
       inkscape:connector-curvature="0"
       id="path3082"
       d="m 122.93149,1170.1112 c -1.14001,-1.0009 -1.51692,-1.1268 -2.76325,-0.9229 -0.79375,0.1299 -2.0727,0.5019 -2.84213,0.8267 -1.94104,0.8195 -3.10237,0.4133 -4.45988,-1.5598 -1.28567,-1.8686 -2.97216,-2.6659 -6.46896,-3.058 -3.98809,-0.4473 -9.715826,-1.7739 -17.069235,-3.9534 -5.979917,-1.7723 -8.486485,-2.3166 -13.086421,-2.8412 -3.129361,-0.3569 -6.362207,-0.8258 -7.184102,-1.042 -2.120444,-0.5578 -4.005735,-2.5433 -4.005735,-4.2188 0,-3.9909 5.590523,-5.6105 14.793344,-4.2858 4.27076,0.6147 23.826429,1.5488 24.218479,1.1567 0.10925,-0.1092 -0.18618,-0.8355 -0.65651,-1.6139 -1.34075,-2.2188 -3.31477,-6.5026 -4.172781,-9.0552 -1.408516,-4.1905 -1.611852,-7.0414 -1.489113,-20.8786 0.128892,-14.5307 0.139611,-14.5987 2.491754,-15.8136 1.53295,-0.7918 7.13764,-1.3731 13.25012,-1.3744 3.18372,-7e-4 5.4788,-0.1562 5.61767,-0.3809 0.12913,-0.209 0.0299,-2.4258 -0.22051,-4.9263 l -0.45529,-4.5464 -1.55886,-0.917 c -3.21598,-1.8919 -4.45442,-4.1934 -5.18162,-9.6297 -0.5885,-4.3994 -0.27475,-9.0207 0.74863,-11.0267 1.6633,-3.2603 5.48125,-5.0948 10.65011,-5.1172 3.64239,-0.016 4.95207,0.4736 6.65285,2.4859 3.38481,4.0047 4.51545,12.7489 2.37252,18.3488 -1.17809,3.0785 -3.74692,5.7211 -5.89536,6.0646 -2.57208,0.4113 -2.69158,0.6371 -2.29356,4.3334 0.19095,1.7734 0.46919,3.651 0.6183,4.1725 l 0.27111,0.9483 5.86994,0.017 c 6.38743,0.019 8.47031,0.4075 9.80599,1.8293 l 0.85212,0.907 -0.12191,15.5027 c -0.14053,17.8708 0.10391,16.4412 -4.3528,25.4569 -1.39063,2.8131 -2.38461,5.2796 -2.25928,5.6062 0.25364,0.661 0.77121,0.6338 11.9977,-0.6308 3.65092,-0.4112 8.08893,-0.9058 9.86223,-1.099 4.15264,-0.4526 14.91424,-0.4503 16.87959,0 1.84621,0.4264 3.22419,1.9152 3.22419,3.4837 0,2.8499 -4.4207,4.9691 -12.89677,6.1824 -2.39917,0.3435 -5.2156,0.8631 -6.25872,1.1548 -1.04312,0.2917 -3.59918,0.8981 -5.68014,1.3476 -2.08096,0.4495 -4.59771,1.1382 -5.59278,1.5304 -2.89225,1.14 -8.34525,2.5836 -11.35962,3.0071 -3.87292,0.5443 -3.90723,0.5617 -5.26799,2.6823 -2.03546,3.172 -4.33621,3.8161 -6.58332,1.8431 z m -1.46006,-6.8066 c 1.18715,-0.4173 2.45089,-0.7586 2.80831,-0.7586 1.13973,0 1.84199,-1.095 1.84199,-2.872 0,-0.9239 -0.17069,-1.6798 -0.37931,-1.6798 -0.20863,0 -0.37932,0.4037 -0.37932,0.8971 0,1.3637 -1.38836,2.896 -2.62395,2.896 -1.4066,0 -2.32655,-1.1052 -2.58019,-3.0999 -0.25159,-1.9784 -0.67963,-2.5898 -1.81322,-2.5898 -1.31887,0 -1.71621,0.7488 -1.31516,2.4785 0.19182,0.8274 0.35284,2.2212 0.35782,3.0975 0.006,1.1104 0.21022,1.7105 0.67286,1.9799 0.89662,0.5222 0.94589,0.5172 3.41018,-0.3489 z m -9.46239,-3.0926 c 0.17015,-0.8933 -2.01335,-3.2373 -3.44966,-3.7033 -3.16234,-1.026 -19.992576,-1.7153 -19.424129,-0.7955 0.545245,0.8822 11.369589,3.7307 18.020659,4.7423 3.94206,0.5995 4.6998,0.5615 4.85313,-0.2435 z m 27.18348,-0.7205 c 1.60129,-0.4393 3.54006,-1.0617 4.3084,-1.3832 0.76834,-0.3215 3.68732,-1.1617 6.48663,-1.8671 2.79931,-0.7054 5.17478,-1.3677 5.27882,-1.4717 0.57928,-0.5793 -0.89118,-0.5469 -6.82375,0.1506 -3.61859,0.4255 -8.77301,0.9505 -11.45426,1.1667 -2.68125,0.2162 -5.02826,0.4879 -5.2156,0.6036 -0.41126,0.2542 -0.45737,3.333 -0.0561,3.746 0.42323,0.4356 4.17022,-0.038 7.47587,-0.9449 z m -11.32662,-8.1093 c 0.42627,-0.2985 1.26509,-1.7068 1.86406,-3.1293 0.59896,-1.4226 1.89687,-4.1685 2.88424,-6.1021 3.44857,-6.7533 3.39335,-6.3843 3.2798,-21.9152 l -0.0997,-13.6388 -4.5518,0 c -2.50348,0 -4.8505,0.1226 -5.2156,0.2725 -0.62139,0.2552 -0.6638,1.6739 -0.6638,22.209 0,22.1702 0.0391,22.8468 1.31907,22.8468 0.22479,0 0.75747,-0.2443 1.18373,-0.5429 z m -8.23587,-0.3532 c 0.31055,-0.3742 0.40187,-6.5233 0.33094,-22.2849 l -0.098,-21.768 -7.44612,-0.1027 c -4.39691,-0.061 -7.8616,0.055 -8.46073,0.283 l -1.01461,0.3858 0.11576,14.3206 0.11577,14.3207 1.61429,3.7633 c 1.27084,2.9628 5.07189,9.7751 6.04852,10.8403 0.16516,0.1802 4.02408,0.5651 6.98926,0.6973 0.76806,0.034 1.56548,-0.167 1.80488,-0.4554 z"
       style="fill:#000000" />
  </g>
</svg>
