<?xml version="1.0" encoding="UTF-8" standalone="no"?>
<!-- Created with Inkscape (http://www.inkscape.org/) -->

<svg
   xmlns:dc="http://purl.org/dc/elements/1.1/"
   xmlns:cc="http://creativecommons.org/ns#"
   xmlns:rdf="http://www.w3.org/1999/02/22-rdf-syntax-ns#"
   xmlns:svg="http://www.w3.org/2000/svg"
   xmlns="http://www.w3.org/2000/svg"
   xmlns:sodipodi="http://sodipodi.sourceforge.net/DTD/sodipodi-0.dtd"
   xmlns:inkscape="http://www.inkscape.org/namespaces/inkscape"
   width="177.16537"
   height="106.29921"
   id="svg2"
   version="1.1"
   inkscape:version="0.48.4 r9939"
   sodipodi:docname="balasana.svg">
  <defs
     id="defs4" />
  <sodipodi:namedview
     id="base"
     pagecolor="#ffffff"
     bordercolor="#666666"
     borderopacity="1.0"
     inkscape:pageopacity="0.0"
     inkscape:pageshadow="2"
     inkscape:zoom="6.654799"
     inkscape:cx="88.582688"
     inkscape:cy="36.563951"
     inkscape:document-units="cm"
     inkscape:current-layer="layer1"
     showgrid="false"
     fit-margin-top="0"
     fit-margin-left="0"
     fit-margin-right="0"
     fit-margin-bottom="0"
     inkscape:window-width="1330"
     inkscape:window-height="747"
     inkscape:window-x="36"
     inkscape:window-y="21"
     inkscape:window-maximized="1"
     units="cm" />
  <metadata
     id="metadata7">
    <rdf:RDF>
      <cc:Work
         rdf:about="">
        <dc:format>image/svg+xml</dc:format>
        <dc:type
           rdf:resource="http://purl.org/dc/dcmitype/StillImage" />
        <dc:title />
      </cc:Work>
    </rdf:RDF>
  </metadata>
  <g
     inkscape:label="Layer 1"
     inkscape:groupmode="layer"
     id="layer1"
     transform="translate(-382.84278,-521.48617)">
    <path
       inkscape:connector-curvature="0"
       id="path2998"
       d="m 422.11802,610.81205 c -2.15125,-0.30476 -5.76928,-0.96963 -8.04005,-1.47749 -4.92918,-1.10241 -13.19071,-2.56793 -16.51472,-2.92956 -1.31465,-0.14303 -3.27034,-0.52281 -4.34597,-0.84395 -1.07563,-0.32115 -3.40011,-0.68981 -5.16551,-0.81924 -2.5094,-0.18399 -3.43404,-0.44598 -4.23733,-1.20064 -1.32286,-1.24276 -1.29828,-2.14628 0.094,-3.45426 1.00218,-0.9415 1.49926,-1.0517 4.67192,-1.03577 2.04778,0.0103 4.47009,0.3168 5.72341,0.72421 1.19514,0.38851 3.44419,0.8319 4.99787,0.98531 1.55369,0.15341 3.90052,0.54266 5.21518,0.86499 1.31466,0.32234 3.5637,0.71681 4.99787,0.8766 1.43417,0.1598 4.56328,0.81131 6.95356,1.44781 4.02178,1.07094 4.96195,1.15407 12.60334,1.11427 4.54154,-0.0236 15.29784,-0.25547 23.90287,-0.51516 14.8789,-0.44902 15.94184,-0.53683 21.69298,-1.79217 5.26014,-1.14817 6.78781,-1.69616 11.73413,-4.20918 8.34787,-4.24121 9.66129,-5.25537 13.52732,-10.4452 1.68909,-2.26747 2.93904,-3.44274 4.62214,-4.34598 l 2.30696,-1.23804 1.66978,-6.51897 c 1.75403,-6.84791 1.97951,-9.32762 1.39128,-15.30095 -0.28724,-2.91695 -0.53811,-3.74238 -1.37691,-4.53038 -0.56412,-0.52996 -1.02567,-1.28324 -1.02567,-1.67394 0,-1.53705 -1.42375,-2.24298 -10.43034,-5.17157 -5.13912,-1.67105 -10.71284,-3.53448 -12.38604,-4.14096 -2.77349,-1.00529 -3.65632,-1.10367 -9.99574,-1.11382 -7.92219,-0.0127 -15.79825,1.05592 -20.31613,2.75645 -1.51489,0.5702 -3.62612,1.18052 -4.69163,1.35628 -1.06552,0.17576 -4.16623,0.99148 -6.89048,1.81271 -2.72425,0.82124 -6.48519,1.7606 -8.35763,2.08749 -3.776,0.6592 -6.07959,1.80729 -12.39641,6.17824 -4.27191,2.95597 -6.77769,5.43812 -6.42299,6.36244 0.21011,0.54754 13.44461,7.276 14.27604,7.25798 0.21941,-0.005 2.46845,0.94894 4.99787,2.11931 7.1008,3.28559 12.39832,4.28245 26.76343,5.03622 6.45377,0.33865 13.10312,0.9058 14.77632,1.26035 7.0563,1.4952 18.32328,4.2454 19.20228,4.68717 0.52206,0.26237 1.17307,1.01751 1.44669,1.6781 0.69173,1.67 -0.2629,3.37472 -3.02541,5.40259 -2.34628,1.72233 -10.15043,4.33835 -16.75437,5.61622 -1.91223,0.37002 -4.84576,0.95705 -6.51896,1.30451 -5.91762,1.22889 -13.49763,1.69416 -19.36858,1.18886 -3.0038,-0.25854 -6.32847,-0.78123 -7.38816,-1.16155 -1.05969,-0.38031 -3.39348,-0.94965 -5.18619,-1.26518 -3.19904,-0.56307 -10.73299,-2.00197 -19.3396,-3.69365 -10.23412,-2.01157 -12.53137,-2.32477 -19.24789,-2.62411 -6.57251,-0.29292 -7.1557,-0.38741 -8.14871,-1.32029 -1.36445,-1.28184 -1.35121,-2.17551 0.0518,-3.49377 1.07784,-1.01274 1.36014,-1.0536 7.27951,-1.0536 4.51543,0 7.49143,0.25317 11.15607,0.94906 2.74883,0.52198 6.17128,1.15781 7.60545,1.41294 1.43418,0.25513 6.22562,1.16658 10.64765,2.02543 4.42203,0.85886 9.50682,1.82264 11.29954,2.14174 1.79271,0.31909 4.13954,0.91057 5.21517,1.31439 2.60967,0.97973 14.56333,1.38201 19.62842,0.66057 8.30674,-1.18318 20.03764,-3.94564 20.59672,-4.85025 0.44466,-0.71948 0.079,-0.86979 -5.33172,-2.19149 -3.84775,-0.93991 -6.96309,-1.3578 -12.51164,-1.67831 -13.17832,-0.76123 -19.42724,-1.3186 -22.34515,-1.99309 -7.20165,-1.6647 -8.74206,-2.13765 -12.20536,-3.74746 -2.03175,-0.94438 -4.8675,-2.16371 -6.30167,-2.70962 -4.46895,-1.70106 -15.83942,-7.68178 -16.71093,-8.78972 -2.0047,-2.54857 -1.16783,-6.08108 2.28135,-9.62981 4.39358,-4.52039 15.254,-10.98964 19.86205,-11.83127 1.55369,-0.28377 4.58501,-1.00758 6.73626,-1.60847 2.15126,-0.60089 5.6715,-1.52237 7.82276,-2.04774 2.15126,-0.52536 5.06728,-1.38881 6.48004,-1.91877 1.41276,-0.52995 5.03078,-1.34974 8.04006,-1.82174 11.00372,-1.72593 20.04646,-1.54619 25.51943,0.50724 4.65535,1.74666 12.04511,4.23051 17.29174,5.81209 l 5.17954,1.56135 1.36011,-1.31827 c 0.74807,-0.72505 1.65896,-1.31828 2.02422,-1.31828 1.09464,0 2.443,1.83752 2.75562,3.75534 0.33467,2.053 0.78222,2.51336 5.83282,5.99973 5.13945,3.54771 7.43578,4.48556 12.84059,5.24426 2.56692,0.36033 5.0247,0.84652 5.46174,1.08041 0.43705,0.2339 2.52156,0.82794 4.63225,1.32009 4.58075,1.06809 6.85731,2.32012 10.42075,5.73108 7.12856,6.8235 7.01863,17.91735 -0.21402,21.59933 -2.58883,1.31791 -8.68575,3.05759 -13.09989,3.73788 -7.18705,1.10765 -19.71994,0.64879 -23.2086,-0.84972 -1.88807,-0.811 -4.15926,-3.17793 -5.11991,-5.33577 -1.06937,-2.40201 -1.44491,-2.56902 -2.7103,-1.20527 -2.98766,3.21991 -3.46589,3.6862 -3.78056,3.6862 -0.18771,0 -0.97816,0.92896 -1.75656,2.06434 -3.73081,5.4418 -7.07405,8.0391 -16.28877,12.65445 -5.22085,2.61495 -6.77596,3.17571 -11.67306,4.20918 -8.63441,1.8222 -8.89661,1.84541 -26.29316,2.32767 -8.96357,0.24848 -18.15532,0.54266 -20.42609,0.65373 -2.27077,0.11106 -5.8888,-0.0474 -8.04006,-0.35218 z m 95.56252,-35.13836 c 1.5314,-1.01588 4.00751,-2.53153 5.50248,-3.36814 3.87053,-2.16599 7.66861,-7.38816 5.37341,-7.38816 -0.86329,0 -5.80675,-2.70239 -8.53687,-4.66677 -1.13076,-0.8136 -2.22665,-1.37377 -2.43531,-1.24481 -0.20866,0.12896 -0.51056,1.8074 -0.67088,3.72987 -0.16033,1.92248 -0.77567,5.78178 -1.36742,8.57623 -1.09699,5.18034 -1.23991,6.20882 -0.86284,6.20882 0.11719,0 1.46604,-0.83117 2.99743,-1.84704 z"
       style="fill:#000000" />
  </g>
</svg>
