<?xml version="1.0" encoding="UTF-8" standalone="no"?>
<!-- Created with Inkscape (http://www.inkscape.org/) -->

<svg
   xmlns:dc="http://purl.org/dc/elements/1.1/"
   xmlns:cc="http://creativecommons.org/ns#"
   xmlns:rdf="http://www.w3.org/1999/02/22-rdf-syntax-ns#"
   xmlns:svg="http://www.w3.org/2000/svg"
   xmlns="http://www.w3.org/2000/svg"
   xmlns:sodipodi="http://sodipodi.sourceforge.net/DTD/sodipodi-0.dtd"
   xmlns:inkscape="http://www.inkscape.org/namespaces/inkscape"
   width="177.16539"
   height="106.29921"
   id="svg3061"
   version="1.1"
   inkscape:version="0.48.4 r9939"
   sodipodi:docname="bhujangasana.svg">
  <defs
     id="defs3063" />
  <sodipodi:namedview
     id="base"
     pagecolor="#ffffff"
     bordercolor="#666666"
     borderopacity="1.0"
     inkscape:pageopacity="0.0"
     inkscape:pageshadow="2"
     inkscape:zoom="0.7"
     inkscape:cx="89.449036"
     inkscape:cy="73.818706"
     inkscape:document-units="cm"
     inkscape:current-layer="layer1"
     showgrid="false"
     fit-margin-top="0"
     fit-margin-left="0"
     fit-margin-right="0"
     fit-margin-bottom="0"
     inkscape:window-width="1330"
     inkscape:window-height="747"
     inkscape:window-x="36"
     inkscape:window-y="21"
     inkscape:window-maximized="1"
     units="cm" />
  <metadata
     id="metadata3066">
    <rdf:RDF>
      <cc:Work
         rdf:about="">
        <dc:format>image/svg+xml</dc:format>
        <dc:type
           rdf:resource="http://purl.org/dc/dcmitype/StillImage" />
        <dc:title />
      </cc:Work>
    </rdf:RDF>
  </metadata>
  <g
     inkscape:label="Layer 1"
     inkscape:groupmode="layer"
     id="layer1"
     transform="translate(-832.39244,-739.76273)">
    <path
       inkscape:connector-curvature="0"
       id="path3082"
       d="m 992.26514,837.63119 c -1.44106,-0.62885 -2.66392,-2.05001 -7.76631,-9.0257 -2.19949,-3.00693 -4.31898,-5.728 -4.71013,-6.04683 -0.39107,-0.31882 -1.89423,-2.33972 -3.34031,-4.49088 -1.44602,-2.15116 -4.09751,-5.75637 -5.89211,-8.01157 -3.82643,-4.80847 -11.17772,-12.49636 -11.94921,-12.49636 -0.60917,0 -0.5486,-0.1644 -1.60809,4.36639 -2.4341,10.4089 -7.68308,17.82413 -15.19679,21.46852 -6.16328,2.98938 -13.03952,3.78402 -35.60463,4.11457 -11.17124,0.16364 -14.87949,0.082 -19.33032,-0.42532 -3.02903,-0.34529 -7.87969,-0.80503 -10.77924,-1.02162 -2.89954,-0.21659 -7.38066,-0.6519 -9.95803,-0.96736 -2.57737,-0.31546 -6.85461,-0.57724 -9.50495,-0.58173 -4.34705,-0.008 -5.1499,0.10606 -8.20074,1.15866 -3.61712,1.24797 -11.61951,3.12879 -13.31223,3.12879 -2.86272,0 -3.73108,-2.9695 -1.31175,-4.48579 1.18951,-0.74551 1.24264,-0.87992 1.02871,-2.60243 -0.20445,-1.64618 -0.13044,-1.87866 0.79005,-2.48178 0.55858,-0.36601 2.64375,-1.14325 4.63369,-1.7272 1.98994,-0.58396 4.76032,-1.51958 6.1564,-2.07915 4.73119,-1.89632 6.31327,-1.98916 25.32495,-1.48616 11.14988,0.29499 18.91433,0.67569 21.5364,1.05596 4.634,0.67204 20.64605,1.2495 35.65357,1.28581 8.30606,0.0201 10.28075,0.13076 11.24672,0.63027 1.60961,0.83237 2.28625,0.51645 4.91142,-2.29322 4.11451,-4.40364 7.1077,-11.66865 7.45525,-18.09526 0.10637,-1.967 0.0807,-4.02572 -0.0572,-4.57494 -0.14851,-0.59179 -1.36433,-1.8984 -2.98468,-3.20759 -1.55091,-1.25307 -2.83804,-2.62334 -2.97437,-3.16645 -0.38586,-1.53751 0.42195,-2.76362 2.12255,-3.22155 2.03792,-0.54875 2.97972,-1.62657 2.64947,-3.0321 -0.42742,-1.81872 -2.613,-7.08252 -3.11312,-7.49757 -0.30581,-0.25381 -1.34598,-0.26249 -2.98944,-0.025 -1.38628,0.20034 -3.60345,0.3678 -4.92705,0.37212 -4.45546,0.0146 -9.16143,-3.34245 -10.26724,-7.3241 -0.59124,-2.12886 -0.49681,-7.8501 0.16624,-10.07255 0.7891,-2.64501 2.5796,-4.66144 5.40592,-6.08818 2.094,-1.05703 2.64791,-1.17538 4.54778,-0.97161 3.48824,0.3741 6.58363,1.33453 10.82744,3.35949 7.47622,3.56734 9.18228,5.31345 9.18228,9.3978 0,2.99754 -1.26432,5.24545 -4.19467,7.4579 -1.42135,1.07312 -2.12943,1.88649 -2.12505,2.44109 0.0136,1.74644 2.66118,7.4142 4.02824,8.62401 0.73924,0.65421 2.25067,2.68319 3.35875,4.50883 3.01603,4.96924 8.68005,13.07083 11.03081,15.77807 3.46562,3.99129 16.64939,15.96647 19.65043,17.84908 0.99069,0.62146 1.9554,0.73524 6.24823,0.73699 6.27422,0.003 7.81022,0.54033 7.81022,2.73444 0,1.16748 -0.1992,1.46954 -1.3667,2.07143 -1.179,0.60782 -2.1718,0.68623 -7.22453,0.57058 -6.72058,-0.15382 -6.59508,-0.10961 -11.31578,-3.98794 -4.78903,-3.93453 -4.9769,-3.4983 -0.75657,1.75723 1.62935,2.02899 4.10165,5.31303 5.49397,7.29788 1.39232,1.98486 2.90997,3.87396 3.3726,4.198 0.666,0.46644 2.16081,0.58918 7.17601,0.58918 6.0697,0 6.379,0.038 7.392,0.90934 1.3407,1.15329 1.0766,2.70255 -0.6094,3.57443 -1.5292,0.7908 -14.04194,0.83114 -15.8295,0.051 z m -81.88849,-15.33423 c 3.24804,-0.14058 5.82916,-0.37916 5.73583,-0.53015 -0.0933,-0.15099 -3.82115,-0.37267 -8.28411,-0.49261 -4.46292,-0.11994 -10.83825,-0.56889 -14.16736,-0.99767 -6.30009,-0.81143 -23.92079,-1.42151 -25.77374,-0.89237 -1.34147,0.38308 6.05238,1.60637 9.70931,1.60637 1.49347,0 4.79635,0.26059 7.33973,0.5791 7.8036,0.97725 14.94761,1.18149 25.44034,0.72733 z"
       style="fill:#000000" />
  </g>
</svg>
