<?xml version="1.0" encoding="UTF-8" standalone="no"?>
<!-- Created with Inkscape (http://www.inkscape.org/) -->

<svg
   xmlns:dc="http://purl.org/dc/elements/1.1/"
   xmlns:cc="http://creativecommons.org/ns#"
   xmlns:rdf="http://www.w3.org/1999/02/22-rdf-syntax-ns#"
   xmlns:svg="http://www.w3.org/2000/svg"
   xmlns="http://www.w3.org/2000/svg"
   xmlns:sodipodi="http://sodipodi.sourceforge.net/DTD/sodipodi-0.dtd"
   xmlns:inkscape="http://www.inkscape.org/namespaces/inkscape"
   width="177.16536"
   height="106.29921"
   id="svg2"
   version="1.1"
   inkscape:version="0.48.4 r9939"
   sodipodi:docname="halasana.svg">
  <defs
     id="defs4" />
  <sodipodi:namedview
     id="base"
     pagecolor="#ffffff"
     bordercolor="#666666"
     borderopacity="1.0"
     inkscape:pageopacity="0.0"
     inkscape:pageshadow="2"
     inkscape:zoom="5.3396445"
     inkscape:cx="88.58268"
     inkscape:cy="11.848274"
     inkscape:document-units="cm"
     inkscape:current-layer="layer1"
     showgrid="false"
     fit-margin-top="0"
     fit-margin-left="0"
     fit-margin-right="0"
     fit-margin-bottom="0"
     inkscape:window-width="1330"
     inkscape:window-height="747"
     inkscape:window-x="36"
     inkscape:window-y="21"
     inkscape:window-maximized="1"
     units="cm" />
  <metadata
     id="metadata7">
    <rdf:RDF>
      <cc:Work
         rdf:about="">
        <dc:format>image/svg+xml</dc:format>
        <dc:type
           rdf:resource="http://purl.org/dc/dcmitype/StillImage" />
        <dc:title />
      </cc:Work>
    </rdf:RDF>
  </metadata>
  <g
     inkscape:label="Layer 1"
     inkscape:groupmode="layer"
     id="layer1"
     transform="translate(-493.44165,-1434.9867)">
    <path
       inkscape:connector-curvature="0"
       id="path3108"
       d="m 555.21181,1522.3517 c -1.86406,-0.4684 -5.15282,-1.9004 -5.99842,-2.6119 -1.84576,-1.5532 -2.07298,-2.3707 -2.04274,-7.3504 0.0244,-4.0245 0.12551,-4.8182 0.92478,-7.2617 1.2015,-3.6731 1.92758,-5.0602 3.51927,-6.7228 2.10327,-2.197 2.77684,-2.4384 6.66319,-2.3877 5.6619,0.074 9.01004,0.5713 13.35348,1.9844 2.28541,0.7435 5.03788,1.4001 6.38565,1.5233 2.17385,0.1986 2.46845,0.3154 3.57912,1.4193 1.16678,1.1596 1.20999,1.2825 1.20196,3.4194 -0.006,1.5427 -0.2563,2.9032 -0.82406,4.4757 -1.38232,3.8284 -1.38364,3.758 0.0667,3.5686 2.48549,-0.3245 6.7808,-0.81 8.83433,-0.9985 3.87984,-0.3561 5.33549,-0.9455 6.74801,-2.7325 1.65376,-2.0922 2.93414,-5.894 2.93481,-8.7142 2.7e-4,-1.1532 0.36313,-5.5098 0.80636,-9.6812 0.86914,-8.1799 1.10037,-19.8992 0.48079,-24.3672 -0.42032,-3.0311 -1.65367,-7.2986 -2.16622,-7.4953 -0.99552,-0.382 -2.27178,0.4602 -5.19583,3.4286 -3.41961,3.4715 -3.6084,3.5892 -10.38021,6.4738 -2.56437,1.0923 -4.83346,2.128 -5.04243,2.3014 -0.20896,0.1734 -1.73902,0.7525 -3.40013,1.287 -1.6611,0.5344 -5.14545,1.9789 -7.74301,3.2101 -2.59755,1.2312 -5.79272,2.6228 -7.10037,3.0926 -1.30765,0.4697 -3.32157,1.3227 -4.47538,1.8955 -1.95323,0.9697 -7.02456,3.1681 -11.94153,5.1767 -1.15381,0.4713 -4.42159,1.7008 -7.26174,2.7323 -2.84014,1.0315 -6.12939,2.2466 -7.30943,2.7002 -1.18003,0.4537 -3.1407,0.9958 -4.35704,1.2048 -2.48122,0.4262 -7.59595,1.8689 -10.76424,3.0362 -1.15381,0.4251 -3.73179,1.2833 -5.72885,1.9071 -4.38389,1.3695 -10.27253,4.2049 -10.98226,5.2881 -0.59684,0.9109 -0.62653,0.787 1.92067,8.0164 1.63191,4.6316 1.8061,4.9618 3.41389,6.4713 1.84252,1.7299 2.03621,2.3454 1.04875,3.3328 -1.24539,1.2454 -3.65877,0.5457 -5.62521,-1.6309 -0.79809,-0.8834 -1.36875,-2.051 -1.97693,-4.0449 -0.47024,-1.5417 -1.43493,-4.3447 -2.14376,-6.2288 -1.10639,-2.9409 -1.27118,-3.7058 -1.1645,-5.4052 0.20855,-3.322 1.10439,-4.3125 6.01553,-6.6511 4.3552,-2.0739 17.37072,-6.5272 22.42307,-7.6722 4.63474,-1.0504 6.72376,-1.7078 13.13248,-4.1325 10.76342,-4.0724 15.91215,-6.1928 19.52601,-8.0416 0.71004,-0.3633 3.03379,-1.3482 5.1639,-2.1887 2.13011,-0.8406 5.3161,-2.2512 7.07998,-3.1348 1.76388,-0.8836 4.7412,-2.1081 6.61626,-2.7212 1.87506,-0.6131 3.7177,-1.3158 4.09477,-1.5614 0.37707,-0.2456 2.48298,-1.1973 4.67979,-2.1148 6.03927,-2.5222 6.3515,-2.7182 9.54597,-5.9922 3.50924,-3.5966 5.35898,-4.6342 8.27038,-4.639 2.57846,0 3.39127,0.8301 4.57197,4.6935 1.57544,5.155 1.8978,7.9712 1.91917,16.7658 0.0154,6.3225 -0.13755,9.4799 -0.70658,14.5903 -0.39939,3.587 -0.72617,7.5248 -0.72617,8.7508 0,4.6706 -1.38597,9.3342 -3.59032,12.0809 -2.24889,2.8021 -2.17913,2.9539 1.25042,2.7204 17.43234,-1.187 23.96269,-1.4996 31.44419,-1.5048 4.73553,0 9.73399,-0.1625 11.10769,-0.3536 1.37371,-0.191 4.47046,-0.3726 6.88167,-0.4034 l 4.38402,-0.056 3.71155,1.8663 c 3.08353,1.5505 4.14416,1.919 6.26807,2.1776 1.4061,0.1712 2.89476,0.5329 3.30813,0.8037 1.00977,0.6617 1.02361,2.224 0.0255,2.8669 -2.08454,1.3425 -5.99413,0.7246 -11.16265,-1.7642 l -3.44151,-1.6573 -5.00254,0.2175 c -2.75139,0.1197 -5.71222,0.3519 -6.57961,0.5161 -0.8674,0.1643 -5.80538,0.3006 -10.9733,0.3029 -8.6358,0 -12.21774,0.1762 -33.60201,1.6156 -6.76981,0.4557 -15.11902,0.372 -19.17689,-0.1921 -2.01259,-0.2798 -3.99663,-0.4241 -4.40898,-0.3206 -0.41235,0.1035 -1.66455,0.9638 -2.78267,1.9119 -3.45827,2.9321 -3.41415,2.9196 -10.58565,3.0002 -3.46143,0.039 -6.58398,0 -6.939,-0.091 z"
       style="fill:#000000"
       inkscape:export-xdpi="600"
       inkscape:export-ydpi="600" />
  </g>
</svg>
