<?xml version="1.0" encoding="UTF-8" standalone="no"?>
<!-- Created with Inkscape (http://www.inkscape.org/) -->

<svg
   xmlns:dc="http://purl.org/dc/elements/1.1/"
   xmlns:cc="http://creativecommons.org/ns#"
   xmlns:rdf="http://www.w3.org/1999/02/22-rdf-syntax-ns#"
   xmlns:svg="http://www.w3.org/2000/svg"
   xmlns="http://www.w3.org/2000/svg"
   xmlns:sodipodi="http://sodipodi.sourceforge.net/DTD/sodipodi-0.dtd"
   xmlns:inkscape="http://www.inkscape.org/namespaces/inkscape"
   width="177.16536"
   height="106.29921"
   id="svg2"
   version="1.1"
   inkscape:version="0.48.4 r9939"
   sodipodi:docname="janu_sirsasana.svg">
  <defs
     id="defs4" />
  <sodipodi:namedview
     id="base"
     pagecolor="#ffffff"
     bordercolor="#666666"
     borderopacity="1.0"
     inkscape:pageopacity="0.0"
     inkscape:pageshadow="2"
     inkscape:zoom="1.7890744"
     inkscape:cx="290.40343"
     inkscape:cy="29.152062"
     inkscape:document-units="cm"
     inkscape:current-layer="layer1"
     showgrid="false"
     fit-margin-top="0"
     fit-margin-left="0"
     fit-margin-right="0"
     fit-margin-bottom="0"
     inkscape:window-width="1330"
     inkscape:window-height="747"
     inkscape:window-x="36"
     inkscape:window-y="21"
     inkscape:window-maximized="1"
     units="cm" />
  <metadata
     id="metadata7">
    <rdf:RDF>
      <cc:Work
         rdf:about="">
        <dc:format>image/svg+xml</dc:format>
        <dc:type
           rdf:resource="http://purl.org/dc/dcmitype/StillImage" />
        <dc:title />
      </cc:Work>
    </rdf:RDF>
  </metadata>
  <g
     inkscape:label="Layer 1"
     inkscape:groupmode="layer"
     id="layer1"
     transform="translate(-39.254539,-1043.4602)">
    <path
       inkscape:connector-curvature="0"
       id="path3013"
       d="m 55.294026,1117.0296 c -0.422564,-0.2299 -1.889294,-1.711 -3.259404,-3.2913 -3.127303,-3.6072 -6.697965,-6.9779 -9.361338,-8.8373 -2.405757,-1.6795 -3.416649,-2.7695 -3.418741,-3.6865 -0.0016,-0.69 1.289261,-1.9149 2.018063,-1.9149 0.598327,0 3.283391,-1.3948 5.249311,-2.7269 4.116895,-2.7896 10.853801,-5.3224 19.241427,-7.2341 2.160468,-0.4924 4.520097,-1.1087 5.243617,-1.3696 0.723523,-0.261 2.563458,-0.6168 4.088744,-0.7908 1.525289,-0.174 4.545039,-0.5192 6.710559,-0.7671 2.16552,-0.2478 5.027641,-0.6181 6.360268,-0.8228 4.802194,-0.7376 16.426858,-0.447 27.864028,0.6965 8.26922,0.8268 10.6607,0.9943 14.99206,1.0503 3.42887,0.044 5.09531,0.1956 6.18125,0.561 2.04989,0.6896 5.38522,0.6731 6.00152,-0.03 0.80906,-0.9227 1.44638,-2.4351 1.44638,-3.4322 0,-1.4136 0.90879,-2.6555 3.23926,-4.4269 3.84767,-2.9246 5.09037,-3.2737 14.34208,-4.0291 2.80634,-0.2292 4.69706,-0.2396 5.98082,-0.033 4.1819,0.6734 8.67524,4.1652 10.06535,7.8218 0.53024,1.3947 0.70531,2.6783 0.85857,6.295 l 0.19253,4.5431 1.21148,-0.018 c 1.74931,-0.027 9.65392,-1.0164 11.96336,-1.4981 2.21247,-0.4615 8.02895,-1.3744 13.47771,-2.1155 5.51189,-0.7496 5.25941,-0.6676 5.43388,-1.7659 0.0841,-0.5293 0.37863,-2.4616 0.65457,-4.294 0.27593,-1.8323 0.69021,-3.636 0.92061,-4.0082 0.58496,-0.9448 1.74962,-1.1741 2.72338,-0.5361 0.75722,0.4962 0.78576,0.6115 0.62647,2.5321 -0.0918,1.1067 -0.34091,3.1342 -0.5536,4.5056 -0.2895,1.8667 -0.30448,2.8944 -0.0596,4.0888 0.19812,0.9662 0.22213,1.8718 0.0609,2.2965 -0.14642,0.3856 -0.27392,2.6344 -0.28332,4.9973 -0.0276,6.9461 -0.53816,7.6106 -5.02894,6.546 -1.8929,-0.4488 -3.25385,-0.5904 -4.64581,-0.4836 -4.48801,0.3443 -10.42789,1.207 -16.07722,2.335 -7.5202,1.5016 -8.49202,1.5103 -12.30448,0.1097 -4.18075,-1.5359 -4.09713,-1.5298 -6.40203,-0.4674 -5.683,2.6195 -9.19702,3.2795 -21.31289,4.003 -8.30252,0.4958 -9.88721,0.017 -11.54681,-3.4881 l -0.79733,-1.6839 -3.86551,-0.022 c -2.12603,-0.012 -4.95584,-0.1397 -6.28847,-0.2842 -1.33263,-0.1445 -11.00932,-0.4036 -21.50377,-0.5757 -17.837986,-0.2927 -32.498977,-0.8188 -43.916131,-1.5759 -2.665255,-0.1768 -6.99251,-0.394 -9.616121,-0.4826 -4.04045,-0.1365 -4.770202,-0.094 -4.770202,0.2783 0,0.2417 1.00789,1.345 2.239755,2.452 1.231866,1.1068 3.302677,3.2424 4.601802,4.7455 1.411667,1.6334 2.590894,2.7331 2.93082,2.7331 0.312826,0 1.138208,-0.3322 1.834185,-0.7382 1.655565,-0.9657 6.435549,-2.6815 9.255105,-3.3221 1.22934,-0.2794 2.6604,-0.7283 3.180134,-0.9977 1.092903,-0.5664 1.974303,-0.5744 12.605461,-0.1146 4.081173,0.1765 9.096078,0.3222 11.144235,0.3238 3.548097,0 3.759025,0.038 4.467332,0.7463 0.955365,0.9553 0.941735,1.8116 -0.04454,2.7978 l -0.78795,0.788 -6.405211,-0.1993 c -3.522868,-0.1096 -9.147653,-0.3508 -12.499526,-0.5359 -5.888549,-0.3251 -6.157019,-0.3148 -7.951541,0.3063 -1.021475,0.3535 -2.077933,0.6427 -2.347685,0.6427 -1.07705,0 -7.073169,2.2332 -9.397024,3.4998 -2.577692,1.405 -3.673725,1.6047 -4.961852,0.9039 z m 82.098374,-16.2157 c 0.6747,-1.3545 2.38269,-6.4678 2.23842,-6.7013 -0.28927,-0.468 -2.43439,-1.4475 -3.87941,-1.7713 -1.40007,-0.3138 -6.8687,-0.8828 -14.57206,-1.5162 -2.3321,-0.1918 -5.33051,-0.4696 -6.66314,-0.6174 -9.55863,-1.0604 -22.349111,-1.1381 -29.529812,-0.1796 -2.082231,0.278 -5.628235,0.7033 -7.880012,0.945 -2.537135,0.2725 -4.898358,0.7201 -6.208834,1.1771 -1.163081,0.4056 -2.932444,0.8877 -3.931914,1.0713 -3.486909,0.6404 -11.194958,2.9263 -13.294025,3.9424 -2.519725,1.2198 -2.041276,1.3842 5.267972,1.8101 14.578531,0.8496 26.689279,1.2824 43.916135,1.5696 10.41115,0.1735 19.95156,0.4211 21.2009,0.5501 1.24933,0.129 4.71006,0.2211 7.6905,0.2046 4.4935,-0.025 5.45763,-0.1076 5.64528,-0.4844 z m 72.22497,-1.1716 1.51435,-0.4941 0.0891,-2.2002 c 0.0706,-1.7446 -0.006,-2.2367 -0.37022,-2.3765 -0.63618,-0.2441 -11.68896,1.2867 -16.831,2.3311 -2.55848,0.5197 -7.20035,1.1284 -13.42139,1.7601 -2.0145,0.2046 -2.61525,0.5475 -2.62608,1.4987 -0.007,0.6538 29.53611,0.1691 31.64527,-0.5191 z"
       style="fill:#000000" />
  </g>
</svg>
