<?xml version="1.0" encoding="UTF-8" standalone="no"?>
<!-- Created with Inkscape (http://www.inkscape.org/) -->

<svg
   xmlns:dc="http://purl.org/dc/elements/1.1/"
   xmlns:cc="http://creativecommons.org/ns#"
   xmlns:rdf="http://www.w3.org/1999/02/22-rdf-syntax-ns#"
   xmlns:svg="http://www.w3.org/2000/svg"
   xmlns="http://www.w3.org/2000/svg"
   xmlns:sodipodi="http://sodipodi.sourceforge.net/DTD/sodipodi-0.dtd"
   xmlns:inkscape="http://www.inkscape.org/namespaces/inkscape"
   width="177.16537"
   height="106.29921"
   id="svg2"
   version="1.1"
   inkscape:version="0.48.4 r9939"
   sodipodi:docname="karnapidasana.svg">
  <defs
     id="defs4" />
  <sodipodi:namedview
     id="base"
     pagecolor="#ffffff"
     bordercolor="#666666"
     borderopacity="1.0"
     inkscape:pageopacity="0.0"
     inkscape:pageshadow="2"
     inkscape:zoom="1.2916667"
     inkscape:cx="-31.435351"
     inkscape:cy="226.06282"
     inkscape:document-units="cm"
     inkscape:current-layer="layer1"
     showgrid="false"
     fit-margin-top="0"
     fit-margin-left="0"
     fit-margin-right="0"
     fit-margin-bottom="0"
     inkscape:window-width="1330"
     inkscape:window-height="747"
     inkscape:window-x="36"
     inkscape:window-y="21"
     inkscape:window-maximized="1"
     units="cm" />
  <metadata
     id="metadata7">
    <rdf:RDF>
      <cc:Work
         rdf:about="">
        <dc:format>image/svg+xml</dc:format>
        <dc:type
           rdf:resource="http://purl.org/dc/dcmitype/StillImage" />
        <dc:title />
      </cc:Work>
    </rdf:RDF>
  </metadata>
  <g
     inkscape:label="Layer 1"
     inkscape:groupmode="layer"
     id="layer1"
     transform="translate(-1182.6583,-4091.9941)">
    <path
       inkscape:connector-curvature="0"
       id="path3034"
       d="m 1354.4302,4184.9268 c 2.2119,-0.7141 3.2909,-1.9294 4.4404,-5.0016 1.3595,-3.6337 1.2957,-4.998 -0.392,-8.3848 -2.6423,-5.3023 0.3687,-4.8794 -36.8449,-5.174 -28.5308,-0.2257 -32.5242,-0.3526 -32.4271,-1.03 0.061,-0.4249 0.6929,-2.4203 1.4045,-4.4343 1.9545,-5.5319 2.6548,-16.115 1.5454,-23.3573 -1.5137,-9.8825 -5.2451,-23.1973 -7.8486,-28.0067 -1.7521,-3.2367 -3.3482,-4.4592 -5.8215,-4.4592 -4.0432,0 -7.4192,4.9262 -8.9317,13.0328 -0.4654,2.4942 -1.6675,7.3611 -2.6713,10.8155 -1.0039,3.4542 -2.399,8.8221 -3.1003,11.9285 -1.5461,6.849 -3.0823,11.5535 -4.1675,12.764 -0.6956,0.7758 -1.7977,0.9013 -7.9132,0.9013 -8.9983,0 -11.8036,0.5787 -14.4662,2.9842 -2.0361,1.8395 -4.0853,5.287 -4.7269,7.9521 -0.2125,0.8832 -0.7683,1.5043 -1.49,1.6654 -1.6001,0.3574 -12.2849,1.2012 -19.6917,1.5552 -9.9479,0.4754 -10.1889,0.535 -13.4647,3.3303 -2.3516,2.0067 -3.9048,2.8071 -7.9991,4.1223 -7.0505,2.2647 -8.8072,4.5612 -5.7939,7.5744 1.1486,1.1486 1.6564,1.2943 3.7968,1.0886 1.3829,-0.1329 3.1653,-0.7319 4.0478,-1.3602 0.8672,-0.6176 2.5511,-1.4666 3.742,-1.8867 1.1907,-0.4201 3.5273,-1.7763 5.1924,-3.0136 2.8913,-2.1486 3.2291,-2.2637 7.5255,-2.5661 2.4741,-0.174 8.2402,-0.5854 12.8136,-0.9141 4.5734,-0.3285 8.6581,-0.4659 9.077,-0.3052 0.4289,0.1646 0.9117,1.2923 1.1049,2.5809 0.4749,3.1666 2.0377,4.4832 6.3405,5.341 1.9186,0.3826 4.7632,0.9514 6.3211,1.2641 1.558,0.3127 5.4265,0.4715 8.5968,0.3528 5.1311,-0.192 6.0877,-0.3819 8.7088,-1.7288 2.6923,-1.3834 4.7668,-3.6051 6.8616,-7.3481 0.7044,-1.2587 5.6151,0.1933 7.5066,2.2195 1.2429,1.3315 2.3006,1.8165 5.4078,2.4796 5.4011,1.1526 24.3655,2.9474 31.1588,2.9487 3.1159,0 9.6051,0.4425 14.4206,0.982 10.361,1.1608 25.6534,1.7603 27.7377,1.0875 z m -29.925,-8.283 c -4.8854,-0.5538 -11.4418,-1.0069 -14.5697,-1.0069 -6.507,0 -15.4551,-0.875 -16.1787,-1.5821 -0.3011,-0.2941 10.7023,-0.478 28.6095,-0.478 21.9457,0 29.2506,0.1519 29.7168,0.618 0.8042,0.8042 0.7908,2.6 -0.026,3.4558 -0.8624,0.9036 -15.3777,0.3732 -27.5521,-1.0068 z m -53.3176,-9.5048 c 0.065,-0.5665 0.3155,-2.2236 0.5577,-3.6823 0.628,-3.7831 -0.1547,-5.8513 -2.6609,-7.0306 -1.629,-0.7665 -1.9333,-1.1372 -1.6939,-2.0636 0.1605,-0.621 1.1139,-4.3738 2.1185,-8.3394 1.0047,-3.9657 2.6348,-9.9914 3.6224,-13.3906 0.9877,-3.3991 2.2702,-8.4978 2.85,-11.3304 1.359,-6.6396 1.4624,-6.9528 2.2967,-6.9528 2.0785,0 7.4891,21.9275 7.4562,30.2174 -0.04,10.1356 -1.5198,16.2232 -4.7819,19.674 -3.2817,3.4715 -10.0595,5.4832 -9.7648,2.8983 z"
       style="fill:#000000" />
  </g>
</svg>
