<?xml version="1.0" encoding="UTF-8" standalone="no"?>
<!-- Created with Inkscape (http://www.inkscape.org/) -->

<svg
   xmlns:dc="http://purl.org/dc/elements/1.1/"
   xmlns:cc="http://creativecommons.org/ns#"
   xmlns:rdf="http://www.w3.org/1999/02/22-rdf-syntax-ns#"
   xmlns:svg="http://www.w3.org/2000/svg"
   xmlns="http://www.w3.org/2000/svg"
   xmlns:sodipodi="http://sodipodi.sourceforge.net/DTD/sodipodi-0.dtd"
   xmlns:inkscape="http://www.inkscape.org/namespaces/inkscape"
   width="177.16534"
   height="106.29921"
   id="svg2"
   version="1.1"
   inkscape:version="0.48.4 r9939"
   sodipodi:docname="paschimottanasana.svg">
  <defs
     id="defs4" />
  <sodipodi:namedview
     id="base"
     pagecolor="#ffffff"
     bordercolor="#666666"
     borderopacity="1.0"
     inkscape:pageopacity="0.0"
     inkscape:pageshadow="2"
     inkscape:zoom="0.6325333"
     inkscape:cx="222.45988"
     inkscape:cy="-185.74843"
     inkscape:document-units="cm"
     inkscape:current-layer="layer1"
     showgrid="false"
     fit-margin-top="0"
     fit-margin-left="0"
     fit-margin-right="0"
     fit-margin-bottom="0"
     inkscape:window-width="1330"
     inkscape:window-height="747"
     inkscape:window-x="36"
     inkscape:window-y="21"
     inkscape:window-maximized="1"
     units="cm" />
  <metadata
     id="metadata7">
    <rdf:RDF>
      <cc:Work
         rdf:about="">
        <dc:format>image/svg+xml</dc:format>
        <dc:type
           rdf:resource="http://purl.org/dc/dcmitype/StillImage" />
        <dc:title />
      </cc:Work>
    </rdf:RDF>
  </metadata>
  <g
     inkscape:label="Layer 1"
     inkscape:groupmode="layer"
     id="layer1"
     transform="translate(-596.81236,-995.62675)">
    <path
       inkscape:connector-curvature="0"
       id="path3051"
       d="m 622.12128,1074.1834 c -2.75161,-0.5954 -8.04883,-1.2602 -11.77159,-1.4772 -10.68631,-0.6227 -13.53733,-1.7092 -13.53733,-5.1585 0,-3.104 1.53153,-3.4909 11.49315,-2.9033 4.84248,0.2856 9.00489,0.3955 9.24979,0.2441 0.24491,-0.1513 0.39821,-1.7826 0.34068,-3.625 -0.10855,-3.4762 0.51856,-14.9934 1.05801,-19.431 0.56215,-4.6243 4.20639,-6.3549 6.72738,-3.1947 1.22749,1.5387 1.27058,1.9672 0.87303,8.6815 -0.23,3.8847 -0.46074,8.1224 -0.51277,9.4173 l -0.0946,2.3543 12.52725,-0.069 c 6.88998,-0.038 12.68985,-0.2316 12.88859,-0.4303 0.19874,-0.1987 -0.64701,-2.5514 -1.87942,-5.2282 -2.06796,-4.4916 -2.24178,-5.2794 -2.25403,-10.2158 -0.0112,-4.5364 0.18819,-5.6749 1.313,-7.4948 1.70962,-2.7663 7.29857,-7.7436 10.35827,-9.2248 3.27693,-1.5863 10.79134,-2.5537 16.70915,-2.1512 5.43962,0.3701 6.71113,1.0563 8.11781,4.3807 0.45113,1.0662 1.2273,2.0947 1.72482,2.2857 0.49753,0.1909 3.20398,-0.738 6.01434,-2.0642 7.97538,-3.7635 15.03558,-5.3192 27.63429,-6.0891 7.9907,-0.4883 12.01091,-0.4875 15.4803,0.01 9.42287,1.3326 17.31613,6.0008 25.70354,15.2015 8.81175,9.6662 13.7001,17.6543 13.69275,22.3755 -0.004,2.5102 -2.38186,5.2724 -4.85426,5.6386 -1.05453,0.1562 -9.33342,-0.089 -18.39755,-0.5453 -19.88668,-1.0008 -64.07593,-0.7188 -82.10684,0.5239 -12.9305,0.8912 -13.51241,1.0419 -18.83454,4.8752 -5.21523,3.7564 -6.11966,4.0156 -14.71449,4.2172 -6.06746,0.1424 -9.1285,-0.07 -12.94875,-0.8962 z m 142.43624,-17.0483 c 0,-1.5216 -6.24691,-9.8574 -11.53569,-15.3931 -5.30096,-5.5485 -9.21321,-8.2794 -14.39357,-10.0476 -3.58489,-1.2235 -4.48173,-1.2767 -16.27152,-0.9646 -12.66983,0.3354 -14.89143,0.7304 -14.89143,2.6477 0,1.8994 -1.75627,3.5536 -5.10217,4.8054 -4.26785,1.5968 -6.66942,3.3201 -6.66942,4.7856 0,0.6383 0.56002,2.2582 1.24448,3.5999 0.71324,1.3981 1.31446,3.8378 1.4084,5.7152 0.0901,1.8017 0.19228,3.4328 0.22696,3.6247 0.0347,0.1919 10.85613,0.5467 24.04767,0.7883 13.19154,0.2417 26.89808,0.6355 30.45899,0.8751 11.39876,0.7672 11.4773,0.7642 11.4773,-0.4366 z"
       style="fill:#000000" />
  </g>
</svg>
