<?xml version="1.0" encoding="UTF-8" standalone="no"?>
<!-- Created with Inkscape (http://www.inkscape.org/) -->

<svg
   xmlns:dc="http://purl.org/dc/elements/1.1/"
   xmlns:cc="http://creativecommons.org/ns#"
   xmlns:rdf="http://www.w3.org/1999/02/22-rdf-syntax-ns#"
   xmlns:svg="http://www.w3.org/2000/svg"
   xmlns="http://www.w3.org/2000/svg"
   xmlns:sodipodi="http://sodipodi.sourceforge.net/DTD/sodipodi-0.dtd"
   xmlns:inkscape="http://www.inkscape.org/namespaces/inkscape"
   width="177.16534"
   height="106.29941"
   id="svg2"
   version="1.1"
   inkscape:version="0.48.4 r9939"
   sodipodi:docname="sarvangasana.svg">
  <defs
     id="defs4" />
  <sodipodi:namedview
     id="base"
     pagecolor="#ffffff"
     bordercolor="#666666"
     borderopacity="1.0"
     inkscape:pageopacity="0.0"
     inkscape:pageshadow="2"
     inkscape:zoom="5.832582"
     inkscape:cx="23.797763"
     inkscape:cy="53.149712"
     inkscape:document-units="cm"
     inkscape:current-layer="layer1"
     showgrid="false"
     fit-margin-top="0"
     fit-margin-left="0"
     fit-margin-right="0"
     fit-margin-bottom="0"
     inkscape:window-width="1330"
     inkscape:window-height="747"
     inkscape:window-x="36"
     inkscape:window-y="21"
     inkscape:window-maximized="1"
     units="cm" />
  <metadata
     id="metadata7">
    <rdf:RDF>
      <cc:Work
         rdf:about="">
        <dc:format>image/svg+xml</dc:format>
        <dc:type
           rdf:resource="http://purl.org/dc/dcmitype/StillImage" />
        <dc:title />
      </cc:Work>
    </rdf:RDF>
  </metadata>
  <g
     inkscape:label="Layer 1"
     inkscape:groupmode="layer"
     id="layer1"
     transform="translate(-1208.8408,-3907.9365)">
    <path
       inkscape:connector-curvature="0"
       id="path3176"
       d="m 1278.6041,4014.0525 c -2.6527,-0.702 -3.8546,-1.7064 -4.5008,-3.7613 -0.6054,-1.9248 -0.6431,-6.2217 -0.068,-7.7373 0.4005,-1.0554 2.1629,-3.7336 3.1561,-4.7962 1.7091,-1.8284 5.0379,-1.9188 12.731,-0.3455 3.5727,0.7307 4.7658,1.4299 4.8345,2.8332 0.061,1.2515 -0.044,2.0679 -0.4418,3.4174 -0.6378,2.1659 -0.6436,2.1549 1.1478,2.149 2.3704,-0.01 5.3406,-0.349 6.0753,-0.6976 0.488,-0.2315 0.8479,-0.6656 1.3564,-1.6355 2.1927,-4.1825 3.1792,-8.2366 3.4973,-14.3724 0.2148,-4.1431 0.6364,-31.9818 0.4902,-32.3687 -0.098,-0.2587 -1.1141,-6.7753 -1.8914,-12.1269 -0.3822,-2.6311 -0.3894,-3.0191 -0.1453,-7.8114 0.2783,-5.4648 0.3356,-13.3454 0.128,-17.6005 -0.1556,-3.1878 0.1457,-2.8271 -3.9645,-4.7454 -2.5386,-1.1848 -6.04,-3.3206 -7.2269,-4.4082 -0.4899,-0.449 -0.6042,-1.4848 -0.2077,-1.8814 0.3293,-0.3292 1.25,-0.2965 1.9582,0.07 0.3265,0.1689 1.3785,0.8224 2.3378,1.4522 0.9592,0.6299 3.486,2.0004 5.6152,3.0456 4.2787,2.1005 4.6353,2.3979 4.3738,3.6479 -0.085,0.4086 -0.1202,2.0334 -0.077,3.6105 0.1424,5.2334 0.081,10.5126 -0.1925,16.5128 -0.2432,5.3381 -0.2384,6.1409 0.048,8.0092 0.1751,1.1421 0.5868,3.8683 0.9148,6.0583 0.328,2.19 0.7231,4.7121 0.878,5.6046 0.237,1.3656 0.2535,3.6655 0.1041,14.5086 -0.2294,16.6609 -0.4063,20.4454 -1.152,24.6524 -0.6792,3.8314 -1.3563,5.8698 -3.0997,9.3317 -0.3704,0.7355 -0.6734,1.466 -0.6734,1.6232 0,0.3335 0.4204,0.4354 2.9663,0.7187 1.0333,0.115 2.3237,0.2931 2.8675,0.3958 0.5439,0.1028 2.0086,0.2803 3.2551,0.3946 1.2465,0.1142 2.6539,0.3053 3.1275,0.4246 1.7168,0.4323 1.7071,0.3897 -2.2286,-9.8234 -0.6642,-1.7235 -1.9797,-4.6943 -2.9261,-6.6082 l -0.8231,-1.6642 -0.1245,-5.6528 c -0.1075,-4.8813 -0.084,-5.7001 0.1743,-5.9989 0.6073,-0.7032 1.5167,-0.2814 2.2383,1.0382 0.202,0.3694 0.2873,1.7194 0.3374,5.3395 l 0.067,4.8451 0.6649,1.2854 c 0.7067,1.3662 2.4672,5.2468 2.4672,5.4383 0,0.063 0.4777,1.3342 1.0616,2.8256 2.1837,5.5781 3.4868,9.5977 3.4868,10.7553 0,0.8216 -0.4235,1.4622 -1.0748,1.6257 -0.2917,0.073 -1.3166,-0.1079 -2.5261,-0.4463 -1.1193,-0.3131 -2.8361,-0.6302 -3.815,-0.7045 -0.9789,-0.074 -2.5362,-0.2627 -3.4608,-0.4186 -3.7777,-0.6369 -8.2595,-1.056 -12.5576,-1.1741 -2.5017,-0.069 -4.8257,-0.1723 -5.1647,-0.23 -0.5656,-0.096 -0.6954,0 -1.582,1.1247 -1.4524,1.849 -3.8205,3.3064 -6.5786,4.0486 -1.5868,0.427 -4.6461,0.5434 -5.8572,0.2228 z"
       style="fill:#000000" />
  </g>
</svg>
