<?xml version="1.0" encoding="UTF-8" standalone="no"?>
<!-- Created with Inkscape (http://www.inkscape.org/) -->

<svg
   xmlns:dc="http://purl.org/dc/elements/1.1/"
   xmlns:cc="http://creativecommons.org/ns#"
   xmlns:rdf="http://www.w3.org/1999/02/22-rdf-syntax-ns#"
   xmlns:svg="http://www.w3.org/2000/svg"
   xmlns="http://www.w3.org/2000/svg"
   xmlns:sodipodi="http://sodipodi.sourceforge.net/DTD/sodipodi-0.dtd"
   xmlns:inkscape="http://www.inkscape.org/namespaces/inkscape"
   width="177.16525"
   height="106.29921"
   id="svg2"
   version="1.1"
   inkscape:version="0.48.4 r9939"
   sodipodi:docname="shavasana.svg">
  <defs
     id="defs4" />
  <sodipodi:namedview
     id="base"
     pagecolor="#ffffff"
     bordercolor="#666666"
     borderopacity="1.0"
     inkscape:pageopacity="0.0"
     inkscape:pageshadow="2"
     inkscape:zoom="1.4"
     inkscape:cx="245.50481"
     inkscape:cy="119.16413"
     inkscape:document-units="cm"
     inkscape:current-layer="layer1"
     showgrid="false"
     inkscape:window-width="1330"
     inkscape:window-height="747"
     inkscape:window-x="36"
     inkscape:window-y="21"
     inkscape:window-maximized="1"
     fit-margin-top="0"
     fit-margin-left="0"
     fit-margin-right="0"
     fit-margin-bottom="0"
     units="cm" />
  <metadata
     id="metadata7">
    <rdf:RDF>
      <cc:Work
         rdf:about="">
        <dc:format>image/svg+xml</dc:format>
        <dc:type
           rdf:resource="http://purl.org/dc/dcmitype/StillImage" />
      </cc:Work>
    </rdf:RDF>
  </metadata>
  <g
     inkscape:label="Layer 1"
     inkscape:groupmode="layer"
     id="layer1"
     transform="translate(-314.35792,-624.32211)">
    <path
       style="fill:#000000"
       d="m 404.71202,720.10285 c -0.74783,-0.25709 -1.63284,-0.70798 -1.96669,-1.00198 -0.33385,-0.29399 -1.58034,-1.0228 -2.76997,-1.61956 -1.18963,-0.59677 -3.62297,-2.17759 -5.40742,-3.51293 -3.66693,-2.74406 -5.39412,-3.58624 -9.01236,-4.39451 -1.3879,-0.31003 -3.7996,-1.20089 -5.35933,-1.97967 -1.64115,-0.81943 -4.22299,-1.71772 -6.12841,-2.13225 -1.81089,-0.39395 -4.67142,-1.2627 -6.35673,-1.93056 -2.1606,-0.85619 -4.12727,-1.33077 -6.66916,-1.60931 -6.88822,-0.75481 -8.88941,-1.60514 -10.9627,-4.65821 -2.65566,-3.91062 -4.30592,-4.74655 -9.00684,-4.56232 -3.09347,0.12123 -3.27547,0.29428 -3.39418,3.2273 -0.0994,2.45493 -0.95896,3.53508 -3.78833,4.76032 -1.1264,0.48778 -3.10244,1.40137 -4.39121,2.03021 -1.70024,0.8296 -2.98619,1.18078 -4.68643,1.27979 -2.21281,0.12885 -2.45356,0.0617 -4.32593,-1.20695 -2.99339,-2.02818 -3.88552,-2.99383 -5.05748,-5.4743 -0.86481,-1.83037 -1.07093,-2.74492 -1.07093,-4.75177 0,-2.39349 0.047,-2.52642 1.27428,-3.60398 0.70085,-0.61535 1.58589,-1.11883 1.96675,-1.11883 0.38086,0 1.75189,-1.07516 3.04673,-2.38926 2.14082,-2.17265 2.45554,-2.369 3.47146,-2.16582 0.82643,0.16529 1.51621,-0.0104 2.65019,-0.67494 1.26458,-0.7411 2.00079,-0.89734 4.20501,-0.89245 4.48003,0.01 6.81587,1.99151 6.81716,5.7832 3.1e-4,0.9039 0.20334,1.90885 0.45118,2.23323 0.39924,0.52254 0.5842,0.53238 1.62222,0.0863 1.40838,-0.60522 1.43915,-0.9038 0.27038,-2.62381 -0.53684,-0.79002 -0.90223,-1.83905 -0.90368,-2.59445 -0.002,-1.12674 0.36255,-1.62042 3.27041,-4.42667 1.80007,-1.73718 3.73156,-3.3957 4.2922,-3.68562 1.83437,-0.94859 3.54577,-3.33266 3.98337,-5.54907 0.47784,-2.42018 0.86361,-3.77623 1.96101,-6.89327 0.45372,-1.28877 1.35877,-4.04656 2.01121,-6.12841 2.13422,-6.81005 3.33725,-8.83936 5.09282,-8.59071 1.1172,0.15823 1.27589,1.41684 0.36798,2.9187 -0.38762,0.6412 -1.39195,3.35583 -2.23185,6.0325 -0.83989,2.67667 -1.9048,5.86318 -2.36646,7.08112 -0.46166,1.21794 -1.11159,3.57017 -1.44429,5.22717 -0.98906,4.92597 -1.1735,5.1703 -8.17469,10.82931 -2.00429,1.62005 -3.15433,2.80446 -3.15433,3.2486 0,1.05608 1.70131,3.06856 2.96713,3.50982 0.99885,0.3482 1.49866,0.21676 4.57466,-1.20303 1.89931,-0.87667 4.02107,-1.7069 4.71502,-1.84494 2.96316,-0.58945 7.01812,-2.46334 8.66604,-4.00478 1.9065,-1.78331 3.0081,-2.30626 7.0286,-3.33665 1.57896,-0.40466 4.57417,-1.37562 6.65603,-2.1577 2.16437,-0.81308 5.32882,-1.66684 7.39013,-1.99384 6.3165,-1.00201 6.65159,-1.17832 9.80956,-5.1614 0.63674,-0.8031 3.07008,-2.78332 5.40742,-4.4005 7.41327,-5.12915 11.09247,-7.96501 15.5964,-12.02147 2.56432,-2.30954 7.57573,-5.34968 10.43983,-6.33326 2.22576,-0.76435 2.55459,-1.306 2.30531,-3.7973 -0.12143,-1.21363 -0.52231,-2.80848 -0.89085,-3.5441 -0.83684,-1.6704 -0.83836,-2.15999 -0.01,-3.1831 0.8408,-1.03834 2.28062,-0.75856 2.88135,0.55988 0.59929,1.31531 1.6222,8.67347 1.3542,9.74127 -0.27817,1.10831 -2.72427,2.92441 -4.6301,3.4376 -2.36861,0.6378 -7.00577,3.41845 -9.75241,5.84798 -4.7691,4.2185 -10.76855,8.86378 -15.38734,11.91417 -3.38633,2.23644 -5.40742,4.14913 -5.40742,5.11739 0,0.28426 0.81474,0.76194 1.8926,1.10964 1.59522,0.51459 4.35657,0.65426 17.57411,0.8889 11.15827,0.19808 16.68962,0.43854 19.17653,0.83364 1.92227,0.30539 6.78894,0.72146 10.81484,0.92459 4.02589,0.20314 9.27519,0.54516 11.6651,0.76004 3.63852,0.32716 5.0647,0.29249 8.76831,-0.21313 3.23271,-0.44134 6.04093,-0.56068 10.43498,-0.44346 5.46801,0.14587 6.33813,0.26212 9.61691,1.28484 3.85252,1.20168 5.33373,2.28676 4.97808,3.64675 -0.32253,1.23335 -1.28917,1.17175 -5.91316,-0.3768 -5.66888,-1.89847 -9.90869,-2.19445 -17.42057,-1.21609 -3.44616,0.44883 -6.02005,0.57542 -8.602,0.42306 -2.02641,-0.11958 -8.06439,-0.46749 -13.41774,-0.77314 -5.35334,-0.30563 -10.62557,-0.71702 -11.71607,-0.91419 -3.6786,-0.66511 -12.37796,-1.07094 -23.07177,-1.07632 -7.87301,-0.004 -11.28213,-0.1408 -13.1277,-0.52694 -4.29195,-0.89799 -14.36592,0.44383 -20.03767,2.66895 -1.88358,0.73896 -4.94849,1.71756 -6.8109,2.17467 -2.88523,0.70814 -3.65858,1.06455 -5.22717,2.40903 -2.29503,1.96711 -5.99067,3.76986 -9.84751,4.80364 -2.99447,0.80264 -6.23299,2.51437 -6.23299,3.29446 0,0.5178 2.45171,3.73618 3.8505,5.05458 1.29594,1.22146 2.86963,1.65746 8.22607,2.27911 3.36168,0.39014 4.88008,0.7544 6.81199,1.63415 1.36733,0.62266 3.96289,1.45191 5.76791,1.84278 1.82433,0.39506 4.80282,1.41684 6.70655,2.30071 1.88359,0.87451 4.1547,1.70451 5.04693,1.84443 2.82601,0.44319 6.5393,2.24209 9.90178,4.79689 1.79094,1.36075 4.2296,2.96742 5.41923,3.57038 3.82777,1.94008 5.76791,3.40327 5.76791,4.34999 0,1.14965 -1.12526,1.52 -2.83372,0.93266 z"
       id="path3009"
       inkscape:connector-curvature="0" />
  </g>
</svg>
