<?xml version="1.0" encoding="UTF-8" standalone="no"?>
<!-- Created with Inkscape (http://www.inkscape.org/) -->

<svg
   xmlns:dc="http://purl.org/dc/elements/1.1/"
   xmlns:cc="http://creativecommons.org/ns#"
   xmlns:rdf="http://www.w3.org/1999/02/22-rdf-syntax-ns#"
   xmlns:svg="http://www.w3.org/2000/svg"
   xmlns="http://www.w3.org/2000/svg"
   xmlns:sodipodi="http://sodipodi.sourceforge.net/DTD/sodipodi-0.dtd"
   xmlns:inkscape="http://www.inkscape.org/namespaces/inkscape"
   width="177.16534"
   height="106.29921"
   id="svg2"
   version="1.1"
   inkscape:version="0.48.4 r9939"
   sodipodi:docname="uttanasana.svg">
  <defs
     id="defs4" />
  <sodipodi:namedview
     id="base"
     pagecolor="#ffffff"
     bordercolor="#666666"
     borderopacity="1.0"
     inkscape:pageopacity="0.0"
     inkscape:pageshadow="2"
     inkscape:zoom="0.92884821"
     inkscape:cx="135.9162"
     inkscape:cy="333.74249"
     inkscape:document-units="cm"
     inkscape:current-layer="layer1"
     showgrid="false"
     fit-margin-top="0"
     fit-margin-left="0"
     fit-margin-right="0"
     fit-margin-bottom="0"
     inkscape:window-width="1330"
     inkscape:window-height="747"
     inkscape:window-x="36"
     inkscape:window-y="21"
     inkscape:window-maximized="1"
     units="cm" />
  <metadata
     id="metadata7">
    <rdf:RDF>
      <cc:Work
         rdf:about="">
        <dc:format>image/svg+xml</dc:format>
        <dc:type
           rdf:resource="http://purl.org/dc/dcmitype/StillImage" />
        <dc:title />
      </cc:Work>
    </rdf:RDF>
  </metadata>
  <g
     inkscape:label="Layer 1"
     inkscape:groupmode="layer"
     id="layer1"
     transform="translate(-1185.5961,-1050.2056)">
    <path
       inkscape:connector-curvature="0"
       id="path2998"
       d="m 1258.9442,1156.3497 c -0.6665,-0.3012 -0.9731,-1.0437 -0.7016,-1.6992 0.2468,-0.5958 0.5728,-0.778 1.726,-0.9646 0.4945,-0.08 1.2575,-0.2182 1.6954,-0.3069 1.1897,-0.2412 2.6959,-0.4616 4.2998,-0.6292 0.7883,-0.082 1.7916,-0.226 2.2295,-0.319 0.438,-0.093 1.2979,-0.2401 1.911,-0.3268 0.6132,-0.087 1.4644,-0.2108 1.8916,-0.2756 l 0.7769,-0.118 0.2965,-1.1148 c 0.3216,-1.2086 0.6173,-2.499 1.1132,-4.8571 0.1749,-0.8321 0.4509,-1.9787 0.6131,-2.5481 0.1622,-0.5693 0.3808,-1.4292 0.4857,-1.911 0.1049,-0.4817 0.3688,-1.485 0.5864,-2.2295 0.2176,-0.7445 0.4657,-1.8911 0.5513,-2.548 0.085,-0.6569 0.2224,-1.6244 0.3041,-2.1499 0.2195,-1.4118 0.448,-3.1598 0.6245,-4.7776 0.086,-0.7882 0.2302,-1.8632 0.3206,-2.3887 0.1623,-0.9444 0.328,-2.2224 0.6298,-4.8572 0.085,-0.7445 0.2294,-1.7119 0.3203,-2.1499 0.4264,-2.0544 0.5149,-2.687 0.646,-4.6182 0.077,-1.1387 0.2173,-2.5003 0.3112,-3.0258 0.094,-0.5256 0.2441,-1.6722 0.3338,-2.5481 0.09,-0.8758 0.2306,-2.1658 0.313,-2.8665 0.3217,-2.7346 0.4992,-4.6642 0.5249,-5.7085 l 0.027,-1.0902 -0.7962,-0.3123 c -0.7554,-0.2962 -2.2401,-0.7769 -5.0961,-1.6499 -2.0853,-0.6373 -2.3634,-0.5198 -1.5121,0.6391 0.2574,0.3503 0.591,0.8162 0.7414,1.0351 0.1505,0.219 0.5121,0.6984 0.8037,1.0654 0.622,0.783 1.2869,2.2862 2.1352,4.8269 0.548,1.6414 0.8184,2.635 1.3984,5.1382 0.097,0.4173 0.1758,1.6637 0.1758,2.7697 0,2.8528 -0.6663,5.0081 -1.8556,6.0022 -0.2983,0.2494 -0.6845,0.732 -0.8583,1.0726 -0.1738,0.3407 -0.5121,0.7437 -0.7518,0.8957 -0.2398,0.1519 -0.6867,0.4718 -0.9933,0.7108 -0.3065,0.2389 -1.6115,0.9756 -2.9,1.637 l -2.3427,1.2025 -3.3904,-0.01 c -3.0817,-0.01 -3.4556,-0.034 -4.107,-0.3318 -0.3941,-0.1806 -1.1514,-0.4933 -1.6828,-0.695 -2.3701,-0.8997 -3.2238,-1.5986 -4.739,-3.88 -1.1503,-1.7319 -1.8452,-3.0565 -2.2468,-4.2827 -0.2253,-0.6879 -0.2587,-1.2403 -0.1928,-3.185 0.1529,-4.5105 0.4712,-5.6849 2.213,-8.1654 0.8402,-1.1966 2.829,-3.1752 3.5804,-3.5624 0.9489,-0.4888 4.1014,-2.6739 4.2439,-2.9415 0.077,-0.1453 0.3225,-0.4602 0.5447,-0.6996 0.3699,-0.3984 0.383,-0.4589 0.1559,-0.7165 -0.1364,-0.1548 -0.7011,-1.1695 -1.2547,-2.2548 -1.0537,-2.0656 -1.6814,-2.7615 -3.181,-3.5266 -0.7667,-0.3911 -1.0316,-1.0696 -0.7143,-1.8291 0.2236,-0.5351 0.7506,-0.7957 1.8402,-0.9102 0.3975,-0.042 0.3984,-0.046 0.4971,-2.1917 0.1164,-2.5312 0.3274,-4.1767 0.7047,-5.4942 0.1504,-0.5256 0.3721,-1.3135 0.4925,-1.7511 0.2795,-1.0153 0.7661,-2.4391 1.2613,-3.6906 0.2137,-0.5405 0.3887,-1.1797 0.3887,-1.4206 0,-0.2408 0.2076,-0.9094 0.4614,-1.4857 0.2537,-0.5763 0.5838,-1.3927 0.7335,-1.8141 0.1497,-0.4214 0.516,-1.0664 0.814,-1.4332 0.298,-0.3669 0.7166,-1.0367 0.9301,-1.4885 0.2136,-0.4518 0.4621,-0.867 0.5522,-0.9227 0.09,-0.056 0.4305,-0.5102 0.7563,-1.01 0.3258,-0.4998 0.8545,-1.2312 1.1749,-1.6253 0.3204,-0.3941 0.6716,-0.8859 0.7803,-1.0928 0.1087,-0.2069 0.8099,-0.9594 1.5581,-1.6721 0.7482,-0.7128 1.8817,-1.7976 2.5189,-2.4108 3.4109,-3.2816 5.4449,-5.1284 6.1471,-5.5811 0.3197,-0.206 0.7874,-0.6816 1.0393,-1.0568 0.3686,-0.5487 0.6739,-0.7718 1.5618,-1.141 0.6069,-0.2524 1.5008,-0.5222 1.9864,-0.5996 0.4855,-0.077 1.1432,-0.185 1.4614,-0.2391 0.9167,-0.156 1.7158,0.189 2.0185,0.8716 0.3414,0.7697 0.3749,5.7773 0.05,7.4275 -0.1209,0.6132 -0.2772,1.8673 -0.3474,2.7869 -0.07,0.9197 -0.2072,2.0305 -0.3042,2.4684 -0.2911,1.314 -0.4894,3.1884 -0.6485,6.1312 -0.083,1.5328 -0.2225,3.611 -0.3103,4.6183 -0.088,1.0073 -0.2302,2.9422 -0.3165,4.2998 -0.1504,2.3663 -0.296,3.9668 -0.6445,7.0867 -0.088,0.7883 -0.2285,2.5082 -0.312,3.822 -0.1728,2.7195 -0.4927,5.5579 -0.8824,7.8292 -0.1333,0.7773 -0.1491,0.7656 2.3133,1.7239 0.8321,0.3239 1.6203,0.6789 1.7517,0.7889 0.2371,0.1986 2.6307,1.5487 2.9427,1.6598 0.825,0.2938 3.0044,1.458 3.5325,1.8871 1.1492,0.9337 1.1689,1.0591 1.1689,7.4517 0,6.0304 0,6.0077 -0.9024,8.9968 -0.3048,1.0073 -0.6653,2.2613 -0.801,2.7869 -0.1357,0.5255 -0.3812,1.357 -0.5456,1.8477 -0.1645,0.4908 -0.299,1.009 -0.299,1.1518 0,0.9615 -2.3581,7.6063 -3.0884,8.7026 -0.2053,0.3081 -0.6102,0.9902 -0.8998,1.5157 -0.2896,0.5256 -0.7111,1.1899 -0.9367,1.4764 -0.943,1.1978 -3.0193,3.4021 -3.6034,3.8256 -0.7672,0.5562 -2.6202,2.539 -3.2632,3.4916 -0.6822,1.011 -0.8491,1.3784 -1.4312,3.1503 -0.6725,2.0474 -1.1324,2.962 -1.7514,3.4828 -0.6648,0.5594 -1.1354,0.6556 -1.7222,0.3522 -0.6855,-0.3545 -0.7329,-0.3331 -0.9419,0.425 -0.2407,0.8732 -0.7122,1.6241 -1.2346,1.9664 -0.2281,0.1495 -0.8944,0.328 -1.4807,0.3967 -1.2939,0.1517 -3.1208,0.4101 -4.4101,0.6239 -0.5255,0.087 -1.493,0.2293 -2.1499,0.3162 -1.7096,0.2258 -2.9978,0.4441 -3.8221,0.6477 -1.1905,0.294 -3.043,0.341 -3.5956,0.091 z m 19.0395,-11.1193 c 0.3744,-0.7174 0.9214,-1.6311 1.2155,-2.0305 0.2942,-0.3994 0.815,-1.1229 1.1573,-1.6079 0.3423,-0.485 0.9159,-1.1299 1.2745,-1.4333 3.3516,-2.8341 3.8404,-3.3546 4.8762,-5.1929 0.2628,-0.4663 0.7139,-1.261 1.0025,-1.766 0.9537,-1.6689 2.8942,-6.9212 2.9027,-7.8568 0,-0.2128 0.1452,-0.6992 0.3185,-1.081 0.1733,-0.3819 0.315,-0.8982 0.315,-1.1474 0,-0.2492 0.2733,-1.2268 0.6075,-2.1723 0.3341,-0.9455 0.6953,-2.1491 0.8027,-2.6747 0.1074,-0.5255 0.264,-1.2611 0.348,-1.6346 0.084,-0.3735 0.1528,-2.8911 0.1528,-5.5947 l 0,-4.9156 -0.5176,-0.3879 c -0.2846,-0.2134 -1.7716,-1.017 -3.3044,-1.7857 -1.5328,-0.7688 -3.176,-1.606 -3.6516,-1.8605 -0.4755,-0.2545 -1.0595,-0.4628 -1.2978,-0.4628 -0.4854,0 -0.4636,-0.086 -0.7846,3.1055 -0.088,0.8758 -0.231,2.1658 -0.3176,2.8665 -0.086,0.7007 -0.2275,1.9906 -0.3132,2.8665 -0.086,0.8759 -0.233,2.0225 -0.3273,2.548 -0.094,0.5255 -0.2355,1.8872 -0.3137,3.0258 -0.1322,1.9244 -0.2108,2.5197 -0.6419,4.8572 -0.089,0.4817 -0.2326,1.4491 -0.3194,2.1499 -0.2982,2.4046 -0.4711,3.6641 -0.6342,4.6182 -0.09,0.5256 -0.2342,1.6005 -0.321,2.3888 -0.2059,1.8699 -0.4026,3.382 -0.632,4.8572 -0.1021,0.6569 -0.2378,1.6243 -0.3016,2.1499 -0.1122,0.9249 -0.3317,1.7862 -0.9817,3.8518 -0.1705,0.542 -0.31,1.1434 -0.31,1.3365 0,0.1931 -0.1369,0.8247 -0.3041,1.4034 -0.2445,0.846 -0.5338,2.8837 -0.4095,2.8837 0.016,0 0.3357,-0.5869 0.71,-1.3043 z m 3.1995,-48.4025 c 0.3391,-0.6334 0.6385,-3.0527 0.9437,-7.6237 0.085,-1.27 0.2277,-2.9182 0.3176,-3.6627 0.2385,-1.9747 0.4437,-4.4377 0.9621,-11.5458 0.083,-1.1386 0.2203,-3.2527 0.305,-4.6978 0.1652,-2.819 0.3692,-4.6976 0.6486,-5.972 0.096,-0.4379 0.2366,-1.5487 0.3125,-2.4684 0.076,-0.9197 0.2306,-2.0304 0.3438,-2.4684 0.1152,-0.4452 0.2084,-1.709 0.2114,-2.8665 l 0.01,-2.0703 -0.4054,-0.047 c -0.3038,-0.035 -0.6101,0.1491 -1.2232,0.7369 -0.4498,0.4313 -1.1611,0.9504 -1.5808,1.1535 -0.6915,0.3348 -2.6811,1.9798 -3.4792,2.8767 -0.1751,0.1969 -0.5558,0.577 -0.8459,0.8448 -4.5953,4.2423 -5.8937,5.6081 -7.3556,7.7373 -0.3065,0.4465 -0.7196,1.0402 -0.918,1.3194 -1.5353,2.1606 -3.2224,5.4386 -3.2224,6.2609 0,0.1998 -0.1806,0.8503 -0.4013,1.4455 -0.5702,1.538 -1.5588,4.6244 -1.9026,5.9393 -0.3163,1.2104 -0.4605,2.9609 -0.4711,5.7211 l -0.012,3.0935 1.4332,0.6178 c 0.7883,0.3399 1.7278,0.7573 2.0877,0.9277 0.36,0.1704 0.7116,0.3098 0.7815,0.3098 0.07,0 1.2802,0.5306 2.6898,1.179 2.766,1.2724 4.5955,1.9221 9.4107,3.3416 1.0697,0.3153 1.1546,0.3102 1.3645,-0.082 z"
       style="fill:#020202" />
  </g>
</svg>
