<?xml version="1.0" encoding="UTF-8" standalone="no"?>
<!-- Created with Inkscape (http://www.inkscape.org/) -->

<svg
   xmlns:dc="http://purl.org/dc/elements/1.1/"
   xmlns:cc="http://creativecommons.org/ns#"
   xmlns:rdf="http://www.w3.org/1999/02/22-rdf-syntax-ns#"
   xmlns:svg="http://www.w3.org/2000/svg"
   xmlns="http://www.w3.org/2000/svg"
   xmlns:sodipodi="http://sodipodi.sourceforge.net/DTD/sodipodi-0.dtd"
   xmlns:inkscape="http://www.inkscape.org/namespaces/inkscape"
   width="177.16534"
   height="106.29886"
   id="svg2"
   version="1.1"
   inkscape:version="0.48.4 r9939"
   sodipodi:docname="utthita_sarvangasana.svg">
  <defs
     id="defs4" />
  <sodipodi:namedview
     id="base"
     pagecolor="#ffffff"
     bordercolor="#666666"
     borderopacity="1.0"
     inkscape:pageopacity="0.0"
     inkscape:pageshadow="2"
     inkscape:zoom="1.2916667"
     inkscape:cx="193.15429"
     inkscape:cy="199.80049"
     inkscape:document-units="cm"
     inkscape:current-layer="layer1"
     showgrid="false"
     fit-margin-top="0"
     fit-margin-left="0"
     fit-margin-right="0"
     fit-margin-bottom="0"
     inkscape:window-width="1330"
     inkscape:window-height="747"
     inkscape:window-x="36"
     inkscape:window-y="21"
     inkscape:window-maximized="1"
     units="cm" />
  <metadata
     id="metadata7">
    <rdf:RDF>
      <cc:Work
         rdf:about="">
        <dc:format>image/svg+xml</dc:format>
        <dc:type
           rdf:resource="http://purl.org/dc/dcmitype/StillImage" />
        <dc:title />
      </cc:Work>
    </rdf:RDF>
  </metadata>
  <g
     inkscape:label="Layer 1"
     inkscape:groupmode="layer"
     id="layer1"
     transform="translate(-1048.2622,-4065.7321)">
    <path
       inkscape:connector-curvature="0"
       id="path2996"
       d="m 1105.004,4171.4981 c -0.6589,-0.5335 -0.6804,-0.6775 -0.5953,-3.9834 0.1296,-5.0391 0.5235,-9.4876 0.9027,-10.1961 0.4788,-0.8948 2.811,-1.9829 6.0471,-2.8215 1.5461,-0.4006 3.7235,-1.2259 4.8389,-1.8339 1.1153,-0.608 2.799,-1.3278 3.7415,-1.5994 0.9425,-0.2717 2.6605,-0.8701 3.8179,-1.3298 1.1574,-0.4598 3.2543,-1.0222 4.6598,-1.2497 2.7342,-0.4427 7.3948,-2.2973 10.3633,-4.1239 0.884,-0.5439 2.3491,-1.4451 3.2557,-2.0027 0.9065,-0.5575 2.3588,-1.2795 3.2272,-1.6044 0.8684,-0.3249 2.1147,-0.9562 2.7696,-1.4029 4.8093,-3.2801 7.6258,-5.0422 8.5335,-5.3387 1.3986,-0.4568 1.4328,-0.9051 0.3738,-4.8978 -1.3082,-4.9324 -1.866,-11.6071 -1.7091,-20.4534 0.1219,-6.8753 0.1623,-7.29 1.0497,-10.7718 0.5457,-2.1414 1.0914,-5.3379 1.3352,-7.8219 0.2269,-2.3104 0.6932,-5.5695 1.0363,-7.2425 0.3431,-1.673 0.6431,-4.2151 0.6667,-5.6491 0.039,-2.3679 -0.045,-2.8069 -0.9133,-4.7801 -0.5259,-1.195 -1.4056,-2.6345 -1.9549,-3.1989 -1.5788,-1.6222 -1.3012,-3.4641 0.5221,-3.4641 1.7417,0 3.8929,1.8626 4.5718,3.9585 0.1979,0.6111 0.6611,1.7126 1.0293,2.4476 1.2407,2.4766 1.2114,4.3707 -0.1832,11.8449 -0.3121,1.673 -0.6904,4.541 -0.8406,6.3734 -0.1501,1.8323 -0.7362,5.3883 -1.3025,7.9021 l -1.0295,4.5706 0,7.2572 c 0,8.9705 0.3589,13.3317 1.455,17.6794 0.4672,1.8534 0.9318,4.0701 1.0324,4.9261 0.2591,2.2049 -0.4045,18.3105 -0.9116,22.1226 -0.9525,7.161 -1.1037,8.8445 -0.8197,9.1284 0.1563,0.1563 1.2886,0.3691 2.5162,0.4729 l 2.232,0.1887 0,-0.7214 c 0,-0.3968 -0.2656,-1.4915 -0.5902,-2.4326 -0.3246,-0.9411 -0.8357,-3.2103 -1.1357,-5.0426 -0.3001,-1.8324 -0.695,-3.9238 -0.8776,-4.6476 -0.2811,-1.1142 -0.2529,-1.514 0.1837,-2.6073 0.4049,-1.0137 0.5309,-2.2797 0.586,-5.8896 0.059,-3.854 0.1499,-4.6864 0.5624,-5.1422 1.2821,-1.4167 3.1393,-0.042 3.465,2.5653 0.304,2.4329 -0.034,7.5759 -0.5808,8.8516 -0.3636,0.8475 -0.4069,1.3416 -0.1902,2.1728 0.1542,0.5916 0.4368,2.1838 0.628,3.5382 0.1911,1.3543 0.8509,4.1466 1.466,6.2052 1.3259,4.4366 1.3889,5.4284 0.4075,6.4098 -0.618,0.618 -0.9689,0.7099 -2.6797,0.7017 -1.0828,-0.01 -2.8812,-0.1331 -3.9966,-0.2842 -1.1153,-0.151 -4.2275,-0.4068 -6.9159,-0.5683 -2.6884,-0.1615 -5.4114,-0.4346 -6.0511,-0.6069 l -1.1631,-0.3132 -1.295,1.4805 c -1.801,2.0588 -3.1283,2.6697 -6.1523,2.8319 -4.5316,0.243 -7.804,-0.8407 -10.3677,-3.4333 -1.4982,-1.5151 -1.9282,-2.9018 -1.712,-5.5211 0.1861,-2.2561 0.6064,-3.1729 2.1285,-4.6428 1.5241,-1.472 2.9992,-2.0198 5.8911,-2.1881 2.2414,-0.1305 2.6979,-0.059 5.0697,0.7901 1.4336,0.5134 3.1841,1.0516 3.8902,1.1959 0.706,0.1444 1.5795,0.4563 1.9411,0.6932 0.7223,0.4733 1.2614,2.0313 1.2639,3.6529 l 0,1.0438 2.1691,0.1834 c 1.1931,0.1008 2.6597,0.2549 3.2591,0.3423 0.5996,0.087 1.2633,0.043 1.4751,-0.1 0.2118,-0.1423 0.494,-1.092 0.6271,-2.1105 0.1331,-1.0184 0.4497,-3.4161 0.7036,-5.3281 0.5533,-4.167 1.0852,-16.6884 0.7251,-17.0699 -0.3567,-0.3778 -1.258,0.086 -5.1494,2.6496 -1.8563,1.2229 -4.241,2.5774 -5.2992,3.0099 -1.0582,0.4325 -3.1819,1.5788 -4.7191,2.5473 -4.0931,2.5786 -9.4055,4.8471 -12.6708,5.4106 -1.4679,0.2533 -3.6003,0.8306 -4.7385,1.2827 -1.1383,0.4522 -2.8401,1.0462 -3.7819,1.3199 -0.9417,0.2738 -2.1858,0.7968 -2.7647,1.1622 -1.5456,0.9757 -2.9399,1.5063 -6.0018,2.2837 -1.5053,0.3823 -2.9288,0.8868 -3.1632,1.1212 -0.3243,0.3243 -0.4805,1.6706 -0.654,5.6354 -0.2302,5.2618 -0.426,6.1812 -1.4311,6.7191 -0.8033,0.4299 -1.3088,0.3674 -2.0803,-0.2572 z"
       style="fill:#000000" />
  </g>
</svg>
